<svg width="839" height="130" viewBox="0 0 839 130" fill="none" xmlns="http://www.w3.org/2000/svg">
<path d="M21.3223 128H0.931641C0.462891 128 0.228516 127.707 0.228516 127.121L0.404297 3.45898C0.404297 2.99023 0.697266 2.75586 1.2832 2.75586H21.3223C21.9082 2.75586 22.2012 2.99023 22.2012 3.45898L22.0254 52.4141H49.0078V3.45898C49.0078 2.99023 49.2422 2.75586 49.7109 2.75586H69.75C70.3359 2.75586 70.6289 2.99023 70.6289 3.45898L70.9805 127.121C70.9805 127.707 70.6875 128 70.1016 128H49.8867C49.3008 128 49.0078 127.707 49.0078 127.121V74.2109H22.0254V127.121C22.0254 127.707 21.791 128 21.3223 128ZM118.969 129.758C112.582 129.758 106.693 128.117 101.303 124.836C95.9707 121.555 91.6641 117.189 88.3828 111.74C85.1602 106.232 83.5488 100.197 83.5488 93.6348L83.7246 36.5938C83.7246 29.9141 85.3359 23.9082 88.5586 18.5762C91.7227 13.1855 96 8.87891 101.391 5.65625C106.781 2.375 112.641 0.734375 118.969 0.734375C125.531 0.734375 131.42 2.3457 136.635 5.56836C141.908 8.79102 146.127 13.127 149.291 18.5762C152.514 23.9668 154.125 29.9727 154.125 36.5938L154.301 93.6348C154.301 100.197 152.719 106.203 149.555 111.652C146.332 117.16 142.055 121.555 136.723 124.836C131.391 128.117 125.473 129.758 118.969 129.758ZM118.969 108.049C122.602 108.049 125.766 106.584 128.461 103.654C131.156 100.666 132.504 97.3262 132.504 93.6348L132.328 36.5938C132.328 32.6094 131.068 29.2402 128.549 26.4863C126.029 23.7324 122.836 22.3555 118.969 22.3555C115.277 22.3555 112.113 23.7031 109.477 26.3984C106.84 29.0938 105.521 32.4922 105.521 36.5938V93.6348C105.521 97.5605 106.84 100.959 109.477 103.83C112.113 106.643 115.277 108.049 118.969 108.049ZM206.332 128H184.535C184.008 128 183.715 127.707 183.656 127.121L162.387 3.45898C162.27 2.99023 162.445 2.75586 162.914 2.75586H183.129C183.598 2.75586 183.891 2.99023 184.008 3.45898L195.521 84.7578L207.387 3.45898C207.504 2.99023 207.855 2.75586 208.441 2.75586H224.701C225.17 2.75586 225.463 2.99023 225.58 3.45898L237.27 84.7578L248.959 3.45898C249.076 2.99023 249.369 2.75586 249.838 2.75586H269.877C270.463 2.75586 270.697 2.99023 270.58 3.45898L249.135 127.121C249.076 127.355 248.9 127.561 248.607 127.736L248.256 128H226.459C226.107 128 225.814 127.707 225.58 127.121L216.352 62.5215L207.211 127.121C207.152 127.707 206.859 128 206.332 128ZM314.262 127.824L282.006 128C281.42 128 281.127 127.707 281.127 127.121L281.479 3.45898C281.479 2.99023 281.713 2.75586 282.182 2.75586L315.844 2.58008C322.523 2.4043 328.559 3.92773 333.949 7.15039C339.398 10.373 343.734 14.7383 346.957 20.2461C350.238 25.6953 351.879 31.7305 351.879 38.3516V90.0312C351.879 96.9453 350.209 103.273 346.869 109.016C343.471 114.699 338.959 119.24 333.334 122.639C327.709 125.979 321.352 127.707 314.262 127.824ZM315.844 24.1133L303.275 24.2891L303.1 105.852H314.262C318.715 105.852 322.465 104.299 325.512 101.193C328.559 98.0879 330.082 94.3672 330.082 90.0312V38.1758C330.082 34.3672 328.676 31.0566 325.863 28.2441C323.051 25.373 319.711 23.9961 315.844 24.1133ZM403.559 128H382.904C382.494 128 382.289 127.766 382.289 127.297L382.465 76.1445L358.383 3.45898C358.266 2.99023 358.441 2.75586 358.91 2.75586H378.949C379.535 2.75586 379.887 2.99023 380.004 3.45898L393.275 51.8867L406.811 3.45898C406.928 2.99023 407.221 2.75586 407.689 2.75586H427.904C428.373 2.75586 428.549 2.99023 428.432 3.45898L404.086 75.4414L404.262 127.297C404.262 127.766 404.027 128 403.559 128ZM443.197 128H422.807C422.338 128 422.104 127.766 422.104 127.297V106.906C422.104 106.438 422.338 106.203 422.807 106.203H443.197C443.666 106.203 443.9 106.438 443.9 106.906V127.297C443.9 127.766 443.666 128 443.197 128ZM452.602 127.121L474.926 3.45898C475.043 2.99023 475.336 2.75586 475.805 2.75586H501.908C502.377 2.75586 502.67 2.99023 502.787 3.45898L524.232 127.121C524.291 127.707 524.057 128 523.529 128H503.578C502.992 128 502.67 127.707 502.611 127.121L500.678 113.938H476.156L474.223 127.121C474.164 127.707 473.871 128 473.344 128H453.305C452.836 128 452.602 127.707 452.602 127.121ZM489.691 44.1523L488.637 37.4727L487.846 44.1523L479.76 94.6895H497.074L489.691 44.1523ZM568.617 129.758C562.289 129.758 556.43 128.117 551.039 124.836C545.648 121.555 541.342 117.16 538.119 111.652C534.955 106.086 533.373 100.021 533.373 93.459L533.725 3.45898C533.725 2.99023 533.959 2.75586 534.428 2.75586H554.643C555.111 2.75586 555.346 2.99023 555.346 3.45898V93.459C555.346 97.502 556.635 100.959 559.213 103.83C561.791 106.643 564.926 108.049 568.617 108.049C572.484 108.049 575.707 106.643 578.285 103.83C580.863 100.959 582.152 97.502 582.152 93.459V3.45898C582.152 2.99023 582.387 2.75586 582.855 2.75586H603.07C603.539 2.75586 603.773 2.99023 603.773 3.45898L604.125 93.459C604.125 100.08 602.543 106.174 599.379 111.74C596.156 117.248 591.879 121.643 586.547 124.924C581.215 128.146 575.238 129.758 568.617 129.758ZM656.684 128H636.381C635.854 128 635.59 127.707 635.59 127.121V24.4648H612.211C611.625 24.4648 611.332 24.1719 611.332 23.5859L611.508 3.45898C611.508 2.99023 611.742 2.75586 612.211 2.75586H680.59C681.234 2.75586 681.557 2.99023 681.557 3.45898V23.5859C681.557 24.1719 681.322 24.4648 680.854 24.4648H657.211L657.387 127.121C657.387 127.707 657.152 128 656.684 128ZM723.656 129.758C717.27 129.758 711.381 128.117 705.99 124.836C700.658 121.555 696.352 117.189 693.07 111.74C689.848 106.232 688.236 100.197 688.236 93.6348L688.412 36.5938C688.412 29.9141 690.023 23.9082 693.246 18.5762C696.41 13.1855 700.688 8.87891 706.078 5.65625C711.469 2.375 717.328 0.734375 723.656 0.734375C730.219 0.734375 736.107 2.3457 741.322 5.56836C746.596 8.79102 750.814 13.127 753.979 18.5762C757.201 23.9668 758.812 29.9727 758.812 36.5938L758.988 93.6348C758.988 100.197 757.406 106.203 754.242 111.652C751.02 117.16 746.742 121.555 741.41 124.836C736.078 128.117 730.16 129.758 723.656 129.758ZM723.656 108.049C727.289 108.049 730.453 106.584 733.148 103.654C735.844 100.666 737.191 97.3262 737.191 93.6348L737.016 36.5938C737.016 32.6094 735.756 29.2402 733.236 26.4863C730.717 23.7324 727.523 22.3555 723.656 22.3555C719.965 22.3555 716.801 23.7031 714.164 26.3984C711.527 29.0938 710.209 32.4922 710.209 36.5938V93.6348C710.209 97.5605 711.527 100.959 714.164 103.83C716.801 106.643 719.965 108.049 723.656 108.049ZM803.197 129.758C796.811 129.758 790.922 128.117 785.531 124.836C780.199 121.555 775.922 117.189 772.699 111.74C769.535 106.232 767.953 100.197 767.953 93.6348V85.373C767.953 84.7285 768.246 84.4062 768.832 84.4062H789.047C789.516 84.4062 789.75 84.7285 789.75 85.373V93.6348C789.75 97.5605 791.068 100.959 793.705 103.83C796.342 106.643 799.506 108.049 803.197 108.049C806.947 108.049 810.141 106.613 812.777 103.742C815.414 100.812 816.732 97.4434 816.732 93.6348C816.732 89.2402 813.861 85.4023 808.119 82.1211C807.182 81.5352 805.951 80.832 804.428 80.0117C802.963 79.1328 801.205 78.1367 799.154 77.0234C797.104 75.9102 795.111 74.8262 793.178 73.7715C791.244 72.6582 789.369 71.6035 787.553 70.6074C780.99 66.7402 776.098 61.9062 772.875 56.1055C769.711 50.2461 768.129 43.6836 768.129 36.418C768.129 29.7383 769.77 23.7031 773.051 18.3125C776.332 12.9805 780.609 8.76172 785.883 5.65625C791.215 2.49219 796.986 0.910156 803.197 0.910156C809.584 0.910156 815.443 2.49219 820.775 5.65625C826.107 8.87891 830.355 13.1562 833.52 18.4883C836.742 23.8203 838.354 29.7969 838.354 36.418V51.1836C838.354 51.6523 838.119 51.8867 837.65 51.8867H817.436C816.967 51.8867 816.732 51.6523 816.732 51.1836L816.557 36.418C816.557 32.1992 815.238 28.7715 812.602 26.1348C809.965 23.498 806.83 22.1797 803.197 22.1797C799.506 22.1797 796.342 23.5859 793.705 26.3984C791.068 29.2109 789.75 32.5508 789.75 36.418C789.75 40.3438 790.57 43.625 792.211 46.2617C793.91 48.8984 796.986 51.418 801.439 53.8203C801.908 54.0547 802.992 54.6406 804.691 55.5781C806.391 56.5156 808.266 57.5703 810.316 58.7422C812.426 59.8555 814.33 60.8809 816.029 61.8184C817.729 62.6973 818.754 63.2246 819.105 63.4004C825.082 66.7402 829.799 70.8418 833.256 75.7051C836.771 80.5684 838.529 86.5449 838.529 93.6348C838.529 100.49 836.947 106.643 833.783 112.092C830.561 117.541 826.283 121.848 820.951 125.012C815.619 128.176 809.701 129.758 803.197 129.758Z" fill="black"/>
</svg>
