<svg width="376" height="362" viewBox="0 0 376 362" fill="none" xmlns="http://www.w3.org/2000/svg">
<path fill-rule="evenodd" clip-rule="evenodd" d="M201.786 114.875C201.786 103.808 210.897 94.6071 221.66 97.1796C259.557 106.237 287.731 140.329 287.731 181.001C287.731 221.672 259.557 255.764 221.66 264.822C210.897 267.394 201.786 258.193 201.786 247.126L201.786 114.875Z" fill="#FF4548"/>
<rect x="225.608" y="284.93" width="77.071" height="23.8219" rx="11.911" transform="rotate(90 225.608 284.93)" fill="#FF4548"/>
<path d="M305 181.5C305 175.149 310.149 170 316.5 170L364.5 170C370.851 170 376 175.149 376 181.5C376 187.851 370.851 193 364.5 193L316.5 193C310.149 193 305 187.851 305 181.5Z" fill="#FF4548"/>
<path d="M277.127 252.247C281.779 247.595 289.32 247.595 293.972 252.247L316.761 275.036C321.413 279.688 321.413 287.229 316.761 291.881C312.11 296.533 304.568 296.533 299.917 291.881L277.127 269.091C272.475 264.44 272.475 256.898 277.127 252.247Z" fill="#FF4548"/>
<path d="M248.045 274.541C254.122 272.023 261.09 274.909 263.607 280.987L268.791 293.501C271.308 299.579 268.422 306.546 262.345 309.064C256.267 311.581 249.3 308.695 246.782 302.618L241.598 290.103C239.081 284.025 241.967 277.058 248.045 274.541Z" fill="#FF4548"/>
<path d="M297.664 220.292C300.702 214.457 307.894 212.189 313.729 215.226L325.745 221.481C331.579 224.519 333.847 231.711 330.81 237.546C327.772 243.381 320.58 245.649 314.745 242.612L302.729 236.357C296.894 233.319 294.627 226.127 297.664 220.292Z" fill="#FF4548"/>
<path d="M297.91 142.182C295.392 136.105 298.278 129.137 304.356 126.62L316.871 121.436C322.948 118.918 329.916 121.805 332.433 127.882C334.95 133.96 332.064 140.927 325.987 143.444L313.472 148.628C307.395 151.146 300.427 148.26 297.91 142.182Z" fill="#FF4548"/>
<path d="M246.556 87.0659C240.478 84.5486 237.592 77.581 240.109 71.5035L245.293 58.9888C247.811 52.9113 254.778 50.0253 260.856 52.5426C266.933 55.06 269.819 62.0276 267.302 68.1051L262.118 80.6198C259.601 86.6973 252.633 89.5833 246.556 87.0659Z" fill="#FF4548"/>
<path d="M317.344 70.4937C321.996 75.1452 321.996 82.6868 317.344 87.3383L294.438 110.244C289.787 114.896 282.245 114.896 277.594 110.244C272.942 105.593 272.942 98.0512 277.594 93.3997L300.5 70.4937C305.151 65.8422 312.693 65.8422 317.344 70.4937Z" fill="#FF4548"/>
<rect x="225.608" width="77.071" height="23.8219" rx="11.911" transform="rotate(90 225.608 0)" fill="#FF4548"/>
<rect x="184.503" width="362" height="23.8219" rx="11.911" transform="rotate(90 184.503 0)" fill="#0AA9FF"/>
<rect x="184.503" y="193.379" width="184.503" height="23.8219" rx="11.911" transform="rotate(180 184.503 193.379)" fill="#0AA9FF"/>
<rect x="189.641" y="181.73" width="175.554" height="23.8219" rx="11.911" transform="rotate(135 189.641 181.73)" fill="#0AA9FF"/>
<rect x="172.796" y="197.754" width="175.661" height="23.8219" rx="11.911" transform="rotate(-135 172.796 197.754)" fill="#0AA9FF"/>
<rect x="172.796" y="137.447" width="80.4591" height="23.8219" rx="11.911" transform="rotate(-135 172.796 137.447)" fill="#0AA9FF"/>
<rect x="189.641" y="242.92" width="80.7404" height="23.8219" rx="11.911" transform="rotate(135 189.641 242.92)" fill="#0AA9FF"/>
<rect x="132.655" y="181.73" width="81.1119" height="23.8219" rx="11.911" transform="rotate(135 132.655 181.73)" fill="#0AA9FF"/>
<rect x="77.0713" y="181.73" width="74.1153" height="23.8219" rx="11.911" transform="rotate(135 77.0713 181.73)" fill="#0AA9FF"/>
<rect x="60.2266" y="198.639" width="74.1153" height="23.8219" rx="11.911" transform="rotate(-135 60.2266 198.639)" fill="#0AA9FF"/>
<rect x="115.811" y="198.639" width="83.4317" height="23.8219" rx="11.911" transform="rotate(-135 115.811 198.639)" fill="#0AA9FF"/>
<rect x="144.333" y="210.66" width="84.0774" height="23.8219" rx="11.911" transform="rotate(90 144.333 210.66)" fill="#0AA9FF"/>
<rect x="144.333" y="234.482" width="80.8077" height="23.8219" rx="11.911" transform="rotate(180 144.333 234.482)" fill="#0AA9FF"/>
<rect x="144.333" y="151.34" width="82.6761" height="23.8219" rx="11.911" transform="rotate(180 144.333 151.34)" fill="#0AA9FF"/>
<rect x="101.359" y="275.588" width="56.0516" height="23.8219" rx="11.911" transform="rotate(180 101.359 275.588)" fill="#0AA9FF"/>
<rect x="101.359" y="110.701" width="56.0516" height="23.8219" rx="11.911" transform="rotate(180 101.359 110.701)" fill="#0AA9FF"/>
<rect x="105.162" y="251.766" width="56.0516" height="23.8219" rx="11.911" transform="rotate(90 105.162 251.766)" fill="#0AA9FF"/>
<rect x="104.162" y="53.25" width="56.0516" height="23.8219" rx="11.911" transform="rotate(90 104.162 53.25)" fill="#0AA9FF"/>
<rect x="144.333" y="69.1309" width="82.209" height="23.8219" rx="11.911" transform="rotate(90 144.333 69.1309)" fill="#0AA9FF"/>
<rect x="189.641" y="301.773" width="60.7226" height="23.8219" rx="11.911" transform="rotate(135 189.641 301.773)" fill="#0AA9FF"/>
<rect x="172.796" y="77.1934" width="60.7226" height="23.8219" rx="11.911" transform="rotate(-135 172.796 77.1934)" fill="#0AA9FF"/>
</svg>
