<svg width="887" height="887" viewBox="0 0 887 887" fill="none" xmlns="http://www.w3.org/2000/svg">
<path d="M757.616 157.983C772.277 162.789 777.565 180.801 767.83 192.77L425.439 613.72L331.644 52.2237C328.919 35.9154 344.485 22.5429 360.196 27.6937L757.616 157.983Z" fill="#FF4B4F" stroke="#0D1426" stroke-width="36"/>
<path d="M123 104C123 91.8497 132.85 82 145 82H437.283C449.434 82 459.283 91.8497 459.283 104V858H145C132.85 858 123 848.15 123 836V104Z" fill="#1553F5" stroke="#0D1426" stroke-width="36"/>
<path d="M694.28 819.815C698.049 838.783 682.176 858 657.75 858L145.043 858C132.16 858 124.215 847.964 125.472 838.395C144.038 697.081 264.992 587.98 411.407 587.98C551.33 587.98 668.013 687.623 694.28 819.815Z" fill="#1CD290" stroke="#0D1426" stroke-width="36"/>
</svg>
