<svg width="887" height="887" viewBox="0 0 887 887" fill="none" xmlns="http://www.w3.org/2000/svg">
<rect x="13.5" y="13.5" width="860" height="860" rx="106.5" stroke="black" stroke-width="27"/>
<path d="M93.1807 444H55.7979C54.9385 444 54.5088 443.463 54.5088 442.389L54.8311 215.675C54.8311 214.815 55.3682 214.386 56.4424 214.386H93.1807C94.2549 214.386 94.792 214.815 94.792 215.675L94.4697 305.426H143.938V215.675C143.938 214.815 144.367 214.386 145.227 214.386H181.965C183.039 214.386 183.576 214.815 183.576 215.675L184.221 442.389C184.221 443.463 183.684 444 182.609 444H145.549C144.475 444 143.938 443.463 143.938 442.389V345.387H94.4697V442.389C94.4697 443.463 94.04 444 93.1807 444ZM272.199 447.223C260.49 447.223 249.694 444.215 239.812 438.199C230.036 432.184 222.141 424.181 216.125 414.19C210.217 404.093 207.263 393.028 207.263 380.997L207.585 276.422C207.585 264.176 210.539 253.165 216.447 243.39C222.248 233.507 230.09 225.611 239.973 219.703C249.855 213.688 260.598 210.68 272.199 210.68C284.23 210.68 295.026 213.634 304.587 219.542C314.255 225.45 321.989 233.399 327.79 243.39C333.698 253.272 336.652 264.283 336.652 276.422L336.975 380.997C336.975 393.028 334.074 404.039 328.273 414.029C322.365 424.127 314.523 432.184 304.748 438.199C294.973 444.215 284.123 447.223 272.199 447.223ZM272.199 407.423C278.859 407.423 284.66 404.737 289.602 399.366C294.543 393.888 297.014 387.765 297.014 380.997L296.691 276.422C296.691 269.117 294.382 262.94 289.763 257.892C285.144 252.843 279.289 250.318 272.199 250.318C265.432 250.318 259.631 252.789 254.797 257.73C249.963 262.672 247.546 268.902 247.546 276.422V380.997C247.546 388.194 249.963 394.425 254.797 399.688C259.631 404.845 265.432 407.423 272.199 407.423ZM432.365 444H392.404C391.438 444 390.9 443.463 390.793 442.389L351.799 215.675C351.584 214.815 351.906 214.386 352.766 214.386H389.826C390.686 214.386 391.223 214.815 391.438 215.675L412.546 364.723L434.299 215.675C434.514 214.815 435.158 214.386 436.232 214.386H466.042C466.901 214.386 467.438 214.815 467.653 215.675L489.084 364.723L510.515 215.675C510.729 214.815 511.267 214.386 512.126 214.386H548.864C549.938 214.386 550.368 214.815 550.153 215.675L510.837 442.389C510.729 442.818 510.407 443.194 509.87 443.517L509.226 444H469.265C468.62 444 468.083 443.463 467.653 442.389L450.734 323.956L433.977 442.389C433.869 443.463 433.332 444 432.365 444ZM630.236 443.678L571.101 444C570.026 444 569.489 443.463 569.489 442.389L570.134 215.675C570.134 214.815 570.563 214.386 571.423 214.386L633.137 214.063C645.383 213.741 656.447 216.534 666.33 222.442C676.32 228.351 684.27 236.354 690.178 246.451C696.193 256.441 699.201 267.506 699.201 279.645V374.391C699.201 387.066 696.14 398.668 690.017 409.195C683.786 419.615 675.515 427.94 665.202 434.171C654.89 440.294 643.234 443.463 630.236 443.678ZM633.137 253.541L610.095 253.863L609.772 403.395H630.236C638.4 403.395 645.275 400.548 650.861 394.854C656.447 389.161 659.24 382.34 659.24 374.391V279.322C659.24 272.34 656.662 266.271 651.506 261.114C646.35 255.851 640.227 253.326 633.137 253.541ZM793.947 444H756.081C755.329 444 754.953 443.57 754.953 442.711L755.275 348.932L711.125 215.675C710.91 214.815 711.232 214.386 712.092 214.386H748.83C749.904 214.386 750.549 214.815 750.764 215.675L775.095 304.459L799.909 215.675C800.124 214.815 800.661 214.386 801.521 214.386H838.581C839.44 214.386 839.763 214.815 839.548 215.675L794.914 347.643L795.236 442.711C795.236 443.57 794.807 444 793.947 444ZM85.2852 692.389L126.213 465.675C126.428 464.815 126.965 464.386 127.824 464.386H175.681C176.54 464.386 177.077 464.815 177.292 465.675L216.608 692.389C216.716 693.463 216.286 694 215.319 694H178.742C177.668 694 177.077 693.463 176.97 692.389L173.425 668.219H128.469L124.924 692.389C124.816 693.463 124.279 694 123.312 694H86.5742C85.7148 694 85.2852 693.463 85.2852 692.389ZM153.283 540.279L151.35 528.033L149.899 540.279L135.075 632.931H166.818L153.283 540.279ZM297.98 697.223C286.379 697.223 275.637 694.215 265.754 688.199C255.871 682.184 247.976 674.127 242.067 664.029C236.267 653.824 233.366 642.706 233.366 630.675L234.011 465.675C234.011 464.815 234.44 464.386 235.3 464.386H272.36C273.22 464.386 273.649 464.815 273.649 465.675V630.675C273.649 638.087 276.013 644.425 280.739 649.688C285.466 654.845 291.213 657.423 297.98 657.423C305.07 657.423 310.979 654.845 315.705 649.688C320.432 644.425 322.795 638.087 322.795 630.675V465.675C322.795 464.815 323.225 464.386 324.084 464.386H361.145C362.004 464.386 362.434 464.815 362.434 465.675L363.078 630.675C363.078 642.813 360.178 653.985 354.377 664.19C348.469 674.288 340.627 682.345 330.852 688.36C321.076 694.269 310.119 697.223 297.98 697.223ZM459.436 694H422.214C421.247 694 420.764 693.463 420.764 692.389V504.186H377.902C376.828 504.186 376.291 503.648 376.291 502.574L376.613 465.675C376.613 464.815 377.043 464.386 377.902 464.386H503.264C504.445 464.386 505.036 464.815 505.036 465.675V502.574C505.036 503.648 504.606 504.186 503.747 504.186H460.402L460.725 692.389C460.725 693.463 460.295 694 459.436 694ZM582.219 697.223C570.51 697.223 559.714 694.215 549.831 688.199C540.056 682.184 532.16 674.181 526.145 664.19C520.236 654.093 517.282 643.028 517.282 630.997L517.604 526.422C517.604 514.176 520.559 503.165 526.467 493.39C532.268 483.507 540.109 475.611 549.992 469.703C559.875 463.688 570.617 460.68 582.219 460.68C594.25 460.68 605.046 463.634 614.606 469.542C624.274 475.45 632.009 483.399 637.81 493.39C643.718 503.272 646.672 514.283 646.672 526.422L646.994 630.997C646.994 643.028 644.094 654.039 638.293 664.029C632.385 674.127 624.543 682.184 614.768 688.199C604.992 694.215 594.143 697.223 582.219 697.223ZM582.219 657.423C588.879 657.423 594.68 654.737 599.621 649.366C604.562 643.888 607.033 637.765 607.033 630.997L606.711 526.422C606.711 519.117 604.401 512.94 599.782 507.892C595.163 502.843 589.309 500.318 582.219 500.318C575.451 500.318 569.65 502.789 564.816 507.73C559.982 512.672 557.565 518.902 557.565 526.422V630.997C557.565 638.194 559.982 644.425 564.816 649.688C569.65 654.845 575.451 657.423 582.219 657.423ZM728.044 697.223C716.335 697.223 705.539 694.215 695.656 688.199C685.881 682.184 678.039 674.181 672.131 664.19C666.33 654.093 663.43 643.028 663.43 630.997V615.851C663.43 614.669 663.967 614.078 665.041 614.078H702.102C702.961 614.078 703.391 614.669 703.391 615.851V630.997C703.391 638.194 705.808 644.425 710.642 649.688C715.476 654.845 721.276 657.423 728.044 657.423C734.919 657.423 740.773 654.791 745.607 649.527C750.441 644.156 752.858 637.979 752.858 630.997C752.858 622.94 747.595 615.904 737.067 609.889C735.349 608.814 733.093 607.525 730.3 606.021C727.614 604.41 724.392 602.584 720.632 600.543C716.872 598.502 713.22 596.515 709.675 594.581C706.13 592.54 702.692 590.606 699.362 588.78C687.331 581.69 678.361 572.828 672.453 562.193C666.652 551.451 663.752 539.42 663.752 526.1C663.752 513.854 666.76 502.789 672.775 492.906C678.791 483.131 686.633 475.396 696.301 469.703C706.076 463.902 716.657 461.002 728.044 461.002C739.753 461.002 750.495 463.902 760.271 469.703C770.046 475.611 777.834 483.453 783.635 493.229C789.543 503.004 792.497 513.961 792.497 526.1V553.17C792.497 554.029 792.067 554.459 791.208 554.459H754.147C753.288 554.459 752.858 554.029 752.858 553.17L752.536 526.1C752.536 518.365 750.119 512.081 745.285 507.247C740.451 502.413 734.704 499.996 728.044 499.996C721.276 499.996 715.476 502.574 710.642 507.73C705.808 512.887 703.391 519.01 703.391 526.1C703.391 533.297 704.895 539.312 707.902 544.146C711.018 548.98 716.657 553.6 724.821 558.004C725.681 558.434 727.668 559.508 730.783 561.227C733.898 562.945 737.336 564.879 741.096 567.027C744.963 569.068 748.454 570.948 751.569 572.667C754.685 574.278 756.564 575.245 757.209 575.567C768.166 581.69 776.813 589.21 783.151 598.126C789.597 607.042 792.819 617.999 792.819 630.997C792.819 643.565 789.919 654.845 784.118 664.835C778.21 674.825 770.368 682.721 760.593 688.521C750.817 694.322 739.968 697.223 728.044 697.223Z" fill="black"/>
</svg>
