<svg width="649" height="348" viewBox="0 0 649 348" fill="none" xmlns="http://www.w3.org/2000/svg">
<rect width="649" height="348" fill="white"/>
<rect width="649" height="348" rx="41" fill="#DFA952"/>
<path d="M0 275H649V307C649 329.644 630.644 348 608 348H41C18.3563 348 0 329.644 0 307V275Z" fill="#0B1D50"/>
<path fill-rule="evenodd" clip-rule="evenodd" d="M193.233 348H41C18.3563 348 0 329.644 0 307V285.776C10.9664 284.612 22.3402 284 34 284C112.008 284 177.217 311.399 193.233 348ZM649 284.096V307C649 329.644 630.644 348 608 348H481.767C497.783 311.399 562.992 284 641 284C643.682 284 646.349 284.032 649 284.096Z" fill="#5E5C7A"/>
<path d="M173.16 76.18V78H159.86V76.18L163.64 75.76C164.153 75.7133 164.527 75.6433 164.76 75.55C164.993 75.41 165.203 75.13 165.39 74.71C165.623 74.2433 165.903 73.45 166.23 72.33L179.74 30.4H184.15L197.8 72.33C198.127 73.45 198.383 74.2433 198.57 74.71C198.803 75.13 199.037 75.41 199.27 75.55C199.503 75.6433 199.853 75.7133 200.32 75.76L204.17 76.18V78H187.16V76.18L191.01 75.76C191.757 75.6667 192.153 75.48 192.2 75.2C192.293 74.8733 192.083 73.9167 191.57 72.33L188.7 63.37H171.62L168.75 72.33C168.237 73.9167 168.003 74.8733 168.05 75.2C168.143 75.48 168.563 75.6667 169.31 75.76L173.16 76.18ZM172.32 61.13H188L180.16 36.77L172.32 61.13ZM239.725 66.45H241.615V78H209.765V76.18L213.615 75.76C214.362 75.6667 214.805 75.48 214.945 75.2C215.085 74.92 215.155 73.9633 215.155 72.33V36.07C215.155 34.4367 215.085 33.48 214.945 33.2C214.805 32.92 214.362 32.7333 213.615 32.64L209.765 32.29V30.4H226.635V32.29L222.785 32.64C222.038 32.7333 221.595 32.92 221.455 33.2C221.315 33.48 221.245 34.4367 221.245 36.07V75.76H233.915C235.035 75.76 235.828 75.7367 236.295 75.69C236.762 75.5967 237.065 75.4333 237.205 75.2C237.392 74.92 237.555 74.5 237.695 73.94L239.725 66.45ZM258.04 76.18V78H244.74V76.18L248.52 75.76C249.034 75.7133 249.407 75.6433 249.64 75.55C249.874 75.41 250.084 75.13 250.27 74.71C250.504 74.2433 250.784 73.45 251.11 72.33L264.62 30.4H269.03L282.68 72.33C283.007 73.45 283.264 74.2433 283.45 74.71C283.684 75.13 283.917 75.41 284.15 75.55C284.384 75.6433 284.734 75.7133 285.2 75.76L289.05 76.18V78H272.04V76.18L275.89 75.76C276.637 75.6667 277.034 75.48 277.08 75.2C277.174 74.8733 276.964 73.9167 276.45 72.33L273.58 63.37H256.5L253.63 72.33C253.117 73.9167 252.884 74.8733 252.93 75.2C253.024 75.48 253.444 75.6667 254.19 75.76L258.04 76.18ZM257.2 61.13H272.88L265.04 36.77L257.2 61.13ZM294.646 32.29V30.4H313.686C318.259 30.4 321.689 31.4733 323.976 33.62C326.262 35.72 327.406 38.4267 327.406 41.74V43.63C327.406 46.0567 326.682 48.1333 325.236 49.86C323.789 51.5867 321.759 52.8 319.146 53.5C322.412 54.06 324.956 55.2967 326.776 57.21C328.596 59.1233 329.506 61.5267 329.506 64.42V66.31C329.506 69.7167 328.316 72.5167 325.936 74.71C323.602 76.9033 320.102 78 315.436 78H294.646V76.18L298.496 75.76C299.242 75.6667 299.686 75.48 299.826 75.2C299.966 74.92 300.036 73.9633 300.036 72.33V36.07C300.036 34.4367 299.966 33.48 299.826 33.2C299.686 32.92 299.242 32.7333 298.496 32.64L294.646 32.29ZM313.686 32.64H306.126V52.66H313.686C318.539 52.66 320.966 49.8367 320.966 44.19V41.32C320.966 35.5333 318.539 32.64 313.686 32.64ZM315.436 54.9H306.126V75.76H315.436C320.522 75.76 323.066 72.75 323.066 66.73V63.86C323.066 60.9667 322.412 58.75 321.106 57.21C319.846 55.67 317.956 54.9 315.436 54.9ZM349.278 76.18V78H335.978V76.18L339.758 75.76C340.272 75.7133 340.645 75.6433 340.878 75.55C341.112 75.41 341.322 75.13 341.508 74.71C341.742 74.2433 342.022 73.45 342.348 72.33L355.858 30.4H360.268L373.918 72.33C374.245 73.45 374.502 74.2433 374.688 74.71C374.922 75.13 375.155 75.41 375.388 75.55C375.622 75.6433 375.972 75.7133 376.438 75.76L380.288 76.18V78H363.278V76.18L367.128 75.76C367.875 75.6667 368.272 75.48 368.318 75.2C368.412 74.8733 368.202 73.9167 367.688 72.33L364.818 63.37H347.738L344.868 72.33C344.355 73.9167 344.122 74.8733 344.168 75.2C344.262 75.48 344.682 75.6667 345.428 75.76L349.278 76.18ZM348.438 61.13H364.118L356.278 36.77L348.438 61.13ZM439.293 76.18V78H422.423V76.18L426.273 75.76C427.02 75.6667 427.463 75.48 427.603 75.2C427.743 74.8733 427.813 73.9167 427.813 72.33V34.39L413.253 72.4H408.493L393.863 34.39V72.33C393.863 73.9167 393.933 74.8733 394.073 75.2C394.213 75.48 394.657 75.6667 395.403 75.76L399.253 76.18V78H385.883V76.18L389.733 75.76C390.48 75.6667 390.923 75.48 391.063 75.2C391.203 74.8733 391.273 73.9167 391.273 72.33V36.07C391.273 34.4833 391.203 33.55 391.063 33.27C390.923 32.9433 390.48 32.7333 389.733 32.64L385.883 32.29V30.4H398.693L412.763 67.15L426.833 30.4H439.293V32.29L435.443 32.64C434.697 32.7333 434.253 32.9433 434.113 33.27C433.973 33.55 433.903 34.4833 433.903 36.07V72.33C433.903 73.9167 433.973 74.8733 434.113 75.2C434.253 75.48 434.697 75.6667 435.443 75.76L439.293 76.18ZM458.358 76.18V78H445.058V76.18L448.838 75.76C449.351 75.7133 449.725 75.6433 449.958 75.55C450.191 75.41 450.401 75.13 450.588 74.71C450.821 74.2433 451.101 73.45 451.428 72.33L464.938 30.4H469.348L482.998 72.33C483.325 73.45 483.581 74.2433 483.768 74.71C484.001 75.13 484.235 75.41 484.468 75.55C484.701 75.6433 485.051 75.7133 485.518 75.76L489.368 76.18V78H472.358V76.18L476.208 75.76C476.955 75.6667 477.351 75.48 477.398 75.2C477.491 74.8733 477.281 73.9167 476.768 72.33L473.898 63.37H456.818L453.948 72.33C453.435 73.9167 453.201 74.8733 453.248 75.2C453.341 75.48 453.761 75.6667 454.508 75.76L458.358 76.18ZM457.518 61.13H473.198L465.358 36.77L457.518 61.13Z" fill="#0B0F2B"/>
<circle cx="395.5" cy="234.5" r="28.5" fill="#E0D680"/>
</svg>
