<svg width="649" height="348" viewBox="0 0 649 348" fill="none" xmlns="http://www.w3.org/2000/svg">
<rect width="649" height="348" rx="41" fill="#E1A922"/>
<path d="M171.09 78.04V80H157.58V78.04L161.43 77.55C161.943 77.4567 162.317 77.3633 162.55 77.27C162.783 77.13 162.993 76.8267 163.18 76.36C163.367 75.8933 163.623 75.1467 163.95 74.12L177.32 32.4H183.34L196.78 74.12C197.107 75.1467 197.363 75.8933 197.55 76.36C197.737 76.8267 197.947 77.13 198.18 77.27C198.46 77.3633 198.833 77.4567 199.3 77.55L203.15 78.04V80H183.83V78.04L187.68 77.55C188.427 77.4567 188.823 77.27 188.87 76.99C188.963 76.6633 188.753 75.7067 188.24 74.12L185.58 65.44H169.41L166.68 74.12C166.213 75.7067 166.003 76.6633 166.05 76.99C166.097 77.27 166.493 77.4567 167.24 77.55L171.09 78.04ZM170.25 62.99H184.81L177.6 39.75L170.25 62.99ZM252.407 67.96H254.367V80H221.117V78.04L224.967 77.55C225.714 77.4567 226.157 77.27 226.297 76.99C226.437 76.6633 226.507 75.7067 226.507 74.12V38.28C226.507 36.6933 226.437 35.76 226.297 35.48C226.157 35.1533 225.714 34.9433 224.967 34.85L221.117 34.36V32.4H240.297V34.36L236.447 34.85C235.7 34.9433 235.257 35.1533 235.117 35.48C234.977 35.76 234.907 36.6933 234.907 38.28V77.55H246.387C247.507 77.55 248.3 77.5267 248.767 77.48C249.234 77.3867 249.537 77.2233 249.677 76.99C249.864 76.71 250.027 76.29 250.167 75.73L252.407 67.96ZM283.853 78.04V80H270.343V78.04L274.193 77.55C274.706 77.4567 275.08 77.3633 275.313 77.27C275.546 77.13 275.756 76.8267 275.943 76.36C276.13 75.8933 276.386 75.1467 276.713 74.12L290.083 32.4H296.103L309.543 74.12C309.87 75.1467 310.126 75.8933 310.313 76.36C310.5 76.8267 310.71 77.13 310.943 77.27C311.223 77.3633 311.596 77.4567 312.063 77.55L315.913 78.04V80H296.593V78.04L300.443 77.55C301.19 77.4567 301.586 77.27 301.633 76.99C301.726 76.6633 301.516 75.7067 301.003 74.12L298.343 65.44H282.173L279.443 74.12C278.976 75.7067 278.766 76.6633 278.813 76.99C278.86 77.27 279.256 77.4567 280.003 77.55L283.853 78.04ZM283.013 62.99H297.573L290.363 39.75L283.013 62.99ZM350.12 78.25C352.92 78.25 355.23 77.5967 357.05 76.29C358.917 74.9367 359.85 72.8367 359.85 69.99C359.85 67.89 359.22 66.14 357.96 64.74C356.747 63.34 354.553 62.1733 351.38 61.24L344.87 59.28C341.603 58.3 339.083 56.62 337.31 54.24C335.583 51.8133 334.72 48.8033 334.72 45.21C334.72 42.83 335.257 40.6133 336.33 38.56C337.45 36.5067 339.13 34.85 341.37 33.59C343.657 32.33 346.527 31.7 349.98 31.7C353.76 31.7 356.817 32.4 359.15 33.8C361.483 35.1533 363.117 36.9267 364.05 39.12C364.983 41.3133 365.217 43.67 364.75 46.19L356.7 47.66C357.447 43.32 357.12 39.9833 355.72 37.65C354.367 35.3167 352.15 34.15 349.07 34.15C346.69 34.15 344.777 34.85 343.33 36.25C341.93 37.65 341.23 39.6567 341.23 42.27C341.23 44.4167 341.837 46.3067 343.05 47.94C344.31 49.5733 346.363 50.8333 349.21 51.72L355.72 53.68C359.267 54.7067 361.927 56.27 363.7 58.37C365.473 60.4233 366.36 63.2933 366.36 66.98C366.36 69.5933 365.753 71.95 364.54 74.05C363.373 76.1033 361.577 77.7367 359.15 78.95C356.77 80.1167 353.783 80.7 350.19 80.7C347.577 80.7 345.103 80.3267 342.77 79.58C340.437 78.7867 338.477 77.5033 336.89 75.73C335.35 73.9567 334.37 71.5533 333.95 68.52L338.64 66.84C338.873 69.8267 339.527 72.16 340.6 73.84C341.72 75.4733 343.097 76.6167 344.73 77.27C346.41 77.9233 348.207 78.25 350.12 78.25ZM388.587 34.36V32.4H407.767V34.36L403.917 34.85C403.17 34.9433 402.727 35.1533 402.587 35.48C402.447 35.76 402.377 36.6933 402.377 38.28V57.11L418.967 38.28C420.32 36.74 421.02 35.8067 421.067 35.48C421.16 35.1533 420.833 34.9433 420.087 34.85L416.237 34.36V32.4H430.447V34.36L426.597 34.85C426.13 34.8967 425.757 34.99 425.477 35.13C425.197 35.27 424.847 35.5733 424.427 36.04C424.007 36.5067 423.33 37.2533 422.397 38.28L412.597 49.34L424.707 74.12C425.22 75.1 425.617 75.8233 425.897 76.29C426.177 76.7567 426.503 77.06 426.877 77.2C427.25 77.34 427.763 77.4567 428.417 77.55L431.567 78.04V80H418.267L406.927 55.78L402.377 60.96V74.12C402.377 75.7067 402.447 76.6633 402.587 76.99C402.727 77.27 403.17 77.4567 403.917 77.55L407.767 78.04V80H388.587V78.04L392.437 77.55C393.183 77.4567 393.627 77.27 393.767 76.99C393.907 76.6633 393.977 75.7067 393.977 74.12V38.28C393.977 36.6933 393.907 35.76 393.767 35.48C393.627 35.1533 393.183 34.9433 392.437 34.85L388.587 34.36ZM460.004 78.04V80H446.494V78.04L450.344 77.55C450.857 77.4567 451.231 77.3633 451.464 77.27C451.697 77.13 451.907 76.8267 452.094 76.36C452.281 75.8933 452.537 75.1467 452.864 74.12L466.234 32.4H472.254L485.694 74.12C486.021 75.1467 486.277 75.8933 486.464 76.36C486.651 76.8267 486.861 77.13 487.094 77.27C487.374 77.3633 487.747 77.4567 488.214 77.55L492.064 78.04V80H472.744V78.04L476.594 77.55C477.341 77.4567 477.737 77.27 477.784 76.99C477.877 76.6633 477.667 75.7067 477.154 74.12L474.494 65.44H458.324L455.594 74.12C455.127 75.7067 454.917 76.6633 454.964 76.99C455.011 77.27 455.407 77.4567 456.154 77.55L460.004 78.04ZM459.164 62.99H473.724L466.514 39.75L459.164 62.99Z" fill="#303547"/>
<path d="M128.8 293.36V289.6H146.4V293.36H128.8ZM135.28 318V289.6H139.92V318H135.28ZM157.219 305.72V301.92H169.459V305.72H157.219ZM167.859 318V289.6H172.499V318H167.859ZM155.619 318V289.6H160.259V318H155.619ZM186.534 318V314.2H197.294V318H186.534ZM186.934 305.76V301.92H194.894V305.76H186.934ZM183.494 289.6H188.134V318H183.494V289.6ZM186.934 289.6H196.894V293.36H186.934V289.6ZM224.559 318V314.2H234.519V318H224.559ZM221.119 318V289.6H225.759V318H221.119ZM247.28 312.76V308.96H257.48V312.76H247.28ZM254.04 289.6L247.04 318H242.52L249.52 289.6H254.04ZM254.12 289.6L261.08 318H256.56L249.6 289.6H254.12ZM281.276 311.44C281.276 310.507 280.996 309.693 280.436 309C279.876 308.28 279.142 307.6 278.236 306.96C277.356 306.32 276.409 305.68 275.396 305.04C274.382 304.373 273.422 303.64 272.516 302.84C271.636 302.013 270.902 301.053 270.316 299.96C269.756 298.867 269.476 297.587 269.476 296.12H274.116C274.116 297.027 274.396 297.84 274.956 298.56C275.542 299.28 276.276 299.96 277.156 300.6C278.062 301.24 279.022 301.893 280.036 302.56C281.049 303.2 281.996 303.933 282.876 304.76C283.782 305.56 284.516 306.507 285.076 307.6C285.636 308.667 285.916 309.947 285.916 311.44H281.276ZM269.476 296.16C269.476 294.72 269.836 293.467 270.556 292.4C271.276 291.307 272.262 290.467 273.516 289.88C274.796 289.267 276.249 288.96 277.876 288.96V292.76C276.702 292.76 275.782 293.067 275.116 293.68C274.449 294.267 274.116 295.093 274.116 296.16H269.476ZM285.916 311.4C285.916 312.867 285.556 314.133 284.836 315.2C284.116 316.267 283.129 317.107 281.876 317.72C280.622 318.307 279.169 318.6 277.516 318.6V314.84C278.689 314.84 279.609 314.533 280.276 313.92C280.942 313.307 281.276 312.467 281.276 311.4H285.916ZM281.276 296.12C281.142 295 280.756 294.16 280.116 293.6C279.502 293.04 278.756 292.76 277.876 292.76V288.96C279.236 288.96 280.449 289.227 281.516 289.76C282.582 290.293 283.449 291.04 284.116 292C284.809 292.933 285.249 294.04 285.436 295.32L281.276 296.12ZM273.116 309.68C273.249 311.28 273.702 312.547 274.476 313.48C275.249 314.387 276.262 314.84 277.516 314.84V318.6C275.089 318.6 273.116 317.88 271.596 316.44C270.102 315 269.209 313 268.916 310.44L273.116 309.68ZM293.964 293.36V289.6H311.564V293.36H293.964ZM300.444 318V289.6H305.084V318H300.444ZM338.035 305.76V301.92H345.995V305.76H338.035ZM334.595 289.6H339.235V318H334.595V289.6ZM338.035 289.6H347.995V293.36H338.035V289.6ZM368.317 318L363.277 304.4H367.877L372.917 318H368.317ZM360.837 306.56V302.76H364.237V306.56H360.837ZM360.837 293.36V289.6H364.237V293.36H360.837ZM367.957 298.8V297.36H372.597V298.8H367.957ZM372.597 297.4H367.957C367.957 296.12 367.624 295.133 366.957 294.44C366.29 293.72 365.37 293.36 364.197 293.36V289.6C365.85 289.6 367.304 289.933 368.557 290.6C369.81 291.267 370.797 292.187 371.517 293.36C372.237 294.533 372.597 295.88 372.597 297.4ZM372.597 298.76C372.597 300.28 372.237 301.627 371.517 302.8C370.797 303.973 369.81 304.893 368.557 305.56C367.304 306.227 365.85 306.56 364.197 306.56V302.76C365.37 302.76 366.29 302.413 366.957 301.72C367.624 301 367.957 300.013 367.957 298.76H372.597ZM357.197 318V289.6H361.837V318H357.197ZM394.843 310.84V296.72H399.483V310.84H394.843ZM382.723 310.84V296.72H387.363V310.84H382.723ZM399.483 296.8H394.843C394.843 295.52 394.51 294.533 393.843 293.84C393.177 293.12 392.257 292.76 391.083 292.76V289C392.737 289 394.19 289.333 395.443 290C396.697 290.667 397.683 291.587 398.403 292.76C399.123 293.933 399.483 295.28 399.483 296.8ZM382.723 296.8C382.723 295.28 383.083 293.933 383.803 292.76C384.523 291.587 385.51 290.667 386.763 290C388.043 289.333 389.497 289 391.123 289V292.76C389.95 292.76 389.03 293.12 388.363 293.84C387.697 294.533 387.363 295.52 387.363 296.8H382.723ZM399.483 310.8C399.483 312.32 399.123 313.667 398.403 314.84C397.683 316.013 396.697 316.933 395.443 317.6C394.19 318.267 392.737 318.6 391.083 318.6V314.8C392.257 314.8 393.177 314.453 393.843 313.76C394.51 313.04 394.843 312.053 394.843 310.8H399.483ZM382.723 310.8H387.363C387.363 312.053 387.697 313.04 388.363 313.76C389.03 314.453 389.95 314.8 391.123 314.8V318.6C389.497 318.6 388.043 318.267 386.763 317.6C385.51 316.933 384.523 316.013 383.803 314.84C383.083 313.667 382.723 312.32 382.723 310.8ZM422.255 318L410.935 289.6H415.175L426.455 318H422.255ZM410.095 318V289.6H414.735V318H410.095ZM423.415 318V289.6H428.055V318H423.415ZM437.269 293.36V289.6H454.869V293.36H437.269ZM443.749 318V289.6H448.389V318H443.749ZM464.488 318V289.6H469.128V318H464.488ZM483.557 318V314.2H494.317V318H483.557ZM483.957 305.76V301.92H491.917V305.76H483.957ZM480.517 289.6H485.157V318H480.517V289.6ZM483.957 289.6H493.917V293.36H483.957V289.6ZM515.45 318L510.41 304.4H515.01L520.05 318H515.45ZM507.97 306.56V302.76H511.37V306.56H507.97ZM507.97 293.36V289.6H511.37V293.36H507.97ZM515.09 298.8V297.36H519.73V298.8H515.09ZM519.73 297.4H515.09C515.09 296.12 514.756 295.133 514.09 294.44C513.423 293.72 512.503 293.36 511.33 293.36V289.6C512.983 289.6 514.436 289.933 515.69 290.6C516.943 291.267 517.93 292.187 518.65 293.36C519.37 294.533 519.73 295.88 519.73 297.4ZM519.73 298.76C519.73 300.28 519.37 301.627 518.65 302.8C517.93 303.973 516.943 304.893 515.69 305.56C514.436 306.227 512.983 306.56 511.33 306.56V302.76C512.503 302.76 513.423 302.413 514.09 301.72C514.756 301 515.09 300.013 515.09 298.76H519.73ZM504.33 318V289.6H508.97V318H504.33Z" fill="#303547"/>
<path d="M276 118.546L279 230.046C280.5 230.879 283.6 232.046 284 230.046C284.5 227.546 282.5 220.826 282.5 213.546C282.5 207 285.5 202.546 293.5 198.546C301.5 194.546 308 204.046 307.5 209.046C307 214.046 310 224.546 321.5 218.546C333 212.546 349 218.546 356 224.546C363 230.546 367.5 230.046 372.5 224.546C377.5 219.046 370 180.046 367.5 174.546C365 169.046 378 154.046 372.5 154.046C367 154.046 359.5 153.546 356 147.046C352.5 140.546 344 138.546 339 138.546C334 138.546 321.5 147.546 321.5 138.546C315 124.046 302.7 122.846 297.5 124.046C291 125.546 286.5 122.046 282.5 118.546C279.3 115.746 276.833 117.379 276 118.546Z" fill="#273550" fill-opacity="0.35"/>
</svg>
