<svg width="649" height="348" viewBox="0 0 649 348" fill="none" xmlns="http://www.w3.org/2000/svg">
<rect width="649" height="348" rx="41" fill="#F4F4F4"/>
<rect x="23" y="18" width="604" height="313" rx="22" fill="#F4F4F4" stroke="#3E3366" stroke-width="6"/>
<path d="M192.84 71L186.04 47.04H185.88C185.933 47.92 185.973 48.7333 186 49.48C186.053 50.2 186.08 50.8267 186.08 51.36C186.107 51.8933 186.12 52.3333 186.12 52.68V71H182.92V42.44H187.68L194.32 65.76H194.44L201.08 42.44H205.88V71H202.6V52.76C202.6 52.36 202.6 51.8933 202.6 51.36C202.627 50.8 202.653 50.16 202.68 49.44C202.733 48.72 202.773 47.92 202.8 47.04H202.64L195.84 71H192.84ZM231.351 56.68C231.351 58.7333 231.178 60.6533 230.831 62.44C230.511 64.2267 229.991 65.8 229.271 67.16C228.551 68.4933 227.618 69.5333 226.471 70.28C225.351 71.0267 223.978 71.4 222.351 71.4C220.698 71.4 219.298 71.0133 218.151 70.24C217.004 69.4667 216.071 68.4133 215.351 67.08C214.631 65.72 214.111 64.1467 213.791 62.36C213.471 60.5733 213.311 58.6667 213.311 56.64C213.311 53.3867 213.644 50.68 214.311 48.52C214.978 46.36 215.978 44.7467 217.311 43.68C218.671 42.5867 220.351 42.04 222.351 42.04C224.511 42.04 226.244 42.6933 227.551 44C228.884 45.3067 229.844 47.0667 230.431 49.28C231.044 51.4667 231.351 53.9333 231.351 56.68ZM216.791 56.68C216.791 59.24 217.004 61.3867 217.431 63.12C217.858 64.8267 218.471 66.12 219.271 67C220.098 67.88 221.111 68.32 222.311 68.32C223.511 68.32 224.511 67.8933 225.311 67.04C226.138 66.1867 226.751 64.8933 227.151 63.16C227.578 61.4267 227.791 59.2667 227.791 56.68C227.791 52.8133 227.338 49.92 226.431 48C225.524 46.0533 224.164 45.08 222.351 45.08C221.124 45.08 220.098 45.52 219.271 46.4C218.444 47.2533 217.818 48.5467 217.391 50.28C216.991 51.9867 216.791 54.12 216.791 56.68ZM244.871 71H241.511V45.48H235.991V42.44H250.391V45.48H244.871V71ZM272.996 56.68C272.996 58.7333 272.823 60.6533 272.476 62.44C272.156 64.2267 271.636 65.8 270.916 67.16C270.196 68.4933 269.263 69.5333 268.116 70.28C266.996 71.0267 265.623 71.4 263.996 71.4C262.343 71.4 260.943 71.0133 259.796 70.24C258.65 69.4667 257.716 68.4133 256.996 67.08C256.276 65.72 255.756 64.1467 255.436 62.36C255.116 60.5733 254.956 58.6667 254.956 56.64C254.956 53.3867 255.29 50.68 255.956 48.52C256.623 46.36 257.623 44.7467 258.956 43.68C260.316 42.5867 261.996 42.04 263.996 42.04C266.156 42.04 267.89 42.6933 269.196 44C270.53 45.3067 271.49 47.0667 272.076 49.28C272.69 51.4667 272.996 53.9333 272.996 56.68ZM258.436 56.68C258.436 59.24 258.65 61.3867 259.076 63.12C259.503 64.8267 260.116 66.12 260.916 67C261.743 67.88 262.756 68.32 263.956 68.32C265.156 68.32 266.156 67.8933 266.956 67.04C267.783 66.1867 268.396 64.8933 268.796 63.16C269.223 61.4267 269.436 59.2667 269.436 56.68C269.436 52.8133 268.983 49.92 268.076 48C267.17 46.0533 265.81 45.08 263.996 45.08C262.77 45.08 261.743 45.52 260.916 46.4C260.09 47.2533 259.463 48.5467 259.036 50.28C258.636 51.9867 258.436 54.12 258.436 56.68ZM307.571 56.68C307.571 58.7333 307.398 60.6533 307.051 62.44C306.731 64.2267 306.211 65.8 305.491 67.16C304.771 68.4933 303.838 69.5333 302.691 70.28C301.571 71.0267 300.198 71.4 298.571 71.4C296.918 71.4 295.518 71.0133 294.371 70.24C293.225 69.4667 292.291 68.4133 291.571 67.08C290.851 65.72 290.331 64.1467 290.011 62.36C289.691 60.5733 289.531 58.6667 289.531 56.64C289.531 53.3867 289.865 50.68 290.531 48.52C291.198 46.36 292.198 44.7467 293.531 43.68C294.891 42.5867 296.571 42.04 298.571 42.04C300.731 42.04 302.465 42.6933 303.771 44C305.105 45.3067 306.065 47.0667 306.651 49.28C307.265 51.4667 307.571 53.9333 307.571 56.68ZM293.011 56.68C293.011 59.24 293.225 61.3867 293.651 63.12C294.078 64.8267 294.691 66.12 295.491 67C296.318 67.88 297.331 68.32 298.531 68.32C299.731 68.32 300.731 67.8933 301.531 67.04C302.358 66.1867 302.971 64.8933 303.371 63.16C303.798 61.4267 304.011 59.2667 304.011 56.68C304.011 52.8133 303.558 49.92 302.651 48C301.745 46.0533 300.385 45.08 298.571 45.08C297.345 45.08 296.318 45.52 295.491 46.4C294.665 47.2533 294.038 48.5467 293.611 50.28C293.211 51.9867 293.011 54.12 293.011 56.68ZM328.386 71H325.026V42.44H336.386V45.44H328.386V55.76H335.906V58.8H328.386V71ZM349.822 71H341.262V69.08L343.862 68.4V45.04L341.262 44.36V42.44H349.822V44.36L347.222 45.04V68.4L349.822 69.08V71ZM368.27 71L366.19 62.08H359.51L357.43 71H353.83L360.75 42.44H364.79L371.83 71H368.27ZM363.43 49.6C363.35 49.0933 363.256 48.6133 363.15 48.16C363.07 47.68 362.99 47.2133 362.91 46.76C362.856 46.3067 362.803 45.88 362.75 45.48C362.723 45.88 362.67 46.3067 362.59 46.76C362.536 47.2133 362.456 47.68 362.35 48.16C362.27 48.6133 362.176 49.08 362.07 49.56L360.03 58.96H365.55L363.43 49.6ZM380.718 71H377.358V42.44H388.718V45.44H380.718V55.76H388.238V58.8H380.718V71ZM402.153 71H393.593V69.08L396.193 68.4V45.04L393.593 44.36V42.44H402.153V44.36L399.553 45.04V68.4L402.153 69.08V71ZM420.601 71L418.521 62.08H411.841L409.761 71H406.161L413.081 42.44H417.121L424.161 71H420.601ZM415.761 49.6C415.681 49.0933 415.588 48.6133 415.481 48.16C415.401 47.68 415.321 47.2133 415.241 46.76C415.188 46.3067 415.134 45.88 415.081 45.48C415.054 45.88 415.001 46.3067 414.921 46.76C414.868 47.2133 414.788 47.68 414.681 48.16C414.601 48.6133 414.508 49.08 414.401 49.56L412.361 58.96H417.881L415.761 49.6ZM439.011 55.92H446.331V70C445.157 70.4533 443.944 70.8 442.691 71.04C441.437 71.28 440.157 71.4 438.851 71.4C436.531 71.4 434.611 70.76 433.091 69.48C431.597 68.1733 430.491 66.4133 429.771 64.2C429.051 61.96 428.691 59.44 428.691 56.64C428.691 53.7867 429.077 51.2667 429.851 49.08C430.651 46.8933 431.851 45.1733 433.451 43.92C435.051 42.6667 437.064 42.04 439.491 42.04C440.691 42.04 441.837 42.2 442.931 42.52C444.024 42.8133 445.051 43.2667 446.011 43.88L444.811 46.72C443.931 46.16 443.051 45.7467 442.171 45.48C441.317 45.1867 440.451 45.04 439.571 45.04C437.971 45.04 436.624 45.4933 435.531 46.4C434.437 47.28 433.611 48.5867 433.051 50.32C432.491 52.0533 432.211 54.1867 432.211 56.72C432.211 58.9067 432.437 60.88 432.891 62.64C433.371 64.4 434.117 65.8 435.131 66.84C436.171 67.8533 437.504 68.36 439.131 68.36C439.637 68.36 440.117 68.3467 440.571 68.32C441.024 68.2667 441.451 68.2 441.851 68.12C442.277 68.0133 442.677 67.8933 443.051 67.76V58.92H439.011V55.92ZM465.527 71L463.447 62.08H456.767L454.687 71H451.087L458.007 42.44H462.047L469.087 71H465.527ZM460.687 49.6C460.607 49.0933 460.514 48.6133 460.407 48.16C460.327 47.68 460.247 47.2133 460.167 46.76C460.114 46.3067 460.061 45.88 460.007 45.48C459.981 45.88 459.927 46.3067 459.847 46.76C459.794 47.2133 459.714 47.68 459.607 48.16C459.527 48.6133 459.434 49.08 459.327 49.56L457.287 58.96H462.807L460.687 49.6Z" fill="#3E3366"/>
<path fill-rule="evenodd" clip-rule="evenodd" d="M275.01 236.913L273 241.334L273.804 242.942H275.814L278.627 242.54L281.441 241.736H284.254L287.47 242.54L289.881 242.942H291.891L293.499 241.334L297.116 237.717L299.528 236.109H301.136L304.351 236.913L307.165 237.717H309.174L310.782 236.109L313.194 235.305L315.605 236.109H318.821L322.438 237.717H326.458H330.075L333.291 238.521L336.104 239.324L338.114 237.717L339.32 238.521V241.334L338.918 244.148L341.731 246.961L342.133 248.569L342.535 251.383L344.947 252.99L355.799 255L356.603 254.196L357.005 251.383L355.799 248.971L354.593 246.157L353.387 243.344L352.182 241.736L348.564 240.932L346.956 238.521V236.109L346.153 234.501L343.741 233.697H340.525L337.31 231.688L334.898 229.276L333.692 226.864V224.453L335.3 221.237L338.114 211.591L342.133 199.533L344.545 187.475L346.153 177.426L346.956 170.995V163.358V158.937L347.76 155.722L348.966 154.516L350.574 153.712H352.985L354.593 152.104L357.005 147.281L358.613 143.663V139.242V135.223L359.416 131.605L361.024 129.998L363.838 130.801H365.044L368.259 132.811L371.073 136.429L373.082 138.438L375.092 140.046L376.7 139.242L377.102 136.429V131.605L376.7 127.184L375.092 122.763L373.082 118.341L371.877 114.724V112.312V111.107H373.082H375.092H377.102L377.504 109.097L377.102 105.881L375.896 102.666L371.877 99.0484L367.053 96.6368L359.416 95.431L353.789 93.4213L353.387 89H348.162L343.339 89.8039L337.712 93.8232L333.291 97.8426L330.879 99.8523H328.467L324.85 98.2446L316.811 95.0291L313.194 93.8232H307.165H302.341L298.724 95.8329L295.508 97.8426L292.293 100.656L291.087 105.077L292.293 106.283L293.901 107.891L293.499 110.705L291.087 113.116L288.274 115.93L287.47 119.145L286.666 122.763V125.978L288.274 128.39H290.685L293.901 127.184L296.312 125.978L297.92 124.772L298.724 123.969L299.528 125.978L298.724 129.998L297.92 138.438V143.262L299.528 148.085L301.538 150.496L303.547 151.702H305.557L307.165 150.496L309.978 147.281L311.988 145.673L314.801 142.056L316.811 140.046L319.625 137.634H322.036H324.448L326.458 140.046L327.663 145.673L329.673 150.496H331.683L333.291 148.889L334.898 148.085L336.506 148.889V153.31L335.702 164.162L332.085 183.455L326.458 204.356L318.017 223.649L313.194 229.276L309.174 230.482H305.155L299.528 229.276L297.92 230.482L293.499 231.286L289.077 230.482L285.862 233.295L279.029 235.305L275.01 236.913ZM324.85 125.576L326.86 125.174L327.262 128.792L328.065 131.203L328.869 135.223L330.477 136.831L331.281 137.634H333.692L336.104 136.429L337.712 134.419V132.811L339.722 130.4L341.329 128.792H342.937L344.143 130.4L345.349 133.615L347.358 136.831L348.966 139.242L350.976 139.644L352.584 139.242L354.191 136.429V132.007L353.789 127.988V125.174L355.397 123.567L358.211 123.969L360.622 124.772L364.642 125.576L367.053 125.174L368.259 123.165V120.351L367.455 116.734L365.847 113.116L362.632 110.705L362.23 112.312H359.015L352.985 111.91V107.489L355.397 106.283L358.211 105.077L360.622 103.872L361.024 103.068V101.058L358.613 100.254L355.397 99.0484L351.78 100.254L348.564 102.264L344.947 105.077L342.937 106.685H341.329L340.927 105.881V103.068L340.123 101.058L339.32 100.254H338.114L336.104 101.862L334.898 103.872L332.085 106.685L330.477 108.293H328.467L325.654 105.077L323.242 103.068L318.419 100.254L315.203 99.0484L311.988 98.6465H309.978L308.772 100.254V103.872L308.37 105.077L305.557 106.685L303.949 107.891L302.341 109.901V112.312L304.753 112.714H308.772L310.782 113.518L309.978 115.126L308.37 119.145L306.361 123.567L303.949 127.988L303.145 132.409L302.743 136.831L303.949 139.242L305.557 140.448H308.37L311.184 138.438L313.596 136.831L315.605 134.419L318.419 131.605L321.634 127.988L324.85 125.576ZM341.731 159.741L341.329 156.525L338.114 171.799L333.692 193.102L328.467 209.179L325.654 216.012L322.84 224.051L322.036 227.668L322.438 228.874L324.448 229.678L326.458 228.874L328.065 227.668L329.271 224.855L334.094 210.787L338.918 194.709L341.731 178.23V159.741Z" fill="#3D3367" fill-opacity="0.4"/>
<path d="M172.76 306L171.128 297.744H163.736L162.104 306H155L163.064 271.728H171.608L179.816 306H172.76ZM168.344 282.96C168.216 282.192 168.088 281.456 167.96 280.752C167.864 280.016 167.768 279.328 167.672 278.688C167.608 278.016 167.528 277.392 167.432 276.816C167.4 277.36 167.32 277.968 167.192 278.64C167.096 279.28 166.984 279.968 166.856 280.704C166.76 281.408 166.632 282.128 166.472 282.864L164.744 292.032H170.12L168.344 282.96ZM195.205 306L188.773 280.704H188.581C188.677 281.76 188.741 282.752 188.773 283.68C188.837 284.608 188.869 285.456 188.869 286.224C188.901 286.992 188.917 287.696 188.917 288.336V306H182.725V271.728H191.845L197.845 295.2H197.989L203.989 271.728H213.013V306H206.725V288.288C206.725 287.584 206.725 286.848 206.725 286.08C206.757 285.28 206.789 284.448 206.821 283.584C206.885 282.688 206.933 281.744 206.965 280.752H206.821L200.293 306H195.205ZM233.986 306H218.866V271.728H233.986V277.344H225.49V285.408H233.362V291.024H225.49V300.288H233.986V306ZM246.754 271.728C249.218 271.728 251.266 272.096 252.898 272.832C254.53 273.568 255.746 274.672 256.546 276.144C257.346 277.616 257.746 279.456 257.746 281.664C257.746 283.072 257.57 284.352 257.218 285.504C256.898 286.656 256.386 287.68 255.682 288.576C255.01 289.472 254.13 290.256 253.042 290.928L259.906 306H252.61L247.234 292.56H245.458V306H238.834V271.728H246.754ZM246.706 277.296H245.458V287.376H246.802C247.73 287.376 248.498 287.184 249.106 286.8C249.746 286.384 250.226 285.776 250.546 284.976C250.866 284.176 251.026 283.184 251.026 282C251.026 280.912 250.866 280.032 250.546 279.36C250.226 278.656 249.746 278.144 249.106 277.824C248.466 277.472 247.666 277.296 246.706 277.296ZM274.065 306H261.297V302.448L264.369 301.104V276.624L261.297 275.28V271.728H274.065V275.28L270.993 276.624V301.104L274.065 302.448V306ZM289.823 276.912C288.863 276.912 288.031 277.216 287.327 277.824C286.623 278.4 286.031 279.232 285.551 280.32C285.103 281.408 284.767 282.688 284.543 284.16C284.319 285.632 284.207 287.232 284.207 288.96C284.207 291.488 284.431 293.632 284.879 295.392C285.359 297.152 286.031 298.496 286.895 299.424C287.791 300.32 288.879 300.768 290.159 300.768C291.183 300.768 292.159 300.592 293.087 300.24C294.047 299.888 294.991 299.456 295.919 298.944V304.8C294.927 305.344 293.871 305.76 292.751 306.048C291.663 306.336 290.479 306.48 289.199 306.48C286.671 306.48 284.527 305.792 282.767 304.416C281.039 303.04 279.695 301.056 278.735 298.464C277.807 295.84 277.343 292.656 277.343 288.912C277.343 286.352 277.599 284 278.111 281.856C278.655 279.712 279.439 277.856 280.463 276.288C281.487 274.688 282.735 273.456 284.207 272.592C285.711 271.696 287.423 271.248 289.343 271.248C290.687 271.248 291.983 271.424 293.231 271.776C294.511 272.096 295.743 272.624 296.927 273.36L295.055 278.784C294.255 278.208 293.423 277.76 292.559 277.44C291.695 277.088 290.783 276.912 289.823 276.912ZM315.776 306L314.144 297.744H306.752L305.12 306H298.016L306.08 271.728H314.624L322.832 306H315.776ZM311.36 282.96C311.232 282.192 311.104 281.456 310.976 280.752C310.88 280.016 310.784 279.328 310.688 278.688C310.624 278.016 310.544 277.392 310.448 276.816C310.416 277.36 310.336 277.968 310.208 278.64C310.112 279.28 310 279.968 309.872 280.704C309.776 281.408 309.648 282.128 309.488 282.864L307.76 292.032H313.136L311.36 282.96ZM349.069 306H341.293L331.741 282.096H331.549C331.613 282.928 331.661 283.728 331.693 284.496C331.757 285.232 331.805 285.936 331.837 286.608C331.869 287.28 331.885 287.92 331.885 288.528C331.917 289.104 331.933 289.632 331.933 290.112V306H325.741V271.728H333.469L342.973 295.104H343.165C343.133 294.304 343.085 293.536 343.021 292.8C342.989 292.064 342.957 291.376 342.925 290.736C342.893 290.096 342.861 289.488 342.829 288.912C342.829 288.336 342.829 287.808 342.829 287.328V271.728H349.069V306ZM379.417 295.968C379.417 298.016 379.017 299.84 378.217 301.44C377.417 303.008 376.281 304.24 374.809 305.136C373.337 306.032 371.593 306.48 369.577 306.48C368.649 306.48 367.737 306.416 366.841 306.288C365.977 306.192 365.129 306.016 364.297 305.76C363.465 305.472 362.617 305.088 361.753 304.608V297.888C362.969 298.688 364.233 299.312 365.545 299.76C366.889 300.176 368.105 300.384 369.193 300.384C369.993 300.384 370.649 300.224 371.161 299.904C371.673 299.552 372.057 299.104 372.312 298.56C372.601 297.984 372.745 297.344 372.745 296.64C372.745 295.904 372.633 295.248 372.409 294.672C372.185 294.096 371.753 293.52 371.113 292.944C370.505 292.368 369.577 291.712 368.329 290.976C367.369 290.368 366.489 289.76 365.689 289.152C364.921 288.512 364.249 287.824 363.673 287.088C363.129 286.32 362.713 285.44 362.425 284.448C362.137 283.424 361.993 282.24 361.993 280.896C361.993 278.944 362.361 277.248 363.097 275.808C363.865 274.368 364.953 273.248 366.361 272.448C367.801 271.648 369.529 271.248 371.545 271.248C372.889 271.248 374.217 271.44 375.529 271.824C376.841 272.176 378.121 272.704 379.369 273.408L377.545 279.216C376.457 278.544 375.433 278.048 374.473 277.728C373.513 277.408 372.617 277.248 371.785 277.248C371.081 277.248 370.489 277.392 370.009 277.68C369.561 277.968 369.209 278.368 368.953 278.88C368.729 279.36 368.617 279.92 368.617 280.56C368.617 281.36 368.729 282.048 368.953 282.624C369.209 283.2 369.657 283.76 370.297 284.304C370.969 284.848 371.945 285.488 373.225 286.224C374.633 287.024 375.785 287.888 376.681 288.816C377.609 289.744 378.297 290.8 378.745 291.984C379.193 293.136 379.417 294.464 379.417 295.968ZM398.51 306L396.878 297.744H389.486L387.854 306H380.75L388.814 271.728H397.358L405.566 306H398.51ZM394.094 282.96C393.966 282.192 393.838 281.456 393.71 280.752C393.614 280.016 393.518 279.328 393.422 278.688C393.358 278.016 393.278 277.392 393.182 276.816C393.15 277.36 393.07 277.968 392.942 278.64C392.846 279.28 392.734 279.968 392.606 280.704C392.51 281.408 392.382 282.128 392.222 282.864L390.494 292.032H395.87L394.094 282.96ZM420.955 306L414.523 280.704H414.331C414.427 281.76 414.491 282.752 414.523 283.68C414.587 284.608 414.619 285.456 414.619 286.224C414.651 286.992 414.667 287.696 414.667 288.336V306H408.475V271.728H417.595L423.595 295.2H423.739L429.739 271.728H438.763V306H432.475V288.288C432.475 287.584 432.475 286.848 432.475 286.08C432.507 285.28 432.539 284.448 432.571 283.584C432.635 282.688 432.683 281.744 432.715 280.752H432.571L426.043 306H420.955ZM467.512 288.816C467.512 291.536 467.256 293.984 466.744 296.16C466.264 298.336 465.528 300.192 464.536 301.728C463.576 303.264 462.344 304.448 460.84 305.28C459.368 306.08 457.624 306.48 455.608 306.48C453.624 306.48 451.88 306.08 450.376 305.28C448.872 304.448 447.624 303.264 446.632 301.728C445.64 300.16 444.888 298.288 444.376 296.112C443.896 293.936 443.656 291.488 443.656 288.768C443.656 284.928 444.104 281.712 445 279.12C445.928 276.496 447.272 274.528 449.032 273.216C450.824 271.872 453.016 271.2 455.608 271.2C458.296 271.2 460.52 271.92 462.28 273.36C464.04 274.768 465.352 276.784 466.216 279.408C467.08 282.032 467.512 285.168 467.512 288.816ZM450.52 288.816C450.52 291.44 450.712 293.632 451.096 295.392C451.48 297.152 452.04 298.48 452.776 299.376C453.544 300.24 454.488 300.672 455.608 300.672C456.728 300.672 457.656 300.24 458.392 299.376C459.16 298.512 459.72 297.216 460.072 295.488C460.456 293.728 460.648 291.504 460.648 288.816C460.648 284.816 460.216 281.84 459.352 279.888C458.52 277.904 457.272 276.912 455.608 276.912C454.488 276.912 453.544 277.36 452.776 278.256C452.04 279.152 451.48 280.48 451.096 282.24C450.712 284 450.52 286.192 450.52 288.816ZM487.151 306L485.519 297.744H478.127L476.495 306H469.391L477.455 271.728H485.999L494.207 306H487.151ZM482.735 282.96C482.607 282.192 482.479 281.456 482.351 280.752C482.255 280.016 482.159 279.328 482.063 278.688C481.999 278.016 481.919 277.392 481.823 276.816C481.791 277.36 481.711 277.968 481.583 278.64C481.487 279.28 481.375 279.968 481.247 280.704C481.151 281.408 481.023 282.128 480.863 282.864L479.135 292.032H484.511L482.735 282.96Z" fill="#3E3366"/>
</svg>
