<svg width="649" height="349" viewBox="0 0 649 349" fill="none" xmlns="http://www.w3.org/2000/svg">
<rect width="649" height="348" rx="41" fill="url(#paint0_linear_1048_130)"/>
<mask id="path-2-outside-1_1048_130" maskUnits="userSpaceOnUse" x="139" y="27" width="372" height="38" fill="black">
<rect fill="white" x="139" y="27" width="372" height="38"/>
<path d="M143 62.5013L164.556 29.476H178.742L200.113 62.5013H187.585L172.846 38.4973C172.478 37.8929 172.171 37.364 171.925 36.9107C171.68 36.4422 171.449 36.004 171.234 35.596H171.05C170.835 36.004 170.589 36.4422 170.313 36.9107C170.067 37.364 169.776 37.8929 169.438 38.4973L155.067 62.5013H143ZM154.192 54.9533L156.265 50.6693H186.388L188.599 54.9533H154.192Z"/>
<path d="M205.524 62.5013V29.4987H229.291C235.831 29.4987 240.913 30.4204 244.536 32.264C248.191 34.1076 250.018 36.5404 250.018 39.5627C250.018 42.6453 248.129 45.1462 244.352 47.0653C240.606 48.9693 235.555 49.9213 229.199 49.9213H218.099V62.5013H205.524ZM218.099 45.6373H227.126C230.934 45.6373 233.59 45.1009 235.094 44.028C236.63 42.94 237.397 41.5422 237.397 39.8347C237.397 38.1271 236.63 36.7444 235.094 35.6867C233.59 34.6138 230.934 34.0698 227.126 34.0547H218.099V45.6373ZM239.009 62.5013L225.1 47.7453L236.752 46.476L252.781 62.5013H239.009Z"/>
<path d="M259.113 62.5013V29.4987H271.78V62.5013H259.113Z"/>
<path d="M279.724 62.5013V59.0333L310.445 34.4173H281.198V29.4987H326.29V33.1253L295.66 57.696H327.671V62.5013H279.724Z"/>
<path d="M333.727 46.9067V45.0933C333.727 39.5022 336.199 35.4222 341.143 32.8533C346.117 30.2844 352.535 29 360.396 29C368.256 29 374.674 30.2844 379.648 32.8533C384.623 35.4222 387.11 39.5022 387.11 45.0933V46.9067C387.11 52.4978 384.623 56.5778 379.648 59.1467C374.674 61.7156 368.256 63 360.396 63C352.535 63 346.117 61.7156 341.143 59.1467C336.199 56.5778 333.727 52.4978 333.727 46.9067ZM346.716 48.2893C346.716 51.9311 347.944 54.5529 350.401 56.1547C352.857 57.7413 356.189 58.5347 360.396 58.5347C364.602 58.5347 367.934 57.7413 370.39 56.1547C372.847 54.5529 374.075 51.9311 374.075 48.2893V43.7333C374.075 40.0916 372.847 37.4849 370.39 35.9133C367.934 34.3267 364.602 33.5333 360.396 33.5333C356.189 33.5333 352.857 34.3267 350.401 35.9133C347.944 37.4849 346.716 40.0916 346.716 43.7333V48.2893Z"/>
<path d="M396.574 62.5013V29.4987H409.471L431.072 50.3973C431.533 50.8809 431.963 51.3871 432.362 51.916C432.761 52.4298 433.099 52.9209 433.375 53.3893H433.606C433.575 52.8756 433.544 52.3467 433.514 51.8027C433.514 51.2587 433.514 50.7373 433.514 50.2387V29.4987H444.383V62.5013H431.763L409.839 41.444C409.379 40.9907 408.949 40.5147 408.549 40.016C408.15 39.5173 407.813 39.0338 407.536 38.5653H407.306C407.367 39.064 407.398 39.5778 407.398 40.1067C407.429 40.6204 407.444 41.1342 407.444 41.648V62.5013H396.574Z"/>
<path d="M449.887 62.5013L471.442 29.476H485.629L507 62.5013H494.472L479.733 38.4973C479.364 37.8929 479.057 37.364 478.812 36.9107C478.566 36.4422 478.336 36.004 478.121 35.596H477.937C477.722 36.004 477.476 36.4422 477.2 36.9107C476.954 37.364 476.662 37.8929 476.325 38.4973L461.954 62.5013H449.887ZM461.079 54.9533L463.152 50.6693H493.274L495.485 54.9533H461.079Z"/>
</mask>
<path d="M143 62.5013L164.556 29.476H178.742L200.113 62.5013H187.585L172.846 38.4973C172.478 37.8929 172.171 37.364 171.925 36.9107C171.68 36.4422 171.449 36.004 171.234 35.596H171.05C170.835 36.004 170.589 36.4422 170.313 36.9107C170.067 37.364 169.776 37.8929 169.438 38.4973L155.067 62.5013H143ZM154.192 54.9533L156.265 50.6693H186.388L188.599 54.9533H154.192Z" fill="#008797"/>
<path d="M205.524 62.5013V29.4987H229.291C235.831 29.4987 240.913 30.4204 244.536 32.264C248.191 34.1076 250.018 36.5404 250.018 39.5627C250.018 42.6453 248.129 45.1462 244.352 47.0653C240.606 48.9693 235.555 49.9213 229.199 49.9213H218.099V62.5013H205.524ZM218.099 45.6373H227.126C230.934 45.6373 233.59 45.1009 235.094 44.028C236.63 42.94 237.397 41.5422 237.397 39.8347C237.397 38.1271 236.63 36.7444 235.094 35.6867C233.59 34.6138 230.934 34.0698 227.126 34.0547H218.099V45.6373ZM239.009 62.5013L225.1 47.7453L236.752 46.476L252.781 62.5013H239.009Z" fill="#008797"/>
<path d="M259.113 62.5013V29.4987H271.78V62.5013H259.113Z" fill="#008797"/>
<path d="M279.724 62.5013V59.0333L310.445 34.4173H281.198V29.4987H326.29V33.1253L295.66 57.696H327.671V62.5013H279.724Z" fill="#008797"/>
<path d="M333.727 46.9067V45.0933C333.727 39.5022 336.199 35.4222 341.143 32.8533C346.117 30.2844 352.535 29 360.396 29C368.256 29 374.674 30.2844 379.648 32.8533C384.623 35.4222 387.11 39.5022 387.11 45.0933V46.9067C387.11 52.4978 384.623 56.5778 379.648 59.1467C374.674 61.7156 368.256 63 360.396 63C352.535 63 346.117 61.7156 341.143 59.1467C336.199 56.5778 333.727 52.4978 333.727 46.9067ZM346.716 48.2893C346.716 51.9311 347.944 54.5529 350.401 56.1547C352.857 57.7413 356.189 58.5347 360.396 58.5347C364.602 58.5347 367.934 57.7413 370.39 56.1547C372.847 54.5529 374.075 51.9311 374.075 48.2893V43.7333C374.075 40.0916 372.847 37.4849 370.39 35.9133C367.934 34.3267 364.602 33.5333 360.396 33.5333C356.189 33.5333 352.857 34.3267 350.401 35.9133C347.944 37.4849 346.716 40.0916 346.716 43.7333V48.2893Z" fill="#008797"/>
<path d="M396.574 62.5013V29.4987H409.471L431.072 50.3973C431.533 50.8809 431.963 51.3871 432.362 51.916C432.761 52.4298 433.099 52.9209 433.375 53.3893H433.606C433.575 52.8756 433.544 52.3467 433.514 51.8027C433.514 51.2587 433.514 50.7373 433.514 50.2387V29.4987H444.383V62.5013H431.763L409.839 41.444C409.379 40.9907 408.949 40.5147 408.549 40.016C408.15 39.5173 407.813 39.0338 407.536 38.5653H407.306C407.367 39.064 407.398 39.5778 407.398 40.1067C407.429 40.6204 407.444 41.1342 407.444 41.648V62.5013H396.574Z" fill="#008797"/>
<path d="M449.887 62.5013L471.442 29.476H485.629L507 62.5013H494.472L479.733 38.4973C479.364 37.8929 479.057 37.364 478.812 36.9107C478.566 36.4422 478.336 36.004 478.121 35.596H477.937C477.722 36.004 477.476 36.4422 477.2 36.9107C476.954 37.364 476.662 37.8929 476.325 38.4973L461.954 62.5013H449.887ZM461.079 54.9533L463.152 50.6693H493.274L495.485 54.9533H461.079Z" fill="#008797"/>
<path d="M143 62.5013L164.556 29.476H178.742L200.113 62.5013H187.585L172.846 38.4973C172.478 37.8929 172.171 37.364 171.925 36.9107C171.68 36.4422 171.449 36.004 171.234 35.596H171.05C170.835 36.004 170.589 36.4422 170.313 36.9107C170.067 37.364 169.776 37.8929 169.438 38.4973L155.067 62.5013H143ZM154.192 54.9533L156.265 50.6693H186.388L188.599 54.9533H154.192Z" stroke="white" stroke-width="4" mask="url(#path-2-outside-1_1048_130)"/>
<path d="M205.524 62.5013V29.4987H229.291C235.831 29.4987 240.913 30.4204 244.536 32.264C248.191 34.1076 250.018 36.5404 250.018 39.5627C250.018 42.6453 248.129 45.1462 244.352 47.0653C240.606 48.9693 235.555 49.9213 229.199 49.9213H218.099V62.5013H205.524ZM218.099 45.6373H227.126C230.934 45.6373 233.59 45.1009 235.094 44.028C236.63 42.94 237.397 41.5422 237.397 39.8347C237.397 38.1271 236.63 36.7444 235.094 35.6867C233.59 34.6138 230.934 34.0698 227.126 34.0547H218.099V45.6373ZM239.009 62.5013L225.1 47.7453L236.752 46.476L252.781 62.5013H239.009Z" stroke="white" stroke-width="4" mask="url(#path-2-outside-1_1048_130)"/>
<path d="M259.113 62.5013V29.4987H271.78V62.5013H259.113Z" stroke="white" stroke-width="4" mask="url(#path-2-outside-1_1048_130)"/>
<path d="M279.724 62.5013V59.0333L310.445 34.4173H281.198V29.4987H326.29V33.1253L295.66 57.696H327.671V62.5013H279.724Z" stroke="white" stroke-width="4" mask="url(#path-2-outside-1_1048_130)"/>
<path d="M333.727 46.9067V45.0933C333.727 39.5022 336.199 35.4222 341.143 32.8533C346.117 30.2844 352.535 29 360.396 29C368.256 29 374.674 30.2844 379.648 32.8533C384.623 35.4222 387.11 39.5022 387.11 45.0933V46.9067C387.11 52.4978 384.623 56.5778 379.648 59.1467C374.674 61.7156 368.256 63 360.396 63C352.535 63 346.117 61.7156 341.143 59.1467C336.199 56.5778 333.727 52.4978 333.727 46.9067ZM346.716 48.2893C346.716 51.9311 347.944 54.5529 350.401 56.1547C352.857 57.7413 356.189 58.5347 360.396 58.5347C364.602 58.5347 367.934 57.7413 370.39 56.1547C372.847 54.5529 374.075 51.9311 374.075 48.2893V43.7333C374.075 40.0916 372.847 37.4849 370.39 35.9133C367.934 34.3267 364.602 33.5333 360.396 33.5333C356.189 33.5333 352.857 34.3267 350.401 35.9133C347.944 37.4849 346.716 40.0916 346.716 43.7333V48.2893Z" stroke="white" stroke-width="4" mask="url(#path-2-outside-1_1048_130)"/>
<path d="M396.574 62.5013V29.4987H409.471L431.072 50.3973C431.533 50.8809 431.963 51.3871 432.362 51.916C432.761 52.4298 433.099 52.9209 433.375 53.3893H433.606C433.575 52.8756 433.544 52.3467 433.514 51.8027C433.514 51.2587 433.514 50.7373 433.514 50.2387V29.4987H444.383V62.5013H431.763L409.839 41.444C409.379 40.9907 408.949 40.5147 408.549 40.016C408.15 39.5173 407.813 39.0338 407.536 38.5653H407.306C407.367 39.064 407.398 39.5778 407.398 40.1067C407.429 40.6204 407.444 41.1342 407.444 41.648V62.5013H396.574Z" stroke="white" stroke-width="4" mask="url(#path-2-outside-1_1048_130)"/>
<path d="M449.887 62.5013L471.442 29.476H485.629L507 62.5013H494.472L479.733 38.4973C479.364 37.8929 479.057 37.364 478.812 36.9107C478.566 36.4422 478.336 36.004 478.121 35.596H477.937C477.722 36.004 477.476 36.4422 477.2 36.9107C476.954 37.364 476.662 37.8929 476.325 38.4973L461.954 62.5013H449.887ZM461.079 54.9533L463.152 50.6693H493.274L495.485 54.9533H461.079Z" stroke="white" stroke-width="4" mask="url(#path-2-outside-1_1048_130)"/>
<path d="M349.75 286.815V283.525H357.415V286.815H349.75ZM353.355 290.77V283.63H357.415V290.77H353.355ZM342.75 290.735V278.38H346.81V290.735H342.75ZM342.75 278.415C342.75 277.085 343.065 275.907 343.695 274.88C344.325 273.853 345.188 273.048 346.285 272.465C347.405 271.882 348.677 271.59 350.1 271.59V274.88C349.073 274.88 348.268 275.195 347.685 275.825C347.102 276.432 346.81 277.295 346.81 278.415H342.75ZM342.75 290.735H346.81C346.81 291.832 347.102 292.695 347.685 293.325C348.268 293.932 349.073 294.235 350.1 294.235V297.56C348.677 297.56 347.405 297.268 346.285 296.685C345.188 296.102 344.325 295.297 343.695 294.27C343.065 293.243 342.75 292.065 342.75 290.735ZM353.915 279.395C353.798 277.995 353.402 276.898 352.725 276.105C352.048 275.288 351.162 274.88 350.065 274.88V271.59C352.188 271.59 353.915 272.22 355.245 273.48C356.575 274.717 357.357 276.467 357.59 278.73L353.915 279.395ZM357.415 290.735C357.415 292.065 357.1 293.243 356.47 294.27C355.84 295.297 354.977 296.102 353.88 296.685C352.783 297.268 351.512 297.56 350.065 297.56V294.235C351.092 294.235 351.897 293.932 352.48 293.325C353.063 292.695 353.355 291.832 353.355 290.735H357.415ZM369.255 297L364.845 285.1H368.87L373.28 297H369.255ZM362.71 286.99V283.665H365.685V286.99H362.71ZM362.71 275.44V272.15H365.685V275.44H362.71ZM368.94 280.2V278.94H373V280.2H368.94ZM373 278.975H368.94C368.94 277.855 368.649 276.992 368.065 276.385C367.482 275.755 366.677 275.44 365.65 275.44V272.15C367.097 272.15 368.369 272.442 369.465 273.025C370.562 273.608 371.425 274.413 372.055 275.44C372.685 276.467 373 277.645 373 278.975ZM373 280.165C373 281.495 372.685 282.673 372.055 283.7C371.425 284.727 370.562 285.532 369.465 286.115C368.369 286.698 367.097 286.99 365.65 286.99V283.665C366.677 283.665 367.482 283.362 368.065 282.755C368.649 282.125 368.94 281.262 368.94 280.165H373ZM359.525 297V272.15H363.585V297H359.525ZM377.459 292.415V289.09H386.384V292.415H377.459ZM383.374 272.15L377.249 297H373.294L379.419 272.15H383.374ZM383.444 272.15L389.534 297H385.579L379.489 272.15H383.444ZM400.897 297L390.992 272.15H394.702L404.572 297H400.897ZM390.257 297V272.15H394.317V297H390.257ZM401.912 297V272.15H405.972V297H401.912ZM417.845 290.21V278.94H421.905V290.21H417.845ZM411.44 297V293.675H414.555V297H411.44ZM411.44 275.44V272.15H414.555V275.44H411.44ZM411.44 275.44V272.15H414.555V275.44H411.44ZM421.905 278.975H417.845C417.845 277.855 417.553 276.992 416.97 276.385C416.386 275.755 415.581 275.44 414.555 275.44V272.15C416.001 272.15 417.273 272.442 418.37 273.025C419.466 273.608 420.33 274.413 420.96 275.44C421.59 276.467 421.905 277.645 421.905 278.975ZM421.905 290.175C421.905 291.505 421.59 292.683 420.96 293.71C420.33 294.737 419.466 295.542 418.37 296.125C417.273 296.708 416.001 297 414.555 297V293.675C415.581 293.675 416.386 293.372 416.97 292.765C417.553 292.135 417.845 291.272 417.845 290.175H421.905ZM408.255 297V272.15H412.315V297H408.255ZM428.212 290.735V278.38H432.272V290.735H428.212ZM428.212 278.415C428.212 277.085 428.527 275.907 429.157 274.88C429.787 273.853 430.65 273.048 431.747 272.465C432.867 271.882 434.138 271.59 435.562 271.59V274.88C434.535 274.88 433.73 275.195 433.147 275.825C432.563 276.432 432.272 277.295 432.272 278.415H428.212ZM428.212 290.735H432.272C432.272 291.832 432.563 292.695 433.147 293.325C433.73 293.932 434.535 294.235 435.562 294.235V297.56C434.138 297.56 432.867 297.268 431.747 296.685C430.65 296.102 429.787 295.297 429.157 294.27C428.527 293.243 428.212 292.065 428.212 290.735ZM439.377 279.395C439.26 277.995 438.863 276.898 438.187 276.105C437.51 275.288 436.623 274.88 435.527 274.88V271.59C437.65 271.59 439.377 272.22 440.707 273.48C442.037 274.717 442.818 276.467 443.052 278.73L439.377 279.395ZM439.377 289.72L443.052 290.42C442.818 292.66 442.037 294.41 440.707 295.67C439.377 296.93 437.65 297.56 435.527 297.56V294.235C436.623 294.235 437.51 293.838 438.187 293.045C438.863 292.252 439.26 291.143 439.377 289.72ZM447.042 292.415V289.09H455.967V292.415H447.042ZM452.957 272.15L446.832 297H442.877L449.002 272.15H452.957ZM453.027 272.15L459.117 297H455.162L449.072 272.15H453.027ZM470.48 297L460.575 272.15H464.285L474.155 297H470.48ZM459.84 297V272.15H463.9V297H459.84ZM471.495 297V272.15H475.555V297H471.495ZM482.256 288.32L488.031 272.15H491.706L485.931 288.32H482.256ZM482.221 297V288.32H485.931V297H482.221ZM482.221 288.32L476.446 272.15H480.681L485.931 288.32H482.221ZM503.018 290.735V278.38H507.078V290.735H503.018ZM492.413 290.735V278.38H496.473V290.735H492.413ZM507.078 278.45H503.018C503.018 277.33 502.727 276.467 502.143 275.86C501.56 275.23 500.755 274.915 499.728 274.915V271.625C501.175 271.625 502.447 271.917 503.543 272.5C504.64 273.083 505.503 273.888 506.133 274.915C506.763 275.942 507.078 277.12 507.078 278.45ZM492.413 278.45C492.413 277.12 492.728 275.942 493.358 274.915C493.988 273.888 494.852 273.083 495.948 272.5C497.068 271.917 498.34 271.625 499.763 271.625V274.915C498.737 274.915 497.932 275.23 497.348 275.86C496.765 276.467 496.473 277.33 496.473 278.45H492.413ZM507.078 290.7C507.078 292.03 506.763 293.208 506.133 294.235C505.503 295.262 504.64 296.067 503.543 296.65C502.447 297.233 501.175 297.525 499.728 297.525V294.2C500.755 294.2 501.56 293.897 502.143 293.29C502.727 292.66 503.018 291.797 503.018 290.7H507.078ZM492.413 290.7H496.473C496.473 291.797 496.765 292.66 497.348 293.29C497.932 293.897 498.737 294.2 499.763 294.2V297.525C498.34 297.525 497.068 297.233 495.948 296.65C494.852 296.067 493.988 295.262 493.358 294.235C492.728 293.208 492.413 292.03 492.413 290.7ZM519.654 297L509.749 272.15H513.459L523.329 297H519.654ZM509.014 297V272.15H513.074V297H509.014ZM520.669 297V272.15H524.729V297H520.669ZM541.516 291.26C541.516 290.443 541.271 289.732 540.781 289.125C540.291 288.495 539.65 287.9 538.856 287.34C538.086 286.78 537.258 286.22 536.371 285.66C535.485 285.077 534.645 284.435 533.851 283.735C533.081 283.012 532.44 282.172 531.926 281.215C531.436 280.258 531.191 279.138 531.191 277.855H535.251C535.251 278.648 535.496 279.36 535.986 279.99C536.5 280.62 537.141 281.215 537.911 281.775C538.705 282.335 539.545 282.907 540.431 283.49C541.318 284.05 542.146 284.692 542.916 285.415C543.71 286.115 544.351 286.943 544.841 287.9C545.331 288.833 545.576 289.953 545.576 291.26H541.516ZM531.191 277.89C531.191 276.63 531.506 275.533 532.136 274.6C532.766 273.643 533.63 272.908 534.726 272.395C535.846 271.858 537.118 271.59 538.541 271.59V274.915C537.515 274.915 536.71 275.183 536.126 275.72C535.543 276.233 535.251 276.957 535.251 277.89H531.191ZM545.576 291.225C545.576 292.508 545.261 293.617 544.631 294.55C544.001 295.483 543.138 296.218 542.041 296.755C540.945 297.268 539.673 297.525 538.226 297.525V294.235C539.253 294.235 540.058 293.967 540.641 293.43C541.225 292.893 541.516 292.158 541.516 291.225H545.576ZM541.516 277.855C541.4 276.875 541.061 276.14 540.501 275.65C539.965 275.16 539.311 274.915 538.541 274.915V271.59C539.731 271.59 540.793 271.823 541.726 272.29C542.66 272.757 543.418 273.41 544.001 274.25C544.608 275.067 544.993 276.035 545.156 277.155L541.516 277.855ZM534.376 289.72C534.493 291.12 534.89 292.228 535.566 293.045C536.243 293.838 537.13 294.235 538.226 294.235V297.525C536.103 297.525 534.376 296.895 533.046 295.635C531.74 294.375 530.958 292.625 530.701 290.385L534.376 289.72ZM545.269 275.44V272.15H560.669V275.44H545.269ZM550.939 297V272.15H554.999V297H550.939ZM563.27 292.415V289.09H572.195V292.415H563.27ZM569.185 272.15L563.06 297H559.105L565.23 272.15H569.185ZM569.255 272.15L575.345 297H571.39L565.3 272.15H569.255ZM573.779 275.44V272.15H589.179V275.44H573.779ZM579.449 297V272.15H583.509V297H579.449ZM592.555 297V293.675H601.97V297H592.555ZM592.905 286.29V282.93H599.87V286.29H592.905ZM589.895 272.15H593.955V297H589.895V272.15ZM592.905 272.15H601.62V275.44H592.905V272.15Z" fill="#015E44"/>
<path fill-rule="evenodd" clip-rule="evenodd" d="M643.561 327.42C636.483 339.719 623.209 348 608 348H41C26.8509 348 14.3758 340.833 7.00718 329.931C21.6236 325.178 43.2959 317.507 44 314.69C45 310.69 49 276.19 46.5 272.69C44 269.19 40.5 268.19 33.5 268.19C27.5237 268.19 29.5653 213.523 30.2903 194.111C30.4144 190.786 30.5 188.495 30.5 187.69C30.5 182.19 40 174.19 40.5 185.69C40.8717 194.24 40.6907 220.477 40.5734 237.485C40.5329 243.355 40.5 248.125 40.5 250.69C40.5 260.69 49.5 260.69 49.5 250.69C49.5 240.69 51 167.19 52 159.19C53 151.19 63 145.69 64.5 159.19C65.1883 165.386 63.9814 184.216 62.7636 203.216C61.3277 225.618 59.8767 248.255 61.5 250.69C62.5018 252.193 63.3363 254.086 64.0966 255.811C65.6133 259.251 66.8348 262.022 68.5 259.69C70.6143 256.73 73.0862 224.803 74.1011 211.695C74.2862 209.304 74.4228 207.539 74.5 206.69C75 201.19 82 193.69 83 206.69C84 219.69 80.5 261.19 77.5 268.19C74.5 275.19 67.5 277.19 64.5 272.69C62.6849 269.968 61.968 265.964 61.6848 265.994C61.5 266.014 61.5 267.753 61.5 272.69V304.69C61.8333 303.69 63.7 301.69 68.5 301.69C74.5 301.69 90 296.69 95.5 291.69C98.7187 288.764 103.136 285.838 106.948 283.313C109.65 281.523 112.048 279.935 113.5 278.69C117 275.69 122.5 271.69 128.5 278.69C129.399 279.739 130.298 280.9 131.207 282.074C136.365 288.736 141.848 295.818 149.5 285.19C158.5 272.69 168 263.19 175.5 275.69C183 288.19 198 284.69 200 278.69C202 272.69 213.5 272.19 215 278.69C216.5 285.19 228.5 291.69 232 285.19C235.5 278.69 243.5 277.19 246 281.19C246.195 281.503 246.376 281.795 246.544 282.068C248.534 285.284 248.93 285.925 254 288.69C256.26 289.923 258.689 290.227 260.906 290.505C264.082 290.902 266.822 291.245 268 294.19C270 299.19 278.5 308.19 284.5 308.69C286.21 308.833 288.001 309.381 290.324 310.093C296.154 311.878 305.336 314.69 325 314.69H375.5C379.526 314.69 382.318 316.373 385.257 318.144C388.524 320.112 391.973 322.19 397.5 322.19C400.817 322.19 405.132 321.941 409.673 321.678C419.505 321.11 430.395 320.48 434.5 322.19C437.325 323.367 453.115 323.769 471.229 324.229C491.59 324.746 514.886 325.338 526 327.19C541.061 329.701 572.581 328.61 596.214 327.793C605.533 327.47 613.626 327.19 619 327.19C623.862 327.19 632.783 327.256 643.561 327.42Z" fill="#520148"/>
<path d="M643.561 327.42L643.994 327.67L644.418 326.933L643.569 326.92L643.561 327.42ZM7.00718 329.931L6.85256 329.455L6.22108 329.661L6.59293 330.211L7.00718 329.931ZM44 314.69L44.4851 314.812L44.4851 314.812L44 314.69ZM30.2903 194.111L29.7906 194.092L29.7906 194.092L30.2903 194.111ZM40.5 185.69L40.0005 185.712L40.0005 185.712L40.5 185.69ZM40.5734 237.485L41.0734 237.489L41.0734 237.489L40.5734 237.485ZM52 159.19L52.4961 159.252L52 159.19ZM64.5 159.19L64.003 159.246L64.003 159.246L64.5 159.19ZM62.7636 203.216L62.2646 203.184L62.2646 203.184L62.7636 203.216ZM61.5 250.69L61.916 250.413L61.916 250.413L61.5 250.69ZM64.0966 255.811L64.5541 255.609L64.5541 255.609L64.0966 255.811ZM68.5 259.69L68.9069 259.981L68.9069 259.981L68.5 259.69ZM74.1011 211.695L73.6026 211.656L73.6026 211.656L74.1011 211.695ZM74.5 206.69L74.9979 206.736L74.9979 206.736L74.5 206.69ZM64.5 272.69L64.084 272.968L64.084 272.968L64.5 272.69ZM61.6848 265.994L61.6314 265.497L61.6314 265.497L61.6848 265.994ZM61.5 304.69H61L61.9743 304.848L61.5 304.69ZM95.5 291.69L95.1636 291.32L95.1636 291.32L95.5 291.69ZM106.948 283.313L107.224 283.73L107.224 283.73L106.948 283.313ZM113.5 278.69L113.175 278.311L113.175 278.311L113.5 278.69ZM128.5 278.69L128.12 279.016L128.12 279.016L128.5 278.69ZM131.207 282.074L131.602 281.768L131.602 281.768L131.207 282.074ZM149.5 285.19L149.906 285.483L149.906 285.483L149.5 285.19ZM175.5 275.69L175.929 275.433L175.929 275.433L175.5 275.69ZM200 278.69L199.526 278.532L199.526 278.532L200 278.69ZM215 278.69L215.487 278.578L215.487 278.578L215 278.69ZM232 285.19L232.44 285.427L232.44 285.427L232 285.19ZM246 281.19L246.424 280.925L246.424 280.925L246 281.19ZM246.544 282.068L246.119 282.33L246.119 282.33L246.544 282.068ZM254 288.69L254.239 288.251L254.239 288.251L254 288.69ZM260.906 290.505L260.843 291.001L260.843 291.001L260.906 290.505ZM268 294.19L267.536 294.376L267.536 294.376L268 294.19ZM284.5 308.69L284.458 309.189L284.458 309.189L284.5 308.69ZM290.324 310.093L290.47 309.615L290.47 309.615L290.324 310.093ZM385.257 318.144L385.515 317.716L385.515 317.716L385.257 318.144ZM409.673 321.678L409.644 321.179L409.644 321.179L409.673 321.678ZM434.5 322.19L434.692 321.729L434.692 321.729L434.5 322.19ZM471.229 324.229L471.241 323.729L471.241 323.729L471.229 324.229ZM526 327.19L526.082 326.697L526.082 326.697L526 327.19ZM596.214 327.793L596.197 327.293L596.214 327.793ZM643.128 327.171C636.135 339.321 623.023 347.5 608 347.5V348.5C623.395 348.5 636.831 340.117 643.994 327.67L643.128 327.171ZM608 347.5H41V348.5H608V347.5ZM41 347.5C27.0239 347.5 14.7011 340.421 7.42143 329.651L6.59293 330.211C14.0506 341.245 26.6779 348.5 41 348.5V347.5ZM43.5149 314.569C43.5015 314.623 43.4434 314.742 43.2662 314.93C43.0958 315.109 42.8481 315.317 42.5184 315.551C41.8597 316.019 40.9238 316.555 39.7531 317.145C37.4152 318.324 34.2006 319.689 30.5388 321.119C23.2186 323.978 14.1568 327.08 6.85256 329.455L7.16179 330.406C14.474 328.029 23.5565 324.919 30.9026 322.05C34.5739 320.616 37.823 319.238 40.2034 318.038C41.3919 317.439 42.3788 316.876 43.0971 316.367C43.456 316.112 43.7604 315.862 43.992 315.617C44.2167 315.38 44.4105 315.11 44.4851 314.812L43.5149 314.569ZM46.0931 272.981C46.1933 273.121 46.3059 273.386 46.4089 273.812C46.5093 274.228 46.5911 274.755 46.6538 275.385C46.7791 276.645 46.8242 278.275 46.8047 280.162C46.7658 283.933 46.4701 288.684 46.0643 293.461C45.6586 298.235 45.1437 303.025 44.6678 306.871C44.1901 310.732 43.7559 313.605 43.5149 314.569L44.4851 314.812C44.744 313.776 45.1849 310.836 45.6603 306.994C46.1376 303.137 46.6539 298.333 47.0607 293.545C47.4674 288.759 47.7654 283.979 47.8046 280.172C47.8243 278.27 47.7794 276.599 47.6489 275.286C47.5837 274.631 47.496 274.054 47.3809 273.577C47.2683 273.111 47.1192 272.697 46.9069 272.4L46.0931 272.981ZM33.5 268.69C36.9865 268.69 39.5456 268.941 41.5294 269.602C43.4899 270.256 44.9035 271.316 46.0931 272.981L46.9069 272.4C45.5965 270.565 44.0101 269.375 41.8456 268.654C39.7044 267.94 37.0135 267.69 33.5 267.69V268.69ZM29.7906 194.092C29.4282 203.797 28.736 222.328 28.8822 238.435C28.9552 246.485 29.2377 253.947 29.8787 259.404C30.1986 262.127 30.6109 264.38 31.1425 265.963C31.4074 266.751 31.713 267.408 32.0755 267.877C32.4392 268.348 32.9115 268.69 33.5 268.69V267.69C33.3414 267.69 33.1293 267.606 32.8667 267.266C32.603 266.925 32.3403 266.388 32.0905 265.644C31.5926 264.162 31.1896 261.992 30.8719 259.287C30.2374 253.886 29.9551 246.468 29.8821 238.426C29.7362 222.346 30.4274 203.837 30.7899 194.129L29.7906 194.092ZM30 187.69C30 188.482 29.9151 190.759 29.7906 194.092L30.7899 194.129C30.9138 190.812 31 188.507 31 187.69H30ZM40.9995 185.669C40.8729 182.756 40.1752 180.911 39.042 179.99C37.8645 179.033 36.3943 179.199 35.0843 179.87C33.7724 180.543 32.51 181.766 31.5765 183.162C30.6448 184.556 30 186.184 30 187.69H31C31 186.447 31.5427 185.012 32.4078 183.718C33.2712 182.427 34.415 181.338 35.5406 180.76C36.6682 180.182 37.6667 180.161 38.4111 180.766C39.1998 181.407 39.8771 182.875 40.0005 185.712L40.9995 185.669ZM41.0734 237.489C41.1906 220.49 41.372 194.235 40.9995 185.669L40.0005 185.712C40.3715 194.245 40.1908 220.464 40.0734 237.482L41.0734 237.489ZM41 250.69C41 248.127 41.0329 243.359 41.0734 237.489L40.0734 237.482C40.0329 243.35 40 248.123 40 250.69H41ZM49 250.69C49 253.121 48.4527 254.89 47.6793 256.036C46.9081 257.178 45.9253 257.69 45 257.69C44.0747 257.69 43.0919 257.178 42.3207 256.036C41.5473 254.89 41 253.121 41 250.69H40C40 253.26 40.5777 255.241 41.4918 256.595C42.4081 257.953 43.6753 258.69 45 258.69C46.3247 258.69 47.5919 257.953 48.5082 256.595C49.4223 255.241 50 253.26 50 250.69H49ZM51.5038 159.128C50.9998 163.161 50.3746 183.574 49.8751 204.178C49.3752 224.802 49 245.683 49 250.69H50C50 245.698 50.3748 224.829 50.8748 204.202C51.3753 183.557 52.0002 163.22 52.4961 159.252L51.5038 159.128ZM64.9969 159.135C64.6164 155.71 63.689 153.4 62.4216 152.03C61.1291 150.634 59.5189 150.257 57.9438 150.642C56.3974 151.02 54.9174 152.12 53.768 153.612C52.6144 155.109 51.7654 157.036 51.5038 159.128L52.4961 159.252C52.7346 157.345 53.5106 155.584 54.5601 154.222C55.6138 152.855 56.915 151.923 58.1812 151.614C59.4185 151.311 60.6521 151.591 61.6877 152.71C62.7484 153.856 63.6336 155.921 64.003 159.246L64.9969 159.135ZM63.2625 203.248C63.8714 193.749 64.4779 184.287 64.846 176.425C65.2134 168.579 65.3464 162.28 64.9969 159.135L64.003 159.246C64.342 162.296 64.2156 168.51 63.8471 176.378C63.4794 184.23 62.8736 193.683 62.2646 203.184L63.2625 203.248ZM61.916 250.413C61.8612 250.331 61.7886 250.164 61.7152 249.878C61.6441 249.6 61.5803 249.244 61.5254 248.808C61.4156 247.936 61.3452 246.783 61.3105 245.383C61.2411 242.585 61.3147 238.839 61.4842 234.46C61.8232 225.704 62.5444 214.451 63.2625 203.248L62.2646 203.184C61.5468 214.383 60.8246 225.65 60.485 234.422C60.3152 238.807 60.2406 242.577 60.3108 245.408C60.3459 246.822 60.4173 248.013 60.5332 248.933C60.5912 249.392 60.6613 249.794 60.7466 250.126C60.8296 250.45 60.9359 250.746 61.084 250.968L61.916 250.413ZM64.5541 255.609C63.7981 253.894 62.9464 251.959 61.916 250.413L61.084 250.968C62.0571 252.427 62.8744 254.278 63.6391 256.012L64.5541 255.609ZM68.0931 259.4C67.7042 259.944 67.4387 260.047 67.3035 260.052C67.1684 260.057 66.9472 259.974 66.6244 259.592C66.3127 259.223 65.9872 258.671 65.6375 257.972C65.2902 257.278 64.9346 256.472 64.5541 255.609L63.6391 256.012C64.0169 256.869 64.3828 257.7 64.7432 258.42C65.101 259.135 65.4694 259.775 65.8608 260.238C66.2411 260.687 66.7324 261.075 67.3419 261.051C67.9516 261.028 68.4632 260.602 68.9069 259.981L68.0931 259.4ZM73.6026 211.656C73.0951 218.211 72.2238 229.464 71.2154 239.448C70.7111 244.44 70.1731 249.109 69.63 252.711C69.3583 254.513 69.0866 256.04 68.8188 257.204C68.6849 257.786 68.5536 258.27 68.4263 258.648C68.2956 259.037 68.1808 259.277 68.0931 259.4L68.9069 259.981C69.0834 259.734 69.2358 259.378 69.3741 258.967C69.5157 258.546 69.6554 258.028 69.7933 257.428C70.0694 256.228 70.3456 254.673 70.6188 252.86C71.1656 249.234 71.7055 244.546 72.2103 239.548C73.2201 229.551 74.0922 218.287 74.5996 211.733L73.6026 211.656ZM74.002 206.645C73.9245 207.498 73.7875 209.267 73.6026 211.656L74.5996 211.733C74.7849 209.34 74.9212 207.58 74.9979 206.736L74.002 206.645ZM83.4985 206.652C83.2469 203.381 82.6141 201.287 81.7156 200.126C81.2563 199.533 80.7126 199.166 80.1061 199.038C79.5036 198.911 78.9014 199.033 78.3447 199.303C77.2486 199.833 76.2323 200.976 75.4664 202.29C74.6946 203.614 74.1348 205.184 74.002 206.645L74.9979 206.736C75.1151 205.446 75.6178 204.016 76.3304 202.794C77.049 201.561 77.9389 200.61 78.7803 200.203C79.1923 200.004 79.5667 199.946 79.8998 200.017C80.2287 200.086 80.5796 200.293 80.925 200.739C81.6359 201.657 82.2531 203.5 82.5015 206.729L83.4985 206.652ZM77.9596 268.387C78.3556 267.463 78.7464 266.007 79.1282 264.173C79.5119 262.329 79.8924 260.072 80.2605 257.528C80.9966 252.437 81.6851 246.177 82.2481 239.734C83.373 226.86 84.002 213.198 83.4985 206.652L82.5015 206.729C82.9979 213.183 82.377 226.771 81.2519 239.647C80.6899 246.078 80.0034 252.318 79.2708 257.384C78.9044 259.918 78.5272 262.153 78.1491 263.969C77.7691 265.795 77.3944 267.167 77.0404 267.993L77.9596 268.387ZM64.084 272.968C65.7281 275.434 68.4775 276.098 71.1545 275.228C73.8149 274.364 76.4132 271.995 77.9596 268.387L77.0404 267.993C75.5868 271.385 73.1851 273.517 70.8454 274.277C68.5225 275.032 66.2719 274.447 64.916 272.413L64.084 272.968ZM61.7383 266.491C61.59 266.507 61.4803 266.451 61.4269 266.413C61.3761 266.378 61.3493 266.343 61.3432 266.335C61.3308 266.318 61.3359 266.32 61.3565 266.366C61.3948 266.452 61.4461 266.594 61.5137 266.8C61.58 267.003 61.6556 267.247 61.7441 267.531C61.8321 267.812 61.9314 268.128 62.0431 268.467C62.4873 269.812 63.1372 271.548 64.084 272.968L64.916 272.413C64.0477 271.111 63.4315 269.483 62.9927 268.153C62.8837 267.823 62.7862 267.513 62.6987 267.233C62.6117 266.954 62.5332 266.7 62.4641 266.489C62.3964 266.282 62.331 266.095 62.2688 265.957C62.2392 265.891 62.1981 265.808 62.1431 265.734C62.1158 265.698 62.0687 265.642 61.9984 265.593C61.9256 265.542 61.7973 265.479 61.6314 265.497L61.7383 266.491ZM62 272.69C62 270.219 62 268.557 62.023 267.509C62.0345 266.983 62.0516 266.628 62.0751 266.408C62.0873 266.294 62.0988 266.242 62.1028 266.229C62.1055 266.22 62.0975 266.253 62.0667 266.298C62.0382 266.341 61.9363 266.47 61.7383 266.491L61.6314 265.497C61.4102 265.521 61.2867 265.666 61.2379 265.739C61.1867 265.815 61.1598 265.892 61.1448 265.942C61.1135 266.047 61.0946 266.173 61.0808 266.301C61.0524 266.567 61.0348 266.959 61.0232 267.487C61 268.549 61 270.225 61 272.69H62ZM62 304.69V272.69H61V304.69H62ZM68.5 301.19C63.5829 301.19 61.4536 303.248 61.0256 304.532L61.9743 304.848C62.213 304.132 63.8171 302.19 68.5 302.19V301.19ZM95.1636 291.32C92.4923 293.749 87.3241 296.222 82.0211 298.094C76.7205 299.965 71.4117 301.19 68.5 301.19V302.19C71.5883 302.19 77.0294 300.916 82.3539 299.037C87.6758 297.159 93.0076 294.632 95.8363 292.06L95.1636 291.32ZM106.672 282.896C102.869 285.415 98.4163 288.363 95.1636 291.32L95.8363 292.06C99.021 289.165 103.403 286.261 107.224 283.73L106.672 282.896ZM113.175 278.311C111.752 279.53 109.387 281.098 106.672 282.896L107.224 283.73C109.914 281.948 112.344 280.34 113.825 279.07L113.175 278.311ZM128.88 278.365C127.34 276.569 125.808 275.45 124.302 274.851C122.791 274.25 121.333 274.183 119.967 274.45C117.262 274.977 114.923 276.812 113.175 278.311L113.825 279.07C115.577 277.568 117.738 275.903 120.158 275.431C121.354 275.198 122.615 275.256 123.932 275.78C125.254 276.306 126.66 277.312 128.12 279.016L128.88 278.365ZM131.602 281.768C130.695 280.596 129.788 279.425 128.88 278.365L128.12 279.016C129.01 280.053 129.901 281.204 130.811 282.38L131.602 281.768ZM149.094 284.898C147.208 287.519 145.494 288.989 143.94 289.665C142.408 290.331 140.988 290.245 139.615 289.656C138.222 289.058 136.869 287.938 135.528 286.522C134.189 285.109 132.895 283.438 131.602 281.768L130.811 282.38C132.098 284.041 133.423 285.754 134.802 287.21C136.179 288.663 137.643 289.898 139.221 290.575C140.821 291.261 142.529 291.369 144.338 290.582C146.125 289.805 147.967 288.176 149.906 285.483L149.094 284.898ZM175.929 275.433C174.02 272.252 171.937 270.391 169.692 269.668C167.437 268.941 165.122 269.396 162.827 270.625C160.537 271.85 158.228 273.864 155.938 276.335C153.645 278.81 151.35 281.766 149.094 284.898L149.906 285.483C152.15 282.365 154.418 279.446 156.671 277.015C158.928 274.579 161.15 272.656 163.298 271.506C165.44 270.36 167.469 270.002 169.386 270.619C171.313 271.24 173.23 272.879 175.071 275.948L175.929 275.433ZM199.526 278.532C199.079 279.872 197.881 281.131 196.145 282.071C194.416 283.006 192.2 283.598 189.806 283.628C185.033 283.688 179.581 281.52 175.929 275.433L175.071 275.948C178.919 282.361 184.717 284.692 189.819 284.628C192.363 284.596 194.74 283.968 196.621 282.95C198.494 281.937 199.921 280.509 200.474 278.848L199.526 278.532ZM215.487 278.578C214.661 274.996 211.104 273.438 207.678 273.503C204.256 273.568 200.62 275.249 199.526 278.532L200.474 278.848C201.38 276.131 204.494 274.563 207.697 274.503C210.896 274.442 213.839 275.885 214.513 278.803L215.487 278.578ZM231.56 284.953C230.77 286.42 229.516 287.149 228.017 287.335C226.496 287.523 224.715 287.148 222.955 286.359C221.199 285.572 219.501 284.39 218.154 283.013C216.804 281.632 215.835 280.085 215.487 278.578L214.513 278.803C214.915 280.546 216.008 282.249 217.439 283.712C218.874 285.179 220.676 286.434 222.545 287.272C224.41 288.107 226.379 288.545 228.14 288.327C229.922 288.107 231.48 287.211 232.44 285.427L231.56 284.953ZM246.424 280.925C245.014 278.669 242.116 278.052 239.254 278.768C236.369 279.489 233.377 281.578 231.56 284.953L232.44 285.427C234.123 282.303 236.881 280.392 239.496 279.738C242.134 279.079 244.486 279.712 245.576 281.455L246.424 280.925ZM246.97 281.805C246.801 281.532 246.62 281.239 246.424 280.925L245.576 281.455C245.771 281.767 245.95 282.058 246.119 282.33L246.97 281.805ZM254.239 288.251C251.702 286.867 250.387 286.042 249.457 285.181C248.534 284.327 247.972 283.424 246.97 281.805L246.119 282.33C247.107 283.927 247.737 284.953 248.777 285.915C249.81 286.87 251.228 287.748 253.761 289.129L254.239 288.251ZM260.968 290.008C258.74 289.73 256.404 289.432 254.239 288.251L253.761 289.129C256.116 290.414 258.639 290.725 260.843 291.001L260.968 290.008ZM268.464 294.005C267.818 292.39 266.729 291.477 265.392 290.929C264.089 290.396 262.538 290.205 260.968 290.008L260.843 291.001C262.45 291.202 263.857 291.381 265.013 291.855C266.134 292.314 267.004 293.046 267.536 294.376L268.464 294.005ZM284.542 308.192C283.147 308.076 281.566 307.459 279.927 306.487C278.294 305.518 276.636 304.214 275.092 302.764C271.994 299.851 269.426 296.41 268.464 294.005L267.536 294.376C268.574 296.971 271.256 300.529 274.408 303.492C275.989 304.979 277.706 306.332 279.417 307.347C281.122 308.359 282.853 309.055 284.458 309.189L284.542 308.192ZM290.47 309.615C288.163 308.908 286.316 308.34 284.542 308.192L284.458 309.189C286.104 309.326 287.839 309.855 290.178 310.571L290.47 309.615ZM325 314.19C305.398 314.19 296.266 311.39 290.47 309.615L290.178 310.571C296.042 312.367 305.275 315.19 325 315.19V314.19ZM375.5 314.19H325V315.19H375.5V314.19ZM385.515 317.716C382.582 315.948 379.681 314.19 375.5 314.19V315.19C379.371 315.19 382.054 316.797 384.999 318.572L385.515 317.716ZM397.5 321.69C392.121 321.69 388.775 319.68 385.515 317.716L384.999 318.572C388.273 320.545 391.825 322.69 397.5 322.69V321.69ZM409.644 321.179C405.098 321.442 400.799 321.69 397.5 321.69V322.69C400.835 322.69 405.166 322.44 409.702 322.177L409.644 321.179ZM434.692 321.729C433.597 321.272 432.088 320.985 430.321 320.811C428.546 320.636 426.474 320.572 424.233 320.58C419.752 320.595 414.556 320.895 409.644 321.179L409.701 322.177C414.621 321.893 419.788 321.594 424.236 321.58C426.46 321.572 428.494 321.636 430.223 321.807C431.96 321.978 433.351 322.253 434.308 322.652L434.692 321.729ZM471.241 323.729C462.183 323.499 453.713 323.284 447.154 322.979C443.875 322.827 441.08 322.652 438.932 322.443C437.858 322.338 436.951 322.226 436.229 322.104C435.499 321.981 434.99 321.853 434.692 321.729L434.308 322.652C434.716 322.822 435.319 322.964 436.063 323.09C436.817 323.217 437.749 323.333 438.835 323.438C441.008 323.65 443.823 323.825 447.108 323.978C453.679 324.283 462.161 324.499 471.216 324.729L471.241 323.729ZM526.082 326.697C514.925 324.838 491.581 324.246 471.241 323.729L471.216 324.729C491.599 325.247 514.848 325.839 525.918 327.684L526.082 326.697ZM596.197 327.293C584.379 327.702 570.598 328.178 557.89 328.239C545.172 328.3 533.566 327.944 526.082 326.697L525.918 327.684C533.495 328.946 545.179 329.3 557.895 329.239C570.62 329.178 584.416 328.701 596.231 328.292L596.197 327.293ZM619 326.69C613.616 326.69 605.512 326.971 596.197 327.293L596.231 328.292C605.555 327.97 613.637 327.69 619 327.69V326.69ZM643.569 326.92C632.789 326.756 623.865 326.69 619 326.69V327.69C623.859 327.69 632.777 327.756 643.553 327.92L643.569 326.92Z" fill="black"/>
<defs>
<linearGradient id="paint0_linear_1048_130" x1="324.5" y1="0" x2="324.5" y2="348" gradientUnits="userSpaceOnUse">
<stop stop-color="#3FA9B5"/>
<stop offset="0.369792" stop-color="#EDEDE6"/>
<stop offset="0.692708" stop-color="#E8E3D6"/>
<stop offset="1" stop-color="#EFBA3E"/>
</linearGradient>
</defs>
</svg>
