<svg width="649" height="354" viewBox="0 0 649 354" fill="none" xmlns="http://www.w3.org/2000/svg">
<rect y="6" width="649" height="348" rx="41" fill="url(#paint0_linear_1048_147)"/>
<path d="M172.375 309.317H175.058V292.621H171.913V295.97H166.342V288.092H189.909V295.97H184.303V292.621H180.731V309.317H183.466V314H172.375V309.317ZM191.413 287.408H199.394V297.936C200.066 297.32 200.801 296.842 201.598 296.5C202.407 296.147 203.296 295.97 204.264 295.97C206.395 295.97 208.024 296.568 209.152 297.765C210.28 298.95 210.844 300.687 210.844 302.977V309.317H213.441V314H205.529V304.173C205.529 303.182 205.284 302.402 204.794 301.832C204.304 301.262 203.672 300.978 202.897 300.978C202.384 300.978 201.826 301.12 201.222 301.405C200.618 301.69 200.009 302.105 199.394 302.652V309.317H201.991V314H191.413V309.317H194.147V292.091H191.413V287.408ZM220.089 306.258L220.141 306.788C220.266 307.301 220.477 307.751 220.773 308.138C221.081 308.526 221.439 308.85 221.85 309.112C222.26 309.374 222.715 309.574 223.217 309.71C223.718 309.836 224.225 309.898 224.738 309.898C225.25 309.898 225.735 309.87 226.19 309.813C226.658 309.745 227.108 309.659 227.541 309.557C227.973 309.443 228.395 309.317 228.805 309.181C229.215 309.033 229.631 308.879 230.053 308.719L231.933 312.223C231.283 312.621 230.685 312.963 230.138 313.248C229.603 313.521 229.062 313.749 228.515 313.932C227.968 314.114 227.387 314.245 226.771 314.325C226.156 314.416 225.438 314.461 224.618 314.461C223.08 314.461 221.713 314.211 220.517 313.709C219.32 313.197 218.312 312.507 217.492 311.642C216.683 310.776 216.062 309.762 215.629 308.6C215.207 307.438 214.997 306.207 214.997 304.908C214.997 303.609 215.219 302.39 215.663 301.251C216.119 300.112 216.757 299.12 217.577 298.277C218.397 297.423 219.377 296.751 220.517 296.261C221.656 295.771 222.921 295.526 224.311 295.526C225.701 295.526 226.931 295.759 228.002 296.227C229.084 296.682 229.996 297.32 230.736 298.141C231.477 298.95 232.047 299.907 232.445 301.012C232.844 302.105 233.061 303.285 233.095 304.549C233.129 304.834 233.146 305.119 233.146 305.404C233.157 305.677 233.152 305.962 233.129 306.258H220.089ZM224.174 299.798C223.536 299.798 222.989 299.878 222.533 300.038C222.089 300.186 221.713 300.396 221.405 300.67C221.098 300.932 220.853 301.234 220.67 301.576C220.488 301.917 220.346 302.276 220.243 302.652H227.643C227.563 302.265 227.449 301.9 227.301 301.559C227.153 301.217 226.948 300.915 226.686 300.653C226.424 300.391 226.088 300.186 225.678 300.038C225.279 299.878 224.778 299.798 224.174 299.798ZM259.704 288.092H269.547V292.792H267.445V314H261.771L250.988 297.252V309.317H253.158V314H243.332V309.317H245.468V292.792H243.366V288.092H251.193L261.908 305.062V292.792H259.704V288.092ZM282.672 313.043C282.274 313.294 281.909 313.51 281.579 313.692C281.248 313.863 280.918 314 280.587 314.103C280.257 314.216 279.915 314.296 279.562 314.342C279.209 314.399 278.821 314.427 278.4 314.427C277.34 314.427 276.389 314.285 275.546 314C274.714 313.704 274.008 313.305 273.427 312.804C272.857 312.291 272.418 311.693 272.111 311.009C271.803 310.314 271.649 309.562 271.649 308.753C271.649 307.933 271.803 307.175 272.111 306.48C272.43 305.785 272.886 305.193 273.478 304.703C274.07 304.202 274.794 303.814 275.648 303.541C276.514 303.256 277.5 303.114 278.605 303.114C279.414 303.114 280.149 303.159 280.81 303.25C281.482 303.33 282.103 303.433 282.672 303.558V303.011C282.672 302.567 282.587 302.185 282.416 301.866C282.245 301.536 282.006 301.268 281.698 301.063C281.391 300.847 281.02 300.693 280.587 300.602C280.154 300.499 279.682 300.448 279.169 300.448C278.098 300.448 277.152 300.556 276.332 300.772C275.523 300.978 274.743 301.279 273.991 301.678L272.35 298.363C273.512 297.565 274.726 296.956 275.99 296.534C277.266 296.113 278.616 295.902 280.041 295.902C281.146 295.902 282.165 296.027 283.1 296.278C284.045 296.517 284.854 296.916 285.526 297.474C286.199 298.021 286.723 298.739 287.099 299.627C287.486 300.516 287.68 301.598 287.68 302.875V309.317H290.055V314H282.672V313.043ZM278.776 310.394C279.585 310.394 280.32 310.263 280.98 310.001C281.641 309.739 282.205 309.42 282.672 309.044V306.788H278.571C278.309 306.788 278.052 306.828 277.802 306.908C277.551 306.987 277.323 307.101 277.118 307.25C276.924 307.398 276.765 307.58 276.64 307.796C276.526 308.013 276.469 308.264 276.469 308.548C276.469 309.072 276.657 309.511 277.033 309.864C277.42 310.217 278.001 310.394 278.776 310.394ZM300.343 296.295H303.881V300.772H300.309L300.275 308.258C300.275 308.691 300.309 309.044 300.377 309.317C300.446 309.579 300.543 309.79 300.668 309.95C300.805 310.109 300.964 310.217 301.146 310.274C301.329 310.331 301.54 310.36 301.779 310.36C302.212 310.36 302.593 310.32 302.924 310.24C303.254 310.149 303.585 310.047 303.915 309.933L304.65 313.231C304.069 313.596 303.419 313.886 302.702 314.103C301.995 314.319 301.152 314.427 300.172 314.427C299.477 314.427 298.811 314.308 298.173 314.068C297.546 313.829 296.994 313.47 296.515 312.992C296.037 312.502 295.655 311.892 295.37 311.163C295.085 310.434 294.949 309.585 294.96 308.617L295.011 300.772H292.465V296.295H295.028L295.062 292.057L300.377 289.527L300.343 296.295ZM318.322 296.295H326.696V309.317H328.832V314H321.33V312.496C320.726 313.043 320.019 313.465 319.21 313.761C318.402 314.057 317.467 314.205 316.408 314.205C315.428 314.205 314.505 314.051 313.639 313.744C312.773 313.436 312.016 312.975 311.366 312.359C310.728 311.733 310.221 310.952 309.845 310.018C309.481 309.084 309.298 307.984 309.298 306.72V300.978H306.991V296.295H314.818V306.72C314.818 307.905 315.12 308.793 315.724 309.386C316.328 309.967 317.114 310.257 318.083 310.257C318.766 310.257 319.387 310.047 319.945 309.625C320.504 309.203 320.908 308.634 321.159 307.916V300.978H318.322V296.295ZM347.494 302.738H342.692V300.909C342.225 300.909 341.798 300.943 341.41 301.012C341.023 301.069 340.681 301.171 340.385 301.319C340.1 301.467 339.855 301.673 339.65 301.935C339.456 302.197 339.319 302.521 339.24 302.909V309.317H342.846V314H331.293V309.317H333.942V300.978H331.327V296.295H339.206V297.542C339.707 297.144 340.271 296.836 340.897 296.62C341.524 296.403 342.208 296.295 342.948 296.295C343.7 296.295 344.475 296.301 345.272 296.312C346.07 296.323 346.811 296.329 347.494 296.329V302.738ZM361.286 313.043C360.887 313.294 360.522 313.51 360.192 313.692C359.861 313.863 359.531 314 359.201 314.103C358.87 314.216 358.528 314.296 358.175 314.342C357.822 314.399 357.435 314.427 357.013 314.427C355.954 314.427 355.002 314.285 354.159 314C353.327 313.704 352.621 313.305 352.04 312.804C351.47 312.291 351.032 311.693 350.724 311.009C350.417 310.314 350.263 309.562 350.263 308.753C350.263 307.933 350.417 307.175 350.724 306.48C351.043 305.785 351.499 305.193 352.091 304.703C352.684 304.202 353.407 303.814 354.262 303.541C355.128 303.256 356.113 303.114 357.218 303.114C358.027 303.114 358.762 303.159 359.423 303.25C360.095 303.33 360.716 303.433 361.286 303.558V303.011C361.286 302.567 361.2 302.185 361.029 301.866C360.858 301.536 360.619 301.268 360.312 301.063C360.004 300.847 359.634 300.693 359.201 300.602C358.768 300.499 358.295 300.448 357.782 300.448C356.711 300.448 355.766 300.556 354.945 300.772C354.136 300.978 353.356 301.279 352.604 301.678L350.963 298.363C352.125 297.565 353.339 296.956 354.604 296.534C355.88 296.113 357.23 295.902 358.654 295.902C359.759 295.902 360.779 296.027 361.713 296.278C362.659 296.517 363.467 296.916 364.14 297.474C364.812 298.021 365.336 298.739 365.712 299.627C366.099 300.516 366.293 301.598 366.293 302.875V309.317H368.668V314H361.286V313.043ZM357.389 310.394C358.198 310.394 358.933 310.263 359.594 310.001C360.255 309.739 360.819 309.42 361.286 309.044V306.788H357.184C356.922 306.788 356.666 306.828 356.415 306.908C356.164 306.987 355.937 307.101 355.731 307.25C355.538 307.398 355.378 307.58 355.253 307.796C355.139 308.013 355.082 308.264 355.082 308.548C355.082 309.072 355.27 309.511 355.646 309.864C356.033 310.217 356.614 310.394 357.389 310.394ZM371.916 287.408H379.896V309.317H382.631V314H371.916V309.317H374.65V292.091H371.916V287.408ZM405.634 295.389C405.577 294.99 405.434 294.614 405.207 294.261C404.99 293.908 404.705 293.606 404.352 293.355C404.01 293.093 403.617 292.888 403.173 292.74C402.74 292.592 402.284 292.518 401.806 292.518C401.373 292.518 400.968 292.564 400.592 292.655C400.216 292.746 399.886 292.888 399.601 293.082C399.328 293.264 399.105 293.504 398.935 293.8C398.775 294.096 398.695 294.449 398.695 294.859C398.695 295.372 398.804 295.782 399.02 296.09C399.248 296.386 399.533 296.631 399.875 296.825C400.228 297.018 400.615 297.172 401.037 297.286C401.458 297.4 401.868 297.525 402.267 297.662L406.967 299.234C407.616 299.462 408.226 299.776 408.795 300.174C409.365 300.573 409.855 301.057 410.265 301.627C410.687 302.197 411.017 302.852 411.256 303.592C411.496 304.333 411.615 305.165 411.615 306.087C411.615 307.341 411.382 308.486 410.915 309.522C410.459 310.559 409.815 311.448 408.983 312.188C408.152 312.929 407.155 313.504 405.993 313.915C404.831 314.325 403.543 314.53 402.13 314.53C401.139 314.53 400.199 314.416 399.311 314.188C398.433 313.972 397.63 313.653 396.901 313.231C396.172 312.809 395.534 312.308 394.987 311.727C394.44 311.135 394.013 310.468 393.705 309.728H391.945V304.583H398.131V305.643C398.131 306.156 398.211 306.629 398.371 307.062C398.542 307.494 398.792 307.87 399.123 308.189C399.453 308.508 399.869 308.759 400.37 308.941C400.871 309.112 401.458 309.198 402.13 309.198C403.156 309.198 403.936 308.964 404.472 308.497C405.007 308.019 405.275 307.358 405.275 306.515C405.275 306.082 405.178 305.723 404.984 305.438C404.802 305.142 404.563 304.897 404.267 304.703C403.97 304.498 403.64 304.327 403.275 304.19C402.911 304.054 402.552 303.928 402.199 303.814L398.285 302.55C397.545 302.322 396.827 302.003 396.132 301.593C395.448 301.183 394.839 300.67 394.303 300.055C393.779 299.439 393.358 298.722 393.039 297.901C392.731 297.07 392.577 296.124 392.577 295.064C392.577 293.834 392.805 292.74 393.261 291.783C393.716 290.815 394.354 290 395.175 289.339C395.995 288.679 396.969 288.177 398.097 287.835C399.225 287.494 400.461 287.323 401.806 287.323C402.865 287.323 403.845 287.448 404.745 287.699C405.645 287.938 406.448 288.263 407.155 288.673C407.873 289.083 408.476 289.556 408.966 290.091C409.468 290.615 409.849 291.162 410.111 291.732H411.82V296.893H405.634V295.389ZM420.587 296.295H424.125V300.772H420.553L420.519 308.258C420.519 308.691 420.553 309.044 420.622 309.317C420.69 309.579 420.787 309.79 420.912 309.95C421.049 310.109 421.208 310.217 421.391 310.274C421.573 310.331 421.784 310.36 422.023 310.36C422.456 310.36 422.838 310.32 423.168 310.24C423.498 310.149 423.829 310.047 424.159 309.933L424.894 313.231C424.313 313.596 423.664 313.886 422.946 314.103C422.239 314.319 421.396 314.427 420.417 314.427C419.722 314.427 419.055 314.308 418.417 314.068C417.79 313.829 417.238 313.47 416.759 312.992C416.281 312.502 415.899 311.892 415.614 311.163C415.329 310.434 415.193 309.585 415.204 308.617L415.255 300.772H412.709V296.295H415.272L415.307 292.057L420.622 289.527L420.587 296.295ZM438.463 313.043C438.065 313.294 437.7 313.51 437.37 313.692C437.039 313.863 436.709 314 436.378 314.103C436.048 314.216 435.706 314.296 435.353 314.342C435 314.399 434.612 314.427 434.191 314.427C433.131 314.427 432.18 314.285 431.337 314C430.505 313.704 429.799 313.305 429.218 312.804C428.648 312.291 428.209 311.693 427.902 311.009C427.594 310.314 427.44 309.562 427.44 308.753C427.44 307.933 427.594 307.175 427.902 306.48C428.221 305.785 428.677 305.193 429.269 304.703C429.861 304.202 430.585 303.814 431.439 303.541C432.305 303.256 433.291 303.114 434.396 303.114C435.205 303.114 435.94 303.159 436.601 303.25C437.273 303.33 437.894 303.433 438.463 303.558V303.011C438.463 302.567 438.378 302.185 438.207 301.866C438.036 301.536 437.797 301.268 437.489 301.063C437.182 300.847 436.811 300.693 436.378 300.602C435.945 300.499 435.473 300.448 434.96 300.448C433.889 300.448 432.943 300.556 432.123 300.772C431.314 300.978 430.534 301.279 429.782 301.678L428.141 298.363C429.303 297.565 430.517 296.956 431.781 296.534C433.057 296.113 434.407 295.902 435.832 295.902C436.937 295.902 437.956 296.027 438.891 296.278C439.836 296.517 440.645 296.916 441.317 297.474C441.99 298.021 442.514 298.739 442.89 299.627C443.277 300.516 443.471 301.598 443.471 302.875V309.317H445.846V314H438.463V313.043ZM434.567 310.394C435.376 310.394 436.111 310.263 436.771 310.001C437.432 309.739 437.996 309.42 438.463 309.044V306.788H434.362C434.1 306.788 433.843 306.828 433.593 306.908C433.342 306.987 433.114 307.101 432.909 307.25C432.715 307.398 432.556 307.58 432.431 307.796C432.317 308.013 432.26 308.264 432.26 308.548C432.26 309.072 432.448 309.511 432.824 309.864C433.211 310.217 433.792 310.394 434.567 310.394ZM456.134 296.295H459.672V300.772H456.1L456.066 308.258C456.066 308.691 456.1 309.044 456.168 309.317C456.237 309.579 456.334 309.79 456.459 309.95C456.596 310.109 456.755 310.217 456.938 310.274C457.12 310.331 457.331 310.36 457.57 310.36C458.003 310.36 458.384 310.32 458.715 310.24C459.045 310.149 459.376 310.047 459.706 309.933L460.441 313.231C459.86 313.596 459.21 313.886 458.493 314.103C457.786 314.319 456.943 314.427 455.963 314.427C455.268 314.427 454.602 314.308 453.964 314.068C453.337 313.829 452.785 313.47 452.306 312.992C451.828 312.502 451.446 311.892 451.161 311.163C450.876 310.434 450.74 309.585 450.751 308.617L450.802 300.772H448.256V296.295H450.819L450.854 292.057L456.168 289.527L456.134 296.295ZM467.721 306.258L467.772 306.788C467.898 307.301 468.109 307.751 468.405 308.138C468.712 308.526 469.071 308.85 469.481 309.112C469.892 309.374 470.347 309.574 470.849 309.71C471.35 309.836 471.857 309.898 472.37 309.898C472.882 309.898 473.367 309.87 473.822 309.813C474.289 309.745 474.739 309.659 475.172 309.557C475.605 309.443 476.027 309.317 476.437 309.181C476.847 309.033 477.263 308.879 477.685 308.719L479.564 312.223C478.915 312.621 478.317 312.963 477.77 313.248C477.235 313.521 476.693 313.749 476.146 313.932C475.6 314.114 475.019 314.245 474.403 314.325C473.788 314.416 473.07 314.461 472.25 314.461C470.712 314.461 469.345 314.211 468.148 313.709C466.952 313.197 465.944 312.507 465.124 311.642C464.315 310.776 463.694 309.762 463.261 308.6C462.839 307.438 462.628 306.207 462.628 304.908C462.628 303.609 462.851 302.39 463.295 301.251C463.751 300.112 464.389 299.12 465.209 298.277C466.029 297.423 467.009 296.751 468.148 296.261C469.288 295.771 470.552 295.526 471.942 295.526C473.332 295.526 474.563 295.759 475.634 296.227C476.716 296.682 477.628 297.32 478.368 298.141C479.109 298.95 479.678 299.907 480.077 301.012C480.476 302.105 480.692 303.285 480.727 304.549C480.761 304.834 480.778 305.119 480.778 305.404C480.789 305.677 480.784 305.962 480.761 306.258H467.721ZM471.806 299.798C471.168 299.798 470.621 299.878 470.165 300.038C469.721 300.186 469.345 300.396 469.037 300.67C468.729 300.932 468.485 301.234 468.302 301.576C468.12 301.917 467.978 302.276 467.875 302.652H475.275C475.195 302.265 475.081 301.9 474.933 301.559C474.785 301.217 474.58 300.915 474.318 300.653C474.056 300.391 473.72 300.186 473.31 300.038C472.911 299.878 472.41 299.798 471.806 299.798Z" fill="#8C0031"/>
<path d="M125.47 88.62L146.15 29.22L160.23 26.69L184.98 92.69V95H164.96L157.15 73.33H137.57L132.29 88.62H144.17V95H118.1V88.62H125.47ZM139.77 66.95H154.84L147.25 45.72L139.77 66.95ZM184.972 47.59H191.462L208.072 44.4V51.44C208.146 51.22 208.402 50.78 208.842 50.12C209.356 49.3867 210.126 48.6533 211.152 47.92C212.252 47.1133 213.646 46.4167 215.332 45.83C217.092 45.17 219.292 44.84 221.932 44.84C223.546 44.84 224.792 44.8767 225.672 44.95C226.626 45.0233 227.359 45.0967 227.872 45.17C228.459 45.2433 228.826 45.3167 228.972 45.39V66.62C226.332 66.62 224.132 66.1067 222.372 65.08C220.612 64.0533 219.182 62.77 218.082 61.23C216.982 59.69 216.139 58.0767 215.552 56.39C214.966 54.7033 214.562 53.2 214.342 51.88C213.682 52.2467 213.059 52.76 212.472 53.42C211.886 54.0067 211.336 54.6667 210.822 55.4C210.382 56.06 209.979 56.72 209.612 57.38C209.246 57.9667 208.989 58.4433 208.842 58.81V89.39H215.332V95H184.972V89.39H191.462V53.09H184.972V47.59ZM243.637 68.82H238.577V89.39H245.067V95H214.707V89.39H221.197V32.85H214.707V27.35H221.197L238.577 24.16V62.88H246.167C249.613 62.88 252.033 62.4767 253.427 61.67C254.893 60.79 255.627 58.9933 255.627 56.28V51.22H246.827V45.61H273.007V51.22H262.557V57.71C262.557 60.7167 261.75 63.1367 260.137 64.97L270.917 89.5H272.237C272.823 89.5 273.41 89.4633 273.997 89.39C274.657 89.3167 275.353 89.2433 276.087 89.17V94.45C275.207 94.67 274.143 94.8533 272.897 95C271.87 95.1467 270.55 95.2567 268.937 95.33C267.323 95.4033 265.417 95.44 263.217 95.44C261.53 95.44 260.1 95.2933 258.927 95C257.753 94.7067 256.763 94.3033 255.957 93.79C255.15 93.2033 254.453 92.5433 253.867 91.81C253.353 91.0033 252.877 90.0867 252.437 89.06L243.637 68.82ZM319.356 89.5H320.786C321.446 89.5 322.106 89.4633 322.766 89.39L325.186 89.17V94.45C323.866 94.67 322.583 94.8533 321.336 95C320.31 95.1467 319.21 95.2567 318.036 95.33C316.863 95.4033 315.91 95.44 315.176 95.44C311.583 95.44 308.87 94.78 307.036 93.46C305.203 92.14 303.883 90.71 303.076 89.17C301.463 91.2233 299.593 92.8733 297.466 94.12C295.413 95.2933 293.03 95.88 290.316 95.88C285.33 95.88 281.626 94.9633 279.206 93.13C276.786 91.2233 275.576 87.96 275.576 83.34C275.576 81.7267 275.576 80.1867 275.576 78.72C275.65 77.2533 275.76 75.97 275.906 74.87C276.053 73.55 276.2 72.3767 276.346 71.35L301.866 65.08C301.793 62.9533 301.72 61.01 301.646 59.25C301.573 57.4167 301.5 55.8767 301.426 54.63C301.28 53.1633 301.17 51.8433 301.096 50.67C300.876 50.5967 300.546 50.5233 300.106 50.45C299.74 50.3767 299.19 50.3033 298.456 50.23C297.723 50.1567 296.843 50.12 295.816 50.12C295.156 50.12 294.533 50.1567 293.946 50.23C293.36 50.23 292.773 50.2667 292.186 50.34C291.966 51.3667 291.6 52.6133 291.086 54.08C290.573 55.4733 289.766 56.83 288.666 58.15C287.566 59.3967 286.1 60.4967 284.266 61.45C282.506 62.33 280.233 62.77 277.446 62.77V46.16C279.793 45.94 282.176 45.72 284.596 45.5C286.723 45.3533 288.996 45.2067 291.416 45.06C293.836 44.9133 296.183 44.84 298.456 44.84C303.223 44.84 306.963 45.2433 309.676 46.05C312.463 46.8567 314.553 48.25 315.946 50.23C317.413 52.21 318.33 54.85 318.696 58.15C319.136 61.45 319.356 65.5567 319.356 70.47V89.5ZM293.836 89.94C295.303 89.5733 296.696 88.6567 298.016 87.19C299.41 85.65 300.73 83.8167 301.976 81.69V70.03L293.616 72.34C293.47 73.5133 293.36 74.7233 293.286 75.97C293.213 77.1433 293.176 78.3167 293.176 79.49C293.176 80.9567 293.176 82.3133 293.176 83.56C293.25 84.8067 293.36 85.9067 293.506 86.86C293.58 87.96 293.69 88.9867 293.836 89.94ZM325.695 47.59H332.185L348.795 44.4V52.1C348.942 51.88 349.345 51.3667 350.005 50.56C350.665 49.7533 351.655 48.9467 352.975 48.14C354.295 47.26 356.018 46.49 358.145 45.83C360.272 45.17 362.875 44.84 365.955 44.84C367.642 44.84 369.328 44.9867 371.015 45.28C372.775 45.5733 374.352 46.1233 375.745 46.93C377.212 47.6633 378.385 48.69 379.265 50.01C380.145 51.33 380.585 53.0533 380.585 55.18V89.39H387.075V95H363.205V51.66C363.058 51.66 362.838 51.6233 362.545 51.55C361.958 51.4033 361.152 51.33 360.125 51.33C358.585 51.33 357.192 51.66 355.945 52.32C354.772 52.9067 353.745 53.6033 352.865 54.41C351.985 55.2167 351.252 56.06 350.665 56.94C350.152 57.7467 349.785 58.37 349.565 58.81V89.39H356.055V95H325.695V89.39H332.185V53.09H325.695V47.59ZM411.554 45.06C413.241 45.06 414.781 45.2067 416.174 45.5C417.568 45.72 418.814 46.0133 419.914 46.38L427.284 44.73V61.67C424.498 61.67 422.188 61.2667 420.354 60.46C418.594 59.58 417.164 58.5533 416.064 57.38C414.964 56.1333 414.121 54.85 413.534 53.53C413.021 52.1367 412.654 50.9633 412.434 50.01H411.554C410.894 50.01 410.308 50.0467 409.794 50.12C409.354 50.12 408.951 50.1567 408.584 50.23C408.218 50.3033 407.924 50.3767 407.704 50.45C407.484 50.7433 407.301 51.11 407.154 51.55C407.008 51.9167 406.898 52.43 406.824 53.09C406.751 53.75 406.714 54.52 406.714 55.4C406.714 56.7933 406.861 57.93 407.154 58.81C407.448 59.69 407.888 60.4233 408.474 61.01C409.134 61.5967 409.978 62.0733 411.004 62.44C412.031 62.8067 413.314 63.21 414.854 63.65C416.834 64.1633 418.778 64.8233 420.684 65.63C422.664 66.3633 424.424 67.3533 425.964 68.6C427.504 69.8467 428.751 71.4233 429.704 73.33C430.731 75.1633 431.244 77.4 431.244 80.04C431.244 82.9733 430.731 85.4667 429.704 87.52C428.678 89.5 427.211 91.1133 425.304 92.36C423.471 93.6067 421.161 94.4867 418.374 95C415.661 95.5867 412.618 95.88 409.244 95.88C406.458 95.88 404.111 95.7333 402.204 95.44C400.371 95.22 398.904 94.9267 397.804 94.56L390.214 96.21V78.17C392.928 78.17 395.201 78.6467 397.034 79.6C398.868 80.5533 400.334 81.69 401.434 83.01C402.534 84.33 403.341 85.7233 403.854 87.19C404.368 88.5833 404.734 89.7933 404.954 90.82C405.394 90.8933 405.798 90.93 406.164 90.93H409.354C410.014 90.93 410.601 90.8933 411.114 90.82C411.701 90.7467 412.251 90.6733 412.764 90.6C412.911 90.3067 413.058 89.9033 413.204 89.39C413.351 88.95 413.461 88.3633 413.534 87.63C413.681 86.8967 413.754 86.0167 413.754 84.99C413.754 82.8633 413.131 81.1767 411.884 79.93C410.711 78.6833 409.208 77.6567 407.374 76.85C405.541 75.97 403.561 75.1633 401.434 74.43C399.381 73.6233 397.438 72.67 395.604 71.57C393.771 70.3967 392.231 68.8933 390.984 67.06C389.811 65.1533 389.224 62.6233 389.224 59.47C389.224 57.27 389.591 55.29 390.324 53.53C391.131 51.6967 392.378 50.1567 394.064 48.91C395.824 47.6633 398.134 46.71 400.994 46.05C403.854 45.39 407.374 45.06 411.554 45.06ZM479.428 89.5H480.858C481.518 89.5 482.178 89.4633 482.838 89.39L485.258 89.17V94.45C483.938 94.67 482.654 94.8533 481.408 95C480.381 95.1467 479.281 95.2567 478.108 95.33C476.934 95.4033 475.981 95.44 475.248 95.44C471.654 95.44 468.941 94.78 467.108 93.46C465.274 92.14 463.954 90.71 463.148 89.17C461.534 91.2233 459.664 92.8733 457.538 94.12C455.484 95.2933 453.101 95.88 450.388 95.88C445.401 95.88 441.698 94.9633 439.278 93.13C436.858 91.2233 435.648 87.96 435.648 83.34C435.648 81.7267 435.648 80.1867 435.648 78.72C435.721 77.2533 435.831 75.97 435.978 74.87C436.124 73.55 436.271 72.3767 436.418 71.35L461.938 65.08C461.864 62.9533 461.791 61.01 461.718 59.25C461.644 57.4167 461.571 55.8767 461.498 54.63C461.351 53.1633 461.241 51.8433 461.168 50.67C460.948 50.5967 460.618 50.5233 460.178 50.45C459.811 50.3767 459.261 50.3033 458.528 50.23C457.794 50.1567 456.914 50.12 455.888 50.12C455.228 50.12 454.604 50.1567 454.018 50.23C453.431 50.23 452.844 50.2667 452.258 50.34C452.038 51.3667 451.671 52.6133 451.158 54.08C450.644 55.4733 449.838 56.83 448.738 58.15C447.638 59.3967 446.171 60.4967 444.338 61.45C442.578 62.33 440.304 62.77 437.518 62.77V46.16C439.864 45.94 442.248 45.72 444.668 45.5C446.794 45.3533 449.068 45.2067 451.488 45.06C453.908 44.9133 456.254 44.84 458.528 44.84C463.294 44.84 467.034 45.2433 469.748 46.05C472.534 46.8567 474.624 48.25 476.018 50.23C477.484 52.21 478.401 54.85 478.768 58.15C479.208 61.45 479.428 65.5567 479.428 70.47V89.5ZM453.908 89.94C455.374 89.5733 456.768 88.6567 458.088 87.19C459.481 85.65 460.801 83.8167 462.048 81.69V70.03L453.688 72.34C453.541 73.5133 453.431 74.7233 453.358 75.97C453.284 77.1433 453.248 78.3167 453.248 79.49C453.248 80.9567 453.248 82.3133 453.248 83.56C453.321 84.8067 453.431 85.9067 453.578 86.86C453.651 87.96 453.761 88.9867 453.908 89.94ZM509.746 45.06C511.433 45.06 512.973 45.2067 514.366 45.5C515.76 45.72 517.006 46.0133 518.106 46.38L525.476 44.73V61.67C522.69 61.67 520.38 61.2667 518.546 60.46C516.786 59.58 515.356 58.5533 514.256 57.38C513.156 56.1333 512.313 54.85 511.726 53.53C511.213 52.1367 510.846 50.9633 510.626 50.01H509.746C509.086 50.01 508.5 50.0467 507.986 50.12C507.546 50.12 507.143 50.1567 506.776 50.23C506.41 50.3033 506.116 50.3767 505.896 50.45C505.676 50.7433 505.493 51.11 505.346 51.55C505.2 51.9167 505.09 52.43 505.016 53.09C504.943 53.75 504.906 54.52 504.906 55.4C504.906 56.7933 505.053 57.93 505.346 58.81C505.64 59.69 506.08 60.4233 506.666 61.01C507.326 61.5967 508.17 62.0733 509.196 62.44C510.223 62.8067 511.506 63.21 513.046 63.65C515.026 64.1633 516.97 64.8233 518.876 65.63C520.856 66.3633 522.616 67.3533 524.156 68.6C525.696 69.8467 526.943 71.4233 527.896 73.33C528.923 75.1633 529.436 77.4 529.436 80.04C529.436 82.9733 528.923 85.4667 527.896 87.52C526.87 89.5 525.403 91.1133 523.496 92.36C521.663 93.6067 519.353 94.4867 516.566 95C513.853 95.5867 510.81 95.88 507.436 95.88C504.65 95.88 502.303 95.7333 500.396 95.44C498.563 95.22 497.096 94.9267 495.996 94.56L488.406 96.21V78.17C491.12 78.17 493.393 78.6467 495.226 79.6C497.06 80.5533 498.526 81.69 499.626 83.01C500.726 84.33 501.533 85.7233 502.046 87.19C502.56 88.5833 502.926 89.7933 503.146 90.82C503.586 90.8933 503.99 90.93 504.356 90.93H507.546C508.206 90.93 508.793 90.8933 509.306 90.82C509.893 90.7467 510.443 90.6733 510.956 90.6C511.103 90.3067 511.25 89.9033 511.396 89.39C511.543 88.95 511.653 88.3633 511.726 87.63C511.873 86.8967 511.946 86.0167 511.946 84.99C511.946 82.8633 511.323 81.1767 510.076 79.93C508.903 78.6833 507.4 77.6567 505.566 76.85C503.733 75.97 501.753 75.1633 499.626 74.43C497.573 73.6233 495.63 72.67 493.796 71.57C491.963 70.3967 490.423 68.8933 489.176 67.06C488.003 65.1533 487.416 62.6233 487.416 59.47C487.416 57.27 487.783 55.29 488.516 53.53C489.323 51.6967 490.57 50.1567 492.256 48.91C494.016 47.6633 496.326 46.71 499.186 46.05C502.046 45.39 505.566 45.06 509.746 45.06Z" fill="#8C0031"/>
<path d="M382.924 124H261.464L211 166.321L327.936 269L440 166.321L382.924 124Z" fill="#F4F3F4"/>
<defs>
<linearGradient id="paint0_linear_1048_147" x1="324.5" y1="6" x2="324.5" y2="354" gradientUnits="userSpaceOnUse">
<stop stop-color="#C3EBEB"/>
<stop offset="1" stop-color="#CCFFFF" stop-opacity="0"/>
</linearGradient>
</defs>
</svg>
