<svg width="649" height="348" viewBox="0 0 649 348" fill="none" xmlns="http://www.w3.org/2000/svg">
<rect width="649" height="348" rx="41" fill="#F9F9F9"/>
<path d="M240.297 63.5391V66.0781C235.922 70.9479 231.898 74.9583 228.227 78.1094C224.581 81.2865 221.013 83.7214 217.523 85.4141C214.034 87.1328 210.661 87.9922 207.406 87.9922C204.594 87.9922 202.172 87.4323 200.141 86.3125C198.135 85.1927 196.612 83.5521 195.57 81.3906C194.555 79.2552 194.047 76.7161 194.047 73.7734C194.047 71.4557 194.411 69.0078 195.141 66.4297C195.896 63.8255 196.977 61.2083 198.383 58.5781C199.789 55.9219 201.508 53.1875 203.539 50.375C205.596 47.5625 208.005 44.6068 210.766 41.5078C213.63 38.3047 216.456 35.5443 219.242 33.2266C222.029 30.8828 224.555 29.0469 226.82 27.7188C229.086 26.3906 231.182 25.401 233.109 24.75C235.062 24.099 236.677 23.7734 237.953 23.7734C239.255 23.7734 240.362 24.0859 241.273 24.7109C242.185 25.3359 242.888 26.2474 243.383 27.4453C243.878 28.6432 244.125 30.0234 244.125 31.5859C244.125 34.5286 243.122 37.8099 241.117 41.4297C239.112 45.0234 236.612 48.5 233.617 51.8594C230.622 55.2188 227.758 57.9661 225.023 60.1016C222.315 62.2109 220.362 63.2656 219.164 63.2656C218.357 63.2656 217.602 62.9531 216.898 62.3281C216.221 61.6771 215.883 60.9479 215.883 60.1406C215.883 58.6562 216.664 56.8594 218.227 54.75C219.815 52.6406 221.534 50.7135 223.383 48.9688C225.258 47.1979 226.378 46.3125 226.742 46.3125C226.924 46.3125 227.016 46.3906 227.016 46.5469C227.016 46.7812 226.872 47.1849 226.586 47.7578C226.326 48.3307 226.195 48.6823 226.195 48.8125C226.195 49.0208 226.273 49.125 226.43 49.125C226.872 49.125 228.148 47.9401 230.258 45.5703C232.367 43.2005 234.294 40.5964 236.039 37.7578C237.81 34.8932 238.695 32.5495 238.695 30.7266C238.695 29.9714 238.526 29.3984 238.188 29.0078C237.875 28.5911 237.393 28.3828 236.742 28.3828C234.919 28.3828 232.146 29.8672 228.422 32.8359C224.724 35.7786 220.922 39.5417 217.016 44.125C213.135 48.6823 209.893 53.3958 207.289 58.2656C204.685 63.1354 203.383 67.4193 203.383 71.1172C203.383 73.2526 203.695 75.0365 204.32 76.4688C204.971 77.901 205.909 79.0078 207.133 79.7891C208.383 80.5703 209.88 80.9609 211.625 80.9609C215.401 80.9609 219.685 79.4896 224.477 76.5469C229.268 73.6042 234.542 69.2682 240.297 63.5391ZM244.555 56.7031C248.513 53.1094 252.354 50.4401 256.078 48.6953C259.802 46.9505 262.68 46.0781 264.711 46.0781C265.258 46.0781 265.766 46.3125 266.234 46.7812C266.703 47.224 267.068 47.7448 267.328 48.3438C267.615 48.9427 267.758 49.3854 267.758 49.6719C267.758 50.1406 267.576 50.4922 267.211 50.7266C266.846 50.9349 266.208 51.1953 265.297 51.5078C265.479 51.9245 265.714 52.4583 266 53.1094C266.286 53.7604 266.508 54.2943 266.664 54.7109C266.82 55.1016 266.898 55.4531 266.898 55.7656C266.898 56.3906 266.26 57.5625 264.984 59.2812C263.734 60.974 262.849 62.224 262.328 63.0312C261.833 63.8385 261.586 64.8281 261.586 66C261.586 67.9271 262.471 68.8906 264.242 68.8906C266.065 68.8906 268.917 67.1849 272.797 63.7734V66.1562C266.208 73.474 261.495 77.1328 258.656 77.1328C257.641 77.1328 256.911 76.7943 256.469 76.1172C256.052 75.4661 255.844 74.4896 255.844 73.1875C255.844 71.1302 256.586 68.1484 258.07 64.2422C254.268 68.4609 251.443 71.4688 249.594 73.2656C247.745 75.0365 246.221 75.9219 245.023 75.9219C244.451 75.9219 243.734 75.4271 242.875 74.4375C242.016 73.4479 241.247 72.1719 240.57 70.6094C239.919 69.0208 239.594 67.3802 239.594 65.6875C239.594 64.4635 239.711 63.4479 239.945 62.6406C240.18 61.8073 240.635 60.9609 241.312 60.1016C241.99 59.2422 243.07 58.1094 244.555 56.7031ZM263.266 52.4062C256.495 55.5052 251.664 58.1354 248.773 60.2969C245.909 62.4583 244.477 64.6849 244.477 66.9766C244.477 67.8099 244.62 68.5 244.906 69.0469C245.193 69.5677 245.583 69.8281 246.078 69.8281C246.365 69.8281 246.872 69.6458 247.602 69.2812C250.336 67.6667 252.836 65.5703 255.102 62.9922C257.367 60.388 260.089 56.8594 263.266 52.4062ZM291.156 63.2656V66.1562C285.714 73.3698 281.286 76.9766 277.875 76.9766C276.026 76.9766 274.568 75.974 273.5 73.9688C272.458 71.9375 271.938 69.2812 271.938 66C271.938 63.3438 272.562 60.1927 273.812 56.5469C275.062 52.875 276.729 49.1641 278.812 45.4141C280.922 41.638 283.096 38.3568 285.336 35.5703C287.602 32.7578 289.698 30.7917 291.625 29.6719C292.406 29.2031 293.018 28.9688 293.461 28.9688C294.008 28.9688 294.372 29.2161 294.555 29.7109C294.737 30.1797 294.828 31 294.828 32.1719C294.828 35.7917 293.357 40.2448 290.414 45.5312C287.471 50.7917 283.37 56.1693 278.109 61.6641C277.849 63.0182 277.719 64.0599 277.719 64.7891C277.719 66.4557 278.07 67.8099 278.773 68.8516C279.503 69.8932 280.505 70.4141 281.781 70.4141C282.432 70.4141 283.135 70.1667 283.891 69.6719C284.646 69.151 285.44 68.513 286.273 67.7578C287.107 67.0026 288.734 65.5052 291.156 63.2656ZM279.477 56.2344C280.831 54.9062 282.133 53.3958 283.383 51.7031C284.659 50.0104 285.857 48.2005 286.977 46.2734C288.096 44.3464 288.969 42.6146 289.594 41.0781C290.245 39.5417 290.57 38.3828 290.57 37.6016C290.57 37.0026 290.362 36.7031 289.945 36.7031C289.789 36.7031 289.49 36.8464 289.047 37.1328C287.458 38.4349 285.674 40.987 283.695 44.7891C281.716 48.5651 280.31 52.3802 279.477 56.2344ZM306.859 46.2344C306.208 46.2344 305.583 45.987 304.984 45.4922C304.411 44.9974 304.125 44.3724 304.125 43.6172C304.125 42.4714 304.672 41.1953 305.766 39.7891C306.859 38.3828 307.992 37.6797 309.164 37.6797C309.945 37.6797 310.596 37.9271 311.117 38.4219C311.638 38.8906 311.898 39.5807 311.898 40.4922C311.898 41.612 311.365 42.849 310.297 44.2031C309.229 45.5573 308.083 46.2344 306.859 46.2344ZM309.516 63.6953V66.5469C306.99 69.8021 304.633 72.263 302.445 73.9297C300.258 75.5703 298.396 76.3906 296.859 76.3906C294.724 76.3906 293.135 75.2708 292.094 73.0312C291.052 70.7917 290.531 68.3438 290.531 65.6875C290.531 64.6719 290.635 63.7083 290.844 62.7969C291.052 61.8594 291.299 61.0911 291.586 60.4922C291.872 59.8932 292.406 58.9557 293.188 57.6797C296.885 51.9245 300.271 49.0469 303.344 49.0469C304.932 49.0469 305.727 49.6589 305.727 50.8828C305.727 51.7161 305.206 53.0182 304.164 54.7891C303.148 56.5599 302.237 57.8229 301.43 58.5781C299.164 60.7656 297.68 62.2891 296.977 63.1484C296.299 64.0078 295.961 64.9844 295.961 66.0781C295.961 67.0156 296.312 67.7969 297.016 68.4219C297.719 69.0469 298.63 69.3594 299.75 69.3594C300.974 69.3594 302.315 68.9167 303.773 68.0312C305.258 67.1198 307.172 65.6745 309.516 63.6953ZM330.961 63.6953V66.3906C329.398 67.9531 328.214 69.0859 327.406 69.7891C326.599 70.4922 325.492 71.2083 324.086 71.9375C324.086 74.3073 323.969 76.3255 323.734 77.9922C323.5 79.6589 322.979 81.4036 322.172 83.2266C321.365 85.0755 320.115 87.0938 318.422 89.2812C316.755 91.4427 315.115 93.0964 313.5 94.2422C311.885 95.4141 310.622 96 309.711 96C308.695 96 307.758 95.1667 306.898 93.5C306.039 91.8333 305.609 89.763 305.609 87.2891C305.609 84.9193 306.013 82.4193 306.82 79.7891C307.628 77.1589 308.878 73.7604 310.57 69.5938C309.294 67.9271 308.656 66.2734 308.656 64.6328C308.656 63.3047 308.995 62.2891 309.672 61.5859C310.349 60.8828 311.312 60.2448 312.562 59.6719C313.474 58.2396 314.333 57.0286 315.141 56.0391C315.974 55.0234 317.094 53.6823 318.5 52.0156C321.208 45.349 324.385 38.8385 328.031 32.4844C329.047 30.7135 329.776 29.5286 330.219 28.9297C330.661 28.3047 331.13 27.9922 331.625 27.9922C332.068 27.9922 332.458 28.3177 332.797 28.9688C333.135 29.6198 333.305 30.4661 333.305 31.5078C333.305 32.7839 333.161 33.9557 332.875 35.0234C332.615 36.0911 332.224 37.1719 331.703 38.2656C331.208 39.3333 330.505 40.6224 329.594 42.1328C328.708 43.6432 328.161 44.5807 327.953 44.9453C326.651 47.237 325.18 49.776 323.539 52.5625C321.898 55.349 320.596 57.5495 319.633 59.1641C318.695 60.7786 318.018 61.9896 317.602 62.7969C319.008 64.0208 320.115 65.0755 320.922 65.9609C321.755 66.8464 322.471 67.901 323.07 69.125C323.956 68.7865 324.763 68.3828 325.492 67.9141C326.221 67.4453 327.081 66.8073 328.07 66C329.06 65.1667 330.023 64.3984 330.961 63.6953ZM319.281 74.1641L319.203 73.3438C318.474 73.4219 317.888 73.4479 317.445 73.4219C317.003 73.3698 316.482 73.2526 315.883 73.0703C315.31 72.888 314.854 72.7188 314.516 72.5625C314.203 72.4062 313.852 72.25 313.461 72.0938C311.482 76.9375 310.492 80.9609 310.492 84.1641C310.492 85.7526 310.727 87.1068 311.195 88.2266C311.69 89.3464 312.263 89.9062 312.914 89.9062C313.591 89.9062 314.438 89.3073 315.453 88.1094C316.495 86.9115 317.393 85.1406 318.148 82.7969C318.904 80.4531 319.281 77.5755 319.281 74.1641ZM356.039 63.6172V66.2344C354.32 67.7969 352.94 68.8385 351.898 69.3594C350.857 69.8802 349.359 70.0885 347.406 69.9844C344.021 73.9948 341.039 76 338.461 76C337.003 76 335.674 75.5182 334.477 74.5547C333.279 73.5911 332.315 72.276 331.586 70.6094C330.883 68.9427 330.531 67.0807 330.531 65.0234C330.531 63.3568 331.078 61.5078 332.172 59.4766C333.292 57.4453 334.724 55.5573 336.469 53.8125C338.24 52.0417 340.128 50.6224 342.133 49.5547C344.138 48.4609 346 47.9141 347.719 47.9141C348.943 47.9141 349.906 48.1094 350.609 48.5C351.312 48.8646 351.664 49.3854 351.664 50.0625C351.664 50.5833 351.365 51.1823 350.766 51.8594C351.755 52.0677 352.432 52.4193 352.797 52.9141C353.161 53.3828 353.344 54.2552 353.344 55.5312C353.344 56.7812 353.044 58.3568 352.445 60.2578C351.872 62.1589 351.078 63.9427 350.062 65.6094L350.766 66.3125H351.352C351.794 66.3125 352.224 66.2083 352.641 66C353.083 65.7656 353.474 65.5312 353.812 65.2969C354.151 65.0365 354.893 64.4766 356.039 63.6172ZM347.992 53.3438C345.831 54.6458 343.982 55.8307 342.445 56.8984C340.909 57.9401 339.607 59.0078 338.539 60.1016C337.471 61.1693 336.755 62.25 336.391 63.3438C335.74 66.2604 335.414 67.8359 335.414 68.0703C335.414 69.7891 336.612 70.6484 339.008 70.6484C340.128 70.6484 342.003 69.6849 344.633 67.7578C344.19 66.5339 343.969 65.362 343.969 64.2422C343.969 62.6016 344.307 60.9349 344.984 59.2422C345.661 57.5234 346.664 55.5573 347.992 53.3438ZM355.609 66.7031V64.1641C357.016 62.4974 358.083 61.0781 358.812 59.9062C357.979 59.6198 357.367 59.2682 356.977 58.8516C356.612 58.4349 356.43 57.8099 356.43 56.9766C356.43 56.0391 356.82 54.8542 357.602 53.4219C358.383 51.9896 359.346 50.6484 360.492 49.3984C361.638 48.1484 362.68 47.3411 363.617 46.9766C363.982 46.7943 364.333 46.7031 364.672 46.7031C365.193 46.7031 365.453 46.9505 365.453 47.4453C365.453 47.888 365.049 48.7865 364.242 50.1406C369.607 49.3073 372.992 48.8906 374.398 48.8906C374.945 48.8906 375.323 48.9427 375.531 49.0469C375.974 49.2812 376.339 49.8281 376.625 50.6875C376.911 51.5469 377.055 52.4062 377.055 53.2656C377.055 53.8125 376.807 54.4115 376.312 55.0625C375.844 55.6875 375.023 56.612 373.852 57.8359C372.471 59.3203 371.312 60.9349 370.375 62.6797C369.438 64.4245 368.969 65.7396 368.969 66.625C368.969 67.849 369.724 68.4609 371.234 68.4609C372.823 68.4609 375.583 66.8464 379.516 63.6172V66.2344C377.354 68.5 375.57 70.2839 374.164 71.5859C372.758 72.888 371.456 73.9297 370.258 74.7109C369.06 75.4661 367.992 75.8438 367.055 75.8438C365.961 75.8438 365.049 75.349 364.32 74.3594C363.591 73.3438 363.227 71.8854 363.227 69.9844C363.227 68.8646 363.513 67.5885 364.086 66.1562C364.659 64.724 365.492 63.1745 366.586 61.5078C367.706 59.8151 368.956 58.1354 370.336 56.4688C369.607 56.625 368.786 56.7943 367.875 56.9766C366.964 57.1328 366 57.3021 364.984 57.4844C363.969 57.6667 363.188 57.8099 362.641 57.9141C361.026 61.1432 358.682 64.0729 355.609 66.7031ZM405.688 56.625C401.104 61.7292 398.812 65.2839 398.812 67.2891C398.812 68.4089 399.268 68.9688 400.18 68.9688C400.935 68.9688 401.911 68.5781 403.109 67.7969C404.333 66.9896 406.234 65.5703 408.812 63.5391V66.2344C405.115 69.8802 402.276 72.5104 400.297 74.125C398.318 75.7396 396.703 76.5469 395.453 76.5469C393.318 76.5469 392.25 75.1406 392.25 72.3281C392.25 71.4948 392.38 70.6745 392.641 69.8672C392.901 69.0599 393.253 68.2266 393.695 67.3672C394.164 66.4818 394.867 65.2318 395.805 63.6172C396.742 61.9766 397.823 60.1276 399.047 58.0703C397.562 58.8255 395.701 60.3229 393.461 62.5625C392.003 63.9688 390.766 65.3099 389.75 66.5859C388.734 67.8359 387.641 69.2422 386.469 70.8047C385.323 72.3411 384.477 73.3828 383.93 73.9297C383.409 74.4505 382.875 74.7109 382.328 74.7109C381.495 74.7109 380.727 73.8385 380.023 72.0938C379.32 70.349 378.969 68.3177 378.969 66C378.969 64.5677 379.125 63.4479 379.438 62.6406C379.776 61.8333 380.427 60.6875 381.391 59.2031C383.188 56.4427 384.737 54.4245 386.039 53.1484C387.341 51.8464 388.591 51.1953 389.789 51.1953C390.622 51.1953 391.286 51.3385 391.781 51.625C392.302 51.9115 392.562 52.3542 392.562 52.9531C392.562 53.2135 392.484 53.487 392.328 53.7734C392.172 54.0599 391.99 54.3203 391.781 54.5547C391.599 54.7891 391.195 55.2448 390.57 55.9219C386.456 60.4792 384.398 63.4349 384.398 64.7891C384.398 65.5443 384.646 65.9219 385.141 65.9219C385.453 65.9219 386.052 65.4271 386.938 64.4375C387.849 63.4219 389.008 62.1068 390.414 60.4922C391.846 58.8516 393.526 57.1458 395.453 55.375C397.406 53.6042 399.62 51.8984 402.094 50.2578C403.474 49.2943 404.62 48.8125 405.531 48.8125C405.948 48.8125 406.352 49.3854 406.742 50.5312C407.159 51.6771 407.367 52.8359 407.367 54.0078C407.367 54.5807 406.807 55.4531 405.688 56.625ZM424.594 46.2344C423.943 46.2344 423.318 45.987 422.719 45.4922C422.146 44.9974 421.859 44.3724 421.859 43.6172C421.859 42.4714 422.406 41.1953 423.5 39.7891C424.594 38.3828 425.727 37.6797 426.898 37.6797C427.68 37.6797 428.331 37.9271 428.852 38.4219C429.372 38.8906 429.633 39.5807 429.633 40.4922C429.633 41.612 429.099 42.849 428.031 44.2031C426.964 45.5573 425.818 46.2344 424.594 46.2344ZM427.25 63.6953V66.5469C424.724 69.8021 422.367 72.263 420.18 73.9297C417.992 75.5703 416.13 76.3906 414.594 76.3906C412.458 76.3906 410.87 75.2708 409.828 73.0312C408.786 70.7917 408.266 68.3438 408.266 65.6875C408.266 64.6719 408.37 63.7083 408.578 62.7969C408.786 61.8594 409.034 61.0911 409.32 60.4922C409.607 59.8932 410.141 58.9557 410.922 57.6797C414.62 51.9245 418.005 49.0469 421.078 49.0469C422.667 49.0469 423.461 49.6589 423.461 50.8828C423.461 51.7161 422.94 53.0182 421.898 54.7891C420.883 56.5599 419.971 57.8229 419.164 58.5781C416.898 60.7656 415.414 62.2891 414.711 63.1484C414.034 64.0078 413.695 64.9844 413.695 66.0781C413.695 67.0156 414.047 67.7969 414.75 68.4219C415.453 69.0469 416.365 69.3594 417.484 69.3594C418.708 69.3594 420.049 68.9167 421.508 68.0312C422.992 67.1198 424.906 65.6745 427.25 63.6953ZM431.508 56.7031C435.466 53.1094 439.307 50.4401 443.031 48.6953C446.755 46.9505 449.633 46.0781 451.664 46.0781C452.211 46.0781 452.719 46.3125 453.188 46.7812C453.656 47.224 454.021 47.7448 454.281 48.3438C454.568 48.9427 454.711 49.3854 454.711 49.6719C454.711 50.1406 454.529 50.4922 454.164 50.7266C453.799 50.9349 453.161 51.1953 452.25 51.5078C452.432 51.9245 452.667 52.4583 452.953 53.1094C453.24 53.7604 453.461 54.2943 453.617 54.7109C453.773 55.1016 453.852 55.4531 453.852 55.7656C453.852 56.3906 453.214 57.5625 451.938 59.2812C450.688 60.974 449.802 62.224 449.281 63.0312C448.786 63.8385 448.539 64.8281 448.539 66C448.539 67.9271 449.424 68.8906 451.195 68.8906C453.018 68.8906 455.87 67.1849 459.75 63.7734V66.1562C453.161 73.474 448.448 77.1328 445.609 77.1328C444.594 77.1328 443.865 76.7943 443.422 76.1172C443.005 75.4661 442.797 74.4896 442.797 73.1875C442.797 71.1302 443.539 68.1484 445.023 64.2422C441.221 68.4609 438.396 71.4688 436.547 73.2656C434.698 75.0365 433.174 75.9219 431.977 75.9219C431.404 75.9219 430.688 75.4271 429.828 74.4375C428.969 73.4479 428.201 72.1719 427.523 70.6094C426.872 69.0208 426.547 67.3802 426.547 65.6875C426.547 64.4635 426.664 63.4479 426.898 62.6406C427.133 61.8073 427.589 60.9609 428.266 60.1016C428.943 59.2422 430.023 58.1094 431.508 56.7031ZM450.219 52.4062C443.448 55.5052 438.617 58.1354 435.727 60.2969C432.862 62.4583 431.43 64.6849 431.43 66.9766C431.43 67.8099 431.573 68.5 431.859 69.0469C432.146 69.5677 432.536 69.8281 433.031 69.8281C433.318 69.8281 433.826 69.6458 434.555 69.2812C437.289 67.6667 439.789 65.5703 442.055 62.9922C444.32 60.388 447.042 56.8594 450.219 52.4062Z" fill="#F61305"/>
</svg>
