<svg width="649" height="348" viewBox="0 0 649 348" fill="none" xmlns="http://www.w3.org/2000/svg">
<rect width="649" height="348" rx="41" fill="#1B582C"/>
<path fill-rule="evenodd" clip-rule="evenodd" d="M54 336.29H596C617.291 336.29 634.792 320.061 636.807 299.298C636.871 297.996 636.935 296.684 637 295.364C637 295.339 637 295.315 637 295.29V102.056C624.405 90.5279 596.937 68.4316 590.953 68.4316C589.266 68.4316 587.44 68.6384 585.534 68.8542C578.97 69.5976 571.46 70.4482 565.382 63.3264C557.54 54.1369 547.653 59.9228 542.88 68.4316C538.106 76.9405 530.606 82.0458 520.377 77.6212C517.511 76.3813 515.02 75.0346 512.663 73.7606C506.609 70.4884 501.445 67.6967 493.101 68.4316C481.509 69.4527 449.46 57.2 449.46 50.7333C449.46 44.2666 429.685 42.2245 426.617 45.628C423.548 49.0316 408.206 57.2 399 57.2C389.794 57.2 378.543 63.3264 363.541 77.6212C348.54 91.916 337.288 82.0458 332.515 77.6212C327.742 73.1966 300.807 67.751 285.464 77.6212C270.122 87.4914 262.28 82.7265 260.575 77.6212C258.871 72.5159 242.846 63.3264 236.368 63.3264C229.89 63.3264 210.456 57.2 200.91 50.7333C191.363 44.2666 179.771 52.0947 177.043 57.2C174.316 62.3053 162.042 71.8352 153.859 71.8352C145.676 71.8352 133.743 71.8352 122.492 77.6212C111.24 83.4072 100.671 86.4704 95.2159 77.6212C90.6059 70.143 79.9088 70.9289 71.355 71.5573C69.7868 71.6726 68.2907 71.7825 66.9173 71.8352C59.8256 72.1075 32.8225 88.9663 20.2075 97.3617L13 98.2868V295.29C13 317.933 31.3563 336.29 54 336.29Z" fill="white"/>
<path d="M184.39 303.44L185.38 302.725C186.627 301.992 187.507 301.625 188.02 301.625C189.157 301.625 190.385 302.652 191.705 304.705C192.512 305.988 192.915 307.015 192.915 307.785C192.915 308.555 192.658 309.197 192.145 309.71C191.668 310.223 191.1 310.682 190.44 311.085C189.78 311.488 189.138 311.873 188.515 312.24C187.928 312.607 186.7 313.083 184.83 313.67C182.96 314.257 181.145 314.55 179.385 314.55C177.662 314.55 175.902 314.33 174.105 313.89C172.345 313.413 170.512 312.643 168.605 311.58C166.735 310.48 165.048 309.16 163.545 307.62C162.042 306.043 160.795 304.045 159.805 301.625C158.852 299.168 158.375 296.51 158.375 293.65C158.375 290.79 158.852 288.205 159.805 285.895C160.758 283.548 161.968 281.623 163.435 280.12C164.938 278.58 166.643 277.297 168.55 276.27C172.143 274.29 175.755 273.3 179.385 273.3C181.108 273.3 182.85 273.575 184.61 274.125C186.407 274.638 187.763 275.17 188.68 275.72L190 276.49C190.66 276.893 191.173 277.223 191.54 277.48C192.493 278.25 192.97 279.13 192.97 280.12C192.97 281.073 192.585 282.082 191.815 283.145C190.385 285.125 189.102 286.115 187.965 286.115C187.305 286.115 186.37 285.712 185.16 284.905C183.62 283.658 181.567 283.035 179 283.035C176.617 283.035 174.27 283.86 171.96 285.51C170.86 286.317 169.943 287.453 169.21 288.92C168.477 290.387 168.11 292.055 168.11 293.925C168.11 295.758 168.477 297.408 169.21 298.875C169.943 300.342 170.878 301.497 172.015 302.34C174.252 303.953 176.58 304.76 179 304.76C180.137 304.76 181.2 304.613 182.19 304.32C183.217 304.027 183.95 303.733 184.39 303.44ZM218.474 273.19C223.901 273.19 228.612 275.152 232.609 279.075C236.606 282.998 238.604 287.875 238.604 293.705C238.604 299.498 236.697 304.448 232.884 308.555C229.071 312.625 224.377 314.66 218.804 314.66C213.231 314.66 208.482 312.643 204.559 308.61C200.672 304.577 198.729 299.773 198.729 294.2C198.729 291.157 199.279 288.315 200.379 285.675C201.479 282.998 202.946 280.762 204.779 278.965C206.612 277.168 208.721 275.757 211.104 274.73C213.487 273.703 215.944 273.19 218.474 273.19ZM208.464 293.925C208.464 297.188 209.509 299.847 211.599 301.9C213.726 303.917 216.091 304.925 218.694 304.925C221.297 304.925 223.644 303.935 225.734 301.955C227.824 299.975 228.869 297.317 228.869 293.98C228.869 290.643 227.806 287.967 225.679 285.95C223.589 283.933 221.242 282.925 218.639 282.925C216.036 282.925 213.689 283.952 211.599 286.005C209.509 288.022 208.464 290.662 208.464 293.925ZM254.961 305.86H269.921C271.131 305.86 272.011 306.007 272.561 306.3C273.111 306.557 273.477 306.978 273.661 307.565C273.844 308.152 273.936 308.94 273.936 309.93C273.936 310.883 273.844 311.653 273.661 312.24C273.477 312.827 273.166 313.23 272.726 313.45C272.029 313.817 271.076 314 269.866 314H250.066C247.499 314 245.996 313.303 245.556 311.91C245.336 311.323 245.226 310.388 245.226 309.105V278.525C245.226 277.682 245.244 277.058 245.281 276.655C245.354 276.215 245.537 275.72 245.831 275.17C246.344 274.18 247.774 273.685 250.121 273.685C252.687 273.685 254.209 274.363 254.686 275.72C254.869 276.343 254.961 277.297 254.961 278.58V305.86ZM299.451 273.19C304.878 273.19 309.589 275.152 313.586 279.075C317.583 282.998 319.581 287.875 319.581 293.705C319.581 299.498 317.674 304.448 313.861 308.555C310.048 312.625 305.354 314.66 299.781 314.66C294.208 314.66 289.459 312.643 285.536 308.61C281.649 304.577 279.706 299.773 279.706 294.2C279.706 291.157 280.256 288.315 281.356 285.675C282.456 282.998 283.923 280.762 285.756 278.965C287.589 277.168 289.698 275.757 292.081 274.73C294.464 273.703 296.921 273.19 299.451 273.19ZM289.441 293.925C289.441 297.188 290.486 299.847 292.576 301.9C294.703 303.917 297.068 304.925 299.671 304.925C302.274 304.925 304.621 303.935 306.711 301.955C308.801 299.975 309.846 297.317 309.846 293.98C309.846 290.643 308.783 287.967 306.656 285.95C304.566 283.933 302.219 282.925 299.616 282.925C297.013 282.925 294.666 283.952 292.576 286.005C290.486 288.022 289.441 290.662 289.441 293.925ZM357.057 307.18C357.607 308.5 357.882 309.453 357.882 310.04C357.882 311.433 356.746 312.607 354.472 313.56C353.299 314.073 352.346 314.33 351.612 314.33C350.916 314.33 350.329 314.165 349.852 313.835C349.412 313.468 349.082 313.102 348.862 312.735C348.496 312.038 347.066 308.72 344.572 302.78L342.867 302.89H335.937V309.105C335.937 309.948 335.901 310.59 335.827 311.03C335.791 311.433 335.626 311.91 335.332 312.46C334.819 313.45 333.389 313.945 331.042 313.945C328.476 313.945 326.972 313.267 326.532 311.91C326.312 311.287 326.202 310.333 326.202 309.05V278.525C326.202 277.682 326.221 277.058 326.257 276.655C326.331 276.215 326.514 275.72 326.807 275.17C327.321 274.18 328.751 273.685 331.097 273.685H342.977C346.204 273.685 349.339 274.858 352.382 277.205C353.849 278.342 355.059 279.882 356.012 281.825C356.966 283.768 357.442 285.932 357.442 288.315C357.442 292.458 356.067 295.868 353.317 298.545C354.124 300.488 355.371 303.367 357.057 307.18ZM335.937 293.155H342.977C344.041 293.155 345.104 292.752 346.167 291.945C347.231 291.138 347.762 289.928 347.762 288.315C347.762 286.702 347.231 285.492 346.167 284.685C345.104 283.842 344.004 283.42 342.867 283.42H335.937V293.155ZM387.19 276.545L402.04 307.235C402.663 308.482 402.975 309.417 402.975 310.04C402.975 311.36 401.911 312.552 399.785 313.615C398.538 314.238 397.548 314.55 396.815 314.55C396.118 314.55 395.531 314.385 395.055 314.055C394.615 313.725 394.285 313.377 394.065 313.01C393.881 312.643 393.606 312.093 393.24 311.36L390.38 305.42H375.145L372.285 311.36C371.918 312.093 371.625 312.625 371.405 312.955C371.221 313.285 370.891 313.633 370.415 314C369.975 314.33 369.388 314.495 368.655 314.495C367.958 314.495 366.986 314.183 365.74 313.56C363.613 312.533 362.55 311.36 362.55 310.04C362.55 309.417 362.861 308.482 363.485 307.235L378.335 276.49C378.738 275.647 379.343 274.968 380.15 274.455C380.993 273.942 381.873 273.685 382.79 273.685C384.77 273.685 386.236 274.638 387.19 276.545ZM382.735 289.745L379.105 297.28H386.42L382.735 289.745ZM413.9 273.63L424.075 273.685C429.392 273.685 434.067 275.61 438.1 279.46C442.134 283.273 444.15 287.985 444.15 293.595C444.15 299.168 442.17 303.953 438.21 307.95C434.287 311.947 429.52 313.945 423.91 313.945H413.845C411.609 313.945 410.215 313.487 409.665 312.57C409.225 311.8 409.005 310.627 409.005 309.05V278.47C409.005 277.59 409.024 276.948 409.06 276.545C409.134 276.142 409.317 275.665 409.61 275.115C410.124 274.125 411.554 273.63 413.9 273.63ZM424.075 304.21C426.715 304.21 429.099 303.238 431.225 301.295C433.352 299.315 434.415 296.84 434.415 293.87C434.415 290.9 433.37 288.425 431.28 286.445C429.227 284.428 426.807 283.42 424.02 283.42H418.74V304.21H424.075ZM469.676 273.19C475.103 273.19 479.814 275.152 483.811 279.075C487.808 282.998 489.806 287.875 489.806 293.705C489.806 299.498 487.899 304.448 484.086 308.555C480.273 312.625 475.579 314.66 470.006 314.66C464.433 314.66 459.684 312.643 455.761 308.61C451.874 304.577 449.931 299.773 449.931 294.2C449.931 291.157 450.481 288.315 451.581 285.675C452.681 282.998 454.148 280.762 455.981 278.965C457.814 277.168 459.923 275.757 462.306 274.73C464.689 273.703 467.146 273.19 469.676 273.19ZM459.666 293.925C459.666 297.188 460.711 299.847 462.801 301.9C464.928 303.917 467.293 304.925 469.896 304.925C472.499 304.925 474.846 303.935 476.936 301.955C479.026 299.975 480.071 297.317 480.071 293.98C480.071 290.643 479.008 287.967 476.881 285.95C474.791 283.933 472.444 282.925 469.841 282.925C467.238 282.925 464.891 283.952 462.801 286.005C460.711 288.022 459.666 290.662 459.666 293.925Z" fill="#1B582C"/>
</svg>
