<svg width="649" height="348" viewBox="0 0 649 348" fill="none" xmlns="http://www.w3.org/2000/svg">
<rect x="5" y="5" width="639" height="338" rx="36" fill="url(#paint0_linear_1049_170)" stroke="#032169" stroke-width="10"/>
<path d="M190.79 68.66C184.96 68.66 180.34 67.0833 176.93 63.93C173.557 60.7767 171.87 56.2117 171.87 50.235C171.87 46.2017 172.64 42.755 174.18 39.895C175.757 36.9983 177.993 34.7983 180.89 33.295C183.823 31.7917 187.27 31.04 191.23 31.04C193.1 31.04 194.622 31.1867 195.795 31.48C197.005 31.7367 198.178 32.085 199.315 32.525C200.158 32.8917 200.782 33.075 201.185 33.075C201.515 33.075 201.808 33.0017 202.065 32.855C202.358 32.7083 202.56 32.4883 202.67 32.195L202.835 31.7H204.43L204.98 42.095H202.89C202.377 39.235 201.203 36.98 199.37 35.33C197.573 33.68 195.337 32.855 192.66 32.855C188.48 32.855 185.62 34.6333 184.08 38.19C182.577 41.71 181.825 45.67 181.825 50.07C181.825 55.24 182.742 59.3283 184.575 62.335C186.445 65.3417 189.177 66.845 192.77 66.845C195.447 66.845 197.738 66.0933 199.645 64.59C201.552 63.0867 202.945 61.0883 203.825 58.595L205.475 59.255C204.375 62.2617 202.688 64.59 200.415 66.24C198.142 67.8533 194.933 68.66 190.79 68.66ZM221.073 68.66C216.27 68.66 212.695 67.5417 210.348 65.305C208.038 63.0683 206.883 59.6767 206.883 55.13C206.883 50.51 208.056 47.0817 210.403 44.845C212.786 42.6083 216.38 41.49 221.183 41.49C225.913 41.49 229.433 42.6083 231.743 44.845C234.053 47.045 235.208 50.4367 235.208 55.02C235.208 59.64 234.053 63.0683 231.743 65.305C229.433 67.5417 225.876 68.66 221.073 68.66ZM221.128 66.9C222.851 66.9 224.098 66.0383 224.868 64.315C225.638 62.555 226.023 59.75 226.023 55.9C226.023 51.4267 225.656 48.2 224.923 46.22C224.19 44.24 222.888 43.25 221.018 43.25C219.221 43.25 217.938 44.2583 217.168 46.275C216.435 48.255 216.068 51.2617 216.068 55.295C216.068 59.475 216.435 62.4633 217.168 64.26C217.938 66.02 219.258 66.9 221.128 66.9ZM266.958 63.435C266.958 64.2417 267.031 64.8283 267.178 65.195C267.324 65.5617 267.618 65.8183 268.058 65.965C268.498 66.1117 269.194 66.185 270.148 66.185V68H255.573V66.185C256.379 66.185 256.966 66.13 257.333 66.02C257.699 65.8733 257.938 65.635 258.048 65.305C258.158 64.975 258.213 64.4433 258.213 63.71V50.51C258.213 48.42 257.901 46.935 257.278 46.055C256.691 45.175 255.811 44.735 254.638 44.735C253.831 44.735 253.098 44.9367 252.438 45.34C251.814 45.7067 251.026 46.3667 250.073 47.32V63.435C250.073 64.6083 250.256 65.36 250.623 65.69C250.989 66.02 251.796 66.185 253.043 66.185V68H237.808V66.185C238.871 66.185 239.641 66.13 240.118 66.02C240.594 65.8733 240.906 65.6167 241.053 65.25C241.236 64.8833 241.328 64.2783 241.328 63.435V46.935C241.328 46.2017 241.218 45.725 240.998 45.505C240.814 45.2483 240.393 45.12 239.733 45.12H237.808V43.305L246.883 41.875H249.798V45.505H249.853C250.879 44.3317 252.071 43.3783 253.428 42.645C254.821 41.875 256.563 41.49 258.653 41.49C264.189 41.49 266.958 44.4967 266.958 50.51V63.435ZM300.42 63.435C300.42 64.2417 300.493 64.8283 300.64 65.195C300.786 65.5617 301.08 65.8183 301.52 65.965C301.96 66.1117 302.656 66.185 303.61 66.185V68H289.035V66.185C289.841 66.185 290.428 66.13 290.795 66.02C291.161 65.8733 291.4 65.635 291.51 65.305C291.62 64.975 291.675 64.4433 291.675 63.71V50.51C291.675 48.42 291.363 46.935 290.74 46.055C290.153 45.175 289.273 44.735 288.1 44.735C287.293 44.735 286.56 44.9367 285.9 45.34C285.276 45.7067 284.488 46.3667 283.535 47.32V63.435C283.535 64.6083 283.718 65.36 284.085 65.69C284.451 66.02 285.258 66.185 286.505 66.185V68H271.27V66.185C272.333 66.185 273.103 66.13 273.58 66.02C274.056 65.8733 274.368 65.6167 274.515 65.25C274.698 64.8833 274.79 64.2783 274.79 63.435V46.935C274.79 46.2017 274.68 45.725 274.46 45.505C274.276 45.2483 273.855 45.12 273.195 45.12H271.27V43.305L280.345 41.875H283.26V45.505H283.315C284.341 44.3317 285.533 43.3783 286.89 42.645C288.283 41.875 290.025 41.49 292.115 41.49C297.651 41.49 300.42 44.4967 300.42 50.51V63.435ZM330.857 55.185H314.467C314.577 58.8883 315.09 61.4917 316.007 62.995C316.96 64.4983 318.463 65.25 320.517 65.25C323.963 65.25 326.475 63.5267 328.052 60.08L330.032 61.015C329.372 62.4817 328.62 63.765 327.777 64.865C326.933 65.9283 325.705 66.8267 324.092 67.56C322.515 68.2933 320.498 68.66 318.042 68.66C313.862 68.66 310.69 67.5233 308.527 65.25C306.363 62.9767 305.282 59.6033 305.282 55.13C305.282 50.62 306.382 47.2283 308.582 44.955C310.818 42.645 314.063 41.49 318.317 41.49C326.677 41.49 330.857 45.945 330.857 54.855V55.185ZM321.672 53.37C321.672 49.6667 321.415 47.0633 320.902 45.56C320.388 44.0567 319.453 43.305 318.097 43.305C316.887 43.305 315.97 44.02 315.347 45.45C314.76 46.88 314.467 49.52 314.467 53.37H321.672ZM346.942 68.66C342.835 68.66 339.645 67.5233 337.372 65.25C335.135 62.94 334.017 59.6583 334.017 55.405C334.017 50.9317 335.245 47.5033 337.702 45.12C340.159 42.7 343.477 41.49 347.657 41.49C350.774 41.49 353.194 42.1133 354.917 43.36C356.64 44.6067 357.502 46.22 357.502 48.2C357.502 49.3733 357.172 50.3267 356.512 51.06C355.852 51.7933 354.825 52.16 353.432 52.16C352.222 52.16 351.25 51.885 350.517 51.335C349.82 50.7483 349.472 49.905 349.472 48.805C349.472 48.1817 349.619 47.5767 349.912 46.99C350.132 46.4033 350.242 45.945 350.242 45.615C350.242 44.9183 350.004 44.3683 349.527 43.965C349.087 43.525 348.39 43.305 347.437 43.305C346.447 43.305 345.64 43.5983 345.017 44.185C344.43 44.7717 343.972 45.8167 343.642 47.32C343.349 48.7867 343.202 50.8583 343.202 53.535C343.202 56.5783 343.404 58.9617 343.807 60.685C344.247 62.3717 344.889 63.5633 345.732 64.26C346.612 64.92 347.804 65.25 349.307 65.25C351.14 65.25 352.552 64.8283 353.542 63.985C354.569 63.1417 355.485 61.84 356.292 60.08L358.272 61.015C357.612 62.5183 356.915 63.7833 356.182 64.81C355.449 65.8367 354.33 66.735 352.827 67.505C351.324 68.275 349.362 68.66 346.942 68.66ZM371.531 68.66C368.891 68.66 366.929 67.9817 365.646 66.625C364.362 65.2317 363.721 62.8667 363.721 59.53V43.965H360.366V42.15C361.869 42.0033 363.354 41.3983 364.821 40.335C366.287 39.2717 367.571 37.97 368.671 36.43C369.771 34.8533 370.541 33.2767 370.981 31.7H372.466V42.15H377.526V43.965H372.466V60.245C372.466 62.0417 372.649 63.3617 373.016 64.205C373.419 65.0483 374.116 65.47 375.106 65.47C376.169 65.47 377.251 65.0117 378.351 64.095L379.506 65.8C379.396 65.91 378.974 66.24 378.241 66.79C377.544 67.3033 376.609 67.7433 375.436 68.11C374.262 68.4767 372.961 68.66 371.531 68.66ZM387.897 39.235C386.54 39.235 385.33 38.7583 384.267 37.805C383.24 36.8517 382.727 35.6967 382.727 34.34C382.727 33.02 383.24 31.8833 384.267 30.93C385.33 29.94 386.54 29.445 387.897 29.445C389.217 29.445 390.39 29.94 391.417 30.93C392.48 31.8833 393.012 33.02 393.012 34.34C393.012 35.66 392.498 36.815 391.472 37.805C390.445 38.7583 389.253 39.235 387.897 39.235ZM380.252 66.185C381.315 66.185 382.085 66.13 382.562 66.02C383.038 65.8733 383.35 65.6167 383.497 65.25C383.68 64.8833 383.772 64.2783 383.772 63.435V46.935C383.772 46.2017 383.662 45.725 383.442 45.505C383.258 45.2483 382.837 45.12 382.177 45.12H380.252V43.305L389.492 41.875H392.517V63.435C392.517 64.6083 392.7 65.36 393.067 65.69C393.433 66.02 394.24 66.185 395.487 66.185V68H380.252V66.185ZM411.18 68.66C407.073 68.66 403.883 67.5233 401.61 65.25C399.373 62.94 398.255 59.6583 398.255 55.405C398.255 50.9317 399.483 47.5033 401.94 45.12C404.397 42.7 407.715 41.49 411.895 41.49C415.012 41.49 417.432 42.1133 419.155 43.36C420.878 44.6067 421.74 46.22 421.74 48.2C421.74 49.3733 421.41 50.3267 420.75 51.06C420.09 51.7933 419.063 52.16 417.67 52.16C416.46 52.16 415.488 51.885 414.755 51.335C414.058 50.7483 413.71 49.905 413.71 48.805C413.71 48.1817 413.857 47.5767 414.15 46.99C414.37 46.4033 414.48 45.945 414.48 45.615C414.48 44.9183 414.242 44.3683 413.765 43.965C413.325 43.525 412.628 43.305 411.675 43.305C410.685 43.305 409.878 43.5983 409.255 44.185C408.668 44.7717 408.21 45.8167 407.88 47.32C407.587 48.7867 407.44 50.8583 407.44 53.535C407.44 56.5783 407.642 58.9617 408.045 60.685C408.485 62.3717 409.127 63.5633 409.97 64.26C410.85 64.92 412.042 65.25 413.545 65.25C415.378 65.25 416.79 64.8283 417.78 63.985C418.807 63.1417 419.723 61.84 420.53 60.08L422.51 61.015C421.85 62.5183 421.153 63.7833 420.42 64.81C419.687 65.8367 418.568 66.735 417.065 67.505C415.562 68.275 413.6 68.66 411.18 68.66ZM454.194 64.48C454.194 65.03 454.267 65.415 454.414 65.635C454.561 65.855 454.836 66.0017 455.239 66.075C455.642 66.1483 456.357 66.185 457.384 66.185V68H445.724V64.645H445.669C444.642 65.8183 443.432 66.79 442.039 67.56C440.682 68.2933 438.959 68.66 436.869 68.66C431.332 68.66 428.564 65.6533 428.564 59.64V46.935C428.564 46.2017 428.454 45.725 428.234 45.505C428.051 45.2483 427.629 45.12 426.969 45.12H425.044V43.305L434.284 41.875H437.309V59.64C437.309 61.73 437.602 63.215 438.189 64.095C438.812 64.975 439.711 65.415 440.884 65.415C441.691 65.415 442.406 65.2317 443.029 64.865C443.689 64.4617 444.496 63.7833 445.449 62.83V46.935C445.449 46.2017 445.339 45.725 445.119 45.505C444.936 45.2483 444.514 45.12 443.854 45.12H441.929V43.305L451.169 41.875H454.194V64.48ZM470.251 68.66C467.611 68.66 465.65 67.9817 464.366 66.625C463.083 65.2317 462.441 62.8667 462.441 59.53V43.965H459.086V42.15C460.59 42.0033 462.075 41.3983 463.541 40.335C465.008 39.2717 466.291 37.97 467.391 36.43C468.491 34.8533 469.261 33.2767 469.701 31.7H471.186V42.15H476.246V43.965H471.186V60.245C471.186 62.0417 471.37 63.3617 471.736 64.205C472.14 65.0483 472.836 65.47 473.826 65.47C474.89 65.47 475.971 65.0117 477.071 64.095L478.226 65.8C478.116 65.91 477.695 66.24 476.961 66.79C476.265 67.3033 475.33 67.7433 474.156 68.11C472.983 68.4767 471.681 68.66 470.251 68.66Z" fill="#032169"/>
<path d="M173.12 316.48C168.88 316.48 165.52 315.333 163.04 313.04C160.587 310.747 159.36 307.427 159.36 303.08C159.36 300.147 159.92 297.64 161.04 295.56C162.187 293.453 163.813 291.853 165.92 290.76C168.053 289.667 170.56 289.12 173.44 289.12C174.8 289.12 175.907 289.227 176.76 289.44C177.64 289.627 178.493 289.88 179.32 290.2C179.933 290.467 180.387 290.6 180.68 290.6C180.92 290.6 181.133 290.547 181.32 290.44C181.533 290.333 181.68 290.173 181.76 289.96L181.88 289.6H183.04L183.44 297.16H181.92C181.547 295.08 180.693 293.44 179.36 292.24C178.053 291.04 176.427 290.44 174.48 290.44C171.44 290.44 169.36 291.733 168.24 294.32C167.147 296.88 166.6 299.76 166.6 302.96C166.6 306.72 167.267 309.693 168.6 311.88C169.96 314.067 171.947 315.16 174.56 315.16C176.507 315.16 178.173 314.613 179.56 313.52C180.947 312.427 181.96 310.973 182.6 309.16L183.8 309.64C183 311.827 181.773 313.52 180.12 314.72C178.467 315.893 176.133 316.48 173.12 316.48ZM195.144 316.48C191.651 316.48 189.051 315.667 187.344 314.04C185.664 312.413 184.824 309.947 184.824 306.64C184.824 303.28 185.677 300.787 187.384 299.16C189.117 297.533 191.731 296.72 195.224 296.72C198.664 296.72 201.224 297.533 202.904 299.16C204.584 300.76 205.424 303.227 205.424 306.56C205.424 309.92 204.584 312.413 202.904 314.04C201.224 315.667 198.637 316.48 195.144 316.48ZM195.184 315.2C196.437 315.2 197.344 314.573 197.904 313.32C198.464 312.04 198.744 310 198.744 307.2C198.744 303.947 198.477 301.6 197.944 300.16C197.411 298.72 196.464 298 195.104 298C193.797 298 192.864 298.733 192.304 300.2C191.771 301.64 191.504 303.827 191.504 306.76C191.504 309.8 191.771 311.973 192.304 313.28C192.864 314.56 193.824 315.2 195.184 315.2ZM228.515 312.68C228.515 313.267 228.568 313.693 228.675 313.96C228.781 314.227 228.995 314.413 229.315 314.52C229.635 314.627 230.141 314.68 230.835 314.68V316H220.235V314.68C220.821 314.68 221.248 314.64 221.515 314.56C221.781 314.453 221.955 314.28 222.035 314.04C222.115 313.8 222.155 313.413 222.155 312.88V303.28C222.155 301.76 221.928 300.68 221.475 300.04C221.048 299.4 220.408 299.08 219.555 299.08C218.968 299.08 218.435 299.227 217.955 299.52C217.501 299.787 216.928 300.267 216.235 300.96V312.68C216.235 313.533 216.368 314.08 216.635 314.32C216.901 314.56 217.488 314.68 218.395 314.68V316H207.315V314.68C208.088 314.68 208.648 314.64 208.995 314.56C209.341 314.453 209.568 314.267 209.675 314C209.808 313.733 209.875 313.293 209.875 312.68V300.68C209.875 300.147 209.795 299.8 209.635 299.64C209.501 299.453 209.195 299.36 208.715 299.36H207.315V298.04L213.915 297H216.035V299.64H216.075C216.821 298.787 217.688 298.093 218.675 297.56C219.688 297 220.955 296.72 222.475 296.72C226.501 296.72 228.515 298.907 228.515 303.28V312.68ZM239.731 316.48C238.877 316.48 238.171 316.413 237.611 316.28C237.077 316.173 236.531 316.027 235.971 315.84C235.411 315.653 234.984 315.56 234.691 315.56C234.317 315.56 233.984 315.707 233.691 316H232.611L232.251 309.52H233.691C233.904 311.307 234.517 312.693 235.531 313.68C236.571 314.667 237.891 315.16 239.491 315.16C240.611 315.16 241.544 314.92 242.291 314.44C243.064 313.96 243.451 313.213 243.451 312.2C243.451 311.507 243.224 310.947 242.771 310.52C242.317 310.093 241.571 309.747 240.531 309.48L237.491 308.72C235.624 308.24 234.251 307.533 233.371 306.6C232.517 305.64 232.091 304.453 232.091 303.04C232.091 301.147 232.771 299.627 234.131 298.48C235.491 297.307 237.344 296.72 239.691 296.72C240.437 296.72 241.037 296.773 241.491 296.88C241.944 296.96 242.464 297.093 243.051 297.28C243.557 297.467 243.944 297.56 244.211 297.56C244.477 297.56 244.677 297.507 244.811 297.4C244.944 297.267 245.051 297.08 245.131 296.84H246.211L246.491 302.68H245.171C244.291 299.56 242.584 298 240.051 298C239.011 298 238.171 298.253 237.531 298.76C236.891 299.24 236.571 299.853 236.571 300.6C236.571 301.373 236.877 301.947 237.491 302.32C238.131 302.667 238.997 302.987 240.091 303.28L242.371 303.88C244.371 304.413 245.784 305.147 246.611 306.08C247.464 306.987 247.891 308.173 247.891 309.64C247.891 311.693 247.184 313.347 245.771 314.6C244.357 315.853 242.344 316.48 239.731 316.48ZM257.458 316.48C255.538 316.48 254.112 315.987 253.178 315C252.245 313.987 251.778 312.267 251.778 309.84V298.52H249.338V297.2C250.432 297.093 251.512 296.653 252.578 295.88C253.645 295.107 254.578 294.16 255.378 293.04C256.178 291.893 256.738 290.747 257.058 289.6H258.138V297.2H261.818V298.52H258.138V310.36C258.138 311.667 258.272 312.627 258.538 313.24C258.832 313.853 259.338 314.16 260.058 314.16C260.832 314.16 261.618 313.827 262.418 313.16L263.258 314.4C263.178 314.48 262.872 314.72 262.338 315.12C261.832 315.493 261.152 315.813 260.298 316.08C259.445 316.347 258.498 316.48 257.458 316.48ZM269.361 295.08C268.374 295.08 267.494 294.733 266.721 294.04C265.974 293.347 265.601 292.507 265.601 291.52C265.601 290.56 265.974 289.733 266.721 289.04C267.494 288.32 268.374 287.96 269.361 287.96C270.321 287.96 271.174 288.32 271.921 289.04C272.694 289.733 273.081 290.56 273.081 291.52C273.081 292.48 272.708 293.32 271.961 294.04C271.214 294.733 270.348 295.08 269.361 295.08ZM263.801 314.68C264.574 314.68 265.134 314.64 265.481 314.56C265.828 314.453 266.054 314.267 266.161 314C266.294 313.733 266.361 313.293 266.361 312.68V300.68C266.361 300.147 266.281 299.8 266.121 299.64C265.988 299.453 265.681 299.36 265.201 299.36H263.801V298.04L270.521 297H272.721V312.68C272.721 313.533 272.854 314.08 273.121 314.32C273.388 314.56 273.974 314.68 274.881 314.68V316H263.801V314.68ZM284.294 316.48C282.374 316.48 280.948 315.987 280.014 315C279.081 313.987 278.614 312.267 278.614 309.84V298.52H276.174V297.2C277.268 297.093 278.348 296.653 279.414 295.88C280.481 295.107 281.414 294.16 282.214 293.04C283.014 291.893 283.574 290.747 283.894 289.6H284.974V297.2H288.654V298.52H284.974V310.36C284.974 311.667 285.108 312.627 285.374 313.24C285.668 313.853 286.174 314.16 286.894 314.16C287.668 314.16 288.454 313.827 289.254 313.16L290.094 314.4C290.014 314.48 289.708 314.72 289.174 315.12C288.668 315.493 287.988 315.813 287.134 316.08C286.281 316.347 285.334 316.48 284.294 316.48ZM311.757 313.44C311.757 313.84 311.81 314.12 311.917 314.28C312.024 314.44 312.224 314.547 312.517 314.6C312.81 314.653 313.33 314.68 314.077 314.68V316H305.597V313.56H305.557C304.81 314.413 303.93 315.12 302.917 315.68C301.93 316.213 300.677 316.48 299.157 316.48C295.13 316.48 293.117 314.293 293.117 309.92V300.68C293.117 300.147 293.037 299.8 292.877 299.64C292.744 299.453 292.437 299.36 291.957 299.36H290.557V298.04L297.277 297H299.477V309.92C299.477 311.44 299.69 312.52 300.117 313.16C300.57 313.8 301.224 314.12 302.077 314.12C302.664 314.12 303.184 313.987 303.637 313.72C304.117 313.427 304.704 312.933 305.397 312.24V300.68C305.397 300.147 305.317 299.8 305.157 299.64C305.024 299.453 304.717 299.36 304.237 299.36H302.837V298.04L309.557 297H311.757V313.44ZM323.435 316.48C321.515 316.48 320.088 315.987 319.155 315C318.222 313.987 317.755 312.267 317.755 309.84V298.52H315.315V297.2C316.408 297.093 317.488 296.653 318.555 295.88C319.622 295.107 320.555 294.16 321.355 293.04C322.155 291.893 322.715 290.747 323.035 289.6H324.115V297.2H327.795V298.52H324.115V310.36C324.115 311.667 324.248 312.627 324.515 313.24C324.808 313.853 325.315 314.16 326.035 314.16C326.808 314.16 327.595 313.827 328.395 313.16L329.235 314.4C329.155 314.48 328.848 314.72 328.315 315.12C327.808 315.493 327.128 315.813 326.275 316.08C325.422 316.347 324.475 316.48 323.435 316.48ZM335.338 295.08C334.351 295.08 333.471 294.733 332.698 294.04C331.951 293.347 331.577 292.507 331.577 291.52C331.577 290.56 331.951 289.733 332.698 289.04C333.471 288.32 334.351 287.96 335.338 287.96C336.298 287.96 337.151 288.32 337.898 289.04C338.671 289.733 339.058 290.56 339.058 291.52C339.058 292.48 338.684 293.32 337.938 294.04C337.191 294.733 336.324 295.08 335.338 295.08ZM329.778 314.68C330.551 314.68 331.111 314.64 331.458 314.56C331.804 314.453 332.031 314.267 332.138 314C332.271 313.733 332.338 313.293 332.338 312.68V300.68C332.338 300.147 332.258 299.8 332.098 299.64C331.964 299.453 331.658 299.36 331.178 299.36H329.778V298.04L336.498 297H338.698V312.68C338.698 313.533 338.831 314.08 339.098 314.32C339.364 314.56 339.951 314.68 340.858 314.68V316H329.778V314.68ZM353.191 316.48C349.698 316.48 347.098 315.667 345.391 314.04C343.711 312.413 342.871 309.947 342.871 306.64C342.871 303.28 343.724 300.787 345.431 299.16C347.164 297.533 349.778 296.72 353.271 296.72C356.711 296.72 359.271 297.533 360.951 299.16C362.631 300.76 363.471 303.227 363.471 306.56C363.471 309.92 362.631 312.413 360.951 314.04C359.271 315.667 356.684 316.48 353.191 316.48ZM353.231 315.2C354.484 315.2 355.391 314.573 355.951 313.32C356.511 312.04 356.791 310 356.791 307.2C356.791 303.947 356.524 301.6 355.991 300.16C355.458 298.72 354.511 298 353.151 298C351.844 298 350.911 298.733 350.351 300.2C349.818 301.64 349.551 303.827 349.551 306.76C349.551 309.8 349.818 311.973 350.351 313.28C350.911 314.56 351.871 315.2 353.231 315.2ZM386.562 312.68C386.562 313.267 386.615 313.693 386.722 313.96C386.828 314.227 387.042 314.413 387.362 314.52C387.682 314.627 388.188 314.68 388.882 314.68V316H378.282V314.68C378.868 314.68 379.295 314.64 379.562 314.56C379.828 314.453 380.002 314.28 380.082 314.04C380.162 313.8 380.202 313.413 380.202 312.88V303.28C380.202 301.76 379.975 300.68 379.522 300.04C379.095 299.4 378.455 299.08 377.602 299.08C377.015 299.08 376.482 299.227 376.002 299.52C375.548 299.787 374.975 300.267 374.282 300.96V312.68C374.282 313.533 374.415 314.08 374.682 314.32C374.948 314.56 375.535 314.68 376.442 314.68V316H365.362V314.68C366.135 314.68 366.695 314.64 367.042 314.56C367.388 314.453 367.615 314.267 367.722 314C367.855 313.733 367.922 313.293 367.922 312.68V300.68C367.922 300.147 367.842 299.8 367.682 299.64C367.548 299.453 367.242 299.36 366.762 299.36H365.362V298.04L371.962 297H374.082V299.64H374.122C374.868 298.787 375.735 298.093 376.722 297.56C377.735 297 379.002 296.72 380.522 296.72C384.548 296.72 386.562 298.907 386.562 303.28V312.68ZM399.633 308.84H401.273C401.433 309.827 401.847 310.827 402.513 311.84C403.207 312.853 404.087 313.707 405.153 314.4C406.247 315.067 407.433 315.4 408.713 315.4C410.1 315.4 411.3 315.027 412.313 314.28C413.327 313.533 413.833 312.413 413.833 310.92C413.833 309.8 413.473 308.893 412.753 308.2C412.06 307.507 410.98 306.907 409.513 306.4L406.673 305.4C404.353 304.6 402.633 303.573 401.513 302.32C400.42 301.067 399.873 299.413 399.873 297.36C399.873 295.68 400.26 294.227 401.033 293C401.807 291.747 402.873 290.787 404.233 290.12C405.62 289.453 407.207 289.12 408.993 289.12C410.087 289.12 411.26 289.347 412.513 289.8C412.62 289.827 412.86 289.907 413.233 290.04C413.633 290.147 414.02 290.2 414.393 290.2C414.767 290.2 415.02 290.133 415.153 290C415.313 289.867 415.433 289.68 415.513 289.44H416.833L417.233 296.28H415.593C415.193 294.44 414.38 292.973 413.153 291.88C411.927 290.76 410.487 290.2 408.833 290.2C407.447 290.2 406.287 290.573 405.353 291.32C404.42 292.067 403.953 293.027 403.953 294.2C403.953 295.053 404.207 295.773 404.713 296.36C405.247 296.92 405.78 297.32 406.313 297.56C406.873 297.8 407.673 298.107 408.713 298.48L412.273 299.76C416.3 301.227 418.313 303.813 418.313 307.52C418.313 309.493 417.86 311.16 416.953 312.52C416.047 313.853 414.873 314.853 413.433 315.52C411.993 316.16 410.487 316.48 408.913 316.48C407.633 316.48 406.14 316.213 404.433 315.68C404.3 315.653 404.033 315.587 403.633 315.48C403.233 315.347 402.9 315.28 402.633 315.28C402.047 315.28 401.647 315.52 401.433 316H400.113L399.633 308.84ZM428.044 316.48C426.124 316.48 424.698 315.987 423.764 315C422.831 313.987 422.364 312.267 422.364 309.84V298.52H419.924V297.2C421.018 297.093 422.098 296.653 423.164 295.88C424.231 295.107 425.164 294.16 425.964 293.04C426.764 291.893 427.324 290.747 427.644 289.6H428.724V297.2H432.404V298.52H428.724V310.36C428.724 311.667 428.858 312.627 429.124 313.24C429.418 313.853 429.924 314.16 430.644 314.16C431.418 314.16 432.204 313.827 433.004 313.16L433.844 314.4C433.764 314.48 433.458 314.72 432.924 315.12C432.418 315.493 431.738 315.813 430.884 316.08C430.031 316.347 429.084 316.48 428.044 316.48ZM455.187 315.16C454.414 315.667 453.614 316.013 452.787 316.2C451.987 316.387 451.107 316.48 450.147 316.48C449.187 316.48 448.387 316.32 447.747 316C447.134 315.68 446.654 315.28 446.307 314.8C444.76 315.92 442.894 316.48 440.707 316.48C436.76 316.48 434.787 315 434.787 312.04C434.787 310.28 435.76 308.813 437.707 307.64C439.68 306.44 442.414 305.52 445.907 304.88V301.56C445.907 300.36 445.72 299.493 445.347 298.96C445 298.4 444.347 298.12 443.387 298.12C442.8 298.12 442.32 298.213 441.947 298.4C441.574 298.56 441.387 298.813 441.387 299.16C441.387 299.32 441.427 299.48 441.507 299.64C441.614 299.773 441.68 299.867 441.707 299.92C442.08 300.427 442.267 300.947 442.267 301.48C442.267 302.2 441.974 302.84 441.387 303.4C440.827 303.96 440.08 304.24 439.147 304.24C438.214 304.24 437.467 303.973 436.907 303.44C436.374 302.907 436.107 302.293 436.107 301.6C436.107 300.827 436.414 300.08 437.027 299.36C437.64 298.613 438.64 297.987 440.027 297.48C441.44 296.973 443.24 296.72 445.427 296.72C447.827 296.72 449.574 297.28 450.667 298.4C451.76 299.52 452.307 301.2 452.307 303.44V312.2C452.307 313.08 452.374 313.667 452.507 313.96C452.64 314.253 452.867 314.4 453.187 314.4C453.64 314.4 454 314.333 454.267 314.2C454.534 314.04 454.68 313.947 454.707 313.92L455.187 315.16ZM441.187 311.44C441.187 312.507 441.374 313.267 441.747 313.72C442.12 314.147 442.694 314.36 443.467 314.36C444.214 314.36 445.027 314.04 445.907 313.4V306.6C444.254 307.107 443.054 307.76 442.307 308.56C441.56 309.333 441.187 310.293 441.187 311.44ZM463.591 316.48C461.671 316.48 460.245 315.987 459.311 315C458.378 313.987 457.911 312.267 457.911 309.84V298.52H455.471V297.2C456.565 297.093 457.645 296.653 458.711 295.88C459.778 295.107 460.711 294.16 461.511 293.04C462.311 291.893 462.871 290.747 463.191 289.6H464.271V297.2H467.951V298.52H464.271V310.36C464.271 311.667 464.405 312.627 464.671 313.24C464.965 313.853 465.471 314.16 466.191 314.16C466.965 314.16 467.751 313.827 468.551 313.16L469.391 314.4C469.311 314.48 469.005 314.72 468.471 315.12C467.965 315.493 467.285 315.813 466.431 316.08C465.578 316.347 464.631 316.48 463.591 316.48ZM488.854 306.68H476.934C477.014 309.373 477.387 311.267 478.054 312.36C478.747 313.453 479.84 314 481.334 314C483.84 314 485.667 312.747 486.814 310.24L488.254 310.92C487.774 311.987 487.227 312.92 486.614 313.72C486 314.493 485.107 315.147 483.934 315.68C482.787 316.213 481.32 316.48 479.534 316.48C476.494 316.48 474.187 315.653 472.614 314C471.04 312.347 470.254 309.893 470.254 306.64C470.254 303.36 471.054 300.893 472.654 299.24C474.28 297.56 476.64 296.72 479.734 296.72C485.814 296.72 488.854 299.96 488.854 306.44V306.68ZM482.174 305.36C482.174 302.667 481.987 300.773 481.614 299.68C481.24 298.587 480.56 298.04 479.574 298.04C478.694 298.04 478.027 298.56 477.574 299.6C477.147 300.64 476.934 302.56 476.934 305.36H482.174Z" fill="#032169"/>
<path d="M39.4146 72.5254L31 77.6102L34.3659 81L46.1463 75.0678L54.561 72.5254L66.3415 69.1356L72.2317 70.8305L82.3293 64.0508H89.9024L94.1098 63.2034H97.4756L99.1585 60.661L95.7927 58.1186L100 53.8814L98.3171 31L68.0244 31.8475L64.6585 35.2373L61.2927 36.0847L59.6098 33.5424H38.5732L36.8902 31V67.4407L39.4146 72.5254Z" fill="#032169"/>
<defs>
<linearGradient id="paint0_linear_1049_170" x1="324.5" y1="0" x2="324.5" y2="348" gradientUnits="userSpaceOnUse">
<stop stop-color="#95BCEB"/>
<stop offset="1" stop-color="white"/>
</linearGradient>
</defs>
</svg>
