<svg width="649" height="348" viewBox="0 0 649 348" fill="none" xmlns="http://www.w3.org/2000/svg">
<rect width="649" height="348" rx="41" fill="#F4F4F4"/>
<path d="M184.196 23.872L176.916 61H168.752L165.32 43.32C165.216 42.696 165.112 42.0373 165.008 41.344C164.904 40.6507 164.8 39.94 164.696 39.212C164.592 38.4493 164.488 37.652 164.384 36.82C164.28 35.988 164.193 35.1387 164.124 34.272C164.055 34.9307 163.968 35.6413 163.864 36.404C163.795 37.132 163.708 37.8947 163.604 38.692C163.5 39.4893 163.396 40.2867 163.292 41.084C163.188 41.8467 163.067 42.5747 162.928 43.268L159.496 61H151.384L144.052 23.872H151.02L154.4 42.644C154.539 43.372 154.66 44.1693 154.764 45.036C154.903 45.9027 155.041 46.7867 155.18 47.688C155.319 48.5547 155.44 49.4213 155.544 50.288C155.648 51.1547 155.735 51.9693 155.804 52.732C155.908 51.8653 156.029 50.9813 156.168 50.08C156.307 49.144 156.445 48.2427 156.584 47.376C156.723 46.4747 156.861 45.6427 157 44.88C157.139 44.0827 157.26 43.372 157.364 42.748L161.16 23.872H167.14L170.676 42.696C170.815 43.3547 170.953 44.1 171.092 44.932C171.231 45.7293 171.369 46.5787 171.508 47.48C171.647 48.3467 171.768 49.2307 171.872 50.132C172.011 50.9987 172.132 51.8653 172.236 52.732C172.34 51.692 172.461 50.6 172.6 49.456C172.739 48.312 172.895 47.1507 173.068 45.972C173.276 44.7933 173.467 43.684 173.64 42.644L177.072 23.872H184.196ZM203.877 61L201.953 52.056H193.685L191.761 61H184.117L193.113 23.872H202.317L211.469 61H203.877ZM198.833 36.04C198.695 35.208 198.556 34.4107 198.417 33.648C198.313 32.8507 198.209 32.1053 198.105 31.412C198.001 30.684 197.897 30.008 197.793 29.384C197.759 29.9733 197.689 30.632 197.585 31.36C197.481 32.0533 197.36 32.7987 197.221 33.596C197.083 34.3587 196.927 35.1387 196.753 35.936L194.777 45.868H200.861L198.833 36.04ZM232.704 50.132C232.704 52.3507 232.254 54.3267 231.352 56.06C230.451 57.7587 229.186 59.0933 227.556 60.064C225.927 61.0347 224.003 61.52 221.784 61.52C220.744 61.52 219.739 61.4507 218.768 61.312C217.798 61.208 216.844 61.0173 215.908 60.74C215.007 60.428 214.088 60.012 213.152 59.492V52.212C214.504 53.0787 215.908 53.7547 217.364 54.24C218.82 54.6907 220.172 54.916 221.42 54.916C222.322 54.916 223.067 54.7427 223.656 54.396C224.28 54.0147 224.731 53.5293 225.008 52.94C225.32 52.316 225.476 51.6227 225.476 50.86C225.476 50.0627 225.338 49.352 225.06 48.728C224.818 48.104 224.332 47.48 223.604 46.856C222.911 46.232 221.871 45.5213 220.484 44.724C219.41 44.0653 218.422 43.4067 217.52 42.748C216.654 42.0547 215.908 41.3093 215.284 40.512C214.695 39.68 214.227 38.7267 213.88 37.652C213.568 36.5427 213.412 35.26 213.412 33.804C213.412 31.6893 213.828 29.852 214.66 28.292C215.492 26.732 216.688 25.5187 218.248 24.652C219.843 23.7507 221.75 23.3173 223.968 23.352C225.494 23.352 226.967 23.56 228.388 23.976C229.844 24.3573 231.248 24.9293 232.6 25.692L230.624 31.984C229.446 31.256 228.319 30.7187 227.244 30.372C226.17 30.0253 225.164 29.852 224.228 29.852C223.431 29.852 222.755 30.008 222.2 30.32C221.646 30.632 221.23 31.0653 220.952 31.62C220.675 32.14 220.536 32.7467 220.536 33.44C220.536 34.3067 220.675 35.052 220.952 35.676C221.23 36.3 221.732 36.9067 222.46 37.496C223.223 38.0507 224.315 38.744 225.736 39.576C227.296 40.4773 228.579 41.4307 229.584 42.436C230.624 43.4413 231.404 44.568 231.924 45.816C232.444 47.064 232.704 48.5027 232.704 50.132ZM261.069 61H253.945V44.776H244.741V61H237.617V23.872H244.741V38.588H253.945V23.872H261.069V61ZM279.898 61H265.91V57.152L269.342 55.696V29.176L265.91 27.72V23.872H279.898V27.72L276.466 29.176V55.696L279.898 57.152V61ZM310.379 61H302.007L291.139 35.104H290.931C291.001 36.0053 291.053 36.872 291.087 37.704C291.157 38.5013 291.209 39.264 291.243 39.992C291.278 40.72 291.295 41.4133 291.295 42.072C291.33 42.696 291.347 43.268 291.347 43.788V61H284.691V23.872H293.011L303.827 49.196H304.035C304.001 48.3293 303.949 47.4973 303.879 46.7C303.845 45.9027 303.81 45.1573 303.775 44.464C303.741 43.7707 303.706 43.112 303.671 42.488C303.671 41.864 303.671 41.292 303.671 40.772V23.872H310.379V61ZM329.311 40.096H340.907V59.44C339.139 60.1333 337.336 60.6533 335.499 61C333.662 61.3467 331.772 61.52 329.831 61.52C326.78 61.52 324.215 60.74 322.135 59.18C320.09 57.62 318.547 55.4013 317.507 52.524C316.467 49.6467 315.947 46.2493 315.947 42.332C315.947 38.4493 316.536 35.104 317.715 32.296C318.894 29.4533 320.61 27.252 322.863 25.692C325.151 24.132 327.924 23.352 331.183 23.352C332.986 23.352 334.667 23.5773 336.227 24.028C337.787 24.444 339.174 24.9987 340.387 25.692L338.307 31.568C337.232 30.8747 336.123 30.3547 334.979 30.008C333.835 29.6613 332.656 29.488 331.443 29.488C329.675 29.488 328.184 29.9907 326.971 30.996C325.758 32.0013 324.839 33.4747 324.215 35.416C323.626 37.3573 323.331 39.732 323.331 42.54C323.331 45.14 323.574 47.4107 324.059 49.352C324.579 51.2587 325.342 52.732 326.347 53.772C327.387 54.812 328.704 55.332 330.299 55.332C330.75 55.332 331.183 55.3147 331.599 55.28C332.015 55.2107 332.414 55.1413 332.795 55.072C333.211 54.968 333.592 54.864 333.939 54.76V46.128H329.311V40.096ZM358.234 61H351.214V30.06H344.298V23.872H365.098V30.06H358.234V61ZM393.854 42.384C393.854 45.3307 393.577 47.9827 393.022 50.34C392.502 52.6973 391.687 54.708 390.578 56.372C389.503 58.036 388.134 59.3187 386.47 60.22C384.841 61.0867 382.917 61.52 380.698 61.52C378.479 61.52 376.538 61.0867 374.874 60.22C373.21 59.3187 371.823 58.036 370.714 56.372C369.639 54.6733 368.825 52.6453 368.27 50.288C367.75 47.9307 367.49 45.2787 367.49 42.332C367.49 38.172 367.993 34.688 368.998 31.88C370.003 29.0373 371.477 26.9053 373.418 25.484C375.394 24.028 377.821 23.3 380.698 23.3C383.679 23.3 386.141 24.08 388.082 25.64C390.023 27.1653 391.462 29.3493 392.398 32.192C393.369 35.0347 393.854 38.432 393.854 42.384ZM374.874 42.384C374.874 45.2267 375.082 47.6013 375.498 49.508C375.949 51.4147 376.607 52.8533 377.474 53.824C378.341 54.76 379.415 55.228 380.698 55.228C381.981 55.228 383.038 54.76 383.87 53.824C384.737 52.888 385.378 51.484 385.794 49.612C386.245 47.7053 386.47 45.296 386.47 42.384C386.47 38.0507 385.985 34.8267 385.014 32.712C384.078 30.5627 382.639 29.488 380.698 29.488C379.415 29.488 378.341 29.9733 377.474 30.944C376.607 31.9147 375.949 33.3533 375.498 35.26C375.082 37.1667 374.874 39.5413 374.874 42.384ZM425.094 61H416.722L405.854 35.104H405.646C405.715 36.0053 405.767 36.872 405.802 37.704C405.871 38.5013 405.923 39.264 405.958 39.992C405.993 40.72 406.01 41.4133 406.01 42.072C406.045 42.696 406.062 43.268 406.062 43.788V61H399.406V23.872H407.726L418.542 49.196H418.75C418.715 48.3293 418.663 47.4973 418.594 46.7C418.559 45.9027 418.525 45.1573 418.49 44.464C418.455 43.7707 418.421 43.112 418.386 42.488C418.386 41.864 418.386 41.292 418.386 40.772V23.872H425.094V61ZM439.242 54.656C438.964 56.3893 438.635 58.036 438.254 59.596C437.907 61.156 437.508 62.6293 437.058 64.016C436.642 65.4373 436.174 66.7893 435.654 68.072H430.142C430.454 66.72 430.748 65.1947 431.026 63.496C431.303 61.7973 431.546 60.116 431.754 58.452C431.996 56.788 432.152 55.332 432.222 54.084H438.93L439.242 54.656ZM477.805 41.76C477.805 45.92 477.233 49.4387 476.089 52.316C474.945 55.1587 473.281 57.3253 471.097 58.816C468.913 60.272 466.226 61 463.037 61H454.301V23.872H463.557C466.607 23.872 469.19 24.5653 471.305 25.952C473.419 27.304 475.031 29.3147 476.141 31.984C477.25 34.6187 477.805 37.8773 477.805 41.76ZM470.473 42.072C470.473 39.2987 470.213 37.028 469.693 35.26C469.173 33.492 468.393 32.192 467.353 31.36C466.313 30.4933 465.013 30.06 463.453 30.06H461.425V54.76H462.985C465.55 54.76 467.439 53.72 468.653 51.64C469.866 49.56 470.473 46.3707 470.473 42.072ZM496.088 29.488C495.013 29.488 494.06 29.8173 493.228 30.476C492.43 31.1 491.754 32.0013 491.2 33.18C490.68 34.3587 490.281 35.7453 490.004 37.34C489.761 38.9347 489.64 40.668 489.64 42.54C489.64 45.2787 489.9 47.6013 490.42 49.508C490.974 51.4147 491.754 52.8707 492.76 53.876C493.765 54.8467 494.996 55.332 496.452 55.332C497.596 55.332 498.688 55.1413 499.728 54.76C500.768 54.3787 501.79 53.9107 502.796 53.356V59.7C501.721 60.2893 500.577 60.74 499.364 61.052C498.15 61.364 496.833 61.52 495.412 61.52C492.638 61.52 490.264 60.7747 488.288 59.284C486.312 57.7933 484.804 55.644 483.764 52.836C482.758 49.9933 482.256 46.544 482.256 42.488C482.256 39.7147 482.55 37.1667 483.14 34.844C483.729 32.5213 484.578 30.5107 485.688 28.812C486.832 27.0787 488.236 25.744 489.9 24.808C491.564 23.8373 493.453 23.352 495.568 23.352C497.058 23.352 498.497 23.5427 499.884 23.924C501.27 24.2707 502.605 24.8427 503.888 25.64L501.86 31.516C500.958 30.892 500.04 30.4067 499.104 30.06C498.168 29.6787 497.162 29.488 496.088 29.488Z" fill="#001D8F"/>
<path d="M32.325 328H17.88V295.87H32.325V301.135H24.045V308.695H31.74V313.96H24.045V322.645H32.325V328ZM55.7141 328H48.4691L39.0641 305.59H38.8841C38.9441 306.37 38.9891 307.12 39.0191 307.84C39.0791 308.53 39.1241 309.19 39.1541 309.82C39.1841 310.45 39.1991 311.05 39.1991 311.62C39.2291 312.16 39.2441 312.655 39.2441 313.105V328H33.4841V295.87H40.6841L50.0441 317.785H50.2241C50.1941 317.035 50.1491 316.315 50.0891 315.625C50.0591 314.935 50.0291 314.29 49.9991 313.69C49.9691 313.09 49.9391 312.52 49.9091 311.98C49.9091 311.44 49.9091 310.945 49.9091 310.495V295.87H55.7141V328ZM78.2173 311.35C78.2173 314.95 77.7223 317.995 76.7323 320.485C75.7423 322.945 74.3023 324.82 72.4123 326.11C70.5223 327.37 68.1973 328 65.4373 328H57.8773V295.87H65.8873C68.5273 295.87 70.7623 296.47 72.5923 297.67C74.4223 298.84 75.8173 300.58 76.7773 302.89C77.7373 305.17 78.2173 307.99 78.2173 311.35ZM71.8723 311.62C71.8723 309.22 71.6473 307.255 71.1973 305.725C70.7473 304.195 70.0723 303.07 69.1723 302.35C68.2723 301.6 67.1473 301.225 65.7973 301.225H64.0423V322.6H65.3923C67.6123 322.6 69.2473 321.7 70.2973 319.9C71.3473 318.1 71.8723 315.34 71.8723 311.62ZM93.666 328H87.591V301.225H81.606V295.87H99.606V301.225H93.666V328ZM112.977 328L111.312 320.26H104.157L102.492 328H95.877L103.662 295.87H111.627L119.547 328H112.977ZM108.612 306.4C108.492 305.68 108.372 304.99 108.252 304.33C108.162 303.64 108.072 302.995 107.982 302.395C107.892 301.765 107.802 301.18 107.712 300.64C107.682 301.15 107.622 301.72 107.532 302.35C107.442 302.95 107.337 303.595 107.217 304.285C107.097 304.945 106.962 305.62 106.812 306.31L105.102 314.905H110.367L108.612 306.4ZM137.203 328H130.588L126.628 317.245L122.443 328H116.008L123.118 311.665L116.593 295.87H122.983L126.493 305.995L129.958 295.87H136.438L130.003 311.62L137.203 328ZM150.733 328L149.068 320.26H141.913L140.248 328H133.633L141.418 295.87H149.383L157.303 328H150.733ZM146.368 306.4C146.248 305.68 146.128 304.99 146.008 304.33C145.918 303.64 145.828 302.995 145.738 302.395C145.648 301.765 145.558 301.18 145.468 300.64C145.438 301.15 145.378 301.72 145.288 302.35C145.198 302.95 145.093 303.595 144.973 304.285C144.853 304.945 144.718 305.62 144.568 306.31L142.858 314.905H148.123L146.368 306.4ZM165.619 328H159.544V301.225H153.559V295.87H171.559V301.225H165.619V328ZM182.031 328H169.926V324.67L172.896 323.41V300.46L169.926 299.2V295.87H182.031V299.2L179.061 300.46V323.41L182.031 324.67V328ZM204.448 311.89C204.448 314.44 204.208 316.735 203.728 318.775C203.278 320.815 202.573 322.555 201.613 323.995C200.683 325.435 199.498 326.545 198.058 327.325C196.648 328.075 194.983 328.45 193.063 328.45C191.143 328.45 189.463 328.075 188.023 327.325C186.583 326.545 185.383 325.435 184.423 323.995C183.493 322.525 182.788 320.77 182.308 318.73C181.858 316.69 181.633 314.395 181.633 311.845C181.633 308.245 182.068 305.23 182.938 302.8C183.808 300.34 185.083 298.495 186.763 297.265C188.473 296.005 190.573 295.375 193.063 295.375C195.643 295.375 197.773 296.05 199.453 297.4C201.133 298.72 202.378 300.61 203.188 303.07C204.028 305.53 204.448 308.47 204.448 311.89ZM188.023 311.89C188.023 314.35 188.203 316.405 188.563 318.055C188.953 319.705 189.523 320.95 190.273 321.79C191.023 322.6 191.953 323.005 193.063 323.005C194.173 323.005 195.088 322.6 195.808 321.79C196.558 320.98 197.113 319.765 197.473 318.145C197.863 316.495 198.058 314.41 198.058 311.89C198.058 308.14 197.638 305.35 196.798 303.52C195.988 301.66 194.743 300.73 193.063 300.73C191.953 300.73 191.023 301.15 190.273 301.99C189.523 302.83 188.953 304.075 188.563 305.725C188.203 307.375 188.023 309.43 188.023 311.89ZM227.883 328H220.638L211.233 305.59H211.053C211.113 306.37 211.158 307.12 211.188 307.84C211.248 308.53 211.293 309.19 211.323 309.82C211.353 310.45 211.368 311.05 211.368 311.62C211.398 312.16 211.413 312.655 211.413 313.105V328H205.653V295.87H212.853L222.213 317.785H222.393C222.363 317.035 222.318 316.315 222.258 315.625C222.228 314.935 222.198 314.29 222.168 313.69C222.138 313.09 222.108 312.52 222.078 311.98C222.078 311.44 222.078 310.945 222.078 310.495V295.87H227.883V328ZM266.393 295.87L260.093 328H253.028L250.058 312.7C249.968 312.16 249.878 311.59 249.788 310.99C249.698 310.39 249.608 309.775 249.518 309.145C249.428 308.485 249.338 307.795 249.248 307.075C249.158 306.355 249.083 305.62 249.023 304.87C248.963 305.44 248.888 306.055 248.798 306.715C248.738 307.345 248.663 308.005 248.573 308.695C248.483 309.385 248.393 310.075 248.303 310.765C248.213 311.425 248.108 312.055 247.988 312.655L245.018 328H237.998L231.653 295.87H237.683L240.608 312.115C240.728 312.745 240.833 313.435 240.923 314.185C241.043 314.935 241.163 315.7 241.283 316.48C241.403 317.23 241.508 317.98 241.598 318.73C241.688 319.48 241.763 320.185 241.823 320.845C241.913 320.095 242.018 319.33 242.138 318.55C242.258 317.74 242.378 316.96 242.498 316.21C242.618 315.43 242.738 314.71 242.858 314.05C242.978 313.36 243.083 312.745 243.173 312.205L246.458 295.87H251.633L254.693 312.16C254.813 312.73 254.933 313.375 255.053 314.095C255.173 314.785 255.293 315.52 255.413 316.3C255.533 317.05 255.638 317.815 255.728 318.595C255.848 319.345 255.953 320.095 256.043 320.845C256.133 319.945 256.238 319 256.358 318.01C256.478 317.02 256.613 316.015 256.763 314.995C256.943 313.975 257.108 313.015 257.258 312.115L260.228 295.87H266.393ZM276.311 328H264.206V324.67L267.176 323.41V300.46L264.206 299.2V295.87H276.311V299.2L273.341 300.46V323.41L276.311 324.67V328ZM286.669 328H280.594V301.225H274.609V295.87H292.609V301.225H286.669V328ZM312.846 328H306.681V313.96H298.716V328H292.551V295.87H298.716V308.605H306.681V295.87H312.846V328ZM336.88 311.89C336.88 314.44 336.64 316.735 336.16 318.775C335.71 320.815 335.005 322.555 334.045 323.995C333.115 325.435 331.93 326.545 330.49 327.325C329.08 328.075 327.415 328.45 325.495 328.45C323.575 328.45 321.895 328.075 320.455 327.325C319.015 326.545 317.815 325.435 316.855 323.995C315.925 322.525 315.22 320.77 314.74 318.73C314.29 316.69 314.065 314.395 314.065 311.845C314.065 308.245 314.5 305.23 315.37 302.8C316.24 300.34 317.515 298.495 319.195 297.265C320.905 296.005 323.005 295.375 325.495 295.375C328.075 295.375 330.205 296.05 331.885 297.4C333.565 298.72 334.81 300.61 335.62 303.07C336.46 305.53 336.88 308.47 336.88 311.89ZM320.455 311.89C320.455 314.35 320.635 316.405 320.995 318.055C321.385 319.705 321.955 320.95 322.705 321.79C323.455 322.6 324.385 323.005 325.495 323.005C326.605 323.005 327.52 322.6 328.24 321.79C328.99 320.98 329.545 319.765 329.905 318.145C330.295 316.495 330.49 314.41 330.49 311.89C330.49 308.14 330.07 305.35 329.23 303.52C328.42 301.66 327.175 300.73 325.495 300.73C324.385 300.73 323.455 301.15 322.705 301.99C321.955 302.83 321.385 304.075 320.995 305.725C320.635 307.375 320.455 309.43 320.455 311.89ZM357.795 317.425C357.795 319.885 357.405 321.94 356.625 323.59C355.875 325.21 354.765 326.425 353.295 327.235C351.825 328.045 349.995 328.45 347.805 328.45C344.625 328.45 342.18 327.55 340.47 325.75C338.76 323.95 337.905 321.22 337.905 317.56V295.87H344.07V317.335C344.07 319.375 344.385 320.83 345.015 321.7C345.675 322.57 346.62 323.005 347.85 323.005C348.72 323.005 349.425 322.825 349.965 322.465C350.535 322.075 350.955 321.46 351.225 320.62C351.525 319.78 351.675 318.67 351.675 317.29V295.87H357.795V317.425ZM369.563 328H363.488V301.225H357.503V295.87H375.503V301.225H369.563V328ZM387.357 295.87C389.727 295.87 391.692 296.215 393.252 296.905C394.812 297.595 395.982 298.63 396.762 300.01C397.542 301.39 397.932 303.115 397.932 305.185C397.932 306.505 397.767 307.705 397.437 308.785C397.107 309.865 396.597 310.825 395.907 311.665C395.247 312.505 394.392 313.24 393.342 313.87L399.957 328H393.162L387.897 315.4H386.052V328H379.887V295.87H387.357ZM387.312 301.09H386.052V310.54H387.447C388.377 310.54 389.142 310.36 389.742 310C390.372 309.61 390.837 309.04 391.137 308.29C391.467 307.54 391.632 306.61 391.632 305.5C391.632 304.48 391.467 303.655 391.137 303.025C390.837 302.365 390.372 301.885 389.742 301.585C389.112 301.255 388.302 301.09 387.312 301.09ZM413.76 328H399.315V295.87H413.76V301.135H405.48V308.695H413.175V313.96H405.48V322.645H413.76V328ZM423.064 295.87C426.334 295.87 428.764 296.725 430.354 298.435C431.944 300.115 432.739 302.575 432.739 305.815C432.739 307.435 432.529 308.905 432.109 310.225C431.719 311.545 431.104 312.685 430.264 313.645C429.454 314.605 428.419 315.34 427.159 315.85C425.929 316.36 424.474 316.615 422.794 316.615H421.084V328H414.919V295.87H423.064ZM422.614 301.135H421.084V311.35H422.164C423.154 311.35 423.979 311.17 424.639 310.81C425.299 310.45 425.794 309.865 426.124 309.055C426.454 308.245 426.619 307.18 426.619 305.86C426.619 304.21 426.289 303.01 425.629 302.26C424.969 301.51 423.964 301.135 422.614 301.135ZM440.849 295.87C443.219 295.87 445.184 296.215 446.744 296.905C448.304 297.595 449.474 298.63 450.254 300.01C451.034 301.39 451.424 303.115 451.424 305.185C451.424 306.505 451.259 307.705 450.929 308.785C450.599 309.865 450.089 310.825 449.399 311.665C448.739 312.505 447.884 313.24 446.834 313.87L453.449 328H446.654L441.389 315.4H439.544V328H433.379V295.87H440.849ZM440.804 301.09H439.544V310.54H440.939C441.869 310.54 442.634 310.36 443.234 310C443.864 309.61 444.329 309.04 444.629 308.29C444.959 307.54 445.124 306.61 445.124 305.5C445.124 304.48 444.959 303.655 444.629 303.025C444.329 302.365 443.864 301.885 443.234 301.585C442.604 301.255 441.794 301.09 440.804 301.09ZM467.252 328H452.807V295.87H467.252V301.135H458.972V308.695H466.667V313.96H458.972V322.645H467.252V328ZM483.891 318.595C483.891 320.515 483.501 322.225 482.721 323.725C481.941 325.195 480.846 326.35 479.436 327.19C478.026 328.03 476.361 328.45 474.441 328.45C473.541 328.45 472.671 328.39 471.831 328.27C470.991 328.18 470.166 328.015 469.356 327.775C468.576 327.505 467.781 327.145 466.971 326.695V320.395C468.141 321.145 469.356 321.73 470.616 322.15C471.876 322.54 473.046 322.735 474.126 322.735C474.906 322.735 475.551 322.585 476.061 322.285C476.601 321.955 476.991 321.535 477.231 321.025C477.501 320.485 477.636 319.885 477.636 319.225C477.636 318.535 477.516 317.92 477.276 317.38C477.066 316.84 476.646 316.3 476.016 315.76C475.416 315.22 474.516 314.605 473.316 313.915C472.386 313.345 471.531 312.775 470.751 312.205C470.001 311.605 469.356 310.96 468.816 310.27C468.306 309.55 467.901 308.725 467.601 307.795C467.331 306.835 467.196 305.725 467.196 304.465C467.196 302.635 467.556 301.045 468.276 299.695C468.996 298.345 470.031 297.295 471.381 296.545C472.761 295.765 474.411 295.39 476.331 295.42C477.651 295.42 478.926 295.6 480.156 295.96C481.416 296.29 482.631 296.785 483.801 297.445L482.091 302.89C481.071 302.26 480.096 301.795 479.166 301.495C478.236 301.195 477.366 301.045 476.556 301.045C475.866 301.045 475.281 301.18 474.801 301.45C474.321 301.72 473.961 302.095 473.721 302.575C473.481 303.025 473.361 303.55 473.361 304.15C473.361 304.9 473.481 305.545 473.721 306.085C473.961 306.625 474.396 307.15 475.026 307.66C475.686 308.14 476.631 308.74 477.861 309.46C479.211 310.24 480.321 311.065 481.191 311.935C482.091 312.805 482.766 313.78 483.216 314.86C483.666 315.94 483.891 317.185 483.891 318.595ZM498.987 328H484.542V295.87H498.987V301.135H490.707V308.695H498.402V313.96H490.707V322.645H498.987V328ZM522.376 328H515.131L505.726 305.59H505.546C505.606 306.37 505.651 307.12 505.681 307.84C505.741 308.53 505.786 309.19 505.816 309.82C505.846 310.45 505.861 311.05 505.861 311.62C505.891 312.16 505.906 312.655 505.906 313.105V328H500.146V295.87H507.346L516.706 317.785H516.886C516.856 317.035 516.811 316.315 516.751 315.625C516.721 314.935 516.691 314.29 516.661 313.69C516.631 313.09 516.601 312.52 516.571 311.98C516.571 311.44 516.571 310.945 516.571 310.495V295.87H522.376V328ZM534.35 328H528.275V301.225H522.29V295.87H540.29V301.225H534.35V328ZM553.661 328L551.996 320.26H544.841L543.176 328H536.561L544.346 295.87H552.311L560.231 328H553.661ZM549.296 306.4C549.176 305.68 549.056 304.99 548.936 304.33C548.846 303.64 548.756 302.995 548.666 302.395C548.576 301.765 548.486 301.18 548.396 300.64C548.366 301.15 548.306 301.72 548.216 302.35C548.126 302.95 548.021 303.595 547.901 304.285C547.781 304.945 547.646 305.62 547.496 306.31L545.786 314.905H551.051L549.296 306.4ZM568.546 328H562.471V301.225H556.486V295.87H574.486V301.225H568.546V328ZM584.958 328H572.853V324.67L575.823 323.41V300.46L572.853 299.2V295.87H584.958V299.2L581.988 300.46V323.41L584.958 324.67V328ZM607.376 311.89C607.376 314.44 607.136 316.735 606.656 318.775C606.206 320.815 605.501 322.555 604.541 323.995C603.611 325.435 602.426 326.545 600.986 327.325C599.576 328.075 597.911 328.45 595.991 328.45C594.071 328.45 592.391 328.075 590.951 327.325C589.511 326.545 588.311 325.435 587.351 323.995C586.421 322.525 585.716 320.77 585.236 318.73C584.786 316.69 584.561 314.395 584.561 311.845C584.561 308.245 584.996 305.23 585.866 302.8C586.736 300.34 588.011 298.495 589.691 297.265C591.401 296.005 593.501 295.375 595.991 295.375C598.571 295.375 600.701 296.05 602.381 297.4C604.061 298.72 605.306 300.61 606.116 303.07C606.956 305.53 607.376 308.47 607.376 311.89ZM590.951 311.89C590.951 314.35 591.131 316.405 591.491 318.055C591.881 319.705 592.451 320.95 593.201 321.79C593.951 322.6 594.881 323.005 595.991 323.005C597.101 323.005 598.016 322.6 598.736 321.79C599.486 320.98 600.041 319.765 600.401 318.145C600.791 316.495 600.986 314.41 600.986 311.89C600.986 308.14 600.566 305.35 599.726 303.52C598.916 301.66 597.671 300.73 595.991 300.73C594.881 300.73 593.951 301.15 593.201 301.99C592.451 302.83 591.881 304.075 591.491 305.725C591.131 307.375 590.951 309.43 590.951 311.89ZM630.811 328H623.566L614.161 305.59H613.981C614.041 306.37 614.086 307.12 614.116 307.84C614.176 308.53 614.221 309.19 614.251 309.82C614.281 310.45 614.296 311.05 614.296 311.62C614.326 312.16 614.341 312.655 614.341 313.105V328H608.581V295.87H615.781L625.141 317.785H625.321C625.291 317.035 625.246 316.315 625.186 315.625C625.156 314.935 625.126 314.29 625.096 313.69C625.066 313.09 625.036 312.52 625.006 311.98C625.006 311.44 625.006 310.945 625.006 310.495V295.87H630.811V328Z" fill="#001D8F"/>
<rect y="76" width="649" height="5" fill="#D12E2E"/>
<rect y="280" width="649" height="5" fill="#D12E2E"/>
<rect x="267" y="170" width="115" height="21" fill="#D12E2E" fill-opacity="0.3"/>
<rect x="267" y="200" width="115" height="21" fill="#D12E2E" fill-opacity="0.3"/>
<path d="M282.5 135L285.98 145.71H297.241L288.131 152.33L291.611 163.04L282.5 156.42L273.389 163.04L276.869 152.33L267.759 145.71H279.02L282.5 135Z" fill="#D12E2E" fill-opacity="0.3"/>
<path d="M366.5 135L369.98 145.71H381.241L372.131 152.33L375.611 163.04L366.5 156.42L357.389 163.04L360.869 152.33L351.759 145.71H363.02L366.5 135Z" fill="#D12E2E" fill-opacity="0.3"/>
<path d="M324.5 135L327.98 145.71H339.241L330.131 152.33L333.611 163.04L324.5 156.42L315.389 163.04L318.869 152.33L309.759 145.71H321.02L324.5 135Z" fill="#D12E2E" fill-opacity="0.3"/>
</svg>
