<svg width="649" height="348" viewBox="0 0 649 348" fill="none" xmlns="http://www.w3.org/2000/svg">
<rect x="5" y="5" width="639" height="338" rx="36" fill="#2C2B3D" stroke="#B3945F" stroke-width="10"/>
<path d="M186.3 316.505V281.69H201.535C204.578 281.69 207.127 281.947 209.18 282.46C211.233 282.937 212.883 283.798 214.13 285.045C215.377 286.292 216.275 288.033 216.825 290.27C217.375 292.47 217.65 295.312 217.65 298.795C217.65 302.425 217.375 305.395 216.825 307.705C216.275 310.015 215.377 311.812 214.13 313.095C212.883 314.378 211.233 315.277 209.18 315.79C207.127 316.267 204.578 316.505 201.535 316.505H186.3ZM200.27 289.115H195.1V309.08H200.27C202.397 309.08 204.065 308.842 205.275 308.365C206.522 307.888 207.402 306.917 207.915 305.45C208.465 303.983 208.74 301.765 208.74 298.795C208.74 295.972 208.465 293.882 207.915 292.525C207.402 291.132 206.522 290.215 205.275 289.775C204.065 289.335 202.397 289.115 200.27 289.115ZM223.146 316.505V281.69H248.996V288.84H231.946V295.44H246.741V302.59H231.946V309.355H248.996V316.505H223.146ZM278.685 309.025V316.505H253.385V281.69H262.185V309.025H278.685ZM314.45 316.34V316.505H305.1C304.843 315.625 304.532 314.617 304.165 313.48C303.835 312.343 303.468 311.133 303.065 309.85H291.185C290.452 312.417 289.773 314.635 289.15 316.505H279.8V316.395L291.075 281.69H303.175L314.45 316.34ZM297.015 287.96C296.648 289.83 296.117 292.103 295.42 294.78C294.723 297.457 293.99 300.188 293.22 302.975H301.085C300.278 300.188 299.527 297.457 298.83 294.78C298.133 292.103 297.602 289.83 297.235 287.96H297.015ZM354.016 281.69H362.981L355.611 316.505H344.886C343.75 312.582 342.76 308.75 341.916 305.01C341.11 301.27 340.34 297.273 339.606 293.02H339.496C338.653 297.273 337.81 301.27 336.966 305.01C336.16 308.75 335.243 312.582 334.216 316.505H323.491L316.121 281.69H325.086C325.636 284.257 326.131 286.768 326.571 289.225C327.011 291.682 327.433 294.193 327.836 296.76C328.276 299.29 328.716 302.04 329.156 305.01H329.266C329.816 302.04 330.348 299.29 330.861 296.76C331.375 294.193 331.906 291.682 332.456 289.225C333.006 286.768 333.593 284.257 334.216 281.69H344.886C345.73 285.577 346.555 289.463 347.361 293.35C348.205 297.237 349.03 301.123 349.836 305.01H349.946C350.643 301.123 351.321 297.237 351.981 293.35C352.641 289.463 353.32 285.577 354.016 281.69ZM399.26 316.34V316.505H389.91C389.653 315.625 389.341 314.617 388.975 313.48C388.645 312.343 388.278 311.133 387.875 309.85H375.995C375.261 312.417 374.583 314.635 373.96 316.505H364.61V316.395L375.885 281.69H387.985L399.26 316.34ZM381.825 287.96C381.458 289.83 380.926 292.103 380.23 294.78C379.533 297.457 378.8 300.188 378.03 302.975H385.895C385.088 300.188 384.336 297.457 383.64 294.78C382.943 292.103 382.411 289.83 382.045 287.96H381.825ZM411.931 316.505H403.131V281.69H419.741C424.104 281.69 427.276 282.68 429.256 284.66C431.273 286.603 432.281 289.482 432.281 293.295C432.281 296.155 431.566 298.612 430.136 300.665C428.706 302.682 426.818 303.947 424.471 304.46L424.416 304.625C425.333 305.212 426.341 306.183 427.441 307.54C428.541 308.897 429.623 310.382 430.686 311.995C431.786 313.572 432.758 315.057 433.601 316.45V316.505H423.371L417.431 307.705C416.918 306.935 416.496 306.385 416.166 306.055C415.873 305.725 415.506 305.523 415.066 305.45C414.663 305.377 414.003 305.34 413.086 305.34H411.931V316.505ZM418.311 288.84H411.931V298.19H418.311C420.144 298.19 421.409 297.823 422.106 297.09C422.839 296.357 423.206 295.165 423.206 293.515C423.206 291.865 422.839 290.673 422.106 289.94C421.409 289.207 420.144 288.84 418.311 288.84ZM438.58 316.505V281.69H464.43V288.84H447.38V295.44H462.175V302.59H447.38V309.355H464.43V316.505H438.58Z" fill="#BD9B53"/>
<path d="M171.358 57V37.552H165.578V33.676H181.49V37.552H175.71V57H171.358ZM189.853 57V33.676H194.205V43.128H201.549V33.676H205.901V57H201.549V47.004H194.205V57H189.853ZM215.754 57V33.676H230.612V37.552H220.106V43.128H229.116V47.004H220.106V53.124H230.816V57H215.754ZM253.644 57V33.676H267.346V37.552H257.996V43.434H265.986V47.31H257.996V57H253.644ZM276.118 57V33.676H280.47V57H276.118ZM289.974 57V33.676H299.732C302.089 33.676 303.869 34.3107 305.07 35.58C306.271 36.8267 306.872 38.4133 306.872 40.34C306.872 41.7453 306.521 42.9693 305.818 44.012C305.115 45.0547 304.163 45.8253 302.962 46.324L307.45 57H302.724L298.848 47.276H294.326V57H289.974ZM294.326 43.434H299.12C300.185 43.434 300.956 43.162 301.432 42.618C301.931 42.074 302.18 41.3147 302.18 40.34C302.18 39.4787 301.942 38.7987 301.466 38.3C301.013 37.8013 300.287 37.552 299.29 37.552H294.326V43.434ZM322.913 57.408C321.485 57.408 320.159 57.136 318.935 56.592C317.711 56.048 316.725 55.2433 315.977 54.178C315.229 53.09 314.855 51.7527 314.855 50.166C314.855 50.03 314.855 49.894 314.855 49.758C314.878 49.622 314.889 49.5087 314.889 49.418H319.411C319.411 49.4407 319.4 49.52 319.377 49.656C319.377 49.7693 319.377 49.8713 319.377 49.962C319.377 51.0727 319.706 51.968 320.363 52.648C321.02 53.328 321.938 53.668 323.117 53.668C324.432 53.668 325.35 53.3847 325.871 52.818C326.392 52.2287 326.653 51.594 326.653 50.914C326.653 50.1207 326.449 49.486 326.041 49.01C325.633 48.534 325.089 48.1487 324.409 47.854C323.752 47.5367 323.015 47.2533 322.199 47.004C321.406 46.7547 320.601 46.4713 319.785 46.154C318.969 45.8367 318.221 45.4287 317.541 44.93C316.884 44.4087 316.351 43.74 315.943 42.924C315.535 42.108 315.331 41.0653 315.331 39.796C315.331 38.3227 315.694 37.11 316.419 36.158C317.144 35.1833 318.096 34.458 319.275 33.982C320.476 33.506 321.757 33.268 323.117 33.268C324.5 33.268 325.758 33.506 326.891 33.982C328.047 34.458 328.965 35.206 329.645 36.226C330.348 37.2233 330.699 38.5267 330.699 40.136V40.544H326.245V40.238C326.245 39.2407 325.962 38.4587 325.395 37.892C324.851 37.3027 324.08 37.008 323.083 37.008C322.04 37.008 321.236 37.246 320.669 37.722C320.102 38.1753 319.819 38.7647 319.819 39.49C319.819 40.17 320.023 40.714 320.431 41.122C320.839 41.53 321.372 41.87 322.029 42.142C322.709 42.414 323.457 42.6747 324.273 42.924C325.089 43.1507 325.894 43.4227 326.687 43.74C327.503 44.0573 328.24 44.4767 328.897 44.998C329.577 45.4967 330.121 46.154 330.529 46.97C330.937 47.7633 331.141 48.772 331.141 49.996C331.141 51.7867 330.79 53.226 330.087 54.314C329.384 55.3793 328.41 56.1613 327.163 56.66C325.939 57.1587 324.522 57.408 322.913 57.408ZM344.567 57V37.552H338.787V33.676H354.699V37.552H348.919V57H344.567ZM383.616 57.408C382.188 57.408 380.862 57.136 379.638 56.592C378.414 56.048 377.428 55.2433 376.68 54.178C375.932 53.09 375.558 51.7527 375.558 50.166C375.558 50.03 375.558 49.894 375.558 49.758C375.581 49.622 375.592 49.5087 375.592 49.418H380.114C380.114 49.4407 380.103 49.52 380.08 49.656C380.08 49.7693 380.08 49.8713 380.08 49.962C380.08 51.0727 380.409 51.968 381.066 52.648C381.724 53.328 382.642 53.668 383.82 53.668C385.135 53.668 386.053 53.3847 386.574 52.818C387.096 52.2287 387.356 51.594 387.356 50.914C387.356 50.1207 387.152 49.486 386.744 49.01C386.336 48.534 385.792 48.1487 385.112 47.854C384.455 47.5367 383.718 47.2533 382.902 47.004C382.109 46.7547 381.304 46.4713 380.488 46.154C379.672 45.8367 378.924 45.4287 378.244 44.93C377.587 44.4087 377.054 43.74 376.646 42.924C376.238 42.108 376.034 41.0653 376.034 39.796C376.034 38.3227 376.397 37.11 377.122 36.158C377.848 35.1833 378.8 34.458 379.978 33.982C381.18 33.506 382.46 33.268 383.82 33.268C385.203 33.268 386.461 33.506 387.594 33.982C388.75 34.458 389.668 35.206 390.348 36.226C391.051 37.2233 391.402 38.5267 391.402 40.136V40.544H386.948V40.238C386.948 39.2407 386.665 38.4587 386.098 37.892C385.554 37.3027 384.784 37.008 383.786 37.008C382.744 37.008 381.939 37.246 381.372 37.722C380.806 38.1753 380.522 38.7647 380.522 39.49C380.522 40.17 380.726 40.714 381.134 41.122C381.542 41.53 382.075 41.87 382.732 42.142C383.412 42.414 384.16 42.6747 384.976 42.924C385.792 43.1507 386.597 43.4227 387.39 43.74C388.206 44.0573 388.943 44.4767 389.6 44.998C390.28 45.4967 390.824 46.154 391.232 46.97C391.64 47.7633 391.844 48.772 391.844 49.996C391.844 51.7867 391.493 53.226 390.79 54.314C390.088 55.3793 389.113 56.1613 387.866 56.66C386.642 57.1587 385.226 57.408 383.616 57.408ZM405.27 57V37.552H399.49V33.676H415.402V37.552H409.622V57H405.27ZM419.7 57L427.214 33.676H432.28L439.794 57H435.34L433.912 52.41H425.31L423.916 57H419.7ZM426.5 48.534H432.722L430.376 40.748C430.263 40.34 430.149 39.8867 430.036 39.388C429.923 38.8893 429.832 38.47 429.764 38.13C429.719 37.7673 429.696 37.586 429.696 37.586H429.56C429.56 37.586 429.526 37.7787 429.458 38.164C429.39 38.5267 429.299 38.9573 429.186 39.456C429.095 39.9547 428.993 40.3853 428.88 40.748L426.5 48.534ZM449.934 57V37.552H444.154V33.676H460.066V37.552H454.286V57H449.934ZM468.429 57V33.676H483.287V37.552H472.781V43.128H481.791V47.004H472.781V53.124H483.491V57H468.429Z" fill="#BD9B53"/>
</svg>
