<svg width="649" height="348" viewBox="0 0 649 348" fill="none" xmlns="http://www.w3.org/2000/svg">
<rect width="649" height="348" rx="41" fill="#F4F4F4"/>
<rect x="23" y="18" width="604" height="313" rx="22" fill="#F4F4F4" stroke="#12388D" stroke-width="6"/>
<path d="M178.985 51.11C178.985 53.57 178.565 55.655 177.725 57.365C176.885 59.045 175.655 60.32 174.035 61.19C172.445 62.03 170.48 62.45 168.14 62.45C164.72 62.45 162.095 61.52 160.265 59.66C158.435 57.8 157.52 55.01 157.52 51.29V29.87H165.17V50.93C165.17 52.67 165.425 53.915 165.935 54.665C166.445 55.385 167.21 55.745 168.23 55.745C168.95 55.745 169.535 55.595 169.985 55.295C170.465 54.965 170.81 54.455 171.02 53.765C171.23 53.045 171.335 52.085 171.335 50.885V29.87H178.985V51.11ZM182.953 58.355C182.953 57.005 183.313 55.97 184.033 55.25C184.753 54.5 185.788 54.125 187.138 54.125C188.458 54.125 189.463 54.5 190.153 55.25C190.843 55.97 191.188 57.005 191.188 58.355C191.188 59.675 190.828 60.71 190.108 61.46C189.418 62.18 188.428 62.54 187.138 62.54C185.848 62.54 184.828 62.18 184.078 61.46C183.328 60.71 182.953 59.675 182.953 58.355ZM212.537 52.235C212.537 54.215 212.117 55.985 211.277 57.545C210.467 59.075 209.312 60.275 207.812 61.145C206.312 62.015 204.527 62.45 202.457 62.45C201.527 62.45 200.627 62.39 199.757 62.27C198.887 62.15 198.017 61.94 197.147 61.64C196.307 61.34 195.422 60.935 194.492 60.425V52.685C195.752 53.525 197.042 54.185 198.362 54.665C199.682 55.145 200.897 55.385 202.007 55.385C202.637 55.385 203.147 55.28 203.537 55.07C203.957 54.86 204.257 54.575 204.437 54.215C204.647 53.855 204.752 53.45 204.752 53C204.752 52.52 204.662 52.085 204.482 51.695C204.332 51.275 203.972 50.825 203.402 50.345C202.862 49.835 202.007 49.22 200.837 48.5C199.907 47.9 199.052 47.3 198.272 46.7C197.522 46.1 196.877 45.44 196.337 44.72C195.797 43.97 195.377 43.13 195.077 42.2C194.807 41.24 194.672 40.115 194.672 38.825C194.672 36.905 195.047 35.255 195.797 33.875C196.547 32.465 197.642 31.37 199.082 30.59C200.552 29.81 202.337 29.42 204.437 29.42C205.757 29.42 207.092 29.615 208.442 30.005C209.792 30.365 211.157 30.935 212.537 31.715L210.512 38.42C209.402 37.73 208.367 37.22 207.407 36.89C206.447 36.53 205.562 36.35 204.752 36.35C204.212 36.35 203.762 36.44 203.402 36.62C203.072 36.8 202.817 37.055 202.637 37.385C202.487 37.685 202.412 38.03 202.412 38.42C202.412 38.99 202.502 39.485 202.682 39.905C202.892 40.295 203.297 40.73 203.897 41.21C204.497 41.66 205.397 42.26 206.597 43.01C207.887 43.79 208.967 44.63 209.837 45.53C210.737 46.4 211.412 47.375 211.862 48.455C212.312 49.535 212.537 50.795 212.537 52.235ZM215.692 58.355C215.692 57.005 216.052 55.97 216.772 55.25C217.492 54.5 218.527 54.125 219.877 54.125C221.197 54.125 222.202 54.5 222.892 55.25C223.582 55.97 223.927 57.005 223.927 58.355C223.927 59.675 223.567 60.71 222.847 61.46C222.157 62.18 221.167 62.54 219.877 62.54C218.587 62.54 217.567 62.18 216.817 61.46C216.067 60.71 215.692 59.675 215.692 58.355ZM247.157 43.19H258.362V60.515C256.712 61.175 255.017 61.67 253.277 62C251.567 62.3 249.812 62.45 248.012 62.45C245.372 62.45 243.122 61.805 241.262 60.515C239.432 59.225 238.037 57.35 237.077 54.89C236.117 52.4 235.637 49.385 235.637 45.845C235.637 42.395 236.177 39.455 237.257 37.025C238.367 34.565 239.957 32.69 242.027 31.4C244.097 30.08 246.587 29.42 249.497 29.42C251.177 29.42 252.722 29.615 254.132 30.005C255.572 30.365 256.817 30.845 257.867 31.445L255.752 37.7C254.882 37.13 253.937 36.71 252.917 36.44C251.927 36.14 250.877 35.99 249.767 35.99C248.417 35.99 247.277 36.38 246.347 37.16C245.447 37.94 244.757 39.08 244.277 40.58C243.827 42.08 243.602 43.91 243.602 46.07C243.602 48.17 243.782 49.955 244.142 51.425C244.502 52.865 245.042 53.96 245.762 54.71C246.512 55.46 247.412 55.835 248.462 55.835C248.732 55.835 249.002 55.82 249.272 55.79C249.542 55.76 249.812 55.715 250.082 55.655C250.352 55.595 250.607 55.535 250.847 55.475V49.58H247.157V43.19ZM286.747 45.89C286.747 48.59 286.477 50.975 285.937 53.045C285.427 55.085 284.662 56.81 283.642 58.22C282.622 59.63 281.347 60.695 279.817 61.415C278.287 62.105 276.532 62.45 274.552 62.45C272.572 62.45 270.817 62.09 269.287 61.37C267.787 60.65 266.512 59.6 265.462 58.22C264.412 56.81 263.617 55.07 263.077 53C262.567 50.93 262.312 48.545 262.312 45.845C262.312 42.275 262.777 39.275 263.707 36.845C264.637 34.385 266.017 32.525 267.847 31.265C269.677 30.005 271.912 29.375 274.552 29.375C277.222 29.375 279.457 30.005 281.257 31.265C283.087 32.495 284.452 34.34 285.352 36.8C286.282 39.23 286.747 42.26 286.747 45.89ZM270.277 45.89C270.277 48.08 270.427 49.91 270.727 51.38C271.057 52.82 271.537 53.915 272.167 54.665C272.827 55.385 273.622 55.745 274.552 55.745C275.512 55.745 276.307 55.4 276.937 54.71C277.567 53.99 278.032 52.91 278.332 51.47C278.632 50 278.782 48.14 278.782 45.89C278.782 42.5 278.422 39.995 277.702 38.375C277.012 36.755 275.962 35.945 274.552 35.945C273.622 35.945 272.827 36.32 272.167 37.07C271.537 37.79 271.057 38.885 270.727 40.355C270.427 41.825 270.277 43.67 270.277 45.89ZM313.662 29.87L305.472 62H296.562L288.462 29.87H296.472L299.712 45.71C299.862 46.4 300.027 47.27 300.207 48.32C300.387 49.34 300.552 50.36 300.702 51.38C300.852 52.37 300.957 53.195 301.017 53.855C301.107 53.195 301.227 52.37 301.377 51.38C301.527 50.39 301.692 49.385 301.872 48.365C302.052 47.315 302.217 46.445 302.367 45.755L305.652 29.87H313.662ZM331.778 62H316.298V29.87H331.778V36.35H323.948V42.155H331.193V48.635H323.948V55.43H331.778V62ZM344.844 29.87C347.334 29.87 349.404 30.23 351.054 30.95C352.704 31.64 353.934 32.69 354.744 34.1C355.584 35.48 356.004 37.235 356.004 39.365C356.004 40.595 355.839 41.75 355.509 42.83C355.209 43.88 354.729 44.84 354.069 45.71C353.439 46.55 352.629 47.315 351.639 48.005L358.344 62H349.929L344.889 49.94H343.899V62H336.249V29.87H344.844ZM344.754 36.26H343.899V44H344.709C345.489 44 346.119 43.85 346.599 43.55C347.109 43.22 347.484 42.74 347.724 42.11C347.994 41.48 348.129 40.7 348.129 39.77C348.129 38.99 347.994 38.345 347.724 37.835C347.484 37.295 347.109 36.905 346.599 36.665C346.119 36.395 345.504 36.26 344.754 36.26ZM384.98 62H376.07L367.7 42.02H367.52C367.58 42.92 367.625 43.76 367.655 44.54C367.715 45.32 367.76 46.055 367.79 46.745C367.82 47.405 367.835 48.035 367.835 48.635C367.865 49.205 367.88 49.715 367.88 50.165V62H360.77V29.87H369.635L377.96 49.31H378.14C378.11 48.5 378.065 47.735 378.005 47.015C377.975 46.265 377.945 45.575 377.915 44.945C377.885 44.285 377.855 43.67 377.825 43.1C377.825 42.53 377.825 42.005 377.825 41.525V29.87H384.98V62ZM402.811 62L397.276 40.4H397.096C397.186 41.36 397.246 42.29 397.276 43.19C397.336 44.09 397.381 44.945 397.411 45.755C397.441 46.565 397.456 47.33 397.456 48.05V62H390.301V29.87H400.786L405.781 49.175H405.916L410.911 29.87H421.306V62H413.971V47.915C413.971 47.105 413.986 46.31 414.016 45.53C414.046 44.72 414.076 43.895 414.106 43.055C414.166 42.185 414.226 41.3 414.286 40.4H414.106L408.481 62H402.811ZM442.08 62H426.6V29.87H442.08V36.35H434.25V42.155H441.495V48.635H434.25V55.43H442.08V62ZM470.761 62H461.851L453.481 42.02H453.301C453.361 42.92 453.406 43.76 453.436 44.54C453.496 45.32 453.541 46.055 453.571 46.745C453.601 47.405 453.616 48.035 453.616 48.635C453.646 49.205 453.661 49.715 453.661 50.165V62H446.551V29.87H455.416L463.741 49.31H463.921C463.891 48.5 463.846 47.735 463.786 47.015C463.756 46.265 463.726 45.575 463.696 44.945C463.666 44.285 463.636 43.67 463.606 43.1C463.606 42.53 463.606 42.005 463.606 41.525V29.87H470.761V62ZM487.603 62H479.998V36.485H474.193V29.87H493.363V36.485H487.603V62Z" fill="#001D8F"/>
<path d="M166.015 320H160.065V295.01H172.035V300.05H166.015V305.405H171.58V310.445H166.015V320ZM193.614 307.47C193.614 309.57 193.404 311.425 192.984 313.035C192.587 314.622 191.992 315.963 191.199 317.06C190.406 318.157 189.414 318.985 188.224 319.545C187.034 320.082 185.669 320.35 184.129 320.35C182.589 320.35 181.224 320.07 180.034 319.51C178.867 318.95 177.876 318.133 177.059 317.06C176.242 315.963 175.624 314.61 175.204 313C174.807 311.39 174.609 309.535 174.609 307.435C174.609 304.658 174.971 302.325 175.694 300.435C176.417 298.522 177.491 297.075 178.914 296.095C180.337 295.115 182.076 294.625 184.129 294.625C186.206 294.625 187.944 295.115 189.344 296.095C190.767 297.052 191.829 298.487 192.529 300.4C193.252 302.29 193.614 304.647 193.614 307.47ZM180.804 307.47C180.804 309.173 180.921 310.597 181.154 311.74C181.411 312.86 181.784 313.712 182.274 314.295C182.787 314.855 183.406 315.135 184.129 315.135C184.876 315.135 185.494 314.867 185.984 314.33C186.474 313.77 186.836 312.93 187.069 311.81C187.302 310.667 187.419 309.22 187.419 307.47C187.419 304.833 187.139 302.885 186.579 301.625C186.042 300.365 185.226 299.735 184.129 299.735C183.406 299.735 182.787 300.027 182.274 300.61C181.784 301.17 181.411 302.022 181.154 303.165C180.921 304.308 180.804 305.743 180.804 307.47ZM203.732 295.01C205.669 295.01 207.279 295.29 208.562 295.85C209.846 296.387 210.802 297.203 211.432 298.3C212.086 299.373 212.412 300.738 212.412 302.395C212.412 303.352 212.284 304.25 212.027 305.09C211.794 305.907 211.421 306.653 210.907 307.33C210.417 307.983 209.787 308.578 209.017 309.115L214.232 320H207.687L203.767 310.62H202.997V320H197.047V295.01H203.732ZM203.662 299.98H202.997V306H203.627C204.234 306 204.724 305.883 205.097 305.65C205.494 305.393 205.786 305.02 205.972 304.53C206.182 304.04 206.287 303.433 206.287 302.71C206.287 302.103 206.182 301.602 205.972 301.205C205.786 300.785 205.494 300.482 205.097 300.295C204.724 300.085 204.246 299.98 203.662 299.98ZM240.577 307.47C240.577 309.57 240.367 311.425 239.947 313.035C239.55 314.622 238.955 315.963 238.162 317.06C237.369 318.157 236.377 318.985 235.187 319.545C233.997 320.082 232.632 320.35 231.092 320.35C229.552 320.35 228.187 320.07 226.997 319.51C225.83 318.95 224.839 318.133 224.022 317.06C223.205 315.963 222.587 314.61 222.167 313C221.77 311.39 221.572 309.535 221.572 307.435C221.572 304.658 221.934 302.325 222.657 300.435C223.38 298.522 224.454 297.075 225.877 296.095C227.3 295.115 229.039 294.625 231.092 294.625C233.169 294.625 234.907 295.115 236.307 296.095C237.73 297.052 238.792 298.487 239.492 300.4C240.215 302.29 240.577 304.647 240.577 307.47ZM227.767 307.47C227.767 309.173 227.884 310.597 228.117 311.74C228.374 312.86 228.747 313.712 229.237 314.295C229.75 314.855 230.369 315.135 231.092 315.135C231.839 315.135 232.457 314.867 232.947 314.33C233.437 313.77 233.799 312.93 234.032 311.81C234.265 310.667 234.382 309.22 234.382 307.47C234.382 304.833 234.102 302.885 233.542 301.625C233.005 300.365 232.189 299.735 231.092 299.735C230.369 299.735 229.75 300.027 229.237 300.61C228.747 301.17 228.374 302.022 228.117 303.165C227.884 304.308 227.767 305.743 227.767 307.47ZM249.96 320H244.01V295.01H255.98V300.05H249.96V305.405H255.525V310.445H249.96V320ZM265.204 320H259.254V295.01H271.224V300.05H265.204V305.405H270.769V310.445H265.204V320ZM283.949 320H273.309V316.815L275.654 315.59V299.42L273.309 298.195V295.01H283.949V298.195L281.604 299.42V315.59L283.949 316.815V320ZM296.007 299.77C295.423 299.77 294.898 299.957 294.432 300.33C293.988 300.68 293.615 301.193 293.312 301.87C293.008 302.547 292.775 303.375 292.612 304.355C292.448 305.312 292.367 306.397 292.367 307.61C292.367 309.29 292.507 310.702 292.787 311.845C293.09 312.965 293.533 313.805 294.117 314.365C294.7 314.925 295.423 315.205 296.287 315.205C297.103 315.205 297.885 315.053 298.632 314.75C299.378 314.447 300.125 314.073 300.872 313.63V318.95C300.078 319.417 299.215 319.767 298.282 320C297.348 320.233 296.368 320.35 295.342 320.35C293.358 320.35 291.678 319.86 290.302 318.88C288.948 317.9 287.922 316.465 287.222 314.575C286.522 312.662 286.172 310.328 286.172 307.575C286.172 305.638 286.382 303.888 286.802 302.325C287.245 300.738 287.863 299.373 288.657 298.23C289.473 297.087 290.453 296.212 291.597 295.605C292.74 294.975 294.035 294.66 295.482 294.66C296.578 294.66 297.64 294.8 298.667 295.08C299.693 295.36 300.708 295.803 301.712 296.41L300.137 301.31C299.483 300.843 298.818 300.47 298.142 300.19C297.465 299.91 296.753 299.77 296.007 299.77ZM314.061 320H303.421V316.815L305.766 315.59V299.42L303.421 298.195V295.01H314.061V298.195L311.716 299.42V315.59L314.061 316.815V320ZM328.639 320L327.694 315.135H322.304L321.359 320H314.919L321.009 295.01H328.849L335.009 320H328.639ZM325.769 304.425C325.652 303.795 325.547 303.188 325.454 302.605C325.361 302.022 325.279 301.462 325.209 300.925C325.139 300.365 325.069 299.852 324.999 299.385C324.952 299.828 324.894 300.318 324.824 300.855C324.754 301.392 324.661 301.952 324.544 302.535C324.451 303.118 324.346 303.725 324.229 304.355L323.179 310.025H326.784L325.769 304.425ZM337.082 320V295.01H343.032V314.89H349.542V320H337.082ZM374.795 311.53C374.795 313.443 374.468 315.065 373.815 316.395C373.161 317.702 372.205 318.693 370.945 319.37C369.708 320.023 368.18 320.35 366.36 320.35C363.7 320.35 361.658 319.627 360.235 318.18C358.811 316.733 358.1 314.563 358.1 311.67V295.01H364.05V311.39C364.05 312.743 364.248 313.712 364.645 314.295C365.041 314.855 365.636 315.135 366.43 315.135C366.99 315.135 367.445 315.018 367.795 314.785C368.168 314.528 368.436 314.132 368.6 313.595C368.763 313.035 368.845 312.288 368.845 311.355V295.01H374.795V311.53ZM391.731 312.405C391.731 313.945 391.404 315.322 390.751 316.535C390.121 317.725 389.222 318.658 388.056 319.335C386.889 320.012 385.501 320.35 383.891 320.35C383.167 320.35 382.467 320.303 381.791 320.21C381.114 320.117 380.437 319.953 379.761 319.72C379.107 319.487 378.419 319.172 377.696 318.775V312.755C378.676 313.408 379.679 313.922 380.706 314.295C381.732 314.668 382.677 314.855 383.541 314.855C384.031 314.855 384.427 314.773 384.731 314.61C385.057 314.447 385.291 314.225 385.431 313.945C385.594 313.665 385.676 313.35 385.676 313C385.676 312.627 385.606 312.288 385.466 311.985C385.349 311.658 385.069 311.308 384.626 310.935C384.206 310.538 383.541 310.06 382.631 309.5C381.907 309.033 381.242 308.567 380.636 308.1C380.052 307.633 379.551 307.12 379.131 306.56C378.711 305.977 378.384 305.323 378.151 304.6C377.941 303.853 377.836 302.978 377.836 301.975C377.836 300.482 378.127 299.198 378.711 298.125C379.294 297.028 380.146 296.177 381.266 295.57C382.409 294.963 383.797 294.66 385.431 294.66C386.457 294.66 387.496 294.812 388.546 295.115C389.596 295.395 390.657 295.838 391.731 296.445L390.156 301.66C389.292 301.123 388.487 300.727 387.741 300.47C386.994 300.19 386.306 300.05 385.676 300.05C385.256 300.05 384.906 300.12 384.626 300.26C384.369 300.4 384.171 300.598 384.031 300.855C383.914 301.088 383.856 301.357 383.856 301.66C383.856 302.103 383.926 302.488 384.066 302.815C384.229 303.118 384.544 303.457 385.011 303.83C385.477 304.18 386.177 304.647 387.111 305.23C388.114 305.837 388.954 306.49 389.631 307.19C390.331 307.867 390.856 308.625 391.206 309.465C391.556 310.305 391.731 311.285 391.731 312.405ZM406.714 320H394.674V295.01H406.714V300.05H400.624V304.565H406.259V309.605H400.624V314.89H406.714V320ZM434.649 307.47C434.649 309.57 434.439 311.425 434.019 313.035C433.623 314.622 433.028 315.963 432.234 317.06C431.441 318.157 430.449 318.985 429.259 319.545C428.069 320.082 426.704 320.35 425.164 320.35C423.624 320.35 422.259 320.07 421.069 319.51C419.903 318.95 418.911 318.133 418.094 317.06C417.278 315.963 416.659 314.61 416.239 313C415.843 311.39 415.644 309.535 415.644 307.435C415.644 304.658 416.006 302.325 416.729 300.435C417.453 298.522 418.526 297.075 419.949 296.095C421.373 295.115 423.111 294.625 425.164 294.625C427.241 294.625 428.979 295.115 430.379 296.095C431.803 297.052 432.864 298.487 433.564 300.4C434.288 302.29 434.649 304.647 434.649 307.47ZM421.839 307.47C421.839 309.173 421.956 310.597 422.189 311.74C422.446 312.86 422.819 313.712 423.309 314.295C423.823 314.855 424.441 315.135 425.164 315.135C425.911 315.135 426.529 314.867 427.019 314.33C427.509 313.77 427.871 312.93 428.104 311.81C428.338 310.667 428.454 309.22 428.454 307.47C428.454 304.833 428.174 302.885 427.614 301.625C427.078 300.365 426.261 299.735 425.164 299.735C424.441 299.735 423.823 300.027 423.309 300.61C422.819 301.17 422.446 302.022 422.189 303.165C421.956 304.308 421.839 305.743 421.839 307.47ZM456.913 320H449.983L443.473 304.46H443.333C443.379 305.16 443.414 305.813 443.438 306.42C443.484 307.027 443.519 307.598 443.543 308.135C443.566 308.648 443.578 309.138 443.578 309.605C443.601 310.048 443.613 310.445 443.613 310.795V320H438.083V295.01H444.978L451.453 310.13H451.593C451.569 309.5 451.534 308.905 451.488 308.345C451.464 307.762 451.441 307.225 451.418 306.735C451.394 306.222 451.371 305.743 451.348 305.3C451.348 304.857 451.348 304.448 451.348 304.075V295.01H456.913V320ZM461.051 320V295.01H467.001V314.89H473.511V320H461.051ZM481.864 304.11L484.909 295.01H491.034L484.804 310.41V320H478.854V310.62L472.624 295.01H478.819L481.864 304.11Z" fill="#001D8F"/>
<rect x="47" y="248" width="72" height="72" fill="#001D8F"/>
<path d="M64.245 296.805H72.89V309.055C71.5367 309.498 70.1717 309.825 68.795 310.035C67.4183 310.245 65.855 310.35 64.105 310.35C61.515 310.35 59.3333 309.837 57.56 308.81C55.7867 307.76 54.4333 306.278 53.5 304.365C52.59 302.428 52.135 300.142 52.135 297.505C52.135 294.892 52.6483 292.628 53.675 290.715C54.7017 288.802 56.1717 287.32 58.085 286.27C60.0217 285.197 62.355 284.66 65.085 284.66C66.485 284.66 67.8033 284.788 69.04 285.045C70.3 285.302 71.4667 285.663 72.54 286.13L71.35 288.86C70.4633 288.463 69.46 288.125 68.34 287.845C67.2433 287.565 66.1 287.425 64.91 287.425C62.9267 287.425 61.2233 287.833 59.8 288.65C58.3767 289.467 57.2917 290.633 56.545 292.15C55.7983 293.643 55.425 295.428 55.425 297.505C55.425 299.488 55.74 301.25 56.37 302.79C57.0233 304.307 58.0383 305.497 59.415 306.36C60.7917 307.2 62.6 307.62 64.84 307.62C65.5867 307.62 66.24 307.597 66.8 307.55C67.3833 307.48 67.9083 307.398 68.375 307.305C68.865 307.212 69.32 307.118 69.74 307.025V299.605H64.245V296.805ZM92.5089 303.315C92.5089 304.808 92.1472 306.08 91.4239 307.13C90.7005 308.157 89.6622 308.95 88.3089 309.51C86.9789 310.07 85.4039 310.35 83.5839 310.35C82.6505 310.35 81.7522 310.303 80.8889 310.21C80.0489 310.117 79.2789 309.988 78.5789 309.825C77.8789 309.638 77.2605 309.417 76.7239 309.16V306.15C77.5639 306.523 78.6022 306.862 79.8389 307.165C81.0989 307.468 82.3939 307.62 83.7239 307.62C84.9605 307.62 85.9989 307.457 86.8389 307.13C87.6789 306.803 88.3089 306.337 88.7289 305.73C89.1489 305.123 89.3589 304.412 89.3589 303.595C89.3589 302.778 89.1839 302.09 88.8339 301.53C88.4839 300.97 87.8772 300.457 87.0139 299.99C86.1739 299.5 84.9955 298.987 83.4789 298.45C82.4055 298.053 81.4605 297.633 80.6439 297.19C79.8505 296.723 79.1855 296.198 78.6489 295.615C78.1122 295.032 77.7039 294.367 77.4239 293.62C77.1672 292.873 77.0389 292.01 77.0389 291.03C77.0389 289.7 77.3772 288.568 78.0539 287.635C78.7305 286.678 79.6639 285.943 80.8539 285.43C82.0672 284.917 83.4555 284.66 85.0189 284.66C86.3955 284.66 87.6555 284.788 88.7989 285.045C89.9422 285.302 90.9805 285.64 91.9139 286.06L90.9339 288.755C90.0705 288.382 89.1255 288.067 88.0989 287.81C87.0955 287.553 86.0455 287.425 84.9489 287.425C83.8989 287.425 83.0239 287.577 82.3239 287.88C81.6239 288.183 81.0989 288.615 80.7489 289.175C80.3989 289.712 80.2239 290.342 80.2239 291.065C80.2239 291.905 80.3989 292.605 80.7489 293.165C81.0989 293.725 81.6705 294.227 82.4639 294.67C83.2572 295.113 84.3305 295.592 85.6839 296.105C87.1539 296.642 88.3905 297.225 89.3939 297.855C90.4205 298.462 91.1905 299.197 91.7039 300.06C92.2405 300.923 92.5089 302.008 92.5089 303.315ZM112.698 310L109.688 302.265H99.7829L96.8079 310H93.6229L103.388 284.905H106.223L115.953 310H112.698ZM105.943 291.905C105.873 291.718 105.756 291.38 105.593 290.89C105.43 290.4 105.266 289.898 105.103 289.385C104.963 288.848 104.846 288.44 104.753 288.16C104.636 288.627 104.508 289.105 104.368 289.595C104.251 290.062 104.123 290.493 103.983 290.89C103.866 291.287 103.761 291.625 103.668 291.905L100.833 299.465H108.743L105.943 291.905Z" fill="white"/>
</svg>
