<svg width="649" height="348" viewBox="0 0 649 348" fill="none" xmlns="http://www.w3.org/2000/svg">
<rect x="5" y="5" width="639" height="338" rx="36" fill="white" stroke="black" stroke-width="10"/>
<path d="M182 85.5L177 82L268 79L273.5 87.5L362.5 92L367.5 97L370 82L388.5 87.5L391.5 104L397 125L409 147.5L421.5 173.5L425 189L432 208L440 229.5L437.5 271L432 280L429.5 291L421.5 296H409L401 291L394 278L388.5 271L378.5 267V253L370 241.5L367.5 208L349 157L333 122.5L321 115H299.5L286 122.5L270.5 130H259L253 125L246.5 115L238.5 107.5L227.5 104L213.5 101.5L202 104L185.5 107.5L187.5 101.5V92L182 85.5Z" fill="#C0D7D1"/>
<path d="M177.9 294.65H172.8V293.5C172.8 292.333 172.517 291.333 171.95 290.5C171.417 289.633 170.5 289.2 169.2 289.2C168.5 289.2 167.933 289.333 167.5 289.6C167.067 289.867 166.717 290.2 166.45 290.6C166.183 291.033 166 291.533 165.9 292.1C165.8 292.633 165.75 293.2 165.75 293.8C165.75 294.5 165.767 295.083 165.8 295.55C165.867 296.017 166 296.433 166.2 296.8C166.4 297.167 166.683 297.483 167.05 297.75C167.45 298.017 167.983 298.283 168.65 298.55L172.55 300.1C173.683 300.533 174.6 301.05 175.3 301.65C176 302.217 176.55 302.883 176.95 303.65C177.317 304.45 177.567 305.367 177.7 306.4C177.833 307.4 177.9 308.55 177.9 309.85C177.9 311.35 177.75 312.75 177.45 314.05C177.15 315.317 176.667 316.4 176 317.3C175.3 318.233 174.383 318.967 173.25 319.5C172.117 320.033 170.733 320.3 169.1 320.3C167.867 320.3 166.717 320.083 165.65 319.65C164.583 319.217 163.667 318.617 162.9 317.85C162.133 317.083 161.517 316.2 161.05 315.2C160.617 314.167 160.4 313.05 160.4 311.85V309.95H165.5V311.55C165.5 312.483 165.767 313.333 166.3 314.1C166.867 314.833 167.8 315.2 169.1 315.2C169.967 315.2 170.633 315.083 171.1 314.85C171.6 314.583 171.983 314.217 172.25 313.75C172.517 313.283 172.667 312.733 172.7 312.1C172.767 311.433 172.8 310.7 172.8 309.9C172.8 308.967 172.767 308.2 172.7 307.6C172.633 307 172.5 306.517 172.3 306.15C172.067 305.783 171.75 305.483 171.35 305.25C170.983 305.017 170.483 304.767 169.85 304.5L166.2 303C164 302.1 162.517 300.917 161.75 299.45C161.017 297.95 160.65 296.083 160.65 293.85C160.65 292.517 160.833 291.25 161.2 290.05C161.567 288.85 162.117 287.817 162.85 286.95C163.55 286.083 164.433 285.4 165.5 284.9C166.6 284.367 167.9 284.1 169.4 284.1C170.667 284.1 171.817 284.333 172.85 284.8C173.917 285.267 174.833 285.883 175.6 286.65C177.133 288.25 177.9 290.083 177.9 292.15V294.65ZM204.213 284.4V312C204.213 313.167 203.996 314.25 203.563 315.25C203.163 316.217 202.579 317.083 201.813 317.85C201.046 318.617 200.163 319.217 199.163 319.65C198.163 320.083 197.096 320.3 195.963 320.3C194.829 320.3 193.763 320.083 192.763 319.65C191.796 319.217 190.929 318.617 190.163 317.85C189.396 317.083 188.796 316.217 188.363 315.25C187.929 314.25 187.713 313.167 187.713 312V284.4H192.813V311.5C192.813 312.767 193.113 313.7 193.713 314.3C194.313 314.9 195.063 315.2 195.963 315.2C196.863 315.2 197.613 314.9 198.213 314.3C198.813 313.7 199.113 312.767 199.113 311.5V284.4H204.213ZM214.802 320V284.4H219.702L227.402 305.85H227.502V284.4H232.602V320H227.802L220.002 298.6H219.902V320H214.802ZM259.718 294.65H254.618V293.5C254.618 292.333 254.335 291.333 253.768 290.5C253.235 289.633 252.318 289.2 251.018 289.2C250.318 289.2 249.752 289.333 249.318 289.6C248.885 289.867 248.535 290.2 248.268 290.6C248.002 291.033 247.818 291.533 247.718 292.1C247.618 292.633 247.568 293.2 247.568 293.8C247.568 294.5 247.585 295.083 247.618 295.55C247.685 296.017 247.818 296.433 248.018 296.8C248.218 297.167 248.502 297.483 248.868 297.75C249.268 298.017 249.802 298.283 250.468 298.55L254.368 300.1C255.502 300.533 256.418 301.05 257.118 301.65C257.818 302.217 258.368 302.883 258.768 303.65C259.135 304.45 259.385 305.367 259.518 306.4C259.652 307.4 259.718 308.55 259.718 309.85C259.718 311.35 259.568 312.75 259.268 314.05C258.968 315.317 258.485 316.4 257.818 317.3C257.118 318.233 256.202 318.967 255.068 319.5C253.935 320.033 252.552 320.3 250.918 320.3C249.685 320.3 248.535 320.083 247.468 319.65C246.402 319.217 245.485 318.617 244.718 317.85C243.952 317.083 243.335 316.2 242.868 315.2C242.435 314.167 242.218 313.05 242.218 311.85V309.95H247.318V311.55C247.318 312.483 247.585 313.333 248.118 314.1C248.685 314.833 249.618 315.2 250.918 315.2C251.785 315.2 252.452 315.083 252.918 314.85C253.418 314.583 253.802 314.217 254.068 313.75C254.335 313.283 254.485 312.733 254.518 312.1C254.585 311.433 254.618 310.7 254.618 309.9C254.618 308.967 254.585 308.2 254.518 307.6C254.452 307 254.318 306.517 254.118 306.15C253.885 305.783 253.568 305.483 253.168 305.25C252.802 305.017 252.302 304.767 251.668 304.5L248.018 303C245.818 302.1 244.335 300.917 243.568 299.45C242.835 297.95 242.468 296.083 242.468 293.85C242.468 292.517 242.652 291.25 243.018 290.05C243.385 288.85 243.935 287.817 244.668 286.95C245.368 286.083 246.252 285.4 247.318 284.9C248.418 284.367 249.718 284.1 251.218 284.1C252.485 284.1 253.635 284.333 254.668 284.8C255.735 285.267 256.652 285.883 257.418 286.65C258.952 288.25 259.718 290.083 259.718 292.15V294.65ZM269.531 320V284.4H274.631V299.65H280.931V284.4H286.031V320H280.931V304.15H274.631V320H269.531ZM296.97 320V284.4H302.07V320H296.97ZM312.825 320V284.4H317.725L325.425 305.85H325.525V284.4H330.625V320H325.825L318.025 298.6H317.925V320H312.825ZM341.242 320V284.4H356.442V289.2H346.342V299.65H355.142V304.45H346.342V314.9H356.442V320H341.242ZM397.525 294.65H392.425V293.5C392.425 292.333 392.142 291.333 391.575 290.5C391.042 289.633 390.125 289.2 388.825 289.2C388.125 289.2 387.558 289.333 387.125 289.6C386.692 289.867 386.342 290.2 386.075 290.6C385.808 291.033 385.625 291.533 385.525 292.1C385.425 292.633 385.375 293.2 385.375 293.8C385.375 294.5 385.392 295.083 385.425 295.55C385.492 296.017 385.625 296.433 385.825 296.8C386.025 297.167 386.308 297.483 386.675 297.75C387.075 298.017 387.608 298.283 388.275 298.55L392.175 300.1C393.308 300.533 394.225 301.05 394.925 301.65C395.625 302.217 396.175 302.883 396.575 303.65C396.942 304.45 397.192 305.367 397.325 306.4C397.458 307.4 397.525 308.55 397.525 309.85C397.525 311.35 397.375 312.75 397.075 314.05C396.775 315.317 396.292 316.4 395.625 317.3C394.925 318.233 394.008 318.967 392.875 319.5C391.742 320.033 390.358 320.3 388.725 320.3C387.492 320.3 386.342 320.083 385.275 319.65C384.208 319.217 383.292 318.617 382.525 317.85C381.758 317.083 381.142 316.2 380.675 315.2C380.242 314.167 380.025 313.05 380.025 311.85V309.95H385.125V311.55C385.125 312.483 385.392 313.333 385.925 314.1C386.492 314.833 387.425 315.2 388.725 315.2C389.592 315.2 390.258 315.083 390.725 314.85C391.225 314.583 391.608 314.217 391.875 313.75C392.142 313.283 392.292 312.733 392.325 312.1C392.392 311.433 392.425 310.7 392.425 309.9C392.425 308.967 392.392 308.2 392.325 307.6C392.258 307 392.125 306.517 391.925 306.15C391.692 305.783 391.375 305.483 390.975 305.25C390.608 305.017 390.108 304.767 389.475 304.5L385.825 303C383.625 302.1 382.142 300.917 381.375 299.45C380.642 297.95 380.275 296.083 380.275 293.85C380.275 292.517 380.458 291.25 380.825 290.05C381.192 288.85 381.742 287.817 382.475 286.95C383.175 286.083 384.058 285.4 385.125 284.9C386.225 284.367 387.525 284.1 389.025 284.1C390.292 284.1 391.442 284.333 392.475 284.8C393.542 285.267 394.458 285.883 395.225 286.65C396.758 288.25 397.525 290.083 397.525 292.15V294.65ZM410.688 320V289.2H404.787V284.4H421.688V289.2H415.788V320H410.688ZM437.505 307.55L435.005 294.65H434.905L432.405 307.55H437.505ZM424.905 320L432.855 284.4H437.105L445.055 320H439.955L438.455 312.35H431.505L430.005 320H424.905ZM454.182 320V289.2H448.282V284.4H465.182V289.2H459.282V320H454.182ZM473.433 320V284.4H488.633V289.2H478.533V299.65H487.333V304.45H478.533V314.9H488.633V320H473.433Z" fill="#02412F"/>
<path d="M207.692 74.7793C207.123 75.1862 206.236 75.3896 205.031 75.3896C203.827 75.3896 202.956 75.1618 202.419 74.7061C201.882 74.234 201.613 73.6237 201.613 72.875V72.3135C201.613 72.0205 201.809 71.3939 202.199 70.4336C202.606 69.457 202.85 68.4886 202.932 67.5283C203.501 60.9202 203.786 56.013 203.786 52.8066C203.786 49.6003 203.754 47.7285 203.688 47.1914C203.623 46.6543 203.469 46.0114 203.225 45.2627C202.997 44.514 202.883 44.1234 202.883 44.0908C202.883 43.2282 203.436 42.6992 204.543 42.5039C207.863 41.918 212.714 41.625 219.094 41.625H220.607C221.812 41.625 222.674 41.7878 223.195 42.1133C223.732 42.4388 224.001 43.0492 224.001 43.9443V44.5303C224.001 45.7184 223.448 46.3125 222.341 46.3125C222.097 46.3125 221.592 46.2148 220.827 46.0195C220.062 45.8242 219.346 45.6696 218.679 45.5557C218.028 45.4255 216.636 45.3604 214.504 45.3604C212.388 45.3604 211.005 45.8568 210.354 46.8496C209.719 47.8424 209.401 49.7956 209.401 52.709C209.401 54.2064 209.637 55.2074 210.109 55.7119C210.598 56.2002 211.721 56.4443 213.479 56.4443C213.918 56.4443 214.577 56.3548 215.456 56.1758C216.335 55.9967 217.092 55.9072 217.727 55.9072C218.361 55.9072 218.923 56.1839 219.411 56.7373C219.916 57.2907 220.168 58.0719 220.168 59.0811C220.168 60.5296 219.419 61.2539 217.922 61.2539L215.09 61.0098C213.853 61.0098 212.746 61.2214 211.77 61.6445C210.793 62.0514 210.126 62.5479 209.768 63.1338C208.889 64.5661 208.449 66.9587 208.449 70.3115L208.571 73.1924C208.571 73.8271 208.278 74.3561 207.692 74.7793ZM254.62 76.0488H250.885L250.274 76.0244L242.828 75.9023C242.438 75.8861 241.689 75.8779 240.582 75.8779C238.336 75.8779 237.205 75.1618 237.188 73.7295C237.188 73.4691 237.302 73.0785 237.53 72.5576C237.774 72.0368 237.962 71.5648 238.092 71.1416C238.238 70.7184 238.482 68.8467 238.824 65.5264C239.166 62.2061 239.337 57.7546 239.337 52.1719L239.386 50.9756V48.8516C239.386 48.0052 239.199 47.0775 238.824 46.0684C238.466 45.043 238.287 44.3268 238.287 43.9199C238.287 43.4967 238.523 43.0329 238.995 42.5283C239.467 42.0075 240.216 41.7471 241.241 41.7471H242.413C243.666 41.7471 244.635 41.9993 245.318 42.5039C246.018 42.9922 246.368 43.513 246.368 44.0664C246.368 44.6035 246.173 45.3441 245.782 46.2881C245.392 47.2158 245.131 48.3063 245.001 49.5596C244.48 54.5563 244.22 59.2926 244.22 63.7686L244.171 64.9648L244.146 66.7715C244.146 69.3105 244.431 70.8324 245.001 71.3369C245.571 71.8415 246.938 72.0938 249.103 72.0938C251.267 72.0938 253.09 71.8577 254.571 71.3857C254.864 71.2881 255.434 71.0684 256.28 70.7266C257.127 70.3848 257.786 70.2139 258.258 70.2139C259.218 70.2139 259.698 70.8324 259.698 72.0693C259.698 73.6807 259.324 74.7467 258.575 75.2676C257.843 75.7884 256.524 76.0488 254.62 76.0488ZM295.835 56.8105C295.835 56.7617 295.835 56.7129 295.835 56.6641C295.835 55.248 295.615 53.7262 295.176 52.0986C294.378 49.0876 293.019 47.0124 291.099 45.873C289.927 45.1732 288.771 44.8232 287.632 44.8232H286.484C285.117 44.8232 283.815 45.2464 282.578 46.0928C280.267 47.6715 278.68 50.0885 277.817 53.3438C277.28 55.362 277.012 57.3558 277.012 59.3252V60.9609C277.012 64.3464 277.793 67.1947 279.355 69.5059C280.934 71.8008 283.083 72.9482 285.801 72.9482H286.191C287.526 72.9482 288.796 72.6146 290 71.9473C292.262 70.6777 293.914 68.2852 294.956 64.7695C295.509 62.9303 295.786 61.0993 295.786 59.2764L295.835 58.4463V56.8105ZM301.597 56.6152V58.251C301.597 60.6761 301.214 63.0605 300.449 65.4043C298.984 69.9128 296.405 73.0866 292.71 74.9258C290.562 76 288.372 76.5371 286.143 76.5371H285.044C283.237 76.5371 281.471 76.1465 279.746 75.3652C276.312 73.8353 273.984 71.1986 272.764 67.4551C272.048 65.2578 271.689 62.9954 271.689 60.668V59.5693C271.689 57.2581 272.072 54.89 272.837 52.4648C273.618 50.0397 274.725 48.0052 276.157 46.3613C277.59 44.7012 279.25 43.4479 281.138 42.6016C283.026 41.7552 284.954 41.332 286.924 41.332H288.022C290.106 41.332 291.969 41.7308 293.613 42.5283C296.82 44.0908 299.049 46.5404 300.303 49.877C301.165 52.1719 301.597 54.418 301.597 56.6152ZM334.511 51.2441V50.5361C334.511 48.762 333.925 47.3786 332.753 46.3857C331.581 45.3929 329.962 44.8965 327.895 44.8965H327.016C325.453 44.8965 324.436 45.1081 323.964 45.5312C323.492 45.9544 323.256 46.9391 323.256 48.4854L323.207 48.9248L322.89 55.9072V56.7617C322.89 57.3639 323.052 57.7708 323.378 57.9824C323.72 58.194 324.363 58.2998 325.307 58.2998L325.526 58.2754L326.381 58.251L327.235 58.2021C329.286 58.2021 331.011 57.5592 332.411 56.2734C333.811 54.9714 334.511 53.2949 334.511 51.2441ZM322.743 68.4072L323.256 72.4844C323.256 73.3958 322.873 74.1201 322.108 74.6572C321.36 75.1943 320.359 75.4629 319.105 75.4629C316.859 75.4629 315.736 74.5677 315.736 72.7773C315.736 72.403 315.964 71.7438 316.42 70.7998C316.876 69.8395 317.152 68.8792 317.25 67.9189C317.673 63.7523 317.885 58.7637 317.885 52.9531L317.909 52.2207C317.925 51.7324 317.934 51.2523 317.934 50.7803L317.982 48.6074C317.982 46.7682 317.934 45.4824 317.836 44.75L317.738 44.2373C317.657 43.7653 317.616 43.4642 317.616 43.334C317.616 42.6016 318.153 42.1214 319.228 41.8936C320.302 41.6657 322.507 41.5518 325.844 41.5518H328.139C333.64 41.5518 337.213 43.1631 338.856 46.3857C339.426 47.5413 339.711 48.9004 339.711 50.4629C339.711 53.3275 338.507 55.9398 336.098 58.2998C334.763 59.6019 334.096 60.6517 334.096 61.4492C334.096 62.2467 335.089 64.4521 337.074 68.0654C337.725 69.2373 338.539 70.3685 339.516 71.459C340.492 72.5495 340.98 73.3226 340.98 73.7783V74.2666C340.98 75.1455 340.264 75.585 338.832 75.585C337.4 75.585 336.334 75.2106 335.634 74.4619C334.95 73.6969 333.795 71.8089 332.167 68.7979C330.556 65.7868 329.669 64.1836 329.506 63.9883C328.497 62.7839 327.398 62.1816 326.21 62.1816C325.022 62.1816 324.07 62.8001 323.354 64.0371C322.947 64.737 322.743 66.1937 322.743 68.4072ZM361.517 75.9023H360.125C358.709 75.9023 357.61 75.7233 356.829 75.3652C356.064 75.0072 355.682 74.5677 355.682 74.0469C355.682 73.5098 355.991 72.7611 356.609 71.8008C357.228 70.8242 357.635 69.7419 357.83 68.5537C358.253 66.0146 358.465 62.9792 358.465 59.4473C358.465 59.431 358.489 58.9427 358.538 57.9824L358.636 56.0781L358.709 52.7578C358.709 50.1862 358.628 48.5667 358.465 47.8994C358.302 47.2158 358.001 46.5322 357.562 45.8486C357.138 45.1488 356.927 44.5954 356.927 44.1885C356.927 42.5609 358.652 41.7471 362.103 41.7471H363.03C364.056 41.7471 364.853 41.9505 365.423 42.3574C366.009 42.748 366.302 43.1549 366.302 43.5781V43.9443C366.302 44.1722 366.049 44.7093 365.545 45.5557C365.057 46.402 364.747 47.1914 364.617 47.9238C364.096 50.7884 363.836 54.7842 363.836 59.9111L363.665 63.3047C363.649 63.6302 363.641 63.9476 363.641 64.2568L363.567 65.6973L363.519 67.5527C363.519 69.1478 363.608 70.2057 363.787 70.7266C363.982 71.2474 364.227 71.7682 364.52 72.2891C364.812 72.8099 364.959 73.3551 364.959 73.9248C364.959 74.4945 364.609 74.9665 363.909 75.3408C363.226 75.7152 362.428 75.9023 361.517 75.9023ZM388.254 50.5117C388.14 52.2207 388.083 53.4902 388.083 54.3203L388.034 55.1016L387.961 57.4209L387.912 58.2021L387.814 60.9121C387.782 61.4329 387.766 61.8236 387.766 62.084L387.717 62.8652C387.684 63.3861 387.668 63.7686 387.668 64.0127L387.619 64.7695C387.603 65.0299 387.595 65.2904 387.595 65.5508L387.546 66.3076L387.473 68.9688V70.4336C387.473 71.2148 387.766 71.7438 388.352 72.0205C388.938 72.2809 389.792 72.4111 390.915 72.4111H392.014C395.497 72.4111 398.247 71.1172 400.266 68.5293C401.145 67.4062 401.861 65.9251 402.414 64.0859C402.967 62.2467 403.244 60.1797 403.244 57.8848V57.4697C403.244 51.4639 401.275 47.5739 397.336 45.7998C396.164 45.279 394.846 45.0186 393.381 45.0186H392.258C390.435 45.0186 389.312 45.3115 388.889 45.8975C388.465 46.4671 388.254 48.0052 388.254 50.5117ZM382.199 43.6514C382.199 42.8701 382.72 42.3818 383.762 42.1865C385.617 41.8447 388.319 41.6738 391.867 41.6738H393.039C400.624 41.6738 405.555 44.571 407.834 50.3652C408.632 52.3835 409.03 54.654 409.03 57.1768V57.3232V57.9336C409.03 60.554 408.566 63.1419 407.639 65.6973C406.711 68.2363 405.352 70.2708 403.562 71.8008C401.787 73.3307 399.867 74.4131 397.8 75.0479C395.733 75.6663 393.039 75.9756 389.719 75.9756H389.157L388.571 75.9512C385.023 75.9512 382.744 75.7884 381.735 75.4629C381.198 75.2839 380.93 74.8932 380.93 74.291C380.93 74.112 381.141 73.5586 381.564 72.6309C382.329 70.9544 382.712 67.9352 382.712 63.5732L383.005 56.1758L383.054 55.0527L383.127 51.1709C383.127 48.8597 383.094 47.4437 383.029 46.9229C382.964 46.402 382.81 45.7835 382.565 45.0674C382.321 44.3512 382.199 43.8792 382.199 43.6514ZM437.062 61.9619C439.08 61.9619 440.089 61.7015 440.089 61.1807V61.0098C440.089 60.7331 439.544 58.43 438.453 54.1006C437.363 49.7549 436.63 47.582 436.256 47.582H436.158C436.126 47.582 435.816 48.2168 435.23 49.4863C432.203 55.9805 430.689 59.9355 430.689 61.3516V61.498C430.689 61.7422 430.999 61.8643 431.617 61.8643L432.008 61.9131L433.79 61.9619H437.062ZM436.5 41.6982H437.062C438.445 41.6982 439.682 42.9596 440.772 45.4824C442.628 49.7305 444.736 56.5908 447.096 66.0635C447.405 67.2679 447.861 68.4723 448.463 69.6768C449.081 70.8812 449.391 71.6462 449.391 71.9717C449.391 72.8994 449.081 73.7132 448.463 74.4131C447.844 75.113 447.112 75.4629 446.266 75.4629H445.729C444.312 75.4629 443.425 75.0153 443.067 74.1201C443.002 73.9736 442.929 73.5586 442.848 72.875C442.783 72.1751 442.685 71.5241 442.555 70.9219C442.099 68.806 441.529 67.3574 440.846 66.5762C440.178 65.7786 438.282 65.3799 435.157 65.3799C432.032 65.3799 430.095 65.738 429.347 66.4541C428.614 67.1702 427.849 68.6351 427.052 70.8486C426.808 71.5322 426.612 72.2891 426.466 73.1191C426.336 73.9492 426.197 74.4863 426.051 74.7305C425.758 75.2025 425.156 75.4385 424.244 75.4385C423.349 75.4385 422.633 75.1292 422.096 74.5107C421.559 73.8923 421.29 73.168 421.29 72.3379C421.29 71.4915 421.713 70.4824 422.56 69.3105C423.39 68.1387 424.944 64.5579 427.223 58.5684C430.803 49.1283 433.212 43.8223 434.449 42.6504C435.133 42.0156 435.816 41.6982 436.5 41.6982Z" fill="#024230"/>
<circle cx="348.5" cy="148.5" r="35.5" fill="#DDA685" stroke="#A6A6A6" stroke-width="2"/>
<circle cx="308" cy="205" r="42" fill="#DDA685" stroke="#A6A6A6" stroke-width="2"/>
<path d="M272.5 119L267.5 128L285 141C283 142.333 279 146.1 279 150.5C279 156 264 163 267.5 169C271 175 295 169 299.5 160C304 151 304 157 309.5 157C315 157 317.5 157 309.5 163C301.5 169 304 171 307.5 171C311 171 317.5 167 320 163C322.5 159 324.5 169 326.5 175.5C328.5 182 326.5 185.5 322.5 190C318.5 194.5 317.5 194.5 307.5 197C297.5 199.5 314 205.5 320 204.5C326 203.5 329 203 326.5 207.5C324 212 316.5 224.5 320 227.5C323.5 230.5 335 219 339.5 217C344 215 343.5 222 349.5 224.5C355.5 227 365 224.5 371 224.5C377 224.5 362.5 211 358 207.5C353.5 204 365.5 197 367.5 194.5C369.5 192 359 185.5 355 180.5C351 175.5 363 174.5 362.5 169C362 163.5 342.5 174 343.5 171C344.3 168.6 338.167 162.667 335 160C334 161.333 331.9 165 331.5 169C331 174 322.5 159.5 322.5 157V150.5C320.167 149.833 315.2 147.4 314 143C312.5 137.5 329 142.5 335 141C341 139.5 324 128 322.5 125C321.3 122.6 326.333 114.667 329 111C323.167 111.667 309.1 113.3 299.5 114.5C289.9 115.7 289.5 125.667 290.5 130.5L272.5 119Z" fill="#5E877B" stroke="#9C9C9C"/>
</svg>
