<svg width="649" height="348" viewBox="0 0 649 348" fill="none" xmlns="http://www.w3.org/2000/svg">
<rect width="649" height="348" rx="41" fill="#F4F4F4"/>
<path d="M204.55 43.4H216.9V61.55C215.1 62.1833 213.25 62.6667 211.35 63C209.483 63.3333 207.417 63.5 205.15 63.5C201.783 63.5 198.95 62.7667 196.65 61.3C194.383 59.8333 192.65 57.7333 191.45 55C190.283 52.2333 189.7 48.9333 189.7 45.1C189.7 41.4 190.35 38.1833 191.65 35.45C192.983 32.7167 194.917 30.6 197.45 29.1C199.983 27.5667 203.067 26.8 206.7 26.8C208.533 26.8 210.283 27 211.95 27.4C213.65 27.8 215.183 28.3333 216.55 29L214.5 34.1C213.4 33.5 212.183 33.0167 210.85 32.65C209.517 32.2833 208.133 32.1 206.7 32.1C204.5 32.1 202.6 32.6333 201 33.7C199.433 34.7333 198.233 36.2333 197.4 38.2C196.567 40.1333 196.15 42.4667 196.15 45.2C196.15 47.7667 196.467 50.0333 197.1 52C197.767 53.9333 198.8 55.45 200.2 56.55C201.633 57.65 203.483 58.2 205.75 58.2C206.483 58.2 207.133 58.1667 207.7 58.1C208.3 58.0333 208.85 57.9667 209.35 57.9C209.85 57.8 210.333 57.6833 210.8 57.55V48.7H204.55V43.4ZM251.051 50.8C251.051 53.3667 250.567 55.6 249.601 57.5C248.634 59.4 247.184 60.8833 245.251 61.95C243.351 62.9833 240.951 63.5 238.051 63.5C233.851 63.5 230.651 62.3833 228.451 60.15C226.284 57.8833 225.201 54.75 225.201 50.75V27.3H231.401V50.3C231.401 53.0333 231.967 55.0333 233.101 56.3C234.234 57.5333 235.934 58.15 238.201 58.15C239.734 58.15 240.984 57.8667 241.951 57.3C242.951 56.7 243.684 55.8167 244.151 54.65C244.617 53.4833 244.851 52.0167 244.851 50.25V27.3H251.051V50.8ZM279.303 63L276.453 53.5H265.003L262.153 63H255.553L267.003 27.2H274.353L285.903 63H279.303ZM272.303 38.5C272.169 37.9667 271.986 37.3167 271.753 36.55C271.553 35.7833 271.353 35.0167 271.153 34.25C270.986 33.4833 270.836 32.8167 270.703 32.25C270.569 32.85 270.403 33.55 270.203 34.35C270.036 35.15 269.853 35.9167 269.653 36.65C269.486 37.3833 269.319 38 269.153 38.5L266.403 48.15H275.053L272.303 38.5ZM305.574 63L296.574 34.3H296.374C296.44 35.1333 296.49 36.1167 296.524 37.25C296.59 38.35 296.64 39.4833 296.674 40.65C296.74 41.8167 296.774 42.9 296.774 43.9V63H291.074V27.3H299.724L308.324 54.65H308.524L317.374 27.3H325.974V63H320.074V43.7C320.074 42.7667 320.09 41.7333 320.124 40.6C320.157 39.4667 320.19 38.35 320.224 37.25C320.29 36.15 320.34 35.1833 320.374 34.35H320.174L310.924 63H305.574ZM373.459 50.8C373.459 53.3667 372.976 55.6 372.009 57.5C371.042 59.4 369.592 60.8833 367.659 61.95C365.759 62.9833 363.359 63.5 360.459 63.5C356.259 63.5 353.059 62.3833 350.859 60.15C348.692 57.8833 347.609 54.75 347.609 50.75V27.3H353.809V50.3C353.809 53.0333 354.376 55.0333 355.509 56.3C356.642 57.5333 358.342 58.15 360.609 58.15C362.142 58.15 363.392 57.8667 364.359 57.3C365.359 56.7 366.092 55.8167 366.559 54.65C367.026 53.4833 367.259 52.0167 367.259 50.25V27.3H373.459V50.8ZM380.471 59.8C380.471 58.4333 380.821 57.45 381.521 56.85C382.221 56.25 383.105 55.95 384.171 55.95C385.238 55.95 386.121 56.25 386.821 56.85C387.521 57.45 387.871 58.4167 387.871 59.75C387.871 61.0833 387.521 62.0667 386.821 62.7C386.121 63.3 385.238 63.6 384.171 63.6C383.105 63.6 382.221 63.3 381.521 62.7C380.821 62.0667 380.471 61.1 380.471 59.8ZM415.153 53.05C415.153 55.15 414.669 56.9833 413.703 58.55C412.736 60.1167 411.353 61.3333 409.553 62.2C407.786 63.0667 405.669 63.5 403.203 63.5C402.036 63.5 400.903 63.4333 399.803 63.3C398.703 63.1667 397.669 62.9667 396.703 62.7C395.736 62.4 394.819 62.0333 393.953 61.6V55.6C395.353 56.2667 396.869 56.85 398.503 57.35C400.169 57.85 401.803 58.1 403.403 58.1C404.636 58.1 405.669 57.9 406.503 57.5C407.336 57.1 407.953 56.5667 408.353 55.9C408.753 55.2 408.953 54.4 408.953 53.5C408.953 52.5333 408.719 51.7167 408.253 51.05C407.786 50.35 407.069 49.7 406.103 49.1C405.136 48.4667 403.886 47.8 402.353 47.1C401.286 46.6 400.269 46.05 399.303 45.45C398.336 44.8167 397.469 44.1 396.703 43.3C395.969 42.5 395.386 41.55 394.953 40.45C394.519 39.35 394.303 38.05 394.303 36.55C394.303 34.55 394.753 32.8167 395.653 31.35C396.553 29.8833 397.836 28.7667 399.503 28C401.169 27.2 403.119 26.8 405.353 26.8C407.119 26.8 408.769 27 410.303 27.4C411.836 27.8 413.336 28.3333 414.803 29L412.903 34.2C411.536 33.5667 410.236 33.0833 409.003 32.75C407.803 32.3833 406.569 32.2 405.303 32.2C404.269 32.2 403.386 32.3833 402.653 32.75C401.953 33.0833 401.403 33.5667 401.003 34.2C400.636 34.8333 400.453 35.5667 400.453 36.4C400.453 37.3667 400.669 38.1833 401.103 38.85C401.536 39.5167 402.219 40.1333 403.153 40.7C404.086 41.2667 405.336 41.9333 406.903 42.7C408.669 43.5333 410.153 44.4167 411.353 45.35C412.586 46.2833 413.519 47.3667 414.153 48.6C414.819 49.8333 415.153 51.3167 415.153 53.05ZM421.046 59.8C421.046 58.4333 421.396 57.45 422.096 56.85C422.796 56.25 423.679 55.95 424.746 55.95C425.812 55.95 426.696 56.25 427.396 56.85C428.096 57.45 428.446 58.4167 428.446 59.75C428.446 61.0833 428.096 62.0667 427.396 62.7C426.696 63.3 425.812 63.6 424.746 63.6C423.679 63.6 422.796 63.3 422.096 62.7C421.396 62.0667 421.046 61.1 421.046 59.8ZM456.127 63L453.277 53.5H441.827L438.977 63H432.377L443.827 27.2H451.177L462.727 63H456.127ZM449.127 38.5C448.994 37.9667 448.81 37.3167 448.577 36.55C448.377 35.7833 448.177 35.0167 447.977 34.25C447.81 33.4833 447.66 32.8167 447.527 32.25C447.394 32.85 447.227 33.55 447.027 34.35C446.86 35.15 446.677 35.9167 446.477 36.65C446.31 37.3833 446.144 38 445.977 38.5L443.227 48.15H451.877L449.127 38.5Z" fill="#3E3366"/>
<path d="M281 88.3L283.237 73.3612H291.814L300.39 74.4816L306.729 70.7469L307.475 80.8306L309.712 87.9265L308.966 94.2755L309.712 98.7571L315.305 103.986L323.508 105.106L311.576 96.8898L312.695 87.9265L309.712 80.8306L311.203 73.3612H315.678H325.746L333.203 70L344.39 73.3612L350.729 72.2408L355.576 74.8551L357.814 73.3612H363.034H369V92.0347L360.797 111.455L351.847 124.153L342.898 131.996L355.203 201.461L360.797 229.098V247.771L344.763 249.639L333.949 247.771L330.593 230.965V249.639L316.797 253L313.814 247.771L308.966 253H298.153L285.102 245.531L303 161.127L311.203 129.755L295.169 120.792L285.102 105.106L281 88.3Z" fill="#D9D9D9"/>
<path d="M154.726 311H150.316V284.834H142.504V281.012H162.496V284.834H154.726V311ZM180.9 311L178.17 302.306H168.258L165.528 311H160.908L170.778 280.928H175.65L185.562 311H180.9ZM174.432 289.664C174.348 289.272 174.222 288.782 174.054 288.194C173.886 287.606 173.718 287.004 173.55 286.388C173.41 285.772 173.298 285.254 173.214 284.834C173.102 285.366 172.976 285.926 172.836 286.514C172.696 287.102 172.556 287.676 172.416 288.236C172.276 288.768 172.136 289.244 171.996 289.664L169.35 298.442H177.078L174.432 289.664ZM211.599 311H206.265L193.077 287.06H192.909C192.937 287.648 192.965 288.25 192.993 288.866C193.049 289.482 193.091 290.112 193.119 290.756C193.147 291.4 193.175 292.058 193.203 292.73C193.231 293.374 193.245 294.004 193.245 294.62V311H189.171V281.012H194.463L207.609 304.742H207.777C207.749 304.21 207.721 303.65 207.693 303.062C207.665 302.446 207.637 301.816 207.609 301.172C207.581 300.5 207.553 299.842 207.525 299.198C207.525 298.554 207.511 297.938 207.483 297.35V281.012H211.599V311ZM242.429 295.964C242.429 298.26 242.177 300.36 241.673 302.264C241.169 304.14 240.399 305.764 239.363 307.136C238.355 308.508 237.067 309.572 235.499 310.328C233.959 311.056 232.125 311.42 229.997 311.42C227.869 311.42 226.021 311.042 224.453 310.286C222.885 309.53 221.583 308.466 220.547 307.094C219.539 305.722 218.783 304.084 218.279 302.18C217.803 300.276 217.565 298.19 217.565 295.922C217.565 292.73 218.013 289.986 218.909 287.69C219.833 285.394 221.219 283.63 223.067 282.398C224.915 281.166 227.239 280.55 230.039 280.55C232.839 280.55 235.149 281.208 236.969 282.524C238.817 283.812 240.189 285.618 241.085 287.942C241.981 290.238 242.429 292.912 242.429 295.964ZM222.185 295.964C222.185 298.428 222.465 300.528 223.025 302.264C223.585 303.972 224.439 305.288 225.587 306.212C226.763 307.108 228.233 307.556 229.997 307.556C231.789 307.556 233.259 307.108 234.407 306.212C235.555 305.316 236.409 304 236.969 302.264C237.529 300.528 237.809 298.428 237.809 295.964C237.809 292.268 237.179 289.426 235.919 287.438C234.687 285.422 232.727 284.414 230.039 284.414C228.247 284.414 226.763 284.862 225.587 285.758C224.439 286.654 223.585 287.97 223.025 289.706C222.465 291.414 222.185 293.5 222.185 295.964ZM265.509 294.872L271.767 281.012H276.471L267.693 299.366V311H263.325V299.492L254.547 281.012H259.293L265.509 294.872ZM301.456 284.414C300.14 284.414 298.964 284.694 297.928 285.254C296.892 285.814 296.024 286.612 295.324 287.648C294.624 288.684 294.092 289.916 293.728 291.344C293.364 292.744 293.182 294.312 293.182 296.048C293.182 298.428 293.49 300.486 294.106 302.222C294.75 303.958 295.688 305.288 296.92 306.212C298.152 307.136 299.692 307.598 301.54 307.598C302.66 307.598 303.738 307.486 304.774 307.262C305.81 307.01 306.846 306.688 307.882 306.296V310.118C306.874 310.566 305.824 310.888 304.732 311.084C303.64 311.308 302.394 311.42 300.994 311.42C298.278 311.42 295.996 310.804 294.148 309.572C292.3 308.312 290.914 306.534 289.99 304.238C289.066 301.914 288.604 299.17 288.604 296.006C288.604 293.766 288.87 291.708 289.402 289.832C289.962 287.956 290.774 286.332 291.838 284.96C292.93 283.56 294.274 282.482 295.87 281.726C297.494 280.97 299.342 280.592 301.414 280.592C302.758 280.592 304.074 280.746 305.362 281.054C306.65 281.362 307.84 281.796 308.932 282.356L307.336 286.01C306.496 285.59 305.586 285.226 304.606 284.918C303.626 284.582 302.576 284.414 301.456 284.414ZM334.86 311H330.45V297.266H318.186V311H313.776V281.012H318.186V293.444H330.45V281.012H334.86V311ZM358.457 311L355.727 302.306H345.815L343.085 311H338.465L348.335 280.928H353.207L363.119 311H358.457ZM351.989 289.664C351.905 289.272 351.779 288.782 351.611 288.194C351.443 287.606 351.275 287.004 351.107 286.388C350.967 285.772 350.855 285.254 350.771 284.834C350.659 285.366 350.533 285.926 350.393 286.514C350.253 287.102 350.113 287.676 349.973 288.236C349.833 288.768 349.693 289.244 349.553 289.664L346.907 298.442H354.635L351.989 289.664ZM378.907 311L370.675 285.968H370.507C370.563 286.668 370.605 287.466 370.633 288.362C370.689 289.23 370.731 290.126 370.759 291.05C370.787 291.946 370.801 292.8 370.801 293.612V311H366.727V281.012H372.985L380.839 304.826H380.965L388.987 281.012H395.245V311H390.961V293.486C390.961 292.702 390.975 291.876 391.003 291.008C391.031 290.112 391.073 289.23 391.129 288.362C391.185 287.494 391.227 286.71 391.255 286.01H391.087L382.687 311H378.907ZM426.015 295.964C426.015 298.26 425.763 300.36 425.259 302.264C424.755 304.14 423.985 305.764 422.949 307.136C421.941 308.508 420.653 309.572 419.085 310.328C417.545 311.056 415.711 311.42 413.583 311.42C411.455 311.42 409.607 311.042 408.039 310.286C406.471 309.53 405.169 308.466 404.133 307.094C403.125 305.722 402.369 304.084 401.865 302.18C401.389 300.276 401.151 298.19 401.151 295.922C401.151 292.73 401.599 289.986 402.495 287.69C403.419 285.394 404.805 283.63 406.653 282.398C408.501 281.166 410.825 280.55 413.625 280.55C416.425 280.55 418.735 281.208 420.555 282.524C422.403 283.812 423.775 285.618 424.671 287.942C425.567 290.238 426.015 292.912 426.015 295.964ZM405.771 295.964C405.771 298.428 406.051 300.528 406.611 302.264C407.171 303.972 408.025 305.288 409.173 306.212C410.349 307.108 411.819 307.556 413.583 307.556C415.375 307.556 416.845 307.108 417.993 306.212C419.141 305.316 419.995 304 420.555 302.264C421.115 300.528 421.395 298.428 421.395 295.964C421.395 292.268 420.765 289.426 419.505 287.438C418.273 285.422 416.313 284.414 413.625 284.414C411.833 284.414 410.349 284.862 409.173 285.758C408.025 286.654 407.171 287.97 406.611 289.706C406.051 291.414 405.771 293.5 405.771 295.964ZM439.417 281.012C441.825 281.012 443.799 281.334 445.339 281.978C446.879 282.594 448.027 283.546 448.783 284.834C449.539 286.094 449.917 287.69 449.917 289.622C449.917 291.05 449.679 292.296 449.203 293.36C448.755 294.396 448.125 295.264 447.313 295.964C446.501 296.664 445.577 297.224 444.541 297.644L452.101 311H447.145L440.635 298.82H436.393V311H431.983V281.012H439.417ZM439.249 284.792H436.393V295.166H439.501C440.845 295.166 441.951 294.97 442.819 294.578C443.715 294.158 444.373 293.556 444.793 292.772C445.213 291.96 445.423 290.966 445.423 289.79C445.423 288.586 445.199 287.634 444.751 286.934C444.303 286.206 443.631 285.674 442.735 285.338C441.839 284.974 440.677 284.792 439.249 284.792ZM463.616 281.012C466.024 281.012 467.998 281.334 469.538 281.978C471.078 282.594 472.226 283.546 472.982 284.834C473.738 286.094 474.116 287.69 474.116 289.622C474.116 291.05 473.878 292.296 473.402 293.36C472.954 294.396 472.324 295.264 471.512 295.964C470.7 296.664 469.776 297.224 468.74 297.644L476.3 311H471.344L464.834 298.82H460.592V311H456.182V281.012H463.616ZM463.448 284.792H460.592V295.166H463.7C465.044 295.166 466.15 294.97 467.018 294.578C467.914 294.158 468.572 293.556 468.992 292.772C469.412 291.96 469.622 290.966 469.622 289.79C469.622 288.586 469.398 287.634 468.95 286.934C468.502 286.206 467.83 285.674 466.934 285.338C466.038 284.974 464.876 284.792 463.448 284.792ZM503.986 295.964C503.986 298.26 503.734 300.36 503.23 302.264C502.726 304.14 501.956 305.764 500.92 307.136C499.912 308.508 498.624 309.572 497.056 310.328C495.516 311.056 493.682 311.42 491.554 311.42C489.426 311.42 487.578 311.042 486.01 310.286C484.442 309.53 483.14 308.466 482.104 307.094C481.096 305.722 480.34 304.084 479.836 302.18C479.36 300.276 479.122 298.19 479.122 295.922C479.122 292.73 479.57 289.986 480.466 287.69C481.39 285.394 482.776 283.63 484.624 282.398C486.472 281.166 488.796 280.55 491.596 280.55C494.396 280.55 496.706 281.208 498.526 282.524C500.374 283.812 501.746 285.618 502.642 287.942C503.538 290.238 503.986 292.912 503.986 295.964ZM483.742 295.964C483.742 298.428 484.022 300.528 484.582 302.264C485.142 303.972 485.996 305.288 487.144 306.212C488.32 307.108 489.79 307.556 491.554 307.556C493.346 307.556 494.816 307.108 495.964 306.212C497.112 305.316 497.966 304 498.526 302.264C499.086 300.528 499.366 298.428 499.366 295.964C499.366 292.268 498.736 289.426 497.476 287.438C496.244 285.422 494.284 284.414 491.596 284.414C489.804 284.414 488.32 284.862 487.144 285.758C485.996 286.654 485.142 287.97 484.582 289.706C484.022 291.414 483.742 293.5 483.742 295.964Z" fill="#3E3366"/>
<path d="M308.095 168.506H320.441L312.089 170.685L310.274 174.316V179.399L312.089 183.756L315.357 188.113L317.173 192.47L320.441 190.655L322.982 189.202L327.702 188.113H333.149L337.143 187.024L341.137 183.756L342.589 179.399H345.494H352.03L354.208 176.857L357.113 172.5V165.601V159.429V154.708L360.744 151.077L357.113 149.625L352.03 145.268L348.036 142H342.589L337.143 143.815L333.149 148.173H330.607L324.071 143.815H317.173H310.274L303.375 145.268H299.018L297.202 149.625V159.429L303.375 165.601L308.095 168.506Z" fill="#BA2218"/>
<path d="M343.279 235.107L354.078 229.125L347.828 235.078L348 239.133L350.463 243.58L354.163 246.512L359.133 248.739L362.832 251.671L364.811 248.499L366.33 245.997L369.932 242.757L374.696 240.117L377.662 237.229L379.572 232.435L378.731 227.92L381.272 226.512L386.989 223.345L387.663 220.066L388.092 214.847L384.749 208.812L381.757 203.413L379.47 199.284L380.887 194.348L377.007 194.837L370.449 193.489L365.371 192.566L360.607 195.206L356.723 199.433L355.34 205.18L353.117 206.412L345.289 205.768L339.254 209.111L333.219 212.454L327.889 217.068L324.077 219.179L324.601 223.87L329.351 232.446L337.742 234.854L343.279 235.107Z" fill="#BA2218"/>
<path d="M275.437 204.994L283.266 214.539L276.285 209.464L272.327 210.363L268.396 213.587L266.179 217.753L264.882 223.043L262.665 227.21L266.141 228.586L268.876 229.63L272.712 232.588L276.166 236.799L279.541 239.197L284.601 240.212L288.891 238.572L290.733 240.818L294.878 245.871L298.224 245.944L303.435 245.426L308.769 241.051L313.542 237.137L317.192 234.143L322.302 234.648L321.122 230.919L321.267 224.226L321.261 219.065L317.806 214.854L312.949 211.794L307.047 211.47L305.435 209.504L304.659 201.688L300.284 196.354L295.909 191.02L290.41 186.607L287.647 183.238L283.127 184.598L275.547 190.815L274.689 199.502L275.437 204.994Z" fill="#BA2218"/>
<path d="M313.443 194.56L305.087 203.648L309.136 196.026L307.692 192.232L303.95 188.791L299.514 187.178L294.095 186.635L289.659 185.022L288.783 188.656L288.132 191.51L285.739 195.722L282.052 199.731L280.151 203.409L279.853 208.561L282.077 212.579L280.111 214.717L275.687 219.528L276.083 222.852L277.325 227.94L282.403 232.609L286.947 236.787L290.421 239.982L290.636 245.113L294.163 243.423L300.811 242.63L305.92 241.902L309.607 237.893L311.957 232.655L311.453 226.765L313.173 224.895L320.804 223.033L325.474 217.954L330.143 212.876L333.744 206.815L336.693 203.607L334.715 199.322L327.498 192.686L318.776 193.052L313.443 194.56Z" fill="#BA2218"/>
<path d="M326.613 162.697L326.25 164.875L324.072 165.238L322.619 165.601H320.804L320.441 166.691V168.143L322.619 169.232L324.435 170.322H326.25L327.339 171.774V173.589V175.768L328.429 176.494L330.97 176.857L332.423 176.131L332.786 173.953V171.774L332.06 171.048V169.958L333.875 170.322L334.965 171.048H337.143L337.869 169.595V168.506V167.417L337.143 166.691L336.78 165.964L336.054 165.238V164.512L336.417 163.423L336.78 161.607V159.429L336.417 158.703L334.965 157.976L333.149 158.339L331.697 160.881L330.244 161.97L328.429 160.155H326.976L326.613 162.697Z" fill="white"/>
<path d="M349.851 211.351L349.488 213.53L347.31 213.893L345.857 214.256H344.042L343.679 215.345V216.798L345.857 217.887L347.673 218.976H349.488L350.578 220.429V222.244V224.423L351.667 225.149L354.208 225.512L355.661 224.786L356.024 222.607V220.429L355.298 219.703V218.613L357.113 218.976L358.203 219.703H360.381L361.107 218.25V217.161V216.072L360.381 215.345L360.018 214.619L359.292 213.893V213.167L359.655 212.078L360.018 210.262V208.083L359.655 207.357L358.203 206.631L356.387 206.994L354.935 209.536L353.482 210.625L351.667 208.81H350.214L349.851 211.351Z" fill="white"/>
<path d="M300.47 201.911L300.107 204.089L297.929 204.453L296.476 204.816H294.661L294.298 205.905V207.357L296.476 208.447L298.292 209.536H300.107L301.196 210.988V212.804V214.982L302.286 215.709L304.827 216.072L306.28 215.345L306.643 213.167V210.988L305.917 210.262V209.173L307.732 209.536L308.821 210.262H311L311.726 208.81V207.72V206.631L311 205.905L310.637 205.179L309.911 204.453V203.726L310.274 202.637L310.637 200.822V198.643L310.274 197.917L308.821 197.191L307.006 197.554L305.554 200.095L304.101 201.185L302.286 199.369H300.833L300.47 201.911Z" fill="white"/>
<path d="M297.565 215.709L297.202 217.887L295.024 218.25L293.571 218.613H291.756L291.393 219.703V221.155L293.571 222.244L295.387 223.334H297.202L298.292 224.786V226.601V228.78L299.381 229.506L301.923 229.869L303.375 229.143L303.738 226.964V224.786L303.012 224.06V222.97L304.827 223.334L305.917 224.06H308.095L308.821 222.607V221.518V220.429L308.095 219.703L307.732 218.976L307.006 218.25V217.524L307.369 216.435L307.732 214.619V212.441L307.369 211.714L305.917 210.988L304.101 211.351L302.649 213.893L301.196 214.982L299.381 213.167H297.929L297.565 215.709Z" fill="white"/>
</svg>
