<svg width="649" height="348" viewBox="0 0 649 348" fill="none" xmlns="http://www.w3.org/2000/svg">
<rect width="649" height="348" rx="41" fill="#F9F9F9"/>
<g opacity="0.5">
<path fill-rule="evenodd" clip-rule="evenodd" d="M649 137.236C558.309 70.4586 446.262 31 325 31C203.291 31 90.8668 70.7494 0 137.974V158.044C89.8175 88.434 202.57 47 325 47C446.976 47 559.346 88.1273 649 157.271V137.236Z" fill="#FF788A"/>
<path fill-rule="evenodd" clip-rule="evenodd" d="M649 153.236C558.309 86.4586 446.262 47 325 47C203.291 47 90.8668 86.7494 0 153.974V174.044C89.8175 104.434 202.57 63 325 63C446.976 63 559.346 104.127 649 173.271V153.236Z" fill="#FDBDA1"/>
<path fill-rule="evenodd" clip-rule="evenodd" d="M649 169.236C558.309 102.459 446.262 63 325 63C203.291 63 90.8668 102.749 0 169.974V190.044C89.8175 120.434 202.57 79 325 79C446.976 79 559.346 120.127 649 189.271V169.236Z" fill="#FED34C"/>
<path fill-rule="evenodd" clip-rule="evenodd" d="M649 185.236C558.309 118.459 446.262 79 325 79C203.291 79 90.8668 118.749 0 185.974V206.044C89.8175 136.434 202.57 95 325 95C446.976 95 559.346 136.127 649 205.271V185.236Z" fill="#C8E1C7"/>
<path fill-rule="evenodd" clip-rule="evenodd" d="M649 201.236C558.309 134.459 446.262 95 325 95C203.291 95 90.8668 134.749 0 201.974V222.044C89.8175 152.434 202.57 111 325 111C446.976 111 559.346 152.127 649 221.271V201.236Z" fill="#4AACC5"/>
</g>
<path d="M162.375 289.846H170.7L180.612 323H175.07L172.043 312.868H161.325L158.444 323H152.756L162.375 289.846ZM170.896 308.62L166.428 292.36L162.399 308.62H170.896ZM190.25 289.846H195.792V318.41C196.476 318.41 197.184 318.402 197.916 318.386C198.665 318.369 199.405 318.353 200.138 318.337C200.886 318.321 201.611 318.304 202.311 318.288C203.027 318.256 203.702 318.223 204.337 318.19C205.834 318.125 207.299 318.06 208.731 317.995C208.731 318.272 208.691 318.687 208.609 319.24C208.544 319.794 208.463 320.355 208.365 320.925C208.268 321.478 208.17 321.966 208.072 322.39C207.991 322.797 207.926 323 207.877 323H190.25V289.846ZM232.505 323.635C230.063 323.635 227.964 323.244 226.206 322.463C224.465 321.665 223.032 320.526 221.909 319.045C220.802 317.548 219.989 315.741 219.468 313.625C218.947 311.493 218.687 309.092 218.687 306.423C218.687 303.754 218.955 301.353 219.492 299.221C220.046 297.089 220.884 295.282 222.007 293.801C223.146 292.32 224.587 291.188 226.328 290.407C228.07 289.61 230.129 289.211 232.505 289.211C234.995 289.211 237.103 289.585 238.828 290.334C240.553 291.066 241.953 292.149 243.027 293.581C244.118 295.013 244.907 296.771 245.396 298.854C245.884 300.922 246.128 303.29 246.128 305.959C246.128 308.645 245.868 311.078 245.347 313.259C244.826 315.424 244.012 317.279 242.905 318.825C241.799 320.355 240.382 321.543 238.657 322.39C236.948 323.22 234.897 323.635 232.505 323.635ZM232.505 319.362C234.051 319.362 235.337 319.037 236.362 318.386C237.404 317.735 238.234 316.823 238.853 315.651C239.487 314.463 239.935 313.047 240.195 311.403C240.472 309.759 240.61 307.945 240.61 305.959C240.61 303.827 240.472 301.979 240.195 300.417C239.935 298.838 239.487 297.536 238.853 296.511C238.234 295.469 237.404 294.696 236.362 294.191C235.337 293.687 234.051 293.435 232.505 293.435C230.959 293.435 229.648 293.728 228.574 294.313C227.516 294.883 226.662 295.729 226.011 296.853C225.36 297.959 224.888 299.318 224.595 300.93C224.318 302.541 224.18 304.372 224.18 306.423C224.18 308.474 224.318 310.305 224.595 311.916C224.888 313.527 225.36 314.886 226.011 315.993C226.662 317.084 227.516 317.922 228.574 318.508C229.648 319.077 230.959 319.362 232.505 319.362ZM258.012 289.846H263.554V303.933H276.493V289.846H282.011V323H276.493V308.181H263.554V323H258.012V289.846ZM301.268 289.846H309.593L319.505 323H313.963L310.936 312.868H300.218L297.337 323H291.648L301.268 289.846ZM309.788 308.62L305.32 292.36L301.292 308.62H309.788ZM347.911 321.804C347.944 321.429 348.001 321.006 348.082 320.534C348.163 320.144 348.269 319.68 348.399 319.143C348.546 318.589 348.757 317.995 349.034 317.36C349.913 317.653 350.808 317.914 351.72 318.142C352.501 318.337 353.355 318.516 354.283 318.679C355.211 318.841 356.098 318.923 356.944 318.923C358.23 318.923 359.304 318.825 360.167 318.63C361.046 318.435 361.746 318.15 362.267 317.775C362.804 317.385 363.186 316.905 363.414 316.335C363.642 315.749 363.756 315.074 363.756 314.309C363.756 313.446 363.634 312.714 363.39 312.111C363.162 311.509 362.804 310.988 362.315 310.549C361.843 310.109 361.233 309.735 360.484 309.426C359.736 309.117 358.849 308.815 357.823 308.522C356.033 308.034 354.519 307.505 353.282 306.936C352.045 306.35 351.036 305.682 350.255 304.934C349.49 304.185 348.937 303.339 348.595 302.395C348.253 301.434 348.082 300.344 348.082 299.123C348.082 297.365 348.351 295.86 348.888 294.606C349.441 293.353 350.214 292.328 351.207 291.53C352.216 290.733 353.429 290.147 354.845 289.772C356.277 289.398 357.872 289.211 359.63 289.211C360.981 289.211 362.161 289.317 363.17 289.528C364.195 289.74 365.058 289.968 365.758 290.212C366.572 290.505 367.28 290.839 367.882 291.213C367.833 291.587 367.735 291.994 367.589 292.434C367.459 292.808 367.28 293.247 367.052 293.752C366.824 294.257 366.507 294.802 366.1 295.388C365.611 295.062 365.042 294.769 364.391 294.509C363.821 294.281 363.129 294.077 362.315 293.898C361.518 293.703 360.59 293.605 359.532 293.605C358.377 293.605 357.4 293.695 356.603 293.874C355.821 294.053 355.178 294.338 354.674 294.729C354.169 295.103 353.803 295.583 353.575 296.169C353.364 296.739 353.258 297.422 353.258 298.22C353.258 299.115 353.372 299.864 353.6 300.466C353.827 301.052 354.194 301.556 354.698 301.979C355.203 302.386 355.854 302.744 356.651 303.054C357.465 303.363 358.442 303.68 359.581 304.006C361.29 304.478 362.747 304.982 363.951 305.52C365.156 306.057 366.132 306.683 366.881 307.399C367.646 308.116 368.199 308.97 368.541 309.963C368.899 310.939 369.078 312.119 369.078 313.503C369.078 315.212 368.858 316.701 368.419 317.971C367.979 319.224 367.28 320.274 366.319 321.12C365.359 321.966 364.122 322.593 362.608 323C361.095 323.423 359.272 323.635 357.14 323.635C355.87 323.635 354.674 323.537 353.551 323.342C352.428 323.163 351.451 322.959 350.621 322.731C349.628 322.455 348.725 322.146 347.911 321.804ZM386.553 293.947C385.332 293.964 384.225 293.98 383.232 293.996C382.256 294.012 381.418 294.037 380.718 294.069C379.904 294.102 379.18 294.134 378.545 294.167C378.512 293.972 378.488 293.776 378.472 293.581C378.423 293.239 378.398 292.816 378.398 292.312C378.398 292.019 378.415 291.669 378.447 291.262C378.496 290.839 378.577 290.367 378.691 289.846H400.42C400.436 290.008 400.452 290.179 400.469 290.358C400.485 290.505 400.501 290.676 400.518 290.871C400.534 291.05 400.542 291.229 400.542 291.408C400.542 291.734 400.509 292.157 400.444 292.678C400.396 293.199 400.298 293.687 400.151 294.143C400.021 294.126 399.679 294.11 399.126 294.094C398.589 294.061 397.938 294.037 397.173 294.021C396.408 294.004 395.578 293.988 394.683 293.972C393.787 293.955 392.917 293.947 392.07 293.947V323H386.553V293.947ZM416.625 289.846H424.95L434.862 323H429.32L426.293 312.868H415.575L412.694 323H407.006L416.625 289.846ZM425.146 308.62L420.678 292.36L416.649 308.62H425.146ZM449.48 293.947C448.26 293.964 447.153 293.98 446.16 293.996C445.184 294.012 444.345 294.037 443.646 294.069C442.832 294.102 442.107 294.134 441.473 294.167C441.44 293.972 441.416 293.776 441.399 293.581C441.351 293.239 441.326 292.816 441.326 292.312C441.326 292.019 441.342 291.669 441.375 291.262C441.424 290.839 441.505 290.367 441.619 289.846H463.348C463.364 290.008 463.38 290.179 463.396 290.358C463.413 290.505 463.429 290.676 463.445 290.871C463.462 291.05 463.47 291.229 463.47 291.408C463.47 291.734 463.437 292.157 463.372 292.678C463.323 293.199 463.226 293.687 463.079 294.143C462.949 294.126 462.607 294.11 462.054 294.094C461.517 294.061 460.866 294.037 460.101 294.021C459.336 294.004 458.506 293.988 457.61 293.972C456.715 293.955 455.844 293.947 454.998 293.947V323H449.48V293.947ZM474.035 289.846H493.054C493.054 289.96 493.062 290.082 493.078 290.212C493.094 290.326 493.103 290.456 493.103 290.603C493.119 290.733 493.127 290.879 493.127 291.042C493.127 291.319 493.07 291.742 492.956 292.312C492.858 292.865 492.631 293.508 492.272 294.24C490.922 294.191 489.522 294.143 488.073 294.094C486.836 294.061 485.469 294.029 483.972 293.996C482.474 293.947 481.009 293.923 479.577 293.923V303.933C480.049 303.933 480.578 303.933 481.164 303.933C481.766 303.916 482.385 303.9 483.02 303.884C483.671 303.868 484.322 303.851 484.973 303.835C485.624 303.819 486.258 303.802 486.877 303.786C488.309 303.737 489.782 303.697 491.296 303.664C491.296 303.794 491.304 303.933 491.32 304.079C491.337 304.209 491.345 304.364 491.345 304.543C491.361 304.706 491.369 304.877 491.369 305.056C491.369 305.137 491.353 305.3 491.32 305.544C491.304 305.772 491.263 306.032 491.198 306.325C491.149 306.618 491.084 306.911 491.003 307.204C490.938 307.497 490.856 307.741 490.759 307.937C489.245 307.937 487.788 307.928 486.389 307.912C485.786 307.912 485.168 307.912 484.533 307.912C483.898 307.912 483.28 307.912 482.678 307.912C482.092 307.896 481.53 307.888 480.993 307.888C480.456 307.888 479.984 307.888 479.577 307.888V318.825C481.009 318.825 482.515 318.801 484.094 318.752C485.689 318.703 487.17 318.654 488.537 318.605C490.132 318.54 491.703 318.467 493.249 318.386C493.249 318.532 493.257 318.687 493.273 318.85C493.29 318.98 493.298 319.143 493.298 319.338C493.314 319.517 493.322 319.696 493.322 319.875C493.322 320.217 493.298 320.664 493.249 321.218C493.2 321.771 493.094 322.365 492.932 323H474.035V289.846Z" fill="black"/>
<path d="M237.857 31.8457H243.399V45.9326H256.339V31.8457H261.856V65H256.339V50.1807H243.399V65H237.857V31.8457ZM280.113 31.8457H288.438L298.351 65H292.809L289.781 54.8682H279.063L276.183 65H270.494L280.113 31.8457ZM288.634 50.6201L284.166 34.3604L280.138 50.6201H288.634ZM302.643 31.8457H308.355L314.557 60.3125L321.051 31.8457H327.887L334.283 60.4102L340.509 31.8457H345.978L338.165 65H330.597L325.201 41.0498L324.322 34.9219L323.419 41.0498L317.999 65H310.406L302.643 31.8457ZM359.889 31.8457H368.214L378.126 65H372.584L369.557 54.8682H358.839L355.958 65H350.27L359.889 31.8457ZM368.409 50.6201L363.941 34.3604L359.913 50.6201H368.409ZM386.764 31.8457H392.281V65H386.764V31.8457ZM404.996 31.8457H410.514V65H404.996V31.8457Z" fill="black"/>
</svg>
