<svg width="649" height="348" viewBox="0 0 649 348" fill="none" xmlns="http://www.w3.org/2000/svg">
<rect y="0.000244141" width="649" height="348" rx="41" fill="url(#paint0_linear_1051_274)"/>
<path d="M162.375 289.846H170.7L180.612 323H175.07L172.043 312.868H161.325L158.444 323H152.756L162.375 289.846ZM170.896 308.62L166.428 292.36L162.399 308.62H170.896ZM190.25 289.846H195.792V318.41C196.476 318.41 197.184 318.402 197.916 318.386C198.665 318.369 199.405 318.353 200.138 318.337C200.886 318.321 201.611 318.304 202.311 318.288C203.027 318.256 203.702 318.223 204.337 318.19C205.834 318.125 207.299 318.06 208.731 317.995C208.731 318.272 208.691 318.687 208.609 319.24C208.544 319.794 208.463 320.355 208.365 320.925C208.268 321.478 208.17 321.966 208.072 322.39C207.991 322.797 207.926 323 207.877 323H190.25V289.846ZM232.505 323.635C230.063 323.635 227.964 323.244 226.206 322.463C224.465 321.665 223.032 320.526 221.909 319.045C220.802 317.548 219.989 315.741 219.468 313.625C218.947 311.493 218.687 309.092 218.687 306.423C218.687 303.754 218.955 301.353 219.492 299.221C220.046 297.089 220.884 295.282 222.007 293.801C223.146 292.32 224.587 291.188 226.328 290.407C228.07 289.61 230.129 289.211 232.505 289.211C234.995 289.211 237.103 289.585 238.828 290.334C240.553 291.066 241.953 292.149 243.027 293.581C244.118 295.013 244.907 296.771 245.396 298.854C245.884 300.922 246.128 303.29 246.128 305.959C246.128 308.645 245.868 311.078 245.347 313.259C244.826 315.424 244.012 317.279 242.905 318.825C241.799 320.355 240.382 321.543 238.657 322.39C236.948 323.22 234.897 323.635 232.505 323.635ZM232.505 319.362C234.051 319.362 235.337 319.037 236.362 318.386C237.404 317.735 238.234 316.823 238.853 315.651C239.487 314.463 239.935 313.047 240.195 311.403C240.472 309.759 240.61 307.945 240.61 305.959C240.61 303.827 240.472 301.979 240.195 300.417C239.935 298.838 239.487 297.536 238.853 296.511C238.234 295.469 237.404 294.696 236.362 294.191C235.337 293.687 234.051 293.435 232.505 293.435C230.959 293.435 229.648 293.728 228.574 294.313C227.516 294.883 226.662 295.729 226.011 296.853C225.36 297.959 224.888 299.318 224.595 300.93C224.318 302.541 224.18 304.372 224.18 306.423C224.18 308.474 224.318 310.305 224.595 311.916C224.888 313.527 225.36 314.886 226.011 315.993C226.662 317.084 227.516 317.922 228.574 318.508C229.648 319.077 230.959 319.362 232.505 319.362ZM258.012 289.846H263.554V303.933H276.493V289.846H282.011V323H276.493V308.181H263.554V323H258.012V289.846ZM301.268 289.846H309.593L319.505 323H313.963L310.936 312.868H300.218L297.337 323H291.648L301.268 289.846ZM309.788 308.62L305.32 292.36L301.292 308.62H309.788ZM347.911 321.804C347.944 321.429 348.001 321.006 348.082 320.534C348.163 320.144 348.269 319.68 348.399 319.143C348.546 318.589 348.757 317.995 349.034 317.36C349.913 317.653 350.808 317.914 351.72 318.142C352.501 318.337 353.355 318.516 354.283 318.679C355.211 318.841 356.098 318.923 356.944 318.923C358.23 318.923 359.304 318.825 360.167 318.63C361.046 318.435 361.746 318.15 362.267 317.775C362.804 317.385 363.186 316.905 363.414 316.335C363.642 315.749 363.756 315.074 363.756 314.309C363.756 313.446 363.634 312.714 363.39 312.111C363.162 311.509 362.804 310.988 362.315 310.549C361.843 310.109 361.233 309.735 360.484 309.426C359.736 309.117 358.849 308.815 357.823 308.522C356.033 308.034 354.519 307.505 353.282 306.936C352.045 306.35 351.036 305.682 350.255 304.934C349.49 304.185 348.937 303.339 348.595 302.395C348.253 301.434 348.082 300.344 348.082 299.123C348.082 297.365 348.351 295.86 348.888 294.606C349.441 293.353 350.214 292.328 351.207 291.53C352.216 290.733 353.429 290.147 354.845 289.772C356.277 289.398 357.872 289.211 359.63 289.211C360.981 289.211 362.161 289.317 363.17 289.528C364.195 289.74 365.058 289.968 365.758 290.212C366.572 290.505 367.28 290.839 367.882 291.213C367.833 291.587 367.735 291.994 367.589 292.434C367.459 292.808 367.28 293.247 367.052 293.752C366.824 294.257 366.507 294.802 366.1 295.388C365.611 295.062 365.042 294.769 364.391 294.509C363.821 294.281 363.129 294.077 362.315 293.898C361.518 293.703 360.59 293.605 359.532 293.605C358.377 293.605 357.4 293.695 356.603 293.874C355.821 294.053 355.178 294.338 354.674 294.729C354.169 295.103 353.803 295.583 353.575 296.169C353.364 296.739 353.258 297.422 353.258 298.22C353.258 299.115 353.372 299.864 353.6 300.466C353.827 301.052 354.194 301.556 354.698 301.979C355.203 302.386 355.854 302.744 356.651 303.054C357.465 303.363 358.442 303.68 359.581 304.006C361.29 304.478 362.747 304.982 363.951 305.52C365.156 306.057 366.132 306.683 366.881 307.399C367.646 308.116 368.199 308.97 368.541 309.963C368.899 310.939 369.078 312.119 369.078 313.503C369.078 315.212 368.858 316.701 368.419 317.971C367.979 319.224 367.28 320.274 366.319 321.12C365.359 321.966 364.122 322.593 362.608 323C361.095 323.423 359.272 323.635 357.14 323.635C355.87 323.635 354.674 323.537 353.551 323.342C352.428 323.163 351.451 322.959 350.621 322.731C349.628 322.455 348.725 322.146 347.911 321.804ZM386.553 293.947C385.332 293.964 384.225 293.98 383.232 293.996C382.256 294.012 381.418 294.037 380.718 294.069C379.904 294.102 379.18 294.134 378.545 294.167C378.512 293.972 378.488 293.776 378.472 293.581C378.423 293.239 378.398 292.816 378.398 292.312C378.398 292.019 378.415 291.669 378.447 291.262C378.496 290.839 378.577 290.367 378.691 289.846H400.42C400.436 290.008 400.452 290.179 400.469 290.358C400.485 290.505 400.501 290.676 400.518 290.871C400.534 291.05 400.542 291.229 400.542 291.408C400.542 291.734 400.509 292.157 400.444 292.678C400.396 293.199 400.298 293.687 400.151 294.143C400.021 294.126 399.679 294.11 399.126 294.094C398.589 294.061 397.938 294.037 397.173 294.021C396.408 294.004 395.578 293.988 394.683 293.972C393.787 293.955 392.917 293.947 392.07 293.947V323H386.553V293.947ZM416.625 289.846H424.95L434.862 323H429.32L426.293 312.868H415.575L412.694 323H407.006L416.625 289.846ZM425.146 308.62L420.678 292.36L416.649 308.62H425.146ZM449.48 293.947C448.26 293.964 447.153 293.98 446.16 293.996C445.184 294.012 444.345 294.037 443.646 294.069C442.832 294.102 442.107 294.134 441.473 294.167C441.44 293.972 441.416 293.776 441.399 293.581C441.351 293.239 441.326 292.816 441.326 292.312C441.326 292.019 441.342 291.669 441.375 291.262C441.424 290.839 441.505 290.367 441.619 289.846H463.348C463.364 290.008 463.38 290.179 463.396 290.358C463.413 290.505 463.429 290.676 463.445 290.871C463.462 291.05 463.47 291.229 463.47 291.408C463.47 291.734 463.437 292.157 463.372 292.678C463.323 293.199 463.226 293.687 463.079 294.143C462.949 294.126 462.607 294.11 462.054 294.094C461.517 294.061 460.866 294.037 460.101 294.021C459.336 294.004 458.506 293.988 457.61 293.972C456.715 293.955 455.844 293.947 454.998 293.947V323H449.48V293.947ZM474.035 289.846H493.054C493.054 289.96 493.062 290.082 493.078 290.212C493.094 290.326 493.103 290.456 493.103 290.603C493.119 290.733 493.127 290.879 493.127 291.042C493.127 291.319 493.07 291.742 492.956 292.312C492.858 292.865 492.631 293.508 492.272 294.24C490.922 294.191 489.522 294.143 488.073 294.094C486.836 294.061 485.469 294.029 483.972 293.996C482.474 293.947 481.009 293.923 479.577 293.923V303.933C480.049 303.933 480.578 303.933 481.164 303.933C481.766 303.916 482.385 303.9 483.02 303.884C483.671 303.868 484.322 303.851 484.973 303.835C485.624 303.819 486.258 303.802 486.877 303.786C488.309 303.737 489.782 303.697 491.296 303.664C491.296 303.794 491.304 303.933 491.32 304.079C491.337 304.209 491.345 304.364 491.345 304.543C491.361 304.706 491.369 304.877 491.369 305.056C491.369 305.137 491.353 305.3 491.32 305.544C491.304 305.772 491.263 306.032 491.198 306.325C491.149 306.618 491.084 306.911 491.003 307.204C490.938 307.497 490.856 307.741 490.759 307.937C489.245 307.937 487.788 307.928 486.389 307.912C485.786 307.912 485.168 307.912 484.533 307.912C483.898 307.912 483.28 307.912 482.678 307.912C482.092 307.896 481.53 307.888 480.993 307.888C480.456 307.888 479.984 307.888 479.577 307.888V318.825C481.009 318.825 482.515 318.801 484.094 318.752C485.689 318.703 487.17 318.654 488.537 318.605C490.132 318.54 491.703 318.467 493.249 318.386C493.249 318.532 493.257 318.687 493.273 318.85C493.29 318.98 493.298 319.143 493.298 319.338C493.314 319.517 493.322 319.696 493.322 319.875C493.322 320.217 493.298 320.664 493.249 321.218C493.2 321.771 493.094 322.365 492.932 323H474.035V289.846Z" fill="black"/>
<path d="M236.074 61.0002H214.238V58.0803C216.057 58.0803 217.433 57.9111 218.364 57.5725C219.295 57.2128 219.898 56.6838 220.173 55.9856C220.469 55.2874 220.617 54.2929 220.617 53.0022V25.9612C220.617 24.0992 220.226 22.7874 219.443 22.0256C218.681 21.2639 216.946 20.8831 214.238 20.8831V17.9631H236.074V20.8831C234.254 20.8831 232.879 21.0629 231.948 21.4226C231.017 21.7823 230.403 22.3113 230.107 23.0095C229.832 23.6866 229.694 24.6705 229.694 25.9612V53.0022C229.694 54.2294 229.832 55.1921 230.107 55.8904C230.382 56.5886 230.964 57.1282 231.853 57.509C232.762 57.8899 234.169 58.0803 236.074 58.0803V61.0002ZM284.443 39.8625C284.443 42.9729 283.914 45.787 282.856 48.3049C281.798 50.8017 280.433 52.8858 278.762 54.5574C277.09 56.2289 275.302 57.4879 273.398 58.3342C269.378 60.1116 264.458 61.0002 258.64 61.0002H238.994V58.0803C240.813 58.0803 242.189 57.9111 243.12 57.5725C244.051 57.2128 244.654 56.6838 244.929 55.9856C245.225 55.2874 245.373 54.2929 245.373 53.0022V25.8342C245.373 23.9722 244.992 22.6604 244.23 21.8987C243.469 21.137 241.723 20.7561 238.994 20.7561V17.7727L248.229 17.5823C248.547 17.5823 249.838 17.5611 252.102 17.5188C254.366 17.4765 255.677 17.4553 256.037 17.4553C259.571 17.4553 262.565 17.6458 265.019 18.0266C267.495 18.4075 269.759 19.0211 271.811 19.8674C273.694 20.6292 275.429 21.6977 277.016 23.073C278.603 24.4272 279.936 25.9823 281.015 27.7385C282.115 29.4736 282.962 31.3673 283.554 33.4197C284.147 35.4721 284.443 37.6197 284.443 39.8625ZM274.16 39.6721C274.16 35.2076 273.303 31.4731 271.589 28.4685C269.896 25.4428 267.59 23.3481 264.67 22.1843C263.4 21.6765 262.046 21.3591 260.607 21.2322C259.19 21.0841 257.148 21.01 254.482 21.01V51.2566C254.482 52.9916 254.567 54.2611 254.736 55.0652C254.905 55.8481 255.402 56.4511 256.228 56.8743C257.053 57.2763 258.333 57.4773 260.068 57.4773C265.209 57.4773 268.838 55.6788 270.954 52.0818C273.091 48.4848 274.16 44.3482 274.16 39.6721ZM327.48 61.0002H307.199V58.0803C308.913 58.0803 310.161 57.9639 310.944 57.7312C311.727 57.4773 312.119 56.8954 312.119 55.9856C312.119 55.3508 311.992 54.7055 311.738 54.0496L309.707 48.9714H295.742L294.694 51.7644C294.102 53.3302 293.806 54.4622 293.806 55.1604C293.806 56.4299 294.292 57.234 295.266 57.5725C296.26 57.9111 297.413 58.0803 298.725 58.0803V61.0002H283.903V58.0803C285.088 58.0803 286.093 57.8582 286.918 57.4138C287.744 56.9695 288.527 56.1337 289.267 54.9065C290.029 53.6581 290.843 51.9019 291.711 49.6379L304.121 17.1379H307.136L320.244 50.6536C321.196 53.0234 321.894 54.6314 322.338 55.4778C322.783 56.303 323.396 56.9483 324.179 57.4138C324.962 57.8582 326.062 58.0803 327.48 58.0803V61.0002ZM308.564 45.8611L302.629 30.8489L296.979 45.8611H308.564ZM379.943 61.0002H358.774V58.0803C360.509 58.0803 361.821 57.8899 362.709 57.509C363.598 57.1282 364.169 56.578 364.423 55.8586C364.677 55.1392 364.804 54.1871 364.804 53.0022V40.0847H344.841V53.0022C344.841 54.7795 345.211 56.0702 345.952 56.8743C346.692 57.6783 348.385 58.0803 351.03 58.0803V61.0002H329.702V58.0803C331.416 58.0803 332.717 57.8899 333.605 57.509C334.515 57.1282 335.097 56.5886 335.351 55.8904C335.626 55.171 335.764 54.2083 335.764 53.0022V25.9612C335.764 24.7551 335.637 23.8136 335.383 23.1365C335.129 22.4382 334.568 21.8881 333.701 21.4861C332.833 21.0841 331.5 20.8831 329.702 20.8831V17.9631H351.03V20.8831C348.406 20.8831 346.713 21.2745 345.952 22.0574C345.211 22.8403 344.841 24.1415 344.841 25.9612V36.5618H364.804V25.9612C364.804 24.7551 364.688 23.8136 364.455 23.1365C364.222 22.4382 363.672 21.8881 362.805 21.4861C361.937 21.0841 360.594 20.8831 358.774 20.8831V17.9631H379.943V20.8831C378.145 20.8831 376.812 21.0841 375.944 21.4861C375.077 21.8881 374.516 22.4382 374.262 23.1365C374.029 23.8136 373.913 24.7551 373.913 25.9612V53.0022C373.913 54.1659 374.019 55.0969 374.23 55.7952C374.463 56.4722 375.024 57.0224 375.913 57.4456C376.801 57.8687 378.145 58.0803 379.943 58.0803V61.0002ZM432.692 39.4817C432.692 43.3961 431.761 47.0671 429.899 50.4949C428.037 53.9014 425.276 56.6415 421.616 58.7151C417.976 60.7675 413.671 61.7937 408.698 61.7937C404.636 61.7937 401.06 61.1378 397.971 59.8259C394.882 58.5141 392.353 56.7579 390.385 54.5574C388.439 52.3569 386.989 49.9447 386.037 47.321C385.106 44.6973 384.641 42.0631 384.641 39.4182C384.641 35.5885 385.54 31.9703 387.338 28.5637C389.137 25.1571 391.845 22.4171 395.463 20.3435C399.082 18.2488 403.409 17.2014 408.444 17.2014C413.036 17.2014 416.94 17.9526 420.156 19.4548C423.372 20.9571 425.879 22.8508 427.678 25.136C429.476 27.4211 430.756 29.8227 431.518 32.3406C432.301 34.8373 432.692 37.2177 432.692 39.4817ZM422.409 39.3547C422.409 36.9426 422.198 34.6575 421.774 32.4993C421.372 30.3411 420.653 28.3944 419.616 26.6594C418.579 24.9032 417.162 23.5173 415.363 22.5017C413.565 21.4649 411.343 20.9465 408.698 20.9465C405.059 20.9465 402.213 21.8564 400.161 23.676C398.129 25.4745 396.743 27.7385 396.003 30.468C395.284 33.1764 394.924 36.1386 394.924 39.3547C394.924 41.1321 395.04 42.9835 395.273 44.9089C395.506 46.8344 396.066 48.8127 396.955 50.844C397.844 52.8541 399.261 54.5574 401.208 55.9539C403.155 57.3292 405.673 58.0168 408.762 58.0168C411.83 58.0168 414.316 57.308 416.22 55.8904C418.146 54.4516 419.542 52.706 420.41 50.6536C421.298 48.58 421.848 46.6016 422.06 44.7185C422.293 42.8354 422.409 41.0474 422.409 39.3547Z" fill="white"/>
<path d="M108.691 64.2612L113.19 63.2318L113.748 65.8378C113.221 65.8618 112.619 65.9464 111.941 66.0916C111.263 66.2367 110.509 66.4423 109.68 66.7084C110.378 69.9712 109.518 73.6119 107.099 77.6305C104.68 81.6492 101.468 85.1728 97.4627 88.2014C93.5093 91.2633 89.6258 93.2024 85.8122 94.0186C83.8206 94.4449 82.0804 94.2856 80.5915 93.5407C79.145 92.7867 78.2449 91.5834 77.8912 89.9309C77.3652 87.4732 78.4479 84.5604 81.1393 81.1926C83.8307 77.8247 87.1727 74.805 91.1653 72.1335C95.158 69.4621 98.8811 67.6017 102.335 66.5523C101.775 66.0074 101 65.5971 100.011 65.3214C99.0209 65.0458 97.0447 64.7154 94.0818 64.3303C91.1098 63.9029 88.9248 63.2184 87.5268 62.2768C86.1197 61.2928 85.1804 59.6991 84.7087 57.4957C84.2371 55.2922 84.884 52.5171 86.6493 49.1702C88.4145 45.8232 90.7033 42.8517 93.5156 40.2557C96.3612 37.6081 99.0128 36.0214 101.47 35.4953C102.572 35.2595 103.569 35.4671 104.462 36.118C105.346 36.7266 105.91 37.6029 106.155 38.747C106.554 40.6114 105.934 43.2035 104.296 46.5232C102.649 49.8005 100.607 52.4755 98.17 54.5481L96.182 52.7135C97.6532 51.5123 98.8127 49.8904 99.6606 47.8477C100.542 45.7535 100.842 44.0497 100.561 42.7361C100.28 41.4225 99.4399 40.9154 98.0415 41.2146C96.05 41.6409 94.0293 43.3807 91.9796 46.4339C89.9632 49.4358 89.1863 52.0172 89.6488 54.1783C89.9663 55.6614 90.597 56.745 91.5412 57.4292C92.4853 58.1135 94.64 58.7601 98.0054 59.3693C101.362 59.9361 103.801 60.5662 105.323 61.2596C106.836 61.9107 107.959 62.9112 108.691 64.2612ZM83.8936 86.9179C84.3289 88.9518 86.1991 89.6151 89.5043 88.9077C91.3263 88.5177 93.533 87.3364 96.1241 85.3637C98.7668 83.4243 100.931 81.0112 102.618 78.1243C104.356 75.2707 104.957 72.5939 104.422 70.0938C104.359 69.7972 104.2 69.3659 103.946 68.7999C98.2584 70.5932 93.332 73.3538 89.1666 77.0814C85.0436 80.8 83.2859 84.0789 83.8936 86.9179ZM126.507 63.0404L128.304 63.9851C127.786 66.5334 126.554 68.747 124.607 70.626C122.661 72.505 120.628 73.6712 118.51 74.1247C116.433 74.5691 114.555 74.2841 112.876 73.2698C111.239 72.2465 110.175 70.5907 109.686 68.3025C109.196 66.0144 109.661 63.3224 111.081 60.2266C112.502 57.1308 114.594 54.3786 117.357 51.9702C120.163 49.5527 123.092 48.0174 126.143 47.3644C126.567 47.2737 127.211 47.1801 128.077 47.0834L128.417 49.6031C123.801 50.8126 120.228 53.062 117.697 56.3512C115.208 59.6313 114.281 62.7545 114.916 65.7206C115.179 66.9495 115.774 67.8636 116.7 68.4631C117.626 69.0626 118.703 69.2308 119.932 68.9678C121.881 68.5506 124.073 66.5748 126.507 63.0404ZM143.628 60.9712L145.335 61.8024C144.411 63.9056 142.937 65.8165 140.912 67.5351C138.878 69.2113 136.78 70.2807 134.619 70.7432C132.458 71.2058 130.584 70.942 128.999 69.9519C127.413 68.9619 126.398 67.4287 125.954 65.3524C125.119 61.454 126.354 57.1793 129.657 52.5284C133.002 47.8683 136.794 45.0848 141.031 44.1779C143.828 43.5793 145.462 44.3817 145.933 46.5852C146.423 48.8733 145.434 51.5001 142.967 54.4655C140.542 57.4219 136.864 60.4248 131.933 63.4744C132.523 64.3673 133.28 65.0031 134.203 65.3816C135.126 65.7602 136.011 65.8587 136.858 65.6774C138.68 65.2874 140.937 63.7187 143.628 60.9712ZM131.207 61.6356C134.386 59.7145 137.013 57.6011 139.09 55.2954C141.167 52.9897 142.046 51.0953 141.729 49.6122C141.611 49.0613 141.295 48.6194 140.78 48.2863C140.266 47.9533 139.733 47.8457 139.182 47.9636C137.191 48.3899 135.297 50.1025 133.502 53.1013C131.74 56.0487 130.975 58.8935 131.207 61.6356ZM169.638 55.2048L171.191 55.9361C170.658 58.0001 169.701 59.8445 168.32 61.4694C166.982 63.0853 165.656 64.0337 164.343 64.3149C163.029 64.596 161.909 64.4369 160.983 63.8374C160.057 63.2379 159.472 62.3661 159.227 61.2221C158.982 60.078 159.276 57.9322 160.109 54.7848C160.976 51.586 161.264 49.3086 160.974 47.9527C160.847 47.3594 160.479 46.8842 159.871 46.5269C159.296 46.1182 158.669 45.9864 157.991 46.1315C155.83 46.594 154.002 48.7137 152.506 52.4904C151.001 56.2248 149.554 61.4755 148.166 68.2425L144.067 67.7239C143.82 62.6363 143.939 57.6032 144.425 52.6246C144.944 47.5947 145.621 43.9267 146.457 41.6207L149.24 41.8892C148.697 45.1517 148.304 50.6644 148.06 58.4274C151.767 47.1756 156.078 41.0237 160.994 39.9717C162.053 39.745 162.999 39.9192 163.831 40.4945C164.705 41.0606 165.247 41.831 165.456 42.8056C165.664 43.7802 165.727 44.6973 165.646 45.5568C165.555 46.3739 165.139 48.3683 164.4 51.5399C163.694 54.6601 163.418 56.5804 163.573 57.3007C163.727 58.0211 164.061 58.5478 164.576 58.8808C165.081 59.1715 165.524 59.276 165.906 59.1944C166.287 59.1128 166.591 58.9812 166.818 58.7996C167.045 58.6181 167.28 58.3685 167.522 58.0507C167.807 57.724 168.053 57.4274 168.262 57.1611C168.471 56.8948 168.709 56.5559 168.975 56.1444C169.275 55.6814 169.496 55.3682 169.638 55.2048ZM174.343 34.0568C171.97 34.5647 170.579 33.8653 170.171 31.9584C169.944 30.8991 170.051 29.9458 170.49 29.0984C170.929 28.2511 171.614 27.7277 172.547 27.5282C173.479 27.3287 174.3 27.4408 175.012 27.8647C175.723 28.2886 176.173 28.9455 176.364 29.8353C176.554 30.7252 176.477 31.6059 176.132 32.4774C175.787 33.349 175.19 33.8755 174.343 34.0568ZM177.53 52.984L179.032 53.7925C178.432 55.9593 177.435 57.9233 176.039 59.6844C174.677 61.3941 173.317 62.394 171.961 62.6842C169.589 63.1921 168.048 61.7935 167.341 58.4883C166.461 54.3781 167.009 48.6551 168.984 41.3192C169.438 39.7153 169.702 38.7726 169.775 38.4911L172.861 39.5587C172.316 41.3594 171.763 44.1588 171.202 47.9569C170.684 51.746 170.533 54.1491 170.751 55.166C170.96 56.1406 171.321 56.7944 171.836 57.1275C172.35 57.4605 172.904 57.5636 173.497 57.4366C174.641 57.1917 175.985 55.7075 177.53 52.984ZM192.453 48.9257L194.251 49.8704C193.733 52.4186 192.5 54.6323 190.554 56.5113C188.607 58.3903 186.575 59.5565 184.456 60.01C182.38 60.4544 180.502 60.1694 178.822 59.1551C177.185 58.1318 176.122 56.476 175.632 54.1878C175.142 51.8996 175.608 49.2077 177.028 46.1119C178.448 43.0161 180.54 40.2639 183.304 37.8555C186.11 35.438 189.038 33.9027 192.089 33.2497C192.513 33.159 193.158 33.0654 194.023 32.9687L194.363 35.4884C189.748 36.6979 186.174 38.9472 183.643 42.2365C181.155 45.5166 180.228 48.6398 180.863 51.6059C181.126 52.8348 181.72 53.7489 182.646 54.3484C183.572 54.9479 184.649 55.1161 185.878 54.8531C187.827 54.4359 190.019 52.4601 192.453 48.9257Z" fill="white"/>
<path fill-rule="evenodd" clip-rule="evenodd" d="M649 211.104V307C649 329.644 630.644 348 608 348H41C18.3563 348 0 329.644 0 307V215.505L11.0221 217.5L24.1734 215.5L33.6424 223.5L53.6324 228L65.2056 230L78.3569 226L100.451 236L116.233 238.5L134.645 236L146.218 230L173.046 237.5L188.302 240.5H198.823L210.396 234.5H214.079L219.865 228L228.808 230H231.964L246.168 243.5L264.054 260.5L271.944 256L277.731 258.5L283.517 257L296.669 267H304.56L308.768 269.5L319.815 258.5L328.758 257L332.44 251L349.274 246.5L367.686 245H383.994L395.041 243.5L403.458 237.5L417.661 230.5L432.39 222L439.229 215.5L453.959 213H461.323L470.266 215.5L481.839 209.5L488.678 208.5L499.725 213L508.142 215.5L517.085 222L521.293 218.5L526.554 222L534.445 217L541.809 222L544.44 215.5H554.961L576.003 209.5L593.363 200.5L609.144 190L623.348 195.5L649 211.104Z" fill="#D5EEFA"/>
<path fill-rule="evenodd" clip-rule="evenodd" d="M646.432 321.313C640.626 336.899 625.609 348 608 348H41C19.7763 348 2.319 331.874 0.213073 311.206L3.05813 297.571V294.976L11.3661 270.575L16.0393 288.226L22.2702 276.286V284.592L29.5397 270.575L31.0974 288.226L37.8476 275.767L40.9631 292.899L47.7133 278.882L49.7903 286.669L55.502 275.767L59.6559 287.707L66.9254 276.805L70.0408 289.265L74.7141 277.843L77.8295 289.784L82.5027 277.843L86.6567 289.265L89.7722 282.516L94.9646 290.303L98.5994 285.111L100.676 296.533L105.869 286.669L109.504 296.533L112.619 288.226L115.215 298.61L118.331 290.303L121.446 298.61L127.158 285.111L128.716 301.206L135.985 285.111L141.697 302.763L150.005 278.882L154.159 297.571L160.39 286.669L164.544 298.61L169.217 285.631L171.813 297.571L176.486 290.303L179.082 298.61L184.794 289.784L189.467 299.648L198.295 284.592L203.487 301.725L209.199 292.38L211.795 300.167L216.987 290.303L220.103 299.648L225.815 287.707L227.372 299.648L234.123 287.707L239.834 300.167L245.027 288.226L249.181 299.648L257.489 276.805L265.277 297.571L274.624 277.843L280.855 297.571L288.643 281.477L292.797 292.38L297.471 285.111L300.067 289.784L307.336 277.843L312.009 288.226L316.683 281.477L321.356 289.784L328.106 281.477L331.222 289.784L337.452 282.516L341.606 289.784L345.76 280.439L348.876 292.38L351.991 277.843L361.338 294.456L368.088 277.843L376.915 297.571L380.55 284.073L384.185 297.052L392.493 275.767L399.243 292.38L406.512 279.92L410.147 290.822L415.339 283.035L418.974 290.822L421.57 277.843L426.243 290.822L430.917 280.958L436.109 289.784L441.302 273.69L447.013 286.15L452.725 275.767L457.398 285.111H462.071L467.264 266.941L471.937 283.035L477.13 272.652L480.245 284.073L486.476 272.652L490.63 283.035L494.784 275.767L498.419 284.073L501.015 272.132L504.65 274.728L511.4 264.864L517.631 272.132L522.304 264.345L526.458 271.613L528.535 259.672L535.804 271.613L539.958 261.23L543.074 270.575L548.266 262.268L550.862 269.537L556.055 262.268L559.69 269.537L567.998 262.268L571.113 269.537L575.786 264.864L577.863 270.575L586.69 255L590.325 274.728L594.479 261.23L599.672 273.171L606.422 262.268L610.576 273.171L614.211 263.307L618.884 270.575L624.076 263.307L627.711 280.439L635.5 268.498L637.057 278.362L643.807 268.498L649 285.631L646.432 321.313Z" fill="#02013F"/>
<path d="M168.407 318.332H166.847C166.57 317.081 166.199 316.168 165.734 315.593C165.281 315.017 164.766 314.663 164.19 314.53C163.626 314.397 162.835 314.331 161.816 314.331H157.799V322.283H159.907C160.903 322.283 161.578 322.112 161.933 321.769C162.287 321.425 162.497 320.667 162.563 319.494H164.091V326.981H162.53C162.475 326.118 162.37 325.498 162.215 325.122C162.071 324.746 161.816 324.486 161.451 324.342C161.097 324.198 160.56 324.126 159.841 324.126H157.799V330.816C157.799 331.724 157.976 332.394 158.33 332.825C158.695 333.257 159.553 333.473 160.903 333.473H161.368V335H149.813V333.473C151.186 333.473 152.066 333.273 152.453 332.875C152.852 332.465 153.051 331.779 153.051 330.816V316.672C153.051 316.03 152.984 315.532 152.852 315.178C152.719 314.812 152.414 314.53 151.938 314.331C151.474 314.121 150.765 314.016 149.813 314.016V312.488H168.241L168.407 318.332ZM189.208 335H178.6V333.473C179.496 333.473 180.149 333.412 180.559 333.29C180.968 333.157 181.173 332.853 181.173 332.377C181.173 332.045 181.107 331.707 180.974 331.364L179.911 328.708H172.607L172.059 330.169C171.749 330.988 171.594 331.58 171.594 331.945C171.594 332.609 171.849 333.03 172.358 333.207C172.878 333.384 173.481 333.473 174.167 333.473V335H166.414V333.473C167.034 333.473 167.56 333.356 167.992 333.124C168.423 332.892 168.833 332.454 169.22 331.812C169.618 331.16 170.045 330.241 170.498 329.057L176.99 312.057H178.567L185.423 329.588C185.921 330.827 186.286 331.669 186.519 332.111C186.751 332.543 187.072 332.881 187.482 333.124C187.891 333.356 188.467 333.473 189.208 333.473V335ZM179.314 327.081L176.209 319.229L173.254 327.081H179.314ZM222.328 335H211.039V333.473C212.013 333.473 212.727 333.379 213.18 333.19C213.634 332.991 213.927 332.709 214.06 332.344C214.204 331.967 214.276 331.458 214.276 330.816V316.705L205.776 335H204.763L196.147 316.705V330.103C196.147 330.811 196.169 331.353 196.214 331.729C196.269 332.106 196.396 332.427 196.595 332.692C196.806 332.958 197.132 333.157 197.575 333.29C198.018 333.412 198.632 333.473 199.418 333.473V335H191.084V333.473C191.881 333.473 192.495 333.406 192.926 333.273C193.369 333.141 193.69 332.941 193.889 332.676C194.089 332.41 194.21 332.095 194.255 331.729C194.299 331.353 194.321 330.811 194.321 330.103V317.353C194.321 316.401 194.271 315.715 194.172 315.294C194.072 314.873 193.795 314.558 193.341 314.348C192.899 314.126 192.146 314.016 191.084 314.016V312.488H199.318L206.789 328.376L214.276 312.488H222.328V314.016C220.944 314.016 220.048 314.22 219.638 314.63C219.24 315.028 219.041 315.709 219.041 316.672V330.816C219.041 331.425 219.107 331.918 219.24 332.294C219.373 332.67 219.677 332.964 220.153 333.174C220.64 333.373 221.365 333.473 222.328 333.473V335ZM250.583 323.744C250.583 325.792 250.096 327.712 249.122 329.505C248.148 331.287 246.704 332.72 244.789 333.805C242.885 334.878 240.633 335.415 238.032 335.415C235.907 335.415 234.037 335.072 232.421 334.386C230.805 333.7 229.482 332.781 228.453 331.63C227.435 330.479 226.677 329.217 226.179 327.845C225.692 326.472 225.448 325.094 225.448 323.711C225.448 321.708 225.919 319.815 226.859 318.033C227.8 316.251 229.217 314.818 231.109 313.733C233.002 312.638 235.265 312.09 237.899 312.09C240.301 312.09 242.343 312.483 244.025 313.269C245.708 314.054 247.019 315.045 247.96 316.24C248.901 317.436 249.57 318.692 249.969 320.009C250.378 321.315 250.583 322.56 250.583 323.744ZM245.204 323.678C245.204 322.416 245.093 321.221 244.872 320.092C244.662 318.963 244.285 317.945 243.743 317.037C243.201 316.118 242.459 315.394 241.519 314.862C240.578 314.32 239.416 314.049 238.032 314.049C236.129 314.049 234.64 314.525 233.566 315.477C232.504 316.417 231.779 317.602 231.392 319.029C231.015 320.446 230.827 321.995 230.827 323.678C230.827 324.607 230.888 325.576 231.01 326.583C231.131 327.59 231.425 328.625 231.89 329.688C232.354 330.739 233.096 331.63 234.114 332.36C235.132 333.08 236.45 333.439 238.065 333.439C239.67 333.439 240.971 333.069 241.967 332.327C242.974 331.575 243.704 330.661 244.158 329.588C244.623 328.503 244.911 327.468 245.021 326.483C245.143 325.498 245.204 324.563 245.204 323.678ZM277.809 314.016C276.802 314.016 276.077 314.132 275.634 314.364C275.202 314.597 274.937 314.929 274.837 315.36C274.738 315.792 274.688 316.456 274.688 317.353V325.653C274.688 327.181 274.632 328.332 274.522 329.106C274.422 329.87 274.145 330.645 273.692 331.431C272.851 332.947 271.672 333.993 270.156 334.568C268.65 335.133 267.2 335.415 265.806 335.415C264.777 335.415 263.714 335.277 262.618 335C261.534 334.734 260.521 334.292 259.58 333.672C258.64 333.052 257.926 332.239 257.439 331.231C257.173 330.678 256.968 330.125 256.824 329.571C256.681 329.007 256.592 328.481 256.559 327.994C256.537 327.496 256.526 326.849 256.526 326.052L256.492 316.672C256.492 315.698 256.299 315.012 255.911 314.613C255.535 314.215 254.644 314.016 253.239 314.016V312.488H264.594V314.016C263.631 314.016 262.912 314.115 262.436 314.314C261.96 314.503 261.65 314.779 261.506 315.145C261.362 315.499 261.29 316.008 261.29 316.672V326.052C261.29 327.015 261.335 327.861 261.423 328.592C261.523 329.311 261.672 329.942 261.871 330.484C262.248 331.381 262.884 332.1 263.781 332.643C264.688 333.174 265.684 333.439 266.769 333.439C267.931 333.439 269.01 333.157 270.006 332.593C271.013 332.017 271.711 331.276 272.098 330.368C272.408 329.66 272.607 328.929 272.696 328.177C272.795 327.413 272.845 326.506 272.845 325.454V317.353C272.845 316.622 272.823 316.08 272.779 315.726C272.734 315.371 272.613 315.062 272.413 314.796C272.214 314.519 271.882 314.32 271.417 314.198C270.963 314.076 270.333 314.016 269.525 314.016V312.488H277.809V314.016ZM297.049 328.542C297.049 329.239 296.9 329.981 296.601 330.767C296.302 331.541 295.849 332.288 295.24 333.008C294.642 333.716 293.884 334.297 292.965 334.751C292.047 335.194 290.984 335.415 289.778 335.415C288.583 335.415 287.393 335.155 286.209 334.635C285.035 334.115 284.039 333.34 283.22 332.311C282.866 333.13 282.639 333.888 282.54 334.585H281.012V326.882H282.54C282.816 327.989 283.198 329.029 283.685 330.003C284.172 330.977 284.858 331.818 285.744 332.526C286.64 333.224 287.736 333.572 289.031 333.572C290.16 333.572 291.062 333.262 291.737 332.643C292.423 332.023 292.766 331.243 292.766 330.302C292.766 329.771 292.661 329.306 292.451 328.907C292.24 328.509 291.936 328.155 291.538 327.845C291.139 327.524 290.591 327.186 289.894 326.832C289.208 326.467 288.422 326.085 287.537 325.687C286.175 325.045 285.058 324.397 284.183 323.744C283.309 323.091 282.645 322.46 282.191 321.852C281.748 321.232 281.438 320.645 281.261 320.092C281.095 319.538 281.012 318.979 281.012 318.415C281.012 317.408 281.283 316.417 281.826 315.443C282.368 314.458 283.159 313.656 284.2 313.036C285.251 312.405 286.463 312.09 287.836 312.09C288.887 312.09 289.889 312.328 290.84 312.804C291.792 313.269 292.617 313.91 293.314 314.729C293.513 314.265 293.696 313.612 293.862 312.771H295.422V319.046H293.862C292.755 315.626 290.829 313.916 288.085 313.916C287.088 313.916 286.286 314.182 285.677 314.713C285.08 315.233 284.781 315.908 284.781 316.738C284.781 317.391 284.969 317.961 285.345 318.448C285.722 318.924 286.214 319.334 286.823 319.677C287.443 320.02 288.439 320.512 289.811 321.154C291.471 321.94 292.766 322.621 293.696 323.196C294.637 323.772 295.428 324.497 296.07 325.371C296.723 326.245 297.049 327.302 297.049 328.542ZM329.371 318.481C329.371 320.33 328.801 321.735 327.661 322.698C326.521 323.65 325.177 324.264 323.627 324.541C322.089 324.807 320.467 324.939 318.763 324.939H317.269V330.816C317.269 331.48 317.341 331.995 317.485 332.36C317.628 332.726 317.938 333.002 318.414 333.19C318.89 333.379 319.615 333.473 320.589 333.473V335H309.267V333.473C310.23 333.473 310.938 333.373 311.392 333.174C311.857 332.975 312.156 332.692 312.288 332.327C312.432 331.962 312.504 331.458 312.504 330.816V316.605C312.504 315.964 312.438 315.465 312.305 315.111C312.172 314.746 311.873 314.464 311.408 314.265C310.944 314.054 310.23 313.949 309.267 313.949V312.389L315.692 312.223C316.024 312.212 316.383 312.206 316.771 312.206C317.169 312.195 317.485 312.189 317.717 312.189C317.949 312.178 318.293 312.173 318.746 312.173C319.311 312.173 319.731 312.178 320.008 312.189C321.325 312.245 322.592 312.372 323.81 312.571C325.027 312.771 326.256 313.335 327.495 314.265C328.746 315.183 329.371 316.589 329.371 318.481ZM324.258 318.515C324.258 316.722 323.732 315.526 322.681 314.929C321.641 314.32 320.268 314.016 318.564 314.016C318.254 314.016 317.822 314.027 317.269 314.049V323.097H318.796C320.423 323.097 321.74 322.82 322.747 322.267C323.754 321.702 324.258 320.451 324.258 318.515ZM357.776 323.744C357.776 325.792 357.289 327.712 356.315 329.505C355.341 331.287 353.897 332.72 351.982 333.805C350.078 334.878 347.826 335.415 345.225 335.415C343.1 335.415 341.23 335.072 339.614 334.386C337.998 333.7 336.675 332.781 335.646 331.63C334.628 330.479 333.87 329.217 333.372 327.845C332.885 326.472 332.641 325.094 332.641 323.711C332.641 321.708 333.112 319.815 334.052 318.033C334.993 316.251 336.41 314.818 338.302 313.733C340.195 312.638 342.458 312.09 345.092 312.09C347.494 312.09 349.536 312.483 351.218 313.269C352.901 314.054 354.212 315.045 355.153 316.24C356.094 317.436 356.763 318.692 357.162 320.009C357.571 321.315 357.776 322.56 357.776 323.744ZM352.397 323.678C352.397 322.416 352.286 321.221 352.065 320.092C351.855 318.963 351.478 317.945 350.936 317.037C350.394 316.118 349.652 315.394 348.711 314.862C347.771 314.32 346.609 314.049 345.225 314.049C343.322 314.049 341.833 314.525 340.759 315.477C339.697 316.417 338.972 317.602 338.585 319.029C338.208 320.446 338.02 321.995 338.02 323.678C338.02 324.607 338.081 325.576 338.203 326.583C338.324 327.59 338.618 328.625 339.083 329.688C339.547 330.739 340.289 331.63 341.307 332.36C342.325 333.08 343.642 333.439 345.258 333.439C346.863 333.439 348.164 333.069 349.16 332.327C350.167 331.575 350.897 330.661 351.351 329.588C351.816 328.503 352.104 327.468 352.214 326.483C352.336 325.498 352.397 324.563 352.397 323.678ZM382.578 318.88H381.001C380.857 317.485 380.547 316.456 380.071 315.792C379.606 315.128 379.103 314.718 378.56 314.563C378.018 314.409 377.393 314.331 376.684 314.331H373.829V330.816C373.829 331.469 373.895 331.979 374.028 332.344C374.161 332.698 374.471 332.975 374.958 333.174C375.445 333.373 376.159 333.473 377.099 333.473V335H365.81V333.473C367.194 333.473 368.085 333.273 368.483 332.875C368.882 332.477 369.081 331.79 369.081 330.816V314.331H366.69C365.75 314.331 364.969 314.409 364.349 314.563C363.73 314.707 363.182 315.117 362.706 315.792C362.241 316.456 361.975 317.485 361.909 318.88H360.332V312.488H382.578V318.88ZM404.774 335H394.165V333.473C395.062 333.473 395.715 333.412 396.124 333.29C396.534 333.157 396.738 332.853 396.738 332.377C396.738 332.045 396.672 331.707 396.539 331.364L395.477 328.708H388.172L387.624 330.169C387.314 330.988 387.159 331.58 387.159 331.945C387.159 332.609 387.414 333.03 387.923 333.207C388.443 333.384 389.046 333.473 389.733 333.473V335H381.98V333.473C382.599 333.473 383.125 333.356 383.557 333.124C383.988 332.892 384.398 332.454 384.785 331.812C385.184 331.16 385.61 330.241 386.064 329.057L392.555 312.057H394.132L400.988 329.588C401.487 330.827 401.852 331.669 402.084 332.111C402.317 332.543 402.638 332.881 403.047 333.124C403.457 333.356 404.032 333.473 404.774 333.473V335ZM394.879 327.081L391.775 319.229L388.82 327.081H394.879ZM427.368 318.88H425.791C425.647 317.485 425.337 316.456 424.861 315.792C424.396 315.128 423.892 314.718 423.35 314.563C422.808 314.409 422.182 314.331 421.474 314.331H418.619V330.816C418.619 331.469 418.685 331.979 418.818 332.344C418.951 332.698 419.261 332.975 419.748 333.174C420.235 333.373 420.948 333.473 421.889 333.473V335H410.6V333.473C411.984 333.473 412.875 333.273 413.273 332.875C413.671 332.477 413.871 331.79 413.871 330.816V314.331H411.48C410.539 314.331 409.759 314.409 409.139 314.563C408.519 314.707 407.972 315.117 407.496 315.792C407.031 316.456 406.765 317.485 406.699 318.88H405.122V312.488H427.368V318.88ZM454.726 323.744C454.726 325.792 454.239 327.712 453.265 329.505C452.292 331.287 450.847 332.72 448.932 333.805C447.029 334.878 444.777 335.415 442.176 335.415C440.051 335.415 438.18 335.072 436.564 334.386C434.948 333.7 433.626 332.781 432.597 331.63C431.578 330.479 430.82 329.217 430.322 327.845C429.835 326.472 429.592 325.094 429.592 323.711C429.592 321.708 430.062 319.815 431.003 318.033C431.944 316.251 433.36 314.818 435.253 313.733C437.145 312.638 439.409 312.09 442.043 312.09C444.445 312.09 446.487 312.483 448.169 313.269C449.851 314.054 451.163 315.045 452.103 316.24C453.044 317.436 453.714 318.692 454.112 320.009C454.522 321.315 454.726 322.56 454.726 323.744ZM449.348 323.678C449.348 322.416 449.237 321.221 449.015 320.092C448.805 318.963 448.429 317.945 447.887 317.037C447.344 316.118 446.603 315.394 445.662 314.862C444.721 314.32 443.559 314.049 442.176 314.049C440.272 314.049 438.783 314.525 437.71 315.477C436.647 316.417 435.922 317.602 435.535 319.029C435.159 320.446 434.971 321.995 434.971 323.678C434.971 324.607 435.031 325.576 435.153 326.583C435.275 327.59 435.568 328.625 436.033 329.688C436.498 330.739 437.239 331.63 438.258 332.36C439.276 333.08 440.593 333.439 442.209 333.439C443.814 333.439 445.114 333.069 446.11 332.327C447.117 331.575 447.848 330.661 448.302 329.588C448.766 328.503 449.054 327.468 449.165 326.483C449.287 325.498 449.348 324.563 449.348 323.678ZM478.051 327.596L477.868 335H457.814V333.473C459.197 333.473 460.088 333.273 460.486 332.875C460.885 332.477 461.084 331.79 461.084 330.816V316.672C461.084 316.03 461.018 315.532 460.885 315.178C460.763 314.812 460.464 314.53 459.988 314.331C459.524 314.121 458.799 314.016 457.814 314.016V312.488H476.49L476.789 318.332H475.262C474.919 317.037 474.52 316.113 474.067 315.56C473.624 314.995 473.12 314.652 472.556 314.53C472.002 314.397 471.167 314.331 470.049 314.331H465.832V322.283H468.123C468.909 322.283 469.496 322.217 469.883 322.084C470.27 321.94 470.541 321.674 470.696 321.287C470.851 320.9 470.957 320.291 471.012 319.461H472.606V326.948H471.078C471.034 326.118 470.923 325.509 470.746 325.122C470.569 324.724 470.287 324.458 469.9 324.325C469.523 324.192 468.942 324.126 468.156 324.126H465.832V329.422C465.832 330.307 465.854 330.955 465.899 331.364C465.943 331.774 466.059 332.117 466.247 332.394C466.446 332.659 466.762 332.853 467.194 332.975C467.636 333.096 468.262 333.157 469.069 333.157H470.879C471.643 333.157 472.368 333.063 473.054 332.875C473.751 332.676 474.432 332.178 475.096 331.381C475.76 330.573 476.225 329.311 476.49 327.596H478.051ZM498.005 328.542C498.005 329.239 497.856 329.981 497.557 330.767C497.258 331.541 496.804 332.288 496.196 333.008C495.598 333.716 494.84 334.297 493.921 334.751C493.003 335.194 491.94 335.415 490.734 335.415C489.539 335.415 488.349 335.155 487.165 334.635C485.991 334.115 484.995 333.34 484.176 332.311C483.822 333.13 483.595 333.888 483.496 334.585H481.968V326.882H483.496C483.772 327.989 484.154 329.029 484.641 330.003C485.128 330.977 485.814 331.818 486.7 332.526C487.596 333.224 488.692 333.572 489.987 333.572C491.116 333.572 492.018 333.262 492.693 332.643C493.379 332.023 493.722 331.243 493.722 330.302C493.722 329.771 493.617 329.306 493.407 328.907C493.196 328.509 492.892 328.155 492.494 327.845C492.095 327.524 491.547 327.186 490.85 326.832C490.164 326.467 489.378 326.085 488.493 325.687C487.131 325.045 486.013 324.397 485.139 323.744C484.265 323.091 483.601 322.46 483.147 321.852C482.704 321.232 482.394 320.645 482.217 320.092C482.051 319.538 481.968 318.979 481.968 318.415C481.968 317.408 482.239 316.417 482.782 315.443C483.324 314.458 484.115 313.656 485.156 313.036C486.207 312.405 487.419 312.09 488.791 312.09C489.843 312.09 490.845 312.328 491.796 312.804C492.748 313.269 493.573 313.91 494.27 314.729C494.469 314.265 494.652 313.612 494.818 312.771H496.378V319.046H494.818C493.711 315.626 491.785 313.916 489.04 313.916C488.044 313.916 487.242 314.182 486.633 314.713C486.036 315.233 485.737 315.908 485.737 316.738C485.737 317.391 485.925 317.961 486.301 318.448C486.678 318.924 487.17 319.334 487.779 319.677C488.399 320.02 489.395 320.512 490.767 321.154C492.427 321.94 493.722 322.621 494.652 323.196C495.593 323.772 496.384 324.497 497.026 325.371C497.679 326.245 498.005 327.302 498.005 328.542Z" fill="white"/>
<defs>
<linearGradient id="paint0_linear_1051_274" x1="324.5" y1="0.000244141" x2="324.5" y2="348" gradientUnits="userSpaceOnUse">
<stop stop-color="#C50401"/>
<stop offset="0.145833" stop-color="#F10A00"/>
<stop offset="0.270833" stop-color="#F9F9F9"/>
</linearGradient>
</defs>
</svg>
