<svg width="649" height="348" viewBox="0 0 649 348" fill="none" xmlns="http://www.w3.org/2000/svg">
<rect width="649" height="348" rx="41" fill="url(#paint0_linear_1051_307)"/>
<path fill-rule="evenodd" clip-rule="evenodd" d="M649 245.5V307C649 329.644 630.644 348 608 348H41C18.3563 348 0 329.644 0 307V208.5H71V135.5L77 130.5V109.5L81 104V64L87 63V38.5H89.5V61.5H92.5V38.5H95V64H103.5V105L115.5 108.5L116.5 202.5L125 216L163 221V133H191.5V139L199 140V166.5H233L235 161.5H254.5L256 165.5H265V178H289.5V249.5H336.5L371.5 219L451 210L463.5 248.5H494.5V223.5H501.5V192.5H500V183.5H502.5C501.5 148 517 126.5 542.5 113V109.5L536.5 108L533 105V100L536.5 95.5L542.5 92.5V73.5L539 69.5V65L542.5 57.5L549.5 52.5V23H552.5H553.5V52.5L560.5 57.5L564 65V69.5L560.5 73.5V92.5L566 95.5L570.5 100V105L567.5 108L560.5 109.5V112L567.5 117L579.5 126.5L592 142.5L598 157.5L600.5 181.5H602.5V192.5H600.5V222.5H612V231H617.5L614 245.5H649Z" fill="white"/>
<path fill-rule="evenodd" clip-rule="evenodd" d="M0 295.72V263.661L14.5 266L25.5 267.5L40 257.5L48.5 249.5L59 224.5H62.5L79 252L86.5 257.5L104 263.5L123.5 278.5L149 295L160 297L169.5 306L178.5 322L185.929 348H41C23.7551 348 8.99678 337.353 2.9397 322.274L6 318.5L25.5 284H20.5L8 297L0 295.72Z" fill="#68696B"/>
<path d="M177.094 24.8016C175.108 24.8723 173.647 25.0136 172.709 25.2255C171.827 25.4375 171.22 25.8438 170.89 26.4443C170.559 27.0448 170.393 28.0163 170.393 29.3587V55.6413C170.393 56.9837 170.559 57.9552 170.89 58.5557C171.22 59.1563 171.827 59.5625 172.709 59.7745C173.647 59.9864 175.108 60.1277 177.094 60.1984V61.2582C174.557 61.1522 171.055 61.0992 166.588 61.0992C161.846 61.0992 158.316 61.1522 156 61.2582V60.1984C157.985 60.1277 159.419 59.9864 160.301 59.7745C161.239 59.5625 161.873 59.1563 162.204 58.5557C162.535 57.9552 162.7 56.9837 162.7 55.6413V29.3587C162.7 28.0163 162.535 27.0448 162.204 26.4443C161.873 25.8438 161.239 25.4375 160.301 25.2255C159.419 25.0136 157.985 24.8723 156 24.8016V23.7419C158.316 23.8478 161.846 23.9008 166.588 23.9008C171 23.9008 174.502 23.8478 177.094 23.7419V24.8016Z" fill="black"/>
<path d="M205.125 24.8016C203.139 24.8723 201.678 25.0136 200.74 25.2255C199.858 25.4375 199.251 25.8438 198.921 26.4443C198.59 27.0448 198.424 28.0163 198.424 29.3587V55.6413C198.424 56.9837 198.59 57.9552 198.921 58.5557C199.251 59.1563 199.858 59.5625 200.74 59.7745C201.678 59.9511 203.139 60.0394 205.125 60.0394H211.163C214.582 60.0394 217.174 59.7391 218.939 59.1386C220.759 58.5027 222.082 57.4959 222.909 56.1182C223.736 54.7405 224.343 52.7446 224.729 50.1304H226.632C226.466 51.2255 226.383 52.6739 226.383 54.4755C226.383 56.4891 226.576 58.75 226.963 61.2582C223.213 61.1522 216.898 61.0992 208.02 61.0992C197.432 61.0992 189.435 61.1522 184.031 61.2582V60.1984C186.016 60.1277 187.45 59.9864 188.332 59.7745C189.27 59.5625 189.904 59.1563 190.235 58.5557C190.566 57.9552 190.731 56.9837 190.731 55.6413V29.3587C190.731 28.0163 190.566 27.0448 190.235 26.4443C189.904 25.8438 189.27 25.4375 188.332 25.2255C187.45 25.0136 186.016 24.8723 184.031 24.8016V23.7419C186.347 23.8478 189.877 23.9008 194.619 23.9008C199.031 23.9008 202.533 23.8478 205.125 23.7419V24.8016Z" fill="black"/>
<path d="M253.755 24.8016C251.769 24.8723 250.308 25.0136 249.37 25.2255C248.488 25.4375 247.882 25.8438 247.551 26.4443C247.22 27.0448 247.054 28.0163 247.054 29.3587V55.6413C247.054 56.9837 247.22 57.9552 247.551 58.5557C247.882 59.1563 248.488 59.5625 249.37 59.7745C250.308 59.9511 251.769 60.0394 253.755 60.0394H259.793C263.212 60.0394 265.804 59.7391 267.569 59.1386C269.389 58.5027 270.712 57.4959 271.539 56.1182C272.367 54.7405 272.973 52.7446 273.359 50.1304H275.262C275.096 51.2255 275.014 52.6739 275.014 54.4755C275.014 56.4891 275.207 58.75 275.593 61.2582C271.843 61.1522 265.528 61.0992 256.65 61.0992C246.062 61.0992 238.065 61.1522 232.661 61.2582V60.1984C234.646 60.1277 236.08 59.9864 236.963 59.7745C237.9 59.5625 238.534 59.1563 238.865 58.5557C239.196 57.9552 239.361 56.9837 239.361 55.6413V29.3587C239.361 28.0163 239.196 27.0448 238.865 26.4443C238.534 25.8438 237.9 25.4375 236.963 25.2255C236.08 25.0136 234.646 24.8723 232.661 24.8016V23.7419C234.977 23.8478 238.507 23.9008 243.249 23.9008C247.661 23.9008 251.163 23.8478 253.755 23.7419V24.8016Z" fill="black"/>
<path d="M302.385 24.8016C300.399 24.8723 298.938 25.0136 298.001 25.2255C297.118 25.4375 296.512 25.8438 296.181 26.4443C295.85 27.0448 295.684 28.0163 295.684 29.3587V55.6413C295.684 56.9837 295.85 57.9552 296.181 58.5557C296.512 59.1563 297.118 59.5625 298.001 59.7745C298.938 59.9864 300.399 60.1277 302.385 60.1984V61.2582C299.848 61.1522 296.346 61.0992 291.879 61.0992C287.137 61.0992 283.607 61.1522 281.291 61.2582V60.1984C283.277 60.1277 284.71 59.9864 285.593 59.7745C286.53 59.5625 287.164 59.1563 287.495 58.5557C287.826 57.9552 287.992 56.9837 287.992 55.6413V29.3587C287.992 28.0163 287.826 27.0448 287.495 26.4443C287.164 25.8438 286.53 25.4375 285.593 25.2255C284.71 25.0136 283.277 24.8723 281.291 24.8016V23.7419C283.607 23.8478 287.137 23.9008 291.879 23.9008C296.291 23.9008 299.793 23.8478 302.385 23.7419V24.8016Z" fill="black"/>
<path d="M361.27 24.8016C359.34 24.8723 357.906 25.0666 356.969 25.3845C356.031 25.6671 355.397 26.1617 355.066 26.8682C354.735 27.5394 354.57 28.5462 354.57 29.8886V61.5231H352.667L317.925 27.1332V55.1114C317.925 56.4891 318.091 57.5136 318.421 58.1848C318.807 58.856 319.524 59.3505 320.572 59.6685C321.62 59.9511 323.247 60.1277 325.453 60.1984V61.2582C323.467 61.1522 320.655 61.0992 317.015 61.0992C313.706 61.0992 311.142 61.1522 309.322 61.2582V60.1984C311.252 60.1277 312.686 59.9511 313.624 59.6685C314.561 59.3505 315.195 58.856 315.526 58.1848C315.857 57.4783 316.023 56.4538 316.023 55.1114V29.3587C316.023 28.0163 315.857 27.0448 315.526 26.4443C315.195 25.8438 314.561 25.4375 313.624 25.2255C312.741 25.0136 311.308 24.8723 309.322 24.8016V23.7419C311.142 23.8478 313.706 23.9008 317.015 23.9008C319.497 23.9008 321.647 23.8478 323.467 23.7419L352.667 52.5679V29.8886C352.667 28.5109 352.474 27.4864 352.088 26.8152C351.757 26.144 351.068 25.6671 350.02 25.3845C348.973 25.0666 347.346 24.8723 345.14 24.8016V23.7419C347.125 23.8478 349.938 23.9008 353.577 23.9008C356.886 23.9008 359.45 23.8478 361.27 23.7419V24.8016Z" fill="black"/>
<path d="M394.376 23C399.615 23 404.192 23.7595 408.108 25.2785C412.078 26.7976 415.139 29.0054 417.29 31.9022C419.495 34.7636 420.598 38.1902 420.598 42.1821C420.598 46.0679 419.468 49.5122 417.207 52.5149C415.001 55.5177 411.885 57.8492 407.859 59.5095C403.889 61.1698 399.367 62 394.293 62C389.055 62 384.45 61.2405 380.479 59.7215C376.564 58.2024 373.503 56.0122 371.297 53.1508C369.147 50.2541 368.071 46.8098 368.071 42.8179C368.071 38.9321 369.174 35.4878 371.38 32.4851C373.641 29.4823 376.757 27.1508 380.727 25.4905C384.753 23.8302 389.303 23 394.376 23ZM394.045 23.9538C390.516 23.9538 387.4 24.7486 384.698 26.3383C382.051 27.8927 379.983 30.0829 378.494 32.909C377.06 35.7351 376.343 38.9674 376.343 42.606C376.343 46.2799 377.143 49.5122 378.742 52.303C380.397 55.0938 382.602 57.2486 385.36 58.7677C388.117 60.2867 391.205 61.0462 394.624 61.0462C398.154 61.0462 401.242 60.269 403.889 58.7147C406.591 57.125 408.659 54.9171 410.093 52.091C411.582 49.2649 412.326 46.0326 412.326 42.394C412.326 38.7201 411.499 35.4878 409.845 32.697C408.246 29.9063 406.067 27.7514 403.31 26.2323C400.553 24.7133 397.464 23.9538 394.045 23.9538Z" fill="black"/>
<path d="M448.921 24.8016C446.936 24.8723 445.475 25.0136 444.537 25.2255C443.655 25.4375 443.048 25.8438 442.717 26.4443C442.387 27.0448 442.221 28.0163 442.221 29.3587V55.6413C442.221 56.9837 442.387 57.9552 442.717 58.5557C443.048 59.1563 443.655 59.5625 444.537 59.7745C445.475 59.9864 446.936 60.1277 448.921 60.1984V61.2582C446.385 61.1522 442.883 61.0992 438.416 61.0992C433.673 61.0992 430.144 61.1522 427.828 61.2582V60.1984C429.813 60.1277 431.247 59.9864 432.129 59.7745C433.067 59.5625 433.701 59.1563 434.032 58.5557C434.363 57.9552 434.528 56.9837 434.528 55.6413V29.3587C434.528 28.0163 434.363 27.0448 434.032 26.4443C433.701 25.8438 433.067 25.4375 432.129 25.2255C431.247 25.0136 429.813 24.8723 427.828 24.8016V23.7419C430.144 23.8478 433.673 23.9008 438.416 23.9008C442.828 23.9008 446.33 23.8478 448.921 23.7419V24.8016Z" fill="black"/>
<path d="M473.561 23.159C475.987 23.159 477.89 23.3356 479.269 23.6889C480.702 24.0068 482.164 24.4837 483.653 25.1196C484.866 25.6141 485.803 25.8614 486.465 25.8614C486.961 25.8614 487.347 25.6848 487.623 25.3315C487.899 24.9429 488.12 24.3424 488.285 23.5299H490.188C489.912 25.5788 489.774 29.1821 489.774 34.3397H487.871C487.54 31.4783 486.245 29.0761 483.984 27.1332C481.778 25.1549 478.552 24.1658 474.305 24.1658C471.327 24.1658 468.901 24.7486 467.026 25.9144C465.151 27.0448 464.214 28.5109 464.214 30.3125C464.214 31.6549 464.682 32.8207 465.62 33.8098C466.612 34.7989 467.853 35.6467 469.342 36.3533C470.831 37.0598 472.954 37.9606 475.712 39.0557L478.11 40.0095C481.585 41.3872 484.314 42.606 486.3 43.6658C488.34 44.6902 489.967 45.8736 491.18 47.216C492.393 48.5584 493 50.1304 493 51.9321C493 55.1467 491.346 57.6372 488.037 59.4035C484.728 61.1345 480.537 62 475.463 62C472.816 62 470.638 61.8234 468.929 61.4701C467.274 61.1168 465.675 60.6399 464.131 60.0394C462.918 59.5448 461.98 59.2976 461.318 59.2976C460.822 59.2976 460.436 59.4918 460.16 59.8804C459.885 60.2337 459.664 60.8166 459.499 61.6291H457.596C457.817 59.6861 457.927 55.447 457.927 48.9117H459.829C460.215 52.4796 461.594 55.3764 463.965 57.6019C466.337 59.8274 469.976 60.9402 474.884 60.9402C477.862 60.9402 480.399 60.3573 482.495 59.1916C484.59 57.9905 485.638 56.2242 485.638 53.8927C485.638 51.9144 484.59 50.2364 482.495 48.8587C480.454 47.481 477.201 45.9266 472.734 44.1957C469.48 42.9239 466.833 41.7935 464.793 40.8043C462.807 39.8152 461.18 38.6318 459.912 37.2541C458.644 35.841 458.01 34.1984 458.01 32.3261C458.01 29.3587 459.499 27.0978 462.476 25.5435C465.454 23.9538 469.149 23.159 473.561 23.159Z" fill="black"/>
<path d="M199.692 314.232C198.828 314.28 198.192 314.376 197.784 314.52C197.4 314.664 197.136 314.94 196.992 315.348C196.848 315.756 196.776 316.416 196.776 317.328V335.184C196.776 336.096 196.848 336.756 196.992 337.164C197.136 337.572 197.4 337.848 197.784 337.992C198.192 338.112 198.828 338.172 199.692 338.172H202.32C203.808 338.172 204.936 337.968 205.704 337.56C206.496 337.128 207.072 336.444 207.432 335.508C207.792 334.572 208.056 333.216 208.224 331.44H209.052C208.98 332.184 208.944 333.168 208.944 334.392C208.944 335.76 209.028 337.296 209.196 339C207.564 338.928 204.816 338.892 200.952 338.892C196.344 338.892 192.864 338.928 190.512 339V338.28C191.376 338.232 192 338.136 192.384 337.992C192.792 337.848 193.068 337.572 193.212 337.164C193.356 336.756 193.428 336.096 193.428 335.184V317.328C193.428 316.416 193.356 315.756 193.212 315.348C193.068 314.94 192.792 314.664 192.384 314.52C192 314.376 191.376 314.28 190.512 314.232V313.512C191.52 313.584 193.056 313.62 195.12 313.62C197.04 313.62 198.564 313.584 199.692 313.512V314.232ZM227.444 335.976C228.092 337.464 228.92 338.232 229.928 338.28V339C228.968 338.928 227.684 338.892 226.076 338.892C224.012 338.892 222.476 338.928 221.468 339V338.28C222.356 338.232 223.004 338.112 223.412 337.92C223.844 337.728 224.06 337.404 224.06 336.948C224.06 336.564 223.892 336 223.556 335.256L221.72 331.152H212.972L211.748 333.852C211.34 334.788 211.136 335.556 211.136 336.156C211.136 336.78 211.352 337.272 211.784 337.632C212.24 337.968 212.96 338.184 213.944 338.28V339C213.224 338.928 212.132 338.892 210.668 338.892C209.204 338.892 208.16 338.928 207.536 339V338.28C208.184 338.112 208.736 337.752 209.192 337.2C209.648 336.624 210.08 335.868 210.488 334.932L218.444 316.932H219.02L227.444 335.976ZM221.432 330.432L217.364 321.288L213.26 330.432H221.432ZM250.708 317.832C249.868 317.88 249.244 318.012 248.836 318.228C248.428 318.42 248.152 318.756 248.008 319.236C247.864 319.692 247.792 320.376 247.792 321.288V339.18H246.964L232.564 319.236V334.824C232.564 335.76 232.636 336.456 232.78 336.912C232.948 337.368 233.26 337.704 233.716 337.92C234.172 338.112 234.88 338.232 235.84 338.28V339C234.976 338.928 233.752 338.892 232.168 338.892C230.728 338.892 229.612 338.928 228.82 339V338.28C229.66 338.232 230.284 338.112 230.692 337.92C231.1 337.704 231.376 337.368 231.52 336.912C231.664 336.432 231.736 335.736 231.736 334.824V320.928C231.736 320.016 231.664 319.356 231.52 318.948C231.376 318.54 231.1 318.264 230.692 318.12C230.308 317.976 229.684 317.88 228.82 317.832V317.112C229.612 317.184 230.728 317.22 232.168 317.22C233.464 317.22 234.568 317.184 235.48 317.112L246.964 333.096V321.288C246.964 320.352 246.88 319.656 246.712 319.2C246.568 318.744 246.268 318.42 245.812 318.228C245.356 318.012 244.648 317.88 243.688 317.832V317.112C244.552 317.184 245.776 317.22 247.36 317.22C248.8 317.22 249.916 317.184 250.708 317.112V317.832ZM260.561 317.112C264.305 317.112 267.113 318.024 268.985 319.848C270.881 321.648 271.829 324.288 271.829 327.768C271.829 330.024 271.373 332.004 270.461 333.708C269.549 335.388 268.217 336.696 266.465 337.632C264.737 338.544 262.661 339 260.237 339L258.149 338.964C256.805 338.916 255.821 338.892 255.197 338.892C253.229 338.892 251.741 338.928 250.733 339V338.28C251.597 338.232 252.221 338.136 252.605 337.992C253.013 337.848 253.289 337.572 253.433 337.164C253.577 336.756 253.649 336.096 253.649 335.184V320.928C253.649 320.016 253.577 319.356 253.433 318.948C253.289 318.54 253.013 318.264 252.605 318.12C252.221 317.976 251.597 317.88 250.733 317.832V317.112C251.573 317.184 252.737 317.22 254.225 317.22L257.285 317.184C258.917 317.136 260.009 317.112 260.561 317.112ZM259.661 317.76C258.917 317.76 258.353 317.844 257.969 318.012C257.609 318.18 257.357 318.48 257.213 318.912C257.069 319.344 256.997 319.992 256.997 320.856V335.256C256.997 336.12 257.069 336.768 257.213 337.2C257.357 337.632 257.609 337.932 257.969 338.1C258.353 338.268 258.929 338.352 259.697 338.352C261.881 338.352 263.597 337.968 264.845 337.2C266.093 336.408 266.969 335.256 267.473 333.744C267.977 332.232 268.229 330.288 268.229 327.912C268.229 324.408 267.581 321.84 266.285 320.208C264.989 318.576 262.781 317.76 259.661 317.76ZM290.716 316.608C292.924 316.608 294.856 317.052 296.512 317.94C298.192 318.804 299.488 320.088 300.4 321.792C301.312 323.472 301.768 325.488 301.768 327.84C301.768 330.144 301.288 332.184 300.328 333.96C299.392 335.712 298.084 337.08 296.404 338.064C294.724 339.024 292.816 339.504 290.68 339.504C288.472 339.504 286.528 339.072 284.848 338.208C283.192 337.32 281.908 336.036 280.996 334.356C280.084 332.652 279.628 330.624 279.628 328.272C279.628 325.968 280.096 323.94 281.032 322.188C281.992 320.412 283.312 319.044 284.992 318.084C286.672 317.1 288.58 316.608 290.716 316.608ZM290.572 317.256C289.108 317.256 287.812 317.724 286.684 318.66C285.58 319.572 284.728 320.856 284.128 322.512C283.528 324.144 283.228 326.016 283.228 328.128C283.228 330.264 283.564 332.148 284.236 333.78C284.908 335.412 285.82 336.672 286.972 337.56C288.124 338.424 289.408 338.856 290.824 338.856C292.288 338.856 293.572 338.4 294.676 337.488C295.804 336.552 296.668 335.268 297.268 333.636C297.868 331.98 298.168 330.096 298.168 327.984C298.168 325.848 297.832 323.964 297.16 322.332C296.488 320.7 295.576 319.452 294.424 318.588C293.272 317.7 291.988 317.256 290.572 317.256ZM319.585 317.112C319.417 318.552 319.333 319.848 319.333 321C319.333 321.936 319.369 322.68 319.441 323.232H318.613C318.445 321.264 318.025 319.896 317.353 319.128C316.705 318.336 315.637 317.94 314.149 317.94H311.521C310.657 317.94 310.021 318.012 309.613 318.156C309.229 318.276 308.965 318.54 308.821 318.948C308.677 319.356 308.605 320.016 308.605 320.928V327.624H311.593C312.361 327.624 312.949 327.432 313.357 327.048C313.765 326.64 314.041 326.208 314.185 325.752C314.329 325.272 314.461 324.672 314.581 323.952H315.409C315.337 324.768 315.301 325.656 315.301 326.616V327.984C315.301 328.92 315.373 330.264 315.517 332.016H314.689C314.545 330.864 314.269 329.964 313.861 329.316C313.453 328.668 312.697 328.344 311.593 328.344H308.605V335.184C308.605 336.096 308.701 336.756 308.893 337.164C309.085 337.572 309.421 337.848 309.901 337.992C310.381 338.136 311.161 338.232 312.241 338.28V339C310.993 338.928 309.229 338.892 306.949 338.892C304.885 338.892 303.349 338.928 302.341 339V338.28C303.205 338.232 303.829 338.136 304.213 337.992C304.621 337.848 304.897 337.572 305.041 337.164C305.185 336.756 305.257 336.096 305.257 335.184V320.928C305.257 320.016 305.185 319.356 305.041 318.948C304.897 318.54 304.621 318.264 304.213 318.12C303.829 317.976 303.205 317.88 302.341 317.832V317.112C304.621 317.184 307.981 317.22 312.421 317.22C315.781 317.22 318.169 317.184 319.585 317.112ZM334.43 314.232C333.566 314.28 332.93 314.376 332.522 314.52C332.138 314.664 331.874 314.94 331.73 315.348C331.586 315.756 331.514 316.416 331.514 317.328V335.184C331.514 336.096 331.586 336.756 331.73 337.164C331.874 337.572 332.138 337.848 332.522 337.992C332.93 338.112 333.566 338.172 334.43 338.172H337.058C338.546 338.172 339.674 337.968 340.442 337.56C341.234 337.128 341.81 336.444 342.17 335.508C342.53 334.572 342.794 333.216 342.962 331.44H343.79C343.718 332.184 343.682 333.168 343.682 334.392C343.682 335.76 343.766 337.296 343.934 339C342.302 338.928 339.554 338.892 335.69 338.892C331.082 338.892 327.602 338.928 325.25 339V338.28C326.114 338.232 326.738 338.136 327.122 337.992C327.53 337.848 327.806 337.572 327.95 337.164C328.094 336.756 328.166 336.096 328.166 335.184V317.328C328.166 316.416 328.094 315.756 327.95 315.348C327.806 314.94 327.53 314.664 327.122 314.52C326.738 314.376 326.114 314.28 325.25 314.232V313.512C326.258 313.584 327.794 313.62 329.858 313.62C331.778 313.62 333.302 313.584 334.43 313.512V314.232ZM353.075 317.832C352.211 317.88 351.575 317.976 351.167 318.12C350.783 318.264 350.519 318.54 350.375 318.948C350.231 319.356 350.159 320.016 350.159 320.928V335.184C350.159 336.096 350.231 336.756 350.375 337.164C350.519 337.572 350.783 337.848 351.167 337.992C351.575 338.136 352.211 338.232 353.075 338.28V339C351.971 338.928 350.447 338.892 348.503 338.892C346.439 338.892 344.903 338.928 343.895 339V338.28C344.759 338.232 345.383 338.136 345.767 337.992C346.175 337.848 346.451 337.572 346.595 337.164C346.739 336.756 346.811 336.096 346.811 335.184V320.928C346.811 320.016 346.739 319.356 346.595 318.948C346.451 318.54 346.175 318.264 345.767 318.12C345.383 317.976 344.759 317.88 343.895 317.832V317.112C344.903 317.184 346.439 317.22 348.503 317.22C350.423 317.22 351.947 317.184 353.075 317.112V317.832ZM375.462 317.832C374.622 317.88 373.998 318.012 373.59 318.228C373.182 318.42 372.906 318.756 372.762 319.236C372.618 319.692 372.546 320.376 372.546 321.288V339.18H371.718L357.318 319.236V334.824C357.318 335.76 357.39 336.456 357.534 336.912C357.702 337.368 358.014 337.704 358.47 337.92C358.926 338.112 359.634 338.232 360.594 338.28V339C359.73 338.928 358.506 338.892 356.922 338.892C355.482 338.892 354.366 338.928 353.574 339V338.28C354.414 338.232 355.038 338.112 355.446 337.92C355.854 337.704 356.13 337.368 356.274 336.912C356.418 336.432 356.49 335.736 356.49 334.824V320.928C356.49 320.016 356.418 319.356 356.274 318.948C356.13 318.54 355.854 318.264 355.446 318.12C355.062 317.976 354.438 317.88 353.574 317.832V317.112C354.366 317.184 355.482 317.22 356.922 317.22C358.218 317.22 359.322 317.184 360.234 317.112L371.718 333.096V321.288C371.718 320.352 371.634 319.656 371.466 319.2C371.322 318.744 371.022 318.42 370.566 318.228C370.11 318.012 369.402 317.88 368.442 317.832V317.112C369.306 317.184 370.53 317.22 372.114 317.22C373.554 317.22 374.67 317.184 375.462 317.112V317.832ZM386.436 316.608C387.612 316.608 388.608 316.812 389.424 317.22C390.24 317.604 391.092 318.18 391.98 318.948C392.244 319.164 392.472 319.272 392.664 319.272C393.144 319.272 393.456 318.552 393.6 317.112H394.428C394.332 318.552 394.284 321.072 394.284 324.672H393.456C393.216 323.424 392.976 322.5 392.736 321.9C392.496 321.3 392.136 320.688 391.656 320.064C390.984 319.176 390.18 318.504 389.244 318.048C388.308 317.568 387.324 317.328 386.292 317.328C384.876 317.328 383.64 317.76 382.584 318.624C381.552 319.488 380.748 320.736 380.172 322.368C379.596 324 379.308 325.92 379.308 328.128C379.308 330.384 379.62 332.316 380.244 333.924C380.892 335.508 381.756 336.72 382.836 337.56C383.94 338.376 385.176 338.784 386.544 338.784C387.6 338.784 388.608 338.556 389.568 338.1C390.552 337.62 391.38 336.936 392.052 336.048C392.508 335.424 392.844 334.764 393.06 334.068C393.3 333.372 393.516 332.376 393.708 331.08H394.536C394.536 334.848 394.584 337.488 394.68 339H393.852C393.78 338.256 393.672 337.716 393.528 337.38C393.384 337.02 393.192 336.84 392.952 336.84C392.76 336.84 392.52 336.948 392.232 337.164C391.32 337.932 390.432 338.52 389.568 338.928C388.704 339.312 387.648 339.504 386.4 339.504C384.264 339.504 382.392 339.072 380.784 338.208C379.176 337.32 377.928 336.036 377.04 334.356C376.152 332.652 375.708 330.624 375.708 328.272C375.708 325.968 376.164 323.94 377.076 322.188C377.988 320.412 379.26 319.044 380.892 318.084C382.524 317.1 384.372 316.608 386.436 316.608ZM407.373 316.608C409.581 316.608 411.513 317.052 413.169 317.94C414.849 318.804 416.145 320.088 417.057 321.792C417.969 323.472 418.425 325.488 418.425 327.84C418.425 330.144 417.945 332.184 416.985 333.96C416.049 335.712 414.741 337.08 413.061 338.064C411.381 339.024 409.473 339.504 407.337 339.504C405.129 339.504 403.185 339.072 401.505 338.208C399.849 337.32 398.565 336.036 397.653 334.356C396.741 332.652 396.285 330.624 396.285 328.272C396.285 325.968 396.753 323.94 397.689 322.188C398.649 320.412 399.969 319.044 401.649 318.084C403.329 317.1 405.237 316.608 407.373 316.608ZM407.229 317.256C405.765 317.256 404.469 317.724 403.341 318.66C402.237 319.572 401.385 320.856 400.785 322.512C400.185 324.144 399.885 326.016 399.885 328.128C399.885 330.264 400.221 332.148 400.893 333.78C401.565 335.412 402.477 336.672 403.629 337.56C404.781 338.424 406.065 338.856 407.481 338.856C408.945 338.856 410.229 338.4 411.333 337.488C412.461 336.552 413.325 335.268 413.925 333.636C414.525 331.98 414.825 330.096 414.825 327.984C414.825 325.848 414.489 323.964 413.817 322.332C413.145 320.7 412.233 319.452 411.081 318.588C409.929 317.7 408.645 317.256 407.229 317.256ZM428.178 317.832C427.314 317.88 426.678 317.976 426.27 318.12C425.886 318.264 425.622 318.54 425.478 318.948C425.334 319.356 425.262 320.016 425.262 320.928V335.184C425.262 336.096 425.334 336.756 425.478 337.164C425.622 337.572 425.886 337.848 426.27 337.992C426.678 338.112 427.314 338.172 428.178 338.172H430.446C432.102 338.172 433.386 337.68 434.298 336.696C435.234 335.712 435.798 334.08 435.99 331.8H436.818C436.746 332.544 436.71 333.528 436.71 334.752C436.71 336 436.794 337.416 436.962 339C435.402 338.928 432.774 338.892 429.078 338.892C424.638 338.892 421.278 338.928 418.998 339V338.28C419.862 338.232 420.486 338.136 420.87 337.992C421.278 337.848 421.554 337.572 421.698 337.164C421.842 336.756 421.914 336.096 421.914 335.184V320.928C421.914 320.016 421.842 319.356 421.698 318.948C421.554 318.54 421.278 318.264 420.87 318.12C420.486 317.976 419.862 317.88 418.998 317.832V317.112C420.006 317.184 421.542 317.22 423.606 317.22C425.526 317.22 427.05 317.184 428.178 317.112V317.832ZM459.003 317.832C458.163 317.88 457.539 318.012 457.131 318.228C456.723 318.42 456.447 318.756 456.303 319.236C456.159 319.692 456.087 320.376 456.087 321.288V339.18H455.259L440.859 319.236V334.824C440.859 335.76 440.931 336.456 441.075 336.912C441.243 337.368 441.555 337.704 442.011 337.92C442.467 338.112 443.175 338.232 444.135 338.28V339C443.271 338.928 442.047 338.892 440.463 338.892C439.023 338.892 437.907 338.928 437.115 339V338.28C437.955 338.232 438.579 338.112 438.987 337.92C439.395 337.704 439.671 337.368 439.815 336.912C439.959 336.432 440.031 335.736 440.031 334.824V320.928C440.031 320.016 439.959 319.356 439.815 318.948C439.671 318.54 439.395 318.264 438.987 318.12C438.603 317.976 437.979 317.88 437.115 317.832V317.112C437.907 317.184 439.023 317.22 440.463 317.22C441.759 317.22 442.863 317.184 443.775 317.112L455.259 333.096V321.288C455.259 320.352 455.175 319.656 455.007 319.2C454.863 318.744 454.563 318.42 454.107 318.228C453.651 318.012 452.943 317.88 451.983 317.832V317.112C452.847 317.184 454.071 317.22 455.655 317.22C457.095 317.22 458.211 317.184 459.003 317.112V317.832Z" fill="black"/>
<path fill-rule="evenodd" clip-rule="evenodd" d="M0 238.553V68.5H40.5L62 94L69.5 141.5L78 155L83 168.5L62 198.5L47.5 222L0 238.553Z" fill="white"/>
<path fill-rule="evenodd" clip-rule="evenodd" d="M0 90.925V44.1786L5.5 43L15.5 42L24.5 45L30 47H35L41.5 45L49 47L59 54L64.5 59.5L66.5 66L64.5 73.5L61.5 81.5L69 83L73.5 88.5L78 95L81 106.5L83 115L84 122.5L85.5 137.5L86.5 144L84.5 150L75.5 155.5L70 161.5L68.5 173.5L64.5 179L61.5 184.5L64.5 190L69 195L64 204.5L61 209L59 217L52.5 223L44.5 232.5L41 238L35.5 243L29.5 245.5H22L17.5 248.5L12 253.5L4.5 256L0 256.643V219.151L22 215L33 211.5H46.5L52.5 204.5V194L50 186L58 177.5L61 169.5V159.5L58 152.5L61 143.5V122.5V108.5L56 99.5L49.5 92L43.5 86.5L38 83L31 82L25.5 84L18.5 90L0 90.925ZM0 184.627V193.286L2.5 191.5L10 188.5V186L0 184.627ZM0 202.57V205.351L27.5 204.5L0 202.57ZM0 211.5V215H2.5L12 211.5H0Z" fill="#959699"/>
<path d="M8.5 152.5L6 147.5L4 145L6 141.5L11 140.5L20.5 137.5H26L31 134V140.5L32.5 145L36.5 150L37.5 152.5L32.5 150L28 147.5L24.5 145L22 145.5V149.5L25 149L26.5 151L27 153L26.5 155L23.5 155.5H21.5L20 153.5V151.5L21 149.5H22V145.5L19 147L13.5 149.5L10.5 153L8.5 152.5Z" fill="#959699"/>
<defs>
<linearGradient id="paint0_linear_1051_307" x1="324.5" y1="0" x2="324.5" y2="348" gradientUnits="userSpaceOnUse">
<stop stop-color="#4AB0E4"/>
<stop offset="0.8125" stop-color="#F9F9F9"/>
</linearGradient>
</defs>
</svg>
