<svg width="649" height="348" viewBox="0 0 649 348" fill="none" xmlns="http://www.w3.org/2000/svg">
<rect width="649" height="348" rx="41" fill="url(#paint0_linear_1051_342)"/>
<path d="M174.82 71V67.555H177.55C178.2 67.555 178.763 67.4683 179.24 67.295C179.76 67.0783 180.15 66.6667 180.41 66.06C180.713 65.4533 180.865 64.5433 180.865 63.33V32.26C180.865 31.0033 180.713 30.0933 180.41 29.53C180.15 28.9233 179.76 28.5333 179.24 28.36C178.763 28.1433 178.2 28.035 177.55 28.035H174.82V24.59H197.245V28.035H194.515C193.908 28.035 193.345 28.1433 192.825 28.36C192.305 28.5333 191.893 28.9233 191.59 29.53C191.33 30.0933 191.2 31.0033 191.2 32.26V63.33C191.2 64.5433 191.33 65.4533 191.59 66.06C191.893 66.6667 192.305 67.0783 192.825 67.295C193.345 67.4683 193.908 67.555 194.515 67.555H197.245V71H174.82ZM200.909 71V67.555H203.639C204.246 67.555 204.787 67.4683 205.264 67.295C205.784 67.0783 206.196 66.6667 206.499 66.06C206.802 65.4533 206.954 64.5433 206.954 63.33V32C206.954 30.83 206.802 29.9633 206.499 29.4C206.196 28.8367 205.784 28.4683 205.264 28.295C204.787 28.1217 204.246 28.035 203.639 28.035H200.909V24.59H215.339L238.284 57.025V32C238.284 30.83 238.132 29.9633 237.829 29.4C237.526 28.8367 237.114 28.4683 236.594 28.295C236.117 28.1217 235.576 28.035 234.969 28.035H232.239V24.59H249.204V28.035H246.474C245.867 28.035 245.304 28.1433 244.784 28.36C244.307 28.5333 243.917 28.9233 243.614 29.53C243.311 30.0933 243.159 31.0033 243.159 32.26V71H237.179L211.829 35.185V63.33C211.829 64.5433 211.981 65.4533 212.284 66.06C212.587 66.6667 212.977 67.0783 213.454 67.295C213.974 67.4683 214.537 67.555 215.144 67.555H217.874V71H200.909ZM252.134 71V67.555H254.864C255.514 67.555 256.078 67.4683 256.554 67.295C257.074 67.0783 257.464 66.6667 257.724 66.06C258.028 65.4533 258.179 64.5433 258.179 63.33V32C258.179 30.83 258.028 29.9633 257.724 29.4C257.421 28.8367 257.009 28.4683 256.489 28.295C256.013 28.1217 255.471 28.035 254.864 28.035H252.134V24.59H273.584C278.394 24.59 282.511 25.435 285.934 27.125C289.358 28.7717 291.979 31.2633 293.799 34.6C295.663 37.8933 296.594 42.01 296.594 46.95C296.594 51.6733 295.728 55.855 293.994 59.495C292.261 63.0917 289.683 65.9083 286.259 67.945C282.879 69.9817 278.654 71 273.584 71H252.134ZM272.089 66.97C275.079 66.97 277.571 66.1683 279.564 64.565C281.558 62.9617 283.053 60.665 284.049 57.675C285.089 54.6417 285.609 51.045 285.609 46.885C285.609 42.7683 285.089 39.3667 284.049 36.68C283.053 33.95 281.558 31.9133 279.564 30.57C277.571 29.2267 275.101 28.555 272.154 28.555H268.449V66.97H272.089ZM301.964 71V67.555H304.694C305.344 67.555 305.907 67.4683 306.384 67.295C306.904 67.0783 307.294 66.6667 307.554 66.06C307.857 65.4533 308.009 64.5433 308.009 63.33V32.26C308.009 31.0033 307.857 30.0933 307.554 29.53C307.294 28.9233 306.904 28.5333 306.384 28.36C305.907 28.1433 305.344 28.035 304.694 28.035H301.964V24.59H324.389V28.035H321.659C321.052 28.035 320.489 28.1433 319.969 28.36C319.449 28.5333 319.037 28.9233 318.734 29.53C318.474 30.0933 318.344 31.0033 318.344 32.26V63.33C318.344 64.5433 318.474 65.4533 318.734 66.06C319.037 66.6667 319.449 67.0783 319.969 67.295C320.489 67.4683 321.052 67.555 321.659 67.555H324.389V71H301.964ZM326.492 71V67.555H327.272C328.052 67.555 328.746 67.425 329.352 67.165C329.959 66.905 330.501 66.45 330.977 65.8C331.497 65.1067 331.996 64.11 332.472 62.81L346.577 24.59H355.482L369.067 62.875C369.501 64.0883 369.956 65.0417 370.432 65.735C370.952 66.385 371.494 66.8617 372.057 67.165C372.664 67.425 373.314 67.555 374.007 67.555H375.177V71H353.727V67.555H356.262C356.912 67.555 357.541 67.36 358.147 66.97C358.754 66.58 359.057 65.93 359.057 65.02C359.057 64.6733 359.014 64.3267 358.927 63.98C358.884 63.6333 358.819 63.3083 358.732 63.005C358.646 62.7017 358.559 62.4417 358.472 62.225L356.197 55.725H340.402L338.517 61.315C338.431 61.6617 338.322 62.0517 338.192 62.485C338.062 62.9183 337.954 63.3733 337.867 63.85C337.781 64.2833 337.737 64.6733 337.737 65.02C337.737 65.8433 338.041 66.4717 338.647 66.905C339.254 67.3383 339.926 67.555 340.662 67.555H343.392V71H326.492ZM341.767 51.76H354.897L351.452 41.1C351.149 40.1033 350.824 39.0417 350.477 37.915C350.131 36.745 349.806 35.575 349.502 34.405C349.199 33.235 348.917 32.1517 348.657 31.155C348.484 31.8483 348.267 32.6067 348.007 33.43C347.747 34.21 347.487 35.0333 347.227 35.9C346.967 36.7233 346.686 37.5683 346.382 38.435C346.122 39.2583 345.862 40.0383 345.602 40.775L341.767 51.76ZM376.993 71V67.555H379.723C380.33 67.555 380.871 67.4683 381.348 67.295C381.868 67.0783 382.28 66.6667 382.583 66.06C382.886 65.4533 383.038 64.5433 383.038 63.33V32C383.038 30.83 382.886 29.9633 382.583 29.4C382.28 28.8367 381.868 28.4683 381.348 28.295C380.871 28.1217 380.33 28.035 379.723 28.035H376.993V24.59H391.423L414.368 57.025V32C414.368 30.83 414.216 29.9633 413.913 29.4C413.61 28.8367 413.198 28.4683 412.678 28.295C412.201 28.1217 411.66 28.035 411.053 28.035H408.323V24.59H425.288V28.035H422.558C421.951 28.035 421.388 28.1433 420.868 28.36C420.391 28.5333 420.001 28.9233 419.698 29.53C419.395 30.0933 419.243 31.0033 419.243 32.26V71H413.263L387.913 35.185V63.33C387.913 64.5433 388.065 65.4533 388.368 66.06C388.671 66.6667 389.061 67.0783 389.538 67.295C390.058 67.4683 390.621 67.555 391.228 67.555H393.958V71H376.993ZM426.658 71V67.555H427.438C428.218 67.555 428.912 67.425 429.518 67.165C430.125 66.905 430.667 66.45 431.143 65.8C431.663 65.1067 432.162 64.11 432.638 62.81L446.743 24.59H455.648L469.233 62.875C469.667 64.0883 470.122 65.0417 470.598 65.735C471.118 66.385 471.66 66.8617 472.223 67.165C472.83 67.425 473.48 67.555 474.173 67.555H475.343V71H453.893V67.555H456.428C457.078 67.555 457.707 67.36 458.313 66.97C458.92 66.58 459.223 65.93 459.223 65.02C459.223 64.6733 459.18 64.3267 459.093 63.98C459.05 63.6333 458.985 63.3083 458.898 63.005C458.812 62.7017 458.725 62.4417 458.638 62.225L456.363 55.725H440.568L438.683 61.315C438.597 61.6617 438.488 62.0517 438.358 62.485C438.228 62.9183 438.12 63.3733 438.033 63.85C437.947 64.2833 437.903 64.6733 437.903 65.02C437.903 65.8433 438.207 66.4717 438.813 66.905C439.42 67.3383 440.092 67.555 440.828 67.555H443.558V71H426.658ZM441.933 51.76H455.063L451.618 41.1C451.315 40.1033 450.99 39.0417 450.643 37.915C450.297 36.745 449.972 35.575 449.668 34.405C449.365 33.235 449.083 32.1517 448.823 31.155C448.65 31.8483 448.433 32.6067 448.173 33.43C447.913 34.21 447.653 35.0333 447.393 35.9C447.133 36.7233 446.852 37.5683 446.548 38.435C446.288 39.2583 446.028 40.0383 445.768 40.775L441.933 51.76Z" fill="#313879"/>
<path fill-rule="evenodd" clip-rule="evenodd" d="M649 247.181V307C649 329.644 630.644 348 608 348H41C18.3563 348 0 329.644 0 307V224.47L24.0995 193L32.7108 211.371V233.65L42.105 247.721L47.5849 262.964L57.3705 252.02L59.3277 262.964L71.4618 252.02L72.6361 264.137L82.4217 250.848L85.9445 273.909L87.5102 288.761L92.5987 301.66L102.384 296.579L105.516 271.563L110.996 264.137L114.91 253.193L122.347 273.909L129.784 264.137H138.787L145.832 273.909L152.487 288.761V301.66L207.677 303.223H222.551L259.345 327.066H380.295L411.218 300.878L433.92 303.223L513.379 300.878L521.599 292.67L529.036 286.807L545.085 269.609L555.653 249.675L567.004 272.736L581.487 266.091L597.535 262.964L613.192 269.609L617.889 226.614L624.935 205.117L635.895 221.924L646.855 244.594L649 247.181Z" fill="#0D7F4C"/>
<path fill-rule="evenodd" clip-rule="evenodd" d="M386.985 348H270.594C270.291 340.971 268.022 334.718 259 327.5C250.5 321.5 227.5 306 222 303.5C355.4 308.836 385.19 311.008 386.985 348Z" fill="#0DBAFF"/>
<path d="M210.26 280.524V303H430.523V280.524L436 271H204L210.26 280.524Z" fill="#B23638"/>
<path d="M200.813 260L192 271.623L230.19 272.038L222.636 282H418.203L411.489 272.038H448L439.187 260H200.813Z" fill="#CBCBCB" stroke="#888888" stroke-width="2"/>
<defs>
<linearGradient id="paint0_linear_1051_342" x1="324.5" y1="0" x2="324.5" y2="348" gradientUnits="userSpaceOnUse">
<stop stop-color="#98E0F6"/>
<stop offset="0.635417" stop-color="#F9F9F9"/>
</linearGradient>
</defs>
</svg>
