<svg width="649" height="348" viewBox="0 0 649 348" fill="none" xmlns="http://www.w3.org/2000/svg">
<rect width="649" height="348" rx="41" fill="#0085B0"/>
<path d="M226.03 21.935H240.33C239.94 24.6 239.81 26.81 239.81 31.555V66.395C239.81 70.88 239.94 73.285 240.33 76.015H226.03C226.42 73.48 226.55 70.75 226.55 66.395V31.555C226.55 26.68 226.42 24.795 226.03 21.935ZM273.009 20.765C288.999 20.765 299.204 31.685 299.204 48.715C299.204 65.875 288.739 77.25 272.944 77.25C257.019 77.25 246.749 66.135 246.749 48.91C246.749 31.75 257.019 20.765 273.009 20.765ZM273.009 66.005C280.874 66.005 285.684 59.505 285.684 48.845C285.684 38.315 280.874 31.945 273.009 31.945C265.079 31.945 260.204 38.38 260.204 48.845C260.204 59.44 265.079 66.005 273.009 66.005ZM358.863 76.015H345.863C345.603 73.935 345.148 71.66 344.498 69.06L339.558 49.95C338.908 47.415 338.388 44.425 337.738 40.135C337.348 42.8 336.568 46.895 335.788 49.95L330.978 69.125C330.133 72.375 329.743 74.26 329.548 76.015H316.613C316.288 74.13 315.963 72.765 314.988 68.995L304.588 29.995C303.678 26.68 302.768 23.69 302.118 21.935H316.938C317.003 24.275 317.328 26.355 317.848 29.085L322.008 48.845C322.203 49.82 322.658 52.875 323.438 58.01C324.413 52.55 324.868 50.21 325.258 48.845L330.458 28.695C331.238 25.77 331.628 23.755 331.888 21.935H343.458C343.718 23.625 344.108 25.445 344.953 28.5L350.218 48.52C350.738 50.6 351.193 52.745 352.038 58.01C352.168 56.775 352.168 56.775 352.558 54.045C352.753 52.615 353.208 49.495 353.468 48.455L357.563 29.085C358.213 26.095 358.473 24.21 358.538 21.935H373.293C372.643 23.69 371.733 26.745 370.888 29.995L360.488 68.93C359.643 71.985 359.058 74.455 358.863 76.015ZM426.059 76.015H410.849C410.329 72.895 409.939 71.205 409.289 68.995L407.534 63.47H389.009L387.254 68.995C386.409 71.595 385.954 73.61 385.629 76.015H370.419C371.394 74.065 371.979 72.505 373.539 68.085L387.579 28.955C388.749 25.77 389.334 23.82 389.659 21.935H406.624C407.079 23.82 407.534 25.51 408.834 28.955L422.939 68.085C424.174 71.53 425.214 74.195 426.059 76.015ZM404.349 52.55L398.174 33.05L392.129 52.55H404.349Z" fill="white"/>
<path fill-rule="evenodd" clip-rule="evenodd" d="M649 89.7158V307C649 329.644 630.644 348 608 348H41C18.3563 348 0 329.644 0 307V89.2988H31.4906V64.6959V61.7769L44.0034 49.2669L46.0889 40.927L47.3402 31.336L49.0085 40.927L51.094 49.2669L62.7727 61.7769V89.2988H76.1197V40.927H80.2906V32.587H99.4769V40.927H103.648V89.2988H116.161V50.1009H136.181V74.7039H137.85V70.1169H140.352L142.021 68.4489L143.689 70.1169H147.026V68.4489H152.865V70.1169H159.121V68.4489H162.875V74.7039H166.629V40.927H182.062V72.6189H207.921V89.7158H465.685V53.0199L442.745 41.344L467.771 46.7649L484.872 28L471.108 50.1009L476.53 75.9548L470.273 61.7769V89.7158H491.128V73.8699H483.621L506.561 50.1009L557.446 45.5139L583.306 68.0319V78.8738L598.738 85.5458V47.5989H594.568L613.337 30.502L630.021 47.5989H625.432V89.7158H649Z" fill="white"/>
<path fill-rule="evenodd" clip-rule="evenodd" d="M0 257.429V256.832L10.7054 288.5L16.5 245L13.5 288.5L16.5 276L21 290L25.5 271L27.5 292L29.5 276L32 290L35 273L37 288.5L45 267.5L49 298.5L51 279.5L52 293L55 275L59 293V269L63.5 292L68 267.5V292L73 269V290L76.5 284V291L84 271V292L86 267.5L89.5 290L92 266.5L95.5 290L98 269L99.5 290L101.5 281.5L106 288.5V277.5L113.5 294.5L111 279.5L117 291L113.5 263.5L129 291L128 271L132.5 288.5L139 265L140 288.5L150 273L146 291L152.5 296.5V277.5L155.5 292L159 275L173.5 293L179.5 275V290L183.5 274L184.5 294.5L191 281.5L188 269L194.5 281.5L197.5 269L201 283L204 274L206 293L210.5 277.5L214 290L217.5 270L221 290L226 269L227.5 284.5L245 270L237 284.5L250.5 290L256 279L261.5 269L264 284.5L271.5 271L274 289L280.5 275L286.5 283L290.5 276.5L291.5 289L296 279L302 287.5L305 276.5L314.5 293L317 271V286.5L326.5 279L337 286.5L336 271L332.5 256L343.5 279L349 259L346.5 281.5L354.5 287.5V271L368 286.5L371.5 271L376 283L377 272.5L382 287.5L383 268L387.5 289L392 268L398 290.5L400.5 268L403.5 289L424 268L410 289L428.5 273.5L424 289L431 276.5L435.5 287.5V269L441.5 286.5H448.5L443.5 265.5L451.5 275L465 259L454.5 280L465 289V271L471.5 263.5L470.5 292.5L482 269L479 290.5L486.5 279L491 269L500 284L502 269L503.5 286.5L509 268L513.5 287.5L520 284L519 265.5L525 282.5L535 268L532.5 284L543 290.5L548 273.5L551 287.5L570 272.5L565 285.5L574.5 289V263.5L578 287.5L587.5 282.5L591.5 275L596 292.5L597 266L606 291.5L600.5 267L611 290.5L612 267L614.5 290.5L618.5 277.5L627 289L631.5 263.5L633.5 289L649 276.235V277.917L641.5 292.5L649 279.808V307C649 329.644 630.644 348 608 348H41C18.3563 348 0 329.644 0 307V286.312L6.5 292L0 282.792V279.79L10 288.5L0 257.429Z" fill="#BBBC32"/>
</svg>
