<svg width="649" height="348" viewBox="0 0 649 348" fill="none" xmlns="http://www.w3.org/2000/svg">
<rect width="649" height="348" rx="41" fill="#96B1D8"/>
<path fill-rule="evenodd" clip-rule="evenodd" d="M649 181.464C588.623 132.997 511.948 104 428.5 104C271.677 104 138.772 206.409 93.0137 348H103.542C148.923 212.022 277.264 114 428.5 114C512.491 114 589.42 144.233 649 194.41V181.464Z" fill="white"/>
<path fill-rule="evenodd" clip-rule="evenodd" d="M649 209.688C590.52 157.629 513.454 126 429 126C284.383 126 161.427 218.744 116.366 348H135.502C179.76 228.875 294.468 144 429 144C514.761 144 592.466 178.491 649 234.359V209.688Z" fill="white"/>
<path fill-rule="evenodd" clip-rule="evenodd" d="M649 245.753V307C649 329.644 630.644 348 608 348H144.054C187.924 233.385 298.958 152 429 152C515.45 152 593.499 187.967 649 245.753Z" fill="white"/>
<path d="M170.443 61.7839V60.3732C170.929 60.3732 171.453 60.3408 172.014 60.276C172.575 60.2111 173.08 60.0976 173.528 59.9355C174.015 59.7409 174.407 59.4814 174.706 59.1572C175.006 58.8329 175.155 58.4113 175.155 57.8924C175.155 57.633 175.024 57.3249 174.762 56.9682C174.538 56.579 174.239 56.2061 173.865 55.8494C173.528 55.4602 173.173 55.1035 172.799 54.7792C172.463 54.4549 172.182 54.1955 171.958 54.0009L154.68 39.0674L152.156 41.2563V53.0281C152.156 54.5522 152.23 55.8007 152.38 56.7736C152.567 57.7141 152.941 58.4599 153.502 59.0112C154.1 59.5301 154.942 59.8868 156.026 60.0814C157.111 60.276 158.551 60.3732 160.346 60.3732V61.7839H136V60.3732C137.832 60.3732 139.272 60.276 140.319 60.0814C141.404 59.8868 142.208 59.5301 142.732 59.0112C143.293 58.4599 143.648 57.7141 143.797 56.7736C143.947 55.8007 144.022 54.5522 144.022 53.0281V20.826C144.022 19.3343 143.947 18.1182 143.797 17.1777C143.648 16.2049 143.293 15.4428 142.732 14.8915C142.208 14.3078 141.404 13.9186 140.319 13.724C139.272 13.497 137.832 13.3835 136 13.3835V12.0702H160.346V13.3835C158.588 13.3835 157.167 13.497 156.082 13.724C155.035 13.9186 154.213 14.2915 153.614 14.8428C153.016 15.3941 152.623 16.1562 152.436 17.1291C152.249 18.0695 152.156 19.3018 152.156 20.826V36.4892C152.866 35.9704 153.895 35.1921 155.241 34.1543C156.625 33.0842 158.139 31.8843 159.785 30.5547C161.43 29.2251 163.113 27.8307 164.833 26.3714C166.554 24.8796 168.124 23.4365 169.546 22.0421C170.967 20.6476 172.126 19.3829 173.023 18.2479C173.921 17.0804 174.37 16.1562 174.37 15.4752C174.37 14.9563 174.258 14.551 174.033 14.2591C173.846 13.9673 173.528 13.7565 173.08 13.6268C172.668 13.497 172.126 13.4322 171.453 13.4322C170.817 13.3998 170.05 13.3835 169.153 13.3835V12.0702H190.301V13.3835C188.244 13.3835 186.206 13.8862 184.187 14.8915C182.167 15.8968 180.222 17.0967 178.353 18.4911C176.52 19.8856 174.819 21.3449 173.248 22.869C171.677 24.3608 170.312 25.6093 169.153 26.6146L160.346 34.203L181.606 52.3957C182.878 53.4983 184.093 54.5036 185.252 55.4116C186.449 56.3196 187.665 57.1141 188.899 57.7951C190.17 58.4761 191.517 59.0437 192.938 59.4977C194.359 59.9192 195.967 60.2111 197.762 60.3732V61.7839H170.443Z" fill="black"/>
<path d="M243.375 61.7839V60.3732C244.011 60.3732 244.665 60.3408 245.338 60.276C246.011 60.1787 246.628 60.0165 247.189 59.7895C247.75 59.5625 248.218 59.2544 248.592 58.8653C248.966 58.4437 249.153 57.8924 249.153 57.2114C249.153 56.5628 248.928 55.6548 248.48 54.4874C248.031 53.3199 247.526 52.12 246.965 50.8877C246.404 49.6554 245.843 48.5042 245.282 47.4341C244.721 46.3639 244.328 45.6018 244.104 45.1478H221.89C221.74 45.4072 221.497 45.845 221.161 46.4612C220.862 47.0449 220.506 47.7259 220.095 48.5042C219.684 49.2501 219.272 50.0446 218.861 50.8877C218.449 51.7309 218.057 52.5578 217.683 53.3686C217.346 54.1793 217.066 54.9252 216.841 55.6062C216.617 56.2872 216.505 56.8223 216.505 57.2114C216.505 57.86 216.748 58.3951 217.234 58.8167C217.72 59.2058 218.319 59.5139 219.029 59.7409C219.74 59.9679 220.469 60.13 221.217 60.2273C221.965 60.2922 222.619 60.3408 223.18 60.3732V61.7839H205.117V60.3732C206.464 60.3408 207.623 60.0652 208.595 59.5463C209.568 59.0274 210.409 58.3626 211.12 57.5519C211.867 56.7412 212.503 55.8494 213.027 54.8765C213.55 53.8712 214.055 52.8821 214.541 51.9093L234.792 11H236.251L256.165 52.2011C256.726 53.3361 257.249 54.3901 257.735 55.363C258.259 56.3034 258.876 57.1466 259.587 57.8924C260.297 58.6059 261.157 59.1896 262.167 59.6436C263.177 60.0652 264.467 60.3084 266.038 60.3732V61.7839H243.375ZM233.165 22.2367L223.18 42.4724H242.926L233.165 22.2367Z" fill="black"/>
<path d="M335.548 13.3835C333.753 13.3835 332.313 13.4808 331.228 13.6754C330.144 13.87 329.302 14.2429 328.704 14.7942C328.143 15.3131 327.769 16.0427 327.582 16.9832C327.432 17.9236 327.358 19.1397 327.358 20.6314V62.5622H325.899L287.978 22.5285V53.1254C287.978 54.6819 288.053 55.9305 288.202 56.8709C288.389 57.8114 288.763 58.541 289.324 59.0599C289.885 59.5787 290.708 59.9355 291.793 60.13C292.877 60.2922 294.317 60.3732 296.112 60.3732V61.7839H276.142V60.3732C277.937 60.3732 279.358 60.276 280.405 60.0814C281.49 59.8868 282.312 59.5301 282.873 59.0112C283.434 58.4599 283.808 57.7141 283.995 56.7736C284.182 55.8332 284.276 54.6171 284.276 53.1254V18.5398C283.565 17.6966 282.892 16.9669 282.256 16.3508C281.658 15.7022 281.003 15.1671 280.293 14.7456C279.62 14.2915 278.834 13.951 277.937 13.724C277.039 13.497 275.936 13.3835 274.627 13.3835V12.0702H288.651L323.711 49.3312V20.6314C323.711 19.1397 323.618 17.9236 323.431 16.9832C323.244 16.0427 322.851 15.3131 322.253 14.7942C321.692 14.2429 320.869 13.87 319.785 13.6754C318.737 13.4808 317.316 13.3835 315.521 13.3835V12.0702H335.548V13.3835Z" fill="black"/>
<path d="M387.668 49.0393C387.668 51.212 387.163 53.1578 386.153 54.8765C385.143 56.5953 383.797 58.0546 382.114 59.2544C380.469 60.4543 378.561 61.3785 376.392 62.0271C374.223 62.6757 371.979 63 369.661 63C368.128 63 366.594 62.8379 365.061 62.5136C363.528 62.2217 362.069 61.8974 360.685 61.5407C359.339 61.184 358.105 60.8597 356.983 60.5678C355.861 60.2435 354.945 60.0814 354.234 60.0814C353.786 60.0814 353.393 60.1787 353.056 60.3732C352.757 60.5354 352.495 60.7624 352.271 61.0543C352.084 61.3461 351.934 61.6542 351.822 61.9785C351.747 62.3352 351.673 62.6757 351.598 63H350.083V45.8288H351.598C351.897 47.9367 352.477 49.8662 353.337 51.6174C354.197 53.3686 355.338 54.8765 356.759 56.1413C358.18 57.3736 359.881 58.3464 361.863 59.0599C363.883 59.7409 366.164 60.0814 368.707 60.0814C370.091 60.0814 371.456 59.9192 372.802 59.5949C374.186 59.2382 375.401 58.7194 376.448 58.0384C377.533 57.3573 378.412 56.5142 379.085 55.5089C379.758 54.4712 380.095 53.2713 380.095 51.9093C380.095 50.4824 379.646 49.2014 378.748 48.0664C377.888 46.899 376.748 45.8288 375.327 44.8559C373.905 43.8506 372.279 42.9102 370.446 42.0346C368.614 41.1266 366.744 40.2186 364.837 39.3106C362.967 38.4026 361.115 37.4459 359.283 36.4406C357.451 35.4353 355.824 34.3327 354.403 33.1328C352.982 31.9005 351.822 30.5547 350.925 29.0954C350.065 27.6037 349.634 25.9174 349.634 24.0365C349.634 21.9935 350.083 20.1612 350.981 18.5398C351.916 16.9183 353.15 15.5563 354.683 14.4537C356.216 13.3187 357.974 12.4593 359.956 11.8756C361.976 11.2919 364.089 11 366.295 11C367.604 11 368.894 11.1459 370.166 11.4378C371.475 11.7297 372.709 12.0539 373.868 12.4107C375.065 12.735 376.149 13.043 377.122 13.3349C378.094 13.6268 378.898 13.7727 379.534 13.7727C379.982 13.7727 380.356 13.6754 380.656 13.4808C380.955 13.2862 381.217 13.0592 381.441 12.7998C381.665 12.508 381.834 12.1999 381.946 11.8756C382.095 11.5513 382.208 11.2594 382.282 11H383.909V28.1225H382.282C382.095 26.1768 381.609 24.3446 380.824 22.6258C380.039 20.8746 378.973 19.3667 377.626 18.102C376.318 16.8048 374.728 15.7833 372.858 15.0374C370.988 14.2591 368.838 13.87 366.407 13.87C365.136 13.87 363.902 14.0483 362.705 14.4051C361.508 14.7618 360.424 15.2806 359.451 15.9616C358.516 16.6102 357.75 17.4047 357.151 18.3452C356.59 19.2532 356.31 20.2909 356.31 21.4584C356.31 22.8204 356.759 24.0527 357.656 25.1553C358.554 26.2579 359.732 27.2794 361.19 28.2198C362.686 29.1603 364.369 30.0683 366.239 30.9439C368.109 31.787 370.016 32.6626 371.961 33.5706C373.943 34.4462 375.869 35.3867 377.739 36.392C379.609 37.3973 381.273 38.5161 382.731 39.7484C384.227 40.9807 385.424 42.3589 386.321 43.8831C387.219 45.3748 387.668 47.0935 387.668 49.0393Z" fill="black"/>
<path d="M438.666 61.7839V60.3732C439.302 60.3732 439.956 60.3408 440.629 60.276C441.302 60.1787 441.919 60.0165 442.48 59.7895C443.041 59.5625 443.509 59.2544 443.883 58.8653C444.257 58.4437 444.444 57.8924 444.444 57.2114C444.444 56.5628 444.219 55.6548 443.771 54.4874C443.322 53.3199 442.817 52.12 442.256 50.8877C441.695 49.6554 441.134 48.5042 440.573 47.4341C440.012 46.3639 439.619 45.6018 439.395 45.1478H417.181C417.031 45.4072 416.788 45.845 416.452 46.4612C416.153 47.0449 415.797 47.7259 415.386 48.5042C414.975 49.2501 414.563 50.0446 414.152 50.8877C413.74 51.7309 413.348 52.5578 412.974 53.3686C412.637 54.1793 412.357 54.9252 412.132 55.6062C411.908 56.2872 411.796 56.8223 411.796 57.2114C411.796 57.86 412.039 58.3951 412.525 58.8167C413.011 59.2058 413.61 59.5139 414.32 59.7409C415.031 59.9679 415.76 60.13 416.508 60.2273C417.256 60.2922 417.91 60.3408 418.471 60.3732V61.7839H400.408V60.3732C401.755 60.3408 402.914 60.0652 403.886 59.5463C404.859 59.0274 405.7 58.3626 406.411 57.5519C407.158 56.7412 407.794 55.8494 408.318 54.8765C408.841 53.8712 409.346 52.8821 409.832 51.9093L430.083 11H431.542L451.456 52.2011C452.017 53.3361 452.54 54.3901 453.026 55.363C453.55 56.3034 454.167 57.1466 454.878 57.8924C455.588 58.6059 456.448 59.1896 457.458 59.6436C458.468 60.0652 459.758 60.3084 461.329 60.3732V61.7839H438.666ZM428.456 22.2367L418.471 42.4724H438.217L428.456 22.2367Z" fill="black"/>
<path d="M513 49.0393C513 51.212 512.495 53.1578 511.485 54.8765C510.476 56.5953 509.129 58.0546 507.446 59.2544C505.801 60.4543 503.894 61.3785 501.725 62.0271C499.556 62.6757 497.312 63 494.993 63C493.46 63 491.927 62.8379 490.393 62.5136C488.86 62.2217 487.401 61.8974 486.018 61.5407C484.671 61.184 483.437 60.8597 482.315 60.5678C481.193 60.2435 480.277 60.0814 479.567 60.0814C479.118 60.0814 478.725 60.1787 478.389 60.3732C478.089 60.5354 477.828 60.7624 477.603 61.0543C477.416 61.3461 477.267 61.6542 477.155 61.9785C477.08 62.3352 477.005 62.6757 476.93 63H475.416V45.8288H476.93C477.229 47.9367 477.809 49.8662 478.669 51.6174C479.529 53.3686 480.67 54.8765 482.091 56.1413C483.512 57.3736 485.214 58.3464 487.196 59.0599C489.215 59.7409 491.496 60.0814 494.04 60.0814C495.423 60.0814 496.788 59.9192 498.135 59.5949C499.518 59.2382 500.734 58.7194 501.781 58.0384C502.865 57.3573 503.744 56.5142 504.417 55.5089C505.09 54.4712 505.427 53.2713 505.427 51.9093C505.427 50.4824 504.978 49.2014 504.081 48.0664C503.221 46.899 502.08 45.8288 500.659 44.8559C499.238 43.8506 497.611 42.9102 495.778 42.0346C493.946 41.1266 492.076 40.2186 490.169 39.3106C488.299 38.4026 486.448 37.4459 484.615 36.4406C482.783 35.4353 481.156 34.3327 479.735 33.1328C478.314 31.9005 477.155 30.5547 476.257 29.0954C475.397 27.6037 474.967 25.9174 474.967 24.0365C474.967 21.9935 475.416 20.1612 476.313 18.5398C477.248 16.9183 478.482 15.5563 480.015 14.4537C481.549 13.3187 483.306 12.4593 485.288 11.8756C487.308 11.2919 489.421 11 491.627 11C492.936 11 494.226 11.1459 495.498 11.4378C496.807 11.7297 498.041 12.0539 499.2 12.4107C500.397 12.735 501.482 13.043 502.454 13.3349C503.426 13.6268 504.23 13.7727 504.866 13.7727C505.315 13.7727 505.689 13.6754 505.988 13.4808C506.287 13.2862 506.549 13.0592 506.773 12.7998C506.998 12.508 507.166 12.1999 507.278 11.8756C507.428 11.5513 507.54 11.2594 507.615 11H509.242V28.1225H507.615C507.428 26.1768 506.942 24.3446 506.156 22.6258C505.371 20.8746 504.305 19.3667 502.959 18.102C501.65 16.8048 500.06 15.7833 498.191 15.0374C496.321 14.2591 494.17 13.87 491.74 13.87C490.468 13.87 489.234 14.0483 488.037 14.4051C486.84 14.7618 485.756 15.2806 484.784 15.9616C483.849 16.6102 483.082 17.4047 482.484 18.3452C481.923 19.2532 481.642 20.2909 481.642 21.4584C481.642 22.8204 482.091 24.0527 482.989 25.1553C483.886 26.2579 485.064 27.2794 486.523 28.2198C488.019 29.1603 489.701 30.0683 491.571 30.9439C493.441 31.787 495.348 32.6626 497.293 33.5706C499.275 34.4462 501.201 35.3867 503.071 36.392C504.941 37.3973 506.605 38.5161 508.064 39.7484C509.559 40.9807 510.756 42.3589 511.654 43.8831C512.551 45.3748 513 47.0935 513 49.0393Z" fill="black"/>
</svg>
