<svg width="649" height="348" viewBox="0 0 649 348" fill="none" xmlns="http://www.w3.org/2000/svg">
<rect width="649" height="348" rx="41" fill="url(#paint0_linear_1054_415)"/>
<path d="M126.811 37.6523H138.227V55.084L158.803 37.6523H167.621L144.413 57.2715L173.808 84H160.033L138.227 64.1416V84H126.811V37.6523ZM213.729 37.6523V41.6172H190.487V56.8955H209.799V60.8604H190.487V79.249H213.729V84H179.105V37.6523H213.729ZM221.01 37.6523H228.29L254.711 67.1152V37.6523H261.82V84.6836H256.933L228.222 52.1445V84H221.01V37.6523ZM312.748 37.6523V41.6172H296.718V84H285.37V41.6172H269.306V37.6523H312.748ZM320.199 37.6523H331.581V67.457C331.581 69.2344 331.854 70.9092 332.401 72.4814C332.971 74.0537 333.769 75.4323 334.794 76.6172C335.842 77.7793 337.095 78.7021 338.554 79.3857C340.035 80.0693 341.698 80.4111 343.544 80.4111C345.344 80.4111 346.973 80.0693 348.432 79.3857C349.89 78.7021 351.132 77.7793 352.157 76.6172C353.183 75.4323 353.969 74.0537 354.516 72.4814C355.085 70.9092 355.37 69.2344 355.37 67.457V37.6523H362.548V67.457C362.548 69.8496 362.138 72.1169 361.317 74.2588C360.52 76.3779 359.255 78.235 357.523 79.8301C355.792 81.4251 353.57 82.6898 350.858 83.624C348.147 84.5583 344.888 85.0254 341.083 85.0254C337.688 85.0254 334.68 84.5583 332.06 83.624C329.462 82.6898 327.286 81.4251 325.531 79.8301C323.777 78.2122 322.444 76.3324 321.532 74.1904C320.644 72.0485 320.199 69.7699 320.199 67.3545V37.6523ZM385.79 60.792C385.79 63.7998 386.246 66.4544 387.157 68.7559C388.069 71.0573 389.276 72.9941 390.78 74.5664C392.284 76.1159 394.016 77.3008 395.976 78.1211C397.935 78.9186 399.975 79.3174 402.094 79.3174C403.712 79.3174 405.215 79.0439 406.605 78.4971C408.018 77.9274 409.328 77.1641 410.536 76.207C411.767 75.25 412.917 74.1449 413.988 72.8916C415.059 71.6383 416.085 70.3167 417.064 68.9268L421.815 72.4131C420.79 74.0537 419.548 75.6374 418.09 77.1641C416.654 78.6908 415.036 80.0352 413.236 81.1973C411.436 82.3594 409.477 83.2936 407.357 84C405.238 84.6836 402.994 85.0254 400.624 85.0254C396.636 85.0254 392.956 84.4443 389.584 83.2822C386.234 82.1201 383.34 80.4795 380.902 78.3604C378.464 76.2412 376.562 73.7005 375.194 70.7383C373.827 67.7533 373.144 64.4378 373.144 60.792C373.144 57.2601 373.793 54.013 375.092 51.0508C376.391 48.0885 378.214 45.5365 380.561 43.3945C382.93 41.2298 385.756 39.5436 389.037 38.3359C392.341 37.1283 395.987 36.5244 399.975 36.5244C402.641 36.5244 405.079 36.8434 407.289 37.4814C409.499 38.0967 411.505 38.9626 413.305 40.0791C415.128 41.1729 416.745 42.4945 418.158 44.0439C419.594 45.5706 420.858 47.2568 421.952 49.1025L417.167 52.4521C416.187 51.0622 415.116 49.752 413.954 48.5215C412.815 47.291 411.596 46.2201 410.297 45.3086C408.998 44.3743 407.631 43.6452 406.195 43.1211C404.76 42.5742 403.267 42.3008 401.718 42.3008C399.599 42.3008 397.571 42.6995 395.634 43.4971C393.72 44.2946 392.034 45.4795 390.575 47.0518C389.117 48.6012 387.955 50.5267 387.089 52.8281C386.223 55.1296 385.79 57.7842 385.79 60.792ZM431.557 37.6523H442.973V55.084L463.549 37.6523H472.367L449.159 57.2715L478.554 84H464.779L442.973 64.1416V84H431.557V37.6523ZM490.346 37.6523L505.59 58.5361L519.911 37.6523H527.602L509.486 63.9707V84H498.104V64.6543L478.451 37.6523H490.346Z" fill="#162A75"/>
<path d="M244.411 16.7441H249.242C249.89 16.7441 250.482 16.8133 251.019 16.9517C251.561 17.09 252.026 17.2865 252.413 17.541C252.8 17.79 253.102 18.0916 253.318 18.4458C253.534 18.8 253.642 19.1929 253.642 19.6245C253.642 19.8901 253.611 20.1364 253.55 20.3633C253.495 20.5902 253.401 20.8032 253.268 21.0024C253.135 21.2017 252.958 21.3926 252.737 21.5752C252.521 21.7578 252.253 21.9432 251.932 22.1313C252.264 22.2365 252.568 22.3776 252.845 22.5547C253.121 22.7262 253.359 22.931 253.559 23.1689C253.763 23.4014 253.921 23.6615 254.032 23.9492C254.148 24.2314 254.206 24.533 254.206 24.854C254.206 25.2967 254.104 25.709 253.899 26.0908C253.7 26.4727 253.412 26.8047 253.036 27.0869C252.665 27.3691 252.217 27.5933 251.691 27.7593C251.171 27.9198 250.592 28 249.956 28H244.411V16.7441ZM247.175 21.625H248.993C249.286 21.625 249.547 21.5807 249.773 21.4922C250.006 21.3981 250.2 21.2708 250.354 21.1104C250.515 20.9443 250.637 20.7479 250.72 20.521C250.803 20.2941 250.844 20.0479 250.844 19.7822C250.844 19.4889 250.792 19.2205 250.687 18.9771C250.581 18.7336 250.421 18.526 250.205 18.3545C249.989 18.1774 249.715 18.0418 249.383 17.9478C249.051 17.8481 248.658 17.7983 248.205 17.7983H247.175V21.625ZM247.175 26.8462H248.703C249.151 26.8462 249.538 26.7992 249.865 26.7051C250.191 26.6055 250.46 26.4727 250.67 26.3066C250.886 26.1351 251.043 25.9331 251.143 25.7007C251.248 25.4627 251.301 25.2054 251.301 24.9287C251.301 24.6133 251.254 24.3228 251.16 24.0571C251.066 23.786 250.911 23.5508 250.695 23.3516C250.485 23.1523 250.205 22.9974 249.856 22.8867C249.513 22.776 249.093 22.7207 248.595 22.7207H247.175V26.8462ZM256.497 16.7441H259.261V26.8462H265.005V28H256.497V16.7441ZM266.79 16.7441H269.554V23.9824C269.554 24.4141 269.621 24.8208 269.753 25.2026C269.892 25.5845 270.085 25.9193 270.334 26.207C270.589 26.4893 270.893 26.7134 271.248 26.8794C271.607 27.0454 272.011 27.1284 272.459 27.1284C272.897 27.1284 273.292 27.0454 273.646 26.8794C274.001 26.7134 274.302 26.4893 274.551 26.207C274.8 25.9193 274.991 25.5845 275.124 25.2026C275.262 24.8208 275.332 24.4141 275.332 23.9824V16.7441H277.075V23.9824C277.075 24.5635 276.975 25.1141 276.776 25.6343C276.582 26.1489 276.275 26.5999 275.854 26.9873C275.434 27.3747 274.894 27.6818 274.236 27.9087C273.577 28.1356 272.786 28.249 271.862 28.249C271.037 28.249 270.307 28.1356 269.67 27.9087C269.04 27.6818 268.511 27.3747 268.085 26.9873C267.659 26.5944 267.335 26.1379 267.114 25.6177C266.898 25.0975 266.79 24.5441 266.79 23.9575V16.7441ZM288.314 16.7441V17.707H282.669V21.4175H287.359V22.3804H282.669V26.8462H288.314V28H279.905V16.7441H288.314ZM296.972 22.5132H301.645V26.8462C301.285 27.0399 300.926 27.217 300.566 27.3774C300.206 27.5379 299.822 27.6763 299.412 27.7925C299.003 27.9087 298.554 28 298.067 28.0664C297.586 28.1328 297.044 28.166 296.44 28.166C295.472 28.166 294.578 28.0304 293.759 27.7593C292.946 27.4881 292.24 27.1063 291.643 26.6138C291.05 26.1213 290.588 25.5264 290.256 24.8291C289.924 24.1318 289.758 23.3599 289.758 22.5132C289.758 21.6167 289.924 20.7977 290.256 20.0562C290.588 19.3146 291.05 18.6782 291.643 18.147C292.235 17.6157 292.938 17.2035 293.751 16.9102C294.57 16.6169 295.464 16.4702 296.432 16.4702C297.002 16.4702 297.55 16.5477 298.076 16.7026C298.607 16.8576 299.097 17.0623 299.545 17.3169C299.993 17.5715 300.397 17.8647 300.757 18.1968C301.117 18.5233 301.413 18.8608 301.645 19.2095L300.508 20.2471C300.27 19.9095 300.021 19.5968 299.761 19.3091C299.501 19.0213 299.224 18.7723 298.931 18.562C298.637 18.3462 298.322 18.1774 297.984 18.0557C297.652 17.9339 297.295 17.873 296.914 17.873C296.333 17.873 295.79 17.9782 295.287 18.1885C294.789 18.3988 294.354 18.7031 293.983 19.1016C293.618 19.4945 293.33 19.9787 293.12 20.5542C292.915 21.1297 292.813 21.7827 292.813 22.5132C292.813 23.2437 292.924 23.8883 293.145 24.4473C293.366 25.0062 293.668 25.4766 294.05 25.8584C294.432 26.2402 294.877 26.5308 295.386 26.73C295.901 26.9237 296.451 27.0205 297.038 27.0205C297.387 27.0205 297.716 26.9762 298.026 26.8877C298.336 26.7936 298.621 26.6525 298.881 26.4644V23.4761H296.972V22.5132ZM304.393 16.7441H308.626C309.356 16.7441 309.993 16.8216 310.535 16.9766C311.083 17.126 311.537 17.339 311.896 17.6157C312.262 17.8869 312.536 18.2106 312.718 18.5869C312.901 18.9632 312.992 19.3727 312.992 19.8154C312.992 20.1364 312.929 20.4408 312.801 20.7285C312.68 21.0107 312.505 21.2736 312.278 21.5171C312.057 21.755 311.786 21.9681 311.465 22.1562C311.149 22.3389 310.801 22.491 310.419 22.6128L314.428 28H311.423L307.646 22.9116H307.157V28H304.393V16.7441ZM307.157 21.9238H307.754C308.092 21.9238 308.405 21.8768 308.692 21.7827C308.98 21.6886 309.229 21.5558 309.439 21.3843C309.65 21.2072 309.813 20.9914 309.929 20.7368C310.051 20.4823 310.112 20.1945 310.112 19.8735C310.112 19.5747 310.065 19.3008 309.971 19.0518C309.882 18.8027 309.758 18.5897 309.597 18.4126C309.437 18.23 309.243 18.0889 309.016 17.9893C308.789 17.8896 308.543 17.8398 308.277 17.8398H307.157V21.9238ZM320.87 16.5117L326.149 28H323.327L321.916 24.9287H317.541L316.063 28H314.188L319.674 16.5117H320.87ZM318.064 23.8828H321.451L319.782 20.2471L318.064 23.8828ZM331.735 28.166C331.06 28.166 330.468 28.0885 329.959 27.9336C329.455 27.7731 329.027 27.5545 328.672 27.2778C328.318 27.0011 328.036 26.6719 327.826 26.29C327.615 25.9027 327.472 25.4793 327.394 25.02H329.312C329.378 25.3022 329.475 25.5651 329.602 25.8086C329.729 26.0521 329.89 26.2651 330.083 26.4478C330.283 26.6248 330.515 26.766 330.781 26.8711C331.052 26.9707 331.365 27.0205 331.719 27.0205C331.951 27.0205 332.181 26.9956 332.408 26.9458C332.64 26.896 332.848 26.8158 333.03 26.7051C333.213 26.5889 333.36 26.4422 333.47 26.2651C333.581 26.0825 333.636 25.8584 333.636 25.5928C333.636 25.2607 333.55 24.9647 333.379 24.7046C333.207 24.4445 332.98 24.2093 332.698 23.999C332.416 23.7832 332.095 23.584 331.735 23.4014C331.376 23.2188 331.008 23.0361 330.631 22.8535C330.255 22.6654 329.887 22.4689 329.527 22.2642C329.168 22.0594 328.847 21.8325 328.564 21.5835C328.282 21.3289 328.055 21.0439 327.884 20.7285C327.712 20.4076 327.626 20.0423 327.626 19.6328C327.626 19.1846 327.723 18.7723 327.917 18.396C328.116 18.0142 328.401 17.6849 328.772 17.4082C329.143 17.126 329.597 16.9074 330.133 16.7524C330.67 16.592 331.282 16.5117 331.968 16.5117C332.532 16.5117 333.044 16.5892 333.503 16.7441C333.963 16.8991 334.367 17.1149 334.715 17.3916C335.069 17.6628 335.366 17.9837 335.604 18.3545C335.841 18.7197 336.024 19.1126 336.151 19.5332H334.417C334.317 19.2676 334.201 19.013 334.068 18.7695C333.935 18.526 333.772 18.313 333.578 18.1304C333.384 17.9478 333.149 17.8039 332.873 17.6987C332.596 17.5881 332.267 17.5327 331.885 17.5327C331.525 17.5327 331.221 17.5798 330.972 17.6738C330.728 17.7679 330.532 17.8896 330.382 18.0391C330.233 18.1829 330.125 18.3462 330.059 18.5288C329.992 18.7059 329.959 18.8802 329.959 19.0518C329.959 19.3506 330.048 19.6217 330.225 19.8652C330.402 20.1087 330.634 20.3356 330.922 20.5459C331.215 20.7562 331.547 20.9582 331.918 21.1519C332.289 21.34 332.665 21.5309 333.047 21.7246C333.434 21.9183 333.813 22.123 334.184 22.3389C334.555 22.5492 334.884 22.7816 335.172 23.0361C335.465 23.2907 335.7 23.5729 335.877 23.8828C336.055 24.1927 336.143 24.5413 336.143 24.9287C336.143 25.388 336.049 25.8141 335.861 26.207C335.673 26.5999 335.393 26.943 335.022 27.2363C334.652 27.5241 334.19 27.751 333.636 27.917C333.088 28.083 332.455 28.166 331.735 28.166ZM342.659 28.166C341.984 28.166 341.392 28.0885 340.883 27.9336C340.379 27.7731 339.95 27.5545 339.596 27.2778C339.242 27.0011 338.96 26.6719 338.75 26.29C338.539 25.9027 338.395 25.4793 338.318 25.02H340.235C340.302 25.3022 340.399 25.5651 340.526 25.8086C340.653 26.0521 340.814 26.2651 341.007 26.4478C341.207 26.6248 341.439 26.766 341.705 26.8711C341.976 26.9707 342.288 27.0205 342.643 27.0205C342.875 27.0205 343.105 26.9956 343.332 26.9458C343.564 26.896 343.771 26.8158 343.954 26.7051C344.137 26.5889 344.283 26.4422 344.394 26.2651C344.505 26.0825 344.56 25.8584 344.56 25.5928C344.56 25.2607 344.474 24.9647 344.303 24.7046C344.131 24.4445 343.904 24.2093 343.622 23.999C343.34 23.7832 343.019 23.584 342.659 23.4014C342.299 23.2188 341.931 23.0361 341.555 22.8535C341.179 22.6654 340.811 22.4689 340.451 22.2642C340.091 22.0594 339.771 21.8325 339.488 21.5835C339.206 21.3289 338.979 21.0439 338.808 20.7285C338.636 20.4076 338.55 20.0423 338.55 19.6328C338.55 19.1846 338.647 18.7723 338.841 18.396C339.04 18.0142 339.325 17.6849 339.696 17.4082C340.067 17.126 340.52 16.9074 341.057 16.7524C341.594 16.592 342.205 16.5117 342.892 16.5117C343.456 16.5117 343.968 16.5892 344.427 16.7441C344.887 16.8991 345.291 17.1149 345.639 17.3916C345.993 17.6628 346.289 17.9837 346.527 18.3545C346.765 18.7197 346.948 19.1126 347.075 19.5332H345.34C345.241 19.2676 345.125 19.013 344.992 18.7695C344.859 18.526 344.696 18.313 344.502 18.1304C344.308 17.9478 344.073 17.8039 343.796 17.6987C343.52 17.5881 343.19 17.5327 342.809 17.5327C342.449 17.5327 342.145 17.5798 341.896 17.6738C341.652 17.7679 341.456 17.8896 341.306 18.0391C341.157 18.1829 341.049 18.3462 340.982 18.5288C340.916 18.7059 340.883 18.8802 340.883 19.0518C340.883 19.3506 340.971 19.6217 341.148 19.8652C341.326 20.1087 341.558 20.3356 341.846 20.5459C342.139 20.7562 342.471 20.9582 342.842 21.1519C343.213 21.34 343.589 21.5309 343.971 21.7246C344.358 21.9183 344.737 22.123 345.108 22.3389C345.479 22.5492 345.808 22.7816 346.096 23.0361C346.389 23.2907 346.624 23.5729 346.801 23.8828C346.978 24.1927 347.067 24.5413 347.067 24.9287C347.067 25.388 346.973 25.8141 346.785 26.207C346.597 26.5999 346.317 26.943 345.946 27.2363C345.576 27.5241 345.113 27.751 344.56 27.917C344.012 28.083 343.379 28.166 342.659 28.166ZM357.069 28.166C356.394 28.166 355.802 28.0885 355.293 27.9336C354.789 27.7731 354.361 27.5545 354.006 27.2778C353.652 27.0011 353.37 26.6719 353.16 26.29C352.949 25.9027 352.806 25.4793 352.728 25.02H354.646C354.712 25.3022 354.809 25.5651 354.936 25.8086C355.063 26.0521 355.224 26.2651 355.417 26.4478C355.617 26.6248 355.849 26.766 356.115 26.8711C356.386 26.9707 356.699 27.0205 357.053 27.0205C357.285 27.0205 357.515 26.9956 357.742 26.9458C357.974 26.896 358.182 26.8158 358.364 26.7051C358.547 26.5889 358.694 26.4422 358.804 26.2651C358.915 26.0825 358.97 25.8584 358.97 25.5928C358.97 25.2607 358.884 24.9647 358.713 24.7046C358.541 24.4445 358.314 24.2093 358.032 23.999C357.75 23.7832 357.429 23.584 357.069 23.4014C356.71 23.2188 356.342 23.0361 355.965 22.8535C355.589 22.6654 355.221 22.4689 354.861 22.2642C354.502 22.0594 354.181 21.8325 353.898 21.5835C353.616 21.3289 353.389 21.0439 353.218 20.7285C353.046 20.4076 352.96 20.0423 352.96 19.6328C352.96 19.1846 353.057 18.7723 353.251 18.396C353.45 18.0142 353.735 17.6849 354.106 17.4082C354.477 17.126 354.931 16.9074 355.467 16.7524C356.004 16.592 356.616 16.5117 357.302 16.5117C357.866 16.5117 358.378 16.5892 358.837 16.7441C359.297 16.8991 359.701 17.1149 360.049 17.3916C360.403 17.6628 360.7 17.9837 360.938 18.3545C361.175 18.7197 361.358 19.1126 361.485 19.5332H359.75C359.651 19.2676 359.535 19.013 359.402 18.7695C359.269 18.526 359.106 18.313 358.912 18.1304C358.718 17.9478 358.483 17.8039 358.207 17.6987C357.93 17.5881 357.601 17.5327 357.219 17.5327C356.859 17.5327 356.555 17.5798 356.306 17.6738C356.062 17.7679 355.866 17.8896 355.716 18.0391C355.567 18.1829 355.459 18.3462 355.393 18.5288C355.326 18.7059 355.293 18.8802 355.293 19.0518C355.293 19.3506 355.382 19.6217 355.559 19.8652C355.736 20.1087 355.968 20.3356 356.256 20.5459C356.549 20.7562 356.881 20.9582 357.252 21.1519C357.623 21.34 357.999 21.5309 358.381 21.7246C358.768 21.9183 359.147 22.123 359.518 22.3389C359.889 22.5492 360.218 22.7816 360.506 23.0361C360.799 23.2907 361.034 23.5729 361.211 23.8828C361.389 24.1927 361.477 24.5413 361.477 24.9287C361.477 25.388 361.383 25.8141 361.195 26.207C361.007 26.5999 360.727 26.943 360.356 27.2363C359.986 27.5241 359.524 27.751 358.97 27.917C358.422 28.083 357.789 28.166 357.069 28.166ZM373.538 16.7441V17.707H369.645V28H366.889V17.707H362.988V16.7441H373.538ZM379.573 16.5117L384.852 28H382.03L380.619 24.9287H376.244L374.767 28H372.891L378.377 16.5117H379.573ZM376.767 23.8828H380.154L378.485 20.2471L376.767 23.8828ZM394.821 16.7441V17.707H390.928V28H388.172V17.707H384.271V16.7441H394.821ZM405.04 16.7441V17.707H399.395V21.4175H404.085V22.3804H399.395V26.8462H405.04V28H396.631V16.7441H405.04Z" fill="#162A75"/>
<rect x="136" y="288" width="378" height="50" rx="8" fill="#162A75" fill-opacity="0.3"/>
<path d="M20.3531 190.271C22.4488 192.817 18.6766 200.454 17 200.878C17.2794 201.586 18.0898 203 19.0957 203H38.7954L41.3102 199.181L116.337 200.878L126.396 197.06L130.587 193.665L136.455 187.3L140.647 186.027L143.162 179.663L144 174.995L139.389 169.479L137.294 166.085L136.455 159.296L130.587 152.507L123.881 156.325L120.109 153.779L114.241 153.355L110.888 151.658C109.77 150.526 107.367 148.009 106.696 146.99C105.858 145.717 100.828 144.445 97.8944 144.02C94.9604 143.596 96.637 149.961 94.5413 152.507C92.4455 155.052 85.7393 151.658 86.5776 153.779C87.4158 155.901 74.8416 172.449 74.4224 169.903C74.0033 167.358 68.9736 166.509 68.1353 167.782C67.297 169.055 64.363 171.601 63.9439 170.752C63.5248 169.903 59.3337 171.601 57.2379 172.449L57.2376 172.449C55.1419 173.298 53.8845 172.449 50.9505 171.601C48.0165 170.752 47.5974 174.571 47.1782 172.449C46.7591 170.328 42.1485 173.298 38.7954 174.571C35.4422 175.844 40.4719 180.511 37.9571 180.936C35.4422 181.36 29.9934 180.936 32.5083 185.603C35.0231 190.271 28.3168 188.149 26.6403 186.876C24.9637 185.603 18.2574 187.725 20.3531 190.271Z" fill="white" stroke="#162A75" stroke-opacity="0.5" stroke-width="3"/>
<defs>
<linearGradient id="paint0_linear_1054_415" x1="324.5" y1="0" x2="324.5" y2="348" gradientUnits="userSpaceOnUse">
<stop stop-color="#FAFAFA"/>
<stop offset="0.427083" stop-color="white"/>
<stop offset="1" stop-color="#00B3F0"/>
</linearGradient>
</defs>
</svg>
