<svg width="649" height="348" viewBox="0 0 649 348" fill="none" xmlns="http://www.w3.org/2000/svg">
<rect x="5" y="5" width="639" height="338" rx="36" fill="#F4F4F4" stroke="#081236" stroke-width="10"/>
<path d="M162.812 69.2933C163.994 69.0698 165.106 68.7791 166.149 68.4214C167.261 68.0638 168.478 67.7731 169.799 67.5496C171.537 67.4154 173.275 67.3484 175.013 67.3484C176.82 67.3484 178.489 67.2142 180.018 66.946C181.687 66.7671 183.181 66.633 184.502 66.5436C185.892 66.4542 187.179 66.6106 188.36 67.013C188.499 67.3707 188.499 67.8178 188.36 68.3544C188.221 68.8462 188.048 69.271 187.839 69.6286C187.63 70.031 187.457 70.344 187.318 70.5676C187.179 70.7911 186.935 71.0818 186.588 71.4395C186.24 71.6183 185.858 71.7524 185.441 71.8419C185.093 71.9313 184.745 72.0431 184.398 72.1772C183.772 72.0878 183.112 72.1325 182.416 72.3113C182.208 72.1325 181.756 72.0878 181.061 72.1772C180.088 72.1325 179.184 72.2219 178.35 72.4455C177.585 72.669 176.751 72.7361 175.847 72.6467C175.291 72.7361 174.665 72.8031 173.97 72.8479C173.344 72.8479 172.649 72.8926 171.884 72.982C171.12 73.0714 170.424 73.2279 169.799 73.4515C169.173 73.675 168.478 73.7421 167.713 73.6527C166.948 73.8762 166.149 74.0774 165.315 74.2563C164.48 74.4798 163.611 74.7034 162.708 74.9269C161.943 75.1952 161.491 75.3293 161.352 75.3293C161.283 75.3293 161.178 75.3517 161.039 75.3964C160.344 75.62 159.823 75.7541 159.475 75.7988C159.197 75.8435 158.884 75.9106 158.537 76C157.98 76 157.459 75.9329 156.972 75.7988C156.555 75.7094 156.069 75.5976 155.512 75.4635C155.165 75.3293 154.922 75.1728 154.782 74.994C154.643 74.8599 154.435 74.6587 154.157 74.3904C153.323 73.8539 152.732 73.295 152.384 72.7137C152.245 72.6243 152.071 72.5349 151.863 72.4455C151.654 72.356 151.446 72.2666 151.237 72.1772C150.889 71.4171 150.924 70.7688 151.341 70.2323C151.689 69.651 152.036 69.0698 152.384 68.4885C152.801 67.8178 153.149 67.1248 153.427 66.4094C153.705 65.6493 154.192 65.0234 154.887 64.5316C155.095 64.1292 155.478 63.6597 156.034 63.1232C156.451 62.6761 156.764 62.2066 156.972 61.7148C157.25 61.2229 157.598 60.7535 158.015 60.3064C158.224 60.0828 158.432 59.8816 158.641 59.7028C158.919 59.4792 159.162 59.278 159.371 59.0992C159.44 58.8756 159.545 58.7191 159.684 58.6297C159.892 58.5403 160.031 58.3838 160.101 58.1602C160.796 57.7578 161.317 57.266 161.665 56.6847C162.082 56.1035 162.603 55.5893 163.229 55.1422C163.785 54.6504 164.202 54.1138 164.48 53.5326C164.828 52.9514 165.28 52.4148 165.836 51.923C166.114 51.4759 166.323 51.1406 166.462 50.917C166.67 50.6934 166.879 50.4475 167.087 50.1793C167.366 49.7769 167.609 49.3074 167.817 48.7709C168.095 48.2343 168.408 47.7872 168.756 47.4295C168.895 47.0271 169.104 46.6918 169.382 46.4235C169.66 46.1552 169.868 45.7752 170.007 45.2834C170.355 44.9704 170.598 44.5904 170.737 44.1432C170.946 43.6961 171.189 43.2937 171.467 42.936C171.467 42.7572 171.537 42.6007 171.676 42.4666C171.884 42.2877 171.919 42.1312 171.78 41.9971C172.128 41.7735 172.301 41.5053 172.301 41.1923C172.371 40.8793 172.579 40.6111 172.927 40.3875C172.858 40.0745 173.031 39.7392 173.448 39.3815C173.518 39.1579 173.622 38.9791 173.761 38.845C173.97 38.6661 174.109 38.5096 174.178 38.3755C174.804 37.6154 175.186 37.0789 175.326 36.7659C175.534 36.4082 175.743 36.0952 175.951 35.827C176.09 35.7375 176.229 35.6481 176.368 35.5587C176.507 35.4245 176.612 35.2681 176.681 35.0892C176.82 34.8657 176.959 34.6197 177.098 34.3515C177.237 34.0832 177.376 33.8373 177.515 33.6137C177.654 33.3902 177.759 33.189 177.828 33.0101C177.898 32.8313 178.002 32.6748 178.141 32.5407C178.628 32.0936 178.836 31.8477 178.767 31.8029C178.767 31.7582 178.801 31.7135 178.871 31.6688C179.01 31.4452 179.149 31.244 179.288 31.0652C179.427 30.8864 179.566 30.7075 179.705 30.5287C180.47 29.3215 181.096 28.3378 181.582 27.5777C182.138 26.8176 182.764 26.0575 183.459 25.2975C183.459 24.9398 183.39 24.5821 183.251 24.2244C183.112 23.822 183.181 23.4643 183.459 23.1513C184.015 22.9725 184.537 22.7713 185.023 22.5477C185.58 22.2794 186.171 22.1006 186.796 22.0112C187.074 21.9665 187.318 22.0559 187.526 22.2794C187.804 22.4583 188.048 22.5924 188.256 22.6818C188.882 23.0395 189.438 23.4866 189.925 24.0232C190.481 24.515 190.898 25.0292 191.176 25.5657C191.315 25.9234 191.35 26.3482 191.28 26.84C191.28 27.2871 191.176 27.6671 190.967 27.9801C190.759 28.472 190.481 28.852 190.133 29.1203C190.272 29.7015 190.237 30.1933 190.029 30.5957C189.89 30.9981 189.716 31.3782 189.507 31.7359C188.812 32.183 188.256 32.7195 187.839 33.3455C187.422 33.6585 187.074 34.0161 186.796 34.4185C186.518 34.7762 186.205 35.1339 185.858 35.4916C185.58 35.8493 185.267 36.207 184.919 36.5647C184.572 36.9224 184.294 37.3248 184.085 37.7719C183.459 38.2637 183.077 38.6438 182.938 38.912C182.868 39.1356 182.66 39.3368 182.312 39.5156C181.478 40.6781 180.748 41.7735 180.122 42.8019C179.497 43.7856 178.801 44.7468 178.037 45.6858C178.106 45.9093 178.037 46.0882 177.828 46.2223C177.62 46.3117 177.55 46.4682 177.62 46.6918C176.924 47.4966 176.403 48.4132 176.055 49.4415C175.777 50.4699 175.256 51.3865 174.491 52.1913C173.866 53.4879 173.066 54.6727 172.093 55.7458C171.189 56.7742 170.355 57.8919 169.59 59.0992C169.243 59.1886 168.999 59.4568 168.86 59.904C168.095 60.664 167.47 61.5136 166.983 62.4525C166.566 63.3914 166.01 64.2633 165.315 65.0681C164.967 65.7388 164.515 66.4318 163.959 67.1472C163.403 67.8626 163.021 68.5779 162.812 69.2933Z" fill="#B9191F"/>
<path d="M245.364 53.6667C245.711 53.7114 245.92 53.8009 245.989 53.935C246.128 54.0691 246.337 54.1362 246.615 54.1362C246.685 54.3598 246.65 54.5386 246.511 54.6727C246.441 54.8069 246.337 54.941 246.198 55.0751C246.059 55.1646 245.92 55.2763 245.781 55.4105C245.711 55.4999 245.711 55.634 245.781 55.8129C245.155 56.0811 244.39 56.26 243.487 56.3494C242.583 56.3941 241.888 56.6177 241.401 57.0201C240.219 57.3778 238.933 57.6237 237.543 57.7578C236.222 57.8472 234.831 57.9814 233.372 58.1602C232.676 58.4732 232.19 58.652 231.912 58.6968C231.703 58.7415 231.46 58.8085 231.182 58.898C230.486 58.7191 229.757 58.6297 228.992 58.6297C228.227 58.6297 227.462 58.5626 226.698 58.4285C226.281 58.5179 225.863 58.5626 225.446 58.5626C225.099 58.5626 224.716 58.6073 224.299 58.6968C224.021 59.0544 223.882 59.4568 223.882 59.904C223.882 60.3511 223.778 60.7535 223.569 61.1112L222.944 61.916C222.874 62.1395 222.805 62.3631 222.735 62.5866C222.735 62.7655 222.666 62.9667 222.526 63.1902C222.387 63.3244 222.214 63.4809 222.005 63.6597C221.866 63.8385 221.797 64.0397 221.797 64.2633C221.31 64.621 220.962 65.0457 220.754 65.5376C220.545 65.9847 220.163 66.3647 219.607 66.6777C219.398 67.1248 219.051 67.4825 218.564 67.7508C218.147 68.019 217.73 68.332 217.313 68.6897C216.548 69.3604 215.853 69.9416 215.227 70.4335C214.671 70.9253 213.906 71.35 212.933 71.7077C212.585 72.0654 212.168 72.3113 211.681 72.4455C211.264 72.7137 210.986 72.9373 210.847 73.1161C210.222 73.3397 209.526 73.6079 208.762 73.9209C207.997 74.2339 207.197 74.4575 206.363 74.5916C205.181 74.7704 204.034 74.7481 202.922 74.5245C201.81 74.301 200.767 73.988 199.794 73.5856C199.168 73.6303 198.647 73.5409 198.229 73.3173C197.882 73.1385 197.43 73.0043 196.874 72.9149C196.109 72.4678 195.275 72.0654 194.371 71.7077C193.467 71.35 192.807 70.8582 192.39 70.2323C192.251 69.7404 192.112 69.2486 191.973 68.7568C191.764 68.265 191.59 67.8178 191.451 67.4154C191.312 67.013 191.312 66.5883 191.451 66.1412C191.521 65.6941 191.521 65.2469 191.451 64.7998C191.451 64.308 191.451 63.9056 191.451 63.5926C191.382 63.2349 191.521 62.8102 191.868 62.3184C192.285 61.7371 192.564 61.2676 192.703 60.91C192.842 60.5076 192.981 60.1722 193.12 59.904C193.328 59.6804 193.537 59.4345 193.745 59.1662C193.954 58.898 194.197 58.652 194.475 58.4285C194.892 58.0261 195.379 57.6237 195.935 57.2213C196.491 56.8189 197.048 56.4388 197.604 56.0811C198.021 55.7235 198.403 55.4328 198.751 55.2093C199.307 54.8516 199.898 54.5162 200.524 54.2033C201.149 53.8903 201.775 53.5326 202.401 53.1302C202.54 52.9961 202.713 52.8843 202.922 52.7949C203.131 52.7054 203.339 52.616 203.548 52.5266C204.243 52.2583 204.869 52.0348 205.425 51.8559C206.05 51.6771 206.746 51.4759 207.51 51.2523C208.066 51.0735 208.588 50.9617 209.074 50.917C209.631 50.8276 210.256 50.7381 210.951 50.6487C211.438 50.6487 211.855 50.6487 212.203 50.6487C212.55 50.6487 212.898 50.604 213.246 50.5146C213.037 50.1569 213.28 49.911 213.976 49.7769C214.671 49.6427 215.192 49.598 215.54 49.6427C216.235 49.6427 216.791 49.7545 217.208 49.9781C217.625 50.1569 218.008 50.3805 218.355 50.6487C219.12 51.0064 219.885 51.4759 220.649 52.0571C220.788 52.1466 220.962 52.2136 221.171 52.2583C221.379 52.303 221.553 52.3701 221.692 52.4595C221.97 52.6831 222.144 52.929 222.214 53.1973C222.353 53.4655 222.596 53.7114 222.944 53.935C223.152 54.0244 223.361 54.1362 223.569 54.2703C223.778 54.4045 223.917 54.5833 223.986 54.8069C224.334 54.8963 224.647 54.9857 224.925 55.0751C225.273 55.1199 225.62 55.1646 225.968 55.2093C226.315 55.2987 226.663 55.3211 227.01 55.2763C227.428 55.2316 227.879 55.2316 228.366 55.2763C228.714 55.3211 229.027 55.3881 229.305 55.4775C229.583 55.5223 229.896 55.5446 230.243 55.5446C230.799 55.4999 231.355 55.4105 231.912 55.2763C232.537 55.1422 233.232 55.1199 233.997 55.2093C235.04 55.3881 236.118 55.3211 237.23 55.0081C238.412 54.6951 239.594 54.4939 240.775 54.4045C241.053 54.4045 241.297 54.4045 241.505 54.4045C241.714 54.3598 241.957 54.3374 242.235 54.3374C242.583 54.1586 243.035 54.0244 243.591 53.935C244.147 53.8456 244.738 53.7562 245.364 53.6667ZM215.54 55.6787C214.845 55.2763 214.427 55.0304 214.288 54.941C214.219 54.8069 214.115 54.7175 213.976 54.6727C213.698 54.4939 213.35 54.3821 212.933 54.3374C212.516 54.2927 212.133 54.248 211.786 54.2033C210.673 54.0691 209.735 54.1586 208.97 54.4715C208.275 54.7398 207.58 55.0081 206.885 55.2763C205.772 55.7235 204.799 56.2823 203.965 56.953C203.756 57.1766 203.513 57.4225 203.235 57.6907C203.026 57.959 202.852 58.2496 202.713 58.5626C202.435 58.9203 202.192 59.2556 201.983 59.5686C201.775 59.8369 201.601 60.1722 201.462 60.5746C201.114 61.0217 200.906 61.4018 200.836 61.7148C200.767 61.983 200.697 62.2289 200.628 62.4525C200.558 62.8996 200.419 63.3691 200.211 63.8609C200.072 64.3527 200.002 64.7775 200.002 65.1352C200.072 65.2693 200.176 65.4481 200.315 65.6717C200.454 65.8953 200.593 66.0517 200.732 66.1412C200.871 66.3647 201.01 66.6106 201.149 66.8789C201.358 67.1472 201.532 67.3484 201.671 67.4825C202.018 67.7955 202.47 67.9967 203.026 68.0861C203.582 68.1755 204.208 68.2873 204.903 68.4214C205.668 68.6897 206.189 68.8015 206.467 68.7568C206.746 68.7121 206.954 68.6897 207.093 68.6897C207.997 68.6003 208.796 68.3544 209.492 67.952C210.187 67.5496 210.882 67.2366 211.577 67.013C212.133 66.4765 212.724 65.9176 213.35 65.3364C214.045 64.7104 214.671 64.0845 215.227 63.4585C215.435 63.2797 215.609 63.0785 215.748 62.8549C215.887 62.6313 216.026 62.4301 216.165 62.2513C216.652 61.8936 216.861 61.6924 216.791 61.6477C216.791 61.603 216.826 61.5359 216.895 61.4465C217.382 60.7758 217.591 60.2616 217.521 59.904C217.452 59.5463 217.452 59.1886 217.521 58.8309C217.173 58.3391 216.861 57.8025 216.583 57.2213C216.374 56.64 216.026 56.1259 215.54 55.6787Z" fill="#B9191F"/>
<path d="M257.214 71.1041C256.797 70.5229 256.727 69.651 257.005 68.4885C257.144 67.9967 257.249 67.6166 257.318 67.3484C257.457 67.0354 257.596 66.5212 257.735 65.8058C257.874 65.1352 258.048 64.4421 258.257 63.7268C258.535 63.0114 258.743 62.296 258.882 61.5806C257.84 62.609 256.866 63.7044 255.963 64.8669C255.059 65.9847 253.981 66.9236 252.73 67.6837C252.521 68.0861 252.278 68.3767 252 68.5556C251.722 68.6897 251.409 68.8238 251.061 68.958C250.783 69.0474 250.471 69.1592 250.123 69.2933C249.845 69.4274 249.602 69.6957 249.393 70.0981C249.045 70.3217 248.698 70.5676 248.35 70.8359C248.072 71.0594 247.864 71.35 247.725 71.7077C247.377 71.7971 247.029 71.976 246.682 72.2443C246.056 72.6467 245.639 72.8702 245.43 72.9149C245.222 72.9596 245.048 73.0267 244.909 73.1161C244.214 73.4738 243.588 73.7421 243.032 73.9209C242.545 74.0998 241.954 74.2116 241.259 74.2563C240.494 74.3457 239.486 74.4128 238.235 74.4575C237.053 74.5022 236.115 74.5469 235.42 74.5916C234.933 74.368 234.585 74.2339 234.377 74.1892C234.168 74.1445 233.786 74.0551 233.23 73.9209C232.326 73.6974 231.839 73.5632 231.77 73.5185C231.7 73.5185 231.526 73.4738 231.248 73.3844C230.692 73.1161 230.31 72.9149 230.101 72.7808C229.893 72.6019 229.649 72.4231 229.371 72.2443C228.19 71.0818 227.529 69.6063 227.39 67.8178C227.321 67.1919 227.494 66.5659 227.911 65.94C228.329 65.314 228.711 64.7551 229.059 64.2633C229.406 63.7715 229.858 63.2573 230.414 62.7208C230.97 62.1842 231.422 61.6924 231.77 61.2453C231.978 60.977 232.083 60.7758 232.083 60.6417C232.083 60.4628 232.048 60.3064 231.978 60.1722C231.909 60.0381 231.874 59.904 231.874 59.7698C231.874 59.6357 231.978 59.4345 232.187 59.1662C232.326 58.8532 232.535 58.5403 232.813 58.2273C233.091 57.9143 233.404 57.5566 233.751 57.1542C234.446 56.3941 235.107 55.7682 235.732 55.2763C236.358 54.7398 236.879 54.0691 237.297 53.2643C237.644 52.6384 238.096 52.1689 238.652 51.8559C239.278 51.4982 240.008 51.1853 240.842 50.917C241.19 51.0064 241.676 50.9841 242.302 50.8499C242.997 50.6711 243.519 50.4922 243.866 50.3134C244.353 50.3134 244.735 50.224 245.013 50.0451C245.778 49.9557 246.16 49.9557 246.16 50.0451C246.23 50.1345 246.334 50.1793 246.473 50.1793C246.612 50.224 246.786 50.224 246.995 50.1793C247.273 50.1345 247.481 50.1345 247.62 50.1793C247.829 50.6264 248.003 50.917 248.142 51.0511C248.281 51.1853 248.35 51.297 248.35 51.3865C248.35 51.5206 248.315 51.6994 248.246 51.923C248.246 52.1466 248.211 52.303 248.142 52.3925C247.725 52.7502 247.481 52.9737 247.412 53.0631C247.412 53.1078 247.377 53.1749 247.307 53.2643C246.89 53.622 246.369 54.1138 245.743 54.7398C245.118 55.3211 244.561 55.8352 244.075 56.2823C243.727 56.64 243.38 56.8859 243.032 57.0201C242.684 57.1542 242.372 57.4001 242.093 57.7578C241.954 57.9367 241.85 58.1155 241.781 58.2943C241.711 58.4285 241.607 58.585 241.468 58.7638C240.703 59.7922 239.799 60.8876 238.757 62.0501C237.714 63.1679 236.775 64.2409 235.941 65.2693C235.871 65.627 235.732 65.9847 235.524 66.3424C235.385 66.6554 235.315 66.9683 235.315 67.2813C235.315 67.326 235.281 67.4602 235.211 67.6837C235.211 67.8626 235.211 68.0861 235.211 68.3544C235.211 68.5779 235.211 68.8015 235.211 69.025C235.211 69.2486 235.246 69.3827 235.315 69.4274C235.732 69.7851 235.976 69.964 236.045 69.964C236.115 69.9193 236.184 69.9193 236.254 69.964C236.532 70.4111 236.706 70.6794 236.775 70.7688C236.914 70.8135 237.158 70.8806 237.505 70.97C237.783 71.0147 238.166 70.9923 238.652 70.9029C239.208 70.7688 239.626 70.657 239.904 70.5676C240.738 70.2993 241.363 70.031 241.781 69.7628C242.198 69.4498 242.615 69.1368 243.032 68.8238C243.38 68.5556 243.866 68.1532 244.492 67.6166C245.118 67.0801 245.743 66.5436 246.369 66.007C246.995 65.4258 247.62 64.8893 248.246 64.3974C248.872 63.8609 249.358 63.4585 249.706 63.1902C250.123 62.609 250.61 62.0724 251.166 61.5806C251.791 61.0888 252.313 60.5746 252.73 60.0381C253.286 59.3227 253.773 58.7191 254.19 58.2273C254.607 57.7355 255.094 57.1542 255.65 56.4835C256.067 56.1259 256.484 55.7905 256.901 55.4775C257.388 55.1199 257.735 54.6504 257.944 54.0691C258.083 53.7562 258.326 53.4655 258.674 53.1973C259.091 52.8843 259.404 52.616 259.612 52.3925C260.099 52.1242 260.412 51.8783 260.551 51.6547C260.759 51.4312 261.003 51.2747 261.281 51.1853C262.046 51.0511 262.636 50.9617 263.054 50.917C263.471 50.8276 263.992 50.8276 264.618 50.917C265.174 50.6934 265.765 50.5817 266.391 50.5817C267.016 50.5817 267.607 50.604 268.163 50.6487C268.163 50.8723 268.233 51.0288 268.372 51.1182C268.58 51.1629 268.685 51.2747 268.685 51.4535C268.963 51.8559 268.963 52.3478 268.685 52.929C268.407 53.5102 268.233 54.0915 268.163 54.6727C268.024 55.1199 267.746 55.5446 267.329 55.947C266.981 56.3047 266.703 56.7295 266.495 57.2213C266.217 57.8919 266.043 58.2943 265.973 58.4285C265.904 58.5626 265.8 58.8085 265.661 59.1662C265.382 59.971 265.104 60.7311 264.826 61.4465C264.548 62.1172 264.34 62.8996 264.201 63.7938C264.201 64.0174 264.131 64.2633 263.992 64.5316C263.923 64.7551 263.888 64.9563 263.888 65.1352C263.888 65.3587 263.888 65.627 263.888 65.94C263.957 66.253 264.166 66.4542 264.513 66.5436C264.931 66.633 265.243 66.6106 265.452 66.4765C265.73 66.3424 266.112 66.1859 266.599 66.007C266.947 65.8282 267.294 65.627 267.642 65.4034C267.989 65.1799 268.337 64.9787 268.685 64.7998C269.032 64.5763 269.415 64.3974 269.832 64.2633C270.249 64.1292 270.631 63.9503 270.979 63.7268C272.091 63.1008 273.134 62.4525 274.107 61.7818C275.15 61.1112 276.262 60.5523 277.444 60.1052C278.556 59.3451 279.669 58.652 280.781 58.0261C281.963 57.3554 283.284 56.7965 284.744 56.3494C285.3 56.9307 285.439 57.4225 285.161 57.8249C284.883 58.1826 284.535 58.5403 284.118 58.898C283.979 58.9874 283.736 59.0992 283.388 59.2333C283.04 59.3674 282.762 59.4792 282.554 59.5686C282.415 59.658 282.241 59.7698 282.032 59.904C281.824 60.0381 281.65 60.1052 281.511 60.1052C281.511 60.284 281.407 60.4405 281.198 60.5746C281.059 60.664 280.92 60.7535 280.781 60.8429C279.877 61.7371 278.869 62.5419 277.757 63.2573C276.645 63.928 275.567 64.621 274.524 65.3364C274.038 65.4258 273.725 65.5823 273.586 65.8058C273.516 65.9847 273.308 66.1635 272.96 66.3424C272.682 66.5659 272.404 66.7671 272.126 66.946C271.848 67.0801 271.57 67.259 271.292 67.4825C270.875 67.7955 270.492 68.1085 270.145 68.4214C269.866 68.6897 269.449 68.958 268.893 69.2262C268.546 69.4498 268.268 69.6957 268.059 69.964C267.92 70.1875 267.677 70.4111 267.329 70.6347C266.773 70.9923 266.356 71.1712 266.078 71.1712C265.869 71.1265 265.695 71.3277 265.556 71.7748C265 72.0431 264.687 72.2443 264.618 72.3784C264.548 72.4678 264.444 72.4902 264.305 72.4455C264.166 72.4902 263.923 72.5349 263.575 72.5796C263.227 72.5796 263.054 72.6243 263.054 72.7137C262.567 72.8479 262.185 72.982 261.907 73.1161C261.698 73.2503 261.385 73.3397 260.968 73.3844C260.064 73.4738 259.404 73.4291 258.987 73.2503C258.639 73.1161 258.257 72.8926 257.84 72.5796L257.214 71.1041Z" fill="#B9191F"/>
<path d="M300.348 39.6498C300.487 39.7839 300.557 39.918 300.557 40.0522C300.557 40.1863 300.661 40.2981 300.869 40.3875C300.73 40.7899 300.591 41.2147 300.452 41.6618C300.383 42.0642 300.348 42.4666 300.348 42.869C300.348 43.0478 300.418 43.2043 300.557 43.3384C300.765 43.4726 300.869 43.6067 300.869 43.7408C300.522 44.2774 300.244 44.5904 300.035 44.6798C299.896 44.7692 299.827 44.881 299.827 45.0151C299.479 45.1045 299.201 45.2387 298.992 45.4175C298.853 45.5964 298.575 45.6858 298.158 45.6858C298.019 45.8199 297.845 45.9317 297.637 46.0211C297.498 46.0658 297.393 46.1776 297.324 46.3564C296.212 46.6694 294.96 46.6471 293.57 46.2894C293.222 45.887 292.736 45.5964 292.11 45.4175C291.206 44.568 291.171 43.562 292.006 42.3995C292.145 42.1759 292.284 41.9524 292.423 41.7288C292.631 41.4606 292.805 41.2817 292.944 41.1923C293.709 40.8346 294.265 40.6111 294.613 40.5216C294.891 40.4322 295.169 40.3204 295.447 40.1863C295.794 40.0522 296.177 39.9404 296.594 39.851C296.733 39.8063 296.907 39.7839 297.115 39.7839C297.393 39.7839 297.672 39.7392 297.95 39.6498C298.228 39.6051 298.471 39.5603 298.68 39.5156C298.888 39.4709 299.097 39.4486 299.305 39.4486L300.348 39.6498ZM284.185 69.2933C284.81 69.1145 285.575 69.0474 286.479 69.0921C287.383 69.1368 288.113 69.0474 288.669 68.8238C288.947 68.6897 289.19 68.5556 289.399 68.4214C289.607 68.2873 289.851 68.2426 290.129 68.2873C291.241 68.019 292.179 67.7508 292.944 67.4825C293.709 67.2142 294.543 67.013 295.447 66.8789C295.655 66.8342 295.899 66.7448 296.177 66.6106C296.524 66.4765 296.768 66.3647 296.907 66.2753C298.019 66.0517 298.819 65.8282 299.305 65.6046C299.792 65.3811 300.244 65.1575 300.661 64.934C301.147 64.7104 301.599 64.4869 302.016 64.2633C302.503 63.995 303.094 63.6821 303.789 63.3244C304.762 62.9667 305.562 62.6537 306.188 62.3854C306.883 62.1172 307.613 61.7818 308.378 61.3794C308.517 61.1559 308.69 60.9994 308.899 60.91C309.177 60.7758 309.386 60.6193 309.525 60.4405C310.776 60.4405 311.471 60.7535 311.61 61.3794C311.263 61.8712 310.776 62.2736 310.15 62.5866C309.594 62.8996 309.073 63.2573 308.586 63.6597C308.03 63.8833 307.578 64.0845 307.23 64.2633C306.883 64.4421 306.535 64.7104 306.188 65.0681C306.118 65.0681 305.91 65.1799 305.562 65.4034C305.214 65.5823 305.006 65.6717 304.936 65.6717C304.519 65.9847 304.206 66.1859 303.998 66.2753C303.859 66.3647 303.72 66.4318 303.581 66.4765C303.511 66.4765 303.372 66.5212 303.164 66.6106C303.025 66.7001 302.712 66.8789 302.225 67.1472C301.738 67.639 301.113 68.0414 300.348 68.3544C298.888 69.2486 297.289 70.031 295.551 70.7017C293.883 71.3277 292.353 71.9536 290.963 72.5796C290.685 72.669 290.441 72.8031 290.233 72.982C290.024 73.1161 289.781 73.2503 289.503 73.3844C289.155 73.5632 288.599 73.7421 287.834 73.9209C287.139 74.0998 286.514 74.2563 285.957 74.3904C285.54 74.5692 285.158 74.7034 284.81 74.7928C283.281 74.8375 282.099 74.681 281.265 74.3233C280.361 74.0104 279.666 73.7644 279.179 73.5856C278.693 73.4067 278.276 73.1161 277.928 72.7137C277.163 72.4902 276.677 72.0878 276.468 71.5065C276.329 70.8806 276.155 70.277 275.947 69.6957C275.877 69.4722 275.808 69.2262 275.738 68.958C275.669 68.645 275.669 68.332 275.738 68.019C275.877 67.5272 275.981 67.013 276.051 66.4765C276.12 65.8953 276.294 65.4034 276.572 65.001C276.92 64.5092 277.094 64.0174 277.094 63.5256C277.163 63.0337 277.372 62.5419 277.719 62.0501C278.137 61.603 278.31 61.3571 278.241 61.3124C278.241 61.2676 278.276 61.2006 278.345 61.1112C278.484 60.977 278.623 60.8429 278.762 60.7088C278.971 60.5746 279.145 60.4181 279.284 60.2393L279.909 59.2333C280.187 58.9203 280.5 58.6073 280.848 58.2943C281.195 57.9814 281.473 57.6013 281.682 57.1542C281.821 56.8859 281.995 56.64 282.203 56.4165C282.481 56.1929 282.76 55.947 283.038 55.6787C283.246 55.4105 283.42 55.1422 283.559 54.8739C283.698 54.561 283.872 54.248 284.08 53.935C284.289 53.5773 284.532 53.2196 284.81 52.8619C285.158 52.5042 285.506 52.1466 285.853 51.7889C286.131 51.4312 286.375 51.1629 286.583 50.9841C286.792 50.8052 287.209 50.6934 287.834 50.6487C288.113 50.604 288.425 50.6264 288.773 50.7158C289.121 50.7605 289.468 50.7381 289.816 50.6487C290.72 50.3805 291.345 50.2463 291.693 50.2463C292.04 50.2463 292.284 50.1793 292.423 50.0451C293.187 50.0898 293.744 50.2463 294.091 50.5146C294.439 50.7829 294.856 51.0511 295.343 51.3194C294.925 52.616 294.439 53.622 293.883 54.3374C293.396 55.0081 292.84 55.7235 292.214 56.4835C291.867 56.8412 291.519 57.2436 291.171 57.6907C290.824 58.1379 290.511 58.5403 290.233 58.898C289.885 59.3898 289.503 59.8369 289.086 60.2393C288.738 60.597 288.425 61.0217 288.147 61.5136C288.008 61.7371 287.834 61.9607 287.626 62.1842C287.487 62.3631 287.348 62.5643 287.209 62.7878C287.07 63.1008 286.861 63.3914 286.583 63.6597C286.375 63.8833 286.166 64.1068 285.957 64.3304C285.749 64.5986 285.54 64.8669 285.332 65.1352C285.123 65.4034 284.949 65.6941 284.81 66.007C284.463 66.5436 284.254 66.8789 284.185 67.013C284.115 67.1025 284.046 67.1919 283.976 67.2813C283.837 67.7731 283.629 68.1755 283.35 68.4885C283.072 68.8015 283.177 69.025 283.663 69.1592L284.185 69.2933Z" fill="#B9191F"/>
<path d="M313.554 63.1902C313.693 63.3691 313.623 63.615 313.345 63.928C313.137 64.2409 312.963 64.5092 312.824 64.7328C312.893 64.9116 312.963 65.0681 313.033 65.2022C313.102 65.2917 313.067 65.4258 312.928 65.6046C313.415 65.8282 313.728 66.0965 313.867 66.4094C314.006 66.6777 314.249 66.9683 314.597 67.2813C314.944 67.5496 315.292 67.7731 315.64 67.952C316.057 68.1308 316.439 68.332 316.787 68.5556C317.134 68.4214 317.412 68.3544 317.621 68.3544C317.829 68.3544 318.107 68.3097 318.455 68.2202C319.081 67.6837 319.567 67.0578 319.915 66.3424C319.984 66.1635 320.054 65.9623 320.124 65.7388C320.193 65.5152 320.228 65.314 320.228 65.1352C320.158 64.5092 319.88 63.9056 319.394 63.3244C318.907 62.7431 318.525 62.1395 318.246 61.5136C317.968 61.1559 317.864 60.7535 317.934 60.3064C318.073 59.8592 318.073 59.4568 317.934 59.0992C317.864 58.8756 317.76 58.6968 317.621 58.5626C317.482 58.4285 317.343 58.272 317.204 58.0931C317.065 57.7355 316.995 57.3331 316.995 56.8859C317.065 56.4388 316.926 56.0588 316.578 55.7458C316.3 55.9247 315.848 56.26 315.222 56.7518C314.597 57.2436 313.936 57.7802 313.241 58.3614C312.546 58.9427 311.885 59.4792 311.26 59.971C310.704 60.4628 310.287 60.7982 310.008 60.977C309.661 61.29 309.278 61.5806 308.861 61.8489C308.444 62.0724 308.062 62.3407 307.714 62.6537C307.436 62.8773 306.95 63.2573 306.254 63.7938C305.629 64.2857 304.968 64.8222 304.273 65.4034C303.578 65.9847 302.952 66.5436 302.396 67.0801C301.77 67.5719 301.353 67.9073 301.145 68.0861C301.006 68.2202 300.658 68.5556 300.102 69.0921C299.476 69.6286 298.816 70.2099 298.121 70.8359C297.356 71.4618 296.695 72.0431 296.139 72.5796C295.514 73.1161 295.131 73.4738 294.992 73.6527C294.575 74.0998 294.054 74.4798 293.428 74.7928C292.733 75.1505 291.933 75.3293 291.03 75.3293C290.96 75.2846 290.891 75.1505 290.821 74.9269C290.752 74.7481 290.717 74.5469 290.717 74.3233C290.647 74.0998 290.578 73.8762 290.508 73.6527C290.369 73.4738 290.265 73.3397 290.195 73.2503C290.404 72.982 290.578 72.7137 290.717 72.4455C290.786 72.1772 291.064 71.9313 291.551 71.7077C291.69 71.3947 292.107 70.9029 292.802 70.2323C293.498 69.5169 294.262 68.7791 295.097 68.019C295.931 67.259 296.73 66.5436 297.495 65.8729C298.19 65.2022 298.677 64.7328 298.955 64.4645C299.233 64.2857 299.685 63.9503 300.31 63.4585C300.936 62.9667 301.562 62.4525 302.187 61.916C302.813 61.3347 303.404 60.7982 303.96 60.3064C304.586 59.8145 305.038 59.4568 305.316 59.2333C305.524 58.8309 305.976 58.2943 306.671 57.6237C307.367 56.9083 308.131 56.1929 308.966 55.4775C309.8 54.7175 310.599 54.0021 311.364 53.3314C312.198 52.6607 312.824 52.1242 313.241 51.7218C313.589 51.3641 313.867 51.0511 314.075 50.7829C314.353 50.5146 314.631 50.224 314.91 49.911C315.049 49.8216 315.188 49.7321 315.327 49.6427C315.466 49.5086 315.57 49.3968 315.64 49.3074C315.779 48.9497 315.709 48.7038 315.431 48.5697C315.153 48.3908 315.049 48.1449 315.118 47.8319C315.674 47.1165 316.265 46.6471 316.891 46.4235C317.586 46.1552 318.212 45.7752 318.768 45.2834C319.115 45.1045 319.428 44.9704 319.706 44.881C320.054 44.7916 320.402 44.6351 320.749 44.4115C321.027 44.2327 321.375 44.1432 321.792 44.1432C322.209 44.0985 322.591 44.1209 322.939 44.2103C323.356 44.255 323.704 44.3444 323.982 44.4786C324.329 44.568 324.538 44.6574 324.608 44.7468C324.677 44.881 324.677 45.0598 324.608 45.2834C324.538 45.5069 324.468 45.7305 324.399 45.954C324.26 46.3564 324.121 46.7365 323.982 47.0942C323.843 47.4072 323.704 47.7649 323.565 48.1673C323.426 48.6591 323.287 49.1285 323.148 49.5757C323.078 50.0228 323.321 50.4475 323.878 50.8499C323.808 51.0735 323.808 51.3418 323.878 51.6547C324.017 51.9677 324.156 52.2583 324.295 52.5266C324.434 53.9574 324.816 55.3881 325.442 56.8189C326.137 58.2049 326.867 59.4792 327.632 60.6417C327.632 60.8652 327.666 61.0888 327.736 61.3124C327.875 61.5359 328.014 61.7595 328.153 61.983C328.362 63.4138 328.153 64.8445 327.527 66.2753C326.902 67.6614 326.311 69.025 325.755 70.3664C325.337 70.8135 324.99 71.3277 324.712 71.9089C324.573 72.1772 324.434 72.4007 324.295 72.5796C324.156 72.7584 323.947 72.9596 323.669 73.1832C323.321 73.5409 323.009 73.9433 322.731 74.3904C322.452 74.8375 321.896 75.1952 321.062 75.4635C320.575 75.5529 320.089 75.5529 319.602 75.4635C319.185 75.374 318.768 75.374 318.351 75.4635C318.003 75.5082 317.69 75.5529 317.412 75.5976C317.134 75.687 316.856 75.7317 316.578 75.7317C315.674 75.8212 314.91 75.7541 314.284 75.5305C313.728 75.3517 313.033 75.2176 312.198 75.1281C312.198 74.994 312.094 74.8822 311.885 74.7928C311.677 74.7481 311.503 74.681 311.364 74.5916C311.086 73.8762 310.808 73.362 310.53 73.0491C310.252 72.7361 310.043 72.4007 309.904 72.0431C309.696 71.5512 309.591 71.0818 309.591 70.6347C309.591 70.1428 309.418 69.651 309.07 69.1592C308.792 68.8015 308.653 68.5556 308.653 68.4214C308.722 68.2873 308.757 68.1532 308.757 68.019C308.757 67.4378 308.688 66.8118 308.549 66.1412C308.479 65.4258 308.931 64.8445 309.904 64.3974C310.252 64.2186 310.495 63.995 310.634 63.7268C310.843 63.4138 311.156 63.1455 311.573 62.922C311.712 62.8325 311.92 62.7878 312.198 62.7878C312.546 62.7878 312.789 62.8102 312.928 62.8549L313.554 63.1902Z" fill="#B9191F"/>
<path d="M357.522 39.6498C357.661 39.7839 357.731 39.918 357.731 40.0522C357.731 40.1863 357.835 40.2981 358.044 40.3875C357.905 40.7899 357.766 41.2147 357.627 41.6618C357.557 42.0642 357.522 42.4666 357.522 42.869C357.522 43.0478 357.592 43.2043 357.731 43.3384C357.939 43.4726 358.044 43.6067 358.044 43.7408C357.696 44.2774 357.418 44.5904 357.209 44.6798C357.07 44.7692 357.001 44.881 357.001 45.0151C356.653 45.1045 356.375 45.2387 356.167 45.4175C356.028 45.5964 355.75 45.6858 355.332 45.6858C355.193 45.8199 355.02 45.9317 354.811 46.0211C354.672 46.0658 354.568 46.1776 354.498 46.3564C353.386 46.6694 352.134 46.6471 350.744 46.2894C350.396 45.887 349.91 45.5964 349.284 45.4175C348.38 44.568 348.346 43.562 349.18 42.3995C349.319 42.1759 349.458 41.9524 349.597 41.7288C349.806 41.4606 349.979 41.2817 350.118 41.1923C350.883 40.8346 351.439 40.6111 351.787 40.5216C352.065 40.4322 352.343 40.3204 352.621 40.1863C352.969 40.0522 353.351 39.9404 353.768 39.851C353.907 39.8063 354.081 39.7839 354.29 39.7839C354.568 39.7839 354.846 39.7392 355.124 39.6498C355.402 39.6051 355.645 39.5603 355.854 39.5156C356.062 39.4709 356.271 39.4486 356.479 39.4486L357.522 39.6498ZM341.359 69.2933C341.985 69.1145 342.749 69.0474 343.653 69.0921C344.557 69.1368 345.287 69.0474 345.843 68.8238C346.121 68.6897 346.364 68.5556 346.573 68.4214C346.781 68.2873 347.025 68.2426 347.303 68.2873C348.415 68.019 349.354 67.7508 350.118 67.4825C350.883 67.2142 351.717 67.013 352.621 66.8789C352.83 66.8342 353.073 66.7448 353.351 66.6106C353.699 66.4765 353.942 66.3647 354.081 66.2753C355.193 66.0517 355.993 65.8282 356.479 65.6046C356.966 65.3811 357.418 65.1575 357.835 64.934C358.322 64.7104 358.774 64.4869 359.191 64.2633C359.677 63.995 360.268 63.6821 360.963 63.3244C361.937 62.9667 362.736 62.6537 363.362 62.3854C364.057 62.1172 364.787 61.7818 365.552 61.3794C365.691 61.1559 365.865 60.9994 366.073 60.91C366.351 60.7758 366.56 60.6193 366.699 60.4405C367.95 60.4405 368.645 60.7535 368.784 61.3794C368.437 61.8712 367.95 62.2736 367.324 62.5866C366.768 62.8996 366.247 63.2573 365.76 63.6597C365.204 63.8833 364.752 64.0845 364.405 64.2633C364.057 64.4421 363.709 64.7104 363.362 65.0681C363.292 65.0681 363.084 65.1799 362.736 65.4034C362.389 65.5823 362.18 65.6717 362.111 65.6717C361.693 65.9847 361.381 66.1859 361.172 66.2753C361.033 66.3647 360.894 66.4318 360.755 66.4765C360.685 66.4765 360.546 66.5212 360.338 66.6106C360.199 66.7001 359.886 66.8789 359.399 67.1472C358.913 67.639 358.287 68.0414 357.522 68.3544C356.062 69.2486 354.463 70.031 352.725 70.7017C351.057 71.3277 349.528 71.9536 348.137 72.5796C347.859 72.669 347.616 72.8031 347.407 72.982C347.199 73.1161 346.955 73.2503 346.677 73.3844C346.33 73.5632 345.773 73.7421 345.009 73.9209C344.314 74.0998 343.688 74.2563 343.132 74.3904C342.715 74.5692 342.332 74.7034 341.985 74.7928C340.455 74.8375 339.273 74.681 338.439 74.3233C337.535 74.0104 336.84 73.7644 336.354 73.5856C335.867 73.4067 335.45 73.1161 335.102 72.7137C334.337 72.4902 333.851 72.0878 333.642 71.5065C333.503 70.8806 333.329 70.277 333.121 69.6957C333.051 69.4722 332.982 69.2262 332.912 68.958C332.843 68.645 332.843 68.332 332.912 68.019C333.051 67.5272 333.156 67.013 333.225 66.4765C333.295 65.8953 333.468 65.4034 333.747 65.001C334.094 64.5092 334.268 64.0174 334.268 63.5256C334.337 63.0337 334.546 62.5419 334.894 62.0501C335.311 61.603 335.485 61.3571 335.415 61.3124C335.415 61.2676 335.45 61.2006 335.519 61.1112C335.658 60.977 335.797 60.8429 335.936 60.7088C336.145 60.5746 336.319 60.4181 336.458 60.2393L337.084 59.2333C337.362 58.9203 337.674 58.6073 338.022 58.2943C338.37 57.9814 338.648 57.6013 338.856 57.1542C338.995 56.8859 339.169 56.64 339.378 56.4165C339.656 56.1929 339.934 55.947 340.212 55.6787C340.42 55.4105 340.594 55.1422 340.733 54.8739C340.872 54.561 341.046 54.248 341.255 53.935C341.463 53.5773 341.707 53.2196 341.985 52.8619C342.332 52.5042 342.68 52.1466 343.027 51.7889C343.306 51.4312 343.549 51.1629 343.757 50.9841C343.966 50.8052 344.383 50.6934 345.009 50.6487C345.287 50.604 345.6 50.6264 345.947 50.7158C346.295 50.7605 346.642 50.7381 346.99 50.6487C347.894 50.3805 348.519 50.2463 348.867 50.2463C349.215 50.2463 349.458 50.1793 349.597 50.0451C350.362 50.0898 350.918 50.2463 351.265 50.5146C351.613 50.7829 352.03 51.0511 352.517 51.3194C352.1 52.616 351.613 53.622 351.057 54.3374C350.57 55.0081 350.014 55.7235 349.388 56.4835C349.041 56.8412 348.693 57.2436 348.346 57.6907C347.998 58.1379 347.685 58.5403 347.407 58.898C347.06 59.3898 346.677 59.8369 346.26 60.2393C345.912 60.597 345.6 61.0217 345.322 61.5136C345.183 61.7371 345.009 61.9607 344.8 62.1842C344.661 62.3631 344.522 62.5643 344.383 62.7878C344.244 63.1008 344.035 63.3914 343.757 63.6597C343.549 63.8833 343.34 64.1068 343.132 64.3304C342.923 64.5986 342.715 64.8669 342.506 65.1352C342.297 65.4034 342.124 65.6941 341.985 66.007C341.637 66.5436 341.428 66.8789 341.359 67.013C341.289 67.1025 341.22 67.1919 341.15 67.2813C341.011 67.7731 340.803 68.1755 340.525 68.4885C340.247 68.8015 340.351 69.025 340.838 69.1592L341.359 69.2933Z" fill="#B9191F"/>
<path d="M392.418 54.941C392.488 55.0751 392.418 55.3434 392.21 55.7458C391.862 56.0141 391.654 56.3047 391.584 56.6177C391.445 56.7965 391.306 56.953 391.167 57.0871C391.097 57.2213 391.028 57.4001 390.958 57.6237C390.819 57.8919 390.75 58.2049 390.75 58.5626C390.819 58.9203 390.819 59.2556 390.75 59.5686C390.611 60.0604 390.506 60.5523 390.437 61.0441C390.367 61.4912 390.298 61.9607 390.228 62.4525C390.228 62.9443 390.159 63.5032 390.02 64.1292C389.881 64.7551 389.742 65.314 389.603 65.8058C389.881 66.1188 390.055 66.4542 390.124 66.8118C390.194 67.1695 390.437 67.4602 390.854 67.6837C392.244 67.5496 393.357 67.3484 394.191 67.0801C395.025 66.7671 395.825 66.3424 396.589 65.8058C397.215 65.627 397.632 65.4705 397.841 65.3364C398.119 65.2022 398.536 65.0234 399.092 64.7998C399.231 64.7104 399.37 64.621 399.509 64.5316C399.648 64.4421 399.787 64.3527 399.926 64.2633C400.691 63.995 401.143 63.8162 401.282 63.7268C401.491 63.6373 401.734 63.5479 402.012 63.4585C403.194 62.9667 404.098 62.4525 404.723 61.916C405.349 61.603 405.766 61.3347 405.975 61.1112C406.253 60.8429 406.809 60.597 407.643 60.3734C408.13 60.0157 408.616 59.7251 409.103 59.5016C409.659 59.2333 410.18 58.9203 410.667 58.5626C411.015 58.5626 411.293 58.6073 411.501 58.6968C411.71 58.7862 411.953 58.8756 412.231 58.965C412.44 59.3227 412.475 59.7028 412.336 60.1052C412.197 60.4628 411.953 60.7982 411.606 61.1112C411.258 61.4241 411.084 61.603 411.084 61.6477C411.084 61.6924 411.049 61.7371 410.98 61.7818C410.771 61.9607 410.493 62.1395 410.146 62.3184C409.868 62.4525 409.624 62.609 409.416 62.7878C409.068 63.1902 408.79 63.3914 408.582 63.3914C408.373 63.3914 408.199 63.4361 408.06 63.5256C407.434 63.7491 406.983 63.928 406.705 64.0621C406.496 64.1962 406.114 64.3751 405.557 64.5986C404.793 64.8669 404.341 65.0457 404.202 65.1352C404.063 65.2246 403.924 65.2917 403.785 65.3364C402.881 65.9623 402.047 66.4765 401.282 66.8789C400.587 67.2366 399.822 67.7284 398.988 68.3544C398.71 68.4885 398.432 68.6226 398.154 68.7568C397.876 68.8909 397.632 69.0698 397.424 69.2933C396.798 69.5616 396.277 69.8298 395.859 70.0981C395.512 70.3664 395.095 70.6794 394.608 71.0371C394.191 71.1712 393.739 71.3724 393.252 71.6407C392.766 71.8642 392.244 72.0654 391.688 72.2443C391.41 72.3337 391.097 72.4455 390.75 72.5796C390.472 72.669 390.159 72.7137 389.811 72.7137C388.977 72.8031 388.212 72.7584 387.517 72.5796C386.822 72.4007 386.161 72.2666 385.536 72.1772C385.258 71.9089 384.91 71.6854 384.493 71.5065C383.867 71.0147 383.415 70.4335 383.137 69.7628C382.859 69.0921 382.581 68.3767 382.303 67.6166C381.747 67.8402 381.226 68.1308 380.739 68.4885C380.252 68.8462 379.627 69.1368 378.862 69.3604C377.472 70.2099 375.977 71.0371 374.378 71.8419C372.849 72.6019 371.284 73.4067 369.685 74.2563C369.477 74.3904 369.268 74.5022 369.06 74.5916C368.851 74.681 368.677 74.7034 368.538 74.6587C368.191 74.9269 367.704 75.0834 367.078 75.1281C366.522 75.2176 365.897 75.2176 365.201 75.1281C364.506 74.9046 363.88 74.7481 363.324 74.6587C362.768 74.5692 362.212 74.4351 361.656 74.2563C360.474 74.1221 359.501 73.7868 358.736 73.2503C357.902 72.7137 357.207 72.0878 356.65 71.3724C356.442 71.0147 356.303 70.6794 356.233 70.3664C356.094 70.0534 355.955 69.6957 355.816 69.2933C355.747 68.9356 355.642 68.645 355.503 68.4214C355.364 68.1532 355.364 67.9073 355.503 67.6837C355.364 67.5496 355.33 67.4154 355.399 67.2813C355.469 67.1025 355.503 66.9236 355.503 66.7448C355.434 66.1188 355.538 65.4481 355.816 64.7328C356.025 64.0174 356.338 63.3691 356.755 62.7878C356.894 62.609 357.172 62.3854 357.589 62.1172C357.728 61.983 357.832 61.8489 357.902 61.7148C357.971 61.5806 358.076 61.4688 358.215 61.3794C358.354 61.2453 358.562 61.1112 358.84 60.977C359.118 60.8429 359.362 60.7088 359.57 60.5746C359.918 60.2616 360.3 59.9934 360.717 59.7698C361.204 59.5016 361.656 59.2333 362.073 58.965C362.282 58.8309 362.455 58.6744 362.594 58.4955C362.803 58.3167 363.081 58.1826 363.429 58.0931C363.707 57.7802 364.02 57.5343 364.367 57.3554C364.715 57.1319 365.097 56.9083 365.514 56.6847C366.696 55.7458 368.156 54.9634 369.894 54.3374C371.632 53.7114 373.196 52.9961 374.586 52.1913C375.073 52.0571 375.49 51.9006 375.838 51.7218C376.185 51.543 376.533 51.3641 376.881 51.1853C377.784 50.6934 378.723 50.5369 379.696 50.7158C380.669 50.8946 381.573 51.0511 382.407 51.1853C383.103 51.5877 383.763 51.9901 384.389 52.3925C385.084 52.7949 385.675 53.242 386.161 53.7338C386.648 53.6891 387.204 53.6891 387.83 53.7338C388.456 53.7338 389.116 53.6891 389.811 53.5997C390.02 53.5997 390.228 53.5773 390.437 53.5326C390.646 53.4432 390.819 53.3985 390.958 53.3985C392.001 53.622 392.523 53.9574 392.523 54.4045L392.418 54.941ZM378.758 55.4105C376.881 55.9917 375.177 56.6847 373.648 57.4895C372.119 58.2496 370.659 59.0768 369.268 59.971C368.921 60.1946 368.538 60.4181 368.121 60.6417C367.774 60.8205 367.461 61.0217 367.183 61.2453C366.905 61.4688 366.627 61.7371 366.348 62.0501C366.14 62.3631 365.931 62.6537 365.723 62.922C365.584 63.1008 365.445 63.2573 365.306 63.3914C365.167 63.4809 365.028 63.5926 364.889 63.7268C364.749 63.9503 364.68 64.1739 364.68 64.3974C364.749 64.621 364.784 64.8669 364.784 65.1352C364.784 65.3587 364.784 65.5823 364.784 65.8058C364.784 66.0294 364.819 66.253 364.889 66.4765C365.097 66.9683 365.201 67.4602 365.201 67.952C365.201 68.3097 365.236 68.7568 365.306 69.2933C365.445 69.7851 365.723 70.1205 366.14 70.2993C366.557 70.4782 366.974 70.5229 367.391 70.4335C367.878 70.344 368.295 70.277 368.643 70.2323C371.076 69.025 373.37 67.7731 375.525 66.4765C377.68 65.1352 379.592 63.6373 381.26 61.983C381.121 60.8205 381.087 59.7028 381.156 58.6297C381.295 57.5119 381.156 56.4835 380.739 55.5446C380.461 55.4552 380.113 55.4328 379.696 55.4775C379.349 55.4775 379.036 55.4552 378.758 55.4105Z" fill="#B9191F"/>
<path d="M410.63 64.7998C411.186 64.5763 411.638 64.2857 411.985 63.928C412.333 63.5703 412.75 63.2126 413.237 62.8549C414.14 62.1842 415.114 61.6253 416.156 61.1782C416.643 60.7311 417.234 60.3958 417.929 60.1722C418.694 59.904 419.285 59.5239 419.702 59.0321C419.841 58.898 419.945 58.7638 420.015 58.6297C420.154 58.4955 420.293 58.3614 420.432 58.2273C421.683 57.1095 423.108 56.1259 424.707 55.2763C425.124 55.0528 425.507 54.8292 425.854 54.6057C426.271 54.3821 426.758 54.1586 427.314 53.935C427.94 53.7114 428.531 53.4208 429.087 53.0631C429.713 52.7054 430.373 52.4372 431.068 52.2583C431.555 52.1242 432.007 52.0348 432.424 51.9901C432.841 51.9006 433.293 51.8112 433.78 51.7218C434.266 51.6324 434.683 51.5653 435.031 51.5206C435.448 51.4312 435.9 51.4312 436.387 51.5206C437.499 51.8336 438.333 52.4372 438.889 53.3314C439.028 53.555 438.959 54.0468 438.681 54.8069C438.472 55.5223 438.159 56.3271 437.742 57.2213C437.395 58.0708 437.012 58.898 436.595 59.7028C436.178 60.5076 435.9 61.0888 435.761 61.4465C435.622 61.8042 435.587 62.0054 435.657 62.0501C435.726 62.0501 435.761 62.0948 435.761 62.1842C435.622 62.4078 435.518 62.609 435.448 62.7878C435.379 62.9667 435.309 63.1679 435.24 63.3914C435.1 63.7491 434.996 64.2409 434.927 64.8669C434.857 65.4481 434.892 65.9176 435.031 66.2753C435.796 66.2306 436.178 66.1859 436.178 66.1412C436.248 66.0965 436.352 66.0741 436.491 66.0741C436.699 66.0294 436.908 66.0294 437.117 66.0741C437.395 66.0741 437.638 66.0517 437.846 66.007C438.611 65.8729 439.306 65.6941 439.932 65.4705C440.558 65.2022 441.149 64.8893 441.705 64.5316C442.956 64.1739 444.103 63.8162 445.146 63.4585C446.119 63.0114 446.884 62.6984 447.44 62.5196C448.066 62.296 448.97 62.0054 450.151 61.6477C450.569 61.3347 451.159 61.0664 451.924 60.8429C452.758 60.5746 453.454 60.284 454.01 59.971C454.149 59.8816 454.323 59.7698 454.531 59.6357C454.74 59.4568 454.948 59.4121 455.157 59.5016C455.504 59.7251 455.713 59.971 455.783 60.2393C455.922 60.4628 455.956 60.6193 455.887 60.7088C455.331 61.0664 455.018 61.3347 454.948 61.5136C454.948 61.6924 454.879 61.8265 454.74 61.916C454.392 62.1395 453.871 62.3407 453.176 62.5196C452.55 62.6984 452.168 62.8549 452.028 62.989C451.959 63.0785 451.855 63.1679 451.716 63.2573C451.577 63.3467 451.368 63.4585 451.09 63.5926C450.881 63.6821 450.708 63.7715 450.569 63.8609C450.43 63.995 450.221 64.0845 449.943 64.1292C449.734 64.1292 449.526 64.1515 449.317 64.1962C448.9 64.4198 448.552 64.621 448.274 64.7998C447.996 64.9787 447.683 65.1799 447.336 65.4034C446.78 65.7611 446.432 66.0294 446.293 66.2082C446.154 66.3424 445.772 66.5436 445.146 66.8118C444.798 66.946 444.451 67.0801 444.103 67.2142C443.756 67.3484 443.408 67.4825 443.06 67.6166C442.087 67.9296 441.114 68.3097 440.141 68.7568C439.167 69.2039 438.194 69.651 437.221 70.0981C436.526 70.3664 435.796 70.6123 435.031 70.8359C434.336 71.0147 433.675 71.2383 433.05 71.5065C432.772 71.5065 432.563 71.5065 432.424 71.5065C432.354 71.4618 432.181 71.4842 431.903 71.5736C431.555 71.4395 431.207 71.4395 430.86 71.5736C430.512 71.663 430.165 71.663 429.817 71.5736C429.122 71.2159 428.635 70.9923 428.357 70.9029C428.149 70.8135 427.975 70.7017 427.836 70.5676C427.697 70.344 427.627 70.0981 427.627 69.8298C427.697 69.5616 427.627 69.338 427.419 69.1592C427.419 68.1755 427.453 67.2366 427.523 66.3424C427.662 65.4481 427.905 64.5092 428.253 63.5256C428.322 63.2126 428.461 62.7878 428.67 62.2513C428.878 61.67 429.052 61.1112 429.191 60.5746C429.33 60.0381 429.435 59.5686 429.504 59.1662C429.574 58.7638 429.504 58.5179 429.296 58.4285C428.531 58.6968 427.731 59.0992 426.897 59.6357C426.132 60.1722 425.402 60.6193 424.707 60.977C424.151 61.2453 423.595 61.4912 423.039 61.7148C422.552 61.9383 422.031 62.1842 421.475 62.4525C420.988 62.6761 420.571 62.8996 420.223 63.1232C419.876 63.3467 419.493 63.615 419.076 63.928C418.59 64.2409 418.138 64.5539 417.721 64.8669C417.303 65.1352 416.817 65.4034 416.261 65.6717C415.983 65.8505 415.705 66.007 415.426 66.1412C415.218 66.2306 415.009 66.3424 414.801 66.4765C414.453 66.7001 414.106 66.9236 413.758 67.1472C413.48 67.326 413.098 67.4825 412.611 67.6166C412.194 67.9743 411.638 68.3767 410.942 68.8238C410.317 69.271 409.656 69.7628 408.961 70.2993C408.335 70.7911 407.71 71.283 407.084 71.7748C406.458 72.2666 405.972 72.7137 405.624 73.1161C404.79 73.5632 403.886 73.9433 402.913 74.2563C402.009 74.614 400.897 74.6587 399.576 74.3904C398.881 74.1221 398.429 73.8986 398.22 73.7197C398.012 73.5409 397.768 73.4067 397.49 73.3173C397.56 72.8255 397.629 72.356 397.699 71.9089C397.768 71.4618 397.977 70.9923 398.325 70.5005C398.394 70.4111 398.498 70.3217 398.637 70.2323C398.707 70.0981 398.811 69.964 398.95 69.8298C399.298 69.4274 399.541 68.9803 399.68 68.4885C399.75 67.9967 399.958 67.5272 400.306 67.0801C400.723 66.633 401.001 66.2753 401.14 66.007C401.21 65.6941 401.349 65.4258 401.557 65.2022C401.696 64.9787 401.905 64.7775 402.183 64.5986C402.392 64.3751 402.565 64.1515 402.704 63.928C402.843 63.7044 403.087 63.4585 403.434 63.1902C403.782 62.8773 404.025 62.609 404.164 62.3854C404.373 61.8936 404.616 61.4018 404.894 60.91C405.172 60.4181 405.485 59.9263 405.833 59.4345C405.972 59.1215 406.111 58.8309 406.25 58.5626C406.389 58.2496 406.563 57.959 406.771 57.6907C407.119 57.1989 407.466 56.7295 407.814 56.2823C408.162 55.7905 408.509 55.2987 408.857 54.8069C409.065 54.5386 409.239 54.315 409.378 54.1362C409.587 53.9126 409.83 53.6891 410.108 53.4655C410.317 53.242 410.491 53.0184 410.63 52.7949C410.838 52.5713 411.047 52.3478 411.255 52.1242C411.464 51.9006 411.638 51.6547 411.777 51.3865C411.985 51.0735 412.263 50.7829 412.611 50.5146C413.098 50.1569 413.48 49.8216 413.758 49.5086C414.036 49.1956 414.488 48.9944 415.114 48.905C415.392 48.9944 415.67 48.9944 415.948 48.905C416.295 48.8156 416.608 48.7485 416.886 48.7038C417.234 48.6144 417.547 48.5697 417.825 48.5697C418.103 48.5249 418.346 48.592 418.555 48.7709C419.459 49.1285 420.119 49.4415 420.536 49.7098C420.953 49.9781 421.231 50.224 421.37 50.4475C421.718 50.8499 421.753 51.2747 421.475 51.7218C421.197 52.1242 420.71 52.4819 420.015 52.7949C419.737 53.555 419.25 54.2703 418.555 54.941C417.86 55.6117 417.234 56.26 416.678 56.8859C416.539 57.1095 416.4 57.3331 416.261 57.5566C416.122 57.7802 415.983 58.0037 415.844 58.2273C415.426 58.8532 414.975 59.4792 414.488 60.1052C414.071 60.7311 413.584 61.3347 413.028 61.916C412.75 62.2736 412.507 62.5643 412.298 62.7878C412.09 63.0114 411.881 63.2126 411.672 63.3914C411.464 63.5256 411.29 63.7044 411.151 63.928C411.012 64.1515 410.838 64.4421 410.63 64.7998Z" fill="#B9191F"/>
<path d="M478.999 54.941C479.069 55.0751 478.999 55.3434 478.791 55.7458C478.443 56.0141 478.235 56.3047 478.165 56.6177C478.026 56.7965 477.887 56.953 477.748 57.0871C477.678 57.2213 477.609 57.4001 477.539 57.6237C477.4 57.8919 477.331 58.2049 477.331 58.5626C477.4 58.9203 477.4 59.2556 477.331 59.5686C477.192 60.0604 477.087 60.5523 477.018 61.0441C476.948 61.4912 476.879 61.9607 476.809 62.4525C476.809 62.9443 476.74 63.5032 476.601 64.1292C476.462 64.7551 476.323 65.314 476.184 65.8058C476.462 66.1188 476.636 66.4542 476.705 66.8118C476.775 67.1695 477.018 67.4602 477.435 67.6837C478.825 67.5496 479.938 67.3484 480.772 67.0801C481.606 66.7671 482.406 66.3424 483.17 65.8058C483.796 65.627 484.213 65.4705 484.422 65.3364C484.7 65.2022 485.117 65.0234 485.673 64.7998C485.812 64.7104 485.951 64.621 486.09 64.5316C486.229 64.4421 486.368 64.3527 486.507 64.2633C487.272 63.995 487.724 63.8162 487.863 63.7268C488.072 63.6373 488.315 63.5479 488.593 63.4585C489.775 62.9667 490.679 62.4525 491.304 61.916C491.93 61.603 492.347 61.3347 492.556 61.1112C492.834 60.8429 493.39 60.597 494.224 60.3734C494.711 60.0157 495.197 59.7251 495.684 59.5016C496.24 59.2333 496.761 58.9203 497.248 58.5626C497.596 58.5626 497.874 58.6073 498.082 58.6968C498.291 58.7862 498.534 58.8756 498.812 58.965C499.021 59.3227 499.056 59.7028 498.917 60.1052C498.778 60.4628 498.534 60.7982 498.187 61.1112C497.839 61.4241 497.665 61.603 497.665 61.6477C497.665 61.6924 497.63 61.7371 497.561 61.7818C497.352 61.9607 497.074 62.1395 496.727 62.3184C496.449 62.4525 496.205 62.609 495.997 62.7878C495.649 63.1902 495.371 63.3914 495.163 63.3914C494.954 63.3914 494.78 63.4361 494.641 63.5256C494.015 63.7491 493.564 63.928 493.286 64.0621C493.077 64.1962 492.695 64.3751 492.138 64.5986C491.374 64.8669 490.922 65.0457 490.783 65.1352C490.644 65.2246 490.505 65.2917 490.366 65.3364C489.462 65.9623 488.628 66.4765 487.863 66.8789C487.168 67.2366 486.403 67.7284 485.569 68.3544C485.291 68.4885 485.013 68.6226 484.735 68.7568C484.457 68.8909 484.213 69.0698 484.005 69.2933C483.379 69.5616 482.858 69.8298 482.44 70.0981C482.093 70.3664 481.676 70.6794 481.189 71.0371C480.772 71.1712 480.32 71.3724 479.833 71.6407C479.347 71.8642 478.825 72.0654 478.269 72.2443C477.991 72.3337 477.678 72.4455 477.331 72.5796C477.053 72.669 476.74 72.7137 476.392 72.7137C475.558 72.8031 474.793 72.7584 474.098 72.5796C473.403 72.4007 472.742 72.2666 472.117 72.1772C471.839 71.9089 471.491 71.6854 471.074 71.5065C470.448 71.0147 469.996 70.4335 469.718 69.7628C469.44 69.0921 469.162 68.3767 468.884 67.6166C468.328 67.8402 467.807 68.1308 467.32 68.4885C466.833 68.8462 466.208 69.1368 465.443 69.3604C464.053 70.2099 462.558 71.0371 460.959 71.8419C459.43 72.6019 457.865 73.4067 456.266 74.2563C456.058 74.3904 455.849 74.5022 455.641 74.5916C455.432 74.681 455.258 74.7034 455.119 74.6587C454.772 74.9269 454.285 75.0834 453.659 75.1281C453.103 75.2176 452.478 75.2176 451.782 75.1281C451.087 74.9046 450.461 74.7481 449.905 74.6587C449.349 74.5692 448.793 74.4351 448.237 74.2563C447.055 74.1221 446.082 73.7868 445.317 73.2503C444.483 72.7137 443.788 72.0878 443.231 71.3724C443.023 71.0147 442.884 70.6794 442.814 70.3664C442.675 70.0534 442.536 69.6957 442.397 69.2933C442.328 68.9356 442.223 68.645 442.084 68.4214C441.945 68.1532 441.945 67.9073 442.084 67.6837C441.945 67.5496 441.911 67.4154 441.98 67.2813C442.05 67.1025 442.084 66.9236 442.084 66.7448C442.015 66.1188 442.119 65.4481 442.397 64.7328C442.606 64.0174 442.919 63.3691 443.336 62.7878C443.475 62.609 443.753 62.3854 444.17 62.1172C444.309 61.983 444.413 61.8489 444.483 61.7148C444.552 61.5806 444.657 61.4688 444.796 61.3794C444.935 61.2453 445.143 61.1112 445.421 60.977C445.699 60.8429 445.943 60.7088 446.151 60.5746C446.499 60.2616 446.881 59.9934 447.298 59.7698C447.785 59.5016 448.237 59.2333 448.654 58.965C448.863 58.8309 449.036 58.6744 449.175 58.4955C449.384 58.3167 449.662 58.1826 450.01 58.0931C450.288 57.7802 450.601 57.5343 450.948 57.3554C451.296 57.1319 451.678 56.9083 452.095 56.6847C453.277 55.7458 454.737 54.9634 456.475 54.3374C458.213 53.7114 459.777 52.9961 461.167 52.1913C461.654 52.0571 462.071 51.9006 462.419 51.7218C462.766 51.543 463.114 51.3641 463.462 51.1853C464.365 50.6934 465.304 50.5369 466.277 50.7158C467.25 50.8946 468.154 51.0511 468.988 51.1853C469.684 51.5877 470.344 51.9901 470.97 52.3925C471.665 52.7949 472.256 53.242 472.742 53.7338C473.229 53.6891 473.785 53.6891 474.411 53.7338C475.037 53.7338 475.697 53.6891 476.392 53.5997C476.601 53.5997 476.809 53.5773 477.018 53.5326C477.227 53.4432 477.4 53.3985 477.539 53.3985C478.582 53.622 479.104 53.9574 479.104 54.4045L478.999 54.941ZM465.339 55.4105C463.462 55.9917 461.758 56.6847 460.229 57.4895C458.7 58.2496 457.24 59.0768 455.849 59.971C455.502 60.1946 455.119 60.4181 454.702 60.6417C454.355 60.8205 454.042 61.0217 453.764 61.2453C453.486 61.4688 453.208 61.7371 452.929 62.0501C452.721 62.3631 452.512 62.6537 452.304 62.922C452.165 63.1008 452.026 63.2573 451.887 63.3914C451.748 63.4809 451.609 63.5926 451.47 63.7268C451.33 63.9503 451.261 64.1739 451.261 64.3974C451.33 64.621 451.365 64.8669 451.365 65.1352C451.365 65.3587 451.365 65.5823 451.365 65.8058C451.365 66.0294 451.4 66.253 451.47 66.4765C451.678 66.9683 451.782 67.4602 451.782 67.952C451.782 68.3097 451.817 68.7568 451.887 69.2933C452.026 69.7851 452.304 70.1205 452.721 70.2993C453.138 70.4782 453.555 70.5229 453.972 70.4335C454.459 70.344 454.876 70.277 455.224 70.2323C457.657 69.025 459.951 67.7731 462.106 66.4765C464.261 65.1352 466.173 63.6373 467.841 61.983C467.702 60.8205 467.668 59.7028 467.737 58.6297C467.876 57.5119 467.737 56.4835 467.32 55.5446C467.042 55.4552 466.694 55.4328 466.277 55.4775C465.93 55.4775 465.617 55.4552 465.339 55.4105Z" fill="#B9191F"/>
<path d="M180.675 321.25C179.808 321.25 179.017 321.15 178.3 320.95C177.6 320.75 177 320.483 176.5 320.15L176.525 316.8C176.992 317.067 177.458 317.3 177.925 317.5C178.392 317.7 178.858 317.858 179.325 317.975C179.808 318.075 180.283 318.125 180.75 318.125C181.133 318.125 181.475 318.083 181.775 318C182.092 317.917 182.367 317.8 182.6 317.65C182.833 317.483 183.008 317.275 183.125 317.025C183.258 316.775 183.325 316.483 183.325 316.15C183.325 315.7 183.242 315.317 183.075 315C182.908 314.683 182.675 314.392 182.375 314.125C182.075 313.858 181.725 313.575 181.325 313.275C180.858 312.908 180.408 312.5 179.975 312.05C179.558 311.6 179.217 311.075 178.95 310.475C178.683 309.875 178.55 309.175 178.55 308.375C178.55 307.575 178.692 306.842 178.975 306.175C179.258 305.508 179.658 304.933 180.175 304.45C180.692 303.95 181.308 303.567 182.025 303.3C182.758 303.033 183.575 302.9 184.475 302.9C185.358 302.9 186.183 303 186.95 303.2C187.717 303.4 188.442 303.7 189.125 304.1L187.8 306.95C187.2 306.65 186.625 306.425 186.075 306.275C185.525 306.125 184.983 306.05 184.45 306.05C184.133 306.05 183.842 306.1 183.575 306.2C183.325 306.283 183.108 306.417 182.925 306.6C182.742 306.767 182.6 306.975 182.5 307.225C182.4 307.475 182.35 307.758 182.35 308.075C182.35 308.492 182.425 308.85 182.575 309.15C182.725 309.433 182.95 309.708 183.25 309.975C183.567 310.225 183.942 310.508 184.375 310.825C184.992 311.242 185.5 311.7 185.9 312.2C186.3 312.683 186.6 313.208 186.8 313.775C187 314.342 187.1 314.967 187.1 315.65C187.1 316.6 186.933 317.425 186.6 318.125C186.283 318.825 185.833 319.408 185.25 319.875C184.667 320.342 183.983 320.692 183.2 320.925C182.417 321.142 181.575 321.25 180.675 321.25ZM190.496 321L194.271 303.15H198.921C200.304 303.15 201.413 303.367 202.246 303.8C203.096 304.233 203.704 304.833 204.071 305.6C204.454 306.367 204.646 307.258 204.646 308.275C204.646 309.342 204.454 310.275 204.071 311.075C203.704 311.875 203.179 312.542 202.496 313.075C201.829 313.608 201.046 314.008 200.146 314.275C199.246 314.525 198.263 314.65 197.196 314.65H195.521L194.221 321H190.496ZM197.546 311.55C198.213 311.55 198.796 311.425 199.296 311.175C199.796 310.925 200.188 310.567 200.471 310.1C200.754 309.617 200.896 309.05 200.896 308.4C200.896 307.667 200.721 307.125 200.371 306.775C200.021 306.425 199.496 306.25 198.796 306.25H197.321L196.246 311.55H197.546ZM213.422 321.25C212.055 321.25 210.905 320.975 209.972 320.425C209.055 319.858 208.355 319.075 207.872 318.075C207.405 317.075 207.172 315.9 207.172 314.55C207.172 313.617 207.247 312.683 207.397 311.75C207.563 310.817 207.813 309.917 208.147 309.05C208.48 308.183 208.897 307.375 209.397 306.625C209.897 305.875 210.48 305.225 211.147 304.675C211.83 304.108 212.597 303.667 213.447 303.35C214.313 303.033 215.272 302.875 216.322 302.875C218.355 302.875 219.888 303.475 220.922 304.675C221.955 305.875 222.472 307.467 222.472 309.45C222.472 310.417 222.388 311.383 222.222 312.35C222.072 313.3 221.838 314.217 221.522 315.1C221.205 315.983 220.797 316.8 220.297 317.55C219.813 318.283 219.238 318.933 218.572 319.5C217.905 320.05 217.138 320.483 216.272 320.8C215.422 321.1 214.472 321.25 213.422 321.25ZM213.747 318.075C214.197 318.075 214.63 317.983 215.047 317.8C215.463 317.617 215.855 317.358 216.222 317.025C216.588 316.675 216.922 316.25 217.222 315.75C217.522 315.25 217.78 314.683 217.997 314.05C218.213 313.417 218.38 312.725 218.497 311.975C218.613 311.225 218.672 310.425 218.672 309.575C218.672 308.492 218.438 307.633 217.972 307C217.522 306.35 216.855 306.025 215.972 306.025C215.488 306.025 215.03 306.133 214.597 306.35C214.163 306.55 213.755 306.842 213.372 307.225C213.005 307.592 212.672 308.042 212.372 308.575C212.088 309.092 211.838 309.667 211.622 310.3C211.405 310.933 211.238 311.608 211.122 312.325C211.022 313.025 210.972 313.758 210.972 314.525C210.972 315.292 211.08 315.942 211.297 316.475C211.513 317.008 211.83 317.408 212.247 317.675C212.663 317.942 213.163 318.075 213.747 318.075ZM224.929 321L228.704 303.15H232.929C234.663 303.15 236.021 303.533 237.004 304.3C237.988 305.05 238.479 306.275 238.479 307.975C238.479 308.925 238.313 309.767 237.979 310.5C237.646 311.217 237.196 311.817 236.629 312.3C236.079 312.783 235.463 313.158 234.779 313.425L237.729 321H233.679L231.379 314.15H230.079L228.654 321H224.929ZM231.604 311.075C232.088 311.075 232.513 311.017 232.879 310.9C233.263 310.783 233.588 310.608 233.854 310.375C234.138 310.142 234.346 309.85 234.479 309.5C234.629 309.133 234.704 308.708 234.704 308.225C234.704 307.575 234.529 307.083 234.179 306.75C233.846 306.417 233.313 306.25 232.579 306.25H231.754L230.754 311.075H231.604ZM243.278 321L246.328 306.3H242.328L243.028 303.15H254.778L254.078 306.3H250.053L247.003 321H243.278ZM258.873 321.25C258.007 321.25 257.215 321.15 256.498 320.95C255.798 320.75 255.198 320.483 254.698 320.15L254.723 316.8C255.19 317.067 255.657 317.3 256.123 317.5C256.59 317.7 257.057 317.858 257.523 317.975C258.007 318.075 258.482 318.125 258.948 318.125C259.332 318.125 259.673 318.083 259.973 318C260.29 317.917 260.565 317.8 260.798 317.65C261.032 317.483 261.207 317.275 261.323 317.025C261.457 316.775 261.523 316.483 261.523 316.15C261.523 315.7 261.44 315.317 261.273 315C261.107 314.683 260.873 314.392 260.573 314.125C260.273 313.858 259.923 313.575 259.523 313.275C259.057 312.908 258.607 312.5 258.173 312.05C257.757 311.6 257.415 311.075 257.148 310.475C256.882 309.875 256.748 309.175 256.748 308.375C256.748 307.575 256.89 306.842 257.173 306.175C257.457 305.508 257.857 304.933 258.373 304.45C258.89 303.95 259.507 303.567 260.223 303.3C260.957 303.033 261.773 302.9 262.673 302.9C263.557 302.9 264.382 303 265.148 303.2C265.915 303.4 266.64 303.7 267.323 304.1L265.998 306.95C265.398 306.65 264.823 306.425 264.273 306.275C263.723 306.125 263.182 306.05 262.648 306.05C262.332 306.05 262.04 306.1 261.773 306.2C261.523 306.283 261.307 306.417 261.123 306.6C260.94 306.767 260.798 306.975 260.698 307.225C260.598 307.475 260.548 307.758 260.548 308.075C260.548 308.492 260.623 308.85 260.773 309.15C260.923 309.433 261.148 309.708 261.448 309.975C261.765 310.225 262.14 310.508 262.573 310.825C263.19 311.242 263.698 311.7 264.098 312.2C264.498 312.683 264.798 313.208 264.998 313.775C265.198 314.342 265.298 314.967 265.298 315.65C265.298 316.6 265.132 317.425 264.798 318.125C264.482 318.825 264.032 319.408 263.448 319.875C262.865 320.342 262.182 320.692 261.398 320.925C260.615 321.142 259.773 321.25 258.873 321.25ZM268.694 321L272.469 303.15H277.394L277.869 316.5H277.969L284.319 303.15H289.469L285.669 321H282.244L284.019 312.55C284.152 311.983 284.294 311.383 284.444 310.75C284.594 310.1 284.744 309.467 284.894 308.85C285.061 308.217 285.202 307.658 285.319 307.175H285.244L278.669 321H275.219L274.794 307.175H274.694C274.644 307.525 274.569 308.008 274.469 308.625C274.369 309.225 274.252 309.883 274.119 310.6C274.002 311.317 273.869 312.017 273.719 312.7L272.044 321H268.694ZM288.989 321L298.014 303.15H302.614L304.089 321H300.464L300.239 316.75H294.814L292.889 321H288.989ZM296.364 313.575H300.114L299.889 308.975C299.872 308.492 299.847 308 299.814 307.5C299.797 307 299.797 306.492 299.814 305.975H299.764C299.614 306.425 299.447 306.875 299.264 307.325C299.081 307.758 298.872 308.233 298.639 308.75L296.364 313.575ZM307.376 321L311.151 303.15H315.501L319.176 316.3H319.276C319.326 316.033 319.376 315.708 319.426 315.325C319.492 314.942 319.559 314.533 319.626 314.1C319.709 313.65 319.792 313.208 319.876 312.775C319.959 312.342 320.034 311.95 320.101 311.6L321.851 303.15H325.201L321.426 321H317.201L313.376 307.5H313.251C313.234 307.6 313.201 307.842 313.151 308.225C313.101 308.592 313.034 309.033 312.951 309.55C312.884 310.067 312.801 310.6 312.701 311.15C312.617 311.683 312.534 312.167 312.451 312.6L310.701 321H307.376ZM327.467 309.275C327.75 308.608 328.025 307.917 328.292 307.2C328.575 306.467 328.842 305.75 329.092 305.05C329.342 304.35 329.567 303.717 329.767 303.15H333.217L333.317 303.425C333.067 303.992 332.767 304.617 332.417 305.3C332.083 305.967 331.725 306.642 331.342 307.325C330.975 308.008 330.6 308.658 330.217 309.275H327.467ZM337.316 321.25C336.449 321.25 335.657 321.15 334.941 320.95C334.241 320.75 333.641 320.483 333.141 320.15L333.166 316.8C333.632 317.067 334.099 317.3 334.566 317.5C335.032 317.7 335.499 317.858 335.966 317.975C336.449 318.075 336.924 318.125 337.391 318.125C337.774 318.125 338.116 318.083 338.416 318C338.732 317.917 339.007 317.8 339.241 317.65C339.474 317.483 339.649 317.275 339.766 317.025C339.899 316.775 339.966 316.483 339.966 316.15C339.966 315.7 339.882 315.317 339.716 315C339.549 314.683 339.316 314.392 339.016 314.125C338.716 313.858 338.366 313.575 337.966 313.275C337.499 312.908 337.049 312.5 336.616 312.05C336.199 311.6 335.857 311.075 335.591 310.475C335.324 309.875 335.191 309.175 335.191 308.375C335.191 307.575 335.332 306.842 335.616 306.175C335.899 305.508 336.299 304.933 336.816 304.45C337.332 303.95 337.949 303.567 338.666 303.3C339.399 303.033 340.216 302.9 341.116 302.9C341.999 302.9 342.824 303 343.591 303.2C344.357 303.4 345.082 303.7 345.766 304.1L344.441 306.95C343.841 306.65 343.266 306.425 342.716 306.275C342.166 306.125 341.624 306.05 341.091 306.05C340.774 306.05 340.482 306.1 340.216 306.2C339.966 306.283 339.749 306.417 339.566 306.6C339.382 306.767 339.241 306.975 339.141 307.225C339.041 307.475 338.991 307.758 338.991 308.075C338.991 308.492 339.066 308.85 339.216 309.15C339.366 309.433 339.591 309.708 339.891 309.975C340.207 310.225 340.582 310.508 341.016 310.825C341.632 311.242 342.141 311.7 342.541 312.2C342.941 312.683 343.241 313.208 343.441 313.775C343.641 314.342 343.741 314.967 343.741 315.65C343.741 316.6 343.574 317.425 343.241 318.125C342.924 318.825 342.474 319.408 341.891 319.875C341.307 320.342 340.624 320.692 339.841 320.925C339.057 321.142 338.216 321.25 337.316 321.25ZM354.563 321L358.338 303.15H362.988C364.372 303.15 365.48 303.367 366.313 303.8C367.163 304.233 367.772 304.833 368.138 305.6C368.522 306.367 368.713 307.258 368.713 308.275C368.713 309.342 368.522 310.275 368.138 311.075C367.772 311.875 367.247 312.542 366.563 313.075C365.897 313.608 365.113 314.008 364.213 314.275C363.313 314.525 362.33 314.65 361.263 314.65H359.588L358.288 321H354.563ZM361.613 311.55C362.28 311.55 362.863 311.425 363.363 311.175C363.863 310.925 364.255 310.567 364.538 310.1C364.822 309.617 364.963 309.05 364.963 308.4C364.963 307.667 364.788 307.125 364.438 306.775C364.088 306.425 363.563 306.25 362.863 306.25H361.388L360.313 311.55H361.613ZM367.168 321L376.193 303.15H380.793L382.268 321H378.643L378.418 316.75H372.993L371.068 321H367.168ZM374.543 313.575H378.293L378.068 308.975C378.051 308.492 378.026 308 377.993 307.5C377.976 307 377.976 306.492 377.993 305.975H377.943C377.793 306.425 377.626 306.875 377.443 307.325C377.259 307.758 377.051 308.233 376.818 308.75L374.543 313.575ZM385.554 321L389.329 303.15H393.554C395.288 303.15 396.646 303.533 397.629 304.3C398.613 305.05 399.104 306.275 399.104 307.975C399.104 308.925 398.938 309.767 398.604 310.5C398.271 311.217 397.821 311.817 397.254 312.3C396.704 312.783 396.088 313.158 395.404 313.425L398.354 321H394.304L392.004 314.15H390.704L389.279 321H385.554ZM392.229 311.075C392.713 311.075 393.138 311.017 393.504 310.9C393.888 310.783 394.213 310.608 394.479 310.375C394.763 310.142 394.971 309.85 395.104 309.5C395.254 309.133 395.329 308.708 395.329 308.225C395.329 307.575 395.154 307.083 394.804 306.75C394.471 306.417 393.938 306.25 393.204 306.25H392.379L391.379 311.075H392.229ZM399.453 321L408.478 303.15H413.078L414.553 321H410.928L410.703 316.75H405.278L403.353 321H399.453ZM406.828 313.575H410.578L410.353 308.975C410.336 308.492 410.311 308 410.278 307.5C410.261 307 410.261 306.492 410.278 305.975H410.228C410.078 306.425 409.911 306.875 409.728 307.325C409.545 307.758 409.336 308.233 409.103 308.75L406.828 313.575ZM417.84 321L421.615 303.15H426.24C428.306 303.15 429.906 303.725 431.04 304.875C432.19 306.008 432.765 307.65 432.765 309.8C432.765 311.167 432.623 312.425 432.34 313.575C432.073 314.725 431.673 315.758 431.14 316.675C430.606 317.592 429.948 318.375 429.165 319.025C428.381 319.658 427.481 320.15 426.465 320.5C425.465 320.833 424.348 321 423.115 321H417.84ZM423.415 317.875C424.148 317.875 424.806 317.742 425.39 317.475C425.99 317.192 426.506 316.8 426.94 316.3C427.39 315.8 427.756 315.225 428.04 314.575C428.34 313.908 428.565 313.192 428.715 312.425C428.865 311.642 428.94 310.842 428.94 310.025C428.94 308.742 428.665 307.792 428.115 307.175C427.581 306.558 426.84 306.25 425.89 306.25H424.665L422.24 317.875H423.415ZM433.903 321L434.378 318.85L436.553 317.85L438.978 306.3L437.203 305.3L437.678 303.15H445.403L444.928 305.3L442.703 306.3L440.278 317.85L442.103 318.85L441.628 321H433.903ZM449.83 321.25C448.964 321.25 448.172 321.15 447.455 320.95C446.755 320.75 446.155 320.483 445.655 320.15L445.68 316.8C446.147 317.067 446.614 317.3 447.08 317.5C447.547 317.7 448.014 317.858 448.48 317.975C448.964 318.075 449.439 318.125 449.905 318.125C450.289 318.125 450.63 318.083 450.93 318C451.247 317.917 451.522 317.8 451.755 317.65C451.989 317.483 452.164 317.275 452.28 317.025C452.414 316.775 452.48 316.483 452.48 316.15C452.48 315.7 452.397 315.317 452.23 315C452.064 314.683 451.83 314.392 451.53 314.125C451.23 313.858 450.88 313.575 450.48 313.275C450.014 312.908 449.564 312.5 449.13 312.05C448.714 311.6 448.372 311.075 448.105 310.475C447.839 309.875 447.705 309.175 447.705 308.375C447.705 307.575 447.847 306.842 448.13 306.175C448.414 305.508 448.814 304.933 449.33 304.45C449.847 303.95 450.464 303.567 451.18 303.3C451.914 303.033 452.73 302.9 453.63 302.9C454.514 302.9 455.339 303 456.105 303.2C456.872 303.4 457.597 303.7 458.28 304.1L456.955 306.95C456.355 306.65 455.78 306.425 455.23 306.275C454.68 306.125 454.139 306.05 453.605 306.05C453.289 306.05 452.997 306.1 452.73 306.2C452.48 306.283 452.264 306.417 452.08 306.6C451.897 306.767 451.755 306.975 451.655 307.225C451.555 307.475 451.505 307.758 451.505 308.075C451.505 308.492 451.58 308.85 451.73 309.15C451.88 309.433 452.105 309.708 452.405 309.975C452.722 310.225 453.097 310.508 453.53 310.825C454.147 311.242 454.655 311.7 455.055 312.2C455.455 312.683 455.755 313.208 455.955 313.775C456.155 314.342 456.255 314.967 456.255 315.65C456.255 316.6 456.089 317.425 455.755 318.125C455.439 318.825 454.989 319.408 454.405 319.875C453.822 320.342 453.139 320.692 452.355 320.925C451.572 321.142 450.73 321.25 449.83 321.25ZM459.651 321L463.426 303.15H473.026L472.326 306.25H466.476L465.701 310.175H471.151L470.451 313.275H464.976L464.051 317.875H469.926L469.226 321H459.651Z" fill="#44478E"/>
</svg>
