<svg width="649" height="348" viewBox="0 0 649 348" fill="none" xmlns="http://www.w3.org/2000/svg">
<rect x="5" y="5" width="639" height="338" rx="36" fill="#F4F4F4" stroke="#140C14" stroke-width="10"/>
<path fill-rule="evenodd" clip-rule="evenodd" d="M620.466 335.317C614.593 338.565 607.839 340.414 600.653 340.414H49C26.3563 340.414 8 322.057 8 299.414V298.656L17.2753 288.667V287.203L38.7551 251.566L57.7939 273.045L93.4308 268.652L101.242 255.471L115.887 278.904L128.579 262.794L137.367 278.904H145.666L157.382 265.723L167.634 283.785H183.255L189.113 262.794L196.436 280.368H210.105L214.01 274.51L227.679 280.368L239.395 262.794L257.458 287.691L269.174 270.116L279.914 283.785H284.796L297 273.045L307.252 276.463L317.015 274.51L339.472 273.045L341.912 280.368H364.857L374.132 270.116L383.896 283.785H389.754L400.982 273.045L407.816 283.785L419.044 285.738L424.902 280.368L439.059 283.785L447.358 270.116L455.657 280.368H469.815L475.184 268.164L482.507 280.368L501.546 270.116L510.333 278.904L523.026 268.164L529.86 280.368L537.671 274.998L543.041 280.368H558.663L565.985 263.77L574.284 278.904L583.56 274.998H596.74L636.771 296.966L620.466 335.317Z" fill="#CDD9CD"/>
<path fill-rule="evenodd" clip-rule="evenodd" d="M635.741 320.633C628.556 332.49 615.529 340.414 600.653 340.414H49C30.6257 340.414 15.0744 328.327 9.86334 311.67L22.1571 298.43V296.966L43.6369 261.329L62.6757 282.809L98.3126 278.415L106.123 265.235L120.769 288.667L133.461 272.557L142.248 288.667H150.547L162.264 275.486L172.515 293.549H188.137L193.995 272.557L201.318 290.131H214.987L218.892 284.273L232.561 290.131L244.277 272.557L262.34 297.454L274.056 279.88L284.796 293.549H289.678L301.882 282.809L312.134 286.226L321.897 284.273L344.353 282.809L346.794 290.131H369.739L379.014 279.88L388.777 293.549H394.635L405.864 282.809L412.698 293.549L423.926 295.501L429.784 290.131L443.941 293.549L452.24 279.88L460.539 290.131H474.696L480.066 277.927L487.389 290.131L506.428 279.88L515.215 288.667L527.908 277.927L534.742 290.131L542.553 284.762L547.923 290.131H563.544L570.867 273.534L579.166 288.667L588.441 284.762H601.622L641.059 306.404C640.854 307.599 640.597 308.776 640.291 309.933L635.741 320.633Z" fill="#688068"/>
<path d="M211.44 304.6L211.28 305.44C210.027 305.44 209.227 305.6 208.88 305.92L212.2 322.68L220.84 306.16C220.653 305.68 219.867 305.44 218.48 305.44L218.64 304.6H225.2L225.04 305.44C223.6 305.44 222.76 305.653 222.52 306.08L211 328H209.08L204.96 306.28C204.827 305.72 204.013 305.44 202.52 305.44L202.68 304.6H211.44ZM230.2 314.56C230.2 315.147 230 315.6 229.6 315.92C229.2 316.24 228.72 316.4 228.16 316.4C227.733 316.4 227.387 316.267 227.12 316C226.853 315.707 226.72 315.333 226.72 314.88C226.72 313.333 227.4 312.133 228.76 311.28C230.147 310.427 231.92 310 234.08 310C236.213 310 237.787 310.48 238.8 311.44C239.813 312.373 240.32 313.627 240.32 315.2C240.32 315.52 240.267 316.027 240.16 316.72L239 323.76C238.947 324.187 238.92 324.48 238.92 324.64C238.92 325.413 239.093 326.013 239.44 326.44C239.813 326.867 240.32 327.08 240.96 327.08L240.8 328C238.16 328 236.467 327.507 235.72 326.52C233.853 327.773 231.72 328.4 229.32 328.4C225.8 328.4 224.04 327.16 224.04 324.68C224.04 323.987 224.173 323.36 224.44 322.8C224.733 322.213 225.147 321.733 225.68 321.36C226.213 320.96 226.773 320.613 227.36 320.32C227.973 320.027 228.693 319.773 229.52 319.56C230.347 319.32 231.107 319.12 231.8 318.96C232.493 318.8 233.28 318.627 234.16 318.44C235.067 318.253 235.8 318.08 236.36 317.92C236.547 316.613 236.64 315.64 236.64 315C236.64 313.853 236.347 312.973 235.76 312.36C235.173 311.747 234.4 311.44 233.44 311.44C231.067 311.44 229.6 312.08 229.04 313.36C229.813 313.36 230.2 313.76 230.2 314.56ZM236.2 318.8C235.853 318.907 235.253 319.067 234.4 319.28C233.573 319.493 232.92 319.68 232.44 319.84C231.987 319.973 231.413 320.2 230.72 320.52C230.053 320.813 229.533 321.133 229.16 321.48C228.787 321.827 228.453 322.28 228.16 322.84C227.893 323.4 227.76 324.04 227.76 324.76C227.76 326.28 228.587 327.04 230.24 327.04C232.08 327.04 233.773 326.587 235.32 325.68C235.267 325.413 235.24 325.187 235.24 325C235.24 324.813 235.267 324.533 235.32 324.16L236.2 318.8ZM259.977 315.08C259.977 314.467 260.164 314 260.537 313.68C260.91 313.36 261.284 313.2 261.657 313.2C261.55 311.867 260.297 311.2 257.897 311.2C256.03 311.2 254.417 312.027 253.057 313.68C251.724 315.307 251.057 317.387 251.057 319.92C251.057 321.84 251.524 323.48 252.457 324.84C253.417 326.2 254.59 326.88 255.977 326.88C258.324 326.88 260.337 326 262.017 324.24L262.897 324.72C261.91 325.973 260.75 326.907 259.417 327.52C258.084 328.107 256.39 328.4 254.337 328.4C252.39 328.4 250.697 327.827 249.257 326.68C247.844 325.533 247.137 323.64 247.137 321C247.137 317.827 248.097 315.2 250.017 313.12C251.937 311.04 254.497 310 257.697 310C261.67 310 263.657 311.173 263.657 313.52C263.657 314.32 263.457 314.973 263.057 315.48C262.684 315.987 262.177 316.24 261.537 316.24C260.497 316.24 259.977 315.853 259.977 315.08ZM274.198 314.56C274.198 315.147 273.998 315.6 273.598 315.92C273.198 316.24 272.718 316.4 272.158 316.4C271.732 316.4 271.385 316.267 271.118 316C270.852 315.707 270.718 315.333 270.718 314.88C270.718 313.333 271.398 312.133 272.758 311.28C274.145 310.427 275.918 310 278.078 310C280.212 310 281.785 310.48 282.798 311.44C283.812 312.373 284.318 313.627 284.318 315.2C284.318 315.52 284.265 316.027 284.158 316.72L282.998 323.76C282.945 324.187 282.918 324.48 282.918 324.64C282.918 325.413 283.092 326.013 283.438 326.44C283.812 326.867 284.318 327.08 284.958 327.08L284.798 328C282.158 328 280.465 327.507 279.718 326.52C277.852 327.773 275.718 328.4 273.318 328.4C269.798 328.4 268.038 327.16 268.038 324.68C268.038 323.987 268.172 323.36 268.438 322.8C268.732 322.213 269.145 321.733 269.678 321.36C270.212 320.96 270.772 320.613 271.358 320.32C271.972 320.027 272.692 319.773 273.518 319.56C274.345 319.32 275.105 319.12 275.798 318.96C276.492 318.8 277.278 318.627 278.158 318.44C279.065 318.253 279.798 318.08 280.358 317.92C280.545 316.613 280.638 315.64 280.638 315C280.638 313.853 280.345 312.973 279.758 312.36C279.172 311.747 278.398 311.44 277.438 311.44C275.065 311.44 273.598 312.08 273.038 313.36C273.812 313.36 274.198 313.76 274.198 314.56ZM280.198 318.8C279.852 318.907 279.252 319.067 278.398 319.28C277.572 319.493 276.918 319.68 276.438 319.84C275.985 319.973 275.412 320.2 274.718 320.52C274.052 320.813 273.532 321.133 273.158 321.48C272.785 321.827 272.452 322.28 272.158 322.84C271.892 323.4 271.758 324.04 271.758 324.76C271.758 326.28 272.585 327.04 274.238 327.04C276.078 327.04 277.772 326.587 279.318 325.68C279.265 325.413 279.238 325.187 279.238 325C279.238 324.813 279.265 324.533 279.318 324.16L280.198 318.8ZM299.101 304.6L298.141 310.4H301.581L301.381 311.6H297.941L295.781 324.32C295.728 324.747 295.701 325.053 295.701 325.24C295.701 326.333 296.288 326.88 297.461 326.88C297.941 326.88 298.461 326.653 299.021 326.2C299.608 325.72 300.061 325.067 300.381 324.24L301.261 324.72C300.274 327.173 298.461 328.4 295.821 328.4C293.208 328.4 291.901 327.307 291.901 325.12C291.901 324.773 291.941 324.4 292.021 324L294.101 311.6H291.301L291.501 310.4C293.048 310.4 294.394 309.827 295.541 308.68C296.714 307.507 297.421 306.147 297.661 304.6H299.101ZM315.141 304.76C315.141 305.48 314.888 306.107 314.381 306.64C313.901 307.173 313.315 307.44 312.621 307.44C312.088 307.44 311.648 307.267 311.301 306.92C310.955 306.547 310.781 306.08 310.781 305.52C310.781 304.8 311.021 304.173 311.501 303.64C311.981 303.08 312.568 302.8 313.261 302.8C313.795 302.8 314.235 302.987 314.581 303.36C314.955 303.733 315.141 304.2 315.141 304.76ZM310.021 312.84C309.781 312.813 309.475 312.787 309.101 312.76C308.728 312.733 308.421 312.707 308.181 312.68C307.941 312.653 307.728 312.64 307.541 312.64L307.701 311.72C308.208 311.72 309.248 311.44 310.821 310.88C312.395 310.293 313.488 310 314.101 310L311.101 328H307.501L310.021 312.84ZM323.468 320.96C323.468 323.067 323.894 324.64 324.748 325.68C325.628 326.693 326.841 327.2 328.388 327.2C330.254 327.2 331.761 326.2 332.908 324.2C334.081 322.173 334.668 319.8 334.668 317.08C334.668 313.187 332.974 311.24 329.588 311.24C327.774 311.24 326.294 312.227 325.148 314.2C324.028 316.173 323.468 318.427 323.468 320.96ZM327.668 328.4C325.054 328.4 323.054 327.733 321.668 326.4C320.281 325.067 319.588 323.253 319.588 320.96C319.588 317.76 320.534 315.133 322.428 313.08C324.321 311.027 327.001 310 330.468 310C333.161 310 335.174 310.627 336.508 311.88C337.868 313.133 338.548 314.88 338.548 317.12C338.548 320.373 337.601 323.067 335.708 325.2C333.814 327.333 331.134 328.4 327.668 328.4ZM350.783 312.92C352.383 310.947 354.503 309.96 357.143 309.96C360.556 309.96 362.263 311.373 362.263 314.2C362.263 314.653 362.223 315.147 362.143 315.68L360.783 323.76C360.729 324.187 360.703 324.48 360.703 324.64C360.703 325.413 360.876 326.013 361.223 326.44C361.596 326.867 362.103 327.08 362.743 327.08L362.583 328C360.716 328 359.316 327.76 358.383 327.28C357.476 326.8 357.023 326.027 357.023 324.96C357.023 324.8 357.049 324.533 357.103 324.16L358.583 315.4C358.636 315.133 358.663 314.747 358.663 314.24C358.663 312.32 357.636 311.36 355.583 311.36C353.689 311.36 351.969 312.627 350.423 315.16L348.263 328H344.663L347.183 312.84C346.943 312.813 346.636 312.787 346.263 312.76C345.889 312.733 345.583 312.707 345.343 312.68C345.103 312.653 344.889 312.64 344.703 312.64L344.863 311.72C345.369 311.72 346.409 311.44 347.983 310.88C349.556 310.293 350.649 310 351.263 310L350.783 312.92ZM372.302 305.64C370.648 305.507 369.808 305.44 369.782 305.44L369.942 304.52C370.448 304.52 371.488 304.24 373.062 303.68C374.635 303.093 375.728 302.8 376.342 302.8L372.862 323.76C372.808 324.187 372.782 324.48 372.782 324.64C372.782 325.413 372.955 326.013 373.302 326.44C373.675 326.867 374.182 327.08 374.822 327.08L374.662 328C372.795 328 371.395 327.76 370.462 327.28C369.555 326.8 369.102 326.027 369.102 324.96C369.102 324.8 369.128 324.533 369.182 324.16L372.302 305.64ZM386.311 314.56C386.311 315.147 386.111 315.6 385.711 315.92C385.311 316.24 384.831 316.4 384.271 316.4C383.844 316.4 383.498 316.267 383.231 316C382.964 315.707 382.831 315.333 382.831 314.88C382.831 313.333 383.511 312.133 384.871 311.28C386.258 310.427 388.031 310 390.191 310C392.324 310 393.898 310.48 394.911 311.44C395.924 312.373 396.431 313.627 396.431 315.2C396.431 315.52 396.378 316.027 396.271 316.72L395.111 323.76C395.058 324.187 395.031 324.48 395.031 324.64C395.031 325.413 395.204 326.013 395.551 326.44C395.924 326.867 396.431 327.08 397.071 327.08L396.911 328C394.271 328 392.578 327.507 391.831 326.52C389.964 327.773 387.831 328.4 385.431 328.4C381.911 328.4 380.151 327.16 380.151 324.68C380.151 323.987 380.284 323.36 380.551 322.8C380.844 322.213 381.258 321.733 381.791 321.36C382.324 320.96 382.884 320.613 383.471 320.32C384.084 320.027 384.804 319.773 385.631 319.56C386.458 319.32 387.218 319.12 387.911 318.96C388.604 318.8 389.391 318.627 390.271 318.44C391.178 318.253 391.911 318.08 392.471 317.92C392.658 316.613 392.751 315.64 392.751 315C392.751 313.853 392.458 312.973 391.871 312.36C391.284 311.747 390.511 311.44 389.551 311.44C387.178 311.44 385.711 312.08 385.151 313.36C385.924 313.36 386.311 313.76 386.311 314.56ZM392.311 318.8C391.964 318.907 391.364 319.067 390.511 319.28C389.684 319.493 389.031 319.68 388.551 319.84C388.098 319.973 387.524 320.2 386.831 320.52C386.164 320.813 385.644 321.133 385.271 321.48C384.898 321.827 384.564 322.28 384.271 322.84C384.004 323.4 383.871 324.04 383.871 324.76C383.871 326.28 384.698 327.04 386.351 327.04C388.191 327.04 389.884 326.587 391.431 325.68C391.378 325.413 391.351 325.187 391.351 325C391.351 324.813 391.378 324.533 391.431 324.16L392.311 318.8ZM409.808 312.92C411.408 310.947 413.528 309.96 416.168 309.96C419.581 309.96 421.288 311.373 421.288 314.2C421.288 314.653 421.248 315.147 421.168 315.68L419.808 323.76C419.754 324.187 419.728 324.48 419.728 324.64C419.728 325.413 419.901 326.013 420.248 326.44C420.621 326.867 421.128 327.08 421.768 327.08L421.608 328C419.741 328 418.341 327.76 417.408 327.28C416.501 326.8 416.048 326.027 416.048 324.96C416.048 324.8 416.074 324.533 416.128 324.16L417.608 315.4C417.661 315.133 417.688 314.747 417.688 314.24C417.688 312.32 416.661 311.36 414.608 311.36C412.714 311.36 410.994 312.627 409.448 315.16L407.288 328H403.688L406.208 312.84C405.968 312.813 405.661 312.787 405.288 312.76C404.914 312.733 404.608 312.707 404.368 312.68C404.128 312.653 403.914 312.64 403.728 312.64L403.888 311.72C404.394 311.72 405.434 311.44 407.008 310.88C408.581 310.293 409.674 310 410.288 310L409.808 312.92ZM442.326 310.8L443.206 305.64C441.552 305.507 440.712 305.44 440.686 305.44L440.846 304.52C441.352 304.52 442.392 304.24 443.966 303.68C445.539 303.093 446.632 302.8 447.246 302.8L443.766 323.76C443.712 324.187 443.686 324.48 443.686 324.64C443.686 325.413 443.859 326.013 444.206 326.44C444.579 326.867 445.086 327.08 445.726 327.08L445.566 328C442.792 328 441.072 327.493 440.406 326.48C438.859 327.76 436.912 328.4 434.566 328.4C433.819 328.4 433.072 328.28 432.326 328.04C431.579 327.827 430.846 327.467 430.126 326.96C429.432 326.453 428.859 325.72 428.406 324.76C427.979 323.8 427.766 322.667 427.766 321.36C427.766 317.787 428.806 314.973 430.886 312.92C432.992 310.867 435.552 309.84 438.566 309.84C440.086 309.84 441.339 310.16 442.326 310.8ZM440.086 325.56C440.032 325.293 440.006 325.067 440.006 324.88C440.006 324.72 440.032 324.48 440.086 324.16L442.126 312.08C441.219 311.493 440.032 311.2 438.566 311.2C436.992 311.2 435.446 312.08 433.926 313.84C432.432 315.573 431.686 317.787 431.686 320.48C431.686 322.053 432.006 323.547 432.646 324.96C433.312 326.347 434.166 327.04 435.206 327.04C437.152 327.04 438.779 326.547 440.086 325.56Z" fill="#282828"/>
<path fill-rule="evenodd" clip-rule="evenodd" d="M9.5 72L17.5 87V167.5L20 90L22 171L25 94.5L26 171L30 101L28.5 176.5L34 102.5L31 174.5L36.5 112L35 172.5L39 118.5L36.5 176.5L42 125L40 176.5L45 130.5V183L49 134.5V183L52.5 139.5L54 191L55.5 142L60.5 199V144.5L68 216L77 208.5L80 185.5L113.5 211L84.5 178.5L118 211L87 167.5L133.5 204.5L94 162.5L138 199L98 162L154 191L99.5 158L149.5 180.5L95 149.5L158 175.5L110.5 147L161 151L130 143.5L120.5 135.5L177.5 147L120.5 130L95 116L83 110.5L26 77.5H115L17.5 72H9.5Z" fill="#788878" fill-opacity="0.5"/>
<path d="M32 34L24 29L20 32.5L35 72L30.5 85.5L26.5 102.5C28.3333 105 36 113.1 52 125.5C68 137.9 81.6667 130.667 86.5 125.5L97 123L88.5 120.5V116.5L85 105.5L79 102.5L47.5 67L43.5 42.5L39 29L32 34Z" fill="#9B9B9B"/>
<path d="M210.796 65L197.117 42.7042V29.0527H202.589L218.723 55.5124H216.829L231.98 29.0527H232.822V41.4392L219.354 65H210.796ZM184 65V60.0981H189.401V33.9019H184.07V29.0527H197.117V60.0981H203.08V65H184ZM226.93 65V60.0981H232.822V29.0527H251.201V33.9019H245.869V60.0981H251.271V65H226.93Z" fill="#282828"/>
<path d="M260.148 65V60.0981H264.708L281.964 29H293.818L311.075 60.0981H315.564V65H289.89V60.0981H296.765L283.016 34.5344H287.154L273.055 60.0981H279.929V65H260.148ZM274.037 54.7218V49.7145H296.274V54.7218H274.037Z" fill="#282828"/>
<path d="M324.191 65V60.0981H330.083V33.9019H324.331V29.0527H349.233V33.9019H343.411V60.0981H349.373V65H324.191Z" fill="#282828"/>
<path d="M399.162 65L372.717 42.0717L375.172 29.0527L399.232 49.9253L399.162 65ZM359.6 65V60.0981H365.001V33.9019H359.67V29.0527H375.172L372.717 42.0717V60.0981H378.679V65H359.6ZM399.162 65L398.882 49.9253H399.232V33.9019H393.41V29.0527H412.069V33.9019H406.949V65H399.162Z" fill="#282828"/>
<path d="M420.896 65V60.0981H426.297V33.9019H420.966V29.0527H439.625V65H420.896ZM439.625 65V59.8346H466V65H439.625ZM447.131 54.511C447.131 52.6135 446.616 51.2255 445.587 50.347C444.558 49.4685 442.898 49.0293 440.607 49.0293H453.514V56.5139H447.131V54.511ZM439.625 49.0293V43.9693H453.514V49.0293H439.625ZM452.111 59.8346C454.683 59.8346 456.483 59.3953 457.512 58.5168C458.588 57.6032 459.126 56.1274 459.126 54.0893V51.3485H466V59.8346H452.111ZM440.607 43.9693C442.898 43.9693 444.558 43.5476 445.587 42.7042C446.616 41.8258 447.131 40.4202 447.131 38.4876V37.4334H453.514V43.9693H440.607ZM439.625 34.1127V29.0527H465.509V34.1127H439.625ZM458.564 39.9634C458.564 37.8902 458.027 36.3968 456.951 35.4832C455.875 34.5695 454.075 34.1127 451.55 34.1127H465.509V42.2299H458.564V39.9634Z" fill="#282828"/>
</svg>
