<svg width="649" height="351" viewBox="0 0 649 351" fill="none" xmlns="http://www.w3.org/2000/svg">
<rect y="3" width="649" height="348" rx="41" fill="#F4F4F4"/>
<path d="M267.097 51.0967V53.4551C264.932 55.4831 263.086 57.1237 261.56 58.377C260.056 59.6074 258.552 60.724 257.048 61.7266C255.544 62.7064 254.291 63.4014 253.288 63.8115C252.308 64.2445 251.465 64.4609 250.759 64.4609C249.073 64.4609 247.694 63.8343 246.623 62.5811C245.552 61.3278 245.017 59.71 245.017 57.7275C245.017 55.4489 245.472 53.193 246.384 50.96C247.318 48.7269 248.64 46.4255 250.349 44.0557C252.058 41.6631 254.2 38.9857 256.774 36.0234C258.688 33.8359 259.646 32.6055 259.646 32.332C259.646 32.1725 259.589 32.0358 259.475 31.9219C259.361 31.8079 259.235 31.751 259.099 31.751C258.666 31.751 257.333 32.708 255.1 34.6221C252.867 36.5361 249.995 39.3503 246.486 43.0645C243 46.7786 239.229 51.1992 235.173 56.3262C234.945 56.5996 234.216 57.5339 232.985 59.1289C231.778 60.7012 230.923 61.7266 230.422 62.2051C229.921 62.6836 229.488 62.9229 229.123 62.9229C228.485 62.9229 227.927 62.2848 227.448 61.0088C226.993 59.71 226.765 58.3314 226.765 56.873C226.765 55.9844 227.049 55.0273 227.619 54.002C228.212 52.9766 229.476 51.1423 231.413 48.499C233.373 45.833 234.991 43.5885 236.267 41.7656C237.543 39.9427 238.944 37.7324 240.471 35.1348C241.542 33.3346 242.328 31.8991 242.829 30.8281C243.353 29.7572 243.615 28.8115 243.615 27.9912C243.615 27.2848 243.41 26.9316 243 26.9316C242.134 26.9316 240.505 28.0938 238.112 30.418C235.72 32.7194 232.757 36.1488 229.226 40.7061C225.716 45.2633 222.048 50.5384 218.22 56.5312C216.966 58.582 216.078 59.9606 215.554 60.667C215.03 61.3734 214.449 61.7266 213.811 61.7266C213.013 61.7266 212.261 60.8835 211.555 59.1973C210.871 57.4883 210.529 56.1097 210.529 55.0615C210.529 54.7197 210.666 54.3438 210.939 53.9336C213.947 49.9232 216.42 46.5166 218.356 43.7139C220.293 40.9111 222.014 38.2565 223.518 35.75C225.021 33.2207 226.115 31.1471 226.799 29.5293C227.482 27.8887 227.824 26.6012 227.824 25.667C227.824 24.6872 227.38 24.1973 226.491 24.1973C225.762 24.1973 224.52 24.6644 222.766 25.5986C221.011 26.5329 218.789 27.8089 216.101 29.4268C213.435 31.0446 211.293 32.2865 209.675 33.1523C208.057 33.9954 206.849 34.417 206.052 34.417C205.3 34.417 204.924 33.9954 204.924 33.1523C204.924 32.6738 205.083 31.5801 205.402 29.8711C205.721 28.1393 206.052 26.9202 206.394 26.2139C206.872 25.3024 208.091 24.0947 210.051 22.5908C212.033 21.0869 213.127 20.335 213.332 20.335C213.514 20.335 213.605 20.4147 213.605 20.5742C213.605 20.6654 213.514 20.8021 213.332 20.9844C212.398 21.7363 211.703 22.3516 211.247 22.8301C210.791 23.3086 210.507 23.8327 210.393 24.4023C214.562 21.8958 218.288 19.9932 221.569 18.6943C224.873 17.3727 227.163 16.7119 228.439 16.7119C229.077 16.7119 229.681 17.1449 230.251 18.0107C230.821 18.8538 231.299 19.8451 231.687 20.9844C232.097 22.1009 232.302 22.8187 232.302 23.1377C232.302 24.2998 232.006 25.6784 231.413 27.2734C230.821 28.8457 230.012 30.68 228.986 32.7764C227.984 34.8727 226.73 37.4932 225.227 40.6377C226.411 39.111 227.539 37.6982 228.61 36.3994C229.681 35.1006 230.741 33.8359 231.789 32.6055C232.86 31.375 233.942 30.1331 235.036 28.8799C236.517 27.1709 238.181 25.5417 240.026 23.9922C241.872 22.4199 243.592 21.1439 245.188 20.1641C246.805 19.1615 247.899 18.6602 248.469 18.6602C249.266 18.6602 249.973 19.1045 250.588 19.9932C251.226 20.859 251.545 21.7933 251.545 22.7959C251.545 23.4567 251.112 24.7214 250.246 26.5898C249.38 28.4583 248.116 30.8509 246.452 33.7676C244.789 36.6842 242.59 40.444 239.855 45.0469C242.453 42.2897 245.153 39.4528 247.956 36.5361C250.759 33.6195 252.844 31.4889 254.211 30.1445C255.578 28.8001 256.717 27.7747 257.629 27.0684C258.882 26.1113 260.135 25.0859 261.389 23.9922C262.665 22.8757 263.667 21.9984 264.396 21.3604C265.126 20.7223 265.775 20.2324 266.345 19.8906C266.914 19.5488 267.438 19.3779 267.917 19.3779C268.509 19.3779 269.25 20.0615 270.139 21.4287C271.05 22.7959 271.506 23.6732 271.506 24.0605C271.506 24.5391 271.232 25.1087 270.686 25.7695C270.161 26.4303 269.056 27.6608 267.37 29.4609C264.271 32.7878 261.582 36.1488 259.304 39.5439C257.025 42.9163 255.293 46.0039 254.108 48.8066C252.946 51.5866 252.365 53.7855 252.365 55.4033C252.365 56.4059 252.548 57.1351 252.912 57.5908C253.299 58.0465 253.892 58.2744 254.689 58.2744C255.419 58.2744 256.091 58.1377 256.706 57.8643C257.344 57.5908 258.039 57.2035 258.791 56.7021C259.566 56.2008 260.295 55.7223 260.979 55.2666C261.936 54.6969 262.87 54.0931 263.781 53.4551C264.715 52.7943 265.433 52.2816 265.935 51.917C266.459 51.5296 266.846 51.2562 267.097 51.0967ZM270.856 45.1152C274.32 41.9707 277.681 39.6351 280.939 38.1084C284.198 36.5817 286.716 35.8184 288.493 35.8184C288.972 35.8184 289.416 36.0234 289.826 36.4336C290.236 36.821 290.555 37.2767 290.783 37.8008C291.034 38.3249 291.159 38.7122 291.159 38.9629C291.159 39.373 291 39.6807 290.681 39.8857C290.362 40.068 289.803 40.2959 289.006 40.5693C289.165 40.9339 289.37 41.401 289.621 41.9707C289.872 42.5404 290.065 43.0075 290.202 43.3721C290.339 43.7139 290.407 44.0215 290.407 44.2949C290.407 44.8418 289.849 45.8672 288.732 47.3711C287.639 48.8522 286.864 49.946 286.408 50.6523C285.975 51.3587 285.759 52.2246 285.759 53.25C285.759 54.9362 286.534 55.7793 288.083 55.7793C289.678 55.7793 292.173 54.2868 295.568 51.3018V53.3867C289.803 59.7897 285.679 62.9912 283.195 62.9912C282.307 62.9912 281.669 62.695 281.281 62.1025C280.917 61.5329 280.734 60.6784 280.734 59.5391C280.734 57.7389 281.384 55.1299 282.683 51.7119C279.356 55.4033 276.883 58.0352 275.266 59.6074C273.648 61.1569 272.315 61.9316 271.267 61.9316C270.765 61.9316 270.139 61.4987 269.387 60.6328C268.635 59.7669 267.963 58.6504 267.37 57.2832C266.8 55.8932 266.516 54.4577 266.516 52.9766C266.516 51.9056 266.618 51.0169 266.823 50.3105C267.028 49.5814 267.427 48.8408 268.02 48.0889C268.612 47.3369 269.558 46.3457 270.856 45.1152ZM287.229 41.3555C281.304 44.0671 277.077 46.3685 274.548 48.2598C272.041 50.151 270.788 52.0993 270.788 54.1045C270.788 54.8337 270.913 55.4375 271.164 55.916C271.415 56.3717 271.757 56.5996 272.189 56.5996C272.44 56.5996 272.884 56.4401 273.522 56.1211C275.915 54.7083 278.103 52.874 280.085 50.6182C282.067 48.3395 284.449 45.252 287.229 41.3555ZM294.953 53.8652V51.6436C296.184 50.1852 297.118 48.9434 297.756 47.918C297.027 47.6673 296.491 47.3597 296.149 46.9951C295.83 46.6305 295.671 46.0837 295.671 45.3545C295.671 44.5342 296.013 43.4974 296.696 42.2441C297.38 40.9909 298.223 39.8174 299.226 38.7236C300.228 37.6299 301.14 36.9235 301.96 36.6045C302.279 36.445 302.587 36.3652 302.883 36.3652C303.339 36.3652 303.566 36.5817 303.566 37.0146C303.566 37.402 303.213 38.1882 302.507 39.373C307.201 38.6439 310.163 38.2793 311.394 38.2793C311.872 38.2793 312.202 38.3249 312.385 38.416C312.772 38.6211 313.091 39.0996 313.342 39.8516C313.592 40.6035 313.718 41.3555 313.718 42.1074C313.718 42.5859 313.501 43.11 313.068 43.6797C312.658 44.2266 311.94 45.0355 310.915 46.1064C309.707 47.4053 308.693 48.818 307.873 50.3447C307.053 51.8714 306.643 53.0221 306.643 53.7969C306.643 54.8678 307.303 55.4033 308.625 55.4033C310.015 55.4033 312.43 53.9906 315.871 51.165V53.4551C313.98 55.4375 312.419 56.9984 311.188 58.1377C309.958 59.277 308.819 60.1885 307.771 60.8721C306.722 61.5329 305.788 61.8633 304.968 61.8633C304.011 61.8633 303.213 61.4303 302.575 60.5645C301.937 59.6758 301.618 58.3997 301.618 56.7363C301.618 55.7565 301.869 54.64 302.37 53.3867C302.871 52.1335 303.601 50.7777 304.558 49.3193C305.537 47.8382 306.631 46.3685 307.839 44.9102C307.201 45.0469 306.483 45.195 305.686 45.3545C304.888 45.4912 304.045 45.6393 303.156 45.7988C302.268 45.9583 301.584 46.0837 301.105 46.1748C299.693 49.0003 297.642 51.5638 294.953 53.8652ZM331.491 52.5664L325.407 57.7275C322.513 60.2568 320.576 61.5215 319.597 61.5215C318.708 61.5215 317.774 60.5075 316.794 58.4795C315.814 56.4287 315.324 54.64 315.324 53.1133C315.324 51.8145 315.518 50.7207 315.905 49.832C316.315 48.9206 317.01 47.7471 317.99 46.3115C319.38 44.3747 320.713 42.734 321.989 41.3896C323.265 40.0452 324.393 39.0085 325.373 38.2793C326.353 37.5273 327.036 37.1514 327.424 37.1514C328.039 37.1514 328.632 37.4704 329.201 38.1084C329.794 38.7464 330.09 39.4072 330.09 40.0908C330.09 40.5238 329.771 41.2188 329.133 42.1758C328.518 43.1328 327.526 44.3519 326.159 45.833C324.815 47.2913 322.935 49.0459 320.52 51.0967L319.87 52.9766C319.688 53.3411 319.597 53.6602 319.597 53.9336C319.597 54.5488 319.904 54.8564 320.52 54.8564C321.158 54.8564 322.65 54.0475 324.997 52.4297C327.367 50.8118 329.93 48.6357 332.688 45.9014C333.758 44.8304 334.647 43.8848 335.354 43.0645C336.06 42.2441 336.698 41.4808 337.268 40.7744C337.837 40.0452 338.304 39.4984 338.669 39.1338C339.056 38.7692 339.398 38.5755 339.694 38.5527C340.264 38.4844 340.708 38.7236 341.027 39.2705C341.346 39.8174 341.506 40.6263 341.506 41.6973C341.506 42.3125 341.232 43.0872 340.686 44.0215C340.139 44.9329 339.113 46.5052 337.609 48.7383C336.105 50.9486 334.602 53.25 333.098 55.6426C331.617 58.0124 330.101 60.6898 328.552 63.6748C328.62 63.6064 329.315 62.9229 330.637 61.624C331.981 60.3252 333.394 58.9694 334.875 57.5566C336.356 56.1439 337.575 55.016 338.532 54.1729C339.489 53.307 340.686 52.3044 342.121 51.165V53.4551C339.045 56.7591 336.254 59.8923 333.747 62.8545C331.263 65.8167 329.338 68.1865 327.971 69.9639C326.626 71.7412 325.84 72.778 325.612 73.0742C324.997 73.8717 324.439 74.6123 323.938 75.2959C323.459 76.0023 323.049 76.5378 322.707 76.9023C322.388 77.2897 322.126 77.4834 321.921 77.4834C321.442 77.4834 321.009 77.0049 320.622 76.0479C320.257 75.1136 320.075 74.2819 320.075 73.5527C320.075 72.8919 320.201 72.3109 320.451 71.8096C322.092 68.1182 325.772 61.7038 331.491 52.5664ZM358.322 50.8574V53.3867C353.56 59.6986 349.686 62.8545 346.701 62.8545C345.083 62.8545 343.807 61.9772 342.873 60.2227C341.962 58.4453 341.506 56.1211 341.506 53.25C341.506 50.9258 342.053 48.1686 343.146 44.9785C344.24 41.7656 345.699 38.5186 347.521 35.2373C349.367 31.9333 351.27 29.0622 353.229 26.624C355.212 24.1631 357.046 22.4427 358.732 21.4629C359.416 21.0527 359.951 20.8477 360.339 20.8477C360.817 20.8477 361.136 21.0641 361.296 21.4971C361.455 21.9072 361.535 22.625 361.535 23.6504C361.535 26.8177 360.248 30.7142 357.673 35.3398C355.098 39.9427 351.509 44.6481 346.906 49.4561C346.678 50.641 346.564 51.5524 346.564 52.1904C346.564 53.6488 346.872 54.8337 347.487 55.7451C348.125 56.6566 349.003 57.1123 350.119 57.1123C350.689 57.1123 351.304 56.8958 351.965 56.4629C352.626 56.0072 353.321 55.4489 354.05 54.7881C354.779 54.1273 356.203 52.8171 358.322 50.8574ZM348.103 44.7051C349.287 43.543 350.427 42.2214 351.521 40.7402C352.637 39.2591 353.685 37.6755 354.665 35.9893C355.645 34.3031 356.408 32.7878 356.955 31.4434C357.525 30.099 357.81 29.085 357.81 28.4014C357.81 27.8773 357.627 27.6152 357.263 27.6152C357.126 27.6152 356.864 27.7406 356.477 27.9912C355.087 29.1305 353.526 31.3636 351.794 34.6904C350.062 37.9945 348.832 41.3327 348.103 44.7051ZM362.048 45.1152C365.511 41.9707 368.872 39.6351 372.131 38.1084C375.389 36.5817 377.907 35.8184 379.685 35.8184C380.163 35.8184 380.607 36.0234 381.018 36.4336C381.428 36.821 381.747 37.2767 381.975 37.8008C382.225 38.3249 382.351 38.7122 382.351 38.9629C382.351 39.373 382.191 39.6807 381.872 39.8857C381.553 40.068 380.995 40.2959 380.197 40.5693C380.357 40.9339 380.562 41.401 380.812 41.9707C381.063 42.5404 381.257 43.0075 381.394 43.3721C381.53 43.7139 381.599 44.0215 381.599 44.2949C381.599 44.8418 381.04 45.8672 379.924 47.3711C378.83 48.8522 378.055 49.946 377.6 50.6523C377.167 51.3587 376.95 52.2246 376.95 53.25C376.95 54.9362 377.725 55.7793 379.274 55.7793C380.869 55.7793 383.365 54.2868 386.76 51.3018V53.3867C380.995 59.7897 376.87 62.9912 374.387 62.9912C373.498 62.9912 372.86 62.695 372.473 62.1025C372.108 61.5329 371.926 60.6784 371.926 59.5391C371.926 57.7389 372.575 55.1299 373.874 51.7119C370.547 55.4033 368.075 58.0352 366.457 59.6074C364.839 61.1569 363.506 61.9316 362.458 61.9316C361.957 61.9316 361.33 61.4987 360.578 60.6328C359.826 59.7669 359.154 58.6504 358.562 57.2832C357.992 55.8932 357.707 54.4577 357.707 52.9766C357.707 51.9056 357.81 51.0169 358.015 50.3105C358.22 49.5814 358.618 48.8408 359.211 48.0889C359.803 47.3369 360.749 46.3457 362.048 45.1152ZM378.42 41.3555C372.495 44.0671 368.269 46.3685 365.739 48.2598C363.233 50.151 361.979 52.0993 361.979 54.1045C361.979 54.8337 362.105 55.4375 362.355 55.916C362.606 56.3717 362.948 56.5996 363.381 56.5996C363.632 56.5996 364.076 56.4401 364.714 56.1211C367.106 54.7083 369.294 52.874 371.276 50.6182C373.259 48.3395 375.64 45.252 378.42 41.3555ZM409.523 45.0469C405.513 49.513 403.508 52.6234 403.508 54.3779C403.508 55.3577 403.907 55.8477 404.704 55.8477C405.365 55.8477 406.219 55.5059 407.268 54.8223C408.339 54.1159 410.002 52.874 412.258 51.0967V53.4551C409.022 56.6452 406.538 58.9466 404.807 60.3594C403.075 61.7721 401.662 62.4785 400.568 62.4785C398.7 62.4785 397.766 61.248 397.766 58.7871C397.766 58.0579 397.88 57.3402 398.107 56.6338C398.335 55.9274 398.643 55.1982 399.03 54.4463C399.44 53.6715 400.056 52.5778 400.876 51.165C401.696 49.7295 402.642 48.1117 403.713 46.3115C402.414 46.9723 400.785 48.2826 398.825 50.2422C397.549 51.4727 396.467 52.6462 395.578 53.7627C394.689 54.8564 393.732 56.0869 392.707 57.4541C391.704 58.7985 390.964 59.71 390.485 60.1885C390.03 60.6442 389.562 60.8721 389.084 60.8721C388.355 60.8721 387.683 60.1087 387.067 58.582C386.452 57.0553 386.145 55.278 386.145 53.25C386.145 51.9967 386.281 51.0169 386.555 50.3105C386.851 49.6042 387.421 48.6016 388.264 47.3027C389.836 44.8874 391.192 43.1214 392.331 42.0049C393.47 40.8656 394.564 40.2959 395.612 40.2959C396.341 40.2959 396.923 40.4212 397.355 40.6719C397.811 40.9225 398.039 41.3099 398.039 41.834C398.039 42.0618 397.971 42.3011 397.834 42.5518C397.697 42.8024 397.538 43.0303 397.355 43.2354C397.196 43.4404 396.843 43.8392 396.296 44.4316C392.696 48.4193 390.896 51.0055 390.896 52.1904C390.896 52.8512 391.112 53.1816 391.545 53.1816C391.818 53.1816 392.342 52.7487 393.117 51.8828C393.915 50.9941 394.929 49.8434 396.159 48.4307C397.412 46.9951 398.882 45.5026 400.568 43.9531C402.277 42.4036 404.214 40.9111 406.379 39.4756C407.587 38.6325 408.589 38.2109 409.387 38.2109C409.751 38.2109 410.104 38.7122 410.446 39.7148C410.811 40.7174 410.993 41.7314 410.993 42.7568C410.993 43.2581 410.503 44.0215 409.523 45.0469ZM427.673 51.3018C425.668 53.5804 423.868 55.5173 422.272 57.1123C420.7 58.7074 419.413 59.9036 418.41 60.7012C417.43 61.4759 416.758 61.8633 416.394 61.8633C415.801 61.8633 415.129 61.3848 414.377 60.4277C413.648 59.4707 413.021 58.2516 412.497 56.7705C411.973 55.2894 411.711 53.7855 411.711 52.2588C411.711 50.0485 412.782 47.8268 414.924 45.5938C417.066 43.3379 419.504 41.4694 422.238 39.9883C424.973 38.5072 427.023 37.7666 428.391 37.7666C429.507 37.7666 430.601 38.473 431.672 39.8857C433.426 36.2171 435.09 32.9587 436.662 30.1104C438.257 27.262 439.59 25.1429 440.661 23.7529C441.732 22.363 442.495 21.668 442.951 21.668C443.452 21.668 443.908 21.9186 444.318 22.4199C444.751 22.8984 444.968 23.4453 444.968 24.0605C444.968 25.2454 444.102 27.2848 442.37 30.1787C440.638 33.0498 438.929 35.8525 437.243 38.5869C435.557 41.3213 434.11 44.0215 432.902 46.6875C431.695 49.3307 431.091 51.7803 431.091 54.0361C431.091 56.0869 431.752 57.1123 433.073 57.1123C433.871 57.1123 434.873 56.668 436.081 55.7793C437.289 54.8678 439.009 53.3525 441.242 51.2334V53.7285C436.32 60.0859 432.526 63.2646 429.86 63.2646C428.789 63.2646 428.015 62.8545 427.536 62.0342C427.08 61.2139 426.853 59.9948 426.853 58.377C426.853 56.1895 427.126 53.8311 427.673 51.3018ZM430.202 42.9619C428.174 43.6455 425.793 44.7507 423.059 46.2773C420.324 47.7812 418.672 48.818 418.103 49.3877C417.601 49.8434 417.157 50.6979 416.77 51.9512C416.382 53.2044 416.188 54.1501 416.188 54.7881C416.188 55.1755 416.302 55.4945 416.53 55.7451C416.758 55.9958 417.043 56.1211 417.385 56.1211C417.704 56.1211 418.068 55.9844 418.479 55.7109C418.889 55.4375 419.538 54.902 420.427 54.1045C421.338 53.307 421.931 52.7943 422.204 52.5664C422.591 52.2246 423.446 51.4954 424.768 50.3789C426.112 49.2396 427.092 48.3509 427.707 47.7129C428.322 47.0749 428.846 46.3685 429.279 45.5938C429.712 44.7962 430.02 43.9189 430.202 42.9619Z" fill="#B65265"/>
<g opacity="0.6">
<mask id="mask0_1055_461" style="mask-type:alpha" maskUnits="userSpaceOnUse" x="0" y="3" width="649" height="348">
<rect y="3" width="649" height="348" rx="41" fill="#F4F4F4"/>
</mask>
<g mask="url(#mask0_1055_461)">
<path d="M-62 86H685V550H-62V86Z" fill="black"/>
<path d="M-62 550V124.667L0.25 163.333V550H62.5V86H124.75V550H187V86H249.25V550H311.5V86H373.75V550H436V86H498.25V550H560.5V86H622.75V550H685V511.333L0.25 86V163.333L622.75 550H-62Z" fill="#EAAA00"/>
<path d="M311.5 86H498.25V318H685V202H311.5V86Z" fill="white"/>
<path d="M498.25 86H685V202H311.5V318H498.25V86Z" fill="#9D2235"/>
<path d="M498.25 301.76C502.476 301.76 506.53 300.196 509.518 297.411C512.507 294.627 514.186 290.85 514.186 286.912V279.488H529.624C533.851 279.488 537.904 277.924 540.892 275.139C543.881 272.355 545.56 268.578 545.56 264.64C545.56 260.702 543.881 256.925 540.892 254.141C537.904 251.356 533.851 249.792 529.624 249.792H514.186V216.848H613.288V231.232C613.288 235.17 614.967 238.947 617.956 241.731C620.944 244.516 624.998 246.08 629.224 246.08C633.45 246.08 637.504 244.516 640.492 241.731C643.481 238.947 645.16 235.17 645.16 231.232V216.848H659.104C663.33 216.848 667.384 215.284 670.372 212.499C673.361 209.715 675.04 205.938 675.04 202H498.25V301.76Z" fill="#9D2235"/>
<path d="M498.25 301.76C494.024 301.76 489.97 300.196 486.982 297.411C483.993 294.627 482.314 290.85 482.314 286.912V279.488H466.876C462.649 279.488 458.596 277.924 455.608 275.139C452.619 272.355 450.94 268.578 450.94 264.64C450.94 260.702 452.619 256.925 455.608 254.141C458.596 251.356 462.649 249.792 466.876 249.792H482.314V216.848H383.212V231.232C383.212 235.17 381.533 238.947 378.544 241.731C375.556 244.516 371.502 246.08 367.276 246.08C363.05 246.08 358.996 244.516 356.008 241.731C353.019 238.947 351.34 235.17 351.34 231.232V216.848H337.396C333.17 216.848 329.116 215.284 326.128 212.499C323.139 209.715 321.46 205.938 321.46 202H498.25V301.76Z" fill="white"/>
<path d="M498.25 102.24C502.476 102.24 506.53 103.804 509.518 106.589C512.507 109.373 514.186 113.15 514.186 117.088V124.512H529.624C533.851 124.512 537.904 126.076 540.892 128.861C543.881 131.645 545.56 135.422 545.56 139.36C545.56 143.298 543.881 147.075 540.892 149.859C537.904 152.644 533.851 154.208 529.624 154.208H514.186V187.152H613.288V172.768C613.288 168.83 614.967 165.053 617.956 162.269C620.944 159.484 624.998 157.92 629.224 157.92C633.45 157.92 637.504 159.484 640.492 162.269C643.481 165.053 645.16 168.83 645.16 172.768V187.152H659.104C663.33 187.152 667.384 188.716 670.372 191.501C673.361 194.285 675.04 198.062 675.04 202H498.25V102.24Z" fill="white"/>
<path d="M498.25 102.24C494.024 102.24 489.97 103.804 486.982 106.589C483.993 109.373 482.314 113.15 482.314 117.088V124.512H466.876C462.649 124.512 458.596 126.076 455.608 128.861C452.619 131.645 450.94 135.422 450.94 139.36C450.94 143.298 452.619 147.075 455.608 149.859C458.596 152.644 462.649 154.208 466.876 154.208H482.314V187.152H383.212V172.768C383.212 168.83 381.533 165.053 378.544 162.269C375.556 159.484 371.502 157.92 367.276 157.92C363.05 157.92 358.996 159.484 356.008 162.269C353.019 165.053 351.34 168.83 351.34 172.768V187.152H337.396C333.17 187.152 329.116 188.716 326.128 191.501C323.139 194.285 321.46 198.062 321.46 202H498.25V102.24Z" fill="#9D2235"/>
<path d="M-62 318H124.75V550H311.5V434H-62V318Z" fill="white"/>
<path d="M124.75 318H311.5V434H-62V550H124.75V318Z" fill="#9D2235"/>
<path d="M124.75 533.76C128.976 533.76 133.03 532.196 136.018 529.411C139.007 526.627 140.686 522.85 140.686 518.912V511.488H156.124C160.35 511.488 164.404 509.924 167.392 507.139C170.381 504.355 172.06 500.578 172.06 496.64C172.06 492.702 170.381 488.925 167.392 486.141C164.404 483.356 160.35 481.792 156.124 481.792H140.686V448.848H239.788V463.232C239.788 467.17 241.467 470.947 244.456 473.731C247.444 476.516 251.498 478.08 255.724 478.08C259.95 478.08 264.004 476.516 266.992 473.731C269.981 470.947 271.66 467.17 271.66 463.232V448.848H285.604C289.83 448.848 293.884 447.284 296.872 444.499C299.861 441.715 301.54 437.938 301.54 434H124.75V533.76Z" fill="#9D2235"/>
<path d="M124.75 533.76C120.523 533.76 116.47 532.196 113.482 529.411C110.493 526.627 108.814 522.85 108.814 518.912V511.488H93.376C89.1495 511.488 85.0961 509.924 82.1075 507.139C79.1189 504.355 77.44 500.578 77.44 496.64C77.44 492.702 79.1189 488.925 82.1075 486.141C85.0961 483.356 89.1495 481.792 93.376 481.792H108.814V448.848H9.71198V463.232C9.71198 467.17 8.03301 470.947 5.04443 473.731C2.05585 476.516 -1.99754 478.08 -6.22403 478.08C-10.4505 478.08 -14.5039 476.516 -17.4925 473.731C-20.4811 470.947 -22.16 467.17 -22.16 463.232V448.848H-36.104C-40.3305 448.848 -44.3839 447.284 -47.3725 444.499C-50.3611 441.715 -52.04 437.938 -52.04 434H124.75V533.76Z" fill="white"/>
<path d="M124.75 334.24C128.976 334.24 133.03 335.804 136.018 338.589C139.007 341.373 140.686 345.15 140.686 349.088V356.512H156.124C160.35 356.512 164.404 358.076 167.392 360.861C170.381 363.645 172.06 367.422 172.06 371.36C172.06 375.298 170.381 379.075 167.392 381.859C164.404 384.644 160.35 386.208 156.124 386.208H140.686V419.152H239.788V404.768C239.788 400.83 241.467 397.053 244.456 394.269C247.444 391.484 251.498 389.92 255.724 389.92C259.95 389.92 264.004 391.484 266.992 394.269C269.981 397.053 271.66 400.83 271.66 404.768V419.152H285.604C289.83 419.152 293.884 420.716 296.872 423.501C299.861 426.285 301.54 430.062 301.54 434H124.75V334.24Z" fill="white"/>
<path d="M124.75 334.24C120.523 334.24 116.47 335.804 113.482 338.589C110.493 341.373 108.814 345.15 108.814 349.088V356.512H93.376C89.1495 356.512 85.0961 358.076 82.1075 360.861C79.1189 363.645 77.44 367.422 77.44 371.36C77.44 375.298 79.1189 379.075 82.1075 381.859C85.0961 384.644 89.1495 386.208 93.376 386.208H108.814V419.152H9.71198V404.768C9.71198 400.83 8.03301 397.053 5.04443 394.269C2.05585 391.484 -1.99754 389.92 -6.22403 389.92C-10.4505 389.92 -14.5039 391.484 -17.4925 394.269C-20.4811 397.053 -22.16 400.83 -22.16 404.768V419.152H-36.104C-40.3305 419.152 -44.3839 420.716 -47.3725 423.501C-50.3611 426.285 -52.04 430.062 -52.04 434H124.75V334.24Z" fill="#9D2235"/>
</g>
</g>
<rect y="86" width="649" height="265" fill="url(#paint0_linear_1055_461)"/>
<defs>
<linearGradient id="paint0_linear_1055_461" x1="324.5" y1="86" x2="325.759" y2="316.879" gradientUnits="userSpaceOnUse">
<stop offset="0.703125" stop-color="#F4F4F4"/>
<stop offset="1" stop-color="#D9D9D9" stop-opacity="0"/>
</linearGradient>
</defs>
</svg>
