<svg width="649" height="348" viewBox="0 0 649 348" fill="none" xmlns="http://www.w3.org/2000/svg">
<rect width="649" height="348" rx="41" fill="#F4F4F4"/>
<path d="M209.515 22.75C210.772 22.75 211.963 22.7283 213.09 22.685C214.26 22.5983 215.582 22.4683 217.055 22.295C217.185 22.7717 217.25 23.1617 217.25 23.465C217.25 24.1583 216.795 24.5917 215.885 24.765C215.018 24.9817 214.347 25.2417 213.87 25.545C213.393 25.805 213.112 26.3033 213.025 27.04L208.085 60.45C207.955 61.2733 208.128 61.88 208.605 62.27C209.082 62.6167 209.753 62.8767 210.62 63.05C211.097 63.1367 211.465 63.2667 211.725 63.44C211.985 63.6133 212.115 63.895 212.115 64.285C212.115 64.5883 212.05 64.9567 211.92 65.39C210.317 65.26 208.757 65.1517 207.24 65.065C205.723 65.0217 204.445 65 203.405 65C202.495 65 201.347 65.0433 199.96 65.13C198.573 65.2167 197.143 65.325 195.67 65.455C195.583 65.195 195.518 64.9783 195.475 64.805C195.432 64.5883 195.41 64.3933 195.41 64.22C195.41 63.57 195.887 63.18 196.84 63.05C198.01 62.92 198.855 62.66 199.375 62.27C199.938 61.8367 200.285 61.2083 200.415 60.385L204.51 33.735L187.935 64.35C187.675 64.8267 187.393 65.1733 187.09 65.39C186.83 65.65 186.462 65.78 185.985 65.78C185.552 65.78 185.183 65.7367 184.88 65.65C184.62 65.5633 184.382 65.455 184.165 65.325L176.495 32.24L169.995 60.06C169.778 60.9267 169.93 61.5983 170.45 62.075C170.97 62.5083 171.988 62.8333 173.505 63.05C174.155 63.1367 174.588 63.2883 174.805 63.505C175.065 63.6783 175.195 63.9383 175.195 64.285C175.195 64.545 175.13 64.935 175 65.455C173.397 65.325 172.032 65.2167 170.905 65.13C169.822 65.0433 168.868 65 168.045 65C167.308 65 166.398 65.0217 165.315 65.065C164.275 65.1517 163.062 65.2817 161.675 65.455C161.588 65.2383 161.523 65.0433 161.48 64.87C161.437 64.6533 161.415 64.4583 161.415 64.285C161.415 63.9817 161.523 63.7433 161.74 63.57C161.913 63.3967 162.26 63.2667 162.78 63.18C164.817 62.8333 166.03 61.9017 166.42 60.385L174.35 26.91C174.48 26.4333 174.415 26 174.155 25.61C173.938 25.22 173.288 24.9167 172.205 24.7C171.685 24.6133 171.317 24.4833 171.1 24.31C170.927 24.1367 170.84 23.8767 170.84 23.53C170.84 23.2267 170.905 22.815 171.035 22.295C171.815 22.3817 172.552 22.4683 173.245 22.555C173.938 22.5983 174.61 22.6417 175.26 22.685C175.953 22.685 176.668 22.7067 177.405 22.75C178.142 22.75 178.965 22.75 179.875 22.75C180.785 22.75 181.413 22.9233 181.76 23.27C182.15 23.5733 182.388 23.985 182.475 24.505L189.17 55.185L205.225 24.96C205.442 24.5267 205.658 24.18 205.875 23.92C206.092 23.6167 206.352 23.3783 206.655 23.205C206.958 23.0317 207.327 22.9233 207.76 22.88C208.193 22.7933 208.778 22.75 209.515 22.75ZM231.526 54.86L231.266 54.795C229.229 58.695 227.106 61.5117 224.896 63.245C222.686 64.935 220.736 65.78 219.046 65.78C218.266 65.78 217.508 65.6717 216.771 65.455C216.078 65.2817 215.449 64.9567 214.886 64.48C214.323 63.96 213.868 63.2883 213.521 62.465C213.174 61.6417 213.001 60.6017 213.001 59.345C213.001 55.6617 213.608 52.39 214.821 49.53C216.078 46.67 217.638 44.265 219.501 42.315C221.364 40.3217 223.379 38.8267 225.546 37.83C227.713 36.79 229.728 36.27 231.591 36.27C232.978 36.27 234.386 36.3567 235.816 36.53C237.246 36.7033 238.914 36.985 240.821 37.375L236.466 59.345C236.423 59.5617 236.379 59.7567 236.336 59.93C236.336 60.06 236.336 60.1683 236.336 60.255C236.336 60.645 236.531 60.84 236.921 60.84C237.181 60.84 237.484 60.775 237.831 60.645C238.221 60.4717 238.589 60.2983 238.936 60.125C239.283 59.9083 239.608 59.735 239.911 59.605C240.214 59.4317 240.453 59.345 240.626 59.345C240.973 59.345 241.233 59.54 241.406 59.93C241.623 60.2767 241.753 60.6233 241.796 60.97C241.103 61.4467 240.279 61.9667 239.326 62.53C238.416 63.0933 237.463 63.6133 236.466 64.09C235.513 64.5667 234.559 64.9567 233.606 65.26C232.696 65.6067 231.894 65.78 231.201 65.78C230.464 65.78 229.901 65.6283 229.511 65.325C229.121 65.0217 228.926 64.5017 228.926 63.765C228.926 63.2883 229.034 62.6817 229.251 61.945L231.526 54.86ZM233.151 39.455C232.804 39.3683 232.414 39.2817 231.981 39.195C231.591 39.1083 231.223 39.065 230.876 39.065C229.359 39.065 227.973 39.5417 226.716 40.495C225.459 41.4483 224.376 42.7483 223.466 44.395C222.556 46.0417 221.841 47.9917 221.321 50.245C220.844 52.4983 220.606 54.9467 220.606 57.59C220.606 58.76 220.693 59.67 220.866 60.32C221.083 60.97 221.538 61.295 222.231 61.295C222.924 61.295 223.683 60.9483 224.506 60.255C225.329 59.5183 226.153 58.565 226.976 57.395C227.799 56.1817 228.579 54.8167 229.316 53.3C230.096 51.7833 230.768 50.2233 231.331 48.62C231.938 46.9733 232.393 45.37 232.696 43.81C233.043 42.2067 233.194 40.755 233.151 39.455ZM260.161 43.68C259.598 43.68 259.23 43.615 259.056 43.485C258.883 43.3117 258.731 43.0083 258.601 42.575C258.255 41.4917 257.756 40.5383 257.106 39.715C256.456 38.8917 255.395 38.48 253.921 38.48C252.881 38.48 251.928 38.7833 251.061 39.39C250.238 39.9967 249.826 40.9283 249.826 42.185C249.826 43.485 250.281 44.59 251.191 45.5C252.101 46.3667 253.141 47.2333 254.311 48.1C255.005 48.62 255.72 49.1833 256.456 49.79C257.193 50.3533 257.843 50.9817 258.406 51.675C258.97 52.325 259.425 53.0617 259.771 53.885C260.161 54.665 260.356 55.5533 260.356 56.55C260.356 57.98 260.031 59.28 259.381 60.45C258.731 61.5767 257.865 62.53 256.781 63.31C255.741 64.09 254.528 64.6967 253.141 65.13C251.798 65.5633 250.39 65.78 248.916 65.78C247.356 65.78 245.818 65.65 244.301 65.39C242.785 65.1733 241.333 64.7617 239.946 64.155C240.25 62.985 240.488 61.815 240.661 60.645C240.791 59.4317 240.878 58.0667 240.921 56.55H241.831C242.611 56.55 243.131 56.68 243.391 56.94C243.651 57.1567 243.803 57.5033 243.846 57.98C243.933 59.6267 244.475 60.9267 245.471 61.88C246.468 62.8333 247.725 63.31 249.241 63.31C250.585 63.31 251.711 62.9417 252.621 62.205C253.575 61.4683 254.051 60.3633 254.051 58.89C254.051 58.24 253.9 57.6333 253.596 57.07C253.336 56.5067 252.968 55.9867 252.491 55.51C252.015 54.99 251.473 54.5133 250.866 54.08C250.303 53.6033 249.696 53.1267 249.046 52.65C248.353 52.13 247.66 51.61 246.966 51.09C246.316 50.57 245.731 50.0067 245.211 49.4C244.691 48.75 244.258 48.0567 243.911 47.32C243.608 46.5833 243.456 45.76 243.456 44.85C243.456 43.4633 243.76 42.25 244.366 41.21C245.016 40.1267 245.84 39.2167 246.836 38.48C247.876 37.7433 249.046 37.2017 250.346 36.855C251.646 36.465 252.99 36.27 254.376 36.27C257.106 36.27 259.641 36.8333 261.981 37.96C261.808 38.5233 261.635 39.3683 261.461 40.495C261.288 41.5783 261.201 42.6617 261.201 43.745L260.161 43.68ZM279.882 43.68C279.319 43.68 278.95 43.615 278.777 43.485C278.604 43.3117 278.452 43.0083 278.322 42.575C277.975 41.4917 277.477 40.5383 276.827 39.715C276.177 38.8917 275.115 38.48 273.642 38.48C272.602 38.48 271.649 38.7833 270.782 39.39C269.959 39.9967 269.547 40.9283 269.547 42.185C269.547 43.485 270.002 44.59 270.912 45.5C271.822 46.3667 272.862 47.2333 274.032 48.1C274.725 48.62 275.44 49.1833 276.177 49.79C276.914 50.3533 277.564 50.9817 278.127 51.675C278.69 52.325 279.145 53.0617 279.492 53.885C279.882 54.665 280.077 55.5533 280.077 56.55C280.077 57.98 279.752 59.28 279.102 60.45C278.452 61.5767 277.585 62.53 276.502 63.31C275.462 64.09 274.249 64.6967 272.862 65.13C271.519 65.5633 270.11 65.78 268.637 65.78C267.077 65.78 265.539 65.65 264.022 65.39C262.505 65.1733 261.054 64.7617 259.667 64.155C259.97 62.985 260.209 61.815 260.382 60.645C260.512 59.4317 260.599 58.0667 260.642 56.55H261.552C262.332 56.55 262.852 56.68 263.112 56.94C263.372 57.1567 263.524 57.5033 263.567 57.98C263.654 59.6267 264.195 60.9267 265.192 61.88C266.189 62.8333 267.445 63.31 268.962 63.31C270.305 63.31 271.432 62.9417 272.342 62.205C273.295 61.4683 273.772 60.3633 273.772 58.89C273.772 58.24 273.62 57.6333 273.317 57.07C273.057 56.5067 272.689 55.9867 272.212 55.51C271.735 54.99 271.194 54.5133 270.587 54.08C270.024 53.6033 269.417 53.1267 268.767 52.65C268.074 52.13 267.38 51.61 266.687 51.09C266.037 50.57 265.452 50.0067 264.932 49.4C264.412 48.75 263.979 48.0567 263.632 47.32C263.329 46.5833 263.177 45.76 263.177 44.85C263.177 43.4633 263.48 42.25 264.087 41.21C264.737 40.1267 265.56 39.2167 266.557 38.48C267.597 37.7433 268.767 37.2017 270.067 36.855C271.367 36.465 272.71 36.27 274.097 36.27C276.827 36.27 279.362 36.8333 281.702 37.96C281.529 38.5233 281.355 39.3683 281.182 40.495C281.009 41.5783 280.922 42.6617 280.922 43.745L279.882 43.68ZM298.433 54.86L298.173 54.795C296.136 58.695 294.013 61.5117 291.803 63.245C289.593 64.935 287.643 65.78 285.953 65.78C285.173 65.78 284.415 65.6717 283.678 65.455C282.985 65.2817 282.356 64.9567 281.793 64.48C281.23 63.96 280.775 63.2883 280.428 62.465C280.081 61.6417 279.908 60.6017 279.908 59.345C279.908 55.6617 280.515 52.39 281.728 49.53C282.985 46.67 284.545 44.265 286.408 42.315C288.271 40.3217 290.286 38.8267 292.453 37.83C294.62 36.79 296.635 36.27 298.498 36.27C299.885 36.27 301.293 36.3567 302.723 36.53C304.153 36.7033 305.821 36.985 307.728 37.375L303.373 59.345C303.33 59.5617 303.286 59.7567 303.243 59.93C303.243 60.06 303.243 60.1683 303.243 60.255C303.243 60.645 303.438 60.84 303.828 60.84C304.088 60.84 304.391 60.775 304.738 60.645C305.128 60.4717 305.496 60.2983 305.843 60.125C306.19 59.9083 306.515 59.735 306.818 59.605C307.121 59.4317 307.36 59.345 307.533 59.345C307.88 59.345 308.14 59.54 308.313 59.93C308.53 60.2767 308.66 60.6233 308.703 60.97C308.01 61.4467 307.186 61.9667 306.233 62.53C305.323 63.0933 304.37 63.6133 303.373 64.09C302.42 64.5667 301.466 64.9567 300.513 65.26C299.603 65.6067 298.801 65.78 298.108 65.78C297.371 65.78 296.808 65.6283 296.418 65.325C296.028 65.0217 295.833 64.5017 295.833 63.765C295.833 63.2883 295.941 62.6817 296.158 61.945L298.433 54.86ZM300.058 39.455C299.711 39.3683 299.321 39.2817 298.888 39.195C298.498 39.1083 298.13 39.065 297.783 39.065C296.266 39.065 294.88 39.5417 293.623 40.495C292.366 41.4483 291.283 42.7483 290.373 44.395C289.463 46.0417 288.748 47.9917 288.228 50.245C287.751 52.4983 287.513 54.9467 287.513 57.59C287.513 58.76 287.6 59.67 287.773 60.32C287.99 60.97 288.445 61.295 289.138 61.295C289.831 61.295 290.59 60.9483 291.413 60.255C292.236 59.5183 293.06 58.565 293.883 57.395C294.706 56.1817 295.486 54.8167 296.223 53.3C297.003 51.7833 297.675 50.2233 298.238 48.62C298.845 46.9733 299.3 45.37 299.603 43.81C299.95 42.2067 300.101 40.755 300.058 39.455ZM323.428 38.74C321.868 38.74 320.568 39.3467 319.528 40.56C318.488 41.7733 317.665 43.2467 317.058 44.98C316.451 46.7133 316.018 48.5117 315.758 50.375C315.541 52.195 315.433 53.755 315.433 55.055C315.433 57.0917 315.823 58.76 316.603 60.06C317.383 61.36 318.683 62.01 320.503 62.01C321.283 62.01 322.02 61.9233 322.713 61.75C323.406 61.5333 324.013 61.295 324.533 61.035C325.096 60.7317 325.573 60.45 325.963 60.19C326.396 59.8867 326.743 59.6483 327.003 59.475C327.133 59.3883 327.263 59.3017 327.393 59.215C327.523 59.1283 327.696 59.085 327.913 59.085C328.346 59.085 328.65 59.28 328.823 59.67C328.996 60.0167 329.105 60.3633 329.148 60.71C328.541 61.23 327.826 61.7933 327.003 62.4C326.223 63.0067 325.335 63.57 324.338 64.09C323.385 64.5667 322.323 64.9567 321.153 65.26C320.026 65.6067 318.835 65.78 317.578 65.78C315.758 65.78 314.241 65.4983 313.028 64.935C311.815 64.3717 310.818 63.635 310.038 62.725C309.301 61.7717 308.76 60.6883 308.413 59.475C308.11 58.2617 307.958 57.005 307.958 55.705C307.958 53.625 308.283 51.4367 308.933 49.14C309.626 46.8433 310.623 44.7417 311.923 42.835C313.266 40.9283 314.935 39.3683 316.928 38.155C318.921 36.8983 321.218 36.27 323.818 36.27C325.248 36.27 326.656 36.465 328.043 36.855C329.43 37.2017 330.686 37.6783 331.813 38.285C331.726 38.545 331.618 38.935 331.488 39.455C331.401 39.975 331.315 40.5383 331.228 41.145C331.141 41.7517 331.055 42.38 330.968 43.03C330.881 43.6367 330.816 44.2 330.773 44.72L329.733 44.655C329.256 44.6117 328.91 44.5467 328.693 44.46C328.476 44.33 328.303 44.0483 328.173 43.615C327.61 41.795 326.981 40.5383 326.288 39.845C325.638 39.1083 324.685 38.74 323.428 38.74ZM350.01 45.76C350.183 45.0233 350.313 44.395 350.4 43.875C350.487 43.355 350.53 42.9 350.53 42.51C350.53 41.6433 350.183 41.21 349.49 41.21C349.013 41.21 348.385 41.5567 347.605 42.25C346.868 42.9 346.045 43.7667 345.135 44.85C344.225 45.9333 343.293 47.1683 342.34 48.555C341.43 49.8983 340.585 51.285 339.805 52.715C339.025 54.1017 338.353 55.77 337.79 57.72C337.27 59.6267 337.01 61.3383 337.01 62.855C337.01 63.5483 337.075 64.1767 337.205 64.74C336.165 64.87 335.103 65.0217 334.02 65.195C332.98 65.3683 331.853 65.6283 330.64 65.975C329.903 65.6717 329.535 65.2817 329.535 64.805C329.535 64.5883 329.557 64.3717 329.6 64.155C329.643 63.895 329.687 63.7 329.73 63.57L336.165 31.2C336.382 30.29 336.533 29.2933 336.62 28.21C336.75 27.1267 336.815 26.2167 336.815 25.48C336.815 25.0033 336.62 24.765 336.23 24.765C335.797 24.765 335.255 24.83 334.605 24.96C333.998 25.0467 333.457 25.09 332.98 25.09C332.59 25.09 332.308 24.9167 332.135 24.57C332.005 24.2233 331.94 23.79 331.94 23.27C333.977 22.6633 335.97 22.0783 337.92 21.515C339.913 20.9083 341.885 20.2367 343.835 19.5C344.658 19.8467 345.07 20.4317 345.07 21.255C345.07 21.4283 345.048 21.645 345.005 21.905C344.962 22.1217 344.918 22.3167 344.875 22.49L339.22 48.62L339.415 48.685C340.368 47.125 341.365 45.6083 342.405 44.135C343.488 42.6183 344.615 41.275 345.785 40.105C346.955 38.935 348.168 38.0033 349.425 37.31C350.725 36.6167 352.068 36.27 353.455 36.27C354.625 36.27 355.643 36.5517 356.51 37.115C357.377 37.635 357.81 38.61 357.81 40.04C357.81 40.56 357.767 41.1883 357.68 41.925C357.637 42.6183 357.528 43.3767 357.355 44.2L354.235 59.085C354.105 59.605 354.04 59.995 354.04 60.255C354.04 60.645 354.235 60.84 354.625 60.84C354.885 60.84 355.188 60.775 355.535 60.645C355.925 60.4717 356.293 60.2983 356.64 60.125C356.987 59.9083 357.312 59.735 357.615 59.605C357.918 59.4317 358.157 59.345 358.33 59.345C358.677 59.345 358.937 59.54 359.11 59.93C359.327 60.2767 359.457 60.6233 359.5 60.97C358.807 61.4467 357.983 61.9667 357.03 62.53C356.12 63.0933 355.167 63.6133 354.17 64.09C353.217 64.5667 352.263 64.9567 351.31 65.26C350.4 65.6067 349.598 65.78 348.905 65.78C348.168 65.78 347.54 65.6283 347.02 65.325C346.543 65.0217 346.305 64.5017 346.305 63.765C346.305 63.505 346.327 63.2667 346.37 63.05C346.413 62.79 346.457 62.5733 346.5 62.4L350.01 45.76ZM368.379 56.29C368.206 57.0267 368.076 57.655 367.989 58.175C367.902 58.695 367.859 59.15 367.859 59.54C367.859 60.4067 368.206 60.84 368.899 60.84C369.332 60.84 369.939 60.515 370.719 59.865C371.499 59.1717 372.344 58.2833 373.254 57.2C374.164 56.1167 375.074 54.9033 375.984 53.56C376.937 52.1733 377.804 50.765 378.584 49.335C379.364 47.9483 380.014 46.3017 380.534 44.395C381.097 42.445 381.379 40.7117 381.379 39.195C381.379 38.545 381.314 37.9167 381.184 37.31C382.224 37.18 383.264 37.0283 384.304 36.855C385.387 36.6817 386.536 36.4217 387.749 36.075C388.486 36.3783 388.854 36.7683 388.854 37.245C388.854 37.4617 388.832 37.7 388.789 37.96C388.746 38.1767 388.702 38.35 388.659 38.48L384.499 59.215C384.369 59.9083 384.347 60.3633 384.434 60.58C384.564 60.7533 384.759 60.84 385.019 60.84C385.539 60.84 386.124 60.645 386.774 60.255C387.467 59.8217 388.009 59.605 388.399 59.605C388.789 59.605 389.027 59.7783 389.114 60.125C389.201 60.4283 389.266 60.7533 389.309 61.1C388.486 61.62 387.576 62.1617 386.579 62.725C385.582 63.2883 384.586 63.8083 383.589 64.285C382.636 64.7183 381.726 65.065 380.859 65.325C379.992 65.6283 379.299 65.78 378.779 65.78C377.436 65.78 376.764 65.195 376.764 64.025C376.764 63.6783 376.829 63.2667 376.959 62.79L379.169 53.43L378.974 53.365C377.977 54.925 376.959 56.4633 375.919 57.98C374.879 59.4533 373.774 60.775 372.604 61.945C371.434 63.115 370.199 64.0467 368.899 64.74C367.642 65.4333 366.321 65.78 364.934 65.78C363.764 65.78 362.746 65.52 361.879 65C361.012 64.4367 360.579 63.44 360.579 62.01C360.579 61.49 360.601 60.8833 360.644 60.19C360.731 59.4533 360.861 58.6733 361.034 57.85L364.089 43.355C364.219 42.7483 364.262 42.315 364.219 42.055C364.219 41.7517 364.046 41.6 363.699 41.6C363.439 41.6 363.136 41.665 362.789 41.795C362.442 41.8817 362.096 42.0117 361.749 42.185C361.402 42.315 361.077 42.445 360.774 42.575C360.471 42.6617 360.232 42.705 360.059 42.705C359.712 42.705 359.431 42.5317 359.214 42.185C359.041 41.795 358.932 41.4267 358.889 41.08C359.496 40.69 360.319 40.235 361.359 39.715C362.399 39.1517 363.461 38.61 364.544 38.09C365.671 37.57 366.732 37.1367 367.729 36.79C368.769 36.4433 369.549 36.27 370.069 36.27C370.676 36.27 371.152 36.4217 371.499 36.725C371.889 37.0283 372.084 37.5483 372.084 38.285C372.084 38.545 372.062 38.805 372.019 39.065C371.976 39.2817 371.932 39.4767 371.889 39.65L368.379 56.29ZM408.194 43.68C407.63 43.68 407.262 43.615 407.089 43.485C406.915 43.3117 406.764 43.0083 406.634 42.575C406.287 41.4917 405.789 40.5383 405.139 39.715C404.489 38.8917 403.427 38.48 401.954 38.48C400.914 38.48 399.96 38.7833 399.094 39.39C398.27 39.9967 397.859 40.9283 397.859 42.185C397.859 43.485 398.314 44.59 399.224 45.5C400.134 46.3667 401.174 47.2333 402.344 48.1C403.037 48.62 403.752 49.1833 404.489 49.79C405.225 50.3533 405.875 50.9817 406.439 51.675C407.002 52.325 407.457 53.0617 407.804 53.885C408.194 54.665 408.389 55.5533 408.389 56.55C408.389 57.98 408.064 59.28 407.414 60.45C406.764 61.5767 405.897 62.53 404.814 63.31C403.774 64.09 402.56 64.6967 401.174 65.13C399.83 65.5633 398.422 65.78 396.949 65.78C395.389 65.78 393.85 65.65 392.334 65.39C390.817 65.1733 389.365 64.7617 387.979 64.155C388.282 62.985 388.52 61.815 388.694 60.645C388.824 59.4317 388.91 58.0667 388.954 56.55H389.864C390.644 56.55 391.164 56.68 391.424 56.94C391.684 57.1567 391.835 57.5033 391.879 57.98C391.965 59.6267 392.507 60.9267 393.504 61.88C394.5 62.8333 395.757 63.31 397.274 63.31C398.617 63.31 399.744 62.9417 400.654 62.205C401.607 61.4683 402.084 60.3633 402.084 58.89C402.084 58.24 401.932 57.6333 401.629 57.07C401.369 56.5067 401 55.9867 400.524 55.51C400.047 54.99 399.505 54.5133 398.899 54.08C398.335 53.6033 397.729 53.1267 397.079 52.65C396.385 52.13 395.692 51.61 394.999 51.09C394.349 50.57 393.764 50.0067 393.244 49.4C392.724 48.75 392.29 48.0567 391.944 47.32C391.64 46.5833 391.489 45.76 391.489 44.85C391.489 43.4633 391.792 42.25 392.399 41.21C393.049 40.1267 393.872 39.2167 394.869 38.48C395.909 37.7433 397.079 37.2017 398.379 36.855C399.679 36.465 401.022 36.27 402.409 36.27C405.139 36.27 407.674 36.8333 410.014 37.96C409.84 38.5233 409.667 39.3683 409.494 40.495C409.32 41.5783 409.234 42.6617 409.234 43.745L408.194 43.68ZM432.594 42.38C432.594 43.94 432.204 45.305 431.424 46.475C430.644 47.6017 429.539 48.555 428.109 49.335C426.679 50.0717 424.968 50.6567 422.974 51.09C420.981 51.5233 418.771 51.805 416.344 51.935C416.301 52.3683 416.258 52.78 416.214 53.17C416.214 53.56 416.214 53.9717 416.214 54.405C416.214 55.3583 416.279 56.29 416.409 57.2C416.583 58.11 416.864 58.9117 417.254 59.605C417.644 60.2983 418.164 60.8617 418.814 61.295C419.508 61.7283 420.374 61.945 421.414 61.945C422.194 61.945 423.126 61.7933 424.209 61.49C425.336 61.1433 426.528 60.5583 427.784 59.735C428.174 59.475 428.478 59.2583 428.694 59.085C428.954 58.9117 429.236 58.825 429.539 58.825C429.973 58.825 430.254 59.0633 430.384 59.54C430.558 59.9733 430.644 60.2767 430.644 60.45C430.081 60.97 429.366 61.555 428.499 62.205C427.676 62.8117 426.723 63.375 425.639 63.895C424.599 64.415 423.451 64.8483 422.194 65.195C420.981 65.585 419.724 65.78 418.424 65.78C416.431 65.78 414.806 65.455 413.549 64.805C412.293 64.155 411.318 63.31 410.624 62.27C409.931 61.23 409.454 60.0817 409.194 58.825C408.934 57.5683 408.804 56.3333 408.804 55.12C408.804 52.78 409.173 50.4833 409.909 48.23C410.689 45.9767 411.773 43.9617 413.159 42.185C414.589 40.4083 416.279 38.9783 418.229 37.895C420.179 36.8117 422.346 36.27 424.729 36.27C426.939 36.27 428.803 36.7467 430.319 37.7C431.836 38.61 432.594 40.17 432.594 42.38ZM423.494 38.87C422.671 38.87 421.891 39.1733 421.154 39.78C420.418 40.3433 419.746 41.1233 419.139 42.12C418.533 43.1167 418.013 44.265 417.579 45.565C417.146 46.8217 416.821 48.165 416.604 49.595C418.338 49.4217 419.789 49.0967 420.959 48.62C422.129 48.1433 423.061 47.58 423.754 46.93C424.448 46.2367 424.946 45.4783 425.249 44.655C425.553 43.7883 425.704 42.9 425.704 41.99C425.704 40.9933 425.488 40.235 425.054 39.715C424.664 39.1517 424.144 38.87 423.494 38.87ZM437.371 36.075C437.718 34.4717 437.891 33.1933 437.891 32.24C437.891 31.5467 437.826 30.8967 437.696 30.29C438.649 30.16 439.668 30.03 440.751 29.9C441.878 29.77 443.091 29.5317 444.391 29.185C444.738 29.3583 444.998 29.51 445.171 29.64C445.344 29.77 445.431 29.9867 445.431 30.29C445.431 30.5067 445.388 30.8317 445.301 31.265L444.196 37.05H451.216C451.086 37.4833 450.913 38.0683 450.696 38.805C450.523 39.4983 450.393 40.1483 450.306 40.755C449.093 40.5383 447.879 40.3867 446.666 40.3C445.496 40.17 444.499 40.0833 443.676 40.04L440.166 59.41C440.123 59.6267 440.079 59.8217 440.036 59.995C440.036 60.125 440.036 60.255 440.036 60.385C440.036 61.3817 440.578 61.88 441.661 61.88C442.268 61.88 442.831 61.815 443.351 61.685C443.871 61.5117 444.369 61.3167 444.846 61.1C445.193 60.9267 445.518 60.7967 445.821 60.71C446.124 60.58 446.384 60.515 446.601 60.515C446.991 60.515 447.229 60.6883 447.316 61.035C447.446 61.3817 447.533 61.7283 447.576 62.075C446.146 63.2017 444.478 64.1117 442.571 64.805C440.708 65.455 438.996 65.78 437.436 65.78C435.616 65.78 434.359 65.52 433.666 65C432.973 64.4367 432.626 63.6133 432.626 62.53C432.626 62.3133 432.626 62.0967 432.626 61.88C432.669 61.6633 432.713 61.4467 432.756 61.23L436.656 39.845H431.716C431.846 39.0217 432.019 38.35 432.236 37.83C432.453 37.31 432.973 37.05 433.796 37.05H437.176L437.371 36.075ZM454.045 36.075C454.392 34.4717 454.565 33.1933 454.565 32.24C454.565 31.5467 454.5 30.8967 454.37 30.29C455.323 30.16 456.342 30.03 457.425 29.9C458.552 29.77 459.765 29.5317 461.065 29.185C461.412 29.3583 461.672 29.51 461.845 29.64C462.018 29.77 462.105 29.9867 462.105 30.29C462.105 30.5067 462.062 30.8317 461.975 31.265L460.87 37.05H467.89C467.76 37.4833 467.587 38.0683 467.37 38.805C467.197 39.4983 467.067 40.1483 466.98 40.755C465.767 40.5383 464.553 40.3867 463.34 40.3C462.17 40.17 461.173 40.0833 460.35 40.04L456.84 59.41C456.797 59.6267 456.753 59.8217 456.71 59.995C456.71 60.125 456.71 60.255 456.71 60.385C456.71 61.3817 457.252 61.88 458.335 61.88C458.942 61.88 459.505 61.815 460.025 61.685C460.545 61.5117 461.043 61.3167 461.52 61.1C461.867 60.9267 462.192 60.7967 462.495 60.71C462.798 60.58 463.058 60.515 463.275 60.515C463.665 60.515 463.903 60.6883 463.99 61.035C464.12 61.3817 464.207 61.7283 464.25 62.075C462.82 63.2017 461.152 64.1117 459.245 64.805C457.382 65.455 455.67 65.78 454.11 65.78C452.29 65.78 451.033 65.52 450.34 65C449.647 64.4367 449.3 63.6133 449.3 62.53C449.3 62.3133 449.3 62.0967 449.3 61.88C449.343 61.6633 449.387 61.4467 449.43 61.23L453.33 39.845H448.39C448.52 39.0217 448.693 38.35 448.91 37.83C449.127 37.31 449.647 37.05 450.47 37.05H453.85L454.045 36.075ZM483.776 43.68C483.213 43.68 482.845 43.615 482.671 43.485C482.498 43.3117 482.346 43.0083 482.216 42.575C481.87 41.4917 481.371 40.5383 480.721 39.715C480.071 38.8917 479.01 38.48 477.536 38.48C476.496 38.48 475.543 38.7833 474.676 39.39C473.853 39.9967 473.441 40.9283 473.441 42.185C473.441 43.485 473.896 44.59 474.806 45.5C475.716 46.3667 476.756 47.2333 477.926 48.1C478.62 48.62 479.335 49.1833 480.071 49.79C480.808 50.3533 481.458 50.9817 482.021 51.675C482.585 52.325 483.04 53.0617 483.386 53.885C483.776 54.665 483.971 55.5533 483.971 56.55C483.971 57.98 483.646 59.28 482.996 60.45C482.346 61.5767 481.48 62.53 480.396 63.31C479.356 64.09 478.143 64.6967 476.756 65.13C475.413 65.5633 474.005 65.78 472.531 65.78C470.971 65.78 469.433 65.65 467.916 65.39C466.4 65.1733 464.948 64.7617 463.561 64.155C463.865 62.985 464.103 61.815 464.276 60.645C464.406 59.4317 464.493 58.0667 464.536 56.55H465.446C466.226 56.55 466.746 56.68 467.006 56.94C467.266 57.1567 467.418 57.5033 467.461 57.98C467.548 59.6267 468.09 60.9267 469.086 61.88C470.083 62.8333 471.34 63.31 472.856 63.31C474.2 63.31 475.326 62.9417 476.236 62.205C477.19 61.4683 477.666 60.3633 477.666 58.89C477.666 58.24 477.515 57.6333 477.211 57.07C476.951 56.5067 476.583 55.9867 476.106 55.51C475.63 54.99 475.088 54.5133 474.481 54.08C473.918 53.6033 473.311 53.1267 472.661 52.65C471.968 52.13 471.275 51.61 470.581 51.09C469.931 50.57 469.346 50.0067 468.826 49.4C468.306 48.75 467.873 48.0567 467.526 47.32C467.223 46.5833 467.071 45.76 467.071 44.85C467.071 43.4633 467.375 42.25 467.981 41.21C468.631 40.1267 469.455 39.2167 470.451 38.48C471.491 37.7433 472.661 37.2017 473.961 36.855C475.261 36.465 476.605 36.27 477.991 36.27C480.721 36.27 483.256 36.8333 485.596 37.96C485.423 38.5233 485.25 39.3683 485.076 40.495C484.903 41.5783 484.816 42.6617 484.816 43.745L483.776 43.68Z" fill="#2C68AF"/>
<path d="M180.8 297.68H177.96C177.373 297.68 176.853 297.76 176.4 297.92C175.973 298.053 175.573 298.267 175.2 298.56C174.853 298.853 174.507 299.227 174.16 299.68C173.813 300.107 173.427 300.627 173 301.24C172.84 301.453 172.667 301.6 172.48 301.68C172.293 301.76 172.093 301.8 171.88 301.8C171.667 301.8 171.467 301.76 171.28 301.68C171.12 301.573 171.013 301.493 170.96 301.44C171.173 300.987 171.347 300.547 171.48 300.12C171.64 299.667 171.813 299.16 172 298.6C172.16 298.067 172.28 297.627 172.36 297.28C172.44 296.933 172.533 296.613 172.64 296.32C172.773 295.92 173.013 295.72 173.36 295.72C173.707 295.72 174.187 295.773 174.8 295.88C175.44 295.96 176.4 296 177.68 296H189.32C189.987 296 190.533 295.987 190.96 295.96C191.413 295.933 191.787 295.907 192.08 295.88C192.4 295.853 192.667 295.827 192.88 295.8C193.093 295.773 193.293 295.76 193.48 295.76C193.827 295.76 194.013 295.92 194.04 296.24C194.093 296.64 194.12 297 194.12 297.32C194.12 297.64 194.16 298.093 194.24 298.68C194.293 299.133 194.36 299.587 194.44 300.04C194.52 300.467 194.627 300.907 194.76 301.36C194.627 301.44 194.467 301.533 194.28 301.64C194.12 301.72 193.907 301.76 193.64 301.76C193.213 301.76 192.933 301.573 192.8 301.2C192.373 299.947 191.813 299.053 191.12 298.52C190.427 297.96 189.493 297.68 188.32 297.68H185.52L181.52 318.96C181.413 319.44 181.533 319.813 181.88 320.08C182.227 320.347 182.84 320.56 183.72 320.72C184.093 320.773 184.347 320.867 184.48 321C184.613 321.107 184.68 321.267 184.68 321.48C184.68 321.587 184.667 321.707 184.64 321.84C184.613 321.973 184.573 322.12 184.52 322.28C183.533 322.2 182.573 322.133 181.64 322.08C180.707 322.027 179.76 322 178.8 322C177.973 322 177.053 322.027 176.04 322.08C175.027 322.133 174.08 322.2 173.2 322.28C173.147 322.147 173.107 322.013 173.08 321.88C173.053 321.747 173.04 321.613 173.04 321.48C173.04 321.053 173.267 320.8 173.72 320.72C174.653 320.587 175.373 320.387 175.88 320.12C176.387 319.827 176.693 319.413 176.8 318.88L180.8 297.68ZM205.894 310.16C206 309.707 206.08 309.32 206.134 309C206.187 308.68 206.214 308.4 206.214 308.16C206.214 307.627 206 307.36 205.574 307.36C205.28 307.36 204.894 307.573 204.414 308C203.96 308.4 203.454 308.933 202.894 309.6C202.334 310.267 201.76 311.027 201.174 311.88C200.614 312.707 200.094 313.56 199.614 314.44C199.134 315.293 198.72 316.32 198.374 317.52C198.054 318.693 197.894 319.747 197.894 320.68C197.894 321.107 197.934 321.493 198.014 321.84C197.374 321.92 196.72 322.013 196.054 322.12C195.414 322.227 194.72 322.387 193.974 322.6C193.52 322.413 193.294 322.173 193.294 321.88C193.294 321.747 193.307 321.613 193.334 321.48C193.36 321.32 193.387 321.2 193.414 321.12L197.374 301.2C197.507 300.64 197.6 300.027 197.654 299.36C197.734 298.693 197.774 298.133 197.774 297.68C197.774 297.387 197.654 297.24 197.414 297.24C197.147 297.24 196.814 297.28 196.414 297.36C196.04 297.413 195.707 297.44 195.414 297.44C195.174 297.44 195 297.333 194.894 297.12C194.814 296.907 194.774 296.64 194.774 296.32C196.027 295.947 197.254 295.587 198.454 295.24C199.68 294.867 200.894 294.453 202.094 294C202.6 294.213 202.854 294.573 202.854 295.08C202.854 295.187 202.84 295.32 202.814 295.48C202.787 295.613 202.76 295.733 202.734 295.84L199.254 311.92L199.374 311.96C199.96 311 200.574 310.067 201.214 309.16C201.88 308.227 202.574 307.4 203.294 306.68C204.014 305.96 204.76 305.387 205.534 304.96C206.334 304.533 207.16 304.32 208.014 304.32C208.734 304.32 209.36 304.493 209.894 304.84C210.427 305.16 210.694 305.76 210.694 306.64C210.694 306.96 210.667 307.347 210.614 307.8C210.587 308.227 210.52 308.693 210.414 309.2L208.494 318.36C208.414 318.68 208.374 318.92 208.374 319.08C208.374 319.32 208.494 319.44 208.734 319.44C208.894 319.44 209.08 319.4 209.294 319.32C209.534 319.213 209.76 319.107 209.974 319C210.187 318.867 210.387 318.76 210.574 318.68C210.76 318.573 210.907 318.52 211.014 318.52C211.227 318.52 211.387 318.64 211.494 318.88C211.627 319.093 211.707 319.307 211.734 319.52C211.307 319.813 210.8 320.133 210.214 320.48C209.654 320.827 209.067 321.147 208.454 321.44C207.867 321.733 207.28 321.973 206.694 322.16C206.134 322.373 205.64 322.48 205.214 322.48C204.76 322.48 204.374 322.387 204.054 322.2C203.76 322.013 203.614 321.693 203.614 321.24C203.614 321.08 203.627 320.933 203.654 320.8C203.68 320.64 203.707 320.507 203.734 320.4L205.894 310.16ZM226.802 308.08C226.802 309.04 226.562 309.88 226.082 310.6C225.602 311.293 224.922 311.88 224.042 312.36C223.162 312.813 222.109 313.173 220.882 313.44C219.656 313.707 218.296 313.88 216.802 313.96C216.776 314.227 216.749 314.48 216.722 314.72C216.722 314.96 216.722 315.213 216.722 315.48C216.722 316.067 216.762 316.64 216.842 317.2C216.949 317.76 217.122 318.253 217.362 318.68C217.602 319.107 217.922 319.453 218.322 319.72C218.749 319.987 219.282 320.12 219.922 320.12C220.402 320.12 220.976 320.027 221.642 319.84C222.336 319.627 223.069 319.267 223.842 318.76C224.082 318.6 224.269 318.467 224.402 318.36C224.562 318.253 224.736 318.2 224.922 318.2C225.189 318.2 225.362 318.347 225.442 318.64C225.549 318.907 225.602 319.093 225.602 319.2C225.256 319.52 224.816 319.88 224.282 320.28C223.776 320.653 223.189 321 222.522 321.32C221.882 321.64 221.176 321.907 220.402 322.12C219.656 322.36 218.882 322.48 218.082 322.48C216.856 322.48 215.856 322.28 215.082 321.88C214.309 321.48 213.709 320.96 213.282 320.32C212.856 319.68 212.562 318.973 212.402 318.2C212.242 317.427 212.162 316.667 212.162 315.92C212.162 314.48 212.389 313.067 212.842 311.68C213.322 310.293 213.989 309.053 214.842 307.96C215.722 306.867 216.762 305.987 217.962 305.32C219.162 304.653 220.496 304.32 221.962 304.32C223.322 304.32 224.469 304.613 225.402 305.2C226.336 305.76 226.802 306.72 226.802 308.08ZM221.202 305.92C220.696 305.92 220.216 306.107 219.762 306.48C219.309 306.827 218.896 307.307 218.522 307.92C218.149 308.533 217.829 309.24 217.562 310.04C217.296 310.813 217.096 311.64 216.962 312.52C218.029 312.413 218.922 312.213 219.642 311.92C220.362 311.627 220.936 311.28 221.362 310.88C221.789 310.453 222.096 309.987 222.282 309.48C222.469 308.947 222.562 308.4 222.562 307.84C222.562 307.227 222.429 306.76 222.162 306.44C221.922 306.093 221.602 305.92 221.202 305.92ZM238.26 302.92C238.26 301.8 238.5 300.787 238.98 299.88C239.46 298.973 240.087 298.2 240.86 297.56C241.66 296.92 242.567 296.427 243.58 296.08C244.594 295.707 245.647 295.52 246.74 295.52C248.234 295.52 249.567 295.707 250.74 296.08C251.94 296.453 253.007 296.867 253.94 297.32C253.86 297.96 253.794 298.56 253.74 299.12C253.687 299.68 253.66 300.227 253.66 300.76C253.66 300.973 253.66 301.187 253.66 301.4C253.66 301.587 253.674 301.787 253.7 302C253.46 302.187 253.14 302.28 252.74 302.28C252.474 302.28 252.234 302.227 252.02 302.12C251.834 301.987 251.714 301.76 251.66 301.44C251.42 300.027 250.847 298.973 249.94 298.28C249.06 297.56 247.954 297.2 246.62 297.2C246.087 297.2 245.567 297.28 245.06 297.44C244.554 297.573 244.1 297.8 243.7 298.12C243.3 298.413 242.98 298.8 242.74 299.28C242.5 299.733 242.38 300.28 242.38 300.92C242.38 301.48 242.5 302 242.74 302.48C243.007 302.96 243.34 303.427 243.74 303.88C244.167 304.307 244.647 304.733 245.18 305.16C245.714 305.587 246.26 306.013 246.82 306.44C247.46 306.947 248.1 307.467 248.74 308C249.38 308.533 249.954 309.12 250.46 309.76C250.967 310.4 251.38 311.093 251.7 311.84C252.02 312.587 252.18 313.427 252.18 314.36C252.18 315.72 251.9 316.907 251.34 317.92C250.78 318.933 250.034 319.787 249.1 320.48C248.194 321.147 247.14 321.653 245.94 322C244.74 322.32 243.5 322.48 242.22 322.48C241.42 322.48 240.634 322.427 239.86 322.32C239.114 322.213 238.42 322.08 237.78 321.92C237.14 321.76 236.58 321.6 236.1 321.44C235.647 321.253 235.3 321.08 235.06 320.92C235.14 320.147 235.207 319.333 235.26 318.48C235.34 317.6 235.38 316.76 235.38 315.96C235.38 315.64 235.367 315.333 235.34 315.04C235.34 314.747 235.327 314.467 235.3 314.2C235.46 314.147 235.634 314.093 235.82 314.04C236.007 313.987 236.22 313.96 236.46 313.96C236.834 313.96 237.074 314.053 237.18 314.24C237.287 314.4 237.38 314.653 237.46 315C237.754 316.813 238.274 318.213 239.02 319.2C239.794 320.16 240.967 320.64 242.54 320.64C243.207 320.64 243.847 320.547 244.46 320.36C245.074 320.147 245.62 319.84 246.1 319.44C246.58 319.04 246.967 318.547 247.26 317.96C247.554 317.373 247.7 316.693 247.7 315.92C247.7 315.253 247.567 314.64 247.3 314.08C247.06 313.52 246.727 313 246.3 312.52C245.874 312.04 245.38 311.6 244.82 311.2C244.287 310.773 243.74 310.347 243.18 309.92C242.567 309.467 241.967 309.013 241.38 308.56C240.794 308.08 240.26 307.56 239.78 307C239.327 306.44 238.954 305.827 238.66 305.16C238.394 304.493 238.26 303.747 238.26 302.92ZM256.838 308.16C256.891 308.027 256.904 307.907 256.878 307.8C256.851 307.667 256.784 307.6 256.678 307.6C256.598 307.6 256.478 307.64 256.318 307.72C256.158 307.773 255.971 307.84 255.758 307.92C255.571 308 255.371 308.08 255.158 308.16C254.971 308.213 254.811 308.24 254.678 308.24C254.438 308.24 254.251 308.12 254.118 307.88C254.011 307.64 253.931 307.413 253.878 307.2C254.384 306.88 254.984 306.56 255.678 306.24C256.371 305.893 257.051 305.587 257.718 305.32C258.411 305.027 259.038 304.787 259.598 304.6C260.158 304.413 260.571 304.32 260.838 304.32C261.051 304.32 261.251 304.373 261.438 304.48C261.624 304.587 261.718 304.773 261.718 305.04C261.718 305.12 261.718 305.227 261.718 305.36C261.718 305.493 261.691 305.627 261.638 305.76L260.318 310.84L260.438 310.88C261.104 309.653 261.758 308.627 262.398 307.8C263.038 306.947 263.664 306.267 264.278 305.76C264.918 305.253 265.544 304.893 266.158 304.68C266.798 304.44 267.451 304.32 268.118 304.32C268.864 304.32 269.478 304.467 269.958 304.76C270.464 305.027 270.864 305.387 271.158 305.84C271.478 306.267 271.691 306.773 271.798 307.36C271.931 307.92 271.998 308.493 271.998 309.08C271.998 311.187 271.611 313.067 270.838 314.72C270.064 316.373 269.091 317.773 267.918 318.92C266.744 320.067 265.464 320.947 264.078 321.56C262.718 322.173 261.424 322.48 260.198 322.48C259.958 322.48 259.678 322.48 259.358 322.48C259.038 322.48 258.744 322.453 258.478 322.4L257.918 325.28C257.784 325.893 257.678 326.44 257.598 326.92C257.518 327.4 257.478 327.787 257.478 328.08C257.478 328.4 257.518 328.613 257.598 328.72C257.704 328.827 257.864 328.88 258.078 328.88C258.291 328.88 258.598 328.853 258.998 328.8C259.424 328.747 259.784 328.72 260.078 328.72C260.344 328.72 260.491 328.84 260.518 329.08C260.571 329.32 260.598 329.547 260.598 329.76C259.211 330.133 257.944 330.507 256.798 330.88C255.678 331.253 254.571 331.667 253.478 332.12C253.158 331.96 252.904 331.8 252.718 331.64C252.531 331.507 252.438 331.307 252.438 331.04C252.438 330.907 252.464 330.707 252.518 330.44L256.838 308.16ZM258.878 320.28C259.011 320.387 259.238 320.48 259.558 320.56C259.878 320.64 260.171 320.68 260.438 320.68C261.398 320.68 262.291 320.413 263.118 319.88C263.971 319.32 264.704 318.573 265.318 317.64C265.931 316.68 266.411 315.56 266.758 314.28C267.104 313 267.278 311.613 267.278 310.12C267.278 309 267.144 308.227 266.878 307.8C266.638 307.347 266.331 307.12 265.958 307.12C265.504 307.12 265.011 307.347 264.478 307.8C263.971 308.227 263.464 308.8 262.958 309.52C262.451 310.24 261.944 311.067 261.438 312C260.958 312.933 260.531 313.893 260.158 314.88C259.784 315.84 259.478 316.8 259.238 317.76C259.024 318.693 258.904 319.533 258.878 320.28ZM278.685 301C277.965 301 277.392 300.827 276.965 300.48C276.539 300.107 276.325 299.613 276.325 299C276.325 298.173 276.645 297.467 277.285 296.88C277.925 296.293 278.685 296 279.565 296C280.339 296 280.899 296.24 281.245 296.72C281.592 297.173 281.765 297.64 281.765 298.12C281.765 298.973 281.459 299.667 280.845 300.2C280.259 300.733 279.539 301 278.685 301ZM277.725 318.36C277.645 318.68 277.605 318.92 277.605 319.08C277.605 319.32 277.725 319.44 277.965 319.44C278.125 319.44 278.312 319.4 278.525 319.32C278.765 319.213 278.992 319.107 279.205 319C279.419 318.867 279.619 318.76 279.805 318.68C279.992 318.573 280.139 318.52 280.245 318.52C280.459 318.52 280.619 318.64 280.725 318.88C280.859 319.093 280.939 319.307 280.965 319.52C280.539 319.813 280.032 320.133 279.445 320.48C278.885 320.827 278.299 321.147 277.685 321.44C277.099 321.733 276.512 321.973 275.925 322.16C275.365 322.373 274.872 322.48 274.445 322.48C273.992 322.48 273.605 322.387 273.285 322.2C272.992 322.013 272.845 321.693 272.845 321.24C272.845 321.08 272.859 320.933 272.885 320.8C272.912 320.64 272.939 320.507 272.965 320.4L275.525 308.2C275.605 307.8 275.539 307.6 275.325 307.6C275.245 307.6 275.125 307.64 274.965 307.72C274.805 307.773 274.619 307.84 274.405 307.92C274.219 308 274.019 308.08 273.805 308.16C273.619 308.213 273.459 308.24 273.325 308.24C273.085 308.24 272.899 308.12 272.765 307.88C272.659 307.64 272.579 307.413 272.525 307.2C273.032 306.933 273.632 306.627 274.325 306.28C275.045 305.933 275.739 305.627 276.405 305.36C277.099 305.067 277.725 304.827 278.285 304.64C278.845 304.427 279.245 304.32 279.485 304.32C279.699 304.32 279.899 304.373 280.085 304.48C280.272 304.587 280.365 304.773 280.365 305.04C280.365 305.12 280.352 305.227 280.325 305.36C280.325 305.493 280.312 305.627 280.285 305.76L277.725 318.36ZM293.353 308.12C292.98 308.12 292.58 308.28 292.153 308.6C291.726 308.893 291.273 309.307 290.793 309.84C290.34 310.347 289.873 310.973 289.393 311.72C288.94 312.44 288.513 313.213 288.113 314.04C287.9 314.467 287.7 314.973 287.513 315.56C287.326 316.12 287.153 316.707 286.993 317.32C286.86 317.933 286.753 318.533 286.673 319.12C286.593 319.707 286.553 320.227 286.553 320.68C286.553 321.107 286.593 321.493 286.673 321.84C286.033 321.92 285.38 322.013 284.713 322.12C284.073 322.227 283.38 322.387 282.633 322.6C282.18 322.413 281.953 322.173 281.953 321.88C281.953 321.747 281.966 321.613 281.993 321.48C282.02 321.32 282.046 321.2 282.073 321.12L284.633 308.2C284.686 308.04 284.7 307.907 284.673 307.8C284.646 307.667 284.58 307.6 284.473 307.6C284.393 307.6 284.273 307.64 284.113 307.72C283.953 307.773 283.766 307.84 283.553 307.92C283.366 308 283.166 308.08 282.953 308.16C282.766 308.213 282.606 308.24 282.473 308.24C282.233 308.24 282.046 308.12 281.913 307.88C281.806 307.64 281.726 307.413 281.673 307.2C282.18 306.88 282.78 306.56 283.473 306.24C284.166 305.893 284.846 305.587 285.513 305.32C286.206 305.027 286.833 304.787 287.393 304.6C287.953 304.413 288.366 304.32 288.633 304.32C288.846 304.32 289.046 304.373 289.233 304.48C289.42 304.587 289.513 304.773 289.513 305.04C289.513 305.12 289.513 305.227 289.513 305.36C289.513 305.493 289.486 305.627 289.433 305.76L288.033 311.08L288.193 311.12C289.58 308.667 290.793 306.92 291.833 305.88C292.9 304.84 293.966 304.32 295.033 304.32C295.38 304.32 295.713 304.373 296.033 304.48C296.353 304.587 296.58 304.707 296.713 304.84C296.26 305.907 295.913 307.36 295.673 309.2H294.873C294.713 308.907 294.513 308.653 294.273 308.44C294.033 308.227 293.726 308.12 293.353 308.12ZM301.949 301C301.229 301 300.656 300.827 300.229 300.48C299.803 300.107 299.589 299.613 299.589 299C299.589 298.173 299.909 297.467 300.549 296.88C301.189 296.293 301.949 296 302.829 296C303.603 296 304.163 296.24 304.509 296.72C304.856 297.173 305.029 297.64 305.029 298.12C305.029 298.973 304.723 299.667 304.109 300.2C303.523 300.733 302.803 301 301.949 301ZM300.989 318.36C300.909 318.68 300.869 318.92 300.869 319.08C300.869 319.32 300.989 319.44 301.229 319.44C301.389 319.44 301.576 319.4 301.789 319.32C302.029 319.213 302.256 319.107 302.469 319C302.683 318.867 302.883 318.76 303.069 318.68C303.256 318.573 303.403 318.52 303.509 318.52C303.723 318.52 303.883 318.64 303.989 318.88C304.123 319.093 304.203 319.307 304.229 319.52C303.803 319.813 303.296 320.133 302.709 320.48C302.149 320.827 301.563 321.147 300.949 321.44C300.363 321.733 299.776 321.973 299.189 322.16C298.629 322.373 298.136 322.48 297.709 322.48C297.256 322.48 296.869 322.387 296.549 322.2C296.256 322.013 296.109 321.693 296.109 321.24C296.109 321.08 296.123 320.933 296.149 320.8C296.176 320.64 296.203 320.507 296.229 320.4L298.789 308.2C298.869 307.8 298.803 307.6 298.589 307.6C298.509 307.6 298.389 307.64 298.229 307.72C298.069 307.773 297.883 307.84 297.669 307.92C297.483 308 297.283 308.08 297.069 308.16C296.883 308.213 296.723 308.24 296.589 308.24C296.349 308.24 296.163 308.12 296.029 307.88C295.923 307.64 295.843 307.413 295.789 307.2C296.296 306.933 296.896 306.627 297.589 306.28C298.309 305.933 299.003 305.627 299.669 305.36C300.363 305.067 300.989 304.827 301.549 304.64C302.109 304.427 302.509 304.32 302.749 304.32C302.963 304.32 303.163 304.373 303.349 304.48C303.536 304.587 303.629 304.773 303.629 305.04C303.629 305.12 303.616 305.227 303.589 305.36C303.589 305.493 303.576 305.627 303.549 305.76L300.989 318.36ZM308.737 304.2C308.951 303.213 309.057 302.427 309.057 301.84C309.057 301.413 309.017 301.013 308.937 300.64C309.524 300.56 310.151 300.48 310.817 300.4C311.511 300.32 312.257 300.173 313.057 299.96C313.271 300.067 313.431 300.16 313.537 300.24C313.644 300.32 313.697 300.453 313.697 300.64C313.697 300.773 313.671 300.973 313.617 301.24L312.937 304.8H317.257C317.177 305.067 317.071 305.427 316.937 305.88C316.831 306.307 316.751 306.707 316.697 307.08C315.951 306.947 315.204 306.853 314.457 306.8C313.737 306.72 313.124 306.667 312.617 306.64L310.457 318.56C310.431 318.693 310.404 318.813 310.377 318.92C310.377 319 310.377 319.08 310.377 319.16C310.377 319.773 310.711 320.08 311.377 320.08C311.751 320.08 312.097 320.04 312.417 319.96C312.737 319.853 313.044 319.733 313.337 319.6C313.551 319.493 313.751 319.413 313.937 319.36C314.124 319.28 314.284 319.24 314.417 319.24C314.657 319.24 314.804 319.347 314.857 319.56C314.937 319.773 314.991 319.987 315.017 320.2C314.137 320.893 313.111 321.453 311.937 321.88C310.791 322.28 309.737 322.48 308.777 322.48C307.657 322.48 306.884 322.32 306.457 322C306.031 321.653 305.817 321.147 305.817 320.48C305.817 320.347 305.817 320.213 305.817 320.08C305.844 319.947 305.871 319.813 305.897 319.68L308.297 306.52H305.257C305.337 306.013 305.444 305.6 305.577 305.28C305.711 304.96 306.031 304.8 306.537 304.8H308.617L308.737 304.2ZM333.272 304.32C334.312 304.32 335.205 304.493 335.952 304.84C336.699 305.187 337.325 305.667 337.832 306.28C338.339 306.893 338.712 307.613 338.952 308.44C339.192 309.24 339.312 310.12 339.312 311.08C339.312 313 339.005 314.68 338.392 316.12C337.779 317.533 336.979 318.72 335.992 319.68C335.005 320.613 333.899 321.32 332.672 321.8C331.445 322.253 330.232 322.48 329.032 322.48C328.019 322.48 327.152 322.32 326.432 322C325.712 321.68 325.125 321.24 324.672 320.68C324.245 320.093 323.925 319.4 323.712 318.6C323.525 317.773 323.432 316.88 323.432 315.92C323.432 314.133 323.739 312.52 324.352 311.08C324.992 309.64 325.792 308.427 326.752 307.44C327.712 306.427 328.765 305.653 329.912 305.12C331.085 304.587 332.205 304.32 333.272 304.32ZM330.152 320.72C330.819 320.72 331.432 320.493 331.992 320.04C332.552 319.56 333.032 318.907 333.432 318.08C333.832 317.253 334.139 316.267 334.352 315.12C334.592 313.973 334.712 312.733 334.712 311.4C334.712 309.773 334.565 308.48 334.272 307.52C334.005 306.56 333.459 306.08 332.632 306.08C331.885 306.08 331.219 306.373 330.632 306.96C330.072 307.52 329.592 308.253 329.192 309.16C328.819 310.067 328.525 311.08 328.312 312.2C328.125 313.32 328.032 314.427 328.032 315.52C328.032 317.2 328.192 318.493 328.512 319.4C328.832 320.28 329.379 320.72 330.152 320.72ZM343.29 306.52H340.25C340.303 306.093 340.41 305.707 340.57 305.36C340.73 304.987 340.997 304.8 341.37 304.8H343.57L344.17 301.4C344.357 300.28 344.743 299.24 345.33 298.28C345.943 297.293 346.65 296.453 347.45 295.76C348.277 295.067 349.157 294.52 350.09 294.12C351.023 293.72 351.93 293.52 352.81 293.52C353.183 293.52 353.583 293.587 354.01 293.72C354.463 293.827 354.877 293.987 355.25 294.2C355.063 294.573 354.89 295.027 354.73 295.56C354.57 296.093 354.437 296.667 354.33 297.28L353.53 297.52C353.29 297.147 352.957 296.773 352.53 296.4C352.103 296 351.663 295.8 351.21 295.8C350.917 295.8 350.637 295.907 350.37 296.12C350.103 296.333 349.85 296.72 349.61 297.28C349.37 297.84 349.13 298.613 348.89 299.6C348.677 300.56 348.437 301.813 348.17 303.36L347.93 304.8H352.25C352.117 305.12 351.997 305.493 351.89 305.92C351.81 306.347 351.743 306.733 351.69 307.08C351.077 306.947 350.383 306.853 349.61 306.8C348.837 306.72 348.183 306.667 347.65 306.64L345.73 317.84C345.09 321.493 344.103 324.413 342.77 326.6C341.437 328.813 339.877 330.44 338.09 331.48C337.797 331.64 337.477 331.773 337.13 331.88C336.757 332.013 336.343 332.08 335.89 332.08C335.597 332.08 335.25 332.04 334.85 331.96C334.423 331.88 334.05 331.773 333.73 331.64C333.863 331.187 334.023 330.613 334.21 329.92C334.37 329.227 334.477 328.587 334.53 328L335.41 327.72C335.73 328.173 336.063 328.573 336.41 328.92C336.73 329.293 337.13 329.48 337.61 329.48C338.277 329.48 338.863 328.68 339.37 327.08C339.877 325.507 340.397 323.32 340.93 320.52L343.29 306.52ZM372.335 311.52L370.895 302.36L366.055 311.52H372.335ZM372.655 313.36H365.055L361.975 319C361.869 319.187 361.815 319.387 361.815 319.6C361.815 320.027 362.069 320.347 362.575 320.56C363.109 320.773 363.735 320.933 364.455 321.04C364.962 321.12 365.215 321.307 365.215 321.6C365.215 321.787 365.175 322.013 365.095 322.28C364.082 322.2 363.175 322.133 362.375 322.08C361.602 322.027 360.869 322 360.175 322C359.669 322 359.109 322.013 358.495 322.04C357.855 322.067 357.042 322.147 356.055 322.28C356.002 322.147 355.962 322.027 355.935 321.92C355.909 321.787 355.895 321.667 355.895 321.56C355.895 321.373 355.975 321.227 356.135 321.12C356.269 320.987 356.522 320.893 356.895 320.84C358.229 320.6 359.122 320.093 359.575 319.32L372.255 296.08C372.469 295.707 372.762 295.52 373.135 295.52C373.482 295.52 373.775 295.613 374.015 295.8L378.495 319.24C378.602 319.747 378.842 320.12 379.215 320.36C379.615 320.6 380.082 320.747 380.615 320.8C380.935 320.853 381.162 320.92 381.295 321C381.455 321.08 381.535 321.267 381.535 321.56C381.535 321.64 381.522 321.747 381.495 321.88C381.495 321.987 381.482 322.107 381.455 322.24C380.762 322.187 380.015 322.133 379.215 322.08C378.415 322.027 377.562 322 376.655 322C376.282 322 375.869 322 375.415 322C374.962 322.027 374.495 322.053 374.015 322.08C373.535 322.107 373.069 322.133 372.615 322.16C372.162 322.213 371.749 322.253 371.375 322.28C371.295 322.04 371.255 321.813 371.255 321.6C371.255 321.44 371.309 321.307 371.415 321.2C371.522 321.067 371.722 320.973 372.015 320.92C373.109 320.76 373.655 320.293 373.655 319.52C373.655 319.333 373.642 319.2 373.615 319.12L372.655 313.36ZM397.732 314.44C397.625 314.627 397.465 314.947 397.252 315.4C397.065 315.827 396.879 316.333 396.692 316.92C396.505 317.48 396.345 318.093 396.212 318.76C396.079 319.4 396.012 320.04 396.012 320.68C396.012 321.107 396.052 321.493 396.132 321.84C395.492 321.92 394.839 322.013 394.172 322.12C393.532 322.227 392.839 322.387 392.092 322.6C391.639 322.413 391.412 322.173 391.412 321.88C391.412 321.747 391.425 321.613 391.452 321.48C391.479 321.32 391.505 321.2 391.532 321.12L393.772 310.16C393.879 309.707 393.959 309.32 394.012 309C394.065 308.68 394.092 308.4 394.092 308.16C394.092 307.627 393.879 307.36 393.452 307.36C393.159 307.36 392.799 307.573 392.372 308C391.945 308.4 391.479 308.933 390.972 309.6C390.465 310.267 389.945 311.027 389.412 311.88C388.879 312.707 388.372 313.56 387.892 314.44C387.412 315.293 386.999 316.32 386.652 317.52C386.332 318.693 386.172 319.747 386.172 320.68C386.172 321.107 386.212 321.493 386.292 321.84C385.652 321.92 384.999 322.013 384.332 322.12C383.692 322.227 382.999 322.387 382.252 322.6C381.799 322.413 381.572 322.173 381.572 321.88C381.572 321.747 381.585 321.613 381.612 321.48C381.639 321.32 381.665 321.2 381.692 321.12L384.252 308.2C384.305 308.04 384.319 307.907 384.292 307.8C384.265 307.667 384.199 307.6 384.092 307.6C384.012 307.6 383.892 307.64 383.732 307.72C383.572 307.773 383.385 307.84 383.172 307.92C382.985 308 382.785 308.08 382.572 308.16C382.385 308.213 382.225 308.24 382.092 308.24C381.852 308.24 381.665 308.12 381.532 307.88C381.425 307.64 381.345 307.413 381.292 307.2C381.799 306.88 382.399 306.56 383.092 306.24C383.785 305.893 384.465 305.587 385.132 305.32C385.825 305.027 386.452 304.787 387.012 304.6C387.572 304.413 387.985 304.32 388.252 304.32C388.465 304.32 388.665 304.373 388.852 304.48C389.039 304.587 389.132 304.773 389.132 305.04C389.132 305.12 389.132 305.227 389.132 305.36C389.132 305.493 389.105 305.627 389.052 305.76L387.532 311.92L387.652 311.96C388.239 311 388.839 310.067 389.452 309.16C390.065 308.227 390.705 307.4 391.372 306.68C392.039 305.96 392.745 305.387 393.492 304.96C394.239 304.533 395.039 304.32 395.892 304.32C396.612 304.32 397.239 304.493 397.772 304.84C398.332 305.187 398.612 305.84 398.612 306.8C398.612 307.6 398.465 308.52 398.172 309.56L397.692 311.4L397.812 311.44C398.372 310.533 398.945 309.653 399.532 308.8C400.145 307.92 400.772 307.16 401.412 306.52C402.052 305.853 402.719 305.32 403.412 304.92C404.132 304.52 404.905 304.32 405.732 304.32C406.452 304.32 407.079 304.493 407.612 304.84C408.145 305.16 408.412 305.76 408.412 306.64C408.412 306.96 408.385 307.347 408.332 307.8C408.305 308.227 408.239 308.693 408.132 309.2L406.212 318.36C406.132 318.68 406.092 318.92 406.092 319.08C406.092 319.32 406.212 319.44 406.452 319.44C406.612 319.44 406.799 319.4 407.012 319.32C407.252 319.213 407.479 319.107 407.692 319C407.905 318.867 408.105 318.76 408.292 318.68C408.479 318.573 408.625 318.52 408.732 318.52C408.945 318.52 409.105 318.64 409.212 318.88C409.345 319.093 409.425 319.307 409.452 319.52C409.025 319.813 408.519 320.133 407.932 320.48C407.372 320.827 406.785 321.147 406.172 321.44C405.585 321.733 404.999 321.973 404.412 322.16C403.852 322.373 403.359 322.48 402.932 322.48C402.479 322.48 402.092 322.387 401.772 322.2C401.479 322.013 401.332 321.693 401.332 321.24C401.332 321.08 401.345 320.933 401.372 320.8C401.399 320.64 401.425 320.507 401.452 320.4L403.612 310.16C403.719 309.707 403.799 309.32 403.852 309C403.905 308.68 403.932 308.4 403.932 308.16C403.932 307.627 403.719 307.36 403.292 307.36C402.999 307.36 402.639 307.573 402.212 308C401.785 308.4 401.319 308.933 400.812 309.6C400.305 310.267 399.785 311.027 399.252 311.88C398.719 312.707 398.212 313.56 397.732 314.44ZM424.534 308.08C424.534 309.04 424.294 309.88 423.814 310.6C423.334 311.293 422.654 311.88 421.774 312.36C420.894 312.813 419.84 313.173 418.614 313.44C417.387 313.707 416.027 313.88 414.534 313.96C414.507 314.227 414.48 314.48 414.454 314.72C414.454 314.96 414.454 315.213 414.454 315.48C414.454 316.067 414.494 316.64 414.574 317.2C414.68 317.76 414.854 318.253 415.094 318.68C415.334 319.107 415.654 319.453 416.054 319.72C416.48 319.987 417.014 320.12 417.654 320.12C418.134 320.12 418.707 320.027 419.374 319.84C420.067 319.627 420.8 319.267 421.574 318.76C421.814 318.6 422 318.467 422.134 318.36C422.294 318.253 422.467 318.2 422.654 318.2C422.92 318.2 423.094 318.347 423.174 318.64C423.28 318.907 423.334 319.093 423.334 319.2C422.987 319.52 422.547 319.88 422.014 320.28C421.507 320.653 420.92 321 420.254 321.32C419.614 321.64 418.907 321.907 418.134 322.12C417.387 322.36 416.614 322.48 415.814 322.48C414.587 322.48 413.587 322.28 412.814 321.88C412.04 321.48 411.44 320.96 411.014 320.32C410.587 319.68 410.294 318.973 410.134 318.2C409.974 317.427 409.894 316.667 409.894 315.92C409.894 314.48 410.12 313.067 410.574 311.68C411.054 310.293 411.72 309.053 412.574 307.96C413.454 306.867 414.494 305.987 415.694 305.32C416.894 304.653 418.227 304.32 419.694 304.32C421.054 304.32 422.2 304.613 423.134 305.2C424.067 305.76 424.534 306.72 424.534 308.08ZM418.934 305.92C418.427 305.92 417.947 306.107 417.494 306.48C417.04 306.827 416.627 307.307 416.254 307.92C415.88 308.533 415.56 309.24 415.294 310.04C415.027 310.813 414.827 311.64 414.694 312.52C415.76 312.413 416.654 312.213 417.374 311.92C418.094 311.627 418.667 311.28 419.094 310.88C419.52 310.453 419.827 309.987 420.014 309.48C420.2 308.947 420.294 308.4 420.294 307.84C420.294 307.227 420.16 306.76 419.894 306.44C419.654 306.093 419.334 305.92 418.934 305.92ZM436.353 308.12C435.98 308.12 435.58 308.28 435.153 308.6C434.726 308.893 434.273 309.307 433.793 309.84C433.34 310.347 432.873 310.973 432.393 311.72C431.94 312.44 431.513 313.213 431.113 314.04C430.9 314.467 430.7 314.973 430.513 315.56C430.326 316.12 430.153 316.707 429.993 317.32C429.86 317.933 429.753 318.533 429.673 319.12C429.593 319.707 429.553 320.227 429.553 320.68C429.553 321.107 429.593 321.493 429.673 321.84C429.033 321.92 428.38 322.013 427.713 322.12C427.073 322.227 426.38 322.387 425.633 322.6C425.18 322.413 424.953 322.173 424.953 321.88C424.953 321.747 424.966 321.613 424.993 321.48C425.02 321.32 425.046 321.2 425.073 321.12L427.633 308.2C427.686 308.04 427.7 307.907 427.673 307.8C427.646 307.667 427.58 307.6 427.473 307.6C427.393 307.6 427.273 307.64 427.113 307.72C426.953 307.773 426.766 307.84 426.553 307.92C426.366 308 426.166 308.08 425.953 308.16C425.766 308.213 425.606 308.24 425.473 308.24C425.233 308.24 425.046 308.12 424.913 307.88C424.806 307.64 424.726 307.413 424.673 307.2C425.18 306.88 425.78 306.56 426.473 306.24C427.166 305.893 427.846 305.587 428.513 305.32C429.206 305.027 429.833 304.787 430.393 304.6C430.953 304.413 431.366 304.32 431.633 304.32C431.846 304.32 432.046 304.373 432.233 304.48C432.42 304.587 432.513 304.773 432.513 305.04C432.513 305.12 432.513 305.227 432.513 305.36C432.513 305.493 432.486 305.627 432.433 305.76L431.033 311.08L431.193 311.12C432.58 308.667 433.793 306.92 434.833 305.88C435.9 304.84 436.966 304.32 438.033 304.32C438.38 304.32 438.713 304.373 439.033 304.48C439.353 304.587 439.58 304.707 439.713 304.84C439.26 305.907 438.913 307.36 438.673 309.2H437.873C437.713 308.907 437.513 308.653 437.273 308.44C437.033 308.227 436.726 308.12 436.353 308.12ZM444.949 301C444.229 301 443.656 300.827 443.229 300.48C442.803 300.107 442.589 299.613 442.589 299C442.589 298.173 442.909 297.467 443.549 296.88C444.189 296.293 444.949 296 445.829 296C446.603 296 447.163 296.24 447.509 296.72C447.856 297.173 448.029 297.64 448.029 298.12C448.029 298.973 447.723 299.667 447.109 300.2C446.523 300.733 445.803 301 444.949 301ZM443.989 318.36C443.909 318.68 443.869 318.92 443.869 319.08C443.869 319.32 443.989 319.44 444.229 319.44C444.389 319.44 444.576 319.4 444.789 319.32C445.029 319.213 445.256 319.107 445.469 319C445.683 318.867 445.883 318.76 446.069 318.68C446.256 318.573 446.403 318.52 446.509 318.52C446.723 318.52 446.883 318.64 446.989 318.88C447.123 319.093 447.203 319.307 447.229 319.52C446.803 319.813 446.296 320.133 445.709 320.48C445.149 320.827 444.563 321.147 443.949 321.44C443.363 321.733 442.776 321.973 442.189 322.16C441.629 322.373 441.136 322.48 440.709 322.48C440.256 322.48 439.869 322.387 439.549 322.2C439.256 322.013 439.109 321.693 439.109 321.24C439.109 321.08 439.123 320.933 439.149 320.8C439.176 320.64 439.203 320.507 439.229 320.4L441.789 308.2C441.869 307.8 441.803 307.6 441.589 307.6C441.509 307.6 441.389 307.64 441.229 307.72C441.069 307.773 440.883 307.84 440.669 307.92C440.483 308 440.283 308.08 440.069 308.16C439.883 308.213 439.723 308.24 439.589 308.24C439.349 308.24 439.163 308.12 439.029 307.88C438.923 307.64 438.843 307.413 438.789 307.2C439.296 306.933 439.896 306.627 440.589 306.28C441.309 305.933 442.003 305.627 442.669 305.36C443.363 305.067 443.989 304.827 444.549 304.64C445.109 304.427 445.509 304.32 445.749 304.32C445.963 304.32 446.163 304.373 446.349 304.48C446.536 304.587 446.629 304.773 446.629 305.04C446.629 305.12 446.616 305.227 446.589 305.36C446.589 305.493 446.576 305.627 446.549 305.76L443.989 318.36ZM457.337 305.84C456.377 305.84 455.577 306.213 454.937 306.96C454.297 307.707 453.791 308.613 453.417 309.68C453.044 310.747 452.777 311.853 452.617 313C452.484 314.12 452.417 315.08 452.417 315.88C452.417 317.133 452.657 318.16 453.137 318.96C453.617 319.76 454.417 320.16 455.537 320.16C456.017 320.16 456.471 320.107 456.897 320C457.324 319.867 457.697 319.72 458.017 319.56C458.364 319.373 458.657 319.2 458.897 319.04C459.164 318.853 459.377 318.707 459.537 318.6C459.617 318.547 459.697 318.493 459.777 318.44C459.857 318.387 459.964 318.36 460.097 318.36C460.364 318.36 460.551 318.48 460.657 318.72C460.764 318.933 460.831 319.147 460.857 319.36C460.484 319.68 460.044 320.027 459.537 320.4C459.057 320.773 458.511 321.12 457.897 321.44C457.311 321.733 456.657 321.973 455.937 322.16C455.244 322.373 454.511 322.48 453.737 322.48C452.617 322.48 451.684 322.307 450.937 321.96C450.191 321.613 449.577 321.16 449.097 320.6C448.644 320.013 448.311 319.347 448.097 318.6C447.911 317.853 447.817 317.08 447.817 316.28C447.817 315 448.017 313.653 448.417 312.24C448.844 310.827 449.457 309.533 450.257 308.36C451.084 307.187 452.111 306.227 453.337 305.48C454.564 304.707 455.977 304.32 457.577 304.32C458.457 304.32 459.324 304.44 460.177 304.68C461.031 304.893 461.804 305.187 462.497 305.56C462.444 305.72 462.377 305.96 462.297 306.28C462.244 306.6 462.191 306.947 462.137 307.32C462.084 307.693 462.031 308.08 461.977 308.48C461.924 308.853 461.884 309.2 461.857 309.52L461.217 309.48C460.924 309.453 460.711 309.413 460.577 309.36C460.444 309.28 460.337 309.107 460.257 308.84C459.911 307.72 459.524 306.947 459.097 306.52C458.697 306.067 458.111 305.84 457.337 305.84ZM472.931 315.76L472.771 315.72C471.517 318.12 470.211 319.853 468.851 320.92C467.491 321.96 466.291 322.48 465.251 322.48C464.771 322.48 464.304 322.413 463.851 322.28C463.424 322.173 463.037 321.973 462.691 321.68C462.344 321.36 462.064 320.947 461.851 320.44C461.637 319.933 461.531 319.293 461.531 318.52C461.531 316.253 461.904 314.24 462.651 312.48C463.424 310.72 464.384 309.24 465.531 308.04C466.677 306.813 467.917 305.893 469.251 305.28C470.584 304.64 471.824 304.32 472.971 304.32C473.824 304.32 474.691 304.373 475.571 304.48C476.451 304.587 477.477 304.76 478.651 305L475.971 318.52C475.944 318.653 475.917 318.773 475.891 318.88C475.891 318.96 475.891 319.027 475.891 319.08C475.891 319.32 476.011 319.44 476.251 319.44C476.411 319.44 476.597 319.4 476.811 319.32C477.051 319.213 477.277 319.107 477.491 319C477.704 318.867 477.904 318.76 478.091 318.68C478.277 318.573 478.424 318.52 478.531 318.52C478.744 318.52 478.904 318.64 479.011 318.88C479.144 319.093 479.224 319.307 479.251 319.52C478.824 319.813 478.317 320.133 477.731 320.48C477.171 320.827 476.584 321.147 475.971 321.44C475.384 321.733 474.797 321.973 474.211 322.16C473.651 322.373 473.157 322.48 472.731 322.48C472.277 322.48 471.931 322.387 471.691 322.2C471.451 322.013 471.331 321.693 471.331 321.24C471.331 320.947 471.397 320.573 471.531 320.12L472.931 315.76ZM473.931 306.28C473.717 306.227 473.477 306.173 473.211 306.12C472.971 306.067 472.744 306.04 472.531 306.04C471.597 306.04 470.744 306.333 469.971 306.92C469.197 307.507 468.531 308.307 467.971 309.32C467.411 310.333 466.971 311.533 466.651 312.92C466.357 314.307 466.211 315.813 466.211 317.44C466.211 318.16 466.264 318.72 466.371 319.12C466.504 319.52 466.784 319.72 467.211 319.72C467.637 319.72 468.104 319.507 468.611 319.08C469.117 318.627 469.624 318.04 470.131 317.32C470.637 316.573 471.117 315.733 471.571 314.8C472.051 313.867 472.464 312.907 472.811 311.92C473.184 310.907 473.464 309.92 473.651 308.96C473.864 307.973 473.957 307.08 473.931 306.28Z" fill="#2C68AF"/>
</svg>
