<svg width="649" height="348" viewBox="0 0 649 348" fill="none" xmlns="http://www.w3.org/2000/svg">
<rect width="649" height="348" rx="41" fill="#F4F4F4"/>
<path d="M182.969 49.4971C184.15 49.4971 185.127 49.4238 185.898 49.2773C186.68 49.1211 187.295 48.877 187.744 48.5449C188.203 48.2129 188.521 47.793 188.696 47.2852C188.882 46.7676 188.975 46.123 188.975 45.3516C188.975 44.4336 188.887 43.7012 188.711 43.1543C188.535 42.5977 188.213 42.168 187.744 41.8652C187.275 41.5527 186.626 41.3428 185.796 41.2354C184.966 41.1182 183.892 41.0596 182.573 41.0596H180.42V49.4971H182.969ZM191.802 45.3809C191.802 46.5723 191.626 47.5635 191.274 48.3545C190.923 49.1357 190.376 49.7705 189.634 50.2588C188.901 50.7471 187.964 51.0986 186.821 51.3135C185.679 51.5283 184.316 51.6357 182.734 51.6357H181.343C181.05 51.6357 180.742 51.6309 180.42 51.6211V60H177.71V38.9502H182.236C184.131 38.9502 185.693 39.0576 186.924 39.2725C188.154 39.4775 189.131 39.8291 189.854 40.3271C190.576 40.8252 191.079 41.4844 191.362 42.3047C191.655 43.1152 191.802 44.1406 191.802 45.3809ZM207.706 58.1396C208.565 58.1396 209.317 58.0469 209.962 57.8613C210.606 57.6758 211.143 57.373 211.573 56.9531C212.003 56.5332 212.325 55.957 212.54 55.2246C212.764 54.4922 212.877 53.5791 212.877 52.4854V38.9502H215.66V52.6758C215.66 54.1895 215.46 55.4395 215.059 56.4258C214.669 57.4121 214.117 58.1982 213.404 58.7842C212.701 59.3604 211.861 59.7656 210.885 60C209.918 60.2344 208.863 60.3516 207.721 60.3516C206.539 60.3516 205.455 60.2344 204.469 60C203.482 59.7559 202.633 59.3408 201.92 58.7549C201.217 58.1592 200.67 57.3682 200.279 56.3818C199.888 55.3955 199.693 54.1553 199.693 52.6611V38.9502H202.491V52.4854C202.491 53.5791 202.589 54.4922 202.784 55.2246C202.989 55.957 203.302 56.5332 203.721 56.9531C204.151 57.373 204.693 57.6758 205.347 57.8613C206.012 58.0469 206.798 58.1396 207.706 58.1396ZM239.445 60H236.794L230.788 51.2109H227.858V60H225.104V38.9502H231.403C232.565 38.9502 233.6 39.0332 234.508 39.1992C235.426 39.3555 236.198 39.6582 236.823 40.1074C237.458 40.5469 237.941 41.1523 238.273 41.9238C238.605 42.6953 238.771 43.7012 238.771 44.9414C238.771 46.0742 238.615 47.0068 238.302 47.7393C238 48.4717 237.599 49.0625 237.101 49.5117C236.613 49.9512 236.056 50.2832 235.431 50.5078C234.806 50.7227 234.171 50.8691 233.527 50.9473L239.445 59.165V60ZM227.858 49.1602H231.139C232.116 49.1602 232.926 49.0967 233.571 48.9697C234.225 48.833 234.748 48.6084 235.138 48.2959C235.539 47.9834 235.822 47.5781 235.988 47.0801C236.154 46.5723 236.237 45.9424 236.237 45.1904C236.237 44.2822 236.149 43.5547 235.973 43.0078C235.797 42.4609 235.495 42.041 235.065 41.748C234.645 41.4453 234.074 41.2402 233.351 41.1328C232.638 41.0254 231.745 40.9717 230.671 40.9717H227.858V49.1602ZM247.38 60V38.9502H259.333L258.982 41.0742H250.149V48.1494H257.356V50.1855H250.149V57.876H259.304L258.967 60H247.38ZM337.747 60V38.9502H340.428V60H337.747ZM357.489 60.3516C356.307 60.3516 355.209 60.1855 354.193 59.8535C353.178 59.5117 352.294 58.916 351.542 58.0664C350.79 57.2168 350.194 56.0791 349.755 54.6533C349.325 53.2178 349.105 51.4502 349.096 49.3506C349.096 47.3193 349.31 45.6152 349.74 44.2383C350.179 42.8613 350.785 41.7529 351.556 40.9131C352.338 40.0635 353.256 39.458 354.31 39.0967C355.375 38.7354 356.532 38.5547 357.782 38.5547C358.573 38.5547 359.305 38.6035 359.979 38.7012C360.663 38.7891 361.254 38.8867 361.752 38.9941C362.338 39.1211 362.865 39.2627 363.334 39.4189L363.568 41.6895C363.08 41.5137 362.543 41.3525 361.957 41.2061C361.459 41.0986 360.878 40.9961 360.214 40.8984C359.55 40.8008 358.842 40.752 358.09 40.752C357.142 40.752 356.293 40.8984 355.541 41.1914C354.789 41.4844 354.149 41.9629 353.622 42.627C353.095 43.291 352.689 44.165 352.406 45.249C352.133 46.3232 351.996 47.6807 351.996 49.3213C352.006 50.874 352.128 52.2217 352.362 53.3643C352.606 54.4971 352.968 55.4199 353.446 56.1328C353.934 56.8359 354.54 57.3486 355.262 57.6709C355.995 57.9932 356.845 58.1494 357.811 58.1396C358.622 58.1494 359.374 58.1055 360.067 58.0078C360.761 57.9004 361.371 57.7686 361.898 57.6123C362.504 57.4561 363.06 57.2803 363.568 57.085L363.319 59.3701C362.841 59.5557 362.299 59.7217 361.693 59.8682C361.176 59.9951 360.56 60.1074 359.847 60.2051C359.135 60.3027 358.348 60.3516 357.489 60.3516ZM384.702 50.083H374.462V60H371.753V38.9502H374.462V48.0322H384.702V38.9502H387.412V60H384.702V50.083ZM397.046 60V38.9502H399.727V60H397.046ZM422.809 59.9414L422.252 57.876C421.93 58.335 421.515 58.7451 421.007 59.1064C420.577 59.4385 420.016 59.7314 419.322 59.9854C418.629 60.2295 417.794 60.3516 416.818 60.3516C415.626 60.3516 414.513 60.1514 413.478 59.751C412.443 59.3408 411.544 58.7012 410.782 57.832C410.021 56.9629 409.42 55.835 408.981 54.4482C408.551 53.0615 408.336 51.3916 408.336 49.4385C408.336 48.042 408.453 46.7969 408.688 45.7031C408.922 44.6094 409.249 43.6621 409.669 42.8613C410.089 42.0605 410.587 41.3818 411.163 40.8252C411.739 40.2686 412.369 39.8242 413.053 39.4922C413.737 39.1504 414.459 38.9111 415.221 38.7744C415.992 38.6279 416.779 38.5547 417.579 38.5547C418.341 38.5547 419.054 38.6084 419.718 38.7158C420.382 38.8232 420.968 38.9453 421.476 39.082C422.062 39.2383 422.604 39.4092 423.102 39.5947L423.307 41.8359C422.819 41.6406 422.277 41.46 421.681 41.2939C421.173 41.1475 420.572 41.0205 419.879 40.9131C419.196 40.8057 418.453 40.752 417.653 40.752C416.588 40.752 415.655 40.9229 414.855 41.2646C414.054 41.5967 413.385 42.0996 412.848 42.7734C412.311 43.4375 411.905 44.292 411.632 45.3369C411.368 46.3721 411.237 47.6025 411.237 49.0283C411.237 50.542 411.344 51.875 411.559 53.0273C411.774 54.1699 412.115 55.1221 412.584 55.8838C413.053 56.6455 413.658 57.2119 414.401 57.583C415.143 57.9541 416.036 58.1396 417.081 58.1396C417.872 58.1396 418.571 58.042 419.176 57.8467C419.791 57.6514 420.309 57.4414 420.729 57.2168C421.217 56.9531 421.642 56.6455 422.003 56.2939V51.0791L419.879 51.1377H418.033L417.755 49.1162H424.332V59.9414H422.809ZM435.329 55.21L433.879 60H431.022L437.995 38.9502H440.939L447.897 60H445.026L443.591 55.21H435.329ZM435.812 53.5693H443.093L439.475 41.792L435.812 53.5693ZM457.986 43.1836V60H455.408V38.9502H458.191L469.192 55.7666V38.9502H471.77V60L469.104 59.9854L457.986 43.1836Z" fill="#2C68AF"/>
<path fill-rule="evenodd" clip-rule="evenodd" d="M649 275.037V307C649 329.644 630.644 348 608 348H41C18.3563 348 0 329.644 0 307V280.816C129.307 302.686 205.18 298.726 515 275.5C572.781 271.168 616.374 271.864 649 275.037Z" fill="#526FB2"/>
<path d="M314.5 17C297.493 16.9981 261.5 66 256 79C256 82 257 81.0001 259 81.0001C262 74.0001 299.5 24.4182 308 23.5001C313.668 22.8879 294.5 62.0001 294.5 69.0001C294.5 76.0001 322 40.5001 326.5 34.0001C328.5 31.1112 322.5 51.001 324.5 63.5001C326.003 72.8938 340.5 67.6471 339.5 67.0001C322.5 56.001 337 29.001 333.5 25.5001C326 23.0001 307.5 52.5 302 57.5C296.5 62.5 322.5 17.0009 314.5 17Z" fill="#2C68AF"/>
<path d="M278.555 329V319.16C278.555 318.05 278.28 317.185 277.73 316.565C277.18 315.935 276.435 315.62 275.495 315.62C274.915 315.62 274.395 315.755 273.935 316.025C273.475 316.285 273.11 316.675 272.84 317.195C272.57 317.705 272.435 318.315 272.435 319.025L270.83 318.08C270.82 316.96 271.07 315.975 271.58 315.125C272.1 314.265 272.8 313.595 273.68 313.115C274.56 312.635 275.54 312.395 276.62 312.395C278.41 312.395 279.78 312.935 280.73 314.015C281.69 315.085 282.17 316.495 282.17 318.245V329H278.555ZM259.07 329V312.8H262.265V317.825H262.715V329H259.07ZM268.835 329V319.205C268.835 318.075 268.56 317.195 268.01 316.565C267.46 315.935 266.71 315.62 265.76 315.62C264.84 315.62 264.1 315.935 263.54 316.565C262.99 317.195 262.715 318.015 262.715 319.025L261.095 317.945C261.095 316.895 261.355 315.95 261.875 315.11C262.395 314.27 263.095 313.61 263.975 313.13C264.865 312.64 265.86 312.395 266.96 312.395C268.17 312.395 269.18 312.655 269.99 313.175C270.81 313.685 271.42 314.385 271.82 315.275C272.23 316.155 272.435 317.15 272.435 318.26V329H268.835ZM286.382 310.34V307.025H289.997V310.34H286.382ZM286.382 329V312.8H289.997V329H286.382ZM301.526 329.45C299.856 329.45 298.431 329.08 297.251 328.34C296.071 327.59 295.166 326.57 294.536 325.28C293.916 323.99 293.601 322.53 293.591 320.9C293.601 319.24 293.926 317.77 294.566 316.49C295.216 315.2 296.136 314.19 297.326 313.46C298.516 312.72 299.931 312.35 301.571 312.35C303.411 312.35 304.966 312.815 306.236 313.745C307.516 314.665 308.351 315.925 308.741 317.525L305.141 318.5C304.861 317.63 304.396 316.955 303.746 316.475C303.096 315.985 302.356 315.74 301.526 315.74C300.586 315.74 299.811 315.965 299.201 316.415C298.591 316.855 298.141 317.465 297.851 318.245C297.561 319.025 297.416 319.91 297.416 320.9C297.416 322.44 297.761 323.685 298.451 324.635C299.141 325.585 300.166 326.06 301.526 326.06C302.486 326.06 303.241 325.84 303.791 325.4C304.351 324.96 304.771 324.325 305.051 323.495L308.741 324.32C308.241 325.97 307.366 327.24 306.116 328.13C304.866 329.01 303.336 329.45 301.526 329.45ZM322.951 329V321.2C322.951 320.69 322.916 320.125 322.846 319.505C322.776 318.885 322.611 318.29 322.351 317.72C322.101 317.14 321.721 316.665 321.211 316.295C320.711 315.925 320.031 315.74 319.171 315.74C318.711 315.74 318.256 315.815 317.806 315.965C317.356 316.115 316.946 316.375 316.576 316.745C316.216 317.105 315.926 317.605 315.706 318.245C315.486 318.875 315.376 319.685 315.376 320.675L313.231 319.76C313.231 318.38 313.496 317.13 314.026 316.01C314.566 314.89 315.356 314 316.396 313.34C317.436 312.67 318.716 312.335 320.236 312.335C321.436 312.335 322.426 312.535 323.206 312.935C323.986 313.335 324.606 313.845 325.066 314.465C325.526 315.085 325.866 315.745 326.086 316.445C326.306 317.145 326.446 317.81 326.506 318.44C326.576 319.06 326.611 319.565 326.611 319.955V329H322.951ZM311.716 329V307.4H314.941V318.77H315.376V329H311.716ZM330.826 310.34V307.025H334.441V310.34H330.826ZM330.826 329V312.8H334.441V329H330.826ZM345.744 336.65C344.844 336.65 343.979 336.51 343.149 336.23C342.329 335.95 341.589 335.545 340.929 335.015C340.269 334.495 339.729 333.865 339.309 333.125L342.639 331.475C342.949 332.065 343.384 332.5 343.944 332.78C344.514 333.07 345.119 333.215 345.759 333.215C346.509 333.215 347.179 333.08 347.769 332.81C348.359 332.55 348.814 332.16 349.134 331.64C349.464 331.13 349.619 330.49 349.599 329.72V325.115H350.049V312.8H353.214V329.78C353.214 330.19 353.194 330.58 353.154 330.95C353.124 331.33 353.069 331.7 352.989 332.06C352.749 333.11 352.289 333.97 351.609 334.64C350.929 335.32 350.084 335.825 349.074 336.155C348.074 336.485 346.964 336.65 345.744 336.65ZM345.429 329.45C343.939 329.45 342.639 329.075 341.529 328.325C340.419 327.575 339.559 326.555 338.949 325.265C338.339 323.975 338.034 322.52 338.034 320.9C338.034 319.26 338.339 317.8 338.949 316.52C339.569 315.23 340.444 314.215 341.574 313.475C342.704 312.725 344.034 312.35 345.564 312.35C347.104 312.35 348.394 312.725 349.434 313.475C350.484 314.215 351.279 315.23 351.819 316.52C352.359 317.81 352.629 319.27 352.629 320.9C352.629 322.51 352.359 323.965 351.819 325.265C351.279 326.555 350.474 327.575 349.404 328.325C348.334 329.075 347.009 329.45 345.429 329.45ZM345.984 326.21C346.954 326.21 347.734 325.99 348.324 325.55C348.924 325.1 349.359 324.475 349.629 323.675C349.909 322.875 350.049 321.95 350.049 320.9C350.049 319.84 349.909 318.915 349.629 318.125C349.359 317.325 348.934 316.705 348.354 316.265C347.774 315.815 347.024 315.59 346.104 315.59C345.134 315.59 344.334 315.83 343.704 316.31C343.074 316.78 342.609 317.42 342.309 318.23C342.009 319.03 341.859 319.92 341.859 320.9C341.859 321.89 342.004 322.79 342.294 323.6C342.594 324.4 343.049 325.035 343.659 325.505C344.269 325.975 345.044 326.21 345.984 326.21ZM361.95 329.45C360.78 329.45 359.79 329.23 358.98 328.79C358.17 328.34 357.555 327.745 357.135 327.005C356.725 326.265 356.52 325.45 356.52 324.56C356.52 323.78 356.65 323.08 356.91 322.46C357.17 321.83 357.57 321.29 358.11 320.84C358.65 320.38 359.35 320.005 360.21 319.715C360.86 319.505 361.62 319.315 362.49 319.145C363.37 318.975 364.32 318.82 365.34 318.68C366.37 318.53 367.445 318.37 368.565 318.2L367.275 318.935C367.285 317.815 367.035 316.99 366.525 316.46C366.015 315.93 365.155 315.665 363.945 315.665C363.215 315.665 362.51 315.835 361.83 316.175C361.15 316.515 360.675 317.1 360.405 317.93L357.105 316.895C357.505 315.525 358.265 314.425 359.385 313.595C360.515 312.765 362.035 312.35 363.945 312.35C365.385 312.35 366.65 312.585 367.74 313.055C368.84 313.525 369.655 314.295 370.185 315.365C370.475 315.935 370.65 316.52 370.71 317.12C370.77 317.71 370.8 318.355 370.8 319.055V329H367.635V325.49L368.16 326.06C367.43 327.23 366.575 328.09 365.595 328.64C364.625 329.18 363.41 329.45 361.95 329.45ZM362.67 326.57C363.49 326.57 364.19 326.425 364.77 326.135C365.35 325.845 365.81 325.49 366.15 325.07C366.5 324.65 366.735 324.255 366.855 323.885C367.045 323.425 367.15 322.9 367.17 322.31C367.2 321.71 367.215 321.225 367.215 320.855L368.325 321.185C367.235 321.355 366.3 321.505 365.52 321.635C364.74 321.765 364.07 321.89 363.51 322.01C362.95 322.12 362.455 322.245 362.025 322.385C361.605 322.535 361.25 322.71 360.96 322.91C360.67 323.11 360.445 323.34 360.285 323.6C360.135 323.86 360.06 324.165 360.06 324.515C360.06 324.915 360.16 325.27 360.36 325.58C360.56 325.88 360.85 326.12 361.23 326.3C361.62 326.48 362.1 326.57 362.67 326.57ZM385.91 329V321.2C385.91 320.69 385.875 320.125 385.805 319.505C385.735 318.885 385.57 318.29 385.31 317.72C385.06 317.14 384.68 316.665 384.17 316.295C383.67 315.925 382.99 315.74 382.13 315.74C381.67 315.74 381.215 315.815 380.765 315.965C380.315 316.115 379.905 316.375 379.535 316.745C379.175 317.105 378.885 317.605 378.665 318.245C378.445 318.875 378.335 319.685 378.335 320.675L376.19 319.76C376.19 318.38 376.455 317.13 376.985 316.01C377.525 314.89 378.315 314 379.355 313.34C380.395 312.67 381.675 312.335 383.195 312.335C384.395 312.335 385.385 312.535 386.165 312.935C386.945 313.335 387.565 313.845 388.025 314.465C388.485 315.085 388.825 315.745 389.045 316.445C389.265 317.145 389.405 317.81 389.465 318.44C389.535 319.06 389.57 319.565 389.57 319.955V329H385.91ZM374.675 329V312.8H377.9V317.825H378.335V329H374.675Z" fill="white"/>
</svg>
