<svg width="645" height="348" viewBox="0 0 645 348" fill="none" xmlns="http://www.w3.org/2000/svg">
<rect width="649" height="348" rx="41" fill="#F9F9F9"/>
<path fill-rule="evenodd" clip-rule="evenodd" d="M605.286 348H43.7137C78.0135 295.507 190.735 257 324.5 257C458.265 257 570.987 295.507 605.286 348Z" fill="url(#paint0_radial_1057_531)"/>
<path d="M252.02 336H240.8V333.87L243.71 331.59V321.75L240.2 320.91L241.4 318.51H252.62V320.64L249.71 322.92V332.76L253.22 333.6L252.02 336ZM265.48 318.21C267.3 318.21 268.92 318.58 270.34 319.32C271.78 320.06 272.89 321.08 273.67 322.38C274.47 323.68 274.87 325.13 274.87 326.73C274.87 328.45 274.26 330.05 273.04 331.53C271.84 332.99 270.34 334.15 268.54 335.01C266.74 335.87 265.01 336.3 263.35 336.3C261.53 336.3 259.91 335.93 258.49 335.19C257.07 334.45 255.96 333.43 255.16 332.13C254.36 330.83 253.96 329.38 253.96 327.78C253.96 326.06 254.56 324.47 255.76 323.01C256.98 321.53 258.49 320.36 260.29 319.5C262.09 318.64 263.82 318.21 265.48 318.21ZM263.74 321.93C261.54 321.93 260.44 323.4 260.44 326.34C260.44 328.14 260.84 329.63 261.64 330.81C262.44 331.99 263.59 332.58 265.09 332.58C267.29 332.58 268.39 331.1 268.39 328.14C268.39 326.34 267.99 324.86 267.19 323.7C266.39 322.52 265.24 321.93 263.74 321.93ZM277.656 343.92L275.316 342.12C276.156 341.12 276.786 340.25 277.206 339.51C277.646 338.77 277.956 338 278.136 337.2L275.406 335.43V333.3L282.336 330.63L284.616 336.6L277.656 343.92ZM296.59 318.21C298.41 318.21 300.03 318.58 301.45 319.32C302.89 320.06 304 321.08 304.78 322.38C305.58 323.68 305.98 325.13 305.98 326.73C305.98 328.45 305.37 330.05 304.15 331.53C302.95 332.99 301.45 334.15 299.65 335.01C297.85 335.87 296.12 336.3 294.46 336.3C292.64 336.3 291.02 335.93 289.6 335.19C288.18 334.45 287.07 333.43 286.27 332.13C285.47 330.83 285.07 329.38 285.07 327.78C285.07 326.06 285.67 324.47 286.87 323.01C288.09 321.53 289.6 320.36 291.4 319.5C293.2 318.64 294.93 318.21 296.59 318.21ZM294.85 321.93C292.65 321.93 291.55 323.4 291.55 326.34C291.55 328.14 291.95 329.63 292.75 330.81C293.55 331.99 294.7 332.58 296.2 332.58C298.4 332.58 299.5 331.1 299.5 328.14C299.5 326.34 299.1 324.86 298.3 323.7C297.5 322.52 296.35 321.93 294.85 321.93ZM318.546 318.21C320.366 318.21 321.986 318.58 323.406 319.32C324.846 320.06 325.956 321.08 326.736 322.38C327.536 323.68 327.936 325.13 327.936 326.73C327.936 328.45 327.326 330.05 326.106 331.53C324.906 332.99 323.406 334.15 321.606 335.01C319.806 335.87 318.076 336.3 316.416 336.3C314.596 336.3 312.976 335.93 311.556 335.19C310.136 334.45 309.026 333.43 308.226 332.13C307.426 330.83 307.026 329.38 307.026 327.78C307.026 326.06 307.626 324.47 308.826 323.01C310.046 321.53 311.556 320.36 313.356 319.5C315.156 318.64 316.886 318.21 318.546 318.21ZM316.806 321.93C314.606 321.93 313.506 323.4 313.506 326.34C313.506 328.14 313.906 329.63 314.706 330.81C315.506 331.99 316.656 332.58 318.156 332.58C320.356 332.58 321.456 331.1 321.456 328.14C321.456 326.34 321.056 324.86 320.256 323.7C319.456 322.52 318.306 321.93 316.806 321.93ZM340.502 318.21C342.322 318.21 343.942 318.58 345.362 319.32C346.802 320.06 347.912 321.08 348.692 322.38C349.492 323.68 349.892 325.13 349.892 326.73C349.892 328.45 349.282 330.05 348.062 331.53C346.862 332.99 345.362 334.15 343.562 335.01C341.762 335.87 340.032 336.3 338.372 336.3C336.552 336.3 334.932 335.93 333.512 335.19C332.092 334.45 330.982 333.43 330.182 332.13C329.382 330.83 328.982 329.38 328.982 327.78C328.982 326.06 329.582 324.47 330.782 323.01C332.002 321.53 333.512 320.36 335.312 319.5C337.112 318.64 338.842 318.21 340.502 318.21ZM338.762 321.93C336.562 321.93 335.462 323.4 335.462 326.34C335.462 328.14 335.862 329.63 336.662 330.81C337.462 331.99 338.612 332.58 340.112 332.58C342.312 332.58 343.412 331.1 343.412 328.14C343.412 326.34 343.012 324.86 342.212 323.7C341.412 322.52 340.262 321.93 338.762 321.93ZM366.488 336H356.318V333.87L358.988 331.53V316.35L356.318 314.61V312.48L362.648 309.81H364.988V332.76L367.688 333.6L366.488 336ZM385.25 336H377.75V333.39L374.36 336.06C373.96 336.22 373.46 336.3 372.86 336.3C370.82 336.3 369.34 335.81 368.42 334.83C367.52 333.83 367.07 332.63 367.07 331.23C367.07 330.43 367.3 329.65 367.76 328.89C368.22 328.11 368.89 327.39 369.77 326.73H377.75C377.69 325.85 377.39 325.19 376.85 324.75C376.31 324.29 375.63 324.06 374.81 324.06C373.43 324.06 371.41 324.48 368.75 325.32L367.85 323.28L371.96 319.98C373.06 319.6 374.38 319.41 375.92 319.41C378.4 319.41 380.33 319.96 381.71 321.06C383.09 322.14 383.78 323.73 383.78 325.83V332.55L386.45 333.6L385.25 336ZM374.69 331.35C375.57 331.35 376.59 331.01 377.75 330.33V329.16H373.19C373.09 329.34 373.02 329.5 372.98 329.64C372.94 329.76 372.92 329.92 372.92 330.12C372.92 330.5 373.07 330.8 373.37 331.02C373.69 331.24 374.14 331.35 374.72 331.35H374.69ZM396.512 333.6L395.312 336H385.142V333.87L387.812 331.53V316.35L385.142 314.61V312.48L391.472 309.81H393.812V332.76L396.512 333.6ZM406.142 336H399.272L394.832 327.9L399.872 324.03L395.762 322.11L396.962 319.71H406.532V321.84L400.772 326.43L404.282 332.43L407.342 333.6L406.142 336ZM416.913 319.41C419.133 319.41 420.853 320.24 422.073 321.9C423.293 323.56 423.873 325.92 423.813 328.98H413.223C413.463 329.9 413.863 330.63 414.423 331.17C414.983 331.69 415.693 331.95 416.553 331.95C417.973 331.95 420.093 331.43 422.913 330.39L423.813 332.43L419.703 335.73C418.343 336.11 416.713 336.3 414.813 336.3C413.253 336.3 411.853 335.96 410.613 335.28C409.393 334.58 408.433 333.63 407.733 332.43C407.053 331.21 406.713 329.86 406.713 328.38C406.713 326.78 407.243 325.29 408.303 323.91C409.363 322.53 410.693 321.44 412.293 320.64C413.893 319.82 415.443 319.41 416.943 319.41H416.913ZM415.323 323.43C414.583 323.43 414.023 323.69 413.643 324.21C413.263 324.71 413.053 325.49 413.013 326.55H417.963C417.863 325.49 417.603 324.71 417.183 324.21C416.763 323.69 416.133 323.43 415.293 323.43H415.323ZM432.6 331.86C432.6 331.58 432.37 331.28 431.91 330.96C431.47 330.62 430.76 330.16 429.78 329.58C428.2 328.66 426.97 327.83 426.09 327.09C425.21 326.35 424.77 325.53 424.77 324.63C424.77 323.91 425.14 323.14 425.88 322.32C426.62 321.5 427.52 320.81 428.58 320.25C429.66 319.69 430.65 319.41 431.55 319.41C432.65 319.41 433.93 319.53 435.39 319.77C436.85 319.99 437.91 320.24 438.57 320.52V325.74H436.23C435.75 324.9 435.16 324.24 434.46 323.76C433.76 323.26 433.05 323.01 432.33 323.01C432.05 323.01 431.83 323.09 431.67 323.25C431.53 323.41 431.46 323.61 431.46 323.85C431.46 324.17 431.69 324.51 432.15 324.87C432.63 325.21 433.38 325.68 434.4 326.28C435.94 327.16 437.14 327.96 438 328.68C438.86 329.4 439.29 330.2 439.29 331.08C439.29 331.82 438.91 332.6 438.15 333.42C437.39 334.22 436.46 334.9 435.36 335.46C434.26 336.02 433.25 336.3 432.33 336.3C431.17 336.3 429.79 336.19 428.19 335.97C426.59 335.73 425.44 335.47 424.74 335.19V329.67H427.08C427.64 330.61 428.33 331.35 429.15 331.89C429.97 332.43 430.78 332.7 431.58 332.7C431.88 332.7 432.12 332.62 432.3 332.46C432.5 332.3 432.6 332.1 432.6 331.86Z" fill="#05568E"/>
<path fill-rule="evenodd" clip-rule="evenodd" d="M0 67.5359L185.614 63.4463L215.06 65.1446L238.277 70.2397L242.241 73.6364L238.277 77.5992L236.012 83.2603L238.277 86.0909H244.506H256.398L272.819 88.3554L302.265 95.1488L322.651 100.81L349.265 111L362.289 106.471V100.81L349.265 98.5454L347.566 95.1488L349.265 92.8843L379.843 95.1488H397.964L398.53 91.7521L397.964 88.9215L388.904 87.7893L373.048 86.657H345.301H336.241L332.277 85.5248L331.145 82.6942L334.542 79.8636L341.337 78.7314L354.928 77.5992L413.253 78.1653L447.229 81.562L513.482 90.0537L541.795 98.5454H563.88L583.699 91.7521L585.398 88.3554V83.8264L581.434 80.4297L576.337 77.5992L567.843 74.2025L563.88 72.5041V69.6735L566.145 66.843L574.072 64.0124L593.325 61.7479H649V41C649 18.3563 630.644 0 608 0H41C18.3563 0 0 18.3563 0 41V67.5359Z" fill="url(#paint1_linear_1057_531)"/>
<path d="M243.564 48H228.66V46.114L232.984 42.71V18.606L221.024 48H217.942L205.982 18.422V43.446L210.904 45.7L209.754 48H198.53V46.114L202.854 42.71V16.49L197.978 14.144L199.128 11.844H210.26L221.346 39.444L232.386 11.844H244.116V13.73L239.746 17.134V44.182L244.714 45.7L243.564 48ZM260.381 48H246.857V46.114L250.951 42.802V30.474L246.857 27.668V25.782L255.183 22.562H257.391V44.182L261.531 45.7L260.381 48ZM254.033 8.716C255.106 8.716 255.996 9.09933 256.701 9.866C257.406 10.602 257.759 11.522 257.759 12.626C257.759 13.3927 257.498 14.1287 256.977 14.834C256.486 15.5087 255.858 16.0453 255.091 16.444C254.355 16.8427 253.634 17.042 252.929 17.042C251.856 17.042 250.966 16.674 250.261 15.938C249.556 15.202 249.203 14.282 249.203 13.178C249.203 12.3807 249.448 11.6447 249.939 10.97C250.46 10.2953 251.089 9.75867 251.825 9.36C252.592 8.93067 253.328 8.716 254.033 8.716ZM292.234 48H282.804V32.82C282.804 31.1947 282.559 30.0753 282.068 29.462C281.577 28.818 280.719 28.496 279.492 28.496C278.572 28.496 277.652 28.6493 276.732 28.956C275.812 29.2627 274.769 29.8453 273.604 30.704V44.182L277.744 45.7L276.594 48H263.07V46.114L267.164 42.802V30.842L263.07 28.358V26.472L271.626 22.562L273.236 28.266L279.446 23.344C280.09 23.0987 280.979 22.976 282.114 22.976C284.291 22.976 286.024 23.62 287.312 24.908C288.6 26.1653 289.244 27.8827 289.244 30.06V44.182L293.384 45.7L292.234 48ZM323.676 48H314.246V32.82C314.246 31.1947 314.001 30.0753 313.51 29.462C313.019 28.818 312.161 28.496 310.934 28.496C310.014 28.496 309.094 28.6493 308.174 28.956C307.254 29.2627 306.211 29.8453 305.046 30.704V44.182L309.186 45.7L308.036 48H294.512V46.114L298.606 42.802V30.842L294.512 28.358V26.472L303.068 22.562L304.678 28.266L310.888 23.344C311.532 23.0987 312.421 22.976 313.556 22.976C315.733 22.976 317.466 23.62 318.754 24.908C320.042 26.1653 320.686 27.8827 320.686 30.06V44.182L324.826 45.7L323.676 48ZM342.701 47.954C341.29 48.2913 339.557 48.46 337.503 48.46C335.387 48.46 333.485 47.9387 331.799 46.896C330.143 45.8227 328.839 44.3813 327.889 42.572C326.938 40.732 326.463 38.708 326.463 36.5C326.463 34.108 327.199 31.8847 328.671 29.83C330.173 27.7447 332.044 26.0887 334.283 24.862C336.521 23.6047 338.683 22.976 340.769 22.976C343.805 22.976 346.166 24.1567 347.853 26.518C349.539 28.8793 350.367 32.0533 350.337 36.04H333.455C333.7 38.3707 334.39 40.2567 335.525 41.698C336.69 43.1393 338.254 43.86 340.217 43.86C342.271 43.86 345.215 42.4953 349.049 39.766L350.383 41.882L342.701 47.954ZM338.147 27.392C335.111 27.392 333.516 29.4927 333.363 33.694H343.345C343.099 32.1913 342.823 31.026 342.517 30.198C342.241 29.3393 341.75 28.6647 341.045 28.174C340.37 27.6527 339.404 27.392 338.147 27.392ZM367.927 42.664C367.927 41.928 367.467 41.2227 366.547 40.548C365.657 39.8733 364.293 39.0453 362.453 38.064C360.061 36.776 358.221 35.626 356.933 34.614C355.645 33.5713 355.001 32.36 355.001 30.98C355.001 29.876 355.491 28.6953 356.473 27.438C357.454 26.1807 358.65 25.1227 360.061 24.264C361.502 23.4053 362.821 22.976 364.017 22.976C365.489 22.976 367.191 23.16 369.123 23.528C371.085 23.8653 372.511 24.2487 373.401 24.678V31.992H371.193C370.303 30.244 369.23 28.8793 367.973 27.898C366.746 26.9167 365.489 26.426 364.201 26.426C363.373 26.426 362.713 26.656 362.223 27.116C361.732 27.5453 361.487 28.082 361.487 28.726C361.487 29.554 361.947 30.3207 362.867 31.026C363.817 31.7313 365.243 32.59 367.145 33.602C368.739 34.4607 369.997 35.1967 370.917 35.81C371.867 36.3927 372.68 37.0827 373.355 37.88C374.029 38.6467 374.367 39.5053 374.367 40.456C374.367 41.5907 373.845 42.7867 372.803 44.044C371.791 45.2707 370.549 46.3133 369.077 47.172C367.635 48.0307 366.301 48.46 365.075 48.46C363.48 48.46 361.594 48.2913 359.417 47.954C357.27 47.586 355.737 47.1873 354.817 46.758V39.306H357.025C358.037 41.1153 359.248 42.526 360.659 43.538C362.1 44.5193 363.541 45.01 364.983 45.01C365.841 45.01 366.547 44.78 367.099 44.32C367.651 43.86 367.927 43.308 367.927 42.664ZM392.288 22.976C394.404 22.976 396.305 23.5127 397.992 24.586C399.679 25.6287 400.982 27.0547 401.902 28.864C402.853 30.6733 403.328 32.682 403.328 34.89C403.328 37.282 402.577 39.5207 401.074 41.606C399.602 43.6913 397.747 45.3627 395.508 46.62C393.269 47.8467 391.107 48.46 389.022 48.46C386.906 48.46 385.005 47.9387 383.318 46.896C381.662 45.8227 380.359 44.3813 379.408 42.572C378.457 40.732 377.982 38.708 377.982 36.5C377.982 34.108 378.718 31.8847 380.19 29.83C381.693 27.7447 383.563 26.0887 385.802 24.862C388.041 23.6047 390.203 22.976 392.288 22.976ZM389.62 27.392C388.087 27.392 386.921 27.9747 386.124 29.14C385.357 30.3053 384.974 32.0227 384.974 34.292C384.974 37.0827 385.557 39.398 386.722 41.238C387.887 43.078 389.543 43.998 391.69 43.998C394.818 43.998 396.382 41.6827 396.382 37.052C396.382 34.292 395.799 31.992 394.634 30.152C393.469 28.312 391.797 27.392 389.62 27.392ZM420.609 48.092C419.781 48.3373 418.769 48.46 417.573 48.46C414.843 48.46 412.85 47.8007 411.593 46.482C410.366 45.1327 409.753 43.0627 409.753 40.272V27.162H404.785V25.046L413.985 14.65H416.193V24.816H424.473V27.162H416.193V40.456C416.193 41.6827 416.484 42.572 417.067 43.124C417.68 43.676 418.585 43.952 419.781 43.952C420.425 43.952 421.038 43.8447 421.621 43.63C422.234 43.3847 422.985 42.94 423.875 42.296L425.255 44.412L420.609 48.092ZM451.139 48H441.709V43.998L436.511 48.092C435.898 48.3373 435.131 48.46 434.211 48.46C431.451 48.46 429.442 47.7853 428.185 46.436C426.958 45.056 426.345 43.4 426.345 41.468C426.345 40.3333 426.728 39.2293 427.495 38.156C428.292 37.052 429.412 36.0093 430.853 35.028H441.709V32.912C441.709 29.416 439.838 27.668 436.097 27.668C434.134 27.668 431.62 28.6953 428.553 30.75L427.173 28.68L433.705 23.482C434.993 23.1447 436.603 22.976 438.535 22.976C441.571 22.976 443.932 23.6967 445.619 25.138C447.306 26.5793 448.149 28.68 448.149 31.44V44.09L452.289 45.7L451.139 48ZM436.005 43.63C437.722 43.63 439.624 42.848 441.709 41.284V37.374H433.843C433.23 38.11 432.923 38.9993 432.923 40.042C432.923 41.054 433.199 41.9127 433.751 42.618C434.334 43.2927 435.085 43.63 436.005 43.63Z" fill="#05568E"/>
<path d="M341.5 205H299.5L300.5 186.5L298 183L300.5 178.5L299.5 172.5L297 145.5H310L310.5 140H313.5L314.5 146.5L317 149.5L322 150.5L328.5 151.5L332 153.5L335.5 155H340.5L346 153.5L352.5 155.5L350 157L344 159L331 171V177.5L328 178.5L327.5 184L328 191L330 193L341 201.5L341.5 205Z" fill="#05568E" fill-opacity="0.3"/>
<path d="M49.6 52.02H36.96V50.9L38.84 49.42V38.24L36.62 37.58L37.28 36.28H49.4L50.84 35.92V41.02L49.74 41.46L47.28 37.8H42.46V43.2H44.84L46.3 40.96H47.42V46.78L46.12 47.44L44.82 44.74H42.46V50.48H47.12L49.94 46.4L51.04 46.86V52.38L49.6 52.02ZM68.3063 52H61.3463V50.88L62.9263 49.84L59.6463 45.94L56.2863 49.44L58.7263 50.68L58.0663 51.98H51.6263V50.86L54.0063 49.26L58.5063 44.62L53.3663 38.56L51.6863 37.58L52.3463 36.28H59.3063V37.4L57.6663 38.36L60.9463 42.26L64.0063 38.84L61.5463 37.58L62.1863 36.28H68.6463V37.4L66.4063 38.9L62.1463 43.62L67.5063 49.94L68.9463 50.7L68.3063 52ZM77.3211 44.18C78.0278 44.18 78.5878 43.9333 79.0011 43.44C79.4144 42.9467 79.6211 42.2667 79.6211 41.4C79.6211 40.3467 79.3678 39.4933 78.8611 38.84C78.3544 38.1733 77.6078 37.84 76.6211 37.84C75.9678 37.84 75.3544 38.04 74.7811 38.44V49.94L78.2611 50.7L77.6011 52H69.2811V50.88L71.1611 49.4V38.26L68.9411 37.58L69.6011 36.28H72.9211C74.1078 36.28 75.2744 36.24 76.4211 36.16C77.2744 36.1067 77.9011 36.08 78.3011 36.08C79.3411 36.08 80.2611 36.2867 81.0611 36.7C81.8611 37.1 82.4811 37.6533 82.9211 38.36C83.3611 39.0667 83.5811 39.8533 83.5811 40.72C83.5811 41.68 83.2144 42.58 82.4811 43.42C81.7478 44.26 80.8211 44.92 79.7011 45.4C78.5811 45.88 77.4878 46.0933 76.4211 46.04L75.5411 45.5L76.2011 44.2H77.3211V44.18ZM96.9809 52H84.2209V50.88L86.1009 49.4V38.16L83.8809 37.58L84.5409 36.28H91.6209V37.4L89.7209 38.88V50.48H94.2209L97.3209 46L98.4209 46.46V52.36L96.9809 52ZM108.618 35.88C110.152 35.88 111.505 36.22 112.678 36.9C113.852 37.58 114.758 38.52 115.398 39.72C116.038 40.92 116.358 42.28 116.358 43.8C116.358 45.36 115.872 46.8 114.898 48.12C113.925 49.44 112.718 50.4867 111.278 51.26C109.852 52.02 108.492 52.4 107.198 52.4C105.665 52.4 104.312 52.0667 103.138 51.4C101.978 50.72 101.072 49.78 100.418 48.58C99.7784 47.38 99.4584 46.02 99.4584 44.5C99.4584 42.94 99.9384 41.5 100.898 40.18C101.872 38.8467 103.078 37.8 104.518 37.04C105.958 36.2667 107.325 35.88 108.618 35.88ZM107.458 38.18C106.712 38.18 106.025 38.4133 105.398 38.88C104.785 39.3467 104.298 39.9867 103.938 40.8C103.578 41.6133 103.398 42.5267 103.398 43.54C103.398 44.74 103.578 45.84 103.938 46.84C104.312 47.8267 104.865 48.62 105.598 49.22C106.345 49.8067 107.265 50.1 108.358 50.1C109.092 50.1 109.765 49.8667 110.378 49.4C111.005 48.9333 111.498 48.2933 111.858 47.48C112.218 46.6667 112.398 45.7533 112.398 44.74C112.398 43.5267 112.218 42.4267 111.858 41.44C111.498 40.4533 110.945 39.6667 110.198 39.08C109.465 38.48 108.552 38.18 107.458 38.18ZM133.038 52H128.698L124.838 45.08L123.958 44.54L124.458 43.56H125.378C126.098 43.56 126.664 43.34 127.078 42.9C127.491 42.46 127.698 41.84 127.698 41.04C127.698 40.1067 127.444 39.3467 126.938 38.76C126.444 38.16 125.718 37.86 124.758 37.86C124.158 37.86 123.598 38.0467 123.078 38.42V50.08L125.298 50.72L124.658 52.02H117.578V50.9L119.458 49.32V38.22L117.238 37.6L117.898 36.3H121.218C122.378 36.3 123.518 36.26 124.638 36.18C125.438 36.1267 126.038 36.1 126.438 36.1C127.464 36.1 128.371 36.2867 129.158 36.66C129.958 37.02 130.571 37.5133 130.998 38.14C131.438 38.7667 131.658 39.4667 131.658 40.24C131.658 41.1733 131.244 42.04 130.418 42.84C129.591 43.64 128.584 44.24 127.398 44.64L128.998 45.1L131.598 49.74L133.678 50.7L133.038 52ZM146.231 52.02H133.591V50.9L135.471 49.42V38.24L133.251 37.58L133.911 36.28H146.031L147.471 35.92V41.02L146.371 41.46L143.911 37.8H139.091V43.2H141.471L142.931 40.96H144.051V46.78L142.751 47.44L141.451 44.74H139.091V50.48H143.751L146.571 46.4L147.671 46.86V52.38L146.231 52.02Z" fill="#05568E"/>
<path d="M322.515 60.4961L36.0909 64.1318H33L37.6364 60.4961L86.0606 58.4186L157.667 56.3411H193.727L203.515 55.3023L209.182 52.7054H220.515L227.727 55.3023L235.97 56.3411L256.061 57.3798L277.697 52.7054H303.97L313.758 55.8217L333.848 55.3023L342.091 53.2248L351.879 55.3023L357.545 53.2248H372.485L381.758 56.3411L395.667 55.3023L401.848 53.2248L408.545 56.3411H415.758H438.939L446.151 57.3798L453.879 55.3023L461.091 57.3798H469.848L474.485 54.2636H485.303L492.515 55.8217L505.394 56.3411H520.333V54.2636L517.758 50.1085L517.242 42.8372V37.6434V34.5271L520.333 32.4496L523.424 31.4109L524.455 24.1395L526.515 19.4651L528.061 17.907H533.212L537.333 19.4651L540.939 23.1008L541.455 28.2946H548.151L553.303 26.2171L556.394 24.1395L557.939 21.0233L561.545 17.907L568.242 17.3876L571.848 21.0233V29.8527L573.909 32.969L577.515 34.5271L579.061 30.8915L579.576 24.1395L582.667 13.2326L586.273 7L592.97 19.9845L595.545 31.9302L596.061 38.6822L590.909 48.5504L594.515 53.2248H605.848L613.576 54.2636L621.818 58.4186L645 62.0543L587.303 62.5736H509.515L323.03 60.4961V69.3256L328.697 70.3643L330.242 63.093L341.061 67.7674L342.606 74H303.455L300.364 69.3256H308.606L312.212 64.6512L313.242 69.3256H322.515V60.4961Z" fill="#018D7E"/>
<defs>
<radialGradient id="paint0_radial_1057_531" cx="0" cy="0" r="1" gradientUnits="userSpaceOnUse" gradientTransform="translate(324.5 381.583) rotate(90) scale(124.583 291.5)">
<stop offset="0.520833" stop-color="#AAE0FA"/>
<stop offset="1" stop-color="#D9D9D9" stop-opacity="0"/>
</radialGradient>
<linearGradient id="paint1_linear_1057_531" x1="323.5" y1="-26" x2="323.5" y2="111" gradientUnits="userSpaceOnUse">
<stop offset="0.625" stop-color="#8DD8F8"/>
<stop offset="0.9375" stop-color="#8DD8F8" stop-opacity="0"/>
</linearGradient>
</defs>
</svg>
