<svg width="649" height="348" viewBox="0 0 649 348" fill="none" xmlns="http://www.w3.org/2000/svg">
<rect width="649" height="348" rx="41" fill="url(#paint0_linear_1060_98)"/>
<path d="M263.809 53.0273H260.664C256.964 53.0273 255.113 52.6901 255.113 52.0156C255.113 51.5234 255.441 50.8854 256.098 50.1016L257.793 48.0234C258.559 46.8021 259.115 45.3438 259.461 43.6484C259.807 41.9349 260.272 38.8451 260.855 34.3789C261.457 29.8945 261.758 27.4154 261.758 26.9414L261.676 26.2305L260.746 27.0781L259.98 28.2539C259.251 29.3841 258.44 30.7057 257.547 32.2188L255.086 36.3477C250.456 44.0586 247.958 48.1602 247.594 48.6523C246.646 49.9102 245.561 50.5391 244.34 50.5391C243.811 50.5391 243.264 49.9557 242.699 48.7891L242.234 47.3672L241.824 45.8633C241.605 45.0247 241.332 44.0221 241.004 42.8555L240.184 39.793C237.96 31.4622 236.447 27.2969 235.645 27.2969L235.289 28.3086C235.161 28.7826 234.651 31.207 233.758 35.582C232.865 39.9388 232.418 43.0286 232.418 44.8516C232.418 46.6562 232.527 47.8776 232.746 48.5156C233.293 50.1198 233.566 51.0677 233.566 51.3594L233.402 52.0977C232.91 52.7174 231.589 53.0273 229.438 53.0273C227.286 53.0273 225.737 52.9362 224.789 52.7539C223.841 52.5534 223.367 52.0885 223.367 51.3594C223.367 50.9766 223.978 50.1562 225.199 48.8984C226.421 47.6406 227.204 46.4466 227.551 45.3164C227.897 44.168 228.681 40.4219 229.902 34.0781C231.124 27.7161 231.734 24.1888 231.734 23.4961C231.734 22.7852 231.589 21.974 231.297 21.0625L230.914 19.9414L230.039 17.8633C230.039 17.2799 230.221 16.8789 230.586 16.6602C231.424 16.168 232.135 15.9219 232.719 15.9219H234.277C235.827 15.9219 237.221 16.2409 238.461 16.8789C239.701 17.4987 240.676 18.3372 241.387 19.3945C241.605 19.7227 242.608 23.1315 244.395 29.6211L246.883 39.0547L247.402 40.1758C248.04 40.1758 250.328 36.849 254.266 30.1953C258.221 23.5234 260.591 19.7682 261.375 18.9297C263.234 16.9609 265.385 15.9766 267.828 15.9766C270.289 15.9766 271.811 16.2773 272.395 16.8789L272.668 17.5352C272.668 17.8268 272.203 18.2826 271.273 18.9023C270.362 19.5039 269.751 20.2695 269.441 21.1992C268.895 22.8945 268.147 27.2695 267.199 34.3242C266.251 41.3607 265.777 45.207 265.777 45.8633C265.777 46.5195 265.96 47.431 266.324 48.5977L266.734 49.6914L267.281 50.457L267.801 51.0586C267.801 52.3711 266.47 53.0273 263.809 53.0273ZM287.005 18.0273V18.7656C287.005 19.7135 286.522 20.7526 285.556 21.8828C285.045 22.4844 284.28 22.7852 283.259 22.7852H282.493C282.22 22.7305 281.91 22.7031 281.563 22.7031C281.235 22.7031 280.807 22.4479 280.278 21.9375C279.768 21.4089 279.513 20.7526 279.513 19.9688V19.2578C279.567 18.9844 279.595 18.7747 279.595 18.6289C279.595 17.6081 280.151 16.6966 281.263 15.8945C281.901 15.4388 282.657 15.2109 283.532 15.2109H283.915C284.772 15.2109 285.501 15.4661 286.103 15.9766C286.704 16.4688 287.005 17.1523 287.005 18.0273ZM276.806 53.2734H275.575C273.843 53.2734 272.978 52.5807 272.978 51.1953C272.978 49.974 273.342 48.7344 274.071 47.4766C276.295 43.5755 277.407 39.5924 277.407 35.5273C277.407 34.1784 277.052 33.2396 276.341 32.7109C274.864 31.599 274.126 30.9062 274.126 30.6328C274.126 29.8854 274.937 29.1836 276.56 28.5273C278.2 27.8529 280.132 27.5156 282.356 27.5156H282.767C283.587 27.5156 284.125 27.6706 284.38 27.9805C284.653 28.2721 284.79 28.7005 284.79 29.2656C284.79 29.8307 284.334 32.5469 283.423 37.4141C282.511 42.263 282.056 45.1068 282.056 45.9453C282.056 47.2578 282.703 47.9779 283.997 48.1055C285.31 48.2148 285.966 48.7526 285.966 49.7188C285.966 50.4297 285.364 51.0221 284.161 51.4961C281.153 52.681 278.701 53.2734 276.806 53.2734ZM289.803 52.5898C288.363 52.1159 287.643 51.2956 287.643 50.1289C287.643 48.9622 287.889 47.8685 288.381 46.8477C288.873 45.8268 289.365 45.3164 289.857 45.3164C290.368 45.3164 291.37 46.0911 292.865 47.6406C294.36 49.1901 295.736 49.9648 296.994 49.9648C298.252 49.9648 299.264 49.6458 300.029 49.0078C300.813 48.3516 301.205 47.5586 301.205 46.6289C301.205 45.6992 300.822 44.9062 300.057 44.25C299.692 43.9401 298.562 43.2839 296.666 42.2812C294.788 41.2604 293.458 40.3672 292.674 39.6016C291.343 38.3073 290.678 36.8398 290.678 35.1992C290.678 33.0299 291.598 31.1797 293.439 29.6484C295.299 28.1172 297.65 27.3516 300.494 27.3516H301.178C303.256 27.3516 305.252 27.6706 307.166 28.3086C308.478 28.7461 309.135 29.5573 309.135 30.7422C309.135 31.9089 308.734 33.0391 307.932 34.1328C307.531 34.6797 307.047 34.9531 306.482 34.9531C305.917 34.9531 305.006 34.306 303.748 33.0117C302.49 31.6992 301.36 31.043 300.357 31.043C299.355 31.043 298.516 31.2982 297.842 31.8086C297.167 32.3008 296.83 32.9753 296.83 33.832C296.83 34.6706 297.213 35.418 297.978 36.0742C298.143 36.2201 299.254 36.8763 301.314 38.043C303.393 39.1914 304.778 40.112 305.471 40.8047C306.747 42.0807 307.385 43.7031 307.385 45.6719C307.385 47.6224 306.519 49.3359 304.787 50.8125C303.748 51.7057 302.518 52.3984 301.096 52.8906C299.692 53.3646 298.379 53.6016 297.158 53.6016H295.818C293.831 53.6016 291.826 53.2643 289.803 52.5898ZM310.921 52.5898C309.481 52.1159 308.761 51.2956 308.761 50.1289C308.761 48.9622 309.007 47.8685 309.499 46.8477C309.991 45.8268 310.483 45.3164 310.975 45.3164C311.486 45.3164 312.488 46.0911 313.983 47.6406C315.478 49.1901 316.854 49.9648 318.112 49.9648C319.37 49.9648 320.382 49.6458 321.147 49.0078C321.931 48.3516 322.323 47.5586 322.323 46.6289C322.323 45.6992 321.94 44.9062 321.175 44.25C320.81 43.9401 319.68 43.2839 317.784 42.2812C315.906 41.2604 314.576 40.3672 313.792 39.6016C312.461 38.3073 311.796 36.8398 311.796 35.1992C311.796 33.0299 312.716 31.1797 314.558 29.6484C316.417 28.1172 318.768 27.3516 321.612 27.3516H322.296C324.374 27.3516 326.37 27.6706 328.284 28.3086C329.597 28.7461 330.253 29.5573 330.253 30.7422C330.253 31.9089 329.852 33.0391 329.05 34.1328C328.649 34.6797 328.166 34.9531 327.6 34.9531C327.035 34.9531 326.124 34.306 324.866 33.0117C323.608 31.6992 322.478 31.043 321.475 31.043C320.473 31.043 319.634 31.2982 318.96 31.8086C318.285 32.3008 317.948 32.9753 317.948 33.832C317.948 34.6706 318.331 35.418 319.097 36.0742C319.261 36.2201 320.373 36.8763 322.433 38.043C324.511 39.1914 325.896 40.112 326.589 40.8047C327.865 42.0807 328.503 43.7031 328.503 45.6719C328.503 47.6224 327.637 49.3359 325.905 50.8125C324.866 51.7057 323.636 52.3984 322.214 52.8906C320.81 53.3646 319.498 53.6016 318.276 53.6016H316.936C314.949 53.6016 312.944 53.2643 310.921 52.5898ZM345.601 30.7969H345.109C344.398 30.7969 343.551 31.1068 342.566 31.7266C341.582 32.3281 340.743 33.2122 340.051 34.3789C338.465 37.0221 337.672 39.5924 337.672 42.0898V43.375C337.672 45.2161 338.118 46.7747 339.012 48.0508C339.923 49.3086 340.953 49.9375 342.101 49.9375H342.594C343.213 49.9375 344.006 49.6732 344.973 49.1445C345.939 48.5977 346.823 47.6497 347.625 46.3008C349.211 43.6576 350.004 40.9961 350.004 38.3164V37.5508C350.004 35.5091 349.566 33.8776 348.691 32.6562C347.816 31.4167 346.786 30.7969 345.601 30.7969ZM345.793 27.1875H347.078C348.208 27.1875 349.411 27.4518 350.687 27.9805C351.963 28.4909 353.048 29.2383 353.941 30.2227C355.673 32.1367 356.539 34.6523 356.539 37.7695L356.512 38.1797C356.512 39.8932 356.12 41.7344 355.336 43.7031C354.57 45.6719 353.44 47.4401 351.945 49.0078C350.469 50.5573 348.81 51.7057 346.969 52.4531C345.127 53.2005 343.295 53.5742 341.473 53.5742L341.062 53.5469C338.036 53.5469 335.621 52.5625 333.816 50.5938C332.03 48.6068 331.137 46.2096 331.137 43.4023V42.9648L331.164 42.5547C331.164 40.8047 331.556 38.9362 332.34 36.9492C333.124 34.944 334.208 33.2487 335.594 31.8633C336.997 30.4596 338.583 29.3294 340.351 28.4727C342.138 27.6159 343.952 27.1875 345.793 27.1875ZM376.946 31.0703C376.946 30.1771 377.238 29.4844 377.821 28.9922C378.423 28.5 379.207 28.2539 380.173 28.2539C381.157 28.2539 382.014 28.6367 382.743 29.4023C383.49 30.168 383.864 31.1341 383.864 32.3008C383.864 32.7018 383.609 34.306 383.098 37.1133C382.606 39.9206 382.36 41.8073 382.36 42.7734C382.36 43.7214 382.47 44.6966 382.688 45.6992C382.907 46.6836 383.226 47.431 383.645 47.9414C384.065 48.4336 384.274 48.8164 384.274 49.0898C384.274 49.9284 383.782 50.8125 382.798 51.7422C381.813 52.6536 380.656 53.1094 379.325 53.1094C378.012 53.1094 377.055 52.8268 376.454 52.2617C375.852 51.6966 375.451 50.9492 375.251 50.0195C375.233 49.9284 375.196 49.5365 375.141 48.8438C375.105 48.151 375.014 47.8047 374.868 47.8047C374.722 47.8047 374.33 48.1237 373.692 48.7617C373.054 49.3997 372.434 49.9831 371.833 50.5117C371.231 51.0221 370.292 51.6146 369.016 52.2891C367.74 52.9635 366.337 53.3008 364.805 53.3008C363.292 53.3008 362.026 52.7357 361.005 51.6055C360.002 50.4753 359.501 48.9076 359.501 46.9023C359.501 46.0273 359.829 43.8307 360.485 40.3125C361.141 36.7943 361.47 34.6888 361.47 33.9961C361.47 33.3034 361.269 32.8112 360.868 32.5195C360.467 32.2096 359.802 32.0547 358.872 32.0547C358.489 32.0547 358.298 31.7266 358.298 31.0703C358.298 30.7604 358.617 30.3958 359.255 29.9766C361.114 28.7552 363.165 28.1445 365.407 28.1445H365.981C366.729 28.1445 367.239 28.4818 367.512 29.1562C367.804 29.8307 367.95 31.0156 367.95 32.7109C367.95 33.0755 367.658 34.9531 367.075 38.3438C366.492 41.7161 366.2 43.8125 366.2 44.6328C366.2 47.1849 367.13 48.4609 368.989 48.4609C369.682 48.4609 370.621 47.9961 371.805 47.0664C373.009 46.1185 373.984 44.9336 374.731 43.5117C376.262 40.5586 377.028 37.3411 377.028 33.8594L377.083 32.6836C376.992 31.8268 376.946 31.2891 376.946 31.0703ZM388.631 49.6094V48.6523C388.631 48.306 389.351 46.4831 390.791 43.1836C391.575 41.3971 391.967 39.3099 391.967 36.9219C391.967 35.6823 391.648 34.6615 391.01 33.8594C390.372 33.0391 390.053 32.1823 390.053 31.2891C390.053 30.3958 390.791 29.4753 392.267 28.5273C392.978 28.0716 393.954 27.8438 395.193 27.8438H395.685C398.092 27.8438 399.295 28.6641 399.295 30.3047L399.24 30.8516L399.158 31.4258C399.103 31.8997 399.076 32.2917 399.076 32.6016C399.076 32.9115 399.176 33.0664 399.377 33.0664C399.577 33.0482 400.024 32.6927 400.717 32C403.287 29.4297 405.511 28.1445 407.388 28.1445H407.416C408.51 28.1445 409.375 28.5 410.013 29.2109C410.323 29.5573 410.478 30.1315 410.478 30.9336C410.478 31.7174 409.986 32.4831 409.002 33.2305C408.036 33.9596 406.878 34.3242 405.529 34.3242L403.642 34.1602C402.421 34.1602 401.273 35.0807 400.197 36.9219C398.593 39.6927 397.791 41.9531 397.791 43.7031C397.791 43.9766 397.909 44.6055 398.146 45.5898C398.401 46.5742 398.529 47.2669 398.529 47.668C398.529 50.056 398.201 51.5599 397.545 52.1797C396.907 52.7995 395.375 53.1094 392.951 53.1094H391.885C390.955 53.1094 390.18 52.8177 389.56 52.2344C388.941 51.651 388.631 50.776 388.631 49.6094ZM425.69 18.0273V18.7656C425.69 19.7135 425.207 20.7526 424.241 21.8828C423.731 22.4844 422.965 22.7852 421.944 22.7852H421.178C420.905 22.7305 420.595 22.7031 420.249 22.7031C419.921 22.7031 419.492 22.4479 418.964 21.9375C418.453 21.4089 418.198 20.7526 418.198 19.9688V19.2578C418.253 18.9844 418.28 18.7747 418.28 18.6289C418.28 17.6081 418.836 16.6966 419.948 15.8945C420.586 15.4388 421.342 15.2109 422.217 15.2109H422.6C423.457 15.2109 424.186 15.4661 424.788 15.9766C425.389 16.4688 425.69 17.1523 425.69 18.0273ZM415.491 53.2734H414.26C412.529 53.2734 411.663 52.5807 411.663 51.1953C411.663 49.974 412.027 48.7344 412.757 47.4766C414.981 43.5755 416.092 39.5924 416.092 35.5273C416.092 34.1784 415.737 33.2396 415.026 32.7109C413.55 31.599 412.811 30.9062 412.811 30.6328C412.811 29.8854 413.622 29.1836 415.245 28.5273C416.885 27.8529 418.818 27.5156 421.042 27.5156H421.452C422.272 27.5156 422.81 27.6706 423.065 27.9805C423.339 28.2721 423.475 28.7005 423.475 29.2656C423.475 29.8307 423.02 32.5469 422.108 37.4141C421.197 42.263 420.741 45.1068 420.741 45.9453C420.741 47.2578 421.388 47.9779 422.682 48.1055C423.995 48.2148 424.651 48.7526 424.651 49.7188C424.651 50.4297 424.05 51.0221 422.846 51.4961C419.839 52.681 417.387 53.2734 415.491 53.2734Z" fill="#3B4A6E"/>
<path d="M270.167 61.6948C271.471 61.6948 272.348 61.8096 272.797 62.0391C273.134 62.21 273.302 62.6494 273.302 63.3574C273.302 64.0654 273.183 64.4194 272.943 64.4194C272.748 64.4194 272.428 64.2144 271.984 63.8042C271.54 63.3892 271.203 63.1182 270.973 62.9912C270.744 62.8643 270.443 62.8008 270.072 62.8008C269.706 62.8008 269.391 62.9204 269.127 63.1597C268.869 63.3989 268.739 63.6846 268.739 64.0166C268.739 64.4609 268.983 64.8589 269.472 65.2104C269.716 65.3862 270.28 65.6719 271.164 66.0674C272.047 66.4629 272.677 66.8511 273.053 67.2319C273.585 67.7739 273.852 68.3843 273.852 69.063C273.852 70.479 273.151 71.4336 271.75 71.9268C271.334 72.0732 270.91 72.1465 270.475 72.1465H270.211C269.674 72.1465 269.079 72.0854 268.424 71.9634C267.77 71.8413 267.357 71.7217 267.187 71.6045C266.869 71.3848 266.71 70.8745 266.71 70.0737V69.8247C266.71 69.3071 266.85 69.0483 267.128 69.0483C267.323 69.0483 267.633 69.2974 268.058 69.7954C268.483 70.2935 268.839 70.6255 269.127 70.7915C269.42 70.9575 269.792 71.0405 270.241 71.0405C270.695 71.0405 271.076 70.9111 271.383 70.6523C271.691 70.3936 271.845 70.1128 271.845 69.8101C271.845 69.356 271.708 68.9824 271.435 68.6895C271.161 68.3965 270.617 68.062 269.801 67.686C268.986 67.3101 268.422 67.0073 268.109 66.7778C267.25 66.1431 266.82 65.3813 266.82 64.4927C266.82 64.3071 266.84 64.1143 266.879 63.9141C267.04 63.0742 267.58 62.4395 268.498 62.0098C268.947 61.7998 269.416 61.6948 269.904 61.6948H270.167ZM278.886 67.2979C278.266 67.2979 277.894 67.3955 277.772 67.5908C277.689 67.7275 277.648 68.123 277.648 68.7773C277.648 69.4316 277.687 69.8955 277.765 70.1689C277.848 70.4375 277.992 70.7012 278.197 70.96C278.407 71.2188 278.512 71.4238 278.512 71.5752C278.512 71.7217 278.322 71.8291 277.941 71.8975C277.565 71.9609 276.691 71.9927 275.319 71.9927C275.036 71.9927 274.848 71.9561 274.755 71.8828C274.667 71.8047 274.623 71.646 274.623 71.4067C274.623 71.3188 274.745 71.1748 274.989 70.9746C275.238 70.7695 275.392 70.562 275.451 70.3521C275.509 70.1421 275.538 68.9873 275.538 66.8877C275.538 64.7832 275.504 63.626 275.436 63.416C275.372 63.2012 275.172 62.9888 274.835 62.7788C274.606 62.6323 274.491 62.415 274.491 62.127L274.66 61.9731C274.86 61.8657 275.758 61.812 277.355 61.812C278.097 61.812 278.468 61.9365 278.468 62.1855C278.468 62.3027 278.38 62.5444 278.204 62.9106C278.029 63.272 277.912 63.5649 277.853 63.7896C277.799 64.0093 277.772 64.4976 277.772 65.2544C277.772 65.6353 277.863 65.8965 278.043 66.0381C278.151 66.1211 278.72 66.1626 279.75 66.1626C280.785 66.1626 281.381 66.1113 281.537 66.0088C281.693 65.9062 281.771 65.5645 281.771 64.9834C281.771 64.3975 281.735 63.9751 281.662 63.7163C281.593 63.4526 281.461 63.1768 281.266 62.8887C281.071 62.6006 280.973 62.4248 280.973 62.3613C280.973 62.1758 281.144 62.0415 281.486 61.9585C281.671 61.9146 282.172 61.8926 282.987 61.8926C283.803 61.8926 284.315 61.917 284.525 61.9658C284.799 62.0293 284.935 62.2124 284.935 62.5151C284.935 62.6177 284.806 62.7886 284.547 63.0278C284.293 63.2622 284.147 63.4282 284.108 63.5259C284.02 63.7554 283.976 64.6855 283.976 66.3164L283.954 68.0962L283.947 68.4478V69.1582C283.947 70.0518 284.003 70.6011 284.115 70.8062C284.159 70.8892 284.308 71.0039 284.562 71.1504C284.821 71.292 284.95 71.4897 284.95 71.7437C284.95 71.9585 284.601 72.0659 283.903 72.0659L283.566 72.0586L282.87 72.0513C281.898 72.0513 281.329 71.9707 281.163 71.8096L281.076 71.6484C281.076 71.4727 281.178 71.2114 281.383 70.8647C281.588 70.5181 281.723 70.208 281.786 69.9346C281.854 69.6562 281.889 69.2192 281.889 68.6235C281.889 68.0278 281.798 67.6592 281.618 67.5176C281.442 67.3711 280.531 67.2979 278.886 67.2979ZM293.156 67.3198V66.8291C293.156 66.3311 293.09 65.8086 292.958 65.2617C292.694 64.1729 292.23 63.4185 291.566 62.9985C291.268 62.813 290.927 62.7202 290.541 62.7202H290.431C290.114 62.7202 289.789 62.8154 289.457 63.0059C288.812 63.377 288.37 64.0312 288.131 64.9688C287.98 65.5547 287.904 66.1382 287.904 66.7192V66.9683C287.904 67.5396 287.977 68.1035 288.124 68.6602C288.417 69.7588 288.92 70.5205 289.633 70.9453C289.926 71.1211 290.228 71.209 290.541 71.209H290.761C291.093 71.209 291.412 71.1138 291.72 70.9233C292.028 70.728 292.279 70.4668 292.474 70.1396C292.929 69.3828 293.156 68.4429 293.156 67.3198ZM285.795 67.0049C285.795 66.2236 285.914 65.501 286.154 64.8369C286.617 63.5381 287.43 62.6372 288.593 62.1343C289.266 61.8413 289.955 61.6948 290.658 61.6948L290.834 61.7021H291.002C291.569 61.7021 292.157 61.8315 292.767 62.0903C293.378 62.3491 293.898 62.7178 294.327 63.1963C294.762 63.6699 295.092 64.2241 295.316 64.8589C295.541 65.4888 295.653 66.1284 295.653 66.7778V66.9463C295.653 67.6836 295.529 68.3892 295.28 69.063C295.035 69.7319 294.681 70.3057 294.218 70.7842C293.28 71.7559 292.037 72.2441 290.49 72.249C289.855 72.249 289.242 72.1294 288.651 71.8901C288.065 71.646 287.575 71.3066 287.179 70.8721C286.256 69.8467 285.795 68.5576 285.795 67.0049ZM309.147 62.0391C309.84 62.0391 310.187 62.2148 310.187 62.5664C310.187 62.6934 310.023 63.0742 309.696 63.709C309.369 64.3438 309.152 64.832 309.044 65.1738L308.7 66.3604C308.007 68.709 307.577 70.1396 307.411 70.6523L307.286 71.0332C307.14 71.3506 306.898 71.5996 306.561 71.7803C306.405 71.8633 306.222 71.9048 306.012 71.9048C305.802 71.9048 305.621 71.8315 305.47 71.6851C305.319 71.5386 305.165 71.2944 305.008 70.9526C304.857 70.6108 304.53 69.6978 304.027 68.2134C303.529 66.7241 303.258 65.9795 303.214 65.9795L303.09 66.1992L302.972 66.5874C302.87 66.9341 302.789 67.1978 302.731 67.3784L302.364 68.543C301.891 70.0566 301.588 70.9355 301.456 71.1797C301.324 71.4189 301.166 71.6094 300.98 71.751C300.795 71.8926 300.621 71.9634 300.46 71.9634C299.991 71.9634 299.63 71.7412 299.376 71.2969C299.288 71.1455 298.827 69.7319 297.992 67.0562L297.867 66.668C297.628 65.8965 297.465 65.3765 297.377 65.1079L297.252 64.7271C297.091 64.2681 296.866 63.8188 296.578 63.3794C296.295 62.9351 296.154 62.6494 296.154 62.5225C296.154 62.3955 296.224 62.2734 296.366 62.1562C296.512 62.0342 296.713 61.9731 296.967 61.9731C298.129 61.9731 298.942 62.1343 299.405 62.4565C299.733 62.6812 299.896 63.1475 299.896 63.8555L299.882 64.1704C299.872 64.3853 299.867 64.6074 299.867 64.8369C299.867 65.3936 300.001 66.0845 300.27 66.9097C300.538 67.73 300.782 68.1401 301.002 68.1401L301.112 68.0449C301.366 67.708 301.578 67.1562 301.749 66.3896C301.92 65.623 302.006 64.8906 302.006 64.1924L301.969 63.8848L301.947 63.5918C301.947 63.0254 302.137 62.6201 302.518 62.376C302.714 62.249 303.075 62.1855 303.602 62.1855C304.134 62.1855 304.535 62.3906 304.803 62.8008C304.984 63.0742 305.074 63.4771 305.074 64.0093C305.074 64.5415 305.419 65.7866 306.107 67.7446C306.21 68.0425 306.285 68.1914 306.334 68.1914C306.652 67.9375 306.869 67.6128 306.986 67.2173C307.338 66.0454 307.513 65.1665 307.513 64.5806C307.513 64.4341 307.504 64.2266 307.484 63.958L307.455 63.6577L307.396 63.3867L307.338 63.1523C307.338 62.7764 307.528 62.498 307.909 62.3174C308.295 62.1318 308.707 62.0391 309.147 62.0391ZM323.448 62.603C323.814 62.188 324.366 61.9805 325.104 61.9805C325.846 61.9805 326.314 62.0342 326.51 62.1416L326.708 62.3247C326.708 62.5005 326.61 62.7056 326.415 62.9399C326.219 63.1694 326.107 63.3232 326.078 63.4014C325.965 63.6846 325.909 64.0801 325.909 64.5879C325.909 65.0957 325.917 65.5229 325.931 65.8696L326.004 67.166C326.029 67.7471 326.041 68.3989 326.041 69.1216C326.041 69.8442 326.073 70.2983 326.136 70.4839C326.205 70.6646 326.334 70.8354 326.524 70.9966L326.942 71.3628C326.942 71.6411 326.649 71.7803 326.063 71.7803C325.248 71.7803 324.603 71.7266 324.129 71.6191C323.792 71.541 323.624 71.3872 323.624 71.1577L323.675 70.9526C323.856 70.3813 323.946 69.9541 323.946 69.6709C323.946 69.3828 323.912 68.8433 323.844 68.0522C323.78 67.2612 323.749 66.5508 323.749 65.9209C323.749 65.291 323.724 64.9761 323.675 64.9761C323.548 64.9761 323.18 65.7915 322.569 67.4224C321.959 69.0532 321.537 70.0981 321.302 70.5571C320.96 71.231 320.624 71.5679 320.292 71.5679C319.964 71.5679 319.701 71.3652 319.5 70.96L319.332 70.5571C319.278 70.4204 319.117 70.0078 318.849 69.3193L318.197 67.6714C317.503 65.9233 317.081 65.0493 316.93 65.0493C316.783 65.0493 316.71 65.7207 316.71 67.0635C316.71 67.7031 316.722 68.2476 316.747 68.6968L316.805 69.4658C316.825 69.7148 316.834 69.9639 316.834 70.2129L316.864 70.5645L316.9 70.8574C316.915 71.0088 316.922 71.209 316.922 71.458L316.798 71.6045C316.573 71.7656 316.266 71.8462 315.875 71.8462C314.962 71.8462 314.505 71.7314 314.505 71.502C314.505 71.4043 314.598 71.2261 314.784 70.9673C314.974 70.7085 315.106 70.4644 315.179 70.2349C315.252 70.0005 315.289 69.4902 315.289 68.7041L315.304 68.272L315.333 67.8325C315.401 66.4653 315.436 65.5522 315.436 65.0933C315.436 64.6343 315.404 64.2705 315.34 64.002C315.282 63.7334 315.143 63.4209 314.923 63.0645C314.708 62.7031 314.601 62.4443 314.601 62.2881L314.754 62.1123C314.959 61.9609 315.174 61.8853 315.399 61.8853H315.794C316.278 61.8853 316.727 61.9805 317.142 62.1709C317.557 62.3564 317.872 62.6055 318.087 62.918L318.292 63.2549C318.458 63.5527 318.626 63.9263 318.797 64.3755C318.968 64.8198 319.217 65.4106 319.544 66.1479C319.872 66.8804 320.152 67.4395 320.387 67.8252L320.577 68.0669C320.714 68.0669 321.183 67.2051 321.983 65.4814C322.789 63.7578 323.277 62.7983 323.448 62.603ZM335.587 63.1157C335.587 63.4429 335.54 63.6577 335.448 63.7603C335.355 63.8579 335.213 63.9067 335.023 63.9067L334.891 63.8408L334.737 63.7383L334.561 63.6357C334.391 63.5381 334.061 63.4038 333.573 63.2329C333.089 63.062 332.638 62.9766 332.218 62.9766C331.798 62.9766 331.49 63.1279 331.295 63.4307C331.104 63.7334 331.009 64.356 331.009 65.2983C331.009 65.5669 331.092 65.7817 331.258 65.9429C331.424 66.104 331.654 66.1846 331.947 66.1846C332.24 66.1846 332.562 66.082 332.913 65.877C333.27 65.6719 333.521 65.5693 333.668 65.5693C333.819 65.5693 333.951 65.6694 334.063 65.8696C334.176 66.0649 334.232 66.2993 334.232 66.5728C334.232 67.3101 334.151 67.7642 333.99 67.9351L333.792 68.0449C333.504 68.0449 333.275 67.979 333.104 67.8472C332.728 67.5591 332.452 67.415 332.276 67.415C331.72 67.415 331.346 67.5322 331.156 67.7666C331.063 67.8838 331.017 68.2866 331.017 68.9751C331.017 69.6587 331.156 70.1787 331.434 70.5352C331.58 70.7256 331.903 70.8208 332.401 70.8208C332.899 70.8208 333.534 70.6523 334.305 70.3154C335.081 69.9736 335.526 69.8027 335.638 69.8027C335.848 69.8027 335.953 70.0005 335.953 70.396V70.6597C335.953 70.7964 335.904 70.9868 335.807 71.231C335.709 71.4751 335.558 71.6655 335.352 71.8022C335.147 71.939 334.81 72.0073 334.342 72.0073H329.032C328.221 72.0073 327.816 71.9023 327.816 71.6924V71.458C327.816 71.292 327.965 71.126 328.263 70.96C328.565 70.7939 328.741 70.6157 328.79 70.4253C328.844 70.23 328.871 69.1069 328.871 67.0562C328.871 65.0054 328.836 63.8433 328.768 63.5698C328.7 63.2964 328.529 63.0449 328.255 62.8154C327.982 62.5859 327.845 62.3589 327.845 62.1343C327.845 61.9731 328.021 61.8828 328.372 61.8633C328.724 61.8389 329.879 61.8267 331.837 61.8267L333.741 61.8193H334.049C334.542 61.8193 334.889 61.8901 335.089 62.0317C335.421 62.2661 335.587 62.6274 335.587 63.1157ZM343.458 61.6948C344.761 61.6948 345.638 61.8096 346.087 62.0391C346.424 62.21 346.592 62.6494 346.592 63.3574C346.592 64.0654 346.473 64.4194 346.234 64.4194C346.038 64.4194 345.718 64.2144 345.274 63.8042C344.83 63.3892 344.493 63.1182 344.263 62.9912C344.034 62.8643 343.734 62.8008 343.363 62.8008C342.996 62.8008 342.681 62.9204 342.418 63.1597C342.159 63.3989 342.029 63.6846 342.029 64.0166C342.029 64.4609 342.274 64.8589 342.762 65.2104C343.006 65.3862 343.57 65.6719 344.454 66.0674C345.338 66.4629 345.967 66.8511 346.343 67.2319C346.876 67.7739 347.142 68.3843 347.142 69.063C347.142 70.479 346.441 71.4336 345.04 71.9268C344.625 72.0732 344.2 72.1465 343.765 72.1465H343.502C342.965 72.1465 342.369 72.0854 341.715 71.9634C341.06 71.8413 340.648 71.7217 340.477 71.6045C340.159 71.3848 340.001 70.8745 340.001 70.0737V69.8247C340.001 69.3071 340.14 69.0483 340.418 69.0483C340.613 69.0483 340.924 69.2974 341.348 69.7954C341.773 70.2935 342.13 70.6255 342.418 70.7915C342.711 70.9575 343.082 71.0405 343.531 71.0405C343.985 71.0405 344.366 70.9111 344.674 70.6523C344.981 70.3936 345.135 70.1128 345.135 69.8101C345.135 69.356 344.998 68.9824 344.725 68.6895C344.451 68.3965 343.907 68.062 343.092 67.686C342.276 67.3101 341.712 67.0073 341.4 66.7778C340.54 66.1431 340.111 65.3813 340.111 64.4927C340.111 64.3071 340.13 64.1143 340.169 63.9141C340.33 63.0742 340.87 62.4395 341.788 62.0098C342.237 61.7998 342.706 61.6948 343.194 61.6948H343.458ZM350.242 62.9766C349.837 62.9766 349.41 63.1621 348.961 63.5332C348.243 64.1289 347.864 64.4268 347.825 64.4268C347.571 64.4268 347.444 64.2681 347.444 63.9507V63.7236C347.444 63.1963 347.488 62.7202 347.576 62.2954C347.62 62.0757 347.718 61.9438 347.869 61.8999C348.025 61.856 349.495 61.834 352.278 61.834L355.025 61.8193H355.508C356.036 61.8193 356.348 61.9048 356.446 62.0757C356.548 62.2466 356.6 62.6201 356.6 63.1963V63.665C356.6 64.1826 356.48 64.4414 356.241 64.4414C356.031 64.4414 355.777 64.2729 355.479 63.936C355.181 63.5991 354.908 63.3574 354.659 63.2109C354.41 63.0596 354.083 62.9839 353.677 62.9839C353.355 62.9839 353.167 63.1963 353.113 63.6211C353.094 63.7676 353.084 64.8589 353.084 66.895C353.084 68.9263 353.111 70.0518 353.165 70.2715C353.218 70.4912 353.419 70.728 353.765 70.9819C354.112 71.231 354.285 71.4434 354.285 71.6191C354.285 71.79 354.197 71.8975 354.022 71.9414C353.846 71.9854 353.277 72.0073 352.315 72.0073H351.085C350.601 72.0073 350.269 71.9902 350.088 71.9561C349.913 71.9219 349.825 71.8242 349.825 71.6631C349.825 71.502 349.991 71.2725 350.323 70.9746C350.655 70.6768 350.85 70.418 350.909 70.1982C350.967 69.9736 350.997 68.8652 350.997 66.873C350.997 64.8809 350.977 63.7847 350.938 63.5845C350.899 63.3794 350.831 63.228 350.733 63.1304C350.64 63.0278 350.477 62.9766 350.242 62.9766ZM359.268 67.5762V67.6494C359.268 67.708 359.495 67.7373 359.949 67.7373H360.792C361.46 67.7373 361.795 67.6982 361.795 67.6201C361.795 67.4102 361.587 66.7656 361.172 65.6865C360.757 64.6074 360.542 64.0679 360.528 64.0679C360.518 64.0679 360.306 64.6099 359.891 65.6938C359.476 66.7729 359.268 67.4004 359.268 67.5762ZM360.711 61.8193H360.923C361.285 61.8193 361.69 62.2051 362.139 62.9766C362.295 63.2451 362.53 63.8018 362.842 64.6465C363.155 65.4912 363.423 66.1919 363.648 66.7485C363.873 67.3052 364.117 67.9692 364.38 68.7407C364.649 69.5073 364.842 70.0176 364.959 70.2715C365.081 70.5205 365.296 70.7598 365.604 70.9893C365.911 71.2188 366.065 71.4189 366.065 71.5898C366.065 71.7559 365.96 71.8657 365.75 71.9194C365.408 72.0024 364.561 72.0439 363.208 72.0439C362.593 72.0439 362.286 71.9121 362.286 71.6484C362.286 71.5801 362.334 71.4141 362.432 71.1504C362.53 70.8818 362.579 70.6841 362.579 70.5571C362.579 69.9565 362.435 69.4512 362.146 69.041C362.029 68.875 361.661 68.792 361.041 68.792C359.903 68.792 359.258 68.8286 359.107 68.9019C358.96 68.9751 358.809 69.1606 358.653 69.4585C358.501 69.7563 358.426 70.0322 358.426 70.2861C358.426 70.54 358.494 70.8135 358.631 71.1064C358.772 71.3994 358.843 71.6289 358.843 71.7949C358.843 72 358.624 72.1025 358.184 72.1025C357.139 72.1025 356.441 72.0537 356.089 71.9561C355.865 71.8926 355.752 71.7339 355.752 71.48C355.752 71.4458 355.975 71.2334 356.419 70.8428C356.663 70.6279 356.858 70.3472 357.005 70.0005C358.06 67.4858 358.729 65.6646 359.012 64.5366C359.3 63.4038 359.544 62.6689 359.744 62.332C359.944 61.9902 360.267 61.8193 360.711 61.8193ZM368.411 62.9766C368.006 62.9766 367.579 63.1621 367.129 63.5332C366.412 64.1289 366.033 64.4268 365.994 64.4268C365.74 64.4268 365.613 64.2681 365.613 63.9507V63.7236C365.613 63.1963 365.657 62.7202 365.745 62.2954C365.789 62.0757 365.887 61.9438 366.038 61.8999C366.194 61.856 367.664 61.834 370.447 61.834L373.194 61.8193H373.677C374.204 61.8193 374.517 61.9048 374.615 62.0757C374.717 62.2466 374.768 62.6201 374.768 63.1963V63.665C374.768 64.1826 374.649 64.4414 374.41 64.4414C374.2 64.4414 373.946 64.2729 373.648 63.936C373.35 63.5991 373.077 63.3574 372.828 63.2109C372.579 63.0596 372.251 62.9839 371.846 62.9839C371.524 62.9839 371.336 63.1963 371.282 63.6211C371.263 63.7676 371.253 64.8589 371.253 66.895C371.253 68.9263 371.28 70.0518 371.333 70.2715C371.387 70.4912 371.587 70.728 371.934 70.9819C372.281 71.231 372.454 71.4434 372.454 71.6191C372.454 71.79 372.366 71.8975 372.19 71.9414C372.015 71.9854 371.446 72.0073 370.484 72.0073H369.253C368.77 72.0073 368.438 71.9902 368.257 71.9561C368.081 71.9219 367.994 71.8242 367.994 71.6631C367.994 71.502 368.16 71.2725 368.492 70.9746C368.824 70.6768 369.019 70.418 369.078 70.1982C369.136 69.9736 369.165 68.8652 369.165 66.873C369.165 64.8809 369.146 63.7847 369.107 63.5845C369.068 63.3794 368.999 63.228 368.902 63.1304C368.809 63.0278 368.645 62.9766 368.411 62.9766ZM382.989 63.1157C382.989 63.4429 382.942 63.6577 382.849 63.7603C382.757 63.8579 382.615 63.9067 382.425 63.9067L382.293 63.8408L382.139 63.7383L381.963 63.6357C381.792 63.5381 381.463 63.4038 380.974 63.2329C380.491 63.062 380.039 62.9766 379.619 62.9766C379.2 62.9766 378.892 63.1279 378.697 63.4307C378.506 63.7334 378.411 64.356 378.411 65.2983C378.411 65.5669 378.494 65.7817 378.66 65.9429C378.826 66.104 379.055 66.1846 379.348 66.1846C379.641 66.1846 379.964 66.082 380.315 65.877C380.672 65.6719 380.923 65.5693 381.07 65.5693C381.221 65.5693 381.353 65.6694 381.465 65.8696C381.577 66.0649 381.634 66.2993 381.634 66.5728C381.634 67.3101 381.553 67.7642 381.392 67.9351L381.194 68.0449C380.906 68.0449 380.677 67.979 380.506 67.8472C380.13 67.5591 379.854 67.415 379.678 67.415C379.121 67.415 378.748 67.5322 378.557 67.7666C378.465 67.8838 378.418 68.2866 378.418 68.9751C378.418 69.6587 378.557 70.1787 378.836 70.5352C378.982 70.7256 379.304 70.8208 379.803 70.8208C380.301 70.8208 380.935 70.6523 381.707 70.3154C382.483 69.9736 382.928 69.8027 383.04 69.8027C383.25 69.8027 383.355 70.0005 383.355 70.396V70.6597C383.355 70.7964 383.306 70.9868 383.208 71.231C383.111 71.4751 382.959 71.6655 382.754 71.8022C382.549 71.939 382.212 72.0073 381.743 72.0073H376.433C375.623 72.0073 375.218 71.9023 375.218 71.6924V71.458C375.218 71.292 375.367 71.126 375.664 70.96C375.967 70.7939 376.143 70.6157 376.192 70.4253C376.245 70.23 376.272 69.1069 376.272 67.0562C376.272 65.0054 376.238 63.8433 376.17 63.5698C376.101 63.2964 375.93 63.0449 375.657 62.8154C375.384 62.5859 375.247 62.3589 375.247 62.1343C375.247 61.9731 375.423 61.8828 375.774 61.8633C376.126 61.8389 377.281 61.8267 379.239 61.8267L381.143 61.8193H381.45C381.944 61.8193 382.29 61.8901 382.491 62.0317C382.823 62.2661 382.989 62.6274 382.989 63.1157Z" fill="#3B4A6E"/>
<path d="M224.5 106.5L222 100.5L349 99L360.5 100.5L365.5 106L370.5 111L368.5 114V124L370.5 137L377 142L381 147.5L386 152L390 156.5L393 161V168H401.5H408L411 171.5L412 176.5V181.5L409.5 190L404.5 195V199L405.5 203L408 206L413.5 210L420 214.5L427.5 220.5L434 226.5V233.5L436.5 237L435.5 240.5L434 244L436.5 249L441.5 252L445.5 255L448 258.5V265V270L446.5 273.5H441.5L437.5 274.5L432.5 278.5V283.5L430 288.5L429 296L426.5 299.5H404.5L411 290.5L414.5 286V281L411 277H260L262 221.5V163L254.5 159.5L253 155.5L249.5 149.5L245.5 145.5L246.5 140.5L250.5 136L252 131.5L246.5 130L240 124L235 121L227.5 111.5L224.5 106.5Z" stroke="black" stroke-opacity="0.5" stroke-width="3"/>
<defs>
<linearGradient id="paint0_linear_1060_98" x1="324.5" y1="0" x2="324.5" y2="348" gradientUnits="userSpaceOnUse">
<stop offset="0.223958" stop-color="#F9F9F9"/>
<stop offset="1" stop-color="#AAD8F0"/>
</linearGradient>
</defs>
</svg>
