<svg width="649" height="348" viewBox="0 0 649 348" fill="none" xmlns="http://www.w3.org/2000/svg">
<rect width="649" height="348" rx="41" fill="#2E358D"/>
<path d="M194.428 282.551L186.247 259.473H186.022C186.097 260.072 186.172 260.88 186.247 261.898C186.321 262.916 186.396 264.023 186.471 265.22C186.545 266.388 186.583 267.525 186.583 268.633V282.551H177V250.494H191.402L199.752 273.257H199.976L208.158 250.494H222.56V282.551H212.641V268.498C212.641 267.48 212.66 266.403 212.697 265.265C212.734 264.098 212.79 263.005 212.865 261.988C212.94 260.94 212.996 260.117 213.033 259.518H212.809L204.74 282.551H194.428Z" fill="white"/>
<path d="M271.695 266.478C271.695 268.962 271.322 271.222 270.574 273.257C269.827 275.263 268.669 276.999 267.1 278.465C265.531 279.932 263.513 281.054 261.048 281.833C258.619 282.611 255.687 283 252.25 283C248.887 283 245.973 282.611 243.507 281.833C241.079 281.054 239.062 279.932 237.455 278.465C235.886 276.999 234.709 275.263 233.925 273.257C233.177 271.222 232.804 268.947 232.804 266.433C232.804 263.11 233.495 260.222 234.877 257.767C236.26 255.283 238.389 253.367 241.266 252.02C244.143 250.673 247.822 250 252.306 250C256.863 250 260.562 250.688 263.401 252.065C266.278 253.412 268.37 255.328 269.678 257.812C271.023 260.267 271.695 263.155 271.695 266.478ZM244.18 266.478C244.18 268.393 244.441 270.054 244.964 271.461C245.525 272.838 246.403 273.901 247.598 274.649C248.794 275.397 250.344 275.771 252.25 275.771C254.23 275.771 255.799 275.397 256.957 274.649C258.152 273.901 259.012 272.838 259.535 271.461C260.058 270.054 260.319 268.393 260.319 266.478C260.319 263.574 259.721 261.284 258.526 259.608C257.33 257.932 255.257 257.094 252.306 257.094C250.363 257.094 248.794 257.483 247.598 258.261C246.403 259.01 245.525 260.087 244.964 261.494C244.441 262.871 244.18 264.532 244.18 266.478Z" fill="white"/>
<path d="M320.106 282.551H305.928L291.302 259.967H291.078C291.153 260.476 291.209 261.075 291.246 261.763C291.321 262.452 291.377 263.17 291.414 263.918C291.451 264.667 291.489 265.4 291.526 266.118C291.564 266.837 291.582 267.495 291.582 268.094V282.551H281.999V250.494H296.121L310.692 272.763H310.86C310.822 272.254 310.766 271.671 310.692 271.012C310.654 270.324 310.617 269.635 310.58 268.947C310.542 268.229 310.505 267.525 310.467 266.837C310.467 266.148 310.467 265.535 310.467 264.996V250.494H320.106V282.551Z" fill="white"/>
<path d="M349.47 282.551H338.654V257.588H328.904V250.494H359.221V257.588H349.47V282.551Z" fill="white"/>
<path d="M388.614 282.551L386.653 276.535H373.651L371.634 282.551H359.754L372.811 250.359H387.213L400.438 282.551H388.614ZM382.674 264.188C382.487 263.619 382.225 262.811 381.889 261.763C381.553 260.686 381.217 259.578 380.881 258.441C380.544 257.303 380.283 256.376 380.096 255.657C379.947 256.376 379.704 257.273 379.367 258.351C379.069 259.429 378.751 260.491 378.415 261.539C378.116 262.586 377.854 263.469 377.63 264.188L375.893 269.441H384.411L382.674 264.188Z" fill="white"/>
<path d="M445.919 282.551H431.741L417.115 259.967H416.891C416.965 260.476 417.021 261.075 417.059 261.763C417.133 262.452 417.19 263.17 417.227 263.918C417.264 264.667 417.302 265.4 417.339 266.118C417.376 266.837 417.395 267.495 417.395 268.094V282.551H407.812V250.494H421.934L436.504 272.763H436.673C436.635 272.254 436.579 271.671 436.504 271.012C436.467 270.324 436.43 269.635 436.392 268.947C436.355 268.229 436.318 267.525 436.28 266.837C436.28 266.148 436.28 265.535 436.28 264.996V250.494H445.919V282.551Z" fill="white"/>
<path d="M482.176 282.551L480.214 276.535H467.213L465.196 282.551H453.315L466.373 250.359H480.775L494 282.551H482.176ZM476.236 264.188C476.049 263.619 475.787 262.811 475.451 261.763C475.115 260.686 474.778 259.578 474.442 258.441C474.106 257.303 473.844 256.376 473.658 255.657C473.508 256.376 473.265 257.273 472.929 258.351C472.63 259.429 472.313 260.491 471.977 261.539C471.678 262.586 471.416 263.469 471.192 264.188L469.455 269.441H477.973L476.236 264.188Z" fill="white"/>
<path d="M199.31 83H194.21V65.81H188.66V61.58H204.86V65.81H199.31V83ZM216.769 61.58C218.709 61.58 220.309 61.82 221.569 62.3C222.849 62.76 223.809 63.47 224.449 64.43C225.089 65.37 225.409 66.55 225.409 67.97C225.409 68.89 225.239 69.71 224.899 70.43C224.559 71.15 224.099 71.78 223.519 72.32C222.959 72.86 222.309 73.31 221.569 73.67L227.839 83H222.109L217.279 74.96H215.269V83H210.169V61.58H216.769ZM216.559 65.6H215.269V70.97H216.559C217.379 70.97 218.059 70.88 218.599 70.7C219.139 70.5 219.539 70.19 219.799 69.77C220.079 69.33 220.219 68.79 220.219 68.15C220.219 67.57 220.089 67.1 219.829 66.74C219.569 66.36 219.169 66.08 218.629 65.9C218.089 65.7 217.399 65.6 216.559 65.6ZM244.818 83H232.308V61.58H244.818V65.72H237.408V69.83H244.278V73.97H237.408V78.8H244.818V83ZM264.159 83L262.839 78.41H255.429L254.109 83H248.529L255.819 61.49H262.359L269.739 83H264.159ZM260.439 69.86C260.339 69.5 260.199 69.02 260.019 68.42C259.859 67.8 259.689 67.17 259.509 66.53C259.349 65.89 259.219 65.35 259.119 64.91C259.039 65.35 258.909 65.9 258.729 66.56C258.569 67.2 258.409 67.83 258.249 68.45C258.089 69.05 257.959 69.52 257.859 69.86L256.599 74.15H261.699L260.439 69.86ZM287.619 76.79C287.619 78.01 287.319 79.12 286.719 80.12C286.119 81.1 285.219 81.88 284.019 82.46C282.819 83.02 281.309 83.3 279.489 83.3C278.649 83.3 277.869 83.25 277.149 83.15C276.429 83.05 275.739 82.91 275.079 82.73C274.439 82.53 273.809 82.28 273.189 81.98V77.33C274.269 77.83 275.369 78.25 276.489 78.59C277.629 78.93 278.719 79.1 279.759 79.1C280.419 79.1 280.949 79.02 281.349 78.86C281.769 78.68 282.069 78.45 282.249 78.17C282.449 77.87 282.549 77.53 282.549 77.15C282.549 76.69 282.389 76.3 282.069 75.98C281.769 75.64 281.319 75.32 280.719 75.02C280.119 74.7 279.389 74.34 278.529 73.94C277.889 73.66 277.259 73.34 276.639 72.98C276.039 72.6 275.489 72.17 274.989 71.69C274.509 71.19 274.119 70.6 273.819 69.92C273.539 69.22 273.399 68.4 273.399 67.46C273.399 66.12 273.709 65 274.329 64.1C274.969 63.18 275.859 62.48 276.999 62C278.139 61.52 279.479 61.28 281.019 61.28C282.279 61.28 283.439 61.42 284.499 61.7C285.559 61.98 286.589 62.34 287.589 62.78L285.969 66.77C285.009 66.35 284.109 66.03 283.269 65.81C282.449 65.57 281.649 65.45 280.869 65.45C280.329 65.45 279.879 65.53 279.519 65.69C279.159 65.83 278.889 66.04 278.709 66.32C278.529 66.58 278.439 66.89 278.439 67.25C278.439 67.67 278.579 68.04 278.859 68.36C279.139 68.66 279.579 68.97 280.179 69.29C280.779 69.61 281.569 70 282.549 70.46C283.609 70.94 284.519 71.46 285.279 72.02C286.039 72.58 286.619 73.24 287.019 74C287.419 74.74 287.619 75.67 287.619 76.79ZM311.154 74.99C311.154 76.63 310.824 78.08 310.164 79.34C309.504 80.58 308.504 81.55 307.164 82.25C305.824 82.95 304.134 83.3 302.094 83.3C299.214 83.3 297.014 82.56 295.494 81.08C293.974 79.6 293.214 77.58 293.214 75.02V61.58H298.344V74.45C298.344 76.09 298.664 77.26 299.304 77.96C299.964 78.66 300.934 79.01 302.214 79.01C303.114 79.01 303.844 78.85 304.404 78.53C304.964 78.21 305.374 77.71 305.634 77.03C305.914 76.35 306.054 75.48 306.054 74.42V61.58H311.154V74.99ZM324.74 61.58C326.68 61.58 328.28 61.82 329.54 62.3C330.82 62.76 331.78 63.47 332.42 64.43C333.06 65.37 333.38 66.55 333.38 67.97C333.38 68.89 333.21 69.71 332.87 70.43C332.53 71.15 332.07 71.78 331.49 72.32C330.93 72.86 330.28 73.31 329.54 73.67L335.81 83H330.08L325.25 74.96H323.24V83H318.14V61.58H324.74ZM324.53 65.6H323.24V70.97H324.53C325.35 70.97 326.03 70.88 326.57 70.7C327.11 70.5 327.51 70.19 327.77 69.77C328.05 69.33 328.19 68.79 328.19 68.15C328.19 67.57 328.06 67.1 327.8 66.74C327.54 66.36 327.14 66.08 326.6 65.9C326.06 65.7 325.37 65.6 324.53 65.6ZM352.789 83H340.279V61.58H352.789V65.72H345.379V69.83H352.249V73.97H345.379V78.8H352.789V83ZM382.172 76.79C382.172 78.01 381.872 79.12 381.272 80.12C380.672 81.1 379.772 81.88 378.572 82.46C377.372 83.02 375.862 83.3 374.042 83.3C373.202 83.3 372.422 83.25 371.702 83.15C370.982 83.05 370.292 82.91 369.632 82.73C368.992 82.53 368.362 82.28 367.742 81.98V77.33C368.822 77.83 369.922 78.25 371.042 78.59C372.182 78.93 373.272 79.1 374.312 79.1C374.972 79.1 375.502 79.02 375.902 78.86C376.322 78.68 376.622 78.45 376.802 78.17C377.002 77.87 377.102 77.53 377.102 77.15C377.102 76.69 376.942 76.3 376.622 75.98C376.322 75.64 375.872 75.32 375.272 75.02C374.672 74.7 373.942 74.34 373.082 73.94C372.442 73.66 371.812 73.34 371.192 72.98C370.592 72.6 370.042 72.17 369.542 71.69C369.062 71.19 368.672 70.6 368.372 69.92C368.092 69.22 367.952 68.4 367.952 67.46C367.952 66.12 368.262 65 368.882 64.1C369.522 63.18 370.412 62.48 371.552 62C372.692 61.52 374.032 61.28 375.572 61.28C376.832 61.28 377.992 61.42 379.052 61.7C380.112 61.98 381.142 62.34 382.142 62.78L380.522 66.77C379.562 66.35 378.662 66.03 377.822 65.81C377.002 65.57 376.202 65.45 375.422 65.45C374.882 65.45 374.432 65.53 374.072 65.69C373.712 65.83 373.442 66.04 373.262 66.32C373.082 66.58 372.992 66.89 372.992 67.25C372.992 67.67 373.132 68.04 373.412 68.36C373.692 68.66 374.132 68.97 374.732 69.29C375.332 69.61 376.122 70 377.102 70.46C378.162 70.94 379.072 71.46 379.832 72.02C380.592 72.58 381.172 73.24 381.572 74C381.972 74.74 382.172 75.67 382.172 76.79ZM396.706 83H391.606V65.81H386.056V61.58H402.256V65.81H396.706V83ZM418.566 83L417.246 78.41H409.836L408.516 83H402.936L410.226 61.49H416.766L424.146 83H418.566ZM414.846 69.86C414.746 69.5 414.606 69.02 414.426 68.42C414.266 67.8 414.096 67.17 413.916 66.53C413.756 65.89 413.626 65.35 413.526 64.91C413.446 65.35 413.316 65.9 413.136 66.56C412.976 67.2 412.816 67.83 412.656 68.45C412.496 69.05 412.366 69.52 412.266 69.86L411.006 74.15H416.106L414.846 69.86ZM435.447 83H430.347V65.81H424.797V61.58H440.997V65.81H435.447V83ZM458.816 83H446.306V61.58H458.816V65.72H451.406V69.83H458.276V73.97H451.406V78.8H458.816V83Z" fill="white"/>
<path d="M20 111.67V42L628 44.1503V297.025H279.586V325.839L273.98 329.28L269.668 325.839L259.319 320.679L252.42 325.839H245.089H236.896L218.786 324.119L210.593 325.839L205.85 331L194.638 329.28L184.721 331H175.665L172.216 325.839V317.668L168.335 309.067H162.298L152.811 305.626L148.93 299.176V291.004L142.894 281.973L139.444 276.812L134.27 270.362L129.957 259.18L119.177 266.491L111.416 268.211L106.241 263.911L96.3234 259.18L98.0482 251.869V245.848L101.498 241.548V231.656L98.0482 223.915L101.498 217.464V206.283V198.112L92.4426 195.101L82.0936 188.22L75.6255 177.899L68.295 168.007L59.2397 159.836L53.634 156.826L43.2851 150.375L37.6794 146.935V136.613V129.302L20 111.67Z" stroke="white" stroke-width="7"/>
</svg>
