<svg width="649" height="348" viewBox="0 0 649 348" fill="none" xmlns="http://www.w3.org/2000/svg">
<rect width="649" height="348" rx="41" fill="#E3E9EE"/>
<rect x="23" y="50" width="602" height="264" rx="32" stroke="#133260" stroke-width="6"/>
<rect x="141" width="366" height="93" fill="#E3E9EE"/>
<path d="M191.252 73H176.292L156.708 37.436H156.436C156.481 38.388 156.527 39.4307 156.572 40.564C156.663 41.652 156.731 42.7853 156.776 43.964C156.821 45.0973 156.867 46.2307 156.912 47.364C156.957 48.452 157.003 49.5173 157.048 50.56V73H146.712V24.448H161.604L181.12 59.604H181.324C181.279 58.652 181.233 57.6547 181.188 56.612C181.143 55.524 181.097 54.436 181.052 53.348C181.007 52.2147 180.961 51.1267 180.916 50.084C180.916 48.996 180.893 47.9533 180.848 46.956V24.448H191.252V73ZM231.048 73H202.692V24.448H231.048V33.832H214.252V43.148H229.824V52.532H214.252V63.48H231.048V73ZM256.323 24.448C260.811 24.448 264.506 24.8787 267.407 25.74C270.309 26.6013 272.462 27.9387 273.867 29.752C275.273 31.52 275.975 33.832 275.975 36.688C275.975 38.6373 275.635 40.36 274.955 41.856C274.275 43.3067 273.369 44.508 272.235 45.46C271.102 46.3667 269.833 46.956 268.427 47.228V47.568C269.878 47.8853 271.261 48.452 272.575 49.268C273.89 50.0387 274.955 51.1947 275.771 52.736C276.633 54.2773 277.063 56.3173 277.063 58.856C277.063 61.8027 276.315 64.3413 274.819 66.472C273.369 68.6027 271.283 70.2347 268.563 71.368C265.843 72.456 262.625 73 258.907 73H240.411V24.448H256.323ZM257.071 43.42C259.655 43.42 261.469 42.9667 262.511 42.06C263.554 41.108 264.075 39.8387 264.075 38.252C264.075 36.6653 263.463 35.4867 262.239 34.716C261.061 33.9453 259.179 33.56 256.595 33.56H251.971V43.42H257.071ZM251.971 52.26V63.752H257.751C260.471 63.752 262.353 63.208 263.395 62.12C264.483 61.032 265.027 59.604 265.027 57.836C265.027 56.748 264.801 55.796 264.347 54.98C263.894 54.1187 263.101 53.4613 261.967 53.008C260.879 52.5093 259.383 52.26 257.479 52.26H251.971ZM301.125 24.448C305.522 24.448 309.149 24.992 312.005 26.08C314.906 27.1227 317.082 28.732 318.533 30.908C319.984 33.0387 320.709 35.7133 320.709 38.932C320.709 41.0173 320.324 42.876 319.553 44.508C318.782 46.14 317.74 47.568 316.425 48.792C315.156 50.016 313.682 51.036 312.005 51.852L326.217 73H313.229L302.281 54.776H297.725V73H286.165V24.448H301.125ZM300.649 33.56H297.725V45.732H300.649C302.508 45.732 304.049 45.528 305.273 45.12C306.497 44.6667 307.404 43.964 307.993 43.012C308.628 42.0147 308.945 40.7907 308.945 39.34C308.945 38.0253 308.65 36.96 308.061 36.144C307.472 35.2827 306.565 34.648 305.341 34.24C304.117 33.7867 302.553 33.56 300.649 33.56ZM361.303 73L358.311 62.596H341.515L338.523 73H325.875L342.399 24.244H357.223L373.951 73H361.303ZM352.871 43.216C352.644 42.4 352.327 41.312 351.919 39.952C351.556 38.5467 351.171 37.1187 350.763 35.668C350.4 34.2173 350.106 32.9933 349.879 31.996C349.698 32.9933 349.403 34.24 348.995 35.736C348.632 37.1867 348.27 38.6147 347.907 40.02C347.544 41.38 347.25 42.4453 347.023 43.216L344.167 52.94H355.727L352.871 43.216ZM409.721 58.924C409.721 61.6893 409.041 64.2053 407.681 66.472C406.321 68.6933 404.281 70.4613 401.561 71.776C398.841 73.0453 395.418 73.68 391.293 73.68C389.389 73.68 387.621 73.5667 385.989 73.34C384.357 73.1133 382.793 72.796 381.297 72.388C379.846 71.9347 378.418 71.368 377.013 70.688V60.148C379.461 61.2813 381.954 62.2333 384.493 63.004C387.077 63.7747 389.548 64.16 391.905 64.16C393.401 64.16 394.602 63.9787 395.509 63.616C396.461 63.208 397.141 62.6867 397.549 62.052C398.002 61.372 398.229 60.6013 398.229 59.74C398.229 58.6973 397.866 57.8133 397.141 57.088C396.461 56.3173 395.441 55.592 394.081 54.912C392.721 54.1867 391.066 53.3707 389.117 52.464C387.666 51.8293 386.238 51.104 384.833 50.288C383.473 49.4267 382.226 48.452 381.093 47.364C380.005 46.2307 379.121 44.8933 378.441 43.352C377.806 41.7653 377.489 39.9067 377.489 37.776C377.489 34.7387 378.192 32.2 379.597 30.16C381.048 28.0747 383.065 26.488 385.649 25.4C388.233 24.312 391.27 23.768 394.761 23.768C397.617 23.768 400.246 24.0853 402.649 24.72C405.052 25.3547 407.386 26.1707 409.653 27.168L405.981 36.212C403.805 35.26 401.765 34.5347 399.861 34.036C398.002 33.492 396.189 33.22 394.421 33.22C393.197 33.22 392.177 33.4013 391.361 33.764C390.545 34.0813 389.933 34.5573 389.525 35.192C389.117 35.7813 388.913 36.484 388.913 37.3C388.913 38.252 389.23 39.0907 389.865 39.816C390.5 40.496 391.497 41.1987 392.857 41.924C394.217 42.6493 396.008 43.5333 398.229 44.576C400.632 45.664 402.694 46.8427 404.417 48.112C406.14 49.3813 407.454 50.8773 408.361 52.6C409.268 54.2773 409.721 56.3853 409.721 58.924ZM458.17 73H444.978L433.758 53.416L429.61 56.136V73H417.982V24.448H429.61V46.14C430.199 45.1427 430.834 44.1453 431.514 43.148C432.239 42.1507 432.942 41.176 433.622 40.224L445.454 24.448H458.17L441.986 46.072L458.17 73ZM493.584 73L490.592 62.596H473.796L470.804 73H458.156L474.68 24.244H489.504L506.232 73H493.584ZM485.152 43.216C484.926 42.4 484.608 41.312 484.2 39.952C483.838 38.5467 483.452 37.1187 483.044 35.668C482.682 34.2173 482.387 32.9933 482.16 31.996C481.979 32.9933 481.684 34.24 481.276 35.736C480.914 37.1867 480.551 38.6147 480.188 40.02C479.826 41.38 479.531 42.4453 479.304 43.216L476.448 52.94H488.008L485.152 43.216Z" fill="#133260"/>
</svg>
