<svg width="650" height="348" viewBox="0 0 650 348" fill="none" xmlns="http://www.w3.org/2000/svg">
<rect x="1" width="649" height="348" rx="41" fill="#ABD8EB"/>
<path fill-rule="evenodd" clip-rule="evenodd" d="M649 234.699V307C649 329.644 630.644 348 608 348H41C18.3563 348 0 329.644 0 307V206L66.5 254.966L134.5 212.937L194.5 254.966L268 268.431H335.5L356.5 259.046L395.5 262.718L414 243.948L464 254.966H498.5L570.5 212.937L649 234.699Z" fill="url(#paint0_linear_1060_139)" fill-opacity="0.5"/>
<path d="M313 182.5V167H338.5V199H336.5V206L313 182.5Z" fill="black" fill-opacity="0.3"/>
<path d="M180.44 68V30.804L179.08 24.004L180.44 19.924H191.388L205.124 38.42L208.388 44.064H209.068V19.924H221.92V24.004L221.24 30.804V68H210.564L193.496 44.064H192.816V48.144L193.496 68H180.44ZM231.44 68L230.08 63.92L231.44 57.12V19.856H265.1L268.5 21.896L264.012 31.416L257.892 30.736H243.68V38.216H261.972V48.756H253.948L243.68 48.076V57.12H264.012L272.104 63.648L268.092 68H231.44ZM288.456 68L276.216 30.668L274.176 23.936V19.856H287.096L296.684 55.624H298.044L307.496 19.856H320.28V23.936L318.24 30.668L306.068 68H288.456ZM318.254 68L321.518 56.508V47.872L326.55 45.832L335.39 19.924H353.002L363.95 50.388L369.186 60.044V68H357.15L353.75 57.12H333.962L331.038 68H318.254ZM338.45 46.648H350.01L344.842 31.076H343.414L338.45 46.648ZM375.276 68V30.804L373.916 24.004L375.276 19.856H395.54C398.804 19.856 401.932 20.1733 404.924 20.808C407.961 21.3973 410.659 22.5307 413.016 24.208C415.419 25.8853 417.3 28.288 418.66 31.416C420.065 34.544 420.768 38.6013 420.768 43.588C420.768 48.5747 420.065 52.6773 418.66 55.896C417.255 59.0693 415.351 61.54 412.948 63.308C410.545 65.076 407.825 66.3 404.788 66.98C401.796 67.66 398.713 68 395.54 68H375.276ZM387.652 57.12H395.54C399.529 57.12 402.589 56.0773 404.72 53.992C406.851 51.8613 407.916 48.3933 407.916 43.588C407.916 38.7827 406.828 35.4507 404.652 33.592C402.521 31.688 399.484 30.736 395.54 30.736H387.652V57.12ZM422.114 68L425.378 56.508V47.872L430.41 45.832L439.25 19.924H456.862L467.81 50.388L473.046 60.044V68H461.01L457.61 57.12H437.822L434.898 68H422.114ZM442.31 46.648H453.87L448.702 31.076H447.274L442.31 46.648Z" fill="#2D2F2F"/>
<path d="M158.52 318V298.308L158.16 294.708L158.52 292.512H165V302.268H173.964V292.512H180.444V306.048L180.804 308.532V318H173.964V308.496H165V310.656L165.36 318H158.52ZM193.081 318.36C190.153 318.36 187.885 317.664 186.277 316.272C184.669 314.88 183.865 312.624 183.865 309.504C183.865 306.36 184.669 304.104 186.277 302.736C187.885 301.344 190.153 300.648 193.081 300.648C196.081 300.648 198.349 301.344 199.885 302.736C201.445 304.104 202.225 306.36 202.225 309.504C202.225 312.624 201.445 314.88 199.885 316.272C198.349 317.664 196.081 318.36 193.081 318.36ZM193.081 313.68C194.065 313.68 194.749 313.32 195.133 312.6C195.517 311.856 195.709 310.824 195.709 309.504C195.709 308.16 195.517 307.128 195.133 306.408C194.749 305.688 194.065 305.328 193.081 305.328C192.073 305.328 191.365 305.688 190.957 306.408C190.573 307.128 190.381 308.16 190.381 309.504C190.381 310.824 190.573 311.856 190.957 312.6C191.365 313.32 192.073 313.68 193.081 313.68ZM204.549 303.204L205.665 301.008H211.029V302.556L211.353 302.772C211.617 302.532 211.977 302.256 212.433 301.944C212.913 301.608 213.489 301.308 214.161 301.044C214.833 300.78 215.589 300.648 216.429 300.648C218.925 300.648 220.713 301.476 221.793 303.132C222.225 302.532 222.873 301.968 223.737 301.44C224.625 300.888 225.849 300.612 227.409 300.612C229.569 300.612 231.189 301.224 232.269 302.448C233.349 303.672 233.889 305.388 233.889 307.596V312.204L234.645 315.804L233.889 318H227.409V308.532C227.409 307.62 227.205 306.924 226.797 306.444C226.413 305.94 225.801 305.688 224.961 305.688C224.409 305.688 223.929 305.892 223.521 306.3C223.113 306.708 222.909 307.224 222.909 307.848V318H216.429V308.568C216.429 307.656 216.225 306.96 215.817 306.48C215.433 305.976 214.821 305.724 213.981 305.724L211.749 306.408V318H205.269V307.164L204.549 303.204ZM246.526 318.36C244.678 318.36 243.034 318.084 241.594 317.532C240.154 316.98 239.026 316.056 238.21 314.76C237.394 313.464 236.986 311.712 236.986 309.504C236.986 307.92 237.25 306.564 237.778 305.436C238.33 304.308 239.062 303.396 239.974 302.7C240.886 301.98 241.906 301.464 243.034 301.152C244.162 300.816 245.326 300.648 246.526 300.648C248.59 300.648 250.174 300.852 251.278 301.26C252.406 301.668 253.15 301.992 253.51 302.232L255.31 307.956L254.59 310.188H243.43C243.598 311.076 244.042 311.82 244.762 312.42C245.482 313.02 246.67 313.32 248.326 313.32C249.622 313.32 250.738 313.176 251.674 312.888C252.61 312.6 253.342 312.348 253.87 312.132V316.956C253.15 317.34 252.106 317.676 250.738 317.964C249.394 318.228 247.99 318.36 246.526 318.36ZM243.466 307.884L248.434 307.164L248.11 305.616C247.942 305.52 247.69 305.448 247.354 305.4C247.042 305.352 246.766 305.328 246.526 305.328C245.854 305.328 245.29 305.472 244.834 305.76C244.402 306.048 244.066 306.396 243.826 306.804C243.61 307.188 243.49 307.548 243.466 307.884ZM267.689 318V298.308L266.969 294.708L267.725 292.548H274.601L281.657 306.228H282.377L288.209 292.548H295.373L295.733 294.708L295.373 298.164V318H288.857L288.965 314.94V304.896H288.569L287.129 308.352L283.889 314.4H279.569L274.601 304.896H274.241V307.812L274.601 318H267.689ZM308.331 318.36C306.483 318.36 304.839 318.084 303.399 317.532C301.959 316.98 300.831 316.056 300.015 314.76C299.199 313.464 298.791 311.712 298.791 309.504C298.791 307.92 299.055 306.564 299.583 305.436C300.135 304.308 300.867 303.396 301.779 302.7C302.691 301.98 303.711 301.464 304.839 301.152C305.967 300.816 307.131 300.648 308.331 300.648C310.395 300.648 311.979 300.852 313.083 301.26C314.211 301.668 314.955 301.992 315.315 302.232L317.115 307.956L316.395 310.188H305.235C305.403 311.076 305.847 311.82 306.567 312.42C307.287 313.02 308.475 313.32 310.131 313.32C311.427 313.32 312.543 313.176 313.479 312.888C314.415 312.6 315.147 312.348 315.675 312.132V316.956C314.955 317.34 313.911 317.676 312.543 317.964C311.199 318.228 309.795 318.36 308.331 318.36ZM305.271 307.884L310.239 307.164L309.915 305.616C309.747 305.52 309.495 305.448 309.159 305.4C308.847 305.352 308.571 305.328 308.331 305.328C307.659 305.328 307.095 305.472 306.639 305.76C306.207 306.048 305.871 306.396 305.631 306.804C305.415 307.188 305.295 307.548 305.271 307.884ZM324.805 318.36C323.773 318.36 322.813 318.216 321.925 317.928C321.061 317.616 320.365 317.088 319.837 316.344C319.309 315.6 319.045 314.568 319.045 313.248C319.045 312.048 319.345 311.052 319.945 310.26C320.545 309.468 321.361 308.88 322.393 308.496C323.425 308.112 324.589 307.92 325.885 307.92C327.133 307.92 328.069 308.064 328.693 308.352C329.317 308.616 329.857 308.892 330.313 309.18L330.565 308.964C330.565 308.244 330.505 307.644 330.385 307.164C330.265 306.684 329.989 306.324 329.557 306.084C329.125 305.82 328.453 305.688 327.541 305.688C326.653 305.688 325.705 305.772 324.697 305.94C323.713 306.084 322.801 306.276 321.961 306.516C321.145 306.732 320.533 306.948 320.125 307.164V301.764C320.869 301.5 321.925 301.26 323.293 301.044C324.685 300.804 326.389 300.684 328.405 300.684C330.565 300.684 332.269 300.96 333.517 301.512C334.789 302.04 335.701 302.82 336.253 303.852C336.805 304.86 337.081 306.072 337.081 307.488V312.276L337.801 315.912L337.081 318.036H330.925V316.272L330.565 316.092C330.373 316.284 330.037 316.56 329.557 316.92C329.077 317.28 328.441 317.616 327.649 317.928C326.857 318.216 325.909 318.36 324.805 318.36ZM327.865 313.644C328.513 313.644 329.065 313.584 329.521 313.464C330.001 313.344 330.349 313.236 330.565 313.14V312.456C330.565 312.144 330.337 311.844 329.881 311.556C329.449 311.268 328.765 311.124 327.829 311.124C326.533 311.124 325.885 311.58 325.885 312.492C325.885 312.876 326.029 313.164 326.317 313.356C326.605 313.548 327.121 313.644 327.865 313.644ZM341.394 318V307.164L340.674 303.204L341.79 301.008H347.154V302.556L347.478 302.772C347.742 302.532 348.102 302.256 348.558 301.944C349.038 301.608 349.614 301.308 350.286 301.044C350.958 300.78 351.714 300.648 352.554 300.648C354.714 300.648 356.334 301.26 357.414 302.484C358.494 303.708 359.034 305.424 359.034 307.632V312.204L359.79 315.804L359.034 318H352.554V308.568C352.554 307.656 352.35 306.96 351.942 306.48C351.558 305.976 350.946 305.724 350.106 305.724L347.874 306.408V318H341.394ZM370.282 318.36C368.53 318.36 366.982 318.18 365.638 317.82C364.294 317.46 363.25 317.088 362.506 316.704V311.7C363.49 312.132 364.498 312.468 365.53 312.708C366.586 312.948 367.534 313.116 368.374 313.212C369.214 313.284 369.814 313.32 370.174 313.32C370.582 313.32 370.87 313.26 371.038 313.14C371.206 312.996 371.29 312.828 371.29 312.636C371.29 312.372 371.074 312.156 370.642 311.988C370.21 311.796 369.394 311.556 368.194 311.268C367.21 311.028 366.25 310.728 365.314 310.368C364.402 309.984 363.646 309.456 363.046 308.784C362.47 308.112 362.182 307.212 362.182 306.084C362.182 304.692 362.506 303.6 363.154 302.808C363.802 302.016 364.726 301.464 365.926 301.152C367.126 300.816 368.53 300.648 370.138 300.648C371.05 300.648 371.902 300.696 372.694 300.792C373.486 300.888 374.05 300.96 374.386 301.008L377.734 303.168L376.114 307.02L369.814 305.652C369.046 305.652 368.662 305.904 368.662 306.408C368.662 306.936 369.214 307.332 370.318 307.596C371.182 307.788 372.07 308.004 372.982 308.244C373.894 308.46 374.722 308.748 375.466 309.108C376.234 309.468 376.846 309.948 377.302 310.548C377.782 311.148 378.022 311.94 378.022 312.924C378.022 314.748 377.362 316.116 376.042 317.028C374.746 317.916 372.826 318.36 370.282 318.36ZM390.63 318V298.308L389.91 294.708L390.63 292.548H396.426L403.698 302.34L405.426 305.328H405.786V292.548H412.59V294.708L412.23 298.308V318H406.578L397.542 305.328H397.182V307.488L397.542 318H390.63ZM425.19 318.36C423.342 318.36 421.698 318.084 420.258 317.532C418.818 316.98 417.69 316.056 416.874 314.76C416.058 313.464 415.65 311.712 415.65 309.504C415.65 307.92 415.914 306.564 416.442 305.436C416.994 304.308 417.726 303.396 418.638 302.7C419.55 301.98 420.57 301.464 421.698 301.152C422.826 300.816 423.99 300.648 425.19 300.648C427.254 300.648 428.838 300.852 429.942 301.26C431.07 301.668 431.814 301.992 432.174 302.232L433.974 307.956L433.254 310.188H422.094C422.262 311.076 422.706 311.82 423.426 312.42C424.146 313.02 425.334 313.32 426.99 313.32C428.286 313.32 429.402 313.176 430.338 312.888C431.274 312.6 432.006 312.348 432.534 312.132V316.956C431.814 317.34 430.77 317.676 429.402 317.964C428.058 318.228 426.654 318.36 425.19 318.36ZM422.13 307.884L427.098 307.164L426.774 305.616C426.606 305.52 426.354 305.448 426.018 305.4C425.706 305.352 425.43 305.328 425.19 305.328C424.518 305.328 423.954 305.472 423.498 305.76C423.066 306.048 422.73 306.396 422.49 306.804C422.274 307.188 422.154 307.548 422.13 307.884ZM440.44 318L435.904 305.688L435.184 301.008H442.024L444.004 312.24H444.724L446.74 301.008H453.544L452.824 305.688L448 318H440.44ZM460.754 318.36C459.722 318.36 458.762 318.216 457.874 317.928C457.01 317.616 456.314 317.088 455.786 316.344C455.258 315.6 454.994 314.568 454.994 313.248C454.994 312.048 455.294 311.052 455.894 310.26C456.494 309.468 457.31 308.88 458.342 308.496C459.374 308.112 460.538 307.92 461.834 307.92C463.082 307.92 464.018 308.064 464.642 308.352C465.266 308.616 465.806 308.892 466.262 309.18L466.514 308.964C466.514 308.244 466.454 307.644 466.334 307.164C466.214 306.684 465.938 306.324 465.506 306.084C465.074 305.82 464.402 305.688 463.49 305.688C462.602 305.688 461.654 305.772 460.646 305.94C459.662 306.084 458.75 306.276 457.91 306.516C457.094 306.732 456.482 306.948 456.074 307.164V301.764C456.818 301.5 457.874 301.26 459.242 301.044C460.634 300.804 462.338 300.684 464.354 300.684C466.514 300.684 468.218 300.96 469.466 301.512C470.738 302.04 471.65 302.82 472.202 303.852C472.754 304.86 473.03 306.072 473.03 307.488V312.276L473.75 315.912L473.03 318.036H466.874V316.272L466.514 316.092C466.322 316.284 465.986 316.56 465.506 316.92C465.026 317.28 464.39 317.616 463.598 317.928C462.806 318.216 461.858 318.36 460.754 318.36ZM463.814 313.644C464.462 313.644 465.014 313.584 465.47 313.464C465.95 313.344 466.298 313.236 466.514 313.14V312.456C466.514 312.144 466.286 311.844 465.83 311.556C465.398 311.268 464.714 311.124 463.778 311.124C462.482 311.124 461.834 311.58 461.834 312.492C461.834 312.876 461.978 313.164 462.266 313.356C462.554 313.548 463.07 313.644 463.814 313.644ZM482.924 318.36C481.796 318.36 480.704 318.072 479.648 317.496C478.616 316.92 477.764 316.008 477.092 314.76C476.42 313.512 476.084 311.88 476.084 309.864C476.084 307.632 476.408 305.844 477.056 304.5C477.728 303.156 478.592 302.184 479.648 301.584C480.704 300.96 481.796 300.648 482.924 300.648C484.628 300.648 485.828 300.792 486.524 301.08C487.244 301.368 487.604 301.512 487.604 301.512L487.244 294.708L487.604 292.548H494.12V312.24L494.84 315.84L494.12 318.036H487.964V316.272L487.604 316.092C487.604 316.092 487.424 316.284 487.064 316.668C486.704 317.028 486.176 317.4 485.48 317.784C484.784 318.168 483.932 318.36 482.924 318.36ZM485.624 313.284L487.604 312.78V307.524C487.604 306.972 487.424 306.54 487.064 306.228C486.704 305.892 486.224 305.724 485.624 305.724C484.736 305.724 484.064 306.024 483.608 306.624C483.152 307.2 482.924 308.16 482.924 309.504C482.924 310.824 483.188 311.784 483.716 312.384C484.244 312.984 484.88 313.284 485.624 313.284ZM503.117 318.36C502.085 318.36 501.125 318.216 500.237 317.928C499.373 317.616 498.677 317.088 498.149 316.344C497.621 315.6 497.357 314.568 497.357 313.248C497.357 312.048 497.657 311.052 498.257 310.26C498.857 309.468 499.673 308.88 500.705 308.496C501.737 308.112 502.901 307.92 504.197 307.92C505.445 307.92 506.381 308.064 507.005 308.352C507.629 308.616 508.169 308.892 508.625 309.18L508.877 308.964C508.877 308.244 508.817 307.644 508.697 307.164C508.577 306.684 508.301 306.324 507.869 306.084C507.437 305.82 506.765 305.688 505.853 305.688C504.965 305.688 504.017 305.772 503.009 305.94C502.025 306.084 501.113 306.276 500.273 306.516C499.457 306.732 498.845 306.948 498.437 307.164V301.764C499.181 301.5 500.237 301.26 501.605 301.044C502.997 300.804 504.701 300.684 506.717 300.684C508.877 300.684 510.581 300.96 511.829 301.512C513.101 302.04 514.013 302.82 514.565 303.852C515.117 304.86 515.393 306.072 515.393 307.488V312.276L516.113 315.912L515.393 318.036H509.237V316.272L508.877 316.092C508.685 316.284 508.349 316.56 507.869 316.92C507.389 317.28 506.753 317.616 505.961 317.928C505.169 318.216 504.221 318.36 503.117 318.36ZM506.177 313.644C506.825 313.644 507.377 313.584 507.833 313.464C508.313 313.344 508.661 313.236 508.877 313.14V312.456C508.877 312.144 508.649 311.844 508.193 311.556C507.761 311.268 507.077 311.124 506.141 311.124C504.845 311.124 504.197 311.58 504.197 312.492C504.197 312.876 504.341 313.164 504.629 313.356C504.917 313.548 505.433 313.644 506.177 313.644Z" fill="#2D2F2F"/>
<defs>
<linearGradient id="paint0_linear_1060_139" x1="100.5" y1="299.851" x2="597.918" y2="310.877" gradientUnits="userSpaceOnUse">
<stop stop-color="#8A8F62"/>
<stop offset="0.458333" stop-color="#FEEC8E"/>
<stop offset="0.765625" stop-color="#FCC26E"/>
<stop offset="1" stop-color="#F96B2B"/>
</linearGradient>
</defs>
</svg>
