<svg width="649" height="356" viewBox="0 0 649 356" fill="none" xmlns="http://www.w3.org/2000/svg">
<rect width="649" height="348" rx="41" fill="#A9BCDA"/>
<path fill-rule="evenodd" clip-rule="evenodd" d="M520.488 0L430.688 36.5753L367.734 77.846L330.494 112.016L283.5 122.223L289.707 144.412L280.397 177.251L292.81 191.452L297.687 217.19V229.616L260.004 284.644L228.356 348H608C630.644 348 649 329.644 649 307V41C649 18.3563 630.644 0 608 0H520.488Z" fill="url(#paint0_linear_1060_152)" fill-opacity="0.5"/>
<path d="M197.584 336H176.776V334.368L182.692 333.756V313.56H161.204V333.756L167.12 334.368V336H146.244V334.368L152.16 333.756V292.82L146.244 292.208V290.576H167.12V292.208L161.204 292.82V311.112H182.692V292.82L176.776 292.208V290.576H197.584V292.208L191.668 292.82V333.756L197.584 334.368V336ZM245.136 336H225.144V334.368L230.652 333.756L224.396 318.116H209.096L203.656 332.6L209.708 334.368V336H195.496V334.368L200.664 332.6L217.12 290.576H221.88L239.9 333.756L245.136 334.368V336ZM223.376 315.6L216.712 299.076L210.048 315.6H223.376ZM300.389 336H281.281V334.368L286.449 333.756L284.681 298.872L271.013 336H267.409L251.089 299.212L249.797 332.668L255.509 334.368V336H241.569V334.368L247.213 332.396L248.573 292.82L242.793 292.14V290.576H256.325L271.693 326.412L284.953 290.576H299.437L299.505 292.14L293.657 292.82L295.153 333.756L300.389 334.368V336ZM338.799 301.932C338.799 304.471 338.232 306.647 337.099 308.46C335.965 310.273 334.424 311.656 332.475 312.608C328.893 314.331 324.564 315.192 319.487 315.192C318.625 315.192 317.424 315.147 315.883 315.056V333.756L321.051 334.368V336H301.807V334.368L306.907 333.756V292.684L301.059 292.004V290.44H314.591L322.547 290.236C328.168 290.281 332.271 291.279 334.855 293.228C337.484 295.177 338.799 298.079 338.799 301.932ZM317.787 313.084C321.504 313.084 324.36 312.087 326.355 310.092C328.349 308.052 329.347 305.355 329.347 302C329.347 298.645 328.644 296.197 327.239 294.656C325.833 293.069 323.612 292.276 320.575 292.276C318.444 292.276 316.88 292.367 315.883 292.548V312.948C316.699 313.039 317.333 313.084 317.787 313.084ZM341.959 333.688C340.055 332.464 339.103 330.9 339.103 328.996C339.103 326.367 341.188 324.735 345.359 324.1C346.084 328.316 347.625 331.24 349.983 332.872C352.068 334.323 354.267 335.048 356.579 335.048C358.936 335.048 360.953 334.345 362.631 332.94C364.353 331.489 365.215 329.132 365.215 325.868C365.215 323.42 364.331 321.493 362.563 320.088C360.84 318.637 358.641 317.368 355.967 316.28C353.292 315.192 351.479 314.444 350.527 314.036C349.575 313.583 348.351 312.925 346.855 312.064C345.404 311.203 344.316 310.387 343.591 309.616C341.777 307.531 340.871 305.128 340.871 302.408C340.871 298.147 342.457 294.928 345.631 292.752C348.804 290.576 353.224 289.488 358.891 289.488C362.109 289.488 365.849 289.851 370.111 290.576V300.64H367.867L365.147 292.616C362.88 291.891 360.568 291.528 358.211 291.528C355.899 291.528 353.881 292.276 352.159 293.772C350.436 295.223 349.575 297.399 349.575 300.3C349.575 303.609 351.071 306.08 354.063 307.712C355.559 308.483 357.327 309.253 359.367 310.024C361.407 310.795 362.88 311.384 363.787 311.792C364.693 312.155 365.895 312.767 367.391 313.628C368.887 314.444 369.997 315.26 370.723 316.076C371.448 316.892 372.105 317.98 372.695 319.34C373.284 320.655 373.579 322.105 373.579 323.692C373.579 327.545 371.947 330.696 368.683 333.144C365.419 335.592 360.953 336.816 355.287 336.816C349.665 336.816 345.223 335.773 341.959 333.688ZM426.022 336H405.214V334.368L411.13 333.756V313.56H389.642V333.756L395.558 334.368V336H374.681V334.368L380.598 333.756V292.82L374.681 292.208V290.576H395.558V292.208L389.642 292.82V311.112H411.13V292.82L405.214 292.208V290.576H426.022V292.208L420.106 292.82V333.756L426.022 334.368V336ZM448.005 336H427.129V334.368L433.045 333.756V292.82L427.129 292.208V290.576H448.005V292.208L442.089 292.82V333.756L448.005 334.368V336ZM463.784 312.268H466.096C473.35 312.268 476.976 308.8 476.976 301.864C476.976 298.509 476.274 296.084 474.868 294.588C473.463 293.047 471.242 292.276 468.204 292.276C466.255 292.276 464.782 292.367 463.784 292.548V312.268ZM462.628 290.44L470.244 290.236C481.034 290.236 486.428 294.112 486.428 301.864C486.428 305.309 485.204 308.12 482.756 310.296C480.308 312.472 477.158 313.56 473.304 313.56H471.74C476.908 314.24 480.444 315.804 482.348 318.252C484.298 320.7 485.272 324.417 485.272 329.404C485.272 332.487 485.907 334.368 487.176 335.048C487.63 335.32 488.287 335.456 489.148 335.456C490.055 335.456 491.279 335.093 492.82 334.368L492.888 336C490.44 337.043 487.947 337.564 485.408 337.564C480.331 337.564 477.271 335.66 476.228 331.852C475.866 330.265 475.684 328.293 475.684 325.936C475.684 323.533 475.526 321.697 475.208 320.428C474.936 319.113 474.506 318.048 473.916 317.232C472.602 315.237 470.131 314.24 466.504 314.24H463.784V333.756L468.952 334.368V336H449.776V334.368L454.808 333.824V292.684L448.96 291.868V290.168C452.768 290.349 456.191 290.44 459.228 290.44H462.628ZM491.118 336V334.368L497.034 333.756V292.82L491.118 292.208V290.576H525.798V300.232H523.622L520.97 293.024L506.078 292.82V311.112H519.27L521.378 306.08H523.282V318.728H521.31L519.27 313.56H506.078V333.824L523.01 333.62L526.546 325.868H528.722L527.906 336H491.118Z" fill="#034927"/>
<path d="M337.893 263.874C328.99 267.234 320.666 270.9 312.92 274.871C305.174 278.842 299.654 281.974 296.36 284.265L291.419 287.702C289.994 288.567 288.748 289 287.68 289C287.145 289 286.656 288.911 286.211 288.733C285.854 288.554 285.587 288.376 285.409 288.198L285.142 287.931C283.985 285.869 283.406 283.705 283.406 281.439C283.406 279.632 283.851 277.01 284.742 273.573C285.632 270.111 286.077 267.59 286.077 266.012C286.077 265.757 285.899 265.63 285.543 265.63C285.365 265.63 285.098 265.668 284.742 265.745C284.474 265.821 284.252 265.897 284.074 265.974L283.807 266.088C280.334 267.514 276.328 269.551 271.787 272.198C267.336 274.82 263.819 277.086 261.237 278.995C259.279 280.446 257.231 281.757 255.094 282.928C253.046 284.099 251.221 285.016 249.619 285.678C248.016 286.34 246.547 286.887 245.212 287.32C243.876 287.778 242.852 288.084 242.14 288.236L241.072 288.465C240.003 288.695 239.246 288.809 238.801 288.809C238.267 288.809 238 288.682 238 288.427C238 286.034 250.865 278.804 276.595 266.737C278.732 265.745 280.646 264.828 282.338 263.988C284.118 263.148 285.32 262.562 285.943 262.232L286.878 261.697C290.618 258.718 293.467 257.229 295.425 257.229C296.761 257.229 297.429 257.866 297.429 259.138C298.052 265.274 298.363 270.429 298.363 274.604C298.363 276.411 298.319 277.646 298.23 278.308C298.408 278.715 298.809 278.919 299.432 278.919C300.144 278.919 301.034 278.626 302.103 278.041C311.629 272.847 317.639 269.487 320.132 267.959C332.151 260.653 343.28 257 353.518 257C354.765 257 355.388 257.102 355.388 257.305C355.388 257.458 354.943 257.662 354.053 257.916C351.738 258.68 346.351 260.666 337.893 263.874Z" fill="#034927"/>
<path d="M337.935 274.107C339.003 273.471 339.538 272.911 339.538 272.427C339.538 272.02 339.092 271.816 338.202 271.816C337.668 271.816 337.045 271.867 336.332 271.969C335.709 272.045 335.22 272.134 334.863 272.236L334.196 272.389C331.436 273.076 327.964 274.337 323.779 276.169C319.684 277.977 317.636 279.135 317.636 279.644C317.636 279.746 317.725 279.797 317.903 279.797C318.437 279.797 319.595 279.67 321.375 279.415C323.245 279.161 325.871 278.562 329.254 277.621C332.727 276.679 335.62 275.508 337.935 274.107ZM331.925 282.852C336.644 281.605 343.41 279.543 352.225 276.666C352.492 276.59 352.714 276.551 352.892 276.551C353.07 276.551 353.159 276.602 353.159 276.704C353.159 277.188 352.492 277.659 351.156 278.117C344.568 280.204 338.736 281.948 333.662 283.348C329.922 284.418 325.471 285.449 320.307 286.442C315.143 287.409 310.869 287.893 307.486 287.893C303.391 287.893 301.343 287.078 301.343 285.449C301.343 282.75 304.815 279.924 311.76 276.971C318.793 274.018 326.895 272.02 336.065 270.976C339.894 270.518 343.366 270.289 346.482 270.289C349.954 270.289 351.69 270.683 351.69 271.473C351.69 272.949 348.04 274.642 340.74 276.551C333.439 278.461 325.248 279.912 316.167 280.905C315.811 280.93 315.499 281.019 315.232 281.172C313.897 282.216 313.229 283.145 313.229 283.959C313.229 284.876 314.431 285.334 316.835 285.334C320.663 285.334 325.693 284.507 331.925 282.852Z" fill="#034927"/>
<path d="M386.962 279.874C382.065 281.605 377.524 283.119 373.34 284.418C369.244 285.691 366.351 286.543 364.659 286.976L362.122 287.587C360.697 287.918 359.584 288.084 358.783 288.084C357.804 288.084 357.314 287.854 357.314 287.396C357.314 286.302 359.362 283.87 363.457 280.103L362.656 280.217C358.115 281.821 353.842 283.247 349.835 284.494C345.918 285.716 343.113 286.543 341.422 286.976L338.884 287.587C337.46 287.918 336.347 288.084 335.546 288.084C334.566 288.084 334.077 287.854 334.077 287.396C334.077 286.123 336.035 283.794 339.953 280.408C343.87 276.997 347.699 274.286 351.438 272.274C352.417 271.74 353.842 271.282 355.711 270.9C357.581 270.518 359.584 270.327 361.721 270.327C362.344 270.327 362.656 270.403 362.656 270.556C362.656 270.709 362.3 270.989 361.588 271.396C359.095 272.873 356.023 275.011 352.373 277.811C348.722 280.586 346.897 282.508 346.897 283.578C346.897 283.705 346.986 283.768 347.164 283.768C347.521 283.768 348.144 283.628 349.034 283.348C350.102 283.068 351.482 282.687 353.174 282.203C354.866 281.719 357.448 280.866 360.92 279.644C364.392 278.397 366.84 277.302 368.265 276.36L374.675 272.274C376.1 271.613 377.702 271.129 379.483 270.823C381.353 270.492 383 270.327 384.424 270.327C385.492 270.327 386.027 270.403 386.027 270.556C386.027 270.658 385.626 270.938 384.825 271.396C377.079 276.004 372.227 279.937 370.268 283.196C370.179 283.298 370.135 283.399 370.135 283.501C370.135 283.654 370.268 283.73 370.535 283.73C371.158 283.73 373.384 283.145 377.213 281.974C381.041 280.777 383.623 279.874 384.958 279.263C385.136 279.161 385.225 279.059 385.225 278.957C384.869 278.728 384.691 278.422 384.691 278.041C384.691 276.513 387.362 274.82 392.704 272.962C398.135 271.078 403.61 269.843 409.13 269.258C409.665 269.207 410.021 269.181 410.199 269.181C410.733 269.181 411 269.245 411 269.372C410.911 270.085 404.189 273.153 390.834 278.575C390.567 278.677 390.434 278.753 390.434 278.804C390.434 278.906 390.567 278.97 390.834 278.995C391.903 279.148 392.971 279.224 394.04 279.224C398.046 279.224 402.854 278.27 408.463 276.36C408.641 276.309 408.774 276.284 408.863 276.284C409.308 276.284 409.531 276.424 409.531 276.704C409.531 276.984 408.463 277.468 406.326 278.155C402.408 279.428 397.912 280.064 392.838 280.064C391.057 280.064 389.321 279.963 387.629 279.759L386.962 279.874Z" fill="#034927"/>
<path d="M180.15 46V21.01H185.435V41.625H195.585V46H180.15ZM209.285 46H197.91V42.99L200.955 41.59V25.42L197.91 24.02V21.01H209.285V24.02L206.24 25.42V41.59L209.285 42.99V46ZM233.144 21.01L224.639 46H218.864L210.394 21.01H215.749L220.439 35.885C220.532 36.1417 220.66 36.62 220.824 37.32C221.01 37.9967 221.197 38.72 221.384 39.49C221.57 40.2367 221.699 40.8667 221.769 41.38C221.839 40.8667 221.955 40.2367 222.119 39.49C222.305 38.72 222.492 37.9967 222.679 37.32C222.865 36.62 222.994 36.1417 223.064 35.885L227.789 21.01H233.144ZM250.692 46H236.307V21.01H250.692V25.35H241.592V30.845H250.062V35.185H241.592V41.625H250.692V46ZM270.199 46H264.984V21.01H279.299V25.35H270.199V31.79H278.669V36.13H270.199V46ZM291.473 21.01C293.736 21.01 295.603 21.29 297.073 21.85C298.543 22.3867 299.64 23.215 300.363 24.335C301.086 25.4317 301.448 26.82 301.448 28.5C301.448 29.6433 301.226 30.6467 300.783 31.51C300.363 32.35 299.791 33.0733 299.068 33.68C298.368 34.2633 297.61 34.7417 296.793 35.115L304.143 46H298.263L292.313 36.41H289.478V46H284.193V21.01H291.473ZM291.088 25.35H289.478V32.105H291.193C292.36 32.105 293.305 31.9767 294.028 31.72C294.751 31.4633 295.276 31.0783 295.603 30.565C295.93 30.0283 296.093 29.3867 296.093 28.64C296.093 27.8467 295.906 27.2167 295.533 26.75C295.183 26.26 294.635 25.91 293.888 25.7C293.165 25.4667 292.231 25.35 291.088 25.35ZM321.683 46H307.298V21.01H321.683V25.35H312.583V30.845H321.053V35.185H312.583V41.625H321.683V46ZM341.268 46H326.883V21.01H341.268V25.35H332.168V30.845H340.638V35.185H332.168V41.625H341.268V46ZM378.24 33.47C378.24 35.4067 377.995 37.1683 377.505 38.755C377.038 40.3183 376.315 41.6717 375.335 42.815C374.378 43.9583 373.142 44.8333 371.625 45.44C370.132 46.0467 368.37 46.35 366.34 46.35C364.31 46.35 362.537 46.0467 361.02 45.44C359.527 44.81 358.29 43.935 357.31 42.815C356.353 41.6717 355.63 40.3067 355.14 38.72C354.673 37.1333 354.44 35.3717 354.44 33.435C354.44 30.845 354.86 28.5933 355.7 26.68C356.563 24.7667 357.87 23.285 359.62 22.235C361.393 21.1617 363.645 20.625 366.375 20.625C369.082 20.625 371.31 21.1617 373.06 22.235C374.81 23.285 376.105 24.7783 376.945 26.715C377.808 28.6283 378.24 30.88 378.24 33.47ZM360.005 33.47C360.005 35.22 360.227 36.725 360.67 37.985C361.113 39.245 361.802 40.2133 362.735 40.89C363.668 41.5667 364.87 41.905 366.34 41.905C367.857 41.905 369.07 41.5667 369.98 40.89C370.913 40.2133 371.59 39.245 372.01 37.985C372.453 36.725 372.675 35.22 372.675 33.47C372.675 30.8333 372.185 28.7683 371.205 27.275C370.225 25.7817 368.615 25.035 366.375 25.035C364.882 25.035 363.668 25.3733 362.735 26.05C361.802 26.7267 361.113 27.695 360.67 28.955C360.227 30.215 360.005 31.72 360.005 33.47ZM390.697 21.01C392.96 21.01 394.827 21.29 396.297 21.85C397.767 22.3867 398.863 23.215 399.587 24.335C400.31 25.4317 400.672 26.82 400.672 28.5C400.672 29.6433 400.45 30.6467 400.007 31.51C399.587 32.35 399.015 33.0733 398.292 33.68C397.592 34.2633 396.833 34.7417 396.017 35.115L403.367 46H397.487L391.537 36.41H388.702V46H383.417V21.01H390.697ZM390.312 25.35H388.702V32.105H390.417C391.583 32.105 392.528 31.9767 393.252 31.72C393.975 31.4633 394.5 31.0783 394.827 30.565C395.153 30.0283 395.317 29.3867 395.317 28.64C395.317 27.8467 395.13 27.2167 394.757 26.75C394.407 26.26 393.858 25.91 393.112 25.7C392.388 25.4667 391.455 25.35 390.312 25.35ZM436.334 33.26C436.334 36.06 435.797 38.405 434.724 40.295C433.651 42.185 432.087 43.6083 430.034 44.565C428.004 45.5217 425.554 46 422.684 46H415.614V21.01H423.454C426.067 21.01 428.331 21.4767 430.244 22.41C432.181 23.3433 433.674 24.72 434.724 26.54C435.797 28.3367 436.334 30.5767 436.334 33.26ZM430.839 33.4C430.839 31.5567 430.571 30.04 430.034 28.85C429.497 27.66 428.692 26.785 427.619 26.225C426.569 25.6417 425.274 25.35 423.734 25.35H420.899V41.625H423.174C425.764 41.625 427.689 40.9367 428.949 39.56C430.209 38.1833 430.839 36.13 430.839 33.4ZM450.867 46H439.492V42.99L442.537 41.59V25.42L439.492 24.02V21.01H450.867V24.02L447.822 25.42V41.59L450.867 42.99V46ZM469.511 46H455.126V21.01H469.511V25.35H460.411V30.845H468.881V35.185H460.411V41.625H469.511V46Z" fill="#004A25"/>
<defs>
<linearGradient id="paint0_linear_1060_152" x1="577" y1="218" x2="292" y2="229.5" gradientUnits="userSpaceOnUse">
<stop stop-color="#7DA696"/>
<stop offset="1" stop-color="#8FA2A8"/>
</linearGradient>
</defs>
</svg>
