<svg width="649" height="348" viewBox="0 0 649 348" fill="none" xmlns="http://www.w3.org/2000/svg">
<rect width="649" height="348" rx="41" fill="url(#paint0_linear_1061_167)"/>
<path d="M342.939 150.094L344 144.806L328.435 135.288L319.238 130L318.177 130.353H317.469L317.116 131.41H316.054V132.115L314.993 132.82L313.932 134.935L313.578 136.345L312.871 137.755L311.81 139.165L310.041 140.223L309.687 141.281L308.98 142.691L307.918 143.396L305.796 144.806V145.863L307.565 148.331V149.036L308.272 149.741L307.565 150.446L306.857 150.799V152.209L306.15 152.561L305.442 153.266H304.735L304.027 153.971L303.673 154.676L304.027 155.381L303.32 156.086V157.144L304.027 157.496V157.849L303.32 158.554L304.027 159.612L303.673 160.317V161.374L304.027 162.079H304.735H305.442H306.503L307.211 162.784L307.565 163.489V165.252V167.367L308.272 168.072L308.98 168.777L309.687 168.424L310.395 168.777L310.748 169.482L311.456 171.245L312.871 172.302L313.932 173.36L314.286 174.77L315.347 175.475L316.408 176.18L317.116 177.237L317.823 177.942L318.177 178.647L317.823 179.353H317.116L316.762 179.705L316.054 180.058L315.701 179.705H314.993L314.639 180.058V180.763L313.224 181.468L311.81 181.82L310.395 182.878L309.333 183.935L307.918 184.288V184.993L306.857 185.698L305.796 186.05L305.088 186.755V187.46L305.442 188.165V188.871L305.088 189.223H303.673L301.905 190.633H300.136L298.721 190.986L295.537 193.806L294.83 194.863L294.476 195.568L293.769 196.626L293.415 198.036L292 199.446V200.856L293.415 201.914V202.266L292.707 202.971L293.061 204.029L292.354 205.086L292.707 206.496H293.415L294.122 207.201L294.83 207.554L295.184 208.259L296.245 209.669L296.952 210.022V210.727L298.014 211.784L298.367 211.079L299.075 211.432L299.429 212.489L300.49 213.547L301.197 212.842L301.551 213.194V213.899L302.612 214.604L304.027 215.662V217.072L304.735 217.777L305.442 218.13L306.15 216.719H307.211H308.272V217.424L310.748 217.777L311.81 218.13L312.871 218.835V219.892L312.517 220.95L311.456 223.417L310.395 225.532L310.041 227.295L310.395 228H312.163L312.871 227.647H313.932L316.408 225.18V224.827L317.116 223.417L319.238 220.95L318.531 220.597L321.007 216.367L323.837 213.194L328.435 210.727V210.022L331.265 206.496V205.439L332.327 205.086L332.68 204.029L337.986 194.511L339.048 185.345L341.524 173.712L341.878 168.424L341.524 166.662L340.463 165.252L340.109 165.604V166.309L340.816 167.014L340.463 168.072L339.401 167.719L336.218 166.309H335.156H333.741L332.68 165.604V164.547L333.741 162.784L334.449 160.317L335.156 158.906H337.279L339.401 157.496L340.109 155.029L342.939 150.094Z" fill="black" fill-opacity="0.3"/>
<path d="M161.432 33.2507C161.229 33.2507 161.128 32.8791 161.128 32.136C161.128 31.3253 161.196 30.8524 161.331 30.7173C162.412 30.7849 163.56 30.8862 164.776 31.0213C165.992 31.1564 167.478 31.224 169.235 31.224C171.059 31.224 173.389 31.0551 176.227 30.7173C177.443 33.4871 182.442 40.0738 191.224 50.4773C193.453 53.1796 195.581 55.8142 197.608 58.3813C197.743 58.1787 197.811 57.8071 197.811 57.2667V43.1813C197.811 39.3307 197.574 36.4596 197.101 34.568C196.628 33.6222 194.804 33.1493 191.629 33.1493C191.562 33.1493 191.494 32.8116 191.427 32.136C191.427 31.4604 191.494 30.9538 191.629 30.616C193.183 30.7511 194.534 30.8862 195.683 31.0213C196.899 31.1564 198.284 31.224 199.837 31.224C201.391 31.224 204.195 31.0213 208.248 30.616C208.316 30.8187 208.349 31.224 208.349 31.832C208.349 32.44 208.248 32.9129 208.045 33.2507C206.356 33.2507 205.039 33.4196 204.093 33.7573C203.215 34.0951 202.708 34.3991 202.573 34.6693C202.438 34.9396 202.337 35.4124 202.269 36.088C202.202 36.7636 202.134 37.5067 202.067 38.3173C201.932 39.9387 201.864 41.4924 201.864 42.9787V65.6773C201.864 69.3253 201.965 72.4667 202.168 75.1013C202.033 75.2364 201.763 75.304 201.357 75.304H200.445C199.77 75.304 199.094 74.7973 198.419 73.784L171.16 40.2427V64.4613C171.16 67.1636 171.396 69.3253 171.869 70.9467C172.207 71.7573 173.693 72.3316 176.328 72.6693C176.868 72.7369 177.206 72.7707 177.341 72.7707C177.544 73.1084 177.645 73.5813 177.645 74.1893C177.645 74.7298 177.612 75.1013 177.544 75.304C173.491 74.8987 170.687 74.696 169.133 74.696C167.58 74.696 166.195 74.7636 164.979 74.8987C163.83 75.0338 162.479 75.1689 160.925 75.304C160.79 74.9662 160.723 74.4596 160.723 73.784C160.79 73.1084 160.858 72.7707 160.925 72.7707C162.344 72.7707 163.56 72.568 164.573 72.1627C165.587 71.7573 166.195 71.352 166.397 70.9467C166.87 69.8658 167.107 67.6364 167.107 64.2587V40.648C167.107 36.7973 166.431 34.6018 165.08 34.0613C163.864 33.5209 162.648 33.2507 161.432 33.2507ZM219.765 56.152C219.9 56.152 220.339 56.152 221.082 56.152C221.893 56.0844 222.771 56.0169 223.717 55.9493C225.879 55.8818 227.432 55.7804 228.378 55.6453C228.986 55.5778 229.29 55.2062 229.29 54.5307C229.29 53.7876 229.223 53.0107 229.087 52.2C228.952 51.3893 228.716 50.68 228.378 50.072C227.635 48.5858 226.655 47.8427 225.439 47.8427C224.291 47.8427 223.379 48.1804 222.703 48.856C222.028 49.464 221.454 50.2071 220.981 51.0853C220.17 52.8418 219.765 54.5307 219.765 56.152ZM235.775 57.976C231.722 58.3138 226.385 58.584 219.765 58.7867C219.765 62.9076 220.913 65.9476 223.21 67.9067C224.967 69.3253 226.858 70.0347 228.885 70.0347C230.979 70.0347 232.6 69.6631 233.749 68.92C234.897 68.1769 235.843 67.4338 236.586 66.6907C237.127 66.8258 237.397 67.1973 237.397 67.8053C237.397 68.4133 237.262 68.92 236.991 69.3253C236.789 69.6631 236.35 70.2036 235.674 70.9467C234.999 71.6222 234.154 72.2978 233.141 72.9733C230.574 74.7298 228.108 75.608 225.743 75.608C223.379 75.608 221.352 75.304 219.663 74.696C217.975 74.0204 216.488 73.0747 215.205 71.8587C212.435 69.224 211.05 65.8124 211.05 61.624C211.05 57.3004 212.536 53.5173 215.509 50.2747C218.684 46.8293 222.129 45.1067 225.845 45.1067C229.831 45.1067 232.871 46.2889 234.965 48.6533C236.721 50.5449 237.599 52.7404 237.599 55.24C237.599 55.9831 237.431 56.6249 237.093 57.1653C236.755 57.7058 236.316 57.976 235.775 57.976ZM237.915 45.4107C239.671 45.6809 242.61 45.816 246.731 45.816C250.851 45.816 253.723 45.6809 255.344 45.4107C255.547 45.5458 255.648 45.9511 255.648 46.6267C255.648 47.2347 255.547 47.64 255.344 47.8427C254.939 47.8427 254.331 47.9778 253.52 48.248C252.101 48.6533 251.392 49.1262 251.392 49.6667V50.072C251.392 50.2747 251.459 50.4773 251.595 50.68L258.08 63.448C258.823 61.624 259.499 60.0027 260.107 58.584C261.66 54.936 262.437 52.9431 262.437 52.6053C262.437 51.7271 262.235 50.984 261.829 50.376C261.289 49.4302 260.512 48.7884 259.499 48.4507C258.553 48.0453 257.945 47.8427 257.675 47.8427C257.404 47.5724 257.269 47.1671 257.269 46.6267C257.337 46.0187 257.438 45.6133 257.573 45.4107C260.275 45.6809 263.451 45.816 267.099 45.816C270.747 45.816 273.381 45.6809 275.003 45.4107C275.205 45.5458 275.307 45.9511 275.307 46.6267C275.307 47.2347 275.205 47.64 275.003 47.8427C274.597 47.8427 273.989 47.9778 273.179 48.248C271.76 48.6533 271.051 49.1262 271.051 49.6667V50.072C271.051 50.2747 271.118 50.4773 271.253 50.68L276.827 62.9413L281.387 52.0987C281.859 50.8827 282.096 50.072 282.096 49.6667C282.096 49.2613 281.859 48.9236 281.387 48.6533C280.981 48.3831 280.475 48.1804 279.867 48.0453C278.921 47.9102 278.076 47.8427 277.333 47.8427C277.198 47.7076 277.131 47.336 277.131 46.728C277.131 46.0524 277.198 45.6133 277.333 45.4107C279.36 45.6809 281.555 45.816 283.92 45.816C286.284 45.816 288.547 45.6809 290.709 45.4107C290.844 45.5458 290.912 45.9173 290.912 46.5253C290.912 47.1333 290.844 47.5724 290.709 47.8427C289.223 47.8427 288.142 48.0791 287.467 48.552C286.791 49.0249 286.352 49.4978 286.149 49.9707L276.32 72.0613C275.712 73.4124 275.07 74.3582 274.395 74.8987C273.787 75.4391 273.347 75.7093 273.077 75.7093C272.807 75.7093 272.503 75.5404 272.165 75.2027C271.152 72.6356 270.206 70.2711 269.328 68.1093C268.45 65.88 267.605 63.752 266.795 61.7253C265.984 59.6311 265.308 57.9084 264.768 56.5573C263.349 60.2053 261.12 65.3733 258.08 72.0613C257.539 73.4124 256.931 74.3582 256.256 74.8987C255.58 75.4391 255.107 75.7093 254.837 75.7093C254.567 75.7093 254.263 75.5404 253.925 75.2027L242.171 50.376C241.63 49.3627 240.853 48.6871 239.84 48.3493C238.827 48.0116 238.185 47.8427 237.915 47.8427C237.712 47.5724 237.644 47.1671 237.712 46.6267C237.712 46.0187 237.779 45.6133 237.915 45.4107ZM317.702 31.224C320.81 31.224 323.951 31.0551 327.126 30.7173C327.261 30.92 327.329 31.3253 327.329 31.9333C327.396 32.5413 327.329 32.9804 327.126 33.2507C325.842 33.2507 324.829 33.3858 324.086 33.656C323.343 33.9262 322.938 34.1627 322.87 34.3653C322.532 35.3111 322.363 37.4053 322.363 40.648V65.4747C322.363 73.1084 320.573 79.0196 316.993 83.208C313.48 87.464 308.65 89.592 302.502 89.592C301.894 89.592 301.218 89.4569 300.475 89.1867C299.665 88.9164 299.09 88.6462 298.753 88.376C298.01 87.4302 297.638 86.4169 297.638 85.336C297.638 84.3227 298.043 83.3431 298.854 82.3973C299.665 81.4516 300.543 80.9787 301.489 80.9787C302.367 80.9787 303.144 81.2151 303.819 81.688C304.427 82.1609 305.002 82.6676 305.542 83.208C306.082 83.816 306.589 84.3564 307.062 84.8293C307.535 85.3022 308.177 85.5387 308.987 85.5387C309.798 85.5387 310.474 85.032 311.014 84.0187C311.622 83.0053 312.061 81.6204 312.331 79.864C312.737 77.2293 312.939 72.6018 312.939 65.9813V40.648C312.939 37.4053 312.77 35.3111 312.433 34.3653C312.162 33.6222 310.744 33.2507 308.177 33.2507C308.042 32.9804 307.974 32.5413 307.974 31.9333C307.974 31.3253 308.042 30.92 308.177 30.7173C311.554 31.0551 314.73 31.224 317.702 31.224ZM340.073 56.152C340.208 56.152 340.648 56.152 341.391 56.152C342.201 56.0844 343.08 56.0169 344.025 55.9493C346.187 55.8818 347.741 55.7804 348.687 55.6453C349.295 55.5778 349.599 55.2062 349.599 54.5307C349.599 53.7876 349.531 53.0107 349.396 52.2C349.261 51.3893 349.024 50.68 348.687 50.072C347.944 48.5858 346.964 47.8427 345.748 47.8427C344.6 47.8427 343.688 48.1804 343.012 48.856C342.336 49.464 341.762 50.2071 341.289 51.0853C340.479 52.8418 340.073 54.5307 340.073 56.152ZM356.084 57.976C352.031 58.3138 346.694 58.584 340.073 58.7867C340.073 62.9076 341.222 65.9476 343.519 67.9067C345.275 69.3253 347.167 70.0347 349.193 70.0347C351.288 70.0347 352.909 69.6631 354.057 68.92C355.206 68.1769 356.152 67.4338 356.895 66.6907C357.435 66.8258 357.705 67.1973 357.705 67.8053C357.705 68.4133 357.57 68.92 357.3 69.3253C357.097 69.6631 356.658 70.2036 355.983 70.9467C355.307 71.6222 354.463 72.2978 353.449 72.9733C350.882 74.7298 348.416 75.608 346.052 75.608C343.688 75.608 341.661 75.304 339.972 74.696C338.283 74.0204 336.797 73.0747 335.513 71.8587C332.744 69.224 331.359 65.8124 331.359 61.624C331.359 57.3004 332.845 53.5173 335.817 50.2747C338.992 46.8293 342.438 45.1067 346.153 45.1067C350.139 45.1067 353.179 46.2889 355.273 48.6533C357.03 50.5449 357.908 52.7404 357.908 55.24C357.908 55.9831 357.739 56.6249 357.401 57.1653C357.064 57.7058 356.624 57.976 356.084 57.976ZM369.471 74.7973C366.701 74.7973 363.628 74.9662 360.25 75.304C360.115 75.1013 360.047 74.696 360.047 74.088C360.047 73.48 360.115 73.0409 360.25 72.7707C361.668 72.7707 362.716 72.6356 363.391 72.3653C364.067 72.0276 364.472 71.7573 364.607 71.5547C364.945 70.744 365.114 68.6498 365.114 65.272V56.5573C365.114 56.0169 365.046 55.2062 364.911 54.1253C364.776 53.0444 364.641 52.3689 364.506 52.0987C364.033 51.2204 362.614 50.7813 360.25 50.7813C360.115 50.7138 360.047 50.376 360.047 49.768C360.115 49.0924 360.216 48.7547 360.351 48.7547C362.918 48.552 365.418 48.0791 367.85 47.336C370.282 46.5253 372.14 45.816 373.423 45.208C373.626 45.2756 373.862 45.4444 374.132 45.7147C374.403 45.9849 374.504 46.1876 374.436 46.3227C374.436 46.4578 374.403 46.7618 374.335 47.2347C374.268 47.7076 374.2 48.248 374.132 48.856C374.065 49.3964 373.997 49.9369 373.93 50.4773C373.862 51.0178 373.828 51.3893 373.828 51.592C373.828 51.7271 373.896 51.8284 374.031 51.896C374.166 51.896 374.234 51.8622 374.234 51.7947C375.45 49.768 376.463 48.3493 377.274 47.5387C379.03 45.9173 380.82 45.1067 382.644 45.1067C384.671 45.1067 386.056 45.4782 386.799 46.2213C387.34 47.032 387.61 47.944 387.61 48.9573C387.61 49.9031 387.508 50.7138 387.306 51.3893C387.103 51.9973 386.799 52.5716 386.394 53.112C385.583 54.2604 384.637 54.8347 383.556 54.8347C382.948 54.8347 382.408 54.632 381.935 54.2267C381.53 53.8213 381.124 53.4498 380.719 53.112C380.381 52.7742 380.01 52.4702 379.604 52.2C379.267 51.8622 378.794 51.6933 378.186 51.6933C377.578 51.6933 377.004 51.9298 376.463 52.4027C375.923 52.808 375.45 53.3147 375.044 53.9227C374.234 55.1387 373.828 56.2196 373.828 57.1653V65.272C373.828 68.6498 373.93 70.6089 374.132 71.1493C374.335 71.6222 374.605 71.96 374.943 72.1627C375.281 72.2978 375.652 72.4329 376.058 72.568C376.733 72.7031 377.443 72.7707 378.186 72.7707C378.321 73.0409 378.388 73.48 378.388 74.088C378.388 74.696 378.321 75.1013 378.186 75.304C374.808 74.9662 371.903 74.7973 369.471 74.7973ZM391.126 65.4747C391.126 65.1369 391.464 64.968 392.14 64.968C392.815 64.968 393.288 65.2044 393.558 65.6773C394.031 68.312 395.044 70.2373 396.598 71.4533C397.747 72.3991 399.03 72.872 400.449 72.872C401.868 72.872 402.915 72.5004 403.59 71.7573C404.266 71.0142 404.603 70.2036 404.603 69.3253C404.603 68.4471 404.367 67.7378 403.894 67.1973C403.489 66.5893 402.948 66.0827 402.273 65.6773C401.665 65.272 400.955 64.8667 400.145 64.4613C397.172 63.1102 394.673 61.4889 392.646 59.5973C391.295 58.3138 390.619 56.6924 390.619 54.7333C390.619 52.7067 391.025 51.1191 391.836 49.9707C392.646 48.8222 393.659 47.8764 394.875 47.1333C397.172 45.7147 399.908 45.0053 403.083 45.0053C404.637 45.0053 405.988 45.1742 407.137 45.512C408.285 45.7822 409.434 46.0524 410.582 46.3227C410.988 48.0116 411.325 49.7342 411.595 51.4907C411.866 53.2471 412.001 54.2942 412.001 54.632C412.001 54.9022 411.697 55.0373 411.089 55.0373C410.481 55.0373 409.974 54.8347 409.569 54.4293C409.028 52.4702 408.42 51.0516 407.745 50.1733C406.326 48.552 404.57 47.7413 402.475 47.7413C401.327 47.7413 400.381 48.0453 399.638 48.6533C398.963 49.2613 398.625 50.072 398.625 51.0853C398.625 52.0987 398.828 52.9093 399.233 53.5173C399.706 54.1253 400.246 54.6658 400.854 55.1387C401.53 55.544 402.273 55.9156 403.083 56.2533C403.894 56.5911 404.705 56.9627 405.516 57.368C406.326 57.7058 407.171 58.1111 408.049 58.584C408.927 59.0569 409.704 59.6311 410.379 60.3067C411.933 61.8604 412.71 63.6844 412.71 65.7787C412.71 67.8053 412.339 69.3929 411.595 70.5413C410.852 71.6898 409.873 72.6356 408.657 73.3787C406.36 74.7973 403.32 75.5067 399.537 75.5067C397.983 75.5067 396.497 75.3378 395.078 75C393.66 74.5947 392.511 74.2907 391.633 74.088C391.498 73.1422 391.396 71.9262 391.329 70.44C391.261 68.8862 391.194 67.7378 391.126 66.9947C391.126 66.184 391.126 65.6773 391.126 65.4747ZM423.644 56.152C423.779 56.152 424.218 56.152 424.961 56.152C425.772 56.0844 426.65 56.0169 427.596 55.9493C429.757 55.8818 431.311 55.7804 432.257 55.6453C432.865 55.5778 433.169 55.2062 433.169 54.5307C433.169 53.7876 433.101 53.0107 432.966 52.2C432.831 51.3893 432.595 50.68 432.257 50.072C431.514 48.5858 430.534 47.8427 429.318 47.8427C428.17 47.8427 427.258 48.1804 426.582 48.856C425.907 49.464 425.333 50.2071 424.86 51.0853C424.049 52.8418 423.644 54.5307 423.644 56.152ZM439.654 57.976C435.601 58.3138 430.264 58.584 423.644 58.7867C423.644 62.9076 424.792 65.9476 427.089 67.9067C428.845 69.3253 430.737 70.0347 432.764 70.0347C434.858 70.0347 436.479 69.6631 437.628 68.92C438.776 68.1769 439.722 67.4338 440.465 66.6907C441.005 66.8258 441.276 67.1973 441.276 67.8053C441.276 68.4133 441.141 68.92 440.87 69.3253C440.668 69.6631 440.229 70.2036 439.553 70.9467C438.877 71.6222 438.033 72.2978 437.02 72.9733C434.453 74.7298 431.987 75.608 429.622 75.608C427.258 75.608 425.231 75.304 423.542 74.696C421.853 74.0204 420.367 73.0747 419.084 71.8587C416.314 69.224 414.929 65.8124 414.929 61.624C414.929 57.3004 416.415 53.5173 419.388 50.2747C422.563 46.8293 426.008 45.1067 429.724 45.1067C433.709 45.1067 436.749 46.2889 438.844 48.6533C440.6 50.5449 441.478 52.7404 441.478 55.24C441.478 55.9831 441.309 56.6249 440.972 57.1653C440.634 57.7058 440.195 57.976 439.654 57.976ZM463.58 45.4107C465.472 45.6809 467.769 45.816 470.471 45.816C473.241 45.816 475.571 45.6809 477.463 45.4107C477.598 45.5458 477.665 45.9173 477.665 46.5253C477.733 47.1333 477.665 47.5724 477.463 47.8427C475.909 47.8427 474.659 48.1129 473.713 48.6533C472.835 49.1262 472.295 49.5991 472.092 50.072L458.513 78.7493C456.554 82.5324 454.325 85.4373 451.825 87.464C450.069 88.8827 448.414 89.592 446.86 89.592C445.306 89.592 444.124 89.2204 443.313 88.4773C442.57 87.8018 442.199 86.8898 442.199 85.7413C442.199 84.6604 442.705 83.7147 443.719 82.904C446.353 82.904 448.515 82.6 450.204 81.992C451.893 81.384 453.413 79.9316 454.764 77.6347C455.44 76.6213 456.217 75.0676 457.095 72.9733L446.049 50.376C445.577 49.3627 444.8 48.6871 443.719 48.3493C442.705 48.0116 442.064 47.8427 441.793 47.8427C441.591 47.5724 441.523 47.1671 441.591 46.6267C441.591 46.0187 441.658 45.6133 441.793 45.4107C442.266 45.4782 443.28 45.5458 444.833 45.6133C446.455 45.6809 447.671 45.7484 448.481 45.816C449.36 45.816 450.947 45.816 453.244 45.816C455.609 45.816 457.601 45.6809 459.223 45.4107C459.425 45.5458 459.527 45.9511 459.527 46.6267C459.527 47.2347 459.425 47.64 459.223 47.8427C458.817 47.8427 458.209 47.9778 457.399 48.248C455.98 48.6533 455.271 49.1262 455.271 49.6667V50.072C455.271 50.2747 455.338 50.4773 455.473 50.68L462.364 63.8533L467.633 52.0987C468.106 50.8827 468.343 50.072 468.343 49.6667C468.343 49.2613 468.106 48.9236 467.633 48.6533C467.228 48.3831 466.721 48.1804 466.113 48.0453C465.168 47.9102 464.323 47.8427 463.58 47.8427C463.445 47.7076 463.377 47.336 463.377 46.728C463.377 46.0524 463.445 45.6133 463.58 45.4107Z" fill="black"/>
<path d="M187.245 307.955H199.98V324.605C198.3 325.175 196.545 325.625 194.715 325.955C192.915 326.285 190.86 326.45 188.55 326.45C185.37 326.45 182.655 325.82 180.405 324.56C178.185 323.3 176.49 321.44 175.32 318.98C174.18 316.52 173.61 313.49 173.61 309.89C173.61 306.53 174.255 303.62 175.545 301.16C176.865 298.7 178.77 296.795 181.26 295.445C183.75 294.095 186.795 293.42 190.395 293.42C192.105 293.42 193.785 293.6 195.435 293.96C197.085 294.32 198.585 294.8 199.935 295.4L197.685 300.845C196.695 300.335 195.57 299.915 194.31 299.585C193.05 299.255 191.73 299.09 190.35 299.09C188.37 299.09 186.645 299.54 185.175 300.44C183.735 301.34 182.61 302.615 181.8 304.265C181.02 305.885 180.63 307.805 180.63 310.025C180.63 312.125 180.915 313.985 181.485 315.605C182.055 317.225 182.955 318.5 184.185 319.43C185.415 320.33 187.02 320.78 189 320.78C189.66 320.78 190.23 320.765 190.71 320.735C191.22 320.675 191.685 320.615 192.105 320.555C192.525 320.465 192.93 320.39 193.32 320.33V313.625H187.245V307.955ZM217.153 300.935C220.453 300.935 222.973 301.655 224.713 303.095C226.483 304.505 227.368 306.68 227.368 309.62V326H222.688L221.383 322.67H221.203C220.513 323.54 219.793 324.26 219.043 324.83C218.323 325.4 217.483 325.805 216.523 326.045C215.593 326.315 214.438 326.45 213.058 326.45C211.618 326.45 210.313 326.18 209.143 325.64C208.003 325.07 207.103 324.215 206.443 323.075C205.783 321.905 205.453 320.435 205.453 318.665C205.453 316.055 206.368 314.135 208.198 312.905C210.028 311.645 212.773 310.955 216.433 310.835L220.708 310.7V309.62C220.708 308.33 220.363 307.385 219.673 306.785C219.013 306.185 218.083 305.885 216.883 305.885C215.683 305.885 214.513 306.065 213.373 306.425C212.233 306.755 211.093 307.175 209.953 307.685L207.748 303.14C209.068 302.45 210.523 301.91 212.113 301.52C213.733 301.13 215.413 300.935 217.153 300.935ZM218.098 314.705C215.938 314.765 214.438 315.155 213.598 315.875C212.758 316.595 212.338 317.54 212.338 318.71C212.338 319.73 212.638 320.465 213.238 320.915C213.838 321.335 214.618 321.545 215.578 321.545C217.018 321.545 218.233 321.125 219.223 320.285C220.213 319.415 220.708 318.2 220.708 316.64V314.615L218.098 314.705ZM247.957 300.98C248.287 300.98 248.677 300.995 249.127 301.025C249.577 301.055 249.937 301.1 250.207 301.16L249.712 307.46C249.502 307.4 249.187 307.355 248.767 307.325C248.377 307.265 248.032 307.235 247.732 307.235C246.862 307.235 246.022 307.355 245.212 307.595C244.402 307.805 243.667 308.15 243.007 308.63C242.377 309.11 241.867 309.755 241.477 310.565C241.117 311.345 240.937 312.32 240.937 313.49V326H234.232V301.43H239.317L240.307 305.57H240.622C241.102 304.73 241.702 303.965 242.422 303.275C243.142 302.585 243.967 302.03 244.897 301.61C245.857 301.19 246.877 300.98 247.957 300.98ZM261.572 326.45C258.842 326.45 256.607 325.385 254.867 323.255C253.157 321.095 252.302 317.93 252.302 313.76C252.302 309.56 253.172 306.38 254.912 304.22C256.652 302.06 258.932 300.98 261.752 300.98C262.922 300.98 263.957 301.145 264.857 301.475C265.757 301.775 266.522 302.195 267.152 302.735C267.812 303.275 268.367 303.89 268.817 304.58H269.042C268.952 304.1 268.847 303.41 268.727 302.51C268.607 301.58 268.547 300.635 268.547 299.675V291.8H275.252V326H270.122L268.817 322.805H268.547C268.127 323.465 267.587 324.08 266.927 324.65C266.297 325.19 265.547 325.625 264.677 325.955C263.807 326.285 262.772 326.45 261.572 326.45ZM263.912 321.095C265.772 321.095 267.077 320.555 267.827 319.475C268.577 318.365 268.967 316.715 268.997 314.525V313.805C268.997 311.405 268.622 309.575 267.872 308.315C267.152 307.055 265.802 306.425 263.822 306.425C262.352 306.425 261.197 307.07 260.357 308.36C259.517 309.62 259.097 311.45 259.097 313.85C259.097 316.25 259.517 318.065 260.357 319.295C261.197 320.495 262.382 321.095 263.912 321.095ZM292.389 300.98C294.669 300.98 296.619 301.415 298.239 302.285C299.889 303.155 301.164 304.415 302.064 306.065C302.964 307.715 303.414 309.74 303.414 312.14V315.38H287.574C287.634 317.27 288.189 318.755 289.239 319.835C290.319 320.915 291.804 321.455 293.694 321.455C295.284 321.455 296.724 321.305 298.014 321.005C299.304 320.675 300.639 320.18 302.019 319.52V324.695C300.819 325.295 299.544 325.73 298.194 326C296.874 326.3 295.269 326.45 293.379 326.45C290.919 326.45 288.744 326 286.854 325.1C284.964 324.17 283.479 322.775 282.399 320.915C281.319 319.055 280.779 316.715 280.779 313.895C280.779 311.015 281.259 308.63 282.219 306.74C283.209 304.82 284.574 303.38 286.314 302.42C288.054 301.46 290.079 300.98 292.389 300.98ZM292.434 305.75C291.144 305.75 290.064 306.17 289.194 307.01C288.354 307.85 287.859 309.155 287.709 310.925H297.114C297.114 309.935 296.934 309.05 296.574 308.27C296.244 307.49 295.734 306.875 295.044 306.425C294.354 305.975 293.484 305.75 292.434 305.75ZM322.801 300.98C325.441 300.98 327.556 301.7 329.146 303.14C330.736 304.55 331.531 306.83 331.531 309.98V326H324.826V311.645C324.826 309.875 324.511 308.555 323.881 307.685C323.251 306.785 322.246 306.335 320.866 306.335C318.826 306.335 317.431 307.04 316.681 308.45C315.931 309.83 315.556 311.825 315.556 314.435V326H308.851V301.43H313.981L314.881 304.58H315.241C315.781 303.74 316.441 303.065 317.221 302.555C318.001 302.015 318.871 301.625 319.831 301.385C320.791 301.115 321.781 300.98 322.801 300.98ZM369.6 317.09C369.6 318.98 369.135 320.63 368.205 322.04C367.275 323.45 365.925 324.545 364.155 325.325C362.415 326.075 360.285 326.45 357.765 326.45C356.655 326.45 355.56 326.375 354.48 326.225C353.43 326.075 352.41 325.865 351.42 325.595C350.46 325.295 349.545 324.935 348.675 324.515V318.17C350.205 318.83 351.78 319.445 353.4 320.015C355.05 320.555 356.685 320.825 358.305 320.825C359.415 320.825 360.3 320.675 360.96 320.375C361.65 320.075 362.145 319.67 362.445 319.16C362.775 318.65 362.94 318.065 362.94 317.405C362.94 316.595 362.655 315.905 362.085 315.335C361.545 314.765 360.81 314.24 359.88 313.76C358.95 313.25 357.885 312.71 356.685 312.14C355.935 311.78 355.125 311.36 354.255 310.88C353.385 310.37 352.545 309.755 351.735 309.035C350.955 308.285 350.31 307.385 349.8 306.335C349.29 305.285 349.035 304.025 349.035 302.555C349.035 300.635 349.47 299 350.34 297.65C351.24 296.27 352.5 295.22 354.12 294.5C355.77 293.78 357.705 293.42 359.925 293.42C361.605 293.42 363.195 293.615 364.695 294.005C366.225 294.395 367.815 294.95 369.465 295.67L367.26 300.98C365.79 300.38 364.47 299.915 363.3 299.585C362.13 299.255 360.93 299.09 359.7 299.09C358.86 299.09 358.14 299.225 357.54 299.495C356.94 299.765 356.475 300.14 356.145 300.62C355.845 301.1 355.695 301.67 355.695 302.33C355.695 303.08 355.92 303.725 356.37 304.265C356.82 304.775 357.495 305.27 358.395 305.75C359.295 306.23 360.42 306.8 361.77 307.46C363.42 308.24 364.815 309.05 365.955 309.89C367.125 310.73 368.025 311.72 368.655 312.86C369.285 314 369.6 315.41 369.6 317.09ZM385.251 321.095C386.001 321.095 386.721 321.02 387.411 320.87C388.101 320.72 388.791 320.54 389.481 320.33V325.325C388.761 325.625 387.861 325.88 386.781 326.09C385.731 326.33 384.576 326.45 383.316 326.45C381.846 326.45 380.526 326.21 379.356 325.73C378.216 325.25 377.301 324.425 376.611 323.255C375.951 322.055 375.621 320.405 375.621 318.305V306.47H372.426V303.635L376.116 301.385L378.051 296.21H382.326V301.43H389.211V306.47H382.326V318.305C382.326 319.235 382.596 319.94 383.136 320.42C383.676 320.87 384.381 321.095 385.251 321.095ZM404.492 300.935C407.792 300.935 410.312 301.655 412.052 303.095C413.822 304.505 414.707 306.68 414.707 309.62V326H410.027L408.722 322.67H408.542C407.852 323.54 407.132 324.26 406.382 324.83C405.662 325.4 404.822 325.805 403.862 326.045C402.932 326.315 401.777 326.45 400.397 326.45C398.957 326.45 397.652 326.18 396.482 325.64C395.342 325.07 394.442 324.215 393.782 323.075C393.122 321.905 392.792 320.435 392.792 318.665C392.792 316.055 393.707 314.135 395.537 312.905C397.367 311.645 400.112 310.955 403.772 310.835L408.047 310.7V309.62C408.047 308.33 407.702 307.385 407.012 306.785C406.352 306.185 405.422 305.885 404.222 305.885C403.022 305.885 401.852 306.065 400.712 306.425C399.572 306.755 398.432 307.175 397.292 307.685L395.087 303.14C396.407 302.45 397.862 301.91 399.452 301.52C401.072 301.13 402.752 300.935 404.492 300.935ZM405.437 314.705C403.277 314.765 401.777 315.155 400.937 315.875C400.097 316.595 399.677 317.54 399.677 318.71C399.677 319.73 399.977 320.465 400.577 320.915C401.177 321.335 401.957 321.545 402.917 321.545C404.357 321.545 405.572 321.125 406.562 320.285C407.552 319.415 408.047 318.2 408.047 316.64V314.615L405.437 314.705ZM431.921 321.095C432.671 321.095 433.391 321.02 434.081 320.87C434.771 320.72 435.461 320.54 436.151 320.33V325.325C435.431 325.625 434.531 325.88 433.451 326.09C432.401 326.33 431.246 326.45 429.986 326.45C428.516 326.45 427.196 326.21 426.026 325.73C424.886 325.25 423.971 324.425 423.281 323.255C422.621 322.055 422.291 320.405 422.291 318.305V306.47H419.096V303.635L422.786 301.385L424.721 296.21H428.996V301.43H435.881V306.47H428.996V318.305C428.996 319.235 429.266 319.94 429.806 320.42C430.346 320.87 431.051 321.095 431.921 321.095ZM451.207 300.98C453.487 300.98 455.437 301.415 457.057 302.285C458.707 303.155 459.982 304.415 460.882 306.065C461.782 307.715 462.232 309.74 462.232 312.14V315.38H446.392C446.452 317.27 447.007 318.755 448.057 319.835C449.137 320.915 450.622 321.455 452.512 321.455C454.102 321.455 455.542 321.305 456.832 321.005C458.122 320.675 459.457 320.18 460.837 319.52V324.695C459.637 325.295 458.362 325.73 457.012 326C455.692 326.3 454.087 326.45 452.197 326.45C449.737 326.45 447.562 326 445.672 325.1C443.782 324.17 442.297 322.775 441.217 320.915C440.137 319.055 439.597 316.715 439.597 313.895C439.597 311.015 440.077 308.63 441.037 306.74C442.027 304.82 443.392 303.38 445.132 302.42C446.872 301.46 448.897 300.98 451.207 300.98ZM451.252 305.75C449.962 305.75 448.882 306.17 448.012 307.01C447.172 307.85 446.677 309.155 446.527 310.925H455.932C455.932 309.935 455.752 309.05 455.392 308.27C455.062 307.49 454.552 306.875 453.862 306.425C453.172 305.975 452.302 305.75 451.252 305.75Z" fill="black"/>
<defs>
<linearGradient id="paint0_linear_1061_167" x1="324.5" y1="0" x2="324.5" y2="348" gradientUnits="userSpaceOnUse">
<stop stop-color="#FFE75F"/>
<stop offset="1" stop-color="#FEF8D4"/>
</linearGradient>
</defs>
</svg>
