<svg width="649" height="348" viewBox="0 0 649 348" fill="none" xmlns="http://www.w3.org/2000/svg">
<rect x="2.5" y="2.5" width="644" height="343" rx="38.5" fill="#23CCD5" stroke="#FFCD14" stroke-width="5"/>
<path d="M136.66 306V274.5H143.86L164.875 297L163.75 296.775C163.57 295.665 163.42 294.615 163.3 293.625C163.21 292.605 163.135 291.63 163.075 290.7C163.015 289.77 162.955 288.855 162.895 287.955C162.865 287.055 162.85 286.14 162.85 285.21C162.85 284.25 162.85 283.275 162.85 282.285V274.5H170.275V306H162.985L141.25 282.78L143.185 283.095C143.305 283.815 143.395 284.52 143.455 285.21C143.545 285.9 143.635 286.62 143.725 287.37C143.815 288.09 143.89 288.855 143.95 289.665C144.01 290.475 144.04 291.36 144.04 292.32C144.07 293.28 144.085 294.33 144.085 295.47V306H136.66ZM179.094 306V274.5H205.599V281.025H186.519V299.475H206.049V306H179.094ZM183.054 293.085V286.875H203.574V293.085H183.054ZM219.917 306L209.342 274.5H217.262L222.392 290.205C222.602 290.835 222.827 291.555 223.067 292.365C223.307 293.175 223.532 294.015 223.742 294.885C223.952 295.725 224.132 296.52 224.282 297.27C224.432 298.02 224.552 298.665 224.642 299.205H223.157C223.337 298.335 223.532 297.405 223.742 296.415C223.982 295.395 224.267 294.36 224.597 293.31C224.957 292.26 225.347 291.225 225.767 290.205L230.537 278.595H236.882L241.562 290.16C241.982 291.24 242.372 292.32 242.732 293.4C243.122 294.45 243.437 295.455 243.677 296.415C243.947 297.375 244.142 298.245 244.262 299.025L242.867 299.16C242.927 298.65 243.017 298.11 243.137 297.54C243.257 296.94 243.377 296.325 243.497 295.695C243.617 295.065 243.752 294.435 243.902 293.805C244.082 293.145 244.262 292.5 244.442 291.87C244.622 291.21 244.802 290.595 244.982 290.025L250.697 274.5H258.302L246.737 306H240.887L232.832 286.785L234.002 286.875L226.262 306H219.917ZM279.456 306V274.5H286.296L299.886 292.545L295.386 292.5L308.976 274.5H315.726V306H308.301V295.875C308.301 293.325 308.361 290.955 308.481 288.765C308.601 286.575 308.841 284.37 309.201 282.15L309.966 284.625L299.076 298.35H296.106L285.126 284.58L285.981 282.15C286.341 284.34 286.581 286.53 286.701 288.72C286.821 290.88 286.881 293.265 286.881 295.875V306H279.456ZM324.57 306V274.5H351.075V281.025H331.995V299.475H351.525V306H324.57ZM328.53 293.085V286.875H349.05V293.085H328.53ZM381.324 306L369.579 291.825L354.819 274.5H364.449L375.789 288.225L390.954 306H381.324ZM354.594 306L368.724 288.855L374.709 292.41L363.909 306H354.594ZM376.779 291.375L370.884 287.955L381.144 274.5H390.504L376.779 291.375ZM395.782 306V299.34H403.342V281.16H395.782V274.5H418.642V281.16H410.992V299.34H418.642V306H395.782ZM443.776 306.45C441.136 306.45 438.691 306.06 436.441 305.28C434.191 304.5 432.211 303.39 430.501 301.95C428.821 300.48 427.516 298.755 426.586 296.775C425.656 294.765 425.191 292.545 425.191 290.115C425.191 287.745 425.671 285.57 426.631 283.59C427.591 281.61 428.911 279.885 430.591 278.415C432.271 276.945 434.236 275.82 436.486 275.04C438.766 274.26 441.211 273.87 443.821 273.87C445.681 273.87 447.466 274.095 449.176 274.545C450.916 274.965 452.521 275.55 453.991 276.3C455.491 277.02 456.751 277.845 457.771 278.775L453.316 284.67C452.536 283.98 451.666 283.35 450.706 282.78C449.746 282.21 448.666 281.76 447.466 281.43C446.266 281.1 444.916 280.935 443.416 280.935C442.096 280.935 440.821 281.145 439.591 281.565C438.391 281.955 437.281 282.54 436.261 283.32C435.271 284.1 434.491 285.075 433.921 286.245C433.351 287.415 433.066 288.735 433.066 290.205C433.066 291.675 433.366 292.995 433.966 294.165C434.566 295.335 435.391 296.31 436.441 297.09C437.491 297.87 438.691 298.47 440.041 298.89C441.421 299.28 442.861 299.475 444.361 299.475C445.861 299.475 447.211 299.28 448.411 298.89C449.611 298.47 450.676 297.96 451.606 297.36C452.566 296.73 453.406 296.145 454.126 295.605L457.726 301.5C456.886 302.25 455.746 303.015 454.306 303.795C452.866 304.545 451.246 305.175 449.446 305.685C447.646 306.195 445.756 306.45 443.776 306.45ZM480.636 306.45C477.846 306.45 475.296 306.045 472.986 305.235C470.676 304.395 468.681 303.24 467.001 301.77C465.321 300.3 464.016 298.575 463.086 296.595C462.156 294.615 461.691 292.455 461.691 290.115C461.691 287.775 462.156 285.615 463.086 283.635C464.016 281.655 465.321 279.93 467.001 278.46C468.711 276.99 470.706 275.85 472.986 275.04C475.296 274.2 477.831 273.78 480.591 273.78C483.351 273.78 485.886 274.2 488.196 275.04C490.506 275.85 492.501 276.99 494.181 278.46C495.861 279.93 497.166 281.655 498.096 283.635C499.026 285.615 499.491 287.775 499.491 290.115C499.491 292.455 499.026 294.615 498.096 296.595C497.166 298.575 495.861 300.3 494.181 301.77C492.501 303.24 490.506 304.395 488.196 305.235C485.886 306.045 483.366 306.45 480.636 306.45ZM480.591 299.25C482.211 299.25 483.696 299.025 485.046 298.575C486.426 298.095 487.611 297.45 488.601 296.64C489.591 295.8 490.356 294.825 490.896 293.715C491.436 292.605 491.706 291.405 491.706 290.115C491.706 288.825 491.436 287.625 490.896 286.515C490.356 285.405 489.591 284.445 488.601 283.635C487.611 282.795 486.426 282.15 485.046 281.7C483.696 281.22 482.211 280.98 480.591 280.98C478.971 280.98 477.486 281.22 476.136 281.7C474.786 282.15 473.601 282.78 472.581 283.59C471.591 284.4 470.826 285.36 470.286 286.47C469.776 287.58 469.521 288.795 469.521 290.115C469.521 291.405 469.776 292.62 470.286 293.76C470.826 294.87 471.591 295.83 472.581 296.64C473.601 297.45 474.786 298.095 476.136 298.575C477.486 299.025 478.971 299.25 480.591 299.25Z" fill="white"/>
<path d="M137.552 330V313.2H141.632V326.4H151.544V330H137.552ZM152.509 330L160.381 313.2H164.125L171.949 330H167.749L163.285 320.448C163.141 320.096 162.989 319.752 162.829 319.416C162.685 319.08 162.549 318.752 162.421 318.432C162.309 318.112 162.197 317.792 162.085 317.472C161.973 317.136 161.869 316.808 161.773 316.488L162.637 316.464C162.525 316.816 162.413 317.16 162.301 317.496C162.189 317.832 162.061 318.16 161.917 318.48C161.789 318.8 161.653 319.128 161.509 319.464C161.365 319.784 161.213 320.12 161.053 320.472L156.613 330H152.509ZM156.181 326.952L157.501 323.88H166.909L167.653 326.952H156.181ZM174.236 330V313.2H178.076L189.284 325.2L188.684 325.08C188.588 324.488 188.508 323.928 188.444 323.4C188.396 322.856 188.356 322.336 188.324 321.84C188.292 321.344 188.26 320.856 188.228 320.376C188.212 319.896 188.204 319.408 188.204 318.912C188.204 318.4 188.204 317.88 188.204 317.352V313.2H192.164V330H188.276L176.684 317.616L177.716 317.784C177.78 318.168 177.828 318.544 177.86 318.912C177.908 319.28 177.956 319.664 178.004 320.064C178.052 320.448 178.092 320.856 178.124 321.288C178.156 321.72 178.172 322.192 178.172 322.704C178.188 323.216 178.196 323.776 178.196 324.384V330H174.236ZM196.868 330V313.2H205.292C206.78 313.2 208.108 313.424 209.276 313.872C210.444 314.304 211.436 314.904 212.252 315.672C213.068 316.44 213.692 317.336 214.124 318.36C214.556 319.368 214.772 320.448 214.772 321.6C214.772 322.768 214.556 323.856 214.124 324.864C213.692 325.872 213.068 326.76 212.252 327.528C211.436 328.296 210.436 328.904 209.252 329.352C208.084 329.784 206.764 330 205.292 330H196.868ZM200.948 327.216L200.396 326.4H205.172C206.084 326.4 206.876 326.272 207.548 326.016C208.22 325.76 208.772 325.416 209.204 324.984C209.652 324.536 209.988 324.024 210.212 323.448C210.436 322.856 210.548 322.24 210.548 321.6C210.548 320.96 210.436 320.352 210.212 319.776C209.988 319.2 209.652 318.696 209.204 318.264C208.772 317.816 208.22 317.464 207.548 317.208C206.876 316.936 206.084 316.8 205.172 316.8H200.324L200.948 316.032V327.216ZM236.13 330.24C234.642 330.24 233.282 330.024 232.05 329.592C230.818 329.144 229.754 328.528 228.858 327.744C227.962 326.96 227.266 326.04 226.77 324.984C226.274 323.928 226.026 322.776 226.026 321.528C226.026 320.28 226.274 319.128 226.77 318.072C227.266 317.016 227.962 316.096 228.858 315.312C229.77 314.528 230.834 313.92 232.05 313.488C233.282 313.04 234.634 312.816 236.106 312.816C237.578 312.816 238.93 313.04 240.162 313.488C241.394 313.92 242.458 314.528 243.354 315.312C244.25 316.096 244.946 317.016 245.442 318.072C245.938 319.128 246.186 320.28 246.186 321.528C246.186 322.776 245.938 323.928 245.442 324.984C244.946 326.04 244.25 326.96 243.354 327.744C242.458 328.528 241.394 329.144 240.162 329.592C238.93 330.024 237.586 330.24 236.13 330.24ZM236.106 326.4C236.97 326.4 237.762 326.28 238.482 326.04C239.218 325.784 239.85 325.44 240.378 325.008C240.906 324.56 241.314 324.04 241.602 323.448C241.89 322.856 242.034 322.216 242.034 321.528C242.034 320.84 241.89 320.2 241.602 319.608C241.314 319.016 240.906 318.504 240.378 318.072C239.85 317.624 239.218 317.28 238.482 317.04C237.762 316.784 236.97 316.656 236.106 316.656C235.242 316.656 234.45 316.784 233.73 317.04C233.01 317.28 232.378 317.616 231.834 318.048C231.306 318.48 230.898 318.992 230.61 319.584C230.338 320.176 230.202 320.824 230.202 321.528C230.202 322.216 230.338 322.864 230.61 323.472C230.898 324.064 231.306 324.576 231.834 325.008C232.378 325.44 233.01 325.784 233.73 326.04C234.45 326.28 235.242 326.4 236.106 326.4ZM249.761 330V313.2H253.841V330H249.761ZM251.465 323.736V320.328H262.433V323.736H251.465ZM251.705 316.8V313.2H263.417V316.8H251.705ZM276.11 330V313.2H290.246V316.68H280.07V326.52H290.486V330H276.11ZM278.222 323.112V319.8H289.166V323.112H278.222ZM294.522 330V313.2H298.362L309.57 325.2L308.97 325.08C308.874 324.488 308.794 323.928 308.73 323.4C308.682 322.856 308.642 322.336 308.61 321.84C308.578 321.344 308.546 320.856 308.514 320.376C308.498 319.896 308.49 319.408 308.49 318.912C308.49 318.4 308.49 317.88 308.49 317.352V313.2H312.45V330H308.562L296.97 317.616L298.002 317.784C298.066 318.168 298.114 318.544 298.146 318.912C298.194 319.28 298.242 319.664 298.29 320.064C298.338 320.448 298.378 320.856 298.41 321.288C298.442 321.72 298.458 322.192 298.458 322.704C298.474 323.216 298.482 323.776 298.482 324.384V330H294.522ZM325.938 330.24C324.53 330.24 323.226 330.032 322.026 329.616C320.826 329.2 319.77 328.608 318.858 327.84C317.962 327.056 317.266 326.136 316.77 325.08C316.274 324.008 316.026 322.824 316.026 321.528C316.026 320.264 316.282 319.104 316.794 318.048C317.306 316.992 318.01 316.072 318.906 315.288C319.802 314.504 320.85 313.904 322.05 313.488C323.266 313.072 324.57 312.864 325.962 312.864C326.954 312.864 327.906 312.984 328.818 313.224C329.746 313.448 330.602 313.76 331.386 314.16C332.186 314.544 332.858 314.984 333.402 315.48L331.026 318.624C330.61 318.256 330.146 317.92 329.634 317.616C329.122 317.312 328.546 317.072 327.906 316.896C327.266 316.72 326.546 316.632 325.746 316.632C325.042 316.632 324.362 316.744 323.706 316.968C323.066 317.176 322.474 317.488 321.93 317.904C321.402 318.32 320.986 318.84 320.682 319.464C320.378 320.088 320.226 320.792 320.226 321.576C320.226 322.36 320.386 323.064 320.706 323.688C321.026 324.312 321.466 324.832 322.026 325.248C322.586 325.664 323.226 325.984 323.946 326.208C324.682 326.416 325.45 326.52 326.25 326.52C327.05 326.52 327.77 326.416 328.41 326.208C329.05 325.984 329.618 325.712 330.114 325.392C330.626 325.056 331.074 324.744 331.458 324.456L333.378 327.6C332.93 328 332.322 328.408 331.554 328.824C330.786 329.224 329.922 329.56 328.962 329.832C328.002 330.104 326.994 330.24 325.938 330.24ZM349.461 330V313.2H353.541V330H349.461ZM336.621 330V313.2H340.701V330H336.621ZM338.205 323.52L338.253 319.872H351.621V323.52H338.205ZM355.82 330L363.692 313.2H367.436L375.26 330H371.06L366.596 320.448C366.452 320.096 366.3 319.752 366.14 319.416C365.996 319.08 365.86 318.752 365.732 318.432C365.62 318.112 365.508 317.792 365.396 317.472C365.284 317.136 365.18 316.808 365.084 316.488L365.948 316.464C365.836 316.816 365.724 317.16 365.612 317.496C365.5 317.832 365.372 318.16 365.228 318.48C365.1 318.8 364.964 319.128 364.82 319.464C364.676 319.784 364.524 320.12 364.364 320.472L359.924 330H355.82ZM359.492 326.952L360.812 323.88H370.22L370.964 326.952H359.492ZM377.547 330V313.2H381.387L392.595 325.2L391.995 325.08C391.899 324.488 391.819 323.928 391.755 323.4C391.707 322.856 391.667 322.336 391.635 321.84C391.603 321.344 391.571 320.856 391.539 320.376C391.523 319.896 391.515 319.408 391.515 318.912C391.515 318.4 391.515 317.88 391.515 317.352V313.2H395.475V330H391.587L379.995 317.616L381.027 317.784C381.091 318.168 381.139 318.544 381.171 318.912C381.219 319.28 381.267 319.664 381.315 320.064C381.363 320.448 381.403 320.856 381.435 321.288C381.467 321.72 381.483 322.192 381.483 322.704C381.499 323.216 381.507 323.776 381.507 324.384V330H377.547ZM404.715 330V316.8H398.523V313.2H415.131V316.8H408.795V330H404.715ZM418.146 330V313.2H421.794L429.042 322.824L426.642 322.8L433.89 313.2H437.49V330H433.53V324.6C433.53 323.24 433.562 321.976 433.626 320.808C433.69 319.64 433.818 318.464 434.01 317.28L434.418 318.6L428.61 325.92H427.026L421.17 318.576L421.626 317.28C421.818 318.448 421.946 319.616 422.01 320.784C422.074 321.936 422.106 323.208 422.106 324.6V330H418.146ZM442.207 330V313.2H456.343V316.68H446.167V326.52H456.583V330H442.207ZM444.319 323.112V319.8H455.263V323.112H444.319ZM460.619 330V313.2H464.459L475.667 325.2L475.067 325.08C474.971 324.488 474.891 323.928 474.827 323.4C474.779 322.856 474.739 322.336 474.707 321.84C474.675 321.344 474.643 320.856 474.611 320.376C474.595 319.896 474.587 319.408 474.587 318.912C474.587 318.4 474.587 317.88 474.587 317.352V313.2H478.547V330H474.659L463.067 317.616L464.099 317.784C464.163 318.168 464.211 318.544 464.243 318.912C464.291 319.28 464.339 319.664 464.387 320.064C464.435 320.448 464.475 320.856 464.507 321.288C464.539 321.72 464.555 322.192 464.555 322.704C464.571 323.216 464.579 323.776 464.579 324.384V330H460.619ZM487.786 330V316.8H481.594V313.2H498.202V316.8H491.866V330H487.786Z" fill="#FAC812"/>
<g opacity="0.6">
<path d="M352.893 174C352.893 193.785 336.854 209.824 317.07 209.824C297.285 209.824 281.246 193.785 281.246 174C281.246 154.215 297.285 138.176 317.07 138.176C336.854 138.176 352.893 154.215 352.893 174Z" fill="#FECA0E"/>
<path d="M292.412 110.262C292.412 108.206 294.078 106.54 296.134 106.54H297.995C300.05 106.54 301.717 108.206 301.717 110.262V238.668C301.717 240.724 300.05 242.39 297.995 242.39H296.134C294.078 242.39 292.412 240.724 292.412 238.668V110.262Z" fill="#FECA0E"/>
<path d="M334.283 110.262C334.283 108.206 335.95 106.54 338.005 106.54H339.866C341.922 106.54 343.588 108.206 343.588 110.262V238.668C343.588 240.724 341.922 242.39 339.866 242.39H338.005C335.95 242.39 334.283 240.724 334.283 238.668V110.262Z" fill="#FECA0E"/>
<path d="M321.257 90.7219C321.257 88.6664 322.923 87 324.979 87H326.84C328.895 87 330.561 88.6664 330.561 90.7219V257.278C330.561 259.334 328.895 261 326.84 261H324.979C322.923 261 321.257 259.334 321.257 257.278V90.7219Z" fill="#FECA0E"/>
<path d="M307.299 90.7219C307.299 88.6664 308.966 87 311.021 87H312.882C314.938 87 316.604 88.6664 316.604 90.7219V257.278C316.604 259.334 314.938 261 312.882 261H311.021C308.966 261 307.299 259.334 307.299 257.278V90.7219Z" fill="#FECA0E"/>
<path d="M381.738 148.412C383.794 148.412 385.46 150.078 385.46 152.134V153.995C385.46 156.05 383.794 157.717 381.738 157.717L253.332 157.717C251.276 157.717 249.61 156.05 249.61 153.995V152.134C249.61 150.078 251.276 148.412 253.332 148.412L381.738 148.412Z" fill="#FECA0E"/>
<path d="M381.738 190.283C383.794 190.283 385.46 191.95 385.46 194.005V195.866C385.46 197.922 383.794 199.588 381.738 199.588L253.332 199.588C251.276 199.588 249.61 197.922 249.61 195.866V194.005C249.61 191.95 251.276 190.283 253.332 190.283L381.738 190.283Z" fill="#FECA0E"/>
<path d="M401.278 177.257C403.334 177.257 405 178.923 405 180.979V182.84C405 184.895 403.334 186.561 401.278 186.561L234.722 186.561C232.666 186.561 231 184.895 231 182.84L231 180.979C231 178.923 232.666 177.257 234.722 177.257L401.278 177.257Z" fill="#FECA0E"/>
<path d="M401.278 163.299C403.334 163.299 405 164.966 405 167.021V168.882C405 170.938 403.334 172.604 401.278 172.604L234.722 172.604C232.666 172.604 231 170.938 231 168.882L231 167.021C231 164.966 232.666 163.299 234.722 163.299L401.278 163.299Z" fill="#FECA0E"/>
<circle cx="318" cy="174" r="30.2406" fill="#D7452E"/>
</g>
</svg>
