<svg width="649" height="348" viewBox="0 0 649 348" fill="none" xmlns="http://www.w3.org/2000/svg">
<rect width="649" height="348" rx="41" fill="#FBB336"/>
<path fill-rule="evenodd" clip-rule="evenodd" d="M649 96.4643C398.12 60.6231 265.478 63.8005 0 91.8422L0 41C0 18.3563 18.3563 0 41 0H608C630.644 0 649 18.3563 649 41V96.4643Z" fill="#01295B"/>
<path d="M164.155 59V55.645H165.97C166.63 55.645 167.198 55.5717 167.675 55.425C168.188 55.2783 168.573 54.9667 168.83 54.49C169.087 54.0133 169.215 53.2983 169.215 52.345V26.165C169.215 25.2483 169.087 24.5883 168.83 24.185C168.573 23.745 168.225 23.4517 167.785 23.305C167.382 23.1583 166.942 23.085 166.465 23.085H164.155V19.73H177.96L197.155 44.975V26.165C197.155 25.395 197.027 24.79 196.77 24.35C196.55 23.91 196.238 23.5983 195.835 23.415C195.468 23.195 195.028 23.085 194.515 23.085H192.15V19.73H206.89V23.085H204.525C203.975 23.085 203.498 23.195 203.095 23.415C202.692 23.635 202.38 23.9833 202.16 24.46C201.94 24.9367 201.83 25.5783 201.83 26.385V59H195.945L173.89 29.685V52.345C173.89 53.2983 173.963 54.0133 174.11 54.49C174.293 54.9667 174.587 55.2783 174.99 55.425C175.393 55.5717 175.907 55.645 176.53 55.645H178.895V59H164.155ZM208.467 59V55.645H211.272C211.785 55.645 212.207 55.535 212.537 55.315C212.867 55.0583 213.105 54.7283 213.252 54.325C213.435 53.9217 213.527 53.4633 213.527 52.95V26.055C213.527 25.175 213.417 24.5333 213.197 24.13C212.977 23.69 212.683 23.415 212.317 23.305C211.95 23.1583 211.565 23.085 211.162 23.085H208.467V19.73H241.082L241.247 30.235H236.682L236.407 27.485C236.333 26.495 236.168 25.725 235.912 25.175C235.655 24.5883 235.27 24.1667 234.757 23.91C234.28 23.6533 233.602 23.525 232.722 23.525H224.472V36.615H237.452V40.355H224.472V55.205H234.317C235.123 55.205 235.783 55.04 236.297 54.71C236.81 54.38 237.213 53.9217 237.507 53.335C237.837 52.7483 238.057 52.0517 238.167 51.245L238.607 48.495H243.117L242.732 59H208.467ZM247.642 26C247.422 25.23 247.128 24.6433 246.762 24.24C246.432 23.8 246.028 23.5067 245.552 23.36C245.075 23.1767 244.47 23.085 243.737 23.085H243.022V19.73H263.757V23.085H262.492C261.392 23.085 260.567 23.305 260.017 23.745C259.467 24.1483 259.192 24.8083 259.192 25.725C259.192 25.9083 259.228 26.22 259.302 26.66C259.375 27.1 259.448 27.5767 259.522 28.09C259.632 28.5667 259.742 29.0067 259.852 29.41L262.932 40.74C263.152 41.4733 263.353 42.2433 263.537 43.05C263.72 43.8567 263.885 44.645 264.032 45.415C264.215 46.185 264.362 46.9183 264.472 47.615C264.692 46.5883 264.948 45.58 265.242 44.59C265.535 43.5633 265.902 42.39 266.342 41.07L273.437 20.115H279.102L285.207 39.035C285.573 40.1717 285.903 41.2717 286.197 42.335C286.49 43.3983 286.747 44.3883 286.967 45.305C287.187 46.2217 287.37 47.065 287.517 47.835C287.663 47.0283 287.865 46.075 288.122 44.975C288.378 43.8383 288.653 42.6833 288.947 41.51C289.277 40.3 289.57 39.1817 289.827 38.155L291.917 29.96C292.1 29.2267 292.283 28.4383 292.467 27.595C292.687 26.7517 292.797 26.0917 292.797 25.615C292.797 24.6617 292.54 24.0017 292.027 23.635C291.513 23.2683 290.652 23.085 289.442 23.085H288.177V19.73H303.247V23.085H302.202C301.505 23.085 300.9 23.195 300.387 23.415C299.873 23.5983 299.433 24.0017 299.067 24.625C298.7 25.2483 298.352 26.165 298.022 27.375L289.497 59H281.467L273.712 34.635L265.792 59H257.707L247.642 26ZM326.39 59V55.645H328.315C329.122 55.645 329.8 55.5533 330.35 55.37C330.937 55.1867 331.377 54.8383 331.67 54.325C332 53.775 332.165 52.9867 332.165 51.96V46.35L321.99 26C321.624 25.2667 321.294 24.6983 321 24.295C320.707 23.855 320.34 23.5433 319.9 23.36C319.497 23.1767 318.892 23.085 318.085 23.085H317.37V19.73H338.215V23.085H337.995C336.822 23.085 335.869 23.36 335.135 23.91C334.439 24.4233 334.09 25.1567 334.09 26.11C334.09 26.5133 334.145 26.99 334.255 27.54C334.402 28.09 334.604 28.64 334.86 29.19L338.93 37.275C339.187 37.7517 339.407 38.21 339.59 38.65C339.774 39.0533 339.939 39.4383 340.085 39.805C340.232 40.1717 340.379 40.5383 340.525 40.905C340.672 41.2717 340.819 41.675 340.965 42.115C341.332 41.125 341.754 40.08 342.23 38.98C342.744 37.8433 343.275 36.6883 343.825 35.515L346.795 29.3C347.199 28.3467 347.437 27.6133 347.51 27.1C347.62 26.55 347.675 26.1833 347.675 26C347.675 24.9367 347.364 24.185 346.74 23.745C346.117 23.305 345.145 23.085 343.825 23.085H342.78V19.73H357.905V23.085H357.245C356.549 23.085 355.98 23.2133 355.54 23.47C355.1 23.69 354.679 24.1117 354.275 24.735C353.872 25.3217 353.377 26.1833 352.79 27.32L343.275 46.46V52.07C343.275 53.06 343.422 53.8117 343.715 54.325C344.009 54.8383 344.394 55.1867 344.87 55.37C345.347 55.5533 345.86 55.645 346.41 55.645H349.05V59H326.39ZM378.964 59.55C374.564 59.55 370.916 58.7067 368.019 57.02C365.123 55.3333 362.941 52.9683 361.474 49.925C360.044 46.8817 359.329 43.325 359.329 39.255C359.329 35.185 360.044 31.6467 361.474 28.64C362.941 25.6333 365.123 23.305 368.019 21.655C370.953 19.9683 374.619 19.125 379.019 19.125C383.199 19.125 386.738 19.9683 389.634 21.655C392.531 23.305 394.731 25.6517 396.234 28.695C397.738 31.7017 398.489 35.24 398.489 39.31C398.489 43.38 397.738 46.9367 396.234 49.98C394.731 52.9867 392.513 55.3333 389.579 57.02C386.683 58.7067 383.144 59.55 378.964 59.55ZM378.964 55.535C380.431 55.535 381.678 55.1683 382.704 54.435C383.731 53.7017 384.556 52.6383 385.179 51.245C385.803 49.8517 386.243 48.165 386.499 46.185C386.793 44.1683 386.939 41.8767 386.939 39.31C386.939 36.7433 386.793 34.47 386.499 32.49C386.243 30.4733 385.803 28.7683 385.179 27.375C384.556 25.9817 383.731 24.9367 382.704 24.24C381.714 23.5067 380.486 23.14 379.019 23.14C377.553 23.14 376.288 23.5067 375.224 24.24C374.198 24.9367 373.354 25.9817 372.694 27.375C372.071 28.7683 371.613 30.4733 371.319 32.49C371.026 34.47 370.879 36.7433 370.879 39.31C370.879 41.8767 371.026 44.1683 371.319 46.185C371.613 48.165 372.071 49.8517 372.694 51.245C373.354 52.6383 374.198 53.7017 375.224 54.435C376.251 55.1683 377.498 55.535 378.964 55.535ZM402.632 59V55.645H404.722C405.198 55.645 405.657 55.59 406.097 55.48C406.537 55.3333 406.903 55.04 407.197 54.6C407.527 54.16 407.692 53.5 407.692 52.62V26.165C407.692 25.2483 407.508 24.5883 407.142 24.185C406.812 23.745 406.408 23.4517 405.932 23.305C405.492 23.1583 405.088 23.085 404.722 23.085H402.632V19.73H422.487C426.593 19.73 429.857 20.17 432.277 21.05C434.697 21.8933 436.42 23.1033 437.447 24.68C438.51 26.22 439.042 28.035 439.042 30.125C439.042 32.215 438.675 33.9383 437.942 35.295C437.245 36.6517 436.31 37.715 435.137 38.485C433.963 39.255 432.662 39.8417 431.232 40.245L437.502 50.86C438.015 51.7033 438.473 52.4367 438.877 53.06C439.28 53.6467 439.665 54.1417 440.032 54.545C440.435 54.9117 440.838 55.1867 441.242 55.37C441.645 55.5533 442.067 55.645 442.507 55.645H442.892V59H440.307C438.73 59 437.263 58.945 435.907 58.835C434.55 58.6883 433.322 58.45 432.222 58.12C431.122 57.7533 430.168 57.24 429.362 56.58C428.555 55.92 427.895 55.0767 427.382 54.05L421.607 42.17H418.692V52.62C418.692 53.5 418.802 54.16 419.022 54.6C419.242 55.04 419.553 55.3333 419.957 55.48C420.397 55.59 420.873 55.645 421.387 55.645H422.707V59H402.632ZM421.167 38.54C422.597 38.54 423.77 38.265 424.687 37.715C425.603 37.1283 426.263 36.2667 426.667 35.13C427.107 33.9567 427.327 32.5083 427.327 30.785C427.327 29.025 427.088 27.6133 426.612 26.55C426.135 25.45 425.42 24.6617 424.467 24.185C423.55 23.6717 422.413 23.415 421.057 23.415H418.692V38.54H421.167ZM444.043 59V55.645H446.408C446.921 55.645 447.379 55.5533 447.783 55.37C448.186 55.15 448.498 54.8383 448.718 54.435C448.974 54.0317 449.103 53.5183 449.103 52.895V25.67C449.103 25.12 448.993 24.6617 448.773 24.295C448.589 23.8917 448.314 23.5983 447.948 23.415C447.618 23.195 447.214 23.085 446.738 23.085H444.043V19.73H464.118V23.085H462.248C461.808 23.085 461.423 23.195 461.093 23.415C460.799 23.5983 460.561 23.8917 460.378 24.295C460.194 24.6617 460.103 25.1383 460.103 25.725V39.09L467.473 30.895C468.243 30.0517 468.866 29.3183 469.343 28.695C469.856 28.035 470.241 27.4117 470.498 26.825C470.754 26.2017 470.883 25.5783 470.883 24.955C470.883 24.4783 470.773 24.1117 470.553 23.855C470.333 23.5617 469.966 23.36 469.453 23.25C468.976 23.1033 468.316 23.03 467.473 23.03V19.73H484.138V23.03C483.038 23.03 482.011 23.2317 481.058 23.635C480.104 24.0383 479.206 24.5883 478.363 25.285C477.519 25.9817 476.676 26.77 475.833 27.65L468.573 35.075L479.298 50.805C479.921 51.7217 480.471 52.51 480.948 53.17C481.461 53.7933 481.938 54.2883 482.378 54.655C482.854 54.985 483.331 55.2417 483.808 55.425C484.321 55.5717 484.889 55.645 485.513 55.645H485.843V59H480.563C478.583 59 476.914 58.89 475.558 58.67C474.238 58.4133 473.101 58.01 472.148 57.46C471.194 56.91 470.333 56.1767 469.563 55.26C468.793 54.3433 467.986 53.1883 467.143 51.795L461.313 42.225L460.103 42.995V53.005C460.103 53.555 460.213 54.0317 460.433 54.435C460.689 54.8383 461.019 55.15 461.423 55.37C461.863 55.5533 462.321 55.645 462.798 55.645H464.118V59H444.043Z" fill="#FBB336"/>
<path d="M164.155 59V55.645H165.97C166.63 55.645 167.198 55.5717 167.675 55.425C168.188 55.2783 168.573 54.9667 168.83 54.49C169.087 54.0133 169.215 53.2983 169.215 52.345V26.165C169.215 25.2483 169.087 24.5883 168.83 24.185C168.573 23.745 168.225 23.4517 167.785 23.305C167.382 23.1583 166.942 23.085 166.465 23.085H164.155V19.73H177.96L197.155 44.975V26.165C197.155 25.395 197.027 24.79 196.77 24.35C196.55 23.91 196.238 23.5983 195.835 23.415C195.468 23.195 195.028 23.085 194.515 23.085H192.15V19.73H206.89V23.085H204.525C203.975 23.085 203.498 23.195 203.095 23.415C202.692 23.635 202.38 23.9833 202.16 24.46C201.94 24.9367 201.83 25.5783 201.83 26.385V59H195.945L173.89 29.685V52.345C173.89 53.2983 173.963 54.0133 174.11 54.49C174.293 54.9667 174.587 55.2783 174.99 55.425C175.393 55.5717 175.907 55.645 176.53 55.645H178.895V59H164.155ZM208.467 59V55.645H211.272C211.785 55.645 212.207 55.535 212.537 55.315C212.867 55.0583 213.105 54.7283 213.252 54.325C213.435 53.9217 213.527 53.4633 213.527 52.95V26.055C213.527 25.175 213.417 24.5333 213.197 24.13C212.977 23.69 212.683 23.415 212.317 23.305C211.95 23.1583 211.565 23.085 211.162 23.085H208.467V19.73H241.082L241.247 30.235H236.682L236.407 27.485C236.333 26.495 236.168 25.725 235.912 25.175C235.655 24.5883 235.27 24.1667 234.757 23.91C234.28 23.6533 233.602 23.525 232.722 23.525H224.472V36.615H237.452V40.355H224.472V55.205H234.317C235.123 55.205 235.783 55.04 236.297 54.71C236.81 54.38 237.213 53.9217 237.507 53.335C237.837 52.7483 238.057 52.0517 238.167 51.245L238.607 48.495H243.117L242.732 59H208.467ZM247.642 26C247.422 25.23 247.128 24.6433 246.762 24.24C246.432 23.8 246.028 23.5067 245.552 23.36C245.075 23.1767 244.47 23.085 243.737 23.085H243.022V19.73H263.757V23.085H262.492C261.392 23.085 260.567 23.305 260.017 23.745C259.467 24.1483 259.192 24.8083 259.192 25.725C259.192 25.9083 259.228 26.22 259.302 26.66C259.375 27.1 259.448 27.5767 259.522 28.09C259.632 28.5667 259.742 29.0067 259.852 29.41L262.932 40.74C263.152 41.4733 263.353 42.2433 263.537 43.05C263.72 43.8567 263.885 44.645 264.032 45.415C264.215 46.185 264.362 46.9183 264.472 47.615C264.692 46.5883 264.948 45.58 265.242 44.59C265.535 43.5633 265.902 42.39 266.342 41.07L273.437 20.115H279.102L285.207 39.035C285.573 40.1717 285.903 41.2717 286.197 42.335C286.49 43.3983 286.747 44.3883 286.967 45.305C287.187 46.2217 287.37 47.065 287.517 47.835C287.663 47.0283 287.865 46.075 288.122 44.975C288.378 43.8383 288.653 42.6833 288.947 41.51C289.277 40.3 289.57 39.1817 289.827 38.155L291.917 29.96C292.1 29.2267 292.283 28.4383 292.467 27.595C292.687 26.7517 292.797 26.0917 292.797 25.615C292.797 24.6617 292.54 24.0017 292.027 23.635C291.513 23.2683 290.652 23.085 289.442 23.085H288.177V19.73H303.247V23.085H302.202C301.505 23.085 300.9 23.195 300.387 23.415C299.873 23.5983 299.433 24.0017 299.067 24.625C298.7 25.2483 298.352 26.165 298.022 27.375L289.497 59H281.467L273.712 34.635L265.792 59H257.707L247.642 26ZM326.39 59V55.645H328.315C329.122 55.645 329.8 55.5533 330.35 55.37C330.937 55.1867 331.377 54.8383 331.67 54.325C332 53.775 332.165 52.9867 332.165 51.96V46.35L321.99 26C321.624 25.2667 321.294 24.6983 321 24.295C320.707 23.855 320.34 23.5433 319.9 23.36C319.497 23.1767 318.892 23.085 318.085 23.085H317.37V19.73H338.215V23.085H337.995C336.822 23.085 335.869 23.36 335.135 23.91C334.439 24.4233 334.09 25.1567 334.09 26.11C334.09 26.5133 334.145 26.99 334.255 27.54C334.402 28.09 334.604 28.64 334.86 29.19L338.93 37.275C339.187 37.7517 339.407 38.21 339.59 38.65C339.774 39.0533 339.939 39.4383 340.085 39.805C340.232 40.1717 340.379 40.5383 340.525 40.905C340.672 41.2717 340.819 41.675 340.965 42.115C341.332 41.125 341.754 40.08 342.23 38.98C342.744 37.8433 343.275 36.6883 343.825 35.515L346.795 29.3C347.199 28.3467 347.437 27.6133 347.51 27.1C347.62 26.55 347.675 26.1833 347.675 26C347.675 24.9367 347.364 24.185 346.74 23.745C346.117 23.305 345.145 23.085 343.825 23.085H342.78V19.73H357.905V23.085H357.245C356.549 23.085 355.98 23.2133 355.54 23.47C355.1 23.69 354.679 24.1117 354.275 24.735C353.872 25.3217 353.377 26.1833 352.79 27.32L343.275 46.46V52.07C343.275 53.06 343.422 53.8117 343.715 54.325C344.009 54.8383 344.394 55.1867 344.87 55.37C345.347 55.5533 345.86 55.645 346.41 55.645H349.05V59H326.39ZM378.964 59.55C374.564 59.55 370.916 58.7067 368.019 57.02C365.123 55.3333 362.941 52.9683 361.474 49.925C360.044 46.8817 359.329 43.325 359.329 39.255C359.329 35.185 360.044 31.6467 361.474 28.64C362.941 25.6333 365.123 23.305 368.019 21.655C370.953 19.9683 374.619 19.125 379.019 19.125C383.199 19.125 386.738 19.9683 389.634 21.655C392.531 23.305 394.731 25.6517 396.234 28.695C397.738 31.7017 398.489 35.24 398.489 39.31C398.489 43.38 397.738 46.9367 396.234 49.98C394.731 52.9867 392.513 55.3333 389.579 57.02C386.683 58.7067 383.144 59.55 378.964 59.55ZM378.964 55.535C380.431 55.535 381.678 55.1683 382.704 54.435C383.731 53.7017 384.556 52.6383 385.179 51.245C385.803 49.8517 386.243 48.165 386.499 46.185C386.793 44.1683 386.939 41.8767 386.939 39.31C386.939 36.7433 386.793 34.47 386.499 32.49C386.243 30.4733 385.803 28.7683 385.179 27.375C384.556 25.9817 383.731 24.9367 382.704 24.24C381.714 23.5067 380.486 23.14 379.019 23.14C377.553 23.14 376.288 23.5067 375.224 24.24C374.198 24.9367 373.354 25.9817 372.694 27.375C372.071 28.7683 371.613 30.4733 371.319 32.49C371.026 34.47 370.879 36.7433 370.879 39.31C370.879 41.8767 371.026 44.1683 371.319 46.185C371.613 48.165 372.071 49.8517 372.694 51.245C373.354 52.6383 374.198 53.7017 375.224 54.435C376.251 55.1683 377.498 55.535 378.964 55.535ZM402.632 59V55.645H404.722C405.198 55.645 405.657 55.59 406.097 55.48C406.537 55.3333 406.903 55.04 407.197 54.6C407.527 54.16 407.692 53.5 407.692 52.62V26.165C407.692 25.2483 407.508 24.5883 407.142 24.185C406.812 23.745 406.408 23.4517 405.932 23.305C405.492 23.1583 405.088 23.085 404.722 23.085H402.632V19.73H422.487C426.593 19.73 429.857 20.17 432.277 21.05C434.697 21.8933 436.42 23.1033 437.447 24.68C438.51 26.22 439.042 28.035 439.042 30.125C439.042 32.215 438.675 33.9383 437.942 35.295C437.245 36.6517 436.31 37.715 435.137 38.485C433.963 39.255 432.662 39.8417 431.232 40.245L437.502 50.86C438.015 51.7033 438.473 52.4367 438.877 53.06C439.28 53.6467 439.665 54.1417 440.032 54.545C440.435 54.9117 440.838 55.1867 441.242 55.37C441.645 55.5533 442.067 55.645 442.507 55.645H442.892V59H440.307C438.73 59 437.263 58.945 435.907 58.835C434.55 58.6883 433.322 58.45 432.222 58.12C431.122 57.7533 430.168 57.24 429.362 56.58C428.555 55.92 427.895 55.0767 427.382 54.05L421.607 42.17H418.692V52.62C418.692 53.5 418.802 54.16 419.022 54.6C419.242 55.04 419.553 55.3333 419.957 55.48C420.397 55.59 420.873 55.645 421.387 55.645H422.707V59H402.632ZM421.167 38.54C422.597 38.54 423.77 38.265 424.687 37.715C425.603 37.1283 426.263 36.2667 426.667 35.13C427.107 33.9567 427.327 32.5083 427.327 30.785C427.327 29.025 427.088 27.6133 426.612 26.55C426.135 25.45 425.42 24.6617 424.467 24.185C423.55 23.6717 422.413 23.415 421.057 23.415H418.692V38.54H421.167ZM444.043 59V55.645H446.408C446.921 55.645 447.379 55.5533 447.783 55.37C448.186 55.15 448.498 54.8383 448.718 54.435C448.974 54.0317 449.103 53.5183 449.103 52.895V25.67C449.103 25.12 448.993 24.6617 448.773 24.295C448.589 23.8917 448.314 23.5983 447.948 23.415C447.618 23.195 447.214 23.085 446.738 23.085H444.043V19.73H464.118V23.085H462.248C461.808 23.085 461.423 23.195 461.093 23.415C460.799 23.5983 460.561 23.8917 460.378 24.295C460.194 24.6617 460.103 25.1383 460.103 25.725V39.09L467.473 30.895C468.243 30.0517 468.866 29.3183 469.343 28.695C469.856 28.035 470.241 27.4117 470.498 26.825C470.754 26.2017 470.883 25.5783 470.883 24.955C470.883 24.4783 470.773 24.1117 470.553 23.855C470.333 23.5617 469.966 23.36 469.453 23.25C468.976 23.1033 468.316 23.03 467.473 23.03V19.73H484.138V23.03C483.038 23.03 482.011 23.2317 481.058 23.635C480.104 24.0383 479.206 24.5883 478.363 25.285C477.519 25.9817 476.676 26.77 475.833 27.65L468.573 35.075L479.298 50.805C479.921 51.7217 480.471 52.51 480.948 53.17C481.461 53.7933 481.938 54.2883 482.378 54.655C482.854 54.985 483.331 55.2417 483.808 55.425C484.321 55.5717 484.889 55.645 485.513 55.645H485.843V59H480.563C478.583 59 476.914 58.89 475.558 58.67C474.238 58.4133 473.101 58.01 472.148 57.46C471.194 56.91 470.333 56.1767 469.563 55.26C468.793 54.3433 467.986 53.1883 467.143 51.795L461.313 42.225L460.103 42.995V53.005C460.103 53.555 460.213 54.0317 460.433 54.435C460.689 54.8383 461.019 55.15 461.423 55.37C461.863 55.5533 462.321 55.645 462.798 55.645H464.118V59H444.043Z" fill="#FBB336"/>
<path d="M163.882 303V300.438H166.024C166.416 300.438 166.738 300.354 166.99 300.186C167.242 299.99 167.424 299.738 167.536 299.43C167.676 299.122 167.746 298.772 167.746 298.38V277.842C167.746 277.17 167.662 276.68 167.494 276.372C167.326 276.036 167.102 275.826 166.822 275.742C166.542 275.63 166.248 275.574 165.94 275.574H163.882V273.012H188.788L188.914 281.034H185.428L185.218 278.934C185.162 278.178 185.036 277.59 184.84 277.17C184.644 276.722 184.35 276.4 183.958 276.204C183.594 276.008 183.076 275.91 182.404 275.91H176.104V285.906H186.016V288.762H176.104V300.102H183.622C184.238 300.102 184.742 299.976 185.134 299.724C185.526 299.472 185.834 299.122 186.058 298.674C186.31 298.226 186.478 297.694 186.562 297.078L186.898 294.978H190.342L190.048 303H163.882ZM192.224 303V300.438H193.61C194.142 300.438 194.59 300.368 194.954 300.228C195.318 300.06 195.598 299.808 195.794 299.472C195.99 299.108 196.088 298.66 196.088 298.128V277.884C196.088 277.352 195.99 276.918 195.794 276.582C195.626 276.246 195.402 275.994 195.122 275.826C194.87 275.658 194.59 275.574 194.282 275.574H192.224V273.012H206.168L211.88 290.526L217.13 273.012H230.906V275.574H228.68C228.428 275.574 228.176 275.658 227.924 275.826C227.7 275.966 227.504 276.19 227.336 276.498C227.168 276.778 227.084 277.142 227.084 277.59V298.464C227.084 298.884 227.154 299.248 227.294 299.556C227.434 299.836 227.658 300.06 227.966 300.228C228.274 300.368 228.652 300.438 229.1 300.438H230.906V303H215.786V300.438H216.416C217.004 300.438 217.466 300.354 217.802 300.186C218.166 300.018 218.418 299.752 218.558 299.388C218.726 298.996 218.81 298.492 218.81 297.876V277.926L211.166 303H207.848L199.658 277.842V297.918C199.658 298.646 199.784 299.192 200.036 299.556C200.288 299.92 200.638 300.158 201.086 300.27C201.562 300.382 202.136 300.438 202.808 300.438H203.186V303H192.224ZM232.624 303V300.438H234.304C234.696 300.438 235.06 300.382 235.396 300.27C235.732 300.158 235.998 299.92 236.194 299.556C236.39 299.192 236.488 298.646 236.488 297.918V277.926C236.488 277.226 236.39 276.722 236.194 276.414C235.998 276.078 235.746 275.854 235.438 275.742C235.13 275.63 234.822 275.574 234.514 275.574H232.624V273.012H246.736C251.104 273.012 254.31 273.768 256.354 275.28C258.426 276.764 259.462 279.004 259.462 282C259.462 283.4 259.21 284.688 258.706 285.864C258.23 287.04 257.446 288.076 256.354 288.972C255.29 289.84 253.89 290.512 252.154 290.988C250.418 291.464 248.304 291.702 245.812 291.702H244.888V298.128C244.888 298.8 244.972 299.304 245.14 299.64C245.336 299.976 245.574 300.2 245.854 300.312C246.162 300.396 246.484 300.438 246.82 300.438H249.634V303H232.624ZM245.434 288.93C246.358 288.93 247.142 288.804 247.786 288.552C248.458 288.3 249.004 287.908 249.424 287.376C249.872 286.816 250.194 286.116 250.39 285.276C250.614 284.408 250.726 283.372 250.726 282.168C250.726 280.712 250.558 279.522 250.222 278.598C249.886 277.674 249.368 276.988 248.668 276.54C247.968 276.064 247.086 275.826 246.022 275.826H244.846V288.93H245.434ZM260.474 303V300.438H262.7C262.952 300.438 263.204 300.368 263.456 300.228C263.708 300.06 263.918 299.836 264.086 299.556C264.254 299.248 264.338 298.884 264.338 298.464V277.8C264.338 277.296 264.254 276.876 264.086 276.54C263.918 276.204 263.708 275.966 263.456 275.826C263.204 275.658 262.952 275.574 262.7 275.574H260.474V273.012H276.644V275.574H274.334C273.998 275.574 273.704 275.658 273.452 275.826C273.228 275.994 273.046 276.246 272.906 276.582C272.794 276.89 272.738 277.31 272.738 277.842V298.38C272.738 298.772 272.808 299.136 272.948 299.472C273.116 299.78 273.312 300.018 273.536 300.186C273.788 300.354 274.054 300.438 274.334 300.438H276.644V303H260.474ZM278.357 303V300.438H279.953C280.317 300.438 280.667 300.396 281.003 300.312C281.339 300.2 281.619 299.976 281.843 299.64C282.095 299.304 282.221 298.8 282.221 298.128V277.926C282.221 277.226 282.081 276.722 281.801 276.414C281.549 276.078 281.241 275.854 280.877 275.742C280.541 275.63 280.233 275.574 279.953 275.574H278.357V273.012H293.519C296.655 273.012 299.147 273.348 300.995 274.02C302.843 274.664 304.159 275.588 304.943 276.792C305.755 277.968 306.161 279.354 306.161 280.95C306.161 282.546 305.881 283.862 305.321 284.898C304.789 285.934 304.075 286.746 303.179 287.334C302.283 287.922 301.289 288.37 300.197 288.678L304.985 296.784C305.377 297.428 305.727 297.988 306.035 298.464C306.343 298.912 306.637 299.29 306.917 299.598C307.225 299.878 307.533 300.088 307.841 300.228C308.149 300.368 308.471 300.438 308.807 300.438H309.101V303H307.127C305.923 303 304.803 302.958 303.767 302.874C302.731 302.762 301.793 302.58 300.953 302.328C300.113 302.048 299.385 301.656 298.769 301.152C298.153 300.648 297.649 300.004 297.257 299.22L292.847 290.148H290.621V298.128C290.621 298.8 290.705 299.304 290.873 299.64C291.041 299.976 291.279 300.2 291.587 300.312C291.923 300.396 292.287 300.438 292.679 300.438H293.687V303H278.357ZM292.511 287.376C293.603 287.376 294.499 287.166 295.199 286.746C295.899 286.298 296.403 285.64 296.711 284.772C297.047 283.876 297.215 282.77 297.215 281.454C297.215 280.11 297.033 279.032 296.669 278.22C296.305 277.38 295.759 276.778 295.031 276.414C294.331 276.022 293.463 275.826 292.427 275.826H290.621V287.376H292.511ZM309.98 303V300.438H312.122C312.514 300.438 312.836 300.354 313.088 300.186C313.34 299.99 313.522 299.738 313.634 299.43C313.774 299.122 313.844 298.772 313.844 298.38V277.842C313.844 277.17 313.76 276.68 313.592 276.372C313.424 276.036 313.2 275.826 312.92 275.742C312.64 275.63 312.346 275.574 312.038 275.574H309.98V273.012H334.886L335.012 281.034H331.526L331.316 278.934C331.26 278.178 331.134 277.59 330.938 277.17C330.742 276.722 330.448 276.4 330.056 276.204C329.692 276.008 329.174 275.91 328.502 275.91H322.202V285.906H332.114V288.762H322.202V300.102H329.72C330.336 300.102 330.84 299.976 331.232 299.724C331.624 299.472 331.932 299.122 332.156 298.674C332.408 298.226 332.576 297.694 332.66 297.078L332.996 294.978H336.44L336.146 303H309.98ZM360.278 303.42C358.01 303.42 356.162 303.224 354.734 302.832C353.306 302.44 352.2 301.936 351.416 301.32C350.632 300.704 350.086 300.06 349.778 299.388C349.498 298.716 349.358 298.114 349.358 297.582C349.358 296.322 349.624 295.356 350.156 294.684C350.716 294.012 351.416 293.55 352.256 293.298C353.096 293.018 353.992 292.878 354.944 292.878C354.944 294.782 355.252 296.294 355.868 297.414C356.512 298.534 357.31 299.346 358.262 299.85C359.242 300.326 360.222 300.564 361.202 300.564C362.686 300.564 363.82 300.144 364.604 299.304C365.416 298.436 365.822 297.526 365.822 296.574C365.822 295.678 365.514 294.908 364.898 294.264C364.31 293.62 363.456 293.018 362.336 292.458C361.244 291.898 359.942 291.31 358.43 290.694C356.834 290.05 355.504 289.378 354.44 288.678C353.404 287.95 352.578 287.194 351.962 286.41C351.346 285.626 350.912 284.8 350.66 283.932C350.408 283.064 350.282 282.168 350.282 281.244C350.282 279.452 350.772 277.912 351.752 276.624C352.76 275.336 354.118 274.342 355.826 273.642C357.534 272.942 359.452 272.592 361.58 272.592C363.848 272.592 365.696 272.858 367.124 273.39C368.58 273.922 369.644 274.594 370.316 275.406C370.988 276.19 371.324 277.016 371.324 277.884C371.324 278.92 370.862 279.802 369.938 280.53C369.042 281.258 367.474 281.622 365.234 281.622C365.234 280.67 365.052 279.732 364.688 278.808C364.324 277.856 363.792 277.072 363.092 276.456C362.42 275.812 361.58 275.49 360.572 275.49C359.9 275.49 359.284 275.602 358.724 275.826C358.164 276.05 357.716 276.4 357.38 276.876C357.044 277.324 356.876 277.926 356.876 278.682C356.876 279.242 357.058 279.816 357.422 280.404C357.786 280.992 358.5 281.636 359.564 282.336C360.656 283.008 362.238 283.764 364.31 284.604C366.438 285.444 368.09 286.354 369.266 287.334C370.47 288.286 371.31 289.322 371.786 290.442C372.262 291.534 372.5 292.752 372.5 294.096C372.5 295.916 371.996 297.526 370.988 298.926C370.008 300.326 368.594 301.432 366.746 302.244C364.926 303.028 362.77 303.42 360.278 303.42ZM379.133 303V300.438H380.477C381.009 300.438 381.471 300.382 381.863 300.27C382.255 300.13 382.549 299.878 382.745 299.514C382.969 299.122 383.081 298.534 383.081 297.75V275.91H380.225C379.385 275.91 378.727 276.008 378.251 276.204C377.775 276.372 377.425 276.652 377.201 277.044C376.977 277.436 376.823 277.94 376.739 278.556L376.361 281.748H373.085L373.295 273.012H401.309L401.519 281.748H398.243L397.907 278.556C397.851 277.94 397.697 277.436 397.445 277.044C397.221 276.652 396.871 276.372 396.395 276.204C395.919 276.008 395.261 275.91 394.421 275.91H391.565V297.918C391.565 298.646 391.677 299.192 391.901 299.556C392.125 299.92 392.433 300.158 392.825 300.27C393.217 300.382 393.665 300.438 394.169 300.438H395.513V303H379.133ZM399.38 303V300.438H399.674C400.15 300.438 400.598 300.368 401.018 300.228C401.438 300.06 401.83 299.766 402.194 299.346C402.558 298.926 402.88 298.324 403.16 297.54L412.106 273.012H419.708L428.276 297.624C428.528 298.268 428.822 298.8 429.158 299.22C429.494 299.64 429.872 299.948 430.292 300.144C430.74 300.34 431.216 300.438 431.72 300.438H432.182V303H416.642V300.438H418.322C418.77 300.438 419.176 300.354 419.54 300.186C419.904 300.018 420.086 299.668 420.086 299.136C420.086 298.856 420.058 298.59 420.002 298.338C419.946 298.058 419.876 297.806 419.792 297.582C419.736 297.358 419.68 297.19 419.624 297.078L418.322 293.256H408.746L407.78 296.28C407.724 296.504 407.64 296.784 407.528 297.12C407.444 297.456 407.36 297.806 407.276 298.17C407.22 298.506 407.192 298.814 407.192 299.094C407.192 299.514 407.304 299.85 407.528 300.102C407.752 300.326 408.158 300.438 408.746 300.438H410.804V303H399.38ZM409.67 290.358H417.398L415.004 282.336C414.864 281.832 414.71 281.328 414.542 280.824C414.402 280.292 414.262 279.746 414.122 279.186C413.982 278.598 413.856 277.996 413.744 277.38C413.632 277.828 413.506 278.276 413.366 278.724C413.254 279.144 413.142 279.564 413.03 279.984C412.918 280.404 412.792 280.81 412.652 281.202C412.54 281.566 412.428 281.93 412.316 282.294L409.67 290.358ZM435.858 303V300.438H437.202C437.734 300.438 438.196 300.382 438.588 300.27C438.98 300.13 439.274 299.878 439.47 299.514C439.694 299.122 439.806 298.534 439.806 297.75V275.91H436.95C436.11 275.91 435.452 276.008 434.976 276.204C434.5 276.372 434.15 276.652 433.926 277.044C433.702 277.436 433.548 277.94 433.464 278.556L433.086 281.748H429.81L430.02 273.012H458.034L458.244 281.748H454.968L454.632 278.556C454.576 277.94 454.422 277.436 454.17 277.044C453.946 276.652 453.596 276.372 453.12 276.204C452.644 276.008 451.986 275.91 451.146 275.91H448.29V297.918C448.29 298.646 448.402 299.192 448.626 299.556C448.85 299.92 449.158 300.158 449.55 300.27C449.942 300.382 450.39 300.438 450.894 300.438H452.238V303H435.858ZM459.195 303V300.438H461.337C461.729 300.438 462.051 300.354 462.303 300.186C462.555 299.99 462.737 299.738 462.849 299.43C462.989 299.122 463.059 298.772 463.059 298.38V277.842C463.059 277.17 462.975 276.68 462.807 276.372C462.639 276.036 462.415 275.826 462.135 275.742C461.855 275.63 461.561 275.574 461.253 275.574H459.195V273.012H484.101L484.227 281.034H480.741L480.531 278.934C480.475 278.178 480.349 277.59 480.153 277.17C479.957 276.722 479.663 276.4 479.271 276.204C478.907 276.008 478.389 275.91 477.717 275.91H471.417V285.906H481.329V288.762H471.417V300.102H478.935C479.551 300.102 480.055 299.976 480.447 299.724C480.839 299.472 481.147 299.122 481.371 298.674C481.623 298.226 481.791 297.694 481.875 297.078L482.211 294.978H485.655L485.361 303H459.195Z" fill="#01295B"/>
<path fill-rule="evenodd" clip-rule="evenodd" d="M41 348H608C624.186 348 638.182 338.62 644.848 325H4.15222C10.8182 338.62 24.8138 348 41 348Z" fill="#01295B"/>
<path fill-rule="evenodd" clip-rule="evenodd" d="M2.10377 320C1.88349 319.341 1.67951 318.674 1.49231 318H647.508C647.32 318.674 647.116 319.341 646.896 320H2.10377Z" fill="#01295B"/>
<path d="M339 206.5L332 207.5L333.5 206.5L336 204.5V203.5L334 205L333 204.5L335 202L332 199.5L326.5 195.5L326 194L323.5 193V190.5L322.5 189L320 187H280V184.5L283 182.5L285.5 179.5L287.5 178L288 177L287.5 175L286.5 173V171L287.5 170L290.5 169.5L295 169L297 169.5L298.5 170.5L300 171L303 170.5L305 170H308L309.5 167.5H313V163L313.5 161.5L315 160.5V159L312.5 157.5L315.5 156L317 154.5L319.5 151L322.5 148.5L325 147H339V155.5L338 158L339 163L338 165L340 167V178.5L338 185L338.5 199L336 202.5L337 203.5L338.5 203H342.5L347 202.5L351 199.5L348.5 203.5L355.5 201.5L347.5 206.5H344.5H339Z" fill="#00295C" fill-opacity="0.3"/>
</svg>
