<svg width="649" height="348" viewBox="0 0 649 348" fill="none" xmlns="http://www.w3.org/2000/svg">
<rect width="649" height="348" rx="41" fill="#F4F4F4"/>
<path d="M197 117.5L206.5 120L200 62.5L251 59L217 74.5L211.5 81L242 78.5L259.5 71.5L257 113.5L239.5 116L238.5 113.5L222 81H219L227 109.5L228.5 117L209 120L211.5 121H228.5L232 123L235.5 122L238.5 119L259.5 117L267 113.5L265 109.5L267 68.5L305.5 52L308.5 93.5L318 89V48L359 82L379.5 75.5L329.5 94L328.5 85.5L249.5 123L281.5 122L393.5 86L401 84.5L423 94.5L289 126.5L287.5 130.5L439 93V91L426 93L412.5 86V83.5L446.5 71L441.5 67.5L403 80H398.5L395.5 61.5H403L444 46.5L435.5 42.5L387 61.5H393.5L395.5 80L321 46.5L382.5 17H376H354.5L338.5 19L269.5 50.5V37L261 33.5V52L190 60L197 117.5Z" fill="#6AB4E9" fill-opacity="0.5"/>
<path d="M188.755 61H182.05V28.87H200.455V34.45H188.755V42.73H199.645V48.31H188.755V61ZM212.462 36.43V61H205.757V36.43H212.462ZM209.132 26.8C210.122 26.8 210.977 27.04 211.697 27.52C212.417 27.97 212.777 28.825 212.777 30.085C212.777 31.315 212.417 32.17 211.697 32.65C210.977 33.13 210.122 33.37 209.132 33.37C208.112 33.37 207.242 33.13 206.522 32.65C205.832 32.17 205.487 31.315 205.487 30.085C205.487 28.825 205.832 27.97 206.522 27.52C207.242 27.04 208.112 26.8 209.132 26.8ZM232.743 35.98C233.073 35.98 233.463 35.995 233.913 36.025C234.363 36.055 234.723 36.1 234.993 36.16L234.498 42.46C234.288 42.4 233.973 42.355 233.553 42.325C233.163 42.265 232.818 42.235 232.518 42.235C231.648 42.235 230.808 42.355 229.998 42.595C229.188 42.805 228.453 43.15 227.793 43.63C227.163 44.11 226.653 44.755 226.263 45.565C225.903 46.345 225.723 47.32 225.723 48.49V61H219.018V36.43H224.103L225.093 40.57H225.408C225.888 39.73 226.488 38.965 227.208 38.275C227.928 37.585 228.753 37.03 229.683 36.61C230.643 36.19 231.663 35.98 232.743 35.98ZM256.148 53.71C256.148 55.36 255.758 56.77 254.978 57.94C254.198 59.08 253.028 59.95 251.468 60.55C249.908 61.15 247.973 61.45 245.663 61.45C243.953 61.45 242.483 61.33 241.253 61.09C240.023 60.88 238.793 60.52 237.563 60.01V54.475C238.883 55.075 240.308 55.57 241.838 55.96C243.368 56.35 244.718 56.545 245.888 56.545C247.208 56.545 248.138 56.35 248.678 55.96C249.248 55.57 249.533 55.06 249.533 54.43C249.533 54.01 249.413 53.635 249.173 53.305C248.963 52.975 248.483 52.6 247.733 52.18C246.983 51.76 245.813 51.22 244.223 50.56C242.693 49.9 241.433 49.255 240.443 48.625C239.453 47.965 238.718 47.185 238.238 46.285C237.758 45.355 237.518 44.2 237.518 42.82C237.518 40.54 238.403 38.83 240.173 37.69C241.943 36.55 244.298 35.98 247.238 35.98C248.768 35.98 250.223 36.13 251.603 36.43C252.983 36.73 254.408 37.225 255.878 37.915L253.853 42.73C253.043 42.37 252.263 42.055 251.513 41.785C250.763 41.515 250.028 41.305 249.308 41.155C248.618 41.005 247.898 40.93 247.148 40.93C246.158 40.93 245.408 41.065 244.898 41.335C244.418 41.605 244.178 42.01 244.178 42.55C244.178 42.94 244.298 43.3 244.538 43.63C244.808 43.93 245.303 44.26 246.023 44.62C246.773 44.98 247.868 45.46 249.308 46.06C250.718 46.63 251.933 47.23 252.953 47.86C253.973 48.46 254.753 49.225 255.293 50.155C255.863 51.055 256.148 52.24 256.148 53.71ZM271.271 56.095C272.021 56.095 272.741 56.02 273.431 55.87C274.121 55.72 274.811 55.54 275.501 55.33V60.325C274.781 60.625 273.881 60.88 272.801 61.09C271.751 61.33 270.596 61.45 269.336 61.45C267.866 61.45 266.546 61.21 265.376 60.73C264.236 60.25 263.321 59.425 262.631 58.255C261.971 57.055 261.641 55.405 261.641 53.305V41.47H258.446V38.635L262.136 36.385L264.071 31.21H268.346V36.43H275.231V41.47H268.346V53.305C268.346 54.235 268.616 54.94 269.156 55.42C269.696 55.87 270.401 56.095 271.271 56.095ZM297.927 36.43V61H291.222V36.43H297.927ZM294.597 26.8C295.587 26.8 296.442 27.04 297.162 27.52C297.882 27.97 298.242 28.825 298.242 30.085C298.242 31.315 297.882 32.17 297.162 32.65C296.442 33.13 295.587 33.37 294.597 33.37C293.577 33.37 292.707 33.13 291.987 32.65C291.297 32.17 290.952 31.315 290.952 30.085C290.952 28.825 291.297 27.97 291.987 27.52C292.707 27.04 293.577 26.8 294.597 26.8ZM318.433 35.98C321.073 35.98 323.188 36.7 324.778 38.14C326.368 39.55 327.163 41.83 327.163 44.98V61H320.458V46.645C320.458 44.875 320.143 43.555 319.513 42.685C318.883 41.785 317.878 41.335 316.498 41.335C314.458 41.335 313.063 42.04 312.313 43.45C311.563 44.83 311.188 46.825 311.188 49.435V61H304.483V36.43H309.613L310.513 39.58H310.873C311.413 38.74 312.073 38.065 312.853 37.555C313.633 37.015 314.503 36.625 315.463 36.385C316.423 36.115 317.413 35.98 318.433 35.98ZM352.093 61H345.388V28.87H363.793V34.45H352.093V42.73H362.983V48.31H352.093V61ZM375.8 61H369.095V26.8H375.8V61ZM389.061 36.43V61H382.356V36.43H389.061ZM385.731 26.8C386.721 26.8 387.576 27.04 388.296 27.52C389.016 27.97 389.376 28.825 389.376 30.085C389.376 31.315 389.016 32.17 388.296 32.65C387.576 33.13 386.721 33.37 385.731 33.37C384.711 33.37 383.841 33.13 383.121 32.65C382.431 32.17 382.086 31.315 382.086 30.085C382.086 28.825 382.431 27.97 383.121 27.52C383.841 27.04 384.711 26.8 385.731 26.8ZM403.582 35.98C405.082 35.98 406.432 36.28 407.632 36.88C408.832 37.48 409.852 38.38 410.692 39.58H410.872L411.412 36.43H417.082V61.045C417.082 63.385 416.617 65.35 415.687 66.94C414.787 68.53 413.422 69.73 411.592 70.54C409.762 71.38 407.497 71.8 404.797 71.8C403.057 71.8 401.437 71.695 399.937 71.485C398.467 71.275 397.027 70.9 395.617 70.36V65.005C396.637 65.425 397.657 65.77 398.677 66.04C399.727 66.34 400.792 66.55 401.872 66.67C402.982 66.82 404.092 66.895 405.202 66.895C406.942 66.895 408.232 66.43 409.072 65.5C409.942 64.57 410.377 63.175 410.377 61.315V60.82C410.377 60.31 410.392 59.785 410.422 59.245C410.482 58.705 410.527 58.225 410.557 57.805H410.377C409.537 59.095 408.532 60.025 407.362 60.595C406.192 61.165 404.872 61.45 403.402 61.45C400.492 61.45 398.212 60.34 396.562 58.12C394.942 55.87 394.132 52.75 394.132 48.76C394.132 46.06 394.507 43.765 395.257 41.875C396.007 39.955 397.087 38.5 398.497 37.51C399.937 36.49 401.632 35.98 403.582 35.98ZM405.697 41.425C404.647 41.425 403.762 41.71 403.042 42.28C402.352 42.82 401.827 43.645 401.467 44.755C401.137 45.835 400.972 47.2 400.972 48.85C400.972 51.31 401.362 53.155 402.142 54.385C402.922 55.585 404.137 56.185 405.787 56.185C406.657 56.185 407.407 56.08 408.037 55.87C408.667 55.63 409.177 55.255 409.567 54.745C409.987 54.205 410.302 53.515 410.512 52.675C410.722 51.835 410.827 50.815 410.827 49.615V48.805C410.827 47.035 410.647 45.61 410.287 44.53C409.927 43.45 409.372 42.67 408.622 42.19C407.872 41.68 406.897 41.425 405.697 41.425ZM430.348 33.775C430.348 34.975 430.303 36.13 430.213 37.24C430.153 38.35 430.093 39.13 430.033 39.58H430.393C430.933 38.74 431.563 38.065 432.283 37.555C433.003 37.015 433.798 36.625 434.668 36.385C435.568 36.115 436.513 35.98 437.503 35.98C439.273 35.98 440.818 36.295 442.138 36.925C443.458 37.555 444.478 38.53 445.198 39.85C445.948 41.17 446.323 42.88 446.323 44.98V61H439.618V46.645C439.618 44.875 439.288 43.555 438.628 42.685C437.998 41.785 437.008 41.335 435.658 41.335C434.308 41.335 433.243 41.65 432.463 42.28C431.713 42.91 431.173 43.825 430.843 45.025C430.513 46.225 430.348 47.695 430.348 49.435V61H423.643V26.8H430.348V33.775ZM463.119 56.095C463.869 56.095 464.589 56.02 465.279 55.87C465.969 55.72 466.659 55.54 467.349 55.33V60.325C466.629 60.625 465.729 60.88 464.649 61.09C463.599 61.33 462.444 61.45 461.184 61.45C459.714 61.45 458.394 61.21 457.224 60.73C456.084 60.25 455.169 59.425 454.479 58.255C453.819 57.055 453.489 55.405 453.489 53.305V41.47H450.294V38.635L453.984 36.385L455.919 31.21H460.194V36.43H467.079V41.47H460.194V53.305C460.194 54.235 460.464 54.94 461.004 55.42C461.544 55.87 462.249 56.095 463.119 56.095Z" fill="#FF0000"/>
<path d="M12 318.452V309.083L14.1766 311.581L17.597 315.017L20.7065 316.266L23.505 317.515H26.3035L29.4129 319.389L30.9677 320.638H32.2114L34.699 319.389H37.8085L41.2289 320.013L44.6493 324.073L47.1368 326.259L50.5572 326.884L54.9104 327.821L62.6841 329.694L66.4154 330.631H69.8358L74.5 328.757L77.6095 327.821H91.291L98.1318 326.259L104.973 325.322L114.923 324.698L125.184 325.322L139.799 325.947H152.858H160.01L167.784 325.01L172.448 326.571L180.532 328.757L187.062 331.568L197.634 332.193L205.097 329.07L212.249 323.761L220.022 321.887L239.923 320.326L252.672 319.389L268.53 321.575L278.169 325.635L292.784 331.568L309.264 330.631L331.963 329.694L338.803 325.322L344.09 324.073H355.905L383.269 322.512L400.06 320.013L427.423 318.14L441.104 320.013L448.878 322.512L473.443 323.449L505.47 325.322L531.59 325.947L542.473 325.322L544.96 323.761L549.003 321.575L550.246 323.136L550.868 325.947L553.045 327.821L555.532 329.382L550.868 314.704L543.405 300.027L551.801 314.704L556.154 325.947L557.709 329.694L560.818 330.007L562.062 328.757L560.818 321.575L557.398 311.269L549.624 294.718L558.642 310.645L562.373 321.575L563.306 326.571L563.928 325.322L565.483 323.761H567.037L562.684 305.96L568.281 323.761H568.903L569.836 327.821L571.701 328.757H573.567L564.861 305.023L575.744 329.07L567.348 306.897L557.087 286.91L568.281 305.023L576.055 325.322L578.231 330.007L585.072 330.319L584.45 321.575L572.012 280.664L585.072 321.262L587.249 330.007L592.535 329.382L595.955 327.508L598.754 330.007L600.619 330.944H605.595L603.418 311.581L597.51 294.093L593.157 281.289L604.351 307.522L607.771 330.319H613.057L606.216 305.96L595.644 283.163L607.149 305.648L614.923 330.007H615.545H616.789H617.099H618.965L621.142 327.821L622.386 326.259L623.629 324.385L625.806 323.761C619.483 313.872 607.087 294.093 608.082 294.093C609.077 294.093 620.935 311.373 626.739 320.013L625.806 292.219L628.294 320.638L627.983 323.761L632.958 327.508L635.445 285.973L633.58 246L637 283.475L635.445 323.449L633.58 328.757L631.092 332.817L628.604 335.628L626.739 337.189H624.562L617.721 335.003H615.545L611.813 336.252L609.326 337.189H606.527L603.418 335.94L601.241 333.442H595.955L594.711 335.003H588.803L584.45 333.13L582.896 334.691L580.097 336.565L574.189 335.94L570.769 332.505L568.592 334.066L563.306 335.316L559.886 332.817L558.642 333.442L554.91 334.691L550.557 335.003L545.893 333.442L543.405 334.379L537.808 336.565L513.244 338.126L501.428 338.751L495.831 339.688L490.856 338.126L486.192 335.628L482.149 333.442L479.662 334.066L477.174 335.003L474.687 334.691L471.266 332.817L469.711 334.691L468.779 332.817L466.913 333.13L465.047 334.379L460.072 334.691L455.719 333.754L451.988 333.13L451.366 334.691L448.256 334.379L445.769 333.442L444.214 334.379H440.172L435.507 333.754H428.978L424.935 335.003L421.515 336.565L417.473 336.252L415.296 335.94L411.876 334.691H406.9L397.883 335.628L393.219 335.94L389.488 335.003L384.512 333.442L379.226 334.066L377.361 335.003L374.873 335.628H371.764L368.965 335.003L364.923 331.256H362.746L361.813 333.442L358.393 333.754L349.376 332.817L348.443 333.754L346.888 334.691H343.468L339.736 334.379L336.005 332.817L334.761 333.13L334.139 334.066L332.896 334.691H328.231L325.433 332.817L322.634 333.13L320.147 334.066H311.751L308.953 334.379L305.221 336.252L302.112 337.814L299.935 338.439H297.137L294.649 337.814L288.741 335.628L280.035 331.568L276.925 330.944L271.328 330.631L267.908 332.193H262.311L253.915 332.817L251.117 334.066L246.453 335.316L242.721 336.565H225.619L208.517 336.252L206.341 336.565L203.231 337.502L200.744 338.439H194.525L189.55 337.189L184.575 336.565L179.91 336.877L177.423 337.502H171.515L167.784 336.252H146.639L141.664 333.442L133.269 334.066L125.184 335.003L119.587 335.94L115.856 334.379L111.813 333.13L109.015 334.379H106.838H104.973L101.552 331.88H99.9975L97.199 333.13L94.0896 334.379H91.291H87.2488L77.6095 335.94L69.2139 336.877L62.6841 338.751L57.709 340L52.4229 339.375H43.7164H37.8085L32.8333 338.439L27.5473 337.502H20.7065L18.8408 335.316L14.1766 329.07L12 325.01V318.452Z" fill="#67B2E8"/>
<path d="M9 263.5L23.5 319L16.5 320L23.5 328L53 335.5L87.5 333L101 329.5L113.5 331H148.5L182.5 334L200.5 336.5L215 334L267.5 327.5L288.5 334L299.5 335L329 332L360 330L413 329L486.5 332H534.5L545 326.5L546.5 313.5L538 302.5L543.5 311.5V326.5H540L531 299L538 326.5H532H526L528.5 280.5L524.5 326.5H516L512.5 261.5L514.5 326.5L504.5 299L485.5 281.5L499.5 297L512.5 326.5H499.5L485.5 325L468.5 284.5L483.5 325H478.5L459.5 265L477 325H454.5L437 320.5L451 281.5L435 319.5L451 261.5L433.5 319.5L442 255L432 319.5H421.5L404.5 322L394.5 323L387 325L373.5 235.5L385.5 326.5H380.5L366.5 261.5L379 326.5H361.5H352.5L343.5 280.5L351 326.5L336.5 330L341 270.5L335.5 330L329 331L327.5 241.5V331L314 332L297.5 333L311 255.5L295.5 333L303.5 269.5L294 333L286.5 331L274 325L261 321.5L248 270.5L259 321.5H238L246 287L236 321.5L223.5 323L220.5 268L222 323L213.5 287L220.5 323L215 325L208.5 265L213.5 325L208.5 328L196 290L207 329.5L200.5 334L188.5 333L172.5 329.5L150 327L153 288.5L148.5 327H141L137 269.5L139.5 327L133 326L129.5 297L131.5 326H124L129.5 273L122.5 326H116.5L108 269.5L115 326H108L107 297V326L98 327L105 284L95.5 328L91.5 329.5L89 269.5L90 329.5H82L75.5 280L80.5 328L69.5 332L72 282L67.5 332L63.5 330.5L61 285L62 330.5L58.5 329.5L53 301.5L56.5 329.5L49.5 328L50.5 268L48 328L46 301.5V327L42.5 323.5L44.5 282L41 323.5H38.5L32.5 280L36.5 321L30.5 322L27.5 265.5L29 321L16.5 269.5L27.5 320H25.5L9 263.5Z" fill="#67B2E8"/>
<path d="M157.906 334H151.9C151.588 334 151.432 333.863 151.432 333.59L151.373 292.721C151.373 292.408 151.529 292.252 151.842 292.252H157.262L167.398 315.895L167.105 292.721C167.105 292.408 167.281 292.252 167.633 292.252H173.58C173.814 292.252 173.932 292.408 173.932 292.721L173.99 333.648C173.99 333.883 173.893 334 173.697 334H168.424L158.023 311.91L158.463 333.531C158.463 333.844 158.277 334 157.906 334ZM190.309 334.586C188.18 334.586 186.217 334.039 184.42 332.945C182.643 331.852 181.207 330.396 180.113 328.58C179.039 326.744 178.502 324.732 178.502 322.545L178.561 303.531C178.561 301.305 179.098 299.303 180.172 297.525C181.227 295.729 182.652 294.293 184.449 293.219C186.246 292.125 188.199 291.578 190.309 291.578C192.496 291.578 194.459 292.115 196.197 293.189C197.955 294.264 199.361 295.709 200.416 297.525C201.49 299.322 202.027 301.324 202.027 303.531L202.086 322.545C202.086 324.732 201.559 326.734 200.504 328.551C199.43 330.387 198.004 331.852 196.227 332.945C194.449 334.039 192.477 334.586 190.309 334.586ZM190.309 327.35C191.52 327.35 192.574 326.861 193.473 325.885C194.371 324.889 194.82 323.775 194.82 322.545L194.762 303.531C194.762 302.203 194.342 301.08 193.502 300.162C192.662 299.244 191.598 298.785 190.309 298.785C189.078 298.785 188.023 299.234 187.145 300.133C186.266 301.031 185.826 302.164 185.826 303.531V322.545C185.826 323.854 186.266 324.986 187.145 325.943C188.023 326.881 189.078 327.35 190.309 327.35ZM213.658 334H206.861C206.705 334 206.627 333.902 206.627 333.707L206.744 292.486C206.744 292.33 206.822 292.252 206.979 292.252H219.107C221.275 292.252 223.268 292.779 225.084 293.834C226.9 294.889 228.346 296.305 229.42 298.082C230.514 299.859 231.061 301.871 231.061 304.117C231.061 305.582 230.836 306.91 230.387 308.102C229.938 309.293 229.41 310.299 228.805 311.119C228.219 311.939 227.682 312.545 227.193 312.936C229.361 315.338 230.445 318.16 230.445 321.402L230.504 333.707C230.504 333.902 230.406 334 230.211 334H223.414C223.258 334 223.18 333.941 223.18 333.824V321.402C223.18 319.957 222.672 318.707 221.656 317.652C220.641 316.598 219.391 316.07 217.906 316.07H213.951L213.893 333.707C213.893 333.902 213.814 334 213.658 334ZM219.107 299.43H213.951V308.863H219.107C220.338 308.863 221.432 308.404 222.389 307.486C223.365 306.568 223.854 305.445 223.854 304.117C223.854 302.848 223.385 301.754 222.447 300.836C221.51 299.898 220.396 299.43 219.107 299.43ZM247.145 334H240.377C240.201 334 240.113 333.902 240.113 333.707V299.488H232.32C232.125 299.488 232.027 299.391 232.027 299.195L232.086 292.486C232.086 292.33 232.164 292.252 232.32 292.252H255.113C255.328 292.252 255.436 292.33 255.436 292.486V299.195C255.436 299.391 255.357 299.488 255.201 299.488H247.32L247.379 333.707C247.379 333.902 247.301 334 247.145 334ZM265.396 334H258.6C258.443 334 258.365 333.902 258.365 333.707L258.424 292.486C258.424 292.33 258.521 292.252 258.717 292.252H265.396C265.592 292.252 265.689 292.33 265.689 292.486L265.631 308.805H274.625V292.486C274.625 292.33 274.703 292.252 274.859 292.252H281.539C281.734 292.252 281.832 292.33 281.832 292.486L281.949 333.707C281.949 333.902 281.852 334 281.656 334H274.918C274.723 334 274.625 333.902 274.625 333.707V316.07H265.631V333.707C265.631 333.902 265.553 334 265.396 334ZM313.473 334.586C311.305 334.586 309.322 334.039 307.525 332.945C305.748 331.852 304.332 330.387 303.277 328.551C302.242 326.695 301.725 324.635 301.725 322.369L301.783 303.648C301.783 301.422 302.291 299.41 303.307 297.613C304.322 295.797 305.719 294.342 307.496 293.248C309.293 292.135 311.285 291.578 313.473 291.578C315.699 291.578 317.682 292.115 319.42 293.189C321.178 294.264 322.574 295.719 323.609 297.555C324.664 299.371 325.191 301.402 325.191 303.648V306.402C325.191 306.559 325.113 306.637 324.957 306.637H318.219C318.062 306.637 317.984 306.559 317.984 306.402V303.648C317.984 302.32 317.555 301.178 316.695 300.221C315.836 299.264 314.762 298.785 313.473 298.785C312.047 298.785 310.953 299.273 310.191 300.25C309.43 301.227 309.049 302.359 309.049 303.648V322.369C309.049 323.834 309.479 325.035 310.338 325.973C311.197 326.891 312.242 327.35 313.473 327.35C314.762 327.35 315.836 326.842 316.695 325.826C317.555 324.791 317.984 323.639 317.984 322.369V319.586C317.984 319.43 318.062 319.352 318.219 319.352H325.016C325.172 319.352 325.25 319.43 325.25 319.586V322.369C325.25 324.615 324.723 326.666 323.668 328.521C322.594 330.357 321.178 331.832 319.42 332.945C317.662 334.039 315.68 334.586 313.473 334.586ZM327.594 333.707L335.035 292.486C335.074 292.33 335.172 292.252 335.328 292.252H344.029C344.186 292.252 344.283 292.33 344.322 292.486L351.471 333.707C351.49 333.902 351.412 334 351.236 334H344.586C344.391 334 344.283 333.902 344.264 333.707L343.619 329.312H335.445L334.801 333.707C334.781 333.902 334.684 334 334.508 334H327.828C327.672 334 327.594 333.902 327.594 333.707ZM339.342 306.051L336.646 322.896H342.418L339.957 306.051L339.605 303.824L339.342 306.051ZM362.252 334H355.455C355.299 334 355.221 333.902 355.221 333.707L355.338 292.486C355.338 292.33 355.416 292.252 355.572 292.252H367.701C369.869 292.252 371.861 292.779 373.678 293.834C375.494 294.889 376.939 296.305 378.014 298.082C379.107 299.859 379.654 301.871 379.654 304.117C379.654 305.582 379.43 306.91 378.98 308.102C378.531 309.293 378.004 310.299 377.398 311.119C376.812 311.939 376.275 312.545 375.787 312.936C377.955 315.338 379.039 318.16 379.039 321.402L379.098 333.707C379.098 333.902 379 334 378.805 334H372.008C371.852 334 371.773 333.941 371.773 333.824V321.402C371.773 319.957 371.266 318.707 370.25 317.652C369.234 316.598 367.984 316.07 366.5 316.07H362.545L362.486 333.707C362.486 333.902 362.408 334 362.252 334ZM367.701 299.43H362.545V308.863H367.701C368.932 308.863 370.025 308.404 370.982 307.486C371.959 306.568 372.447 305.445 372.447 304.117C372.447 302.848 371.979 301.754 371.041 300.836C370.104 299.898 368.99 299.43 367.701 299.43ZM394.039 334.586C391.91 334.586 389.947 334.039 388.15 332.945C386.373 331.852 384.938 330.396 383.844 328.58C382.77 326.744 382.232 324.732 382.232 322.545L382.291 303.531C382.291 301.305 382.828 299.303 383.902 297.525C384.957 295.729 386.383 294.293 388.18 293.219C389.977 292.125 391.93 291.578 394.039 291.578C396.227 291.578 398.189 292.115 399.928 293.189C401.686 294.264 403.092 295.709 404.146 297.525C405.221 299.322 405.758 301.324 405.758 303.531L405.816 322.545C405.816 324.732 405.289 326.734 404.234 328.551C403.16 330.387 401.734 331.852 399.957 332.945C398.18 334.039 396.207 334.586 394.039 334.586ZM394.039 327.35C395.25 327.35 396.305 326.861 397.203 325.885C398.102 324.889 398.551 323.775 398.551 322.545L398.492 303.531C398.492 302.203 398.072 301.08 397.232 300.162C396.393 299.244 395.328 298.785 394.039 298.785C392.809 298.785 391.754 299.234 390.875 300.133C389.996 301.031 389.557 302.164 389.557 303.531V322.545C389.557 323.854 389.996 324.986 390.875 325.943C391.754 326.881 392.809 327.35 394.039 327.35ZM429.986 334H410.592C410.436 334 410.357 333.902 410.357 333.707L410.416 292.545C410.416 292.35 410.514 292.252 410.709 292.252H417.389C417.584 292.252 417.682 292.35 417.682 292.545L417.623 326.617H429.986C430.182 326.617 430.279 326.715 430.279 326.91V333.707C430.279 333.902 430.182 334 429.986 334ZM441.295 334H434.498C434.303 334 434.205 333.902 434.205 333.707L434.264 292.486C434.264 292.33 434.342 292.252 434.498 292.252H441.236C441.393 292.252 441.471 292.33 441.471 292.486L441.529 333.707C441.529 333.902 441.451 334 441.295 334ZM453.336 334H447.33C447.018 334 446.861 333.863 446.861 333.59L446.803 292.721C446.803 292.408 446.959 292.252 447.271 292.252H452.691L462.828 315.895L462.535 292.721C462.535 292.408 462.711 292.252 463.062 292.252H469.01C469.244 292.252 469.361 292.408 469.361 292.721L469.42 333.648C469.42 333.883 469.322 334 469.127 334H463.854L453.453 311.91L453.893 333.531C453.893 333.844 453.707 334 453.336 334ZM472.613 333.707L480.055 292.486C480.094 292.33 480.191 292.252 480.348 292.252H489.049C489.205 292.252 489.303 292.33 489.342 292.486L496.49 333.707C496.51 333.902 496.432 334 496.256 334H489.605C489.41 334 489.303 333.902 489.283 333.707L488.639 329.312H480.465L479.82 333.707C479.801 333.902 479.703 334 479.527 334H472.848C472.691 334 472.613 333.902 472.613 333.707ZM484.361 306.051L481.666 322.896H487.438L484.977 306.051L484.625 303.824L484.361 306.051Z" fill="#FF0000"/>
</svg>
