<svg width="649" height="348" viewBox="0 0 649 348" fill="none" xmlns="http://www.w3.org/2000/svg">
<rect width="649" height="348" rx="41" fill="url(#paint0_linear_1063_238)"/>
<path fill-rule="evenodd" clip-rule="evenodd" d="M648.384 314.118C645.015 333.369 628.216 348 608 348H41C18.3563 348 0 329.644 0 307V304.345L7.49655 305.493L18.9835 309.204L34.176 315.14L70.4896 320.335L93.4636 322.932L113.473 320.335L127.554 315.14L145.34 320.335L161.274 316.995L193.141 320.335H233.901L260.951 322.932L298.006 320.335H343.213H373.227L394.719 326.271L402.13 322.932L412.135 331.095L428.068 332.95H452.154H496.619L539.232 334.805L549.608 332.95V320.335L541.085 312.914L530.339 311.059L531.08 304.009L528.857 297.33L527.004 288.425L522.928 287.683L521.076 285.457L521.817 283.231L524.04 281.376L521.817 279.149L521.076 275.068V270.244L524.04 266.534L532.933 262.452L538.121 261.339L541.826 258.742L548.867 258L560.354 259.484L573.323 263.195L588.515 268.389L597.408 269.502H603.337L610.378 271.357L619.641 275.81L625.94 280.633L628.164 286.57L628.905 291.023L628.164 296.217L627.423 299.928V303.267L628.905 305.122V306.606H627.423L625.94 305.122L625.57 303.638V301.041L623.717 304.38L620.753 310.317L618.9 317.738L619.641 322.561L617.418 327.385L608.525 331.837L608.154 327.014L607.043 322.561L603.708 319.593L601.855 315.14L599.632 312.914L595.926 314.398L592.221 315.14L579.993 314.398H568.876L568.135 317.738V323.303L567.394 328.127L567.023 332.579H574.805H577.769L582.586 329.24L588.145 331.837L592.221 332.579L595.926 331.095H600.373L601.855 332.579H606.301H609.266L618.53 328.127L623.717 324.787L626.682 321.077L628.905 317.738L632.981 315.14L639.28 313.656L648.384 314.118Z" fill="#46210A" fill-opacity="0.75"/>
<mask id="path-3-outside-1_1063_238" maskUnits="userSpaceOnUse" x="140" y="29" width="370" height="41" fill="black">
<rect fill="white" x="140" y="29" width="370" height="41"/>
<path d="M161.607 33.5732H171.633V40.2878H170.105V65.4268H161.515L152.559 46.9615V58.7122H154.026V65.4268H144V58.7122H145.528V40.2878H144V33.5732H155.035L163.074 49.9913V40.2878H161.607V33.5732Z"/>
<path d="M192.094 66C188.365 66 185.482 64.6898 183.444 62.0695C181.426 59.4491 180.418 55.2593 180.418 49.5C180.418 43.7407 181.426 39.5509 183.444 36.9305C185.482 34.3102 188.365 33 192.094 33C195.823 33 198.697 34.3102 200.714 36.9305C202.752 39.5509 203.771 43.7407 203.771 49.5C203.771 55.2593 202.752 59.4491 200.714 62.0695C198.697 64.6898 195.823 66 192.094 66ZM192.094 58.7122C192.787 58.7122 193.307 58.4665 193.653 57.9752C194 57.4839 194.173 56.7196 194.173 55.6824V43.3176C194.173 42.2804 194 41.5161 193.653 41.0248C193.307 40.5335 192.787 40.2878 192.094 40.2878C191.401 40.2878 190.882 40.5335 190.535 41.0248C190.189 41.5161 190.016 42.2804 190.016 43.3176V55.6824C190.016 56.7469 190.189 57.5248 190.535 58.0161C190.882 58.4802 191.401 58.7122 192.094 58.7122Z"/>
<path d="M212.605 58.7122H214.133V40.2878H212.605V33.5732H226.635C229.264 33.5732 231.271 34.2965 232.657 35.7432C234.043 37.1898 234.736 39.5372 234.736 42.7854C234.736 44.6141 234.46 46.1973 233.91 47.5347C233.36 48.8722 232.575 49.8002 231.557 50.3189L231.587 50.7283C233.543 51.1377 234.522 52.7481 234.522 55.5596V58.7122H235.958V65.4268H226.268V55.8052C226.268 54.7407 226.146 53.9355 225.902 53.3896C225.677 52.8437 225.311 52.4752 224.801 52.2841C224.312 52.0931 223.609 51.9975 222.692 51.9975V58.7122H224.709V65.4268H212.605V58.7122ZM224.343 47.0025C224.934 47.0025 225.372 46.7978 225.657 46.3883C225.963 45.9516 226.116 45.2829 226.116 44.3821V42.9082C226.116 42.0074 225.963 41.3524 225.657 40.9429C225.372 40.5062 224.934 40.2878 224.343 40.2878H222.692V47.0025H224.343Z"/>
<path d="M266.546 43.4814H261.289V40.2878H259.332V58.7122H261.472V65.4268H248.634V58.7122H250.773V40.2878H248.817V43.4814H243.56V33.5732H266.546V43.4814Z"/>
<path d="M299.843 40.2878H298.314V58.7122H299.843V65.4268H288.288V58.7122H289.755V51.9566H285.476V58.7122H286.943V65.4268H275.389V58.7122H276.917V40.2878H275.389V33.5732H286.943V40.2878H285.476V46.5112H289.755V40.2878H288.288V33.5732H299.843V40.2878Z"/>
<path d="M325.814 58.7122H327.342V40.3288H325.814V33.5732H338.224C341.628 33.5732 344.328 34.8288 346.325 37.34C348.342 39.8238 349.351 43.8772 349.351 49.5C349.351 55.1228 348.342 59.1898 346.325 61.701C344.328 64.1849 341.628 65.4268 338.224 65.4268H325.814V58.7122ZM337.674 58.7122C338.367 58.7122 338.887 58.4665 339.233 57.9752C339.58 57.4839 339.753 56.7196 339.753 55.6824V43.3176C339.753 41.2978 339.06 40.2878 337.674 40.2878H335.901V58.7122H337.674Z"/>
<path d="M379.687 58.7122H380.91V65.4268H368.928V58.7122H370.762L370.273 55.4367H366.115L365.626 58.7122H367.46V65.4268H357.006V58.7122H358.229L363.395 33.5732H374.521L379.687 58.7122ZM366.788 51.0968H369.6L368.347 42.9491H368.041L366.788 51.0968Z"/>
<path d="M412.568 58.7122H414.096V65.4268H405.751L401.166 52.7345L399.76 54.2903V58.7122H401.227V65.4268H389.673V58.7122H391.201V40.2878H389.673V33.5732H401.227V40.2878H399.76V45.6923L404.498 40.2878H402.572V33.5732H413.943V40.2878H412.415L407.31 45.938L412.568 58.7122Z"/>
<path d="M433.558 66C429.829 66 426.945 64.6898 424.907 62.0695C422.89 59.4491 421.881 55.2593 421.881 49.5C421.881 43.7407 422.89 39.5509 424.907 36.9305C426.945 34.3102 429.829 33 433.558 33C437.287 33 440.16 34.3102 442.178 36.9305C444.216 39.5509 445.235 43.7407 445.235 49.5C445.235 55.2593 444.216 59.4491 442.178 62.0695C440.16 64.6898 437.287 66 433.558 66ZM433.558 58.7122C434.251 58.7122 434.77 58.4665 435.117 57.9752C435.463 57.4839 435.636 56.7196 435.636 55.6824V43.3176C435.636 42.2804 435.463 41.5161 435.117 41.0248C434.77 40.5335 434.251 40.2878 433.558 40.2878C432.865 40.2878 432.345 40.5335 431.999 41.0248C431.652 41.5161 431.479 42.2804 431.479 43.3176V55.6824C431.479 56.7469 431.652 57.5248 431.999 58.0161C432.345 58.4802 432.865 58.7122 433.558 58.7122Z"/>
<path d="M476.872 43.4814H471.614V40.2878H469.658V58.7122H471.797V65.4268H458.959V58.7122H461.099V40.2878H459.143V43.4814H453.885V33.5732H476.872V43.4814Z"/>
<path d="M504.777 58.7122H506V65.4268H494.018V58.7122H495.852L495.363 55.4367H491.205L490.716 58.7122H492.55V65.4268H482.096V58.7122H483.319L488.485 33.5732H499.611L504.777 58.7122ZM491.878 51.0968H494.69L493.437 42.9491H493.131L491.878 51.0968Z"/>
</mask>
<path d="M161.607 33.5732H171.633V40.2878H170.105V65.4268H161.515L152.559 46.9615V58.7122H154.026V65.4268H144V58.7122H145.528V40.2878H144V33.5732H155.035L163.074 49.9913V40.2878H161.607V33.5732Z" fill="#8F3C15"/>
<path d="M192.094 66C188.365 66 185.482 64.6898 183.444 62.0695C181.426 59.4491 180.418 55.2593 180.418 49.5C180.418 43.7407 181.426 39.5509 183.444 36.9305C185.482 34.3102 188.365 33 192.094 33C195.823 33 198.697 34.3102 200.714 36.9305C202.752 39.5509 203.771 43.7407 203.771 49.5C203.771 55.2593 202.752 59.4491 200.714 62.0695C198.697 64.6898 195.823 66 192.094 66ZM192.094 58.7122C192.787 58.7122 193.307 58.4665 193.653 57.9752C194 57.4839 194.173 56.7196 194.173 55.6824V43.3176C194.173 42.2804 194 41.5161 193.653 41.0248C193.307 40.5335 192.787 40.2878 192.094 40.2878C191.401 40.2878 190.882 40.5335 190.535 41.0248C190.189 41.5161 190.016 42.2804 190.016 43.3176V55.6824C190.016 56.7469 190.189 57.5248 190.535 58.0161C190.882 58.4802 191.401 58.7122 192.094 58.7122Z" fill="#8F3C15"/>
<path d="M212.605 58.7122H214.133V40.2878H212.605V33.5732H226.635C229.264 33.5732 231.271 34.2965 232.657 35.7432C234.043 37.1898 234.736 39.5372 234.736 42.7854C234.736 44.6141 234.46 46.1973 233.91 47.5347C233.36 48.8722 232.575 49.8002 231.557 50.3189L231.587 50.7283C233.543 51.1377 234.522 52.7481 234.522 55.5596V58.7122H235.958V65.4268H226.268V55.8052C226.268 54.7407 226.146 53.9355 225.902 53.3896C225.677 52.8437 225.311 52.4752 224.801 52.2841C224.312 52.0931 223.609 51.9975 222.692 51.9975V58.7122H224.709V65.4268H212.605V58.7122ZM224.343 47.0025C224.934 47.0025 225.372 46.7978 225.657 46.3883C225.963 45.9516 226.116 45.2829 226.116 44.3821V42.9082C226.116 42.0074 225.963 41.3524 225.657 40.9429C225.372 40.5062 224.934 40.2878 224.343 40.2878H222.692V47.0025H224.343Z" fill="#8F3C15"/>
<path d="M266.546 43.4814H261.289V40.2878H259.332V58.7122H261.472V65.4268H248.634V58.7122H250.773V40.2878H248.817V43.4814H243.56V33.5732H266.546V43.4814Z" fill="#8F3C15"/>
<path d="M299.843 40.2878H298.314V58.7122H299.843V65.4268H288.288V58.7122H289.755V51.9566H285.476V58.7122H286.943V65.4268H275.389V58.7122H276.917V40.2878H275.389V33.5732H286.943V40.2878H285.476V46.5112H289.755V40.2878H288.288V33.5732H299.843V40.2878Z" fill="#8F3C15"/>
<path d="M325.814 58.7122H327.342V40.3288H325.814V33.5732H338.224C341.628 33.5732 344.328 34.8288 346.325 37.34C348.342 39.8238 349.351 43.8772 349.351 49.5C349.351 55.1228 348.342 59.1898 346.325 61.701C344.328 64.1849 341.628 65.4268 338.224 65.4268H325.814V58.7122ZM337.674 58.7122C338.367 58.7122 338.887 58.4665 339.233 57.9752C339.58 57.4839 339.753 56.7196 339.753 55.6824V43.3176C339.753 41.2978 339.06 40.2878 337.674 40.2878H335.901V58.7122H337.674Z" fill="#8F3C15"/>
<path d="M379.687 58.7122H380.91V65.4268H368.928V58.7122H370.762L370.273 55.4367H366.115L365.626 58.7122H367.46V65.4268H357.006V58.7122H358.229L363.395 33.5732H374.521L379.687 58.7122ZM366.788 51.0968H369.6L368.347 42.9491H368.041L366.788 51.0968Z" fill="#8F3C15"/>
<path d="M412.568 58.7122H414.096V65.4268H405.751L401.166 52.7345L399.76 54.2903V58.7122H401.227V65.4268H389.673V58.7122H391.201V40.2878H389.673V33.5732H401.227V40.2878H399.76V45.6923L404.498 40.2878H402.572V33.5732H413.943V40.2878H412.415L407.31 45.938L412.568 58.7122Z" fill="#8F3C15"/>
<path d="M433.558 66C429.829 66 426.945 64.6898 424.907 62.0695C422.89 59.4491 421.881 55.2593 421.881 49.5C421.881 43.7407 422.89 39.5509 424.907 36.9305C426.945 34.3102 429.829 33 433.558 33C437.287 33 440.16 34.3102 442.178 36.9305C444.216 39.5509 445.235 43.7407 445.235 49.5C445.235 55.2593 444.216 59.4491 442.178 62.0695C440.16 64.6898 437.287 66 433.558 66ZM433.558 58.7122C434.251 58.7122 434.77 58.4665 435.117 57.9752C435.463 57.4839 435.636 56.7196 435.636 55.6824V43.3176C435.636 42.2804 435.463 41.5161 435.117 41.0248C434.77 40.5335 434.251 40.2878 433.558 40.2878C432.865 40.2878 432.345 40.5335 431.999 41.0248C431.652 41.5161 431.479 42.2804 431.479 43.3176V55.6824C431.479 56.7469 431.652 57.5248 431.999 58.0161C432.345 58.4802 432.865 58.7122 433.558 58.7122Z" fill="#8F3C15"/>
<path d="M476.872 43.4814H471.614V40.2878H469.658V58.7122H471.797V65.4268H458.959V58.7122H461.099V40.2878H459.143V43.4814H453.885V33.5732H476.872V43.4814Z" fill="#8F3C15"/>
<path d="M504.777 58.7122H506V65.4268H494.018V58.7122H495.852L495.363 55.4367H491.205L490.716 58.7122H492.55V65.4268H482.096V58.7122H483.319L488.485 33.5732H499.611L504.777 58.7122ZM491.878 51.0968H494.69L493.437 42.9491H493.131L491.878 51.0968Z" fill="#8F3C15"/>
<path d="M161.607 33.5732H171.633V40.2878H170.105V65.4268H161.515L152.559 46.9615V58.7122H154.026V65.4268H144V58.7122H145.528V40.2878H144V33.5732H155.035L163.074 49.9913V40.2878H161.607V33.5732Z" stroke="black" stroke-width="8" mask="url(#path-3-outside-1_1063_238)"/>
<path d="M192.094 66C188.365 66 185.482 64.6898 183.444 62.0695C181.426 59.4491 180.418 55.2593 180.418 49.5C180.418 43.7407 181.426 39.5509 183.444 36.9305C185.482 34.3102 188.365 33 192.094 33C195.823 33 198.697 34.3102 200.714 36.9305C202.752 39.5509 203.771 43.7407 203.771 49.5C203.771 55.2593 202.752 59.4491 200.714 62.0695C198.697 64.6898 195.823 66 192.094 66ZM192.094 58.7122C192.787 58.7122 193.307 58.4665 193.653 57.9752C194 57.4839 194.173 56.7196 194.173 55.6824V43.3176C194.173 42.2804 194 41.5161 193.653 41.0248C193.307 40.5335 192.787 40.2878 192.094 40.2878C191.401 40.2878 190.882 40.5335 190.535 41.0248C190.189 41.5161 190.016 42.2804 190.016 43.3176V55.6824C190.016 56.7469 190.189 57.5248 190.535 58.0161C190.882 58.4802 191.401 58.7122 192.094 58.7122Z" stroke="black" stroke-width="8" mask="url(#path-3-outside-1_1063_238)"/>
<path d="M212.605 58.7122H214.133V40.2878H212.605V33.5732H226.635C229.264 33.5732 231.271 34.2965 232.657 35.7432C234.043 37.1898 234.736 39.5372 234.736 42.7854C234.736 44.6141 234.46 46.1973 233.91 47.5347C233.36 48.8722 232.575 49.8002 231.557 50.3189L231.587 50.7283C233.543 51.1377 234.522 52.7481 234.522 55.5596V58.7122H235.958V65.4268H226.268V55.8052C226.268 54.7407 226.146 53.9355 225.902 53.3896C225.677 52.8437 225.311 52.4752 224.801 52.2841C224.312 52.0931 223.609 51.9975 222.692 51.9975V58.7122H224.709V65.4268H212.605V58.7122ZM224.343 47.0025C224.934 47.0025 225.372 46.7978 225.657 46.3883C225.963 45.9516 226.116 45.2829 226.116 44.3821V42.9082C226.116 42.0074 225.963 41.3524 225.657 40.9429C225.372 40.5062 224.934 40.2878 224.343 40.2878H222.692V47.0025H224.343Z" stroke="black" stroke-width="8" mask="url(#path-3-outside-1_1063_238)"/>
<path d="M266.546 43.4814H261.289V40.2878H259.332V58.7122H261.472V65.4268H248.634V58.7122H250.773V40.2878H248.817V43.4814H243.56V33.5732H266.546V43.4814Z" stroke="black" stroke-width="8" mask="url(#path-3-outside-1_1063_238)"/>
<path d="M299.843 40.2878H298.314V58.7122H299.843V65.4268H288.288V58.7122H289.755V51.9566H285.476V58.7122H286.943V65.4268H275.389V58.7122H276.917V40.2878H275.389V33.5732H286.943V40.2878H285.476V46.5112H289.755V40.2878H288.288V33.5732H299.843V40.2878Z" stroke="black" stroke-width="8" mask="url(#path-3-outside-1_1063_238)"/>
<path d="M325.814 58.7122H327.342V40.3288H325.814V33.5732H338.224C341.628 33.5732 344.328 34.8288 346.325 37.34C348.342 39.8238 349.351 43.8772 349.351 49.5C349.351 55.1228 348.342 59.1898 346.325 61.701C344.328 64.1849 341.628 65.4268 338.224 65.4268H325.814V58.7122ZM337.674 58.7122C338.367 58.7122 338.887 58.4665 339.233 57.9752C339.58 57.4839 339.753 56.7196 339.753 55.6824V43.3176C339.753 41.2978 339.06 40.2878 337.674 40.2878H335.901V58.7122H337.674Z" stroke="black" stroke-width="8" mask="url(#path-3-outside-1_1063_238)"/>
<path d="M379.687 58.7122H380.91V65.4268H368.928V58.7122H370.762L370.273 55.4367H366.115L365.626 58.7122H367.46V65.4268H357.006V58.7122H358.229L363.395 33.5732H374.521L379.687 58.7122ZM366.788 51.0968H369.6L368.347 42.9491H368.041L366.788 51.0968Z" stroke="black" stroke-width="8" mask="url(#path-3-outside-1_1063_238)"/>
<path d="M412.568 58.7122H414.096V65.4268H405.751L401.166 52.7345L399.76 54.2903V58.7122H401.227V65.4268H389.673V58.7122H391.201V40.2878H389.673V33.5732H401.227V40.2878H399.76V45.6923L404.498 40.2878H402.572V33.5732H413.943V40.2878H412.415L407.31 45.938L412.568 58.7122Z" stroke="black" stroke-width="8" mask="url(#path-3-outside-1_1063_238)"/>
<path d="M433.558 66C429.829 66 426.945 64.6898 424.907 62.0695C422.89 59.4491 421.881 55.2593 421.881 49.5C421.881 43.7407 422.89 39.5509 424.907 36.9305C426.945 34.3102 429.829 33 433.558 33C437.287 33 440.16 34.3102 442.178 36.9305C444.216 39.5509 445.235 43.7407 445.235 49.5C445.235 55.2593 444.216 59.4491 442.178 62.0695C440.16 64.6898 437.287 66 433.558 66ZM433.558 58.7122C434.251 58.7122 434.77 58.4665 435.117 57.9752C435.463 57.4839 435.636 56.7196 435.636 55.6824V43.3176C435.636 42.2804 435.463 41.5161 435.117 41.0248C434.77 40.5335 434.251 40.2878 433.558 40.2878C432.865 40.2878 432.345 40.5335 431.999 41.0248C431.652 41.5161 431.479 42.2804 431.479 43.3176V55.6824C431.479 56.7469 431.652 57.5248 431.999 58.0161C432.345 58.4802 432.865 58.7122 433.558 58.7122Z" stroke="black" stroke-width="8" mask="url(#path-3-outside-1_1063_238)"/>
<path d="M476.872 43.4814H471.614V40.2878H469.658V58.7122H471.797V65.4268H458.959V58.7122H461.099V40.2878H459.143V43.4814H453.885V33.5732H476.872V43.4814Z" stroke="black" stroke-width="8" mask="url(#path-3-outside-1_1063_238)"/>
<path d="M504.777 58.7122H506V65.4268H494.018V58.7122H495.852L495.363 55.4367H491.205L490.716 58.7122H492.55V65.4268H482.096V58.7122H483.319L488.485 33.5732H499.611L504.777 58.7122ZM491.878 51.0968H494.69L493.437 42.9491H493.131L491.878 51.0968Z" stroke="black" stroke-width="8" mask="url(#path-3-outside-1_1063_238)"/>
<path d="M223.448 23V22.152H224.12C224.28 22.152 224.419 22.1307 224.536 22.088C224.664 22.0347 224.76 21.9333 224.824 21.784C224.899 21.6347 224.936 21.4107 224.936 21.112V13.464C224.936 13.1547 224.899 12.9307 224.824 12.792C224.76 12.6427 224.664 12.5467 224.536 12.504C224.419 12.4507 224.28 12.424 224.12 12.424H223.448V11.576H228.968V12.424H228.296C228.147 12.424 228.008 12.4453 227.88 12.488C227.763 12.5307 227.667 12.6213 227.592 12.76C227.517 12.8987 227.48 13.112 227.48 13.4V22.024H230.456C230.701 22.024 230.909 21.9707 231.08 21.864C231.261 21.7573 231.405 21.6027 231.512 21.4C231.629 21.1867 231.72 20.9307 231.784 20.632L232.04 19.432H232.936L232.824 23H223.448ZM246.477 23V22.152H247.149C247.298 22.152 247.431 22.1307 247.549 22.088C247.677 22.0453 247.778 21.9547 247.853 21.816C247.927 21.6773 247.965 21.4693 247.965 21.192V13.464C247.965 13.1547 247.927 12.9307 247.853 12.792C247.789 12.6427 247.693 12.5467 247.565 12.504C247.447 12.4507 247.309 12.424 247.149 12.424H246.477V11.576H255.357L255.421 14.52H254.301L254.221 13.768C254.199 13.5013 254.146 13.2827 254.061 13.112C253.986 12.9307 253.879 12.792 253.741 12.696C253.602 12.6 253.421 12.552 253.197 12.552H250.509V16.552H254.301V17.512H250.509V22.024H253.709C253.922 22.024 254.098 21.9707 254.237 21.864C254.375 21.7573 254.482 21.6133 254.557 21.432C254.642 21.2507 254.701 21.0427 254.733 20.808L254.861 20.056H255.965L255.853 23H246.477ZM275.81 23.16C274.487 23.16 273.389 22.9147 272.514 22.424C271.65 21.9333 270.999 21.2507 270.562 20.376C270.135 19.4907 269.922 18.456 269.922 17.272C269.922 16.12 270.146 15.1067 270.594 14.232C271.042 13.3467 271.709 12.6587 272.594 12.168C273.49 11.6667 274.589 11.416 275.89 11.416C276.775 11.416 277.511 11.5013 278.098 11.672C278.695 11.832 279.143 12.0507 279.442 12.328C279.741 12.6053 279.89 12.92 279.89 13.272C279.89 13.6453 279.714 13.9653 279.362 14.232C279.01 14.4987 278.498 14.632 277.826 14.632C277.826 14.1947 277.751 13.816 277.602 13.496C277.463 13.1653 277.25 12.9093 276.962 12.728C276.674 12.536 276.301 12.44 275.842 12.44C275.063 12.44 274.434 12.632 273.954 13.016C273.485 13.3893 273.143 13.9333 272.93 14.648C272.717 15.3627 272.61 16.2373 272.61 17.272C272.61 18.296 272.722 19.1653 272.946 19.88C273.17 20.5947 273.533 21.1387 274.034 21.512C274.546 21.8853 275.218 22.072 276.05 22.072C276.253 22.072 276.45 22.0667 276.642 22.056C276.845 22.0347 277.037 22.0027 277.218 21.96V19.608C277.218 19.32 277.175 19.096 277.09 18.936C277.005 18.7653 276.877 18.648 276.706 18.584C276.546 18.5093 276.338 18.472 276.082 18.472H275.874V17.624H280.898V18.472H280.69C280.477 18.472 280.295 18.5093 280.146 18.584C280.007 18.6587 279.906 18.7813 279.842 18.952C279.778 19.1227 279.746 19.3627 279.746 19.672V22.296C279.127 22.584 278.498 22.8027 277.858 22.952C277.218 23.0907 276.535 23.16 275.81 23.16ZM294.347 23V22.152H295.019C295.168 22.152 295.301 22.1307 295.419 22.088C295.547 22.0453 295.648 21.9547 295.723 21.816C295.797 21.6773 295.835 21.4693 295.835 21.192V13.464C295.835 13.1547 295.797 12.9307 295.723 12.792C295.659 12.6427 295.563 12.5467 295.435 12.504C295.317 12.4507 295.179 12.424 295.019 12.424H294.347V11.576H303.227L303.291 14.52H302.171L302.091 13.768C302.069 13.5013 302.016 13.2827 301.931 13.112C301.856 12.9307 301.749 12.792 301.611 12.696C301.472 12.6 301.291 12.552 301.067 12.552H298.379V16.552H302.171V17.512H298.379V22.024H301.579C301.792 22.024 301.968 21.9707 302.107 21.864C302.245 21.7573 302.352 21.6133 302.427 21.432C302.512 21.2507 302.571 21.0427 302.603 20.808L302.731 20.056H303.835L303.723 23H294.347ZM317.36 23V22.152H318.032C318.181 22.152 318.315 22.1307 318.432 22.088C318.56 22.0347 318.661 21.9333 318.736 21.784C318.811 21.6347 318.848 21.4107 318.848 21.112V13.4C318.848 13.112 318.811 12.8987 318.736 12.76C318.661 12.6213 318.56 12.5307 318.432 12.488C318.315 12.4453 318.181 12.424 318.032 12.424H317.36V11.576H320.912L326.56 19.56V13.4C326.56 13.112 326.523 12.8987 326.448 12.76C326.373 12.6213 326.272 12.5307 326.144 12.488C326.027 12.4453 325.893 12.424 325.744 12.424H325.072V11.576H329.248V12.424H328.576C328.427 12.424 328.288 12.4507 328.16 12.504C328.043 12.5467 327.947 12.6427 327.872 12.792C327.797 12.9307 327.76 13.1547 327.76 13.464V23H326.288L320.048 14.184V21.112C320.048 21.4107 320.085 21.6347 320.16 21.784C320.235 21.9333 320.331 22.0347 320.448 22.088C320.576 22.1307 320.715 22.152 320.864 22.152H321.536V23H317.36ZM342.529 23V22.152H343.201C343.361 22.152 343.5 22.1307 343.617 22.088C343.745 22.0347 343.841 21.9333 343.905 21.784C343.98 21.6347 344.017 21.4107 344.017 21.112V13.4C344.017 13.112 343.98 12.8987 343.905 12.76C343.831 12.6213 343.729 12.5307 343.601 12.488C343.484 12.4453 343.351 12.424 343.201 12.424H342.529V11.576H347.809C348.993 11.576 350.007 11.784 350.849 12.2C351.692 12.6053 352.337 13.2187 352.785 14.04C353.244 14.8507 353.473 15.864 353.473 17.08C353.473 18.2427 353.26 19.272 352.833 20.168C352.407 21.0533 351.772 21.7467 350.929 22.248C350.097 22.7493 349.057 23 347.809 23H342.529ZM347.441 22.008C348.177 22.008 348.791 21.8107 349.281 21.416C349.772 21.0213 350.14 20.456 350.385 19.72C350.641 18.9733 350.769 18.088 350.769 17.064C350.769 16.0507 350.641 15.2133 350.385 14.552C350.14 13.88 349.772 13.3787 349.281 13.048C348.791 12.7173 348.183 12.552 347.457 12.552H346.545V22.008H347.441ZM366.658 23V22.152H366.85C367.042 22.152 367.213 22.12 367.362 22.056C367.512 21.992 367.645 21.88 367.762 21.72C367.89 21.5493 368.013 21.304 368.13 20.984L371.602 11.576H373.794L377.138 21C377.245 21.2987 377.357 21.5333 377.474 21.704C377.602 21.864 377.736 21.9813 377.874 22.056C378.024 22.12 378.184 22.152 378.354 22.152H378.642V23H373.362V22.152H373.986C374.146 22.152 374.301 22.104 374.45 22.008C374.6 21.912 374.674 21.752 374.674 21.528C374.674 21.4427 374.664 21.3573 374.642 21.272C374.632 21.1867 374.616 21.1067 374.594 21.032C374.573 20.9573 374.552 20.8933 374.53 20.84L373.97 19.24H370.082L369.618 20.616C369.597 20.7013 369.57 20.7973 369.538 20.904C369.506 21.0107 369.48 21.1227 369.458 21.24C369.437 21.3467 369.426 21.4427 369.426 21.528C369.426 21.7307 369.501 21.8853 369.65 21.992C369.8 22.0987 369.965 22.152 370.146 22.152H370.818V23H366.658ZM370.418 18.264H373.65L372.802 15.64C372.728 15.3947 372.648 15.1333 372.562 14.856C372.477 14.568 372.397 14.28 372.322 13.992C372.248 13.704 372.178 13.4373 372.114 13.192C372.072 13.3627 372.018 13.5493 371.954 13.752C371.89 13.944 371.826 14.1467 371.762 14.36C371.698 14.5627 371.629 14.7707 371.554 14.984C371.49 15.1867 371.426 15.3787 371.362 15.56L370.418 18.264ZM391.649 23V22.152H392.321C392.471 22.152 392.604 22.1307 392.721 22.088C392.849 22.0453 392.951 21.9547 393.025 21.816C393.1 21.6773 393.137 21.4693 393.137 21.192V13.4C393.137 13.112 393.1 12.8987 393.025 12.76C392.951 12.6213 392.849 12.5307 392.721 12.488C392.604 12.4453 392.471 12.424 392.321 12.424H391.649V11.576H396.801C397.815 11.576 398.641 11.688 399.281 11.912C399.932 12.136 400.412 12.472 400.721 12.92C401.031 13.3573 401.185 13.896 401.185 14.536C401.185 15.1013 401.079 15.5813 400.865 15.976C400.652 16.3707 400.38 16.696 400.049 16.952C399.719 17.208 399.372 17.4107 399.009 17.56L400.913 20.84C401.052 21.0747 401.185 21.2773 401.313 21.448C401.441 21.608 401.564 21.7413 401.681 21.848C401.809 21.9547 401.943 22.0347 402.081 22.088C402.22 22.1307 402.364 22.152 402.513 22.152H402.577V23H402.049C401.569 23 401.148 22.984 400.785 22.952C400.433 22.9093 400.124 22.84 399.857 22.744C399.601 22.6373 399.372 22.488 399.169 22.296C398.967 22.104 398.785 21.8587 398.625 21.56L396.721 18.04H395.665V21.192C395.665 21.4693 395.703 21.6773 395.777 21.816C395.852 21.9547 395.953 22.0453 396.081 22.088C396.209 22.1307 396.343 22.152 396.481 22.152H397.169V23H391.649ZM396.561 17.112C397.052 17.112 397.436 17.0267 397.713 16.856C398.001 16.6747 398.204 16.4133 398.321 16.072C398.439 15.72 398.497 15.2827 398.497 14.76C398.497 14.216 398.433 13.784 398.305 13.464C398.177 13.1333 397.969 12.8933 397.681 12.744C397.393 12.5947 397.009 12.52 396.529 12.52H395.665V17.112H396.561ZM417.213 23V22.152H417.965C418.136 22.152 418.291 22.136 418.429 22.104C418.568 22.0613 418.68 21.9707 418.765 21.832C418.851 21.6933 418.893 21.4747 418.893 21.176V18.952L415.933 13.272C415.827 13.0587 415.725 12.8933 415.629 12.776C415.533 12.648 415.421 12.5573 415.293 12.504C415.176 12.4507 415.011 12.424 414.797 12.424H414.589V11.576H419.949V12.424H419.677C419.357 12.424 419.117 12.4933 418.957 12.632C418.797 12.76 418.717 12.9307 418.717 13.144C418.717 13.2827 418.739 13.432 418.781 13.592C418.835 13.7413 418.893 13.8853 418.957 14.024L420.141 16.376C420.227 16.5467 420.301 16.7067 420.365 16.856C420.44 17.0053 420.504 17.1493 420.557 17.288C420.611 17.416 420.659 17.544 420.701 17.672C420.755 17.7893 420.803 17.912 420.845 18.04C420.963 17.7627 421.091 17.4587 421.229 17.128C421.379 16.7973 421.539 16.4507 421.709 16.088L422.637 14.168C422.755 13.9333 422.829 13.736 422.861 13.576C422.893 13.416 422.909 13.2933 422.909 13.208C422.909 12.9307 422.819 12.7333 422.637 12.616C422.467 12.488 422.205 12.424 421.853 12.424H421.485V11.576H425.677V12.424H425.373C425.192 12.424 425.043 12.4613 424.925 12.536C424.808 12.6 424.691 12.7227 424.573 12.904C424.467 13.0853 424.328 13.3413 424.157 13.672L421.437 18.968V21.16C421.437 21.4693 421.475 21.6933 421.549 21.832C421.635 21.9707 421.747 22.0613 421.885 22.104C422.024 22.136 422.173 22.152 422.333 22.152H423.117V23H417.213Z" fill="black"/>
<defs>
<linearGradient id="paint0_linear_1063_238" x1="324.5" y1="0" x2="324.5" y2="348" gradientUnits="userSpaceOnUse">
<stop stop-color="#C3FEFF"/>
<stop offset="0.723958" stop-color="#FBFEFE"/>
<stop offset="0.770833" stop-color="#FCCD33"/>
<stop offset="1" stop-color="#FE8003"/>
</linearGradient>
</defs>
</svg>
