<svg width="649" height="348" viewBox="0 0 649 348" fill="none" xmlns="http://www.w3.org/2000/svg">
<rect width="649" height="348" rx="41" fill="#F4F4F4"/>
<rect x="23" y="18" width="604" height="313" rx="22" fill="#F4F4F4" stroke="#12388D" stroke-width="6"/>
<path d="M303.5 260L286 254L306 158L300.5 152L296.5 143.5V128L308.5 122.5L316.5 121H337L347.5 124L355.5 129.5V143.5L350.5 154.5L345.5 158L364 254L355.5 260L339.5 262.5H319.5L303.5 260Z" fill="#6BBBF2"/>
<path d="M190.25 77H193.8V48.1H190.25V45.1H204.35V48.1H200.8V60.5H215.4V48.1H211.85V45.1H225.95V48.1H222.4V77H225.95V80H211.85V77H215.4V63.75H200.8V77H204.35V80H190.25V77ZM228.886 77H231.436L242.436 45.1H248.686L259.686 77H262.236V80H248.386V77H252.536L249.936 69.15H237.886L235.286 77H239.436V80H228.886V77ZM238.786 66H249.036L244.036 50.5H243.786L238.786 66ZM265.201 77H268.751V48.1H265.201V45.1H292.451V54.15H287.301V48.35H275.751V60.9H283.351V57.6H286.801V67.45H283.351V64.15H275.751V77H280.501V80H265.201V77ZM292.313 77H294.863L305.863 45.1H312.113L323.113 77H325.663V80H311.813V77H315.963L313.363 69.15H301.313L298.713 77H302.863V80H292.313V77ZM302.213 66H312.463L307.463 50.5H307.213L302.213 66ZM338.7 77H341.25L352.25 45.1H358.5L369.5 77H372.05V80H358.2V77H362.35L359.75 69.15H347.7L345.1 77H349.25V80H338.7V77ZM348.6 66H358.85L353.85 50.5H353.6L348.6 66ZM375.016 77H378.566V48.1H375.016V45.1H390.816C393.182 45.1 395.366 45.4833 397.366 46.25C399.366 47.0167 401.099 48.1333 402.566 49.6C404.032 51.0667 405.166 52.8833 405.966 55.05C406.799 57.2167 407.216 59.7167 407.216 62.55C407.216 65.3833 406.799 67.8833 405.966 70.05C405.166 72.2167 404.032 74.05 402.566 75.55C401.099 77.0167 399.366 78.1333 397.366 78.9C395.366 79.6333 393.182 80 390.816 80H375.016V77ZM385.566 76.75H389.666C393.066 76.75 395.549 75.95 397.116 74.35C398.716 72.7167 399.516 70.1667 399.516 66.7V58.4C399.516 54.9333 398.716 52.4 397.116 50.8C395.549 49.1667 393.066 48.35 389.666 48.35H385.566V76.75ZM409.061 77H411.611L422.611 45.1H428.861L439.861 77H442.411V80H428.561V77H432.711L430.111 69.15H418.061L415.461 77H419.611V80H409.061V77ZM418.961 66H429.211L424.211 50.5H423.961L418.961 66ZM445.377 77H448.927V48.1H445.377V45.1H459.477V48.1H455.927V77H459.477V80H445.377V77Z" fill="#0E4BCB"/>
<path d="M197.68 302.48C195.92 302.48 194.32 302.147 192.88 301.48C191.44 300.813 190.213 299.853 189.2 298.6C188.187 297.347 187.4 295.827 186.84 294.04C186.28 292.253 186 290.253 186 288.04C186 285.72 186.28 283.667 186.84 281.88C187.4 280.093 188.173 278.587 189.16 277.36C190.173 276.133 191.387 275.2 192.8 274.56C194.213 273.92 195.773 273.6 197.48 273.6C199.213 273.6 200.653 273.893 201.8 274.48C202.973 275.04 203.747 275.747 204.12 276.6H204.28V274.08H207.16V282.24H204.28V280.16C204.28 278.827 203.693 277.76 202.52 276.96C201.347 276.133 199.813 275.72 197.92 275.72C196.507 275.72 195.28 275.987 194.24 276.52C193.227 277.027 192.387 277.733 191.72 278.64C191.08 279.52 190.6 280.56 190.28 281.76C189.987 282.933 189.84 284.173 189.84 285.48V290.32C189.84 291.787 190.027 293.107 190.4 294.28C190.8 295.453 191.36 296.467 192.08 297.32C192.827 298.147 193.733 298.787 194.8 299.24C195.867 299.693 197.08 299.92 198.44 299.92C200.333 299.92 201.92 299.427 203.2 298.44C204.48 297.453 205.413 296.2 206 294.68L207.56 295.44C207.32 296.213 206.933 297.013 206.4 297.84C205.867 298.667 205.187 299.427 204.36 300.12C203.56 300.813 202.6 301.387 201.48 301.84C200.36 302.267 199.093 302.48 197.68 302.48ZM213.735 302.48C212.962 302.48 212.348 302.253 211.895 301.8C211.468 301.32 211.255 300.747 211.255 300.08V299.84C211.255 299.173 211.468 298.613 211.895 298.16C212.348 297.68 212.962 297.44 213.735 297.44C214.508 297.44 215.108 297.68 215.535 298.16C215.988 298.613 216.215 299.173 216.215 299.84V300.08C216.215 300.747 215.988 301.32 215.535 301.8C215.108 302.253 214.508 302.48 213.735 302.48ZM221.278 300.16H224.278V275.92H221.278V274.08H228.038L243.038 296.48H243.198V275.92H240.198V274.08H248.398V275.92H245.398V302H242.718L226.638 277.96H226.478V300.16H229.478V302H221.278V300.16ZM253.969 302.48C253.196 302.48 252.583 302.253 252.129 301.8C251.703 301.32 251.489 300.747 251.489 300.08V299.84C251.489 299.173 251.703 298.613 252.129 298.16C252.583 297.68 253.196 297.44 253.969 297.44C254.743 297.44 255.343 297.68 255.769 298.16C256.223 298.613 256.449 299.173 256.449 299.84V300.08C256.449 300.747 256.223 301.32 255.769 301.8C255.343 302.253 254.743 302.48 253.969 302.48ZM261.513 300.16H264.513V275.92H261.513V274.08H268.553L276.713 291.36H276.833L285.393 274.08H291.993V275.92H288.993V300.16H291.993V302H282.553V300.16H285.553V278.12H285.393L283.633 282L275.953 297.32L269.113 283L266.873 278.12H266.713V300.16H269.713V302H261.513V300.16ZM299.555 302.48C298.782 302.48 298.169 302.253 297.715 301.8C297.289 301.32 297.075 300.747 297.075 300.08V299.84C297.075 299.173 297.289 298.613 297.715 298.16C298.169 297.68 298.782 297.44 299.555 297.44C300.329 297.44 300.929 297.68 301.355 298.16C301.809 298.613 302.035 299.173 302.035 299.84V300.08C302.035 300.747 301.809 301.32 301.355 301.8C300.929 302.253 300.329 302.48 299.555 302.48ZM307.098 300.16H310.098V275.92H307.098V274.08H316.538V275.92H313.538V300.16H316.538V302H307.098V300.16ZM324.087 302.48C323.313 302.48 322.7 302.253 322.247 301.8C321.82 301.32 321.607 300.747 321.607 300.08V299.84C321.607 299.173 321.82 298.613 322.247 298.16C322.7 297.68 323.313 297.44 324.087 297.44C324.86 297.44 325.46 297.68 325.887 298.16C326.34 298.613 326.567 299.173 326.567 299.84V300.08C326.567 300.747 326.34 301.32 325.887 301.8C325.46 302.253 324.86 302.48 324.087 302.48ZM341.367 288.4H351.807V291.2H341.367V288.4ZM378.727 302.48C376.913 302.48 375.353 302.28 374.047 301.88C372.767 301.48 371.713 300.827 370.887 299.92C370.06 299.013 369.46 297.853 369.087 296.44C368.713 295.027 368.527 293.293 368.527 291.24V275.92H365.527V274.08H374.967V275.92H371.967V291.88C371.967 293.293 372.087 294.52 372.327 295.56C372.567 296.6 372.953 297.467 373.487 298.16C374.047 298.827 374.767 299.333 375.647 299.68C376.527 300.027 377.62 300.2 378.927 300.2C381.54 300.2 383.393 299.52 384.487 298.16C385.58 296.773 386.127 294.68 386.127 291.88V275.92H383.127V274.08H391.327V275.92H388.327V290.72C388.327 292.747 388.167 294.507 387.847 296C387.527 297.467 386.98 298.68 386.207 299.64C385.46 300.6 384.473 301.32 383.247 301.8C382.02 302.253 380.513 302.48 378.727 302.48ZM396.508 302.48C395.735 302.48 395.122 302.253 394.668 301.8C394.242 301.32 394.028 300.747 394.028 300.08V299.84C394.028 299.173 394.242 298.613 394.668 298.16C395.122 297.68 395.735 297.44 396.508 297.44C397.282 297.44 397.882 297.68 398.308 298.16C398.762 298.613 398.988 299.173 398.988 299.84V300.08C398.988 300.747 398.762 301.32 398.308 301.8C397.882 302.253 397.282 302.48 396.508 302.48ZM413.652 302.48C411.972 302.48 410.598 302.227 409.532 301.72C408.492 301.187 407.758 300.48 407.332 299.6H407.132V302H404.252V293.8H407.132V295.64C407.132 296.307 407.225 296.933 407.412 297.52C407.625 298.08 407.958 298.573 408.412 299C408.892 299.427 409.505 299.76 410.252 300C411.025 300.24 411.958 300.36 413.052 300.36C415.372 300.36 417.038 299.867 418.052 298.88C419.092 297.893 419.612 296.573 419.612 294.92C419.612 293.507 419.212 292.4 418.412 291.6C417.638 290.8 416.412 290.173 414.732 289.72L412.532 289.16C410.052 288.52 408.132 287.56 406.772 286.28C405.412 285 404.732 283.24 404.732 281C404.732 279.88 404.945 278.867 405.372 277.96C405.798 277.027 406.398 276.24 407.172 275.6C407.945 274.96 408.865 274.467 409.932 274.12C411.025 273.773 412.225 273.6 413.532 273.6C415.052 273.6 416.292 273.84 417.252 274.32C418.238 274.773 418.932 275.413 419.332 276.24H419.572V274.08H422.452V281.88H419.572V280.04C419.572 279.373 419.465 278.773 419.252 278.24C419.065 277.707 418.732 277.253 418.252 276.88C417.772 276.507 417.145 276.227 416.372 276.04C415.598 275.827 414.652 275.72 413.532 275.72C411.665 275.72 410.265 276.147 409.332 277C408.398 277.853 407.932 278.973 407.932 280.36C407.932 281.8 408.345 282.933 409.172 283.76C410.025 284.56 411.358 285.2 413.172 285.68L415.212 286.2C417.638 286.84 419.505 287.8 420.812 289.08C422.118 290.36 422.772 292.04 422.772 294.12C422.772 295.32 422.572 296.44 422.172 297.48C421.772 298.493 421.185 299.373 420.412 300.12C419.638 300.867 418.678 301.453 417.532 301.88C416.412 302.28 415.118 302.48 413.652 302.48ZM430.727 302.48C429.954 302.48 429.341 302.253 428.887 301.8C428.461 301.32 428.247 300.747 428.247 300.08V299.84C428.247 299.173 428.461 298.613 428.887 298.16C429.341 297.68 429.954 297.44 430.727 297.44C431.501 297.44 432.101 297.68 432.527 298.16C432.981 298.613 433.207 299.173 433.207 299.84V300.08C433.207 300.747 432.981 301.32 432.527 301.8C432.101 302.253 431.501 302.48 430.727 302.48ZM437.296 300.16H439.416L448.496 274.08H452.296L461.336 300.16H463.456V302H454.016V300.16H457.616L455.136 292.92H444.256L441.776 300.16H445.376V302H437.296V300.16ZM444.816 291H454.536L449.856 277H449.616L444.816 291Z" fill="#0E4BCB"/>
<path d="M324.5 147.854L333.064 174.212L333.401 175.249H334.491L362.205 175.249L339.784 191.539L338.902 192.18L339.239 193.216L347.803 219.574L325.382 203.284L324.5 202.643L323.618 203.284L301.197 219.574L309.761 193.216L310.098 192.18L309.216 191.539L286.795 175.249L314.509 175.249H315.599L315.936 174.212L324.5 147.854Z" fill="white" stroke="#1E1F6F" stroke-width="3"/>
<circle cx="325" cy="178" r="88" stroke="#1E1F6F" stroke-width="2"/>
<circle cx="325.5" cy="178.5" r="73.5" stroke="#1E1F6F" stroke-width="2"/>
</svg>
