<svg width="649" height="348" viewBox="0 0 649 348" fill="none" xmlns="http://www.w3.org/2000/svg">
<rect width="649" height="348" rx="41" fill="#F4F4F4"/>
<path d="M371.621 61.4423C340.187 67.7512 307.813 67.7512 276.379 61.4423L40 14L608 14L371.621 61.4423Z" fill="#ED364A"/>
<path d="M255.5 37.65C255.5 35.1167 255.983 32.7167 256.95 30.45C257.917 28.1833 259.25 26.1833 260.95 24.45C262.683 22.6833 264.683 21.3 266.95 20.3C269.217 19.3 271.65 18.8 274.25 18.8C276.817 18.8 279.233 19.3 281.5 20.3C283.767 21.3 285.767 22.6833 287.5 24.45C289.267 26.1833 290.633 28.1833 291.6 30.45C292.6 32.7167 293.1 35.1167 293.1 37.65C293.1 40.25 292.6 42.6833 291.6 44.95C290.633 47.2167 289.267 49.2167 287.5 50.95C285.767 52.65 283.767 53.9833 281.5 54.95C279.233 55.9167 276.817 56.4 274.25 56.4C271.65 56.4 269.217 55.9167 266.95 54.95C264.683 53.9833 262.683 52.65 260.95 50.95C259.25 49.2167 257.917 47.2167 256.95 44.95C255.983 42.6833 255.5 40.25 255.5 37.65ZM263 37.65C263 39.2833 263.283 40.8167 263.85 42.25C264.45 43.65 265.267 44.9 266.3 46C267.367 47.0667 268.583 47.9 269.95 48.5C271.35 49.1 272.867 49.4 274.5 49.4C276.067 49.4 277.517 49.1 278.85 48.5C280.217 47.9 281.4 47.0667 282.4 46C283.4 44.9 284.183 43.65 284.75 42.25C285.317 40.8167 285.6 39.2833 285.6 37.65C285.6 35.9833 285.3 34.4333 284.7 33C284.133 31.5667 283.333 30.3167 282.3 29.25C281.3 28.15 280.117 27.3 278.75 26.7C277.383 26.1 275.9 25.8 274.3 25.8C272.7 25.8 271.217 26.1 269.85 26.7C268.483 27.3 267.283 28.15 266.25 29.25C265.217 30.3167 264.417 31.5667 263.85 33C263.283 34.4333 263 35.9833 263 37.65ZM331.278 19.2V56H324.028V41.05H307.578V56H300.328V19.2H307.578V34.05H324.028V19.2H331.278ZM340.758 19.2H348.008V56H340.758V19.2ZM355.256 37.65C355.256 35.1167 355.739 32.7167 356.706 30.45C357.673 28.1833 359.006 26.1833 360.706 24.45C362.439 22.6833 364.439 21.3 366.706 20.3C368.973 19.3 371.406 18.8 374.006 18.8C376.573 18.8 378.989 19.3 381.256 20.3C383.523 21.3 385.523 22.6833 387.256 24.45C389.023 26.1833 390.389 28.1833 391.356 30.45C392.356 32.7167 392.856 35.1167 392.856 37.65C392.856 40.25 392.356 42.6833 391.356 44.95C390.389 47.2167 389.023 49.2167 387.256 50.95C385.523 52.65 383.523 53.9833 381.256 54.95C378.989 55.9167 376.573 56.4 374.006 56.4C371.406 56.4 368.973 55.9167 366.706 54.95C364.439 53.9833 362.439 52.65 360.706 50.95C359.006 49.2167 357.673 47.2167 356.706 44.95C355.739 42.6833 355.256 40.25 355.256 37.65ZM362.756 37.65C362.756 39.2833 363.039 40.8167 363.606 42.25C364.206 43.65 365.023 44.9 366.056 46C367.123 47.0667 368.339 47.9 369.706 48.5C371.106 49.1 372.623 49.4 374.256 49.4C375.823 49.4 377.273 49.1 378.606 48.5C379.973 47.9 381.156 47.0667 382.156 46C383.156 44.9 383.939 43.65 384.506 42.25C385.073 40.8167 385.356 39.2833 385.356 37.65C385.356 35.9833 385.056 34.4333 384.456 33C383.889 31.5667 383.089 30.3167 382.056 29.25C381.056 28.15 379.873 27.3 378.506 26.7C377.139 26.1 375.656 25.8 374.056 25.8C372.456 25.8 370.973 26.1 369.606 26.7C368.239 27.3 367.039 28.15 366.006 29.25C364.973 30.3167 364.173 31.5667 363.606 33C363.039 34.4333 362.756 35.9833 362.756 37.65Z" fill="white"/>
<rect x="21" y="15" width="606" height="317" rx="9" stroke="#ED364A" stroke-width="2"/>
<circle cx="274" cy="37" r="17" fill="white"/>
<path d="M262 45.8933V29.4667H270.065L271.26 30.9333L273.052 31.8133H275.143L275.74 30.9333H278.13L280.221 30.0533L281.714 28.88L284.104 28H285V34.4533L284.403 37.0933L283.506 40.6133L281.714 43.5467L280.818 44.4267H278.13V45.8933L276.935 46.48L275.74 47.6533V50H274.545L273.649 49.12L271.857 48.24H270.065H267.377L265.584 47.6533L264.39 45.8933H262Z" fill="#ED364A"/>
</svg>
