<svg width="649" height="348" viewBox="0 0 649 348" fill="none" xmlns="http://www.w3.org/2000/svg">
<rect width="649" height="348" rx="41" fill="url(#paint0_linear_1063_271)"/>
<path fill-rule="evenodd" clip-rule="evenodd" d="M285.603 0C270.396 21.1725 248.513 78.6545 270 160C175.833 168.917 65.3814 158.496 0 151.789V166.196C12.9804 168.087 25.7409 169.437 34.841 170.399C46.2654 171.607 51.9208 172.205 44.9999 172.5C36.2695 172.872 18.8627 172.97 0 172.935V187.343C48.1256 186.25 100.314 185.935 107 189C112.566 191.551 86.3949 194.64 57.7801 198.018C35.2869 200.673 11.2838 203.506 0 206.397V213.468C32.4939 226.698 101.376 217.061 107 210.5C110.323 206.623 119.781 212.869 129.003 218.959C136.432 223.865 143.708 228.669 147.5 228C152.291 227.155 151.363 231.074 150.537 234.567C149.897 237.271 149.318 239.718 151.5 239.5C155.5 239.1 161.167 239.333 163.5 239.5V268L159 275.5L53.3278 348H81.8333L129.5 322L97.197 348H139.583L174 322L297.5 199H308.5C305.5 321.5 383.5 330 478.5 325C490.351 325 498.024 330.013 502.873 333.18C506.411 335.492 508.445 336.82 509.5 334.5C510.785 331.673 508.635 327.789 507.329 325.428C506.094 323.197 505.612 322.327 509.5 325C517.5 330.5 561.5 344.5 551 330.5C546.513 324.517 558.646 327.392 572.256 330.617C590.494 334.938 611.384 339.889 598.5 325C588.81 313.802 613.435 320.319 641.939 330.01C643.523 327.679 644.873 325.175 645.955 322.534C572.365 279.902 492.547 214.07 478.5 193C471.855 193 464.289 195.453 456.228 198.068C449.733 200.174 442.916 202.384 436 203.5C434.301 198.404 475.301 175.537 504.586 159.204C518.405 151.496 529.615 145.244 532.5 143C539.7 137.4 544.5 133 546 131.5L587 124.5C589.833 122.833 593.8 119.2 587 118C586.201 117.859 585.318 117.727 584.359 117.583C575.108 116.198 558.714 113.744 541.5 92C526.5 77.5 469 86.5 450.5 97.5C435.454 106.446 445.213 79.0119 451.264 62.0008C452.653 58.0959 453.847 54.7403 454.5 52.5C457.3 42.9 459 27.1667 459.5 20.5L421.305 0H285.603Z" fill="white"/>
<path d="M145.9 47.714C145.9 44.7753 146.461 41.9913 147.582 39.362C148.703 36.7327 150.25 34.4127 152.222 32.402C154.233 30.3527 156.553 28.748 159.182 27.588C161.811 26.428 164.634 25.848 167.65 25.848C170.627 25.848 173.431 26.428 176.06 27.588C178.689 28.748 181.009 30.3527 183.02 32.402C185.069 34.4127 186.655 36.7327 187.776 39.362C188.936 41.9913 189.516 44.7753 189.516 47.714C189.516 50.73 188.936 53.5527 187.776 56.182C186.655 58.8113 185.069 61.1313 183.02 63.142C181.009 65.114 178.689 66.6607 176.06 67.782C173.431 68.9033 170.627 69.464 167.65 69.464C164.634 69.464 161.811 68.9033 159.182 67.782C156.553 66.6607 154.233 65.114 152.222 63.142C150.25 61.1313 148.703 58.8113 147.582 56.182C146.461 53.5527 145.9 50.73 145.9 47.714ZM154.6 47.714C154.6 49.6087 154.929 51.3873 155.586 53.05C156.282 54.674 157.229 56.124 158.428 57.4C159.665 58.6373 161.077 59.604 162.662 60.3C164.286 60.996 166.045 61.344 167.94 61.344C169.757 61.344 171.439 60.996 172.986 60.3C174.571 59.604 175.944 58.6373 177.104 57.4C178.264 56.124 179.173 54.674 179.83 53.05C180.487 51.3873 180.816 49.6087 180.816 47.714C180.816 45.7807 180.468 43.9827 179.772 42.32C179.115 40.6573 178.187 39.2073 176.988 37.97C175.828 36.694 174.455 35.708 172.87 35.012C171.285 34.316 169.564 33.968 167.708 33.968C165.852 33.968 164.131 34.316 162.546 35.012C160.961 35.708 159.569 36.694 158.37 37.97C157.171 39.2073 156.243 40.6573 155.586 42.32C154.929 43.9827 154.6 45.7807 154.6 47.714ZM206.427 41.508L206.195 43.654L207.471 42.03L221.391 26.312H232.295L214.663 45.452L232.353 69H221.681L208.515 50.788L206.427 52.876V69H197.901V26.312H206.427V41.508ZM238.739 26.312H247.149V60.88H267.217V69H238.739V26.312ZM271.081 69L290.337 24.63H290.801L310.057 69H300.313L288.017 37.796L294.107 33.62L279.375 69H271.081ZM284.247 53.572H297.065L300.023 60.648H281.637L284.247 53.572ZM352.182 26.312V69H343.772V51.658H324.69V69H316.28V26.312H324.69V43.538H343.772V26.312H352.182ZM360.568 47.714C360.568 44.7753 361.129 41.9913 362.25 39.362C363.371 36.7327 364.918 34.4127 366.89 32.402C368.901 30.3527 371.221 28.748 373.85 27.588C376.479 26.428 379.302 25.848 382.318 25.848C385.295 25.848 388.099 26.428 390.728 27.588C393.357 28.748 395.677 30.3527 397.688 32.402C399.737 34.4127 401.323 36.7327 402.444 39.362C403.604 41.9913 404.184 44.7753 404.184 47.714C404.184 50.73 403.604 53.5527 402.444 56.182C401.323 58.8113 399.737 61.1313 397.688 63.142C395.677 65.114 393.357 66.6607 390.728 67.782C388.099 68.9033 385.295 69.464 382.318 69.464C379.302 69.464 376.479 68.9033 373.85 67.782C371.221 66.6607 368.901 65.114 366.89 63.142C364.918 61.1313 363.371 58.8113 362.25 56.182C361.129 53.5527 360.568 50.73 360.568 47.714ZM369.268 47.714C369.268 49.6087 369.597 51.3873 370.254 53.05C370.95 54.674 371.897 56.124 373.096 57.4C374.333 58.6373 375.745 59.604 377.33 60.3C378.954 60.996 380.713 61.344 382.608 61.344C384.425 61.344 386.107 60.996 387.654 60.3C389.239 59.604 390.612 58.6373 391.772 57.4C392.932 56.124 393.841 54.674 394.498 53.05C395.155 51.3873 395.484 49.6087 395.484 47.714C395.484 45.7807 395.136 43.9827 394.44 42.32C393.783 40.6573 392.855 39.2073 391.656 37.97C390.496 36.694 389.123 35.708 387.538 35.012C385.953 34.316 384.232 33.968 382.376 33.968C380.52 33.968 378.799 34.316 377.214 35.012C375.629 35.708 374.237 36.694 373.038 37.97C371.839 39.2073 370.911 40.6573 370.254 42.32C369.597 43.9827 369.268 45.7807 369.268 47.714ZM412.569 69V24.572H412.627L436.349 58.212L432.753 57.4L456.417 24.572H456.533V69H448.123V43.538L448.645 47.888L434.203 68.42H434.087L419.239 47.888L420.689 43.886V69H412.569ZM462.753 69L482.009 24.63H482.473L501.729 69H491.985L479.689 37.796L485.779 33.62L471.047 69H462.753ZM475.919 53.572H488.737L491.695 60.648H473.309L475.919 53.572Z" fill="black"/>
<defs>
<linearGradient id="paint0_linear_1063_271" x1="324.5" y1="0" x2="324.5" y2="348" gradientUnits="userSpaceOnUse">
<stop stop-color="#7CA4C0"/>
<stop offset="0.244692" stop-color="#7AA3BF"/>
<stop offset="0.244792" stop-color="#5A98B7" stop-opacity="0.964286"/>
<stop offset="0.364583" stop-color="#5799B6"/>
<stop offset="0.401042" stop-color="#4089B1"/>
<stop offset="1" stop-color="#4195C4"/>
</linearGradient>
</defs>
</svg>
