<svg width="659" height="353" viewBox="0 0 659 353" fill="none" xmlns="http://www.w3.org/2000/svg">
<rect x="5" width="649" height="348" rx="41" fill="url(#paint0_linear_1065_281)"/>
<path fill-rule="evenodd" clip-rule="evenodd" d="M654 124.975V307C654 329.644 635.644 348 613 348H46C23.3563 348 5 329.644 5 307V143.35L6.2409 141.962L24.514 116.27L40.1766 109.302L75.4175 63.1434H86.2943L138.938 27L182.01 43.9831L202.894 59.6597L239.005 70.5463L285.993 111.48L325.584 127.592L351.689 141.091L386.495 149.801L408.683 141.091L432.177 121.931L463.938 107.125L510.49 89.2712L538.335 77.5137H552.257L563.134 80.9974L574.446 92.3194L604.901 108.867L654 124.975Z" fill="#D4DAF0"/>
<path d="M654 124.975H658.5V121.715L655.403 120.699L654 124.975ZM5 143.35L1.64508 140.351L0.5 141.632V143.35H5ZM6.2409 141.962L9.59582 144.961L9.76279 144.774L9.908 144.57L6.2409 141.962ZM24.514 116.27L22.685 112.158L21.5603 112.659L20.8469 113.662L24.514 116.27ZM40.1766 109.302L42.0056 113.414L43.0558 112.947L43.7533 112.033L40.1766 109.302ZM75.4175 63.1434V58.6434H73.1915L71.8407 60.4127L75.4175 63.1434ZM86.2943 63.1434V67.6434H87.6904L88.8413 66.8532L86.2943 63.1434ZM138.938 27L140.589 22.8137L138.363 21.9362L136.391 23.2902L138.938 27ZM182.01 43.9831L184.712 40.3842L184.226 40.0195L183.661 39.7967L182.01 43.9831ZM202.894 59.6597L200.192 63.2586L200.831 63.7378L201.595 63.9682L202.894 59.6597ZM239.005 70.5463L241.961 67.1532L241.231 66.5173L240.304 66.2378L239.005 70.5463ZM285.993 111.48L283.037 114.873L283.602 115.365L284.296 115.648L285.993 111.48ZM325.584 127.592L327.651 123.595L327.47 123.501L327.281 123.424L325.584 127.592ZM351.689 141.091L349.622 145.088L350.088 145.329L350.596 145.457L351.689 141.091ZM386.495 149.801L385.402 154.166L386.799 154.515L388.139 153.989L386.495 149.801ZM408.683 141.091L410.327 145.28L410.982 145.023L411.527 144.579L408.683 141.091ZM432.177 121.931L430.276 117.852L429.768 118.089L429.333 118.444L432.177 121.931ZM463.938 107.125L462.326 102.924L462.179 102.98L462.036 103.047L463.938 107.125ZM510.49 89.2712L512.102 93.4728L512.172 93.4459L512.241 93.4168L510.49 89.2712ZM538.335 77.5137V73.0137H537.424L536.584 73.3681L538.335 77.5137ZM552.257 77.5137L553.63 73.2281L552.96 73.0137H552.257V77.5137ZM563.134 80.9974L566.318 77.8168L565.546 77.0447L564.507 76.7118L563.134 80.9974ZM574.446 92.3194L571.263 95.5L571.724 95.9618L572.298 96.2735L574.446 92.3194ZM604.901 108.867L602.753 112.821L603.111 113.016L603.498 113.143L604.901 108.867ZM649.5 124.975V307H658.5V124.975H649.5ZM649.5 307C649.5 327.158 633.158 343.5 613 343.5V352.5C638.129 352.5 658.5 332.129 658.5 307H649.5ZM613 343.5H46V352.5H613V343.5ZM46 343.5C25.8416 343.5 9.5 327.158 9.5 307H0.5C0.5 332.129 20.8711 352.5 46 352.5V343.5ZM9.5 307V143.35H0.5V307H9.5ZM2.88598 138.963L1.64508 140.351L8.35492 146.349L9.59582 144.961L2.88598 138.963ZM20.8469 113.662L2.5738 139.354L9.908 144.57L28.1811 118.878L20.8469 113.662ZM38.3476 105.191L22.685 112.158L26.3429 120.381L42.0056 113.414L38.3476 105.191ZM71.8407 60.4127L36.5998 106.572L43.7533 112.033L78.9942 65.8741L71.8407 60.4127ZM86.2943 58.6434H75.4175V67.6434H86.2943V58.6434ZM136.391 23.2902L83.7473 59.4336L88.8413 66.8532L141.485 30.7098L136.391 23.2902ZM183.661 39.7967L140.589 22.8137L137.287 31.1863L180.36 48.1694L183.661 39.7967ZM205.595 56.0609L184.712 40.3842L179.309 47.5819L200.192 63.2586L205.595 56.0609ZM240.304 66.2378L204.193 55.3512L201.595 63.9682L237.706 74.8547L240.304 66.2378ZM288.949 108.087L241.961 67.1532L236.049 73.9393L283.037 114.873L288.949 108.087ZM327.281 123.424L287.689 107.312L284.296 115.648L323.888 131.76L327.281 123.424ZM353.756 137.094L327.651 123.595L323.517 131.589L349.622 145.088L353.756 137.094ZM387.587 145.435L352.781 136.726L350.596 145.457L385.402 154.166L387.587 145.435ZM407.039 136.902L384.85 145.612L388.139 153.989L410.327 145.28L407.039 136.902ZM429.333 118.444L405.839 137.604L411.527 144.579L435.021 125.418L429.333 118.444ZM462.036 103.047L430.276 117.852L434.079 126.009L465.839 111.204L462.036 103.047ZM508.879 85.0696L462.326 102.924L465.549 111.327L512.102 93.4728L508.879 85.0696ZM536.584 73.3681L508.74 85.1256L512.241 93.4168L540.085 81.6593L536.584 73.3681ZM552.257 73.0137H538.335V82.0137H552.257V73.0137ZM564.507 76.7118L553.63 73.2281L550.885 81.7992L561.761 85.2829L564.507 76.7118ZM577.629 89.1389L566.318 77.8168L559.951 84.1779L571.263 95.5L577.629 89.1389ZM607.049 104.913L576.594 88.3654L572.298 96.2735L602.753 112.821L607.049 104.913ZM655.403 120.699L606.304 104.591L603.498 113.143L652.597 129.251L655.403 120.699Z" fill="white"/>
<mask id="path-4-outside-1_1065_281" maskUnits="userSpaceOnUse" x="246" y="29" width="167" height="315" fill="black">
<rect fill="white" x="246" y="29" width="167" height="315"/>
<path d="M320.869 326.569V339H342.452L341.131 331.453L339.369 318.134V303.927H342.452L348.179 306.147L355.226 312.362L363.155 313.25H369.321L373.726 316.802H380.774L386.06 322.129L392.667 315.914L387.821 314.138L383.417 309.698L382.095 307.034L376.81 303.927L370.202 303.039L366.679 299.931H357.429L349.5 301.707L345.095 299.043H341.131L339.369 297.267V291.496L344.214 289.276L350.821 287.5L353.464 289.276L357.429 290.164L366.679 295.047L369.321 293.716L375.929 297.267L380.774 292.828L385.179 295.047L390.024 296.379H395.31L402.357 297.267L401.036 293.716L405 290.164L402.357 287.5H396.19L392.667 286.168L385.179 282.616H378.571L376.81 272.405L374.607 273.737L366.679 271.073L361.393 269.297L356.107 272.405H350.821L345.976 271.073L339.369 267.522V263.082L340.25 257.754L343.774 255.978L346.857 256.866L349.5 260.418L350.821 264.414L355.226 266.19L357.429 264.414L360.512 261.306L365.357 261.75L368 259.53L369.321 256.866L370.643 253.759L373.726 248.431L378.571 247.543L384.298 237.776L387.381 232.448L381.214 227.565L373.726 224.013L381.214 217.353L382.976 213.802L377.69 209.362L370.643 210.694L366.679 207.586L353.905 204.922L360.071 201.815L361.393 198.707L358.75 194.711L349.94 189.828L344.214 194.711L337.607 192.047V189.384L345.536 189.828L347.738 188.052L338.048 181.836V177.397L342.012 180.948H345.976H353.905V178.284L355.226 174.733H360.071L364.476 178.284L367.56 175.621L366.679 172.513L369.321 169.405L373.726 173.401H379.012L386.06 170.737L389.143 164.078L382.976 157.418L372.405 154.754L374.607 151.203L378.131 148.539L386.06 145.875L391.786 137.44L385.179 132.556L369.321 131.224L360.952 128.56L353.905 123.677L344.214 119.237V116.129L347.738 114.797H351.702L358.31 119.237L364.476 123.677L361.833 118.349L364.036 117.017L359.19 106.362L353.905 105.03L352.143 103.254V101.034L358.31 93.0431H351.702L346.417 89.9353L342.012 93.0431L336.726 89.9353V85.4957L335.845 75.7285L336.726 71.7328L338.929 67.2931L337.607 64.6293L336.726 61.5216V56.6379V51.7543V49.0905L339.81 46.8707L343.333 43.319H336.726L333.643 40.6552L331.881 30L330.56 38.4353V45.5388L324.833 53.5302L321.75 56.6379L323.952 57.9698V60.6336L327.917 63.2974V67.2931L324.833 70.4009L321.75 71.7328L317.345 68.625L314.702 71.7328L311.179 76.6164L313.381 75.7285H318.226L322.631 74.3966H329.679L330.56 85.4957L327.917 86.8276L325.274 87.7155L322.631 93.0431L317.345 89.9353L313.381 91.7112H306.333V94.375H303.25L301.929 97.9267L309.417 101.478L316.464 107.694L319.988 111.246H314.702H309.417V112.578L307.655 114.797L304.571 113.466L303.25 109.47H297.083V113.466V117.461L292.238 119.237L291.357 116.129L288.274 114.797L282.988 121.013L286.512 124.121L292.238 125.009L295.762 126.784L298.845 124.121L304.571 126.784L311.179 125.453L313.381 121.013L319.988 122.345L323.952 118.349L329.679 117.461L330.56 131.224L324.833 134.332L321.75 133.888L316.464 136.552L313.381 133.888L306.333 131.224L298.845 133.888L294.881 137.884H284.31L279.464 140.547L282.107 145.875H288.274L294.881 148.983L298.845 144.099L304.571 141.879H311.179L316.464 144.987L319.107 147.651H322.631L325.274 144.987L327.917 145.875V155.642L323.952 158.306L321.75 156.53L317.345 161.414L313.381 163.634L303.25 161.414H293.56L286.512 162.302L288.274 168.073L293.56 169.849L291.357 175.177L284.31 176.953V182.28L285.631 186.72V192.491L287.393 193.823L294.881 190.272L300.167 191.159V196.043L304.131 193.823L309.417 196.043L308.095 198.263L300.167 200.039H294.881L288.274 202.703L282.548 209.362L293.56 216.022H298.405L302.369 213.358L304.131 216.022H308.095L315.143 209.806L319.107 210.694L323.071 209.362V219.129L320.869 216.022L316.024 219.573L311.179 220.461L304.131 224.901V228.453H316.024L305.452 232.448L296.643 237.332L284.31 235.556L277.262 240.44L284.31 246.655L282.548 252.871L290.476 259.53L297.524 255.534L296.643 264.414L298.405 265.302L304.131 266.19L305.452 262.638L306.333 260.418H309.857L312.94 261.75L314.702 264.414H317.345V260.418L319.107 257.754L322.631 256.866V272.405L316.024 275.957L306.333 275.069L298.405 279.065L290.476 284.392H282.548L264.488 276.845V284.392L257 287.944L264.488 292.828L280.345 295.935L275.5 304.815H285.631L303.25 308.366L312.06 298.155L312.94 292.828H322.631L321.75 316.802L308.976 318.134L301.929 312.806L289.155 318.134L300.607 315.47L303.25 323.017L312.06 324.793L320.869 326.569Z"/>
</mask>
<path d="M320.869 326.569V339H342.452L341.131 331.453L339.369 318.134V303.927H342.452L348.179 306.147L355.226 312.362L363.155 313.25H369.321L373.726 316.802H380.774L386.06 322.129L392.667 315.914L387.821 314.138L383.417 309.698L382.095 307.034L376.81 303.927L370.202 303.039L366.679 299.931H357.429L349.5 301.707L345.095 299.043H341.131L339.369 297.267V291.496L344.214 289.276L350.821 287.5L353.464 289.276L357.429 290.164L366.679 295.047L369.321 293.716L375.929 297.267L380.774 292.828L385.179 295.047L390.024 296.379H395.31L402.357 297.267L401.036 293.716L405 290.164L402.357 287.5H396.19L392.667 286.168L385.179 282.616H378.571L376.81 272.405L374.607 273.737L366.679 271.073L361.393 269.297L356.107 272.405H350.821L345.976 271.073L339.369 267.522V263.082L340.25 257.754L343.774 255.978L346.857 256.866L349.5 260.418L350.821 264.414L355.226 266.19L357.429 264.414L360.512 261.306L365.357 261.75L368 259.53L369.321 256.866L370.643 253.759L373.726 248.431L378.571 247.543L384.298 237.776L387.381 232.448L381.214 227.565L373.726 224.013L381.214 217.353L382.976 213.802L377.69 209.362L370.643 210.694L366.679 207.586L353.905 204.922L360.071 201.815L361.393 198.707L358.75 194.711L349.94 189.828L344.214 194.711L337.607 192.047V189.384L345.536 189.828L347.738 188.052L338.048 181.836V177.397L342.012 180.948H345.976H353.905V178.284L355.226 174.733H360.071L364.476 178.284L367.56 175.621L366.679 172.513L369.321 169.405L373.726 173.401H379.012L386.06 170.737L389.143 164.078L382.976 157.418L372.405 154.754L374.607 151.203L378.131 148.539L386.06 145.875L391.786 137.44L385.179 132.556L369.321 131.224L360.952 128.56L353.905 123.677L344.214 119.237V116.129L347.738 114.797H351.702L358.31 119.237L364.476 123.677L361.833 118.349L364.036 117.017L359.19 106.362L353.905 105.03L352.143 103.254V101.034L358.31 93.0431H351.702L346.417 89.9353L342.012 93.0431L336.726 89.9353V85.4957L335.845 75.7285L336.726 71.7328L338.929 67.2931L337.607 64.6293L336.726 61.5216V56.6379V51.7543V49.0905L339.81 46.8707L343.333 43.319H336.726L333.643 40.6552L331.881 30L330.56 38.4353V45.5388L324.833 53.5302L321.75 56.6379L323.952 57.9698V60.6336L327.917 63.2974V67.2931L324.833 70.4009L321.75 71.7328L317.345 68.625L314.702 71.7328L311.179 76.6164L313.381 75.7285H318.226L322.631 74.3966H329.679L330.56 85.4957L327.917 86.8276L325.274 87.7155L322.631 93.0431L317.345 89.9353L313.381 91.7112H306.333V94.375H303.25L301.929 97.9267L309.417 101.478L316.464 107.694L319.988 111.246H314.702H309.417V112.578L307.655 114.797L304.571 113.466L303.25 109.47H297.083V113.466V117.461L292.238 119.237L291.357 116.129L288.274 114.797L282.988 121.013L286.512 124.121L292.238 125.009L295.762 126.784L298.845 124.121L304.571 126.784L311.179 125.453L313.381 121.013L319.988 122.345L323.952 118.349L329.679 117.461L330.56 131.224L324.833 134.332L321.75 133.888L316.464 136.552L313.381 133.888L306.333 131.224L298.845 133.888L294.881 137.884H284.31L279.464 140.547L282.107 145.875H288.274L294.881 148.983L298.845 144.099L304.571 141.879H311.179L316.464 144.987L319.107 147.651H322.631L325.274 144.987L327.917 145.875V155.642L323.952 158.306L321.75 156.53L317.345 161.414L313.381 163.634L303.25 161.414H293.56L286.512 162.302L288.274 168.073L293.56 169.849L291.357 175.177L284.31 176.953V182.28L285.631 186.72V192.491L287.393 193.823L294.881 190.272L300.167 191.159V196.043L304.131 193.823L309.417 196.043L308.095 198.263L300.167 200.039H294.881L288.274 202.703L282.548 209.362L293.56 216.022H298.405L302.369 213.358L304.131 216.022H308.095L315.143 209.806L319.107 210.694L323.071 209.362V219.129L320.869 216.022L316.024 219.573L311.179 220.461L304.131 224.901V228.453H316.024L305.452 232.448L296.643 237.332L284.31 235.556L277.262 240.44L284.31 246.655L282.548 252.871L290.476 259.53L297.524 255.534L296.643 264.414L298.405 265.302L304.131 266.19L305.452 262.638L306.333 260.418H309.857L312.94 261.75L314.702 264.414H317.345V260.418L319.107 257.754L322.631 256.866V272.405L316.024 275.957L306.333 275.069L298.405 279.065L290.476 284.392H282.548L264.488 276.845V284.392L257 287.944L264.488 292.828L280.345 295.935L275.5 304.815H285.631L303.25 308.366L312.06 298.155L312.94 292.828H322.631L321.75 316.802L308.976 318.134L301.929 312.806L289.155 318.134L300.607 315.47L303.25 323.017L312.06 324.793L320.869 326.569Z" fill="#78D8CF"/>
<path d="M320.869 326.569V339H342.452L341.131 331.453L339.369 318.134V303.927H342.452L348.179 306.147L355.226 312.362L363.155 313.25H369.321L373.726 316.802H380.774L386.06 322.129L392.667 315.914L387.821 314.138L383.417 309.698L382.095 307.034L376.81 303.927L370.202 303.039L366.679 299.931H357.429L349.5 301.707L345.095 299.043H341.131L339.369 297.267V291.496L344.214 289.276L350.821 287.5L353.464 289.276L357.429 290.164L366.679 295.047L369.321 293.716L375.929 297.267L380.774 292.828L385.179 295.047L390.024 296.379H395.31L402.357 297.267L401.036 293.716L405 290.164L402.357 287.5H396.19L392.667 286.168L385.179 282.616H378.571L376.81 272.405L374.607 273.737L366.679 271.073L361.393 269.297L356.107 272.405H350.821L345.976 271.073L339.369 267.522V263.082L340.25 257.754L343.774 255.978L346.857 256.866L349.5 260.418L350.821 264.414L355.226 266.19L357.429 264.414L360.512 261.306L365.357 261.75L368 259.53L369.321 256.866L370.643 253.759L373.726 248.431L378.571 247.543L384.298 237.776L387.381 232.448L381.214 227.565L373.726 224.013L381.214 217.353L382.976 213.802L377.69 209.362L370.643 210.694L366.679 207.586L353.905 204.922L360.071 201.815L361.393 198.707L358.75 194.711L349.94 189.828L344.214 194.711L337.607 192.047V189.384L345.536 189.828L347.738 188.052L338.048 181.836V177.397L342.012 180.948H345.976H353.905V178.284L355.226 174.733H360.071L364.476 178.284L367.56 175.621L366.679 172.513L369.321 169.405L373.726 173.401H379.012L386.06 170.737L389.143 164.078L382.976 157.418L372.405 154.754L374.607 151.203L378.131 148.539L386.06 145.875L391.786 137.44L385.179 132.556L369.321 131.224L360.952 128.56L353.905 123.677L344.214 119.237V116.129L347.738 114.797H351.702L358.31 119.237L364.476 123.677L361.833 118.349L364.036 117.017L359.19 106.362L353.905 105.03L352.143 103.254V101.034L358.31 93.0431H351.702L346.417 89.9353L342.012 93.0431L336.726 89.9353V85.4957L335.845 75.7285L336.726 71.7328L338.929 67.2931L337.607 64.6293L336.726 61.5216V56.6379V51.7543V49.0905L339.81 46.8707L343.333 43.319H336.726L333.643 40.6552L331.881 30L330.56 38.4353V45.5388L324.833 53.5302L321.75 56.6379L323.952 57.9698V60.6336L327.917 63.2974V67.2931L324.833 70.4009L321.75 71.7328L317.345 68.625L314.702 71.7328L311.179 76.6164L313.381 75.7285H318.226L322.631 74.3966H329.679L330.56 85.4957L327.917 86.8276L325.274 87.7155L322.631 93.0431L317.345 89.9353L313.381 91.7112H306.333V94.375H303.25L301.929 97.9267L309.417 101.478L316.464 107.694L319.988 111.246H314.702H309.417V112.578L307.655 114.797L304.571 113.466L303.25 109.47H297.083V113.466V117.461L292.238 119.237L291.357 116.129L288.274 114.797L282.988 121.013L286.512 124.121L292.238 125.009L295.762 126.784L298.845 124.121L304.571 126.784L311.179 125.453L313.381 121.013L319.988 122.345L323.952 118.349L329.679 117.461L330.56 131.224L324.833 134.332L321.75 133.888L316.464 136.552L313.381 133.888L306.333 131.224L298.845 133.888L294.881 137.884H284.31L279.464 140.547L282.107 145.875H288.274L294.881 148.983L298.845 144.099L304.571 141.879H311.179L316.464 144.987L319.107 147.651H322.631L325.274 144.987L327.917 145.875V155.642L323.952 158.306L321.75 156.53L317.345 161.414L313.381 163.634L303.25 161.414H293.56L286.512 162.302L288.274 168.073L293.56 169.849L291.357 175.177L284.31 176.953V182.28L285.631 186.72V192.491L287.393 193.823L294.881 190.272L300.167 191.159V196.043L304.131 193.823L309.417 196.043L308.095 198.263L300.167 200.039H294.881L288.274 202.703L282.548 209.362L293.56 216.022H298.405L302.369 213.358L304.131 216.022H308.095L315.143 209.806L319.107 210.694L323.071 209.362V219.129L320.869 216.022L316.024 219.573L311.179 220.461L304.131 224.901V228.453H316.024L305.452 232.448L296.643 237.332L284.31 235.556L277.262 240.44L284.31 246.655L282.548 252.871L290.476 259.53L297.524 255.534L296.643 264.414L298.405 265.302L304.131 266.19L305.452 262.638L306.333 260.418H309.857L312.94 261.75L314.702 264.414H317.345V260.418L319.107 257.754L322.631 256.866V272.405L316.024 275.957L306.333 275.069L298.405 279.065L290.476 284.392H282.548L264.488 276.845V284.392L257 287.944L264.488 292.828L280.345 295.935L275.5 304.815H285.631L303.25 308.366L312.06 298.155L312.94 292.828H322.631L321.75 316.802L308.976 318.134L301.929 312.806L289.155 318.134L300.607 315.47L303.25 323.017L312.06 324.793L320.869 326.569Z" stroke="white" stroke-width="10" mask="url(#path-4-outside-1_1065_281)"/>
<path d="M258.007 40.7192V38.5928C258.007 36.4346 257.722 34.1706 257.15 31.8008C256.008 27.0824 253.998 23.8133 251.12 21.9937C249.829 21.1896 248.348 20.7876 246.677 20.7876H246.201C244.825 20.7876 243.418 21.2002 241.979 22.0254C239.187 23.6335 237.272 26.4688 236.235 30.5312C235.579 33.0703 235.251 35.5988 235.251 38.1167V39.1958C235.251 41.6714 235.568 44.1152 236.203 46.5273C237.473 51.2881 239.652 54.5889 242.741 56.4297C244.011 57.1914 245.323 57.5723 246.677 57.5723H247.629C249.068 57.5723 250.454 57.1597 251.787 56.3345C253.12 55.4881 254.209 54.3561 255.056 52.9385C257.023 49.6589 258.007 45.5858 258.007 40.7192ZM226.11 39.3545C226.11 35.9691 226.629 32.8376 227.666 29.96C229.676 24.3317 233.199 20.4279 238.234 18.2485C241.154 16.979 244.138 16.3442 247.185 16.3442L247.946 16.376H248.676C251.131 16.376 253.68 16.9367 256.325 18.0581C258.97 19.1795 261.223 20.777 263.085 22.8506C264.969 24.903 266.397 27.3045 267.37 30.0552C268.343 32.7847 268.83 35.5565 268.83 38.3706V39.1006C268.83 42.2956 268.291 45.353 267.211 48.2729C266.153 51.1717 264.619 53.6579 262.609 55.7314C258.547 59.9421 253.162 62.0579 246.455 62.0791C243.704 62.0791 241.049 61.5607 238.488 60.5239C235.949 59.466 233.823 57.9954 232.109 56.1123C228.11 51.6689 226.11 46.083 226.11 39.3545ZM286.963 33.2925C289.417 31.5998 291.512 30.7534 293.247 30.7534C294.982 30.7534 296.156 31.1237 296.77 31.8643C297.405 32.6048 297.722 33.4935 297.722 34.5303C297.722 35.5671 297.436 36.498 296.865 37.3232C296.315 38.1273 295.68 38.5293 294.961 38.5293C294.263 38.5293 293.289 38.2542 292.041 37.7041C290.793 37.154 289.83 36.8789 289.153 36.8789C288.476 36.8789 287.714 37.2386 286.868 37.958C286.021 38.6774 285.429 39.7036 285.09 41.0366C284.773 42.3696 284.614 44.4644 284.614 47.3208C284.614 50.1561 284.815 51.9969 285.217 52.8433C285.619 53.6685 286.444 54.7581 287.693 56.1123C288.941 57.4665 289.565 58.5773 289.565 59.4448C289.565 60.4604 287.111 60.9683 282.202 60.9683H279.473L278.806 60.9365C278.362 60.9154 277.907 60.9048 277.441 60.9048L276.775 60.873C276.33 60.8519 275.865 60.8413 275.378 60.8413C273.157 60.8413 272.046 60.3652 272.046 59.4131C272.046 58.4609 272.596 57.4982 273.696 56.5249C274.818 55.5516 275.495 54.6735 275.727 53.8906C275.981 53.1077 276.108 50.4206 276.108 45.8291C276.108 41.2376 275.96 38.487 275.664 37.5771C275.389 36.6673 274.701 35.895 273.601 35.2603C272.522 34.6043 271.982 33.9272 271.982 33.229C271.982 32.2557 272.712 31.568 274.172 31.166C276.373 30.5736 278.362 30.2773 280.139 30.2773C281.916 30.2773 283.112 30.4784 283.725 30.8804C283.979 31.0496 284.265 31.5892 284.582 32.499C284.921 33.4089 285.312 33.8638 285.757 33.8638C285.947 33.8638 286.349 33.6733 286.963 33.2925ZM314.458 33.9272H313.538C312.205 33.9272 310.925 34.6255 309.698 36.022C308.492 37.3973 307.888 39.0477 307.888 40.9731V41.481C307.888 42.2638 308.322 42.6553 309.19 42.6553L309.507 42.7188H311.761L311.919 42.687L317.22 42.3696C317.537 42.3062 317.748 42.2744 317.854 42.2744C318.933 42.2744 319.473 41.7137 319.473 40.5923V39.5449C319.473 38.1273 318.965 36.8366 317.95 35.6729C316.934 34.5091 315.77 33.9272 314.458 33.9272ZM308.269 49.0347C308.269 51.1506 309.264 52.9808 311.253 54.5254C312.734 55.6891 314.617 56.271 316.902 56.271C317.939 56.271 319.473 55.9748 321.504 55.3823C323.557 54.7899 324.742 54.4937 325.059 54.4937C326.011 54.4937 326.487 55.012 326.487 56.0488C326.487 57.276 325.218 58.5244 322.679 59.7939C320.161 61.0423 317.547 61.6665 314.839 61.6665H313.443C313.4 61.6665 313.347 61.6665 313.284 61.6665C311.57 61.6665 309.825 61.3174 308.047 60.6191C304.535 59.265 302.038 56.8952 300.557 53.5098C299.541 51.1823 299.033 48.9712 299.033 46.8765V45.4165C299.033 43.2795 299.404 41.2165 300.144 39.2275C301.541 35.4824 304.006 32.7847 307.539 31.1343C309.655 30.161 311.877 29.6743 314.204 29.6743H314.934C318.383 29.6743 321.293 30.7428 323.662 32.8799C324.911 34.0225 325.863 35.3978 326.519 37.0059C327.196 38.6139 327.534 40.2537 327.534 41.9253C327.534 43.5757 326.72 44.6654 325.091 45.1943C322.805 45.9349 318.574 46.3052 312.395 46.3052C310.745 46.3052 309.645 46.5168 309.095 46.9399C308.544 47.342 308.269 48.0402 308.269 49.0347ZM348.301 39.3228L348.238 38.2437C348.238 36.6144 347.794 35.2391 346.905 34.1177C346.037 32.9751 345.011 32.4038 343.826 32.4038H343.446C342.366 32.4038 341.414 33.028 340.589 34.2764C339.764 35.5036 339.351 36.9635 339.351 38.6562V40.2749C339.351 42.3062 339.827 44.0094 340.779 45.3848C341.753 46.7601 342.811 47.4478 343.953 47.4478H344.175C345.255 47.4478 346.196 46.9294 347 45.8926C347.825 44.8346 348.238 43.618 348.238 42.2427L348.27 42.0522L348.301 41.8301L348.333 41.1636V39.5449L348.301 39.3228ZM350.047 61.2856C349.031 61.1164 348.143 61.0317 347.381 61.0317L347.127 61L346.905 60.9683L345.477 60.873C345.307 60.8519 345.159 60.8413 345.032 60.8413L343.985 60.7461H343.287L343.065 60.7778L342.398 60.8096L341.541 60.9048C340.526 60.9048 339.605 61.3491 338.78 62.2378C337.955 63.1476 337.542 64.2267 337.542 65.4751V66.1416C337.542 67.4958 338.061 68.5326 339.097 69.252C340.155 69.9925 341.488 70.3628 343.096 70.3628H344.493C347.201 70.3628 349.571 69.6222 351.602 68.1411C352.872 67.2101 353.507 65.8983 353.507 64.2056L353.475 63.9834C353.475 63.3275 353.189 62.7139 352.618 62.1426C352.047 61.5713 351.19 61.2856 350.047 61.2856ZM360.838 30.9756C361.24 31.3776 361.441 32.0124 361.441 32.8799C361.441 33.7474 361.018 34.3716 360.172 34.7524C358.733 35.3872 357.971 35.7892 357.886 35.9585C357.633 36.4451 357.506 37.228 357.506 38.3071L357.537 39.1323C357.601 39.9998 357.633 40.6346 357.633 41.0366C357.633 42.4119 357.283 43.7555 356.585 45.0674C354.681 48.7067 351.168 50.8332 346.048 51.4468C343.784 51.7218 342.61 51.87 342.525 51.8911C341.192 52.3354 340.526 53.002 340.526 53.8906C340.526 54.6735 340.949 55.2131 341.795 55.5093C342.641 55.7843 344.98 56.0488 348.809 56.3027C352.66 56.5566 355.252 57.0433 356.585 57.7627C357.939 58.4821 358.913 59.3179 359.505 60.27C360.119 61.201 360.425 62.5129 360.425 64.2056C360.425 65.8983 359.939 67.4429 358.966 68.8394C356.977 71.6958 353.845 73.7165 349.571 74.9014C347.455 75.4938 345.255 75.79 342.969 75.79H341.986C338.092 75.79 335.109 75.0601 333.035 73.6001C330.983 72.1613 329.957 70.3945 329.957 68.2998C329.957 66.9033 330.412 65.5703 331.321 64.3008C331.491 64.068 331.935 63.5496 332.654 62.7456C333.395 61.9416 333.765 61.328 333.765 60.9048C333.765 60.8625 333.384 60.3123 332.623 59.2544C331.861 58.1753 331.48 57.0962 331.48 56.0171C331.48 54.938 332.051 53.6579 333.194 52.1768C334.337 50.6956 334.908 49.8599 334.908 49.6694C334.908 49.479 334.347 48.7702 333.226 47.543C332.126 46.2734 331.321 44.7288 330.814 42.9092C330.644 42.2956 330.56 41.6608 330.56 41.0049C330.56 40.9414 330.56 40.8674 330.56 40.7827C330.56 39.5767 330.803 38.36 331.29 37.1328C332.094 35.1016 333.395 33.5358 335.194 32.4355C337.669 30.891 340.547 30.1187 343.826 30.1187H344.779C344.948 30.1187 346.196 30.2033 348.524 30.3726L350.238 30.563C351.19 30.6688 351.74 30.7217 351.888 30.7217L358.775 30.3408C359.77 30.3408 360.457 30.5524 360.838 30.9756ZM378.939 33.8003H378.336C376.516 33.8003 375.025 34.8265 373.861 36.8789C372.718 38.9313 372.147 41.3857 372.147 44.2422V46.0195C372.147 49.2357 372.814 51.9546 374.147 54.1763C375.48 56.3979 377.077 57.5088 378.939 57.5088H379.542C381.171 57.5088 382.589 56.6836 383.795 55.0332C385.022 53.3617 385.636 51.14 385.636 48.3682L385.699 47.7017L385.731 46.3687V46.0195L385.699 45.6704V45.0039C385.657 44.5384 385.636 44.1999 385.636 43.9883C385.636 41.1742 384.969 38.7726 383.636 36.7837C382.303 34.7948 380.738 33.8003 378.939 33.8003ZM378.971 29.5791H380.558C382.441 29.5791 384.377 30.0234 386.366 30.9121C390.153 32.6048 392.756 35.3555 394.173 39.1641C394.893 41.1318 395.253 43.1419 395.253 45.1943V45.7656C395.253 47.9661 394.808 50.1243 393.92 52.2402C393.031 54.3561 391.835 56.1123 390.333 57.5088C387.202 60.3441 383.605 61.7617 379.542 61.7617C379.225 61.7617 378.907 61.7511 378.59 61.73C376.559 61.73 374.559 61.328 372.591 60.5239C370.645 59.6987 369.047 58.609 367.799 57.2549C365.112 54.2926 363.768 50.5793 363.768 46.1147V45.5752L363.8 45.0356C363.821 43.0679 364.191 41.1213 364.911 39.1958C366.307 35.5142 368.867 32.7952 372.591 31.0391C374.686 30.0658 376.813 29.5791 378.971 29.5791ZM434.459 58.7783C434.459 59.5612 433.814 60.1431 432.523 60.5239C431.254 60.8836 429.106 61.0635 426.081 61.0635C423.076 61.0635 421.278 60.8519 420.685 60.4287C420.093 60.0055 419.796 59.5083 419.796 58.937C419.796 58.3446 420.061 57.4559 420.59 56.271C421.14 55.0861 421.479 54.134 421.605 53.4146C421.732 52.6951 421.796 50.2619 421.796 46.1147C421.796 41.9676 421.436 39.1429 420.717 37.6406C420.019 36.1172 418.633 35.3555 416.559 35.3555C414.486 35.3555 412.803 36.2547 411.513 38.0532C410.645 39.2593 410.211 41.4704 410.211 44.6865C410.211 49.9974 410.698 53.8906 411.671 56.3662C412.264 57.805 412.56 58.736 412.56 59.1592C412.56 59.9632 412.073 60.471 411.1 60.6826C410.127 60.873 408.011 60.9683 404.752 60.9683C401.515 60.9683 399.558 60.7567 398.881 60.3335C398.204 59.8892 397.865 59.2967 397.865 58.5562C397.865 57.8156 398.426 57.075 399.547 56.3345C400.669 55.5939 401.304 54.9274 401.452 54.335C401.6 53.7214 401.674 51.0342 401.674 46.2734C401.674 41.4915 401.515 38.6986 401.198 37.8945C400.88 37.0693 400.246 36.1172 399.293 35.0381C398.341 33.959 397.865 33.4089 397.865 33.3877V32.7212C397.865 32.3615 398.13 32.0335 398.659 31.7373C400.5 30.6794 403.24 30.1504 406.879 30.1504C407.895 30.1504 408.741 30.6476 409.418 31.6421C410.116 32.6366 410.624 33.1338 410.941 33.1338C411.259 33.1338 411.999 32.7952 413.163 32.1182C414.348 31.4199 414.993 31.0496 415.099 31.0073C416.792 30.2244 418.368 29.833 419.828 29.833H420.844C424.547 29.833 427.191 31.3141 428.778 34.2764C429.794 36.2018 430.302 40.825 430.302 48.146C430.302 52.0604 430.429 54.2926 430.683 54.8428C430.937 55.3929 431.624 56.0277 432.746 56.7471C433.888 57.4453 434.459 58.1224 434.459 58.7783Z" fill="#3B4A6E"/>
<path d="M113 318L100 343.5L138.5 342L150 314L162 342H170.5L172.5 334.5L176.5 340L180 336.5L182.5 342L268 343.5L272.5 340L261.5 322L254 334.5L239 328L221.5 296L211 322L190.5 308.5L185.5 285.5L175 301.5L162 278L152 307L138.5 279.5L132 299L125 312.5L113 318Z" fill="#233A64" fill-opacity="0.75"/>
<path d="M556.962 324.924L570 344L531.388 342.878L519.855 321.931L507.82 342.878H499.296L497.29 337.267L493.278 341.382L489.768 338.763L487.261 342.878L401.513 344L397 341.382L408.032 327.916L415.554 337.267L430.597 332.405L448.148 308.466L458.678 327.916L479.238 317.817L484.252 300.611L494.783 312.58L507.82 295L517.849 316.695L531.388 296.122L537.907 310.71L544.928 320.809L556.962 324.924Z" fill="#233A64" fill-opacity="0.75"/>
<defs>
<linearGradient id="paint0_linear_1065_281" x1="329.5" y1="0" x2="329.5" y2="348" gradientUnits="userSpaceOnUse">
<stop offset="0.223958" stop-color="#CCEBFF"/>
<stop offset="1" stop-color="#AAD8F0"/>
</linearGradient>
</defs>
</svg>
