<svg width="649" height="348" viewBox="0 0 649 348" fill="none" xmlns="http://www.w3.org/2000/svg">
<rect width="649" height="348" rx="41" fill="url(#paint0_linear_1066_297)"/>
<path d="M173.77 15.87C177.94 15.87 180.97 16.74 182.86 18.48C184.78 20.22 185.74 22.62 185.74 25.68C185.74 27.06 185.53 28.38 185.11 29.64C184.69 30.87 183.985 31.98 182.995 32.97C182.005 33.96 180.7 34.74 179.08 35.31C177.49 35.88 175.51 36.165 173.14 36.165H169.945V48H164.185V15.87H173.77ZM173.41 20.64H169.945V31.395H172.555C174.115 31.395 175.435 31.215 176.515 30.855C177.625 30.465 178.465 29.865 179.035 29.055C179.605 28.245 179.89 27.195 179.89 25.905C179.89 24.135 179.365 22.815 178.315 21.945C177.265 21.075 175.63 20.64 173.41 20.64ZM209.416 48H191.146V15.87H209.416V20.685H196.906V28.875H208.606V33.69H196.906V43.14H209.416V48ZM242.654 48H235.499L220.289 22.8H220.109C220.139 23.46 220.169 24.165 220.199 24.915C220.259 25.635 220.304 26.385 220.334 27.165C220.364 27.915 220.394 28.68 220.424 29.46C220.454 30.24 220.484 31.02 220.514 31.8V48H215.339V15.87H222.449L237.614 40.89H237.749C237.719 40.29 237.689 39.645 237.659 38.955C237.629 38.235 237.599 37.5 237.569 36.75C237.569 36 237.554 35.235 237.524 34.455C237.494 33.675 237.464 32.925 237.434 32.205V15.87H242.654V48ZM277.438 48H270.283L255.073 22.8H254.893C254.923 23.46 254.953 24.165 254.983 24.915C255.043 25.635 255.088 26.385 255.118 27.165C255.148 27.915 255.178 28.68 255.208 29.46C255.238 30.24 255.268 31.02 255.298 31.8V48H250.123V15.87H257.233L272.398 40.89H272.533C272.503 40.29 272.473 39.645 272.443 38.955C272.413 38.235 272.383 37.5 272.353 36.75C272.353 36 272.338 35.235 272.308 34.455C272.278 33.675 272.248 32.925 272.218 32.205V15.87H277.438V48ZM303.581 39.225C303.581 41.115 303.116 42.75 302.186 44.13C301.256 45.51 299.906 46.575 298.136 47.325C296.396 48.075 294.311 48.45 291.881 48.45C290.711 48.45 289.586 48.375 288.506 48.225C287.456 48.105 286.451 47.91 285.491 47.64C284.561 47.37 283.691 47.04 282.881 46.65V41.25C284.231 41.85 285.716 42.405 287.336 42.915C288.956 43.395 290.606 43.635 292.286 43.635C293.576 43.635 294.626 43.47 295.436 43.14C296.276 42.78 296.891 42.3 297.281 41.7C297.671 41.07 297.866 40.35 297.866 39.54C297.866 38.64 297.611 37.875 297.101 37.245C296.591 36.615 295.841 36.03 294.851 35.49C293.861 34.95 292.631 34.38 291.161 33.78C290.171 33.36 289.196 32.895 288.236 32.385C287.306 31.845 286.466 31.2 285.716 30.45C284.966 29.7 284.366 28.815 283.916 27.795C283.466 26.775 283.241 25.575 283.241 24.195C283.241 22.365 283.676 20.79 284.546 19.47C285.446 18.15 286.691 17.145 288.281 16.455C289.901 15.765 291.776 15.42 293.906 15.42C295.616 15.42 297.221 15.6 298.721 15.96C300.221 16.32 301.706 16.83 303.176 17.49L301.331 22.125C300.011 21.555 298.736 21.105 297.506 20.775C296.276 20.445 295.016 20.28 293.726 20.28C292.706 20.28 291.836 20.445 291.116 20.775C290.396 21.075 289.856 21.51 289.496 22.08C289.136 22.65 288.956 23.31 288.956 24.06C288.956 24.93 289.181 25.665 289.631 26.265C290.081 26.865 290.771 27.435 291.701 27.975C292.661 28.485 293.891 29.07 295.391 29.73C297.131 30.48 298.601 31.26 299.801 32.07C301.001 32.88 301.931 33.855 302.591 34.995C303.251 36.135 303.581 37.545 303.581 39.225ZM318.108 30.045L325.443 15.87H331.653L320.988 35.49V48H315.228V35.715L304.562 15.87H310.818L318.108 30.045ZM334.918 48V15.87H340.678V43.14H354.088V48H334.918ZM382.09 15.87L370.975 48H364.81L353.695 15.87H359.59L366.07 35.535C366.28 36.075 366.49 36.78 366.7 37.65C366.94 38.49 367.165 39.36 367.375 40.26C367.615 41.13 367.795 41.91 367.915 42.6C368.005 41.91 368.155 41.13 368.365 40.26C368.605 39.36 368.845 38.49 369.085 37.65C369.325 36.78 369.535 36.075 369.715 35.535L376.195 15.87H382.09ZM403.412 48L400.487 39.495H388.382L385.502 48H379.382L391.172 15.735H397.742L409.532 48H403.412ZM396.212 26.265C396.092 25.845 395.912 25.275 395.672 24.555C395.432 23.835 395.192 23.1 394.952 22.35C394.742 21.57 394.577 20.925 394.457 20.415C394.307 21.015 394.112 21.705 393.872 22.485C393.662 23.265 393.452 24 393.242 24.69C393.062 25.38 392.912 25.905 392.792 26.265L389.957 34.545H399.002L396.212 26.265ZM440.172 48H433.017L417.807 22.8H417.627C417.657 23.46 417.687 24.165 417.717 24.915C417.777 25.635 417.822 26.385 417.852 27.165C417.882 27.915 417.912 28.68 417.942 29.46C417.972 30.24 418.002 31.02 418.032 31.8V48H412.857V15.87H419.967L435.132 40.89H435.267C435.237 40.29 435.207 39.645 435.177 38.955C435.147 38.235 435.117 37.5 435.087 36.75C435.087 36 435.072 35.235 435.042 34.455C435.012 33.675 434.982 32.925 434.952 32.205V15.87H440.172V48ZM458.531 48H445.031V44.715L448.901 43.275V20.64L445.031 19.155V15.87H458.531V19.155L454.661 20.64V43.275L458.531 44.715V48ZM483.241 48L480.316 39.495H468.211L465.331 48H459.211L471.001 15.735H477.571L489.361 48H483.241ZM476.041 26.265C475.921 25.845 475.741 25.275 475.501 24.555C475.261 23.835 475.021 23.1 474.781 22.35C474.571 21.57 474.406 20.925 474.286 20.415C474.136 21.015 473.941 21.705 473.701 22.485C473.491 23.265 473.281 24 473.071 24.69C472.891 25.38 472.741 25.905 472.621 26.265L469.786 34.545H478.831L476.041 26.265Z" fill="white"/>
<path d="M273.315 331L266 311.785H272.16L275.66 322.915C275.73 323.172 275.8 323.487 275.87 323.86C275.963 324.21 276.033 324.572 276.08 324.945C276.15 325.295 276.185 325.622 276.185 325.925H276.325C276.325 325.598 276.348 325.26 276.395 324.91C276.465 324.56 276.535 324.222 276.605 323.895C276.698 323.545 276.792 323.23 276.885 322.95L280.455 311.785H286.58L279.265 331H273.315ZM294.311 311.785V331H288.431V311.785H294.311ZM291.406 304.155C292.246 304.155 292.981 304.342 293.611 304.715C294.241 305.088 294.556 305.812 294.556 306.885C294.556 307.935 294.241 308.658 293.611 309.055C292.981 309.428 292.246 309.615 291.406 309.615C290.52 309.615 289.761 309.428 289.131 309.055C288.525 308.658 288.221 307.935 288.221 306.885C288.221 305.812 288.525 305.088 289.131 304.715C289.761 304.342 290.52 304.155 291.406 304.155ZM312.527 325.19C312.527 326.45 312.235 327.547 311.652 328.48C311.092 329.39 310.205 330.102 308.992 330.615C307.779 331.105 306.239 331.35 304.372 331.35C303.019 331.35 301.829 331.268 300.802 331.105C299.799 330.942 298.784 330.65 297.757 330.23V325.47C298.877 325.96 300.044 326.345 301.257 326.625C302.494 326.905 303.52 327.045 304.337 327.045C305.224 327.045 305.865 326.928 306.262 326.695C306.659 326.462 306.857 326.135 306.857 325.715C306.857 325.412 306.752 325.143 306.542 324.91C306.355 324.677 305.959 324.408 305.352 324.105C304.769 323.802 303.894 323.417 302.727 322.95C301.584 322.46 300.639 321.958 299.892 321.445C299.169 320.932 298.62 320.313 298.247 319.59C297.897 318.867 297.722 317.98 297.722 316.93C297.722 315.11 298.422 313.745 299.822 312.835C301.245 311.902 303.124 311.435 305.457 311.435C306.694 311.435 307.86 311.563 308.957 311.82C310.054 312.077 311.185 312.473 312.352 313.01L310.672 317C310.042 316.72 309.412 316.475 308.782 316.265C308.175 316.055 307.592 315.892 307.032 315.775C306.472 315.658 305.947 315.6 305.457 315.6C304.804 315.6 304.302 315.693 303.952 315.88C303.602 316.043 303.427 316.3 303.427 316.65C303.427 316.907 303.52 317.152 303.707 317.385C303.917 317.595 304.302 317.828 304.862 318.085C305.445 318.342 306.285 318.703 307.382 319.17C308.479 319.613 309.412 320.08 310.182 320.57C310.952 321.06 311.535 321.667 311.932 322.39C312.329 323.113 312.527 324.047 312.527 325.19ZM321.622 311.785V331H315.742V311.785H321.622ZM318.717 304.155C319.557 304.155 320.292 304.342 320.922 304.715C321.552 305.088 321.867 305.812 321.867 306.885C321.867 307.935 321.552 308.658 320.922 309.055C320.292 309.428 319.557 309.615 318.717 309.615C317.83 309.615 317.072 309.428 316.442 309.055C315.835 308.658 315.532 307.935 315.532 306.885C315.532 305.812 315.835 305.088 316.442 304.715C317.072 304.342 317.83 304.155 318.717 304.155ZM334.728 326.66C335.335 326.66 335.895 326.602 336.408 326.485C336.921 326.368 337.446 326.217 337.983 326.03V330.37C337.353 330.65 336.63 330.883 335.813 331.07C334.996 331.257 334.028 331.35 332.908 331.35C331.718 331.35 330.656 331.163 329.723 330.79C328.813 330.393 328.09 329.728 327.553 328.795C327.04 327.838 326.783 326.52 326.783 324.84V316.195H324.333V313.745L327.273 311.855L328.883 307.795H332.663V311.785H337.773V316.195H332.663V324.63C332.663 325.307 332.85 325.82 333.223 326.17C333.596 326.497 334.098 326.66 334.728 326.66ZM349.648 306.01C352.845 306.01 355.201 306.71 356.718 308.11C358.258 309.487 359.028 311.412 359.028 313.885C359.028 315.005 358.865 316.078 358.538 317.105C358.211 318.108 357.663 319.007 356.893 319.8C356.146 320.593 355.155 321.223 353.918 321.69C352.705 322.157 351.2 322.39 349.403 322.39H347.303V331H341.353V306.01H349.648ZM349.438 310.875H347.303V317.525H348.878C349.695 317.525 350.406 317.408 351.013 317.175C351.643 316.942 352.133 316.568 352.483 316.055C352.833 315.542 353.008 314.877 353.008 314.06C353.008 313.033 352.716 312.252 352.133 311.715C351.55 311.155 350.651 310.875 349.438 310.875ZM376.251 331L374.711 325.645H366.066L364.526 331H358.016L366.521 305.905H374.151L382.761 331H376.251ZM371.911 315.67C371.794 315.25 371.631 314.69 371.421 313.99C371.234 313.267 371.036 312.532 370.826 311.785C370.639 311.038 370.487 310.408 370.371 309.895C370.277 310.408 370.126 311.05 369.916 311.82C369.729 312.567 369.542 313.302 369.356 314.025C369.169 314.725 369.017 315.273 368.901 315.67L367.431 320.675H373.381L371.911 315.67Z" fill="#0B3A5D"/>
<path d="M46 22L52.5 18L53 22H90.5L94.5 27.5L90.5 34.5L93.5 39.5L92 41.5L86 43.5H46V22Z" stroke="white" stroke-width="2"/>
<path d="M336.5 192H315L306 160.5H318.5L316.5 155H334.5L333 160.5H344L336.5 192Z" fill="#0E4B7A" fill-opacity="0.3"/>
<defs>
<linearGradient id="paint0_linear_1066_297" x1="324.5" y1="0" x2="324.5" y2="348" gradientUnits="userSpaceOnUse">
<stop stop-color="#01447C"/>
<stop offset="0.192608" stop-color="#004579"/>
<stop offset="0.192708" stop-color="white"/>
<stop offset="0.838442" stop-color="white"/>
<stop offset="0.838542" stop-color="#FFC706"/>
<stop offset="1" stop-color="#FFC706"/>
</linearGradient>
</defs>
</svg>
