<svg width="649" height="348" viewBox="0 0 649 348" fill="none" xmlns="http://www.w3.org/2000/svg">
<rect width="649" height="348" rx="41" fill="#BAE9FB"/>
<path d="M199.65 22.35C204.083 22.35 207.483 23.3 209.85 25.2C212.25 27.1 213.45 29.9 213.45 33.6C213.45 37.5 212.283 40.45 209.95 42.45C207.65 44.4167 204.467 45.4 200.4 45.4H197.75V57H189.75V22.35H199.65ZM199.75 39.6C201.617 39.6 203 39.15 203.9 38.25C204.8 37.3167 205.25 35.7833 205.25 33.65C205.25 31.75 204.8 30.35 203.9 29.45C203.033 28.5167 201.65 28.05 199.75 28.05H197.75V39.6H199.75ZM242.347 46.3C242.347 48.5 241.881 50.4833 240.947 52.25C240.014 53.9833 238.614 55.35 236.747 56.35C234.881 57.35 232.597 57.85 229.897 57.85C225.831 57.85 222.731 56.8 220.597 54.7C218.497 52.6 217.447 49.8 217.447 46.3V22.35H225.447V46C225.447 48 225.797 49.4833 226.497 50.45C227.197 51.3833 228.331 51.85 229.897 51.85C231.464 51.85 232.581 51.3833 233.247 50.45C233.947 49.4833 234.297 48 234.297 46V22.35H242.347V46.3ZM267.893 22.35L267.043 28.05H256.293V36.6H265.693V42.2H256.293V51.2H267.793V57H248.293V22.35H267.893ZM283.575 43.7H280.975V57H272.975V22.35H283.125C287.658 22.35 291.041 23.2333 293.275 25C295.508 26.7333 296.625 29.35 296.625 32.85C296.625 37.2833 294.675 40.4 290.775 42.2L298.625 57H289.875L283.575 43.7ZM280.975 38.15H283.425C285.158 38.15 286.425 37.7333 287.225 36.9C288.025 36.0333 288.425 34.6833 288.425 32.85C288.425 31.1833 287.991 29.9667 287.125 29.2C286.258 28.4 284.891 28 283.025 28H280.975V38.15ZM322.874 22.35L322.024 28.45H314.574V57H306.574V28.45H298.674V22.35H322.874ZM337.828 21.5C342.395 21.5 345.911 23.05 348.378 26.15C350.845 29.2167 352.078 33.7167 352.078 39.65C352.078 45.5167 350.828 50.0167 348.328 53.15C345.861 56.2833 342.361 57.85 337.828 57.85C333.295 57.85 329.778 56.3 327.278 53.2C324.811 50.1 323.578 45.5833 323.578 39.65C323.578 33.8167 324.811 29.3333 327.278 26.2C329.778 23.0667 333.295 21.5 337.828 21.5ZM337.828 27.35C335.795 27.35 334.295 28.3 333.328 30.2C332.395 32.1 331.928 35.25 331.928 39.65C331.928 44.1167 332.411 47.3 333.378 49.2C334.345 51.0667 335.828 52 337.828 52C339.861 52 341.345 51.0667 342.278 49.2C343.245 47.3 343.728 44.1167 343.728 39.65C343.728 35.25 343.245 32.1 342.278 30.2C341.345 28.3 339.861 27.35 337.828 27.35ZM379.323 43.7H376.723V57H368.723V22.35H378.873C383.406 22.35 386.789 23.2333 389.023 25C391.256 26.7333 392.373 29.35 392.373 32.85C392.373 37.2833 390.423 40.4 386.523 42.2L394.373 57H385.623L379.323 43.7ZM376.723 38.15H379.173C380.906 38.15 382.173 37.7333 382.973 36.9C383.773 36.0333 384.173 34.6833 384.173 32.85C384.173 31.1833 383.739 29.9667 382.873 29.2C382.006 28.4 380.639 28 378.773 28H376.723V38.15ZM405.799 22.35V57H397.799V22.35H405.799ZM425.327 21.5C427.327 21.5 429.11 21.8167 430.677 22.45C432.243 23.0833 433.727 24.0333 435.127 25.3L431.327 29.75C430.427 28.9833 429.527 28.4167 428.627 28.05C427.76 27.65 426.827 27.45 425.827 27.45C421.493 27.45 419.327 31.5 419.327 39.6C419.327 47.6333 421.51 51.65 425.877 51.65C427.01 51.65 428.01 51.4333 428.877 51C429.777 50.5333 430.777 49.8667 431.877 49L435.477 53.4C434.243 54.7 432.76 55.7667 431.027 56.6C429.327 57.4333 427.443 57.85 425.377 57.85C422.477 57.85 419.943 57.1667 417.777 55.8C415.643 54.4333 413.977 52.3833 412.777 49.65C411.577 46.9167 410.977 43.5667 410.977 39.6C410.977 35.7333 411.593 32.45 412.827 29.75C414.06 27.0167 415.743 24.9667 417.877 23.6C420.043 22.2 422.527 21.5 425.327 21.5ZM451.471 21.5C456.037 21.5 459.554 23.05 462.021 26.15C464.487 29.2167 465.721 33.7167 465.721 39.65C465.721 45.5167 464.471 50.0167 461.971 53.15C459.504 56.2833 456.004 57.85 451.471 57.85C446.937 57.85 443.421 56.3 440.921 53.2C438.454 50.1 437.221 45.5833 437.221 39.65C437.221 33.8167 438.454 29.3333 440.921 26.2C443.421 23.0667 446.937 21.5 451.471 21.5ZM451.471 27.35C449.437 27.35 447.937 28.3 446.971 30.2C446.037 32.1 445.571 35.25 445.571 39.65C445.571 44.1167 446.054 47.3 447.021 49.2C447.987 51.0667 449.471 52 451.471 52C453.504 52 454.987 51.0667 455.921 49.2C456.887 47.3 457.371 44.1167 457.371 39.65C457.371 35.25 456.887 32.1 455.921 30.2C454.987 28.3 453.504 27.35 451.471 27.35Z" fill="#3E3366"/>
<path fill-rule="evenodd" clip-rule="evenodd" d="M649 222.147V307C649 329.644 630.644 348 608 348H304.04C290.688 290.378 286.192 225.456 328.5 231.5C382.726 239.247 559.47 228.865 649 222.147Z" fill="#82B9DD"/>
<path fill-rule="evenodd" clip-rule="evenodd" d="M380.075 348H41C18.3563 348 0 329.644 0 307V167.317L138.5 178.5L292 195L328 200V171V163L320.5 156L315 150L323 146L329.5 127.5L341 119.5L344.5 116.5L346 111L352.5 107L350 103L351 98L354 97H358L360 98L362 100V103L360 105.5L358 107L362 108.5L365 111L366.5 115L372.5 117.5L380.5 124L387 133L388.5 138.5V141.5L398.5 152L390.5 160V233L395.5 235V240L392 243H387L385.5 246.5L382.5 252L374.5 253.5L371 256V261L366 266.5L365 273.5V280L361 281V288L367 302.5L371 318L378.5 342L380.075 348Z" fill="#AEA6AA"/>
<path d="M207.31 304.438V328H201.87V304.438H207.31ZM218.039 303.86C219.626 303.86 221.02 304.121 222.221 304.642C223.445 305.141 224.556 305.889 225.553 306.886L223.071 309.742C221.598 308.473 220.09 307.838 218.549 307.838C217.688 307.838 217.008 308.053 216.509 308.484C216.01 308.915 215.761 309.504 215.761 310.252C215.761 310.751 215.874 311.17 216.101 311.51C216.328 311.85 216.724 312.179 217.291 312.496C217.858 312.813 218.696 313.176 219.807 313.584C221.258 314.128 222.425 314.717 223.309 315.352C224.216 315.964 224.907 316.735 225.383 317.664C225.859 318.593 226.097 319.749 226.097 321.132C226.097 322.583 225.746 323.875 225.043 325.008C224.363 326.119 223.366 326.991 222.051 327.626C220.759 328.261 219.24 328.578 217.495 328.578C214.208 328.578 211.477 327.467 209.301 325.246L211.953 322.288C212.792 323.013 213.63 323.569 214.469 323.954C215.33 324.339 216.237 324.532 217.189 324.532C218.232 324.532 219.036 324.26 219.603 323.716C220.17 323.172 220.453 322.447 220.453 321.54C220.453 320.679 220.192 319.987 219.671 319.466C219.15 318.945 218.164 318.423 216.713 317.902C214.356 317.018 212.678 316.021 211.681 314.91C210.684 313.799 210.185 312.383 210.185 310.66C210.185 309.323 210.525 308.144 211.205 307.124C211.885 306.081 212.814 305.277 213.993 304.71C215.194 304.143 216.543 303.86 218.039 303.86ZM234.072 304.438V323.682H242.266L241.688 328H228.632V304.438H234.072ZM255.792 328L254.738 322.866H248.754L247.7 328H242.192L248.55 304.438H255.078L261.402 328H255.792ZM249.57 318.956H253.922L251.746 308.416L249.57 318.956ZM276.158 304.438C278.334 304.438 280.226 304.744 281.836 305.356C283.468 305.968 284.782 307.135 285.78 308.858C286.777 310.581 287.276 312.995 287.276 316.1C287.276 320.497 286.301 323.58 284.352 325.348C282.402 327.116 279.818 328 276.6 328H269.97V304.438H276.158ZM275.41 308.382V324.056H276.94C277.982 324.056 278.844 323.829 279.524 323.376C280.204 322.923 280.725 322.118 281.088 320.962C281.473 319.783 281.666 318.163 281.666 316.1C281.666 314.037 281.473 312.439 281.088 311.306C280.702 310.173 280.158 309.402 279.456 308.994C278.776 308.586 277.926 308.382 276.906 308.382H275.41ZM303.518 304.438L302.94 308.314H295.63V314.128H302.022V317.936H295.63V324.056H303.45V328H290.19V304.438H303.518ZM311.734 304.438V323.682H319.928L319.35 328H306.294V304.438H311.734ZM342.499 304.438L341.921 308.314H334.611V314.128H341.003V317.936H334.611V324.056H342.431V328H329.171V304.438H342.499ZM361.9 328H355.1L349.32 309.504C349.366 309.776 349.388 310.003 349.388 310.184C349.592 311.816 349.751 313.301 349.864 314.638C349.978 315.953 350.034 317.483 350.034 319.228V328H345.274V304.438H352.006L357.888 322.968C357.39 320.021 357.14 317.086 357.14 314.162V304.438H361.9V328ZM374.536 303.86C375.896 303.86 377.108 304.075 378.174 304.506C379.239 304.937 380.248 305.583 381.2 306.444L378.616 309.47C378.004 308.949 377.392 308.563 376.78 308.314C376.19 308.042 375.556 307.906 374.876 307.906C371.929 307.906 370.456 310.66 370.456 316.168C370.456 321.631 371.94 324.362 374.91 324.362C375.68 324.362 376.36 324.215 376.95 323.92C377.562 323.603 378.242 323.149 378.99 322.56L381.438 325.552C380.599 326.436 379.59 327.161 378.412 327.728C377.256 328.295 375.975 328.578 374.57 328.578C372.598 328.578 370.875 328.113 369.402 327.184C367.951 326.255 366.818 324.861 366.002 323.002C365.186 321.143 364.778 318.865 364.778 316.168C364.778 313.539 365.197 311.306 366.036 309.47C366.874 307.611 368.019 306.217 369.47 305.288C370.943 304.336 372.632 303.86 374.536 303.86ZM394.814 328L393.76 322.866H387.776L386.722 328H381.214L387.572 304.438H394.1L400.424 328H394.814ZM388.592 318.956H392.944L390.768 308.416L388.592 318.956ZM418.545 328H411.745L405.965 309.504C406.01 309.776 406.033 310.003 406.033 310.184C406.237 311.816 406.395 313.301 406.509 314.638C406.622 315.953 406.679 317.483 406.679 319.228V328H401.919V304.438H408.651L414.533 322.968C414.034 320.021 413.785 317.086 413.785 314.162V304.438H418.545V328ZM437.096 304.438L436.518 308.586H431.452V328H426.012V308.586H420.64V304.438H437.096ZM446.585 303.86C449.69 303.86 452.082 304.914 453.759 307.022C455.436 309.107 456.275 312.167 456.275 316.202C456.275 320.191 455.425 323.251 453.725 325.382C452.048 327.513 449.668 328.578 446.585 328.578C443.502 328.578 441.111 327.524 439.411 325.416C437.734 323.308 436.895 320.237 436.895 316.202C436.895 312.235 437.734 309.187 439.411 307.056C441.111 304.925 443.502 303.86 446.585 303.86ZM446.585 307.838C445.202 307.838 444.182 308.484 443.525 309.776C442.89 311.068 442.573 313.21 442.573 316.202C442.573 319.239 442.902 321.404 443.559 322.696C444.216 323.965 445.225 324.6 446.585 324.6C447.968 324.6 448.976 323.965 449.611 322.696C450.268 321.404 450.597 319.239 450.597 316.202C450.597 313.21 450.268 311.068 449.611 309.776C448.976 308.484 447.968 307.838 446.585 307.838Z" fill="#3E3366"/>
</svg>
