<svg width="649" height="349" viewBox="0 0 649 349" fill="none" xmlns="http://www.w3.org/2000/svg">
<rect y="1" width="649" height="348" rx="41" fill="#E2FBFF"/>
<path fill-rule="evenodd" clip-rule="evenodd" d="M649 242.055V308C649 330.644 630.644 349 608 349H41C18.3563 349 0 330.644 0 308V242.055C16.7822 235.667 35.6294 235.548 58.5 251.12C35 235.12 -11 269.62 40.5 282.12C46.8153 282.12 52.897 280.951 58.499 279.875C63.6661 278.882 68.4252 277.968 72.5831 278.121C81.2331 274.166 89.7151 268.139 98.4263 261.949C123.868 243.871 151.263 224.405 190.5 251.12C167 235.12 121 269.62 172.5 282.12C178.815 282.12 184.897 280.951 190.499 279.875C194.853 279.038 198.917 278.257 202.576 278.124C211.229 274.169 219.713 268.141 228.426 261.949L228.426 261.949C253.868 243.871 281.263 224.405 320.5 251.12C297 235.12 251 269.62 302.5 282.12C308.815 282.12 314.897 280.951 320.499 279.875C325.666 278.882 330.425 277.968 334.583 278.121C343.233 274.166 351.715 268.139 360.426 261.949C385.868 243.871 413.263 224.405 452.5 251.12C429 235.12 383 269.62 434.5 282.12C440.815 282.12 446.897 280.951 452.499 279.875C455.937 279.214 459.194 278.589 462.213 278.289C470.991 274.338 479.591 268.227 488.426 261.949C513.868 243.871 541.263 224.405 580.5 251.12C557 235.12 511 269.62 562.5 282.12C568.815 282.12 574.897 280.951 580.499 279.875C583.434 279.311 586.238 278.772 588.874 278.44C597.77 274.495 606.477 268.308 615.426 261.949L615.426 261.949C626.038 254.409 636.99 246.626 649 242.055Z" fill="#BEF7FF"/>
<path d="M178.695 54.03H182.71V21.58H178.695V18.61H198.22C199.907 18.61 201.428 18.8117 202.785 19.215C204.178 19.6183 205.352 20.2417 206.305 21.085C207.295 21.8917 208.047 22.9367 208.56 24.22C209.11 25.4667 209.385 26.9333 209.385 28.62C209.385 31.26 208.615 33.4417 207.075 35.165C205.572 36.8517 203.518 37.9517 200.915 38.465L207.625 50.4C208.358 51.6833 209.147 52.6183 209.99 53.205C210.87 53.755 211.952 54.03 213.235 54.03H213.62V57H209.385C208.212 57 207.203 56.9083 206.36 56.725C205.553 56.505 204.838 56.1933 204.215 55.79C203.592 55.35 203.042 54.8183 202.565 54.195C202.088 53.535 201.63 52.765 201.19 51.885L194.755 39.62H189.255V54.03H193.27V57H178.695V54.03ZM189.255 36.54H196.57C198.513 36.54 199.998 35.99 201.025 34.89C202.088 33.79 202.62 32.3233 202.62 30.49V27.905C202.62 26.0717 202.088 24.605 201.025 23.505C199.998 22.405 198.513 21.855 196.57 21.855H189.255V36.54ZM215.062 54.03H218.802V20.26L215.062 19.545V17.125L224.962 15.2V32.855H225.237C225.457 32.2317 225.787 31.6083 226.227 30.985C226.704 30.3617 227.272 29.8117 227.932 29.335C228.592 28.8583 229.362 28.4733 230.242 28.18C231.122 27.8867 232.112 27.74 233.212 27.74C236.695 27.74 239.17 28.6383 240.637 30.435C242.104 32.195 242.837 34.8533 242.837 38.41V54.03H246.577V57H233.047V54.03H236.677V38.74C236.677 36.3567 236.219 34.615 235.302 33.515C234.385 32.415 232.937 31.865 230.957 31.865C230.224 31.865 229.49 31.975 228.757 32.195C228.06 32.3783 227.419 32.69 226.832 33.13C226.282 33.5333 225.824 34.0467 225.457 34.67C225.127 35.2933 224.962 36.045 224.962 36.925V54.03H228.592V57H215.062V54.03ZM262.899 54.415C265.209 54.415 266.896 53.7 267.959 52.27C269.059 50.84 269.609 48.9333 269.609 46.55V38.85C269.609 36.4667 269.059 34.56 267.959 33.13C266.896 31.7 265.209 30.985 262.899 30.985C260.589 30.985 258.884 31.7 257.784 33.13C256.721 34.56 256.189 36.4667 256.189 38.85V46.55C256.189 48.9333 256.721 50.84 257.784 52.27C258.884 53.7 260.589 54.415 262.899 54.415ZM262.899 57.66C260.882 57.66 259.049 57.3117 257.399 56.615C255.749 55.9183 254.337 54.9283 253.164 53.645C251.991 52.3617 251.074 50.8033 250.414 48.97C249.791 47.1 249.479 45.01 249.479 42.7C249.479 40.39 249.791 38.3183 250.414 36.485C251.074 34.615 251.991 33.0383 253.164 31.755C254.337 30.4717 255.749 29.4817 257.399 28.785C259.049 28.0883 260.882 27.74 262.899 27.74C264.916 27.74 266.749 28.0883 268.399 28.785C270.049 29.4817 271.461 30.4717 272.634 31.755C273.807 33.0383 274.706 34.615 275.329 36.485C275.989 38.3183 276.319 40.39 276.319 42.7C276.319 45.01 275.989 47.1 275.329 48.97C274.706 50.8033 273.807 52.3617 272.634 53.645C271.461 54.9283 270.049 55.9183 268.399 56.615C266.749 57.3117 264.916 57.66 262.899 57.66ZM292.216 57.66C290.456 57.66 288.861 57.33 287.431 56.67C286.001 55.9733 284.791 54.9833 283.801 53.7C282.811 52.4167 282.041 50.8583 281.491 49.025C280.941 47.155 280.666 45.0467 280.666 42.7C280.666 40.3533 280.941 38.2633 281.491 36.43C282.041 34.56 282.811 32.9833 283.801 31.7C284.791 30.4167 286.001 29.445 287.431 28.785C288.861 28.0883 290.456 27.74 292.216 27.74C294.379 27.74 296.103 28.235 297.386 29.225C298.706 30.215 299.659 31.37 300.246 32.69H300.521V20.26L296.781 19.545V17.125L306.681 15.2V52.6L310.421 53.315V55.735L300.521 57.66V52.71H300.246C299.659 54.03 298.706 55.185 297.386 56.175C296.066 57.165 294.343 57.66 292.216 57.66ZM294.141 53.7C294.948 53.7 295.736 53.59 296.506 53.37C297.276 53.1133 297.954 52.7467 298.541 52.27C299.164 51.7933 299.641 51.225 299.971 50.565C300.338 49.905 300.521 49.1533 300.521 48.31V37.09C300.521 36.2467 300.338 35.495 299.971 34.835C299.641 34.175 299.164 33.6067 298.541 33.13C297.954 32.6533 297.276 32.305 296.506 32.085C295.736 31.8283 294.948 31.7 294.141 31.7C292.051 31.7 290.383 32.415 289.136 33.845C287.889 35.275 287.266 37.255 287.266 39.785V45.615C287.266 48.145 287.889 50.125 289.136 51.555C290.383 52.985 292.051 53.7 294.141 53.7ZM326.709 57.66C324.582 57.66 322.694 57.3117 321.044 56.615C319.394 55.8817 318 54.855 316.864 53.535C315.727 52.215 314.847 50.6383 314.224 48.805C313.637 46.9717 313.344 44.9367 313.344 42.7C313.344 40.4267 313.655 38.3733 314.279 36.54C314.939 34.7067 315.837 33.1483 316.974 31.865C318.147 30.545 319.522 29.5367 321.099 28.84C322.712 28.1067 324.472 27.74 326.379 27.74C328.322 27.74 330.064 28.07 331.604 28.73C333.144 29.3533 334.445 30.2517 335.509 31.425C336.609 32.5983 337.452 34.01 338.039 35.66C338.625 37.31 338.919 39.1433 338.919 41.16V42.645H319.999V44.405C319.999 47.265 320.714 49.4833 322.144 51.06C323.574 52.6 325.499 53.37 327.919 53.37C330.045 53.37 331.75 52.9117 333.034 51.995C334.354 51.0417 335.325 49.8683 335.949 48.475L338.314 49.905C337.984 50.8583 337.489 51.7933 336.829 52.71C336.205 53.6267 335.417 54.4517 334.464 55.185C333.51 55.9183 332.392 56.5233 331.109 57C329.825 57.44 328.359 57.66 326.709 57.66ZM319.999 39.73H332.539V39.125C332.539 36.485 332.025 34.45 330.999 33.02C330.009 31.5533 328.469 30.82 326.379 30.82C324.325 30.82 322.749 31.535 321.649 32.965C320.549 34.3583 319.999 36.375 319.999 39.015V39.73ZM354.39 54.03H358.405V21.58H354.39V18.61H368.965V21.58H364.95V54.03H368.965V57H354.39V54.03ZM384.71 57.66C382.84 57.66 381.319 57.2933 380.145 56.56C378.972 55.8267 378.202 55.02 377.835 54.14H377.615V57H373.435V48.475H377.615V49.465C377.615 51.005 378.092 52.215 379.045 53.095C379.999 53.975 381.539 54.415 383.665 54.415C387.625 54.415 389.605 53.0217 389.605 50.235C389.605 48.0717 388.175 46.6417 385.315 45.945L382.345 45.23C379.412 44.5333 377.23 43.47 375.8 42.04C374.37 40.61 373.655 38.6483 373.655 36.155C373.655 33.4783 374.554 31.4067 376.35 29.94C378.147 28.4733 380.53 27.74 383.5 27.74C385.334 27.74 386.8 28.0517 387.9 28.675C389 29.2983 389.715 30.05 390.045 30.93H390.265V28.4H394.445V36.925H390.265V35.33C390.265 32.4333 388.304 30.985 384.38 30.985C382.694 30.985 381.392 31.315 380.475 31.975C379.595 32.5983 379.155 33.5517 379.155 34.835C379.155 37.1083 380.622 38.6117 383.555 39.345L386.36 40.005C389.33 40.665 391.549 41.6733 393.015 43.03C394.482 44.35 395.215 46.3117 395.215 48.915C395.215 51.555 394.262 53.6817 392.355 55.295C390.485 56.8717 387.937 57.66 384.71 57.66ZM398.519 54.03H402.259V20.26L398.519 19.545V17.125L408.419 15.2V54.03H412.159V57H398.519V54.03ZM423.576 57.66C420.716 57.66 418.552 56.9633 417.086 55.57C415.656 54.14 414.941 52.1967 414.941 49.74C414.941 46.9533 415.931 44.845 417.911 43.415C419.891 41.985 423.117 41.27 427.591 41.27H431.551V37.53C431.551 35.2933 431.056 33.5883 430.066 32.415C429.076 31.2417 427.517 30.655 425.391 30.655C423.594 30.655 422.237 30.9117 421.321 31.425V31.645C421.724 31.8283 422.091 32.1583 422.421 32.635C422.787 33.075 422.971 33.6983 422.971 34.505C422.971 35.5317 422.659 36.3567 422.036 36.98C421.449 37.6033 420.587 37.915 419.451 37.915C418.497 37.915 417.691 37.6033 417.031 36.98C416.407 36.32 416.096 35.44 416.096 34.34C416.096 33.4967 416.334 32.69 416.811 31.92C417.324 31.1133 418.057 30.3983 419.011 29.775C419.964 29.1517 421.119 28.6567 422.476 28.29C423.869 27.9233 425.464 27.74 427.261 27.74C430.707 27.74 433.311 28.5467 435.071 30.16C436.831 31.7733 437.711 34.0283 437.711 36.925V54.085H441.451V56.56C440.937 56.8533 440.277 57.11 439.471 57.33C438.664 57.55 437.802 57.66 436.886 57.66C435.199 57.66 433.952 57.2383 433.146 56.395C432.376 55.515 431.991 54.3967 431.991 53.04V52.765H431.716C431.459 53.3883 431.129 53.9933 430.726 54.58C430.322 55.13 429.791 55.6433 429.131 56.12C428.507 56.5967 427.737 56.9633 426.821 57.22C425.904 57.5133 424.822 57.66 423.576 57.66ZM425.996 53.81C427.609 53.81 428.929 53.425 429.956 52.655C431.019 51.885 431.551 50.62 431.551 48.86V43.965H428.251C425.647 43.965 423.832 44.3867 422.806 45.23C421.779 46.0733 421.266 47.2833 421.266 48.86V49.905C421.266 51.225 421.687 52.215 422.531 52.875C423.374 53.4983 424.529 53.81 425.996 53.81ZM444.461 54.03H448.201V32.8L444.461 32.085V29.665L454.196 27.74V32.855H454.471C454.691 32.2317 455.021 31.6083 455.461 30.985C455.938 30.3617 456.506 29.8117 457.166 29.335C457.863 28.8583 458.651 28.4733 459.531 28.18C460.448 27.8867 461.474 27.74 462.611 27.74C466.094 27.74 468.569 28.6383 470.036 30.435C471.503 32.195 472.236 34.8533 472.236 38.41V54.03H475.976V57H462.446V54.03H466.076V38.74C466.076 36.3567 465.618 34.615 464.701 33.515C463.784 32.415 462.336 31.865 460.356 31.865C459.623 31.865 458.889 31.975 458.156 32.195C457.459 32.3783 456.818 32.69 456.231 33.13C455.681 33.5333 455.223 34.0467 454.856 34.67C454.526 35.2933 454.361 36.045 454.361 36.925V54.03H457.991V57H444.461V54.03ZM490.74 57.66C488.98 57.66 487.385 57.33 485.955 56.67C484.525 55.9733 483.315 54.9833 482.325 53.7C481.335 52.4167 480.565 50.8583 480.015 49.025C479.465 47.155 479.19 45.0467 479.19 42.7C479.19 40.3533 479.465 38.2633 480.015 36.43C480.565 34.56 481.335 32.9833 482.325 31.7C483.315 30.4167 484.525 29.445 485.955 28.785C487.385 28.0883 488.98 27.74 490.74 27.74C492.903 27.74 494.627 28.235 495.91 29.225C497.23 30.215 498.183 31.37 498.77 32.69H499.045V20.26L495.305 19.545V17.125L505.205 15.2V52.6L508.945 53.315V55.735L499.045 57.66V52.71H498.77C498.183 54.03 497.23 55.185 495.91 56.175C494.59 57.165 492.867 57.66 490.74 57.66ZM492.665 53.7C493.472 53.7 494.26 53.59 495.03 53.37C495.8 53.1133 496.478 52.7467 497.065 52.27C497.688 51.7933 498.165 51.225 498.495 50.565C498.862 49.905 499.045 49.1533 499.045 48.31V37.09C499.045 36.2467 498.862 35.495 498.495 34.835C498.165 34.175 497.688 33.6067 497.065 33.13C496.478 32.6533 495.8 32.305 495.03 32.085C494.26 31.8283 493.472 31.7 492.665 31.7C490.575 31.7 488.907 32.415 487.66 33.845C486.413 35.275 485.79 37.255 485.79 39.785V45.615C485.79 48.145 486.413 50.125 487.66 51.555C488.907 52.985 490.575 53.7 492.665 53.7Z" fill="#122E77"/>
<path d="M221.31 336.785C219.183 336.785 217.24 336.217 215.48 335.08C213.72 333.98 212.327 332.403 211.3 330.35C210.273 328.297 209.76 325.84 209.76 322.98C209.76 320.157 210.2 317.315 211.08 314.455C211.96 311.558 213.17 308.808 214.71 306.205C216.25 303.565 218.047 301.218 220.1 299.165C222.153 297.075 224.335 295.443 226.645 294.27C228.992 293.06 231.393 292.455 233.85 292.455C234.217 292.455 234.748 292.528 235.445 292.675C236.178 292.822 236.893 293.262 237.59 293.995C237.37 293.958 237.113 293.94 236.82 293.94C236.563 293.903 236.288 293.885 235.995 293.885C234.088 293.885 232.163 294.49 230.22 295.7C228.277 296.873 226.425 298.468 224.665 300.485C222.905 302.502 221.328 304.793 219.935 307.36C218.578 309.89 217.497 312.53 216.69 315.28C215.883 318.03 215.48 320.707 215.48 323.31C215.48 325.217 215.737 326.995 216.25 328.645C216.763 330.295 217.588 331.615 218.725 332.605C219.862 333.632 221.365 334.145 223.235 334.145C225.252 334.145 227.14 333.54 228.9 332.33C230.66 331.12 232.255 329.507 233.685 327.49C235.115 325.437 236.343 323.163 237.37 320.67C238.397 318.14 239.185 315.555 239.735 312.915C240.285 310.238 240.56 307.69 240.56 305.27C240.56 304.207 240.487 303.07 240.34 301.86C240.193 300.613 239.937 299.55 239.57 298.67C239.24 297.79 238.745 297.35 238.085 297.35C237.462 297.35 236.783 297.753 236.05 298.56C235.317 299.33 234.602 300.32 233.905 301.53C233.208 302.74 232.585 304.023 232.035 305.38C231.522 306.7 231.155 307.892 230.935 308.955C229.688 308.698 228.79 308.295 228.24 307.745C227.727 307.195 227.47 306.535 227.47 305.765C227.47 304.775 227.818 303.675 228.515 302.465C229.212 301.255 230.11 300.1 231.21 299C232.347 297.863 233.52 296.928 234.73 296.195C235.977 295.462 237.132 295.095 238.195 295.095C239.295 295.095 240.175 295.498 240.835 296.305C241.532 297.075 242.063 298.083 242.43 299.33C242.797 300.577 243.053 301.915 243.2 303.345C243.347 304.738 243.42 306.04 243.42 307.25C243.42 310.99 242.962 314.418 242.045 317.535C241.128 320.615 239.882 323.347 238.305 325.73C236.765 328.113 235.023 330.13 233.08 331.78C231.173 333.43 229.193 334.677 227.14 335.52C225.123 336.363 223.18 336.785 221.31 336.785ZM248.457 335.08C246.55 335.08 244.973 334.475 243.727 333.265C242.517 332.092 241.912 330.277 241.912 327.82C241.912 326.023 242.26 324.263 242.957 322.54C243.653 320.817 244.588 319.277 245.762 317.92C246.935 316.527 248.237 315.427 249.667 314.62C251.133 313.813 252.618 313.41 254.122 313.41C255.662 313.41 256.762 313.795 257.422 314.565C258.118 315.335 258.467 316.233 258.467 317.26C258.467 318.287 258.21 319.295 257.697 320.285C257.22 321.238 256.56 321.715 255.717 321.715C255.02 321.715 254.452 321.367 254.012 320.67C254.378 320.413 254.763 319.937 255.167 319.24C255.57 318.543 255.772 317.645 255.772 316.545C255.772 316.252 255.698 316.032 255.552 315.885C255.405 315.702 255.13 315.61 254.727 315.61C253.81 315.61 252.838 316.032 251.812 316.875C250.822 317.682 249.887 318.745 249.007 320.065C248.163 321.348 247.467 322.723 246.917 324.19C246.403 325.62 246.147 326.94 246.147 328.15C246.147 329.177 246.403 330.13 246.917 331.01C247.467 331.853 248.512 332.275 250.052 332.275C251.445 332.275 252.893 331.872 254.397 331.065C255.9 330.258 257.312 329.14 258.632 327.71C259.952 326.243 261.015 324.502 261.822 322.485L262.922 323.475C262.042 325.712 260.813 327.71 259.237 329.47C257.697 331.193 255.973 332.55 254.067 333.54C252.197 334.567 250.327 335.08 248.457 335.08ZM265.837 334.42C263.491 334.42 261.676 333.778 260.392 332.495C259.146 331.248 258.522 329.672 258.522 327.765C258.522 326.152 258.926 324.447 259.732 322.65C260.576 320.817 261.694 319.112 263.087 317.535C264.481 315.922 266.021 314.62 267.707 313.63C269.394 312.64 271.081 312.145 272.767 312.145C273.721 312.145 274.619 312.402 275.462 312.915C276.342 313.392 276.782 314.363 276.782 315.83C276.782 317.223 276.379 318.525 275.572 319.735C274.766 320.945 273.684 322.027 272.327 322.98C270.971 323.933 269.467 324.722 267.817 325.345C266.204 325.932 264.572 326.317 262.922 326.5C262.886 326.647 262.849 326.812 262.812 326.995C262.812 327.142 262.812 327.398 262.812 327.765C262.812 327.948 262.831 328.278 262.867 328.755C262.941 329.195 263.106 329.672 263.362 330.185C263.619 330.698 264.041 331.138 264.627 331.505C265.214 331.872 266.021 332.055 267.047 332.055C268.587 332.055 270.127 331.633 271.667 330.79C273.244 329.91 274.711 328.755 276.067 327.325C277.461 325.895 278.616 324.3 279.532 322.54L280.632 323.42C279.642 325.62 278.359 327.545 276.782 329.195C275.242 330.845 273.519 332.128 271.612 333.045C269.742 333.962 267.817 334.42 265.837 334.42ZM263.527 324.465C264.481 324.355 265.544 324.025 266.717 323.475C267.891 322.925 269.009 322.228 270.072 321.385C271.172 320.542 272.071 319.625 272.767 318.635C273.464 317.608 273.812 316.582 273.812 315.555C273.812 315.152 273.739 314.877 273.592 314.73C273.446 314.583 273.207 314.51 272.877 314.51C272.034 314.51 271.154 314.822 270.237 315.445C269.321 316.032 268.422 316.82 267.542 317.81C266.662 318.763 265.874 319.827 265.177 321C264.481 322.173 263.931 323.328 263.527 324.465ZM280.182 334.585C278.972 334.585 277.927 334.182 277.047 333.375C276.131 332.568 275.672 331.358 275.672 329.745C275.672 328.462 275.966 327.068 276.552 325.565C277.139 324.062 277.946 322.577 278.972 321.11C279.999 319.643 281.172 318.323 282.492 317.15C283.812 315.94 285.224 314.968 286.727 314.235C288.231 313.502 289.734 313.135 291.237 313.135C292.814 313.135 294.152 313.538 295.252 314.345C296.352 315.152 296.902 316.215 296.902 317.535C296.902 318.525 296.554 319.24 295.857 319.68C295.161 320.12 294.336 320.248 293.382 320.065C293.456 319.735 293.511 319.405 293.547 319.075C293.621 318.745 293.657 318.397 293.657 318.03C293.657 317.297 293.511 316.637 293.217 316.05C292.924 315.463 292.301 315.17 291.347 315.17C290.321 315.17 289.276 315.518 288.212 316.215C287.149 316.912 286.122 317.828 285.132 318.965C284.179 320.065 283.317 321.293 282.547 322.65C281.777 323.97 281.172 325.272 280.732 326.555C280.292 327.838 280.072 328.993 280.072 330.02C280.072 331.193 280.494 331.78 281.337 331.78C282.181 331.78 283.116 331.377 284.142 330.57C285.169 329.727 286.196 328.682 287.222 327.435C288.286 326.188 289.294 324.923 290.247 323.64C291.201 322.32 292.026 321.202 292.722 320.285C292.832 320.102 292.979 320.01 293.162 320.01C293.309 320.047 293.584 320.138 293.987 320.285C294.427 320.395 294.831 320.578 295.197 320.835C295.564 321.092 295.747 321.422 295.747 321.825C295.747 322.192 295.582 322.668 295.252 323.255C294.959 323.805 294.592 324.428 294.152 325.125C293.749 325.785 293.382 326.463 293.052 327.16C292.759 327.82 292.612 328.462 292.612 329.085C292.612 329.562 292.741 330.02 292.997 330.46C293.254 330.863 293.676 331.065 294.262 331.065C295.142 331.065 296.371 330.423 297.947 329.14C299.561 327.82 301.192 325.602 302.842 322.485L303.887 323.53C303.007 325.51 301.944 327.27 300.697 328.81C299.487 330.313 298.204 331.487 296.847 332.33C295.491 333.21 294.116 333.65 292.722 333.65C291.219 333.65 290.101 333.173 289.367 332.22C288.634 331.267 288.231 330.24 288.157 329.14C288.157 329.067 288.157 329.012 288.157 328.975C288.157 328.938 288.157 328.902 288.157 328.865C286.691 330.625 285.334 332.018 284.087 333.045C282.877 334.072 281.576 334.585 280.182 334.585ZM318.976 333.1C317.546 333.1 316.446 332.733 315.676 332C314.942 331.303 314.576 330.405 314.576 329.305C314.576 328.572 314.704 327.802 314.961 326.995C315.217 326.152 315.474 325.308 315.731 324.465C315.987 323.622 316.116 322.815 316.116 322.045C316.116 321.238 315.914 320.688 315.511 320.395C315.144 320.065 314.704 319.9 314.191 319.9C313.091 319.9 311.954 320.358 310.781 321.275C309.644 322.155 308.526 323.273 307.426 324.63C306.362 325.987 305.354 327.398 304.401 328.865C303.447 330.332 302.622 331.652 301.926 332.825C301.229 332.825 300.569 332.697 299.946 332.44C299.322 332.22 298.791 331.817 298.351 331.23C298.387 331.047 298.607 330.497 299.011 329.58C299.377 328.627 299.799 327.508 300.276 326.225C300.752 324.905 301.174 323.53 301.541 322.1C301.907 320.67 302.091 319.368 302.091 318.195C302.347 317.902 302.732 317.608 303.246 317.315C303.796 317.022 304.364 316.875 304.951 316.875C306.234 316.875 306.876 317.425 306.876 318.525C306.876 318.965 306.784 319.625 306.601 320.505C306.454 321.348 306.234 322.32 305.941 323.42C306.894 322.137 307.939 320.927 309.076 319.79C310.212 318.653 311.386 317.737 312.596 317.04C313.842 316.307 315.089 315.94 316.336 315.94C317.912 315.94 319.067 316.472 319.801 317.535C320.571 318.598 320.956 319.772 320.956 321.055C320.956 322.155 320.772 323.182 320.406 324.135C320.039 325.088 319.672 325.987 319.306 326.83C318.976 327.673 318.811 328.498 318.811 329.305C318.811 329.892 318.939 330.313 319.196 330.57C319.489 330.79 319.801 330.9 320.131 330.9C321.011 330.9 321.927 330.478 322.881 329.635C323.834 328.792 324.732 327.728 325.576 326.445C326.456 325.125 327.226 323.805 327.886 322.485L328.821 323.255C328.051 325.052 327.171 326.702 326.181 328.205C325.227 329.672 324.146 330.863 322.936 331.78C321.762 332.66 320.442 333.1 318.976 333.1ZM351.339 336.785C349.212 336.785 347.177 336.418 345.234 335.685C343.327 334.952 341.769 333.833 340.559 332.33C339.349 330.827 338.744 328.957 338.744 326.72C338.744 324.74 339.184 323.2 340.064 322.1C340.944 320.963 342.044 320.175 343.364 319.735C344.684 319.295 345.967 319.075 347.214 319.075C346.041 320.322 345.142 321.605 344.519 322.925C343.932 324.245 343.639 325.51 343.639 326.72C343.639 327.967 343.951 329.14 344.574 330.24C345.234 331.303 346.206 332.165 347.489 332.825C348.772 333.522 350.367 333.87 352.274 333.87C353.924 333.87 355.519 333.595 357.059 333.045C358.636 332.495 359.919 331.67 360.909 330.57C361.936 329.47 362.449 328.095 362.449 326.445C362.449 324.942 362.009 323.658 361.129 322.595C360.286 321.495 359.186 320.523 357.829 319.68C356.472 318.8 355.042 317.975 353.539 317.205C352.036 316.398 350.606 315.537 349.249 314.62C347.892 313.703 346.774 312.64 345.894 311.43C345.051 310.22 344.629 308.772 344.629 307.085C344.629 305.582 344.996 303.987 345.729 302.3C346.499 300.577 347.581 298.963 348.974 297.46C350.367 295.957 352.054 294.747 354.034 293.83C356.014 292.877 358.214 292.4 360.634 292.4C363.164 292.4 364.942 292.932 365.969 293.995C366.996 295.058 367.509 296.452 367.509 298.175C367.509 299.532 367.271 300.98 366.794 302.52C366.317 304.06 365.731 305.527 365.034 306.92C364.374 308.313 363.732 309.505 363.109 310.495C362.302 310.312 361.697 310 361.294 309.56C360.891 309.083 360.689 308.46 360.689 307.69C360.689 306.92 360.836 306.058 361.129 305.105C361.459 304.152 361.826 303.162 362.229 302.135C362.669 301.108 363.036 300.118 363.329 299.165C363.659 298.175 363.824 297.313 363.824 296.58C363.824 295.92 363.622 295.407 363.219 295.04C362.852 294.673 362.082 294.49 360.909 294.49C359.149 294.49 357.536 294.875 356.069 295.645C354.602 296.415 353.319 297.387 352.219 298.56C351.156 299.733 350.331 300.98 349.744 302.3C349.157 303.583 348.864 304.757 348.864 305.82C348.864 307.14 349.286 308.277 350.129 309.23C350.972 310.147 352.054 310.99 353.374 311.76C354.731 312.53 356.142 313.3 357.609 314.07C359.112 314.84 360.524 315.702 361.844 316.655C363.201 317.608 364.301 318.745 365.144 320.065C365.987 321.385 366.409 322.998 366.409 324.905C366.409 326.812 365.969 328.498 365.089 329.965C364.246 331.432 363.091 332.66 361.624 333.65C360.157 334.677 358.526 335.447 356.729 335.96C354.969 336.51 353.172 336.785 351.339 336.785ZM373.635 334.53C372.022 334.53 370.72 334.053 369.73 333.1C368.74 332.147 368.245 330.698 368.245 328.755C368.245 327.252 368.52 325.382 369.07 323.145C369.657 320.908 370.39 318.598 371.27 316.215C371.013 316.142 370.702 316.087 370.335 316.05C370.005 315.977 369.675 315.867 369.345 315.72V314.015C369.932 314.088 370.408 314.143 370.775 314.18C371.178 314.217 371.582 314.253 371.985 314.29C372.755 312.347 373.58 310.477 374.46 308.68C375.377 306.847 376.275 305.215 377.155 303.785C378.072 302.355 378.933 301.237 379.74 300.43C380.547 299.587 381.262 299.165 381.885 299.165C382.252 299.165 382.6 299.312 382.93 299.605C383.26 299.862 383.425 300.247 383.425 300.76C383.425 301.493 383.04 302.538 382.27 303.895C381.537 305.252 380.62 306.847 379.52 308.68C378.42 310.477 377.357 312.402 376.33 314.455C376.623 314.455 376.917 314.455 377.21 314.455C377.503 314.455 377.778 314.455 378.035 314.455C379.648 314.455 381.097 314.437 382.38 314.4C383.7 314.327 385.038 314.217 386.395 314.07V315.885C384.378 316.068 382.527 316.215 380.84 316.325C379.153 316.435 377.54 316.508 376 316.545C375.89 316.545 375.78 316.545 375.67 316.545C375.56 316.545 375.45 316.545 375.34 316.545C374.57 318.342 373.892 320.193 373.305 322.1C372.755 323.97 372.48 325.803 372.48 327.6C372.48 329.103 372.718 330.167 373.195 330.79C373.672 331.413 374.423 331.725 375.45 331.725C377.283 331.725 379.153 330.9 381.06 329.25C383.003 327.563 384.69 325.29 386.12 322.43L386.89 322.98C385.937 325.143 384.745 327.105 383.315 328.865C381.922 330.625 380.4 332 378.75 332.99C377.1 334.017 375.395 334.53 373.635 334.53ZM386.455 334.585C385.245 334.585 384.2 334.182 383.32 333.375C382.403 332.568 381.945 331.358 381.945 329.745C381.945 328.462 382.238 327.068 382.825 325.565C383.411 324.062 384.218 322.577 385.245 321.11C386.271 319.643 387.445 318.323 388.765 317.15C390.085 315.94 391.496 314.968 393 314.235C394.503 313.502 396.006 313.135 397.51 313.135C399.086 313.135 400.425 313.538 401.525 314.345C402.625 315.152 403.175 316.215 403.175 317.535C403.175 318.525 402.826 319.24 402.13 319.68C401.433 320.12 400.608 320.248 399.655 320.065C399.728 319.735 399.783 319.405 399.82 319.075C399.893 318.745 399.93 318.397 399.93 318.03C399.93 317.297 399.783 316.637 399.49 316.05C399.196 315.463 398.573 315.17 397.62 315.17C396.593 315.17 395.548 315.518 394.485 316.215C393.421 316.912 392.395 317.828 391.405 318.965C390.451 320.065 389.59 321.293 388.82 322.65C388.05 323.97 387.445 325.272 387.005 326.555C386.565 327.838 386.345 328.993 386.345 330.02C386.345 331.193 386.766 331.78 387.61 331.78C388.453 331.78 389.388 331.377 390.415 330.57C391.441 329.727 392.468 328.682 393.495 327.435C394.558 326.188 395.566 324.923 396.52 323.64C397.473 322.32 398.298 321.202 398.995 320.285C399.105 320.102 399.251 320.01 399.435 320.01C399.581 320.047 399.856 320.138 400.26 320.285C400.7 320.395 401.103 320.578 401.47 320.835C401.836 321.092 402.02 321.422 402.02 321.825C402.02 322.192 401.855 322.668 401.525 323.255C401.231 323.805 400.865 324.428 400.425 325.125C400.021 325.785 399.655 326.463 399.325 327.16C399.031 327.82 398.885 328.462 398.885 329.085C398.885 329.562 399.013 330.02 399.27 330.46C399.526 330.863 399.948 331.065 400.535 331.065C401.415 331.065 402.643 330.423 404.22 329.14C405.833 327.82 407.465 325.602 409.115 322.485L410.16 323.53C409.28 325.51 408.216 327.27 406.97 328.81C405.76 330.313 404.476 331.487 403.12 332.33C401.763 333.21 400.388 333.65 398.995 333.65C397.491 333.65 396.373 333.173 395.64 332.22C394.906 331.267 394.503 330.24 394.43 329.14C394.43 329.067 394.43 329.012 394.43 328.975C394.43 328.938 394.43 328.902 394.43 328.865C392.963 330.625 391.606 332.018 390.36 333.045C389.15 334.072 387.848 334.585 386.455 334.585ZM411.718 334.53C410.105 334.53 408.803 334.053 407.813 333.1C406.823 332.147 406.328 330.698 406.328 328.755C406.328 327.252 406.603 325.382 407.153 323.145C407.74 320.908 408.473 318.598 409.353 316.215C409.097 316.142 408.785 316.087 408.418 316.05C408.088 315.977 407.758 315.867 407.428 315.72V314.015C408.015 314.088 408.492 314.143 408.858 314.18C409.262 314.217 409.665 314.253 410.068 314.29C410.838 312.347 411.663 310.477 412.543 308.68C413.46 306.847 414.358 305.215 415.238 303.785C416.155 302.355 417.017 301.237 417.823 300.43C418.63 299.587 419.345 299.165 419.968 299.165C420.335 299.165 420.683 299.312 421.013 299.605C421.343 299.862 421.508 300.247 421.508 300.76C421.508 301.493 421.123 302.538 420.353 303.895C419.62 305.252 418.703 306.847 417.603 308.68C416.503 310.477 415.44 312.402 414.413 314.455C414.707 314.455 415 314.455 415.293 314.455C415.587 314.455 415.862 314.455 416.118 314.455C417.732 314.455 419.18 314.437 420.463 314.4C421.783 314.327 423.122 314.217 424.478 314.07V315.885C422.462 316.068 420.61 316.215 418.923 316.325C417.237 316.435 415.623 316.508 414.083 316.545C413.973 316.545 413.863 316.545 413.753 316.545C413.643 316.545 413.533 316.545 413.423 316.545C412.653 318.342 411.975 320.193 411.388 322.1C410.838 323.97 410.563 325.803 410.563 327.6C410.563 329.103 410.802 330.167 411.278 330.79C411.755 331.413 412.507 331.725 413.533 331.725C415.367 331.725 417.237 330.9 419.143 329.25C421.087 327.563 422.773 325.29 424.203 322.43L424.973 322.98C424.02 325.143 422.828 327.105 421.398 328.865C420.005 330.625 418.483 332 416.833 332.99C415.183 334.017 413.478 334.53 411.718 334.53ZM427.838 334.42C425.491 334.42 423.676 333.778 422.393 332.495C421.146 331.248 420.523 329.672 420.523 327.765C420.523 326.152 420.926 324.447 421.733 322.65C422.576 320.817 423.695 319.112 425.088 317.535C426.481 315.922 428.021 314.62 429.708 313.63C431.395 312.64 433.081 312.145 434.768 312.145C435.721 312.145 436.62 312.402 437.463 312.915C438.343 313.392 438.783 314.363 438.783 315.83C438.783 317.223 438.38 318.525 437.573 319.735C436.766 320.945 435.685 322.027 434.328 322.98C432.971 323.933 431.468 324.722 429.818 325.345C428.205 325.932 426.573 326.317 424.923 326.5C424.886 326.647 424.85 326.812 424.813 326.995C424.813 327.142 424.813 327.398 424.813 327.765C424.813 327.948 424.831 328.278 424.868 328.755C424.941 329.195 425.106 329.672 425.363 330.185C425.62 330.698 426.041 331.138 426.628 331.505C427.215 331.872 428.021 332.055 429.048 332.055C430.588 332.055 432.128 331.633 433.668 330.79C435.245 329.91 436.711 328.755 438.068 327.325C439.461 325.895 440.616 324.3 441.533 322.54L442.633 323.42C441.643 325.62 440.36 327.545 438.783 329.195C437.243 330.845 435.52 332.128 433.613 333.045C431.743 333.962 429.818 334.42 427.838 334.42ZM425.528 324.465C426.481 324.355 427.545 324.025 428.718 323.475C429.891 322.925 431.01 322.228 432.073 321.385C433.173 320.542 434.071 319.625 434.768 318.635C435.465 317.608 435.813 316.582 435.813 315.555C435.813 315.152 435.74 314.877 435.593 314.73C435.446 314.583 435.208 314.51 434.878 314.51C434.035 314.51 433.155 314.822 432.238 315.445C431.321 316.032 430.423 316.82 429.543 317.81C428.663 318.763 427.875 319.827 427.178 321C426.481 322.173 425.931 323.328 425.528 324.465Z" fill="#122E77"/>
<path d="M52.75 24.5H60C60.2761 24.5 60.5 24.2761 60.5 24V21.7293C60.5 21.5767 60.4874 21.4243 60.4623 21.2738L60.1265 19.2591C60.0425 18.7551 59.895 18.2637 59.6874 17.7967L59.0749 16.4184C58.4273 14.9614 58.7439 13.2561 59.8714 12.1286L60.068 11.932C60.6648 11.3352 61.4741 11 62.318 11C64.0754 11 65.5 12.4246 65.5 14.182V15V18.5V21.5C65.5 23.1569 66.8431 24.5 68.5 24.5H73.75C74.7165 24.5 75.5 25.2835 75.5 26.25C75.5 27.2165 74.7165 28 73.75 28H70.5C67.7386 28 65.5 30.2386 65.5 33V39.0341C65.5 43.1931 70.4659 45.3445 73.5 42.5L77.7888 38.4793C79.1963 37.1597 81.5 38.1577 81.5 40.0871C81.5 40.6716 81.2678 41.2322 80.8545 41.6455L74.7745 47.7255C68.0546 54.4454 57.1111 54.2845 50.5917 47.37L46.6433 43.1822C46.2301 42.7441 46 42.1646 46 41.5623C46 39.4785 48.5024 38.4161 50.0015 39.8636L53.25 43C55.9661 45.6224 60.5 43.6977 60.5 39.9222V32.75C60.5 30.1266 58.3734 28 55.75 28H52.75C51.7835 28 51 27.2165 51 26.25C51 25.2835 51.7835 24.5 52.75 24.5Z" fill="#122E77"/>
<circle cx="63" cy="16" r="4.5" fill="#E2FBFF" stroke="#122E77" stroke-width="3"/>
</svg>
