<svg width="649" height="348" viewBox="0 0 649 348" fill="none" xmlns="http://www.w3.org/2000/svg">
<rect width="649" height="348" rx="41" fill="#F4F4F4"/>
<rect x="20" y="15" width="610" height="319" rx="25" fill="#F4F4F4"/>
<rect x="23" y="18" width="604" height="313" rx="22" stroke="black" stroke-opacity="0.2" stroke-width="6"/>
<path d="M153.305 65.235C153.305 67.215 152.885 68.985 152.045 70.545C151.235 72.075 150.08 73.275 148.58 74.145C147.08 75.015 145.295 75.45 143.225 75.45C142.295 75.45 141.395 75.39 140.525 75.27C139.655 75.15 138.785 74.94 137.915 74.64C137.075 74.34 136.19 73.935 135.26 73.425V65.685C136.52 66.525 137.81 67.185 139.13 67.665C140.45 68.145 141.665 68.385 142.775 68.385C143.405 68.385 143.915 68.28 144.305 68.07C144.725 67.86 145.025 67.575 145.205 67.215C145.415 66.855 145.52 66.45 145.52 66C145.52 65.52 145.43 65.085 145.25 64.695C145.1 64.275 144.74 63.825 144.17 63.345C143.63 62.835 142.775 62.22 141.605 61.5C140.675 60.9 139.82 60.3 139.04 59.7C138.29 59.1 137.645 58.44 137.105 57.72C136.565 56.97 136.145 56.13 135.845 55.2C135.575 54.24 135.44 53.115 135.44 51.825C135.44 49.905 135.815 48.255 136.565 46.875C137.315 45.465 138.41 44.37 139.85 43.59C141.32 42.81 143.105 42.42 145.205 42.42C146.525 42.42 147.86 42.615 149.21 43.005C150.56 43.365 151.925 43.935 153.305 44.715L151.28 51.42C150.17 50.73 149.135 50.22 148.175 49.89C147.215 49.53 146.33 49.35 145.52 49.35C144.98 49.35 144.53 49.44 144.17 49.62C143.84 49.8 143.585 50.055 143.405 50.385C143.255 50.685 143.18 51.03 143.18 51.42C143.18 51.99 143.27 52.485 143.45 52.905C143.66 53.295 144.065 53.73 144.665 54.21C145.265 54.66 146.165 55.26 147.365 56.01C148.655 56.79 149.735 57.63 150.605 58.53C151.505 59.4 152.18 60.375 152.63 61.455C153.08 62.535 153.305 63.795 153.305 65.235ZM181.12 75H165.64V42.87H181.12V49.35H173.29V55.155H180.535V61.635H173.29V68.43H181.12V75ZM194.141 75V42.87H201.791V68.43H210.161V75H194.141ZM237.419 75H221.939V42.87H237.419V49.35H229.589V55.155H236.834V61.635H229.589V68.43H237.419V75ZM262.185 48.99C261.435 48.99 260.76 49.23 260.16 49.71C259.59 50.16 259.11 50.82 258.72 51.69C258.33 52.56 258.03 53.625 257.82 54.885C257.61 56.115 257.505 57.51 257.505 59.07C257.505 61.23 257.685 63.045 258.045 64.515C258.435 65.955 259.005 67.035 259.755 67.755C260.505 68.475 261.435 68.835 262.545 68.835C263.595 68.835 264.6 68.64 265.56 68.25C266.52 67.86 267.48 67.38 268.44 66.81V73.65C267.42 74.25 266.31 74.7 265.11 75C263.91 75.3 262.65 75.45 261.33 75.45C258.78 75.45 256.62 74.82 254.85 73.56C253.11 72.3 251.79 70.455 250.89 68.025C249.99 65.565 249.54 62.565 249.54 59.025C249.54 56.535 249.81 54.285 250.35 52.275C250.92 50.235 251.715 48.48 252.735 47.01C253.785 45.54 255.045 44.415 256.515 43.635C257.985 42.825 259.65 42.42 261.51 42.42C262.92 42.42 264.285 42.6 265.605 42.96C266.925 43.32 268.23 43.89 269.52 44.67L267.495 50.97C266.655 50.37 265.8 49.89 264.93 49.53C264.06 49.17 263.145 48.99 262.185 48.99ZM293.318 75H285.713V49.485H279.908V42.87H299.078V49.485H293.318V75ZM342.491 75L341.276 68.745H334.346L333.131 75H324.851L332.681 42.87H342.761L350.681 75H342.491ZM338.801 54.975C338.651 54.165 338.516 53.385 338.396 52.635C338.276 51.885 338.171 51.165 338.081 50.475C337.991 49.755 337.901 49.095 337.811 48.495C337.751 49.065 337.676 49.695 337.586 50.385C337.496 51.075 337.376 51.795 337.226 52.545C337.106 53.295 336.971 54.075 336.821 54.885L335.471 62.175H340.106L338.801 54.975ZM395.006 65.235C395.006 67.215 394.586 68.985 393.746 70.545C392.936 72.075 391.781 73.275 390.281 74.145C388.781 75.015 386.996 75.45 384.926 75.45C383.996 75.45 383.096 75.39 382.226 75.27C381.356 75.15 380.486 74.94 379.616 74.64C378.776 74.34 377.891 73.935 376.961 73.425V65.685C378.221 66.525 379.511 67.185 380.831 67.665C382.151 68.145 383.366 68.385 384.476 68.385C385.106 68.385 385.616 68.28 386.006 68.07C386.426 67.86 386.726 67.575 386.906 67.215C387.116 66.855 387.221 66.45 387.221 66C387.221 65.52 387.131 65.085 386.951 64.695C386.801 64.275 386.441 63.825 385.871 63.345C385.331 62.835 384.476 62.22 383.306 61.5C382.376 60.9 381.521 60.3 380.741 59.7C379.991 59.1 379.346 58.44 378.806 57.72C378.266 56.97 377.846 56.13 377.546 55.2C377.276 54.24 377.141 53.115 377.141 51.825C377.141 49.905 377.516 48.255 378.266 46.875C379.016 45.465 380.111 44.37 381.551 43.59C383.021 42.81 384.806 42.42 386.906 42.42C388.226 42.42 389.561 42.615 390.911 43.005C392.261 43.365 393.626 43.935 395.006 44.715L392.981 51.42C391.871 50.73 390.836 50.22 389.876 49.89C388.916 49.53 388.031 49.35 387.221 49.35C386.681 49.35 386.231 49.44 385.871 49.62C385.541 49.8 385.286 50.055 385.106 50.385C384.956 50.685 384.881 51.03 384.881 51.42C384.881 51.99 384.971 52.485 385.151 52.905C385.361 53.295 385.766 53.73 386.366 54.21C386.966 54.66 387.866 55.26 389.066 56.01C390.356 56.79 391.436 57.63 392.306 58.53C393.206 59.4 393.881 60.375 394.331 61.455C394.781 62.535 395.006 63.795 395.006 65.235ZM418.861 75H411.256V49.485H405.451V42.87H424.621V49.485H418.861V75ZM450.783 75L449.568 68.745H442.638L441.423 75H433.143L440.973 42.87H451.053L458.973 75H450.783ZM447.093 54.975C446.943 54.165 446.808 53.385 446.688 52.635C446.568 51.885 446.463 51.165 446.373 50.475C446.283 49.755 446.193 49.095 446.103 48.495C446.043 49.065 445.968 49.695 445.878 50.385C445.788 51.075 445.668 51.795 445.518 52.545C445.398 53.295 445.263 54.075 445.113 54.885L443.763 62.175H448.398L447.093 54.975ZM480.917 75H473.312V49.485H467.507V42.87H486.677V49.485H480.917V75ZM514.125 75H498.645V42.87H514.125V49.35H506.295V55.155H513.54V61.635H506.295V68.43H514.125V75Z" fill="black" fill-opacity="0.5"/>
<path d="M266.72 307L265.775 302.135H260.385L259.44 307H253L259.09 282.01H266.93L273.09 307H266.72ZM263.85 291.425C263.733 290.795 263.628 290.188 263.535 289.605C263.442 289.022 263.36 288.462 263.29 287.925C263.22 287.365 263.15 286.852 263.08 286.385C263.033 286.828 262.975 287.318 262.905 287.855C262.835 288.392 262.742 288.952 262.625 289.535C262.532 290.118 262.427 290.725 262.31 291.355L261.26 297.025H264.865L263.85 291.425ZM294.133 282.01C296.023 282.01 297.574 282.232 298.788 282.675C300.024 283.118 300.946 283.807 301.553 284.74C302.159 285.65 302.463 286.817 302.463 288.24C302.463 289.15 302.323 289.99 302.043 290.76C301.786 291.507 301.413 292.137 300.923 292.65C300.433 293.163 299.861 293.525 299.208 293.735V293.91C300.071 294.167 300.771 294.563 301.308 295.1C301.844 295.613 302.241 296.255 302.498 297.025C302.754 297.772 302.883 298.658 302.883 299.685C302.883 301.178 302.556 302.473 301.903 303.57C301.249 304.667 300.316 305.518 299.103 306.125C297.913 306.708 296.489 307 294.833 307H286.888V282.01H294.133ZM294.133 291.74C294.879 291.74 295.451 291.53 295.848 291.11C296.244 290.667 296.443 290.013 296.443 289.15C296.443 288.38 296.244 287.808 295.848 287.435C295.451 287.038 294.844 286.84 294.028 286.84H292.838V291.74H294.133ZM292.838 296.395V302.065H294.378C295.194 302.065 295.801 301.832 296.198 301.365C296.594 300.875 296.793 300.152 296.793 299.195C296.793 298.588 296.699 298.087 296.513 297.69C296.326 297.27 296.046 296.955 295.673 296.745C295.299 296.512 294.844 296.395 294.308 296.395H292.838ZM336.434 294.47C336.434 296.57 336.224 298.425 335.804 300.035C335.408 301.622 334.813 302.963 334.019 304.06C333.226 305.157 332.234 305.985 331.044 306.545C329.854 307.082 328.489 307.35 326.949 307.35C325.409 307.35 324.044 307.07 322.854 306.51C321.688 305.95 320.696 305.133 319.879 304.06C319.063 302.963 318.444 301.61 318.024 300C317.628 298.39 317.429 296.535 317.429 294.435C317.429 291.658 317.791 289.325 318.514 287.435C319.238 285.522 320.311 284.075 321.734 283.095C323.158 282.115 324.896 281.625 326.949 281.625C329.026 281.625 330.764 282.115 332.164 283.095C333.588 284.052 334.649 285.487 335.349 287.4C336.073 289.29 336.434 291.647 336.434 294.47ZM323.624 294.47C323.624 296.173 323.741 297.597 323.974 298.74C324.231 299.86 324.604 300.712 325.094 301.295C325.608 301.855 326.226 302.135 326.949 302.135C327.696 302.135 328.314 301.867 328.804 301.33C329.294 300.77 329.656 299.93 329.889 298.81C330.123 297.667 330.239 296.22 330.239 294.47C330.239 291.833 329.959 289.885 329.399 288.625C328.863 287.365 328.046 286.735 326.949 286.735C326.226 286.735 325.608 287.027 325.094 287.61C324.604 288.17 324.231 289.022 323.974 290.165C323.741 291.308 323.624 292.743 323.624 294.47ZM369.093 282.01L362.723 307H355.793L349.493 282.01H355.723L358.243 294.33C358.36 294.867 358.488 295.543 358.628 296.36C358.768 297.153 358.897 297.947 359.013 298.74C359.13 299.51 359.212 300.152 359.258 300.665C359.328 300.152 359.422 299.51 359.538 298.74C359.655 297.97 359.783 297.188 359.923 296.395C360.063 295.578 360.192 294.902 360.308 294.365L362.863 282.01H369.093ZM394.908 307H382.868V282.01H394.908V287.05H388.818V291.565H394.453V296.605H388.818V301.89H394.908V307Z" fill="black" fill-opacity="0.2"/>
</svg>
