<svg width="649" height="356" viewBox="0 0 649 356" fill="none" xmlns="http://www.w3.org/2000/svg">
<rect y="8" width="649" height="348" rx="41" fill="url(#paint0_radial_1068_348)"/>
<path fill-rule="evenodd" clip-rule="evenodd" d="M649 143.666V315C649 337.644 630.644 356 608 356H41C18.3563 356 0 337.644 0 315V146.732L9.56145 137.631L15.6575 117.997H25.2371V107.962L52.2339 104.471L79.6663 113.634L101.438 131.959L110.582 137.631L123.21 121.487L131.918 110.143L141.498 99.2357L158.044 94L173.72 95.7452L186.783 101.854L198.975 110.143L209.861 121.487L218.57 141.121L225.101 146.357L239.035 141.121L258.629 139.376L283.014 141.121L296.077 146.357L305.221 152.901L314.365 161.627L320.461 169.481L323.509 180.825L326.122 189.551L328.299 193.478H331.782H340.926H353.554H367.052L377.067 196.532L383.163 199.586L392.743 206.567L400.581 211.803L407.548 218.783H412.773L419.304 215.293H425.401L429.755 209.185L431.497 203.076L434.109 193.478L437.593 187.806L443.253 183.443H450.22L454.139 179.08L461.977 175.153L474.604 172.099H486.361L500.731 173.844L519.454 172.099L535.13 159.01L550.37 144.175L566.046 130.65L581.286 128.032L606.976 130.65L620.039 132.831H630.925L636.586 135.013L649 143.666Z" fill="url(#paint1_linear_1068_348)"/>
<path d="M220.949 53.8398C220.363 52.7617 219.484 51.7891 218.312 50.9219C217.141 50.0547 215.816 49.3633 214.34 48.8477C212.887 48.3086 211.363 47.9102 209.77 47.6523C205.035 46.9492 200.617 45.4141 196.516 43.0469C196.164 42.8594 195.789 42.4609 195.391 41.8516C194.992 41.2422 194.793 40.6562 194.793 40.0938C194.793 38.0312 195.133 35.9688 195.812 33.9062C196.516 31.8203 197.406 30.1914 198.484 29.0195C200.219 27.0742 203.336 25.375 207.836 23.9219C212.359 22.4688 217.445 21.7422 223.094 21.7422C226.469 21.7422 229.07 22 230.898 22.5156C232.75 23.0313 233.676 23.8281 233.676 24.9062C233.676 26.6641 233.43 28.0234 232.938 28.9844C232.469 29.9453 231.953 30.5898 231.391 30.918C230.852 31.2227 229.891 31.6445 228.508 32.1836C227.031 32.6992 225.742 33.2383 224.641 33.8008C223.562 34.3633 222.637 34.9023 221.863 35.418C221.09 35.9336 220.609 36.1914 220.422 36.1914C220.188 36.1914 220.07 36.0977 220.07 35.9102C220.07 35.5117 220.48 34.9141 221.301 34.1172C222.145 33.2969 223.176 32.582 224.395 31.9727C225.684 31.293 226.328 30.8594 226.328 30.6719C226.328 30.3672 225.613 30.2148 224.184 30.2148C219.848 30.2148 215.84 30.6016 212.16 31.375C208.48 32.1484 205.574 33.168 203.441 34.4336C201.332 35.6992 200.277 36.9883 200.277 38.3008C200.277 39.1211 200.711 39.707 201.578 40.0586C202.469 40.3867 204.414 40.9492 207.414 41.7461C210.414 42.543 213.098 43.457 215.465 44.4883C218.863 45.9414 221.383 47.4531 223.023 49.0234C224.664 50.5938 225.484 52.3516 225.484 54.2969C225.484 55.6328 225.156 56.9805 224.5 58.3398C223.867 59.6758 222.93 60.9062 221.688 62.0312C220.445 63.1562 219.016 64.082 217.398 64.8086C216.016 65.3945 214.27 65.9453 212.16 66.4609C210.074 66.9766 207.801 67.375 205.34 67.6562C202.902 67.9609 200.57 68.1133 198.344 68.1133C194.242 68.1133 190.938 67.7266 188.43 66.9531C185.945 66.1797 184.703 65.0078 184.703 63.4375C184.703 62.7344 185.125 61.6445 185.969 60.168C186.812 58.668 187.809 57.6602 188.957 57.1445C189.965 56.7461 190.938 56.5234 191.875 56.4766C192.812 56.4062 193.281 56.5117 193.281 56.793C193.281 56.8633 193.246 56.9336 193.176 57.0039C193.105 57.0742 193.023 57.1328 192.93 57.1797C192.836 57.2266 192.742 57.2734 192.648 57.3203C192.18 57.5078 191.793 57.6602 191.488 57.7773C191.207 57.8711 190.973 57.9766 190.785 58.0938C190.621 58.1875 190.539 58.3281 190.539 58.5156C190.539 59.0078 192.965 59.2539 197.816 59.2539C202.035 59.2539 205.492 59.1016 208.188 58.7969C210.883 58.4922 213.262 57.9414 215.324 57.1445C217.387 56.3477 219.262 55.2461 220.949 53.8398ZM249.035 52.8555V55.2109C247.488 56.6172 246.246 57.5547 245.308 58.0234C244.371 58.4922 243.023 58.6797 241.265 58.5859C238.218 62.1953 235.535 64 233.215 64C231.902 64 230.707 63.5664 229.629 62.6992C228.55 61.832 227.683 60.6484 227.027 59.1484C226.394 57.6484 226.078 55.9727 226.078 54.1211C226.078 52.6211 226.57 50.957 227.554 49.1289C228.562 47.3008 229.851 45.6016 231.422 44.0312C233.015 42.4375 234.715 41.1602 236.519 40.1992C238.324 39.2148 240 38.7227 241.547 38.7227C242.648 38.7227 243.515 38.8984 244.148 39.25C244.781 39.5781 245.097 40.0469 245.097 40.6562C245.097 41.125 244.828 41.6641 244.289 42.2734C245.179 42.4609 245.789 42.7773 246.117 43.2227C246.445 43.6445 246.609 44.4297 246.609 45.5781C246.609 46.7031 246.34 48.1211 245.8 49.832C245.285 51.543 244.57 53.1484 243.656 54.6484L244.289 55.2812H244.816C245.215 55.2812 245.601 55.1875 245.976 55C246.375 54.7891 246.726 54.5781 247.031 54.3672C247.336 54.1328 248.004 53.6289 249.035 52.8555ZM241.793 43.6094C239.847 44.7812 238.183 45.8477 236.8 46.8086C235.418 47.7461 234.246 48.707 233.285 49.6914C232.324 50.6523 231.679 51.625 231.351 52.6094C230.765 55.2344 230.472 56.6523 230.472 56.8633C230.472 58.4102 231.55 59.1836 233.707 59.1836C234.715 59.1836 236.402 58.3164 238.769 56.582C238.371 55.4805 238.172 54.4258 238.172 53.418C238.172 51.9414 238.476 50.4414 239.086 48.918C239.695 47.3711 240.597 45.6016 241.793 43.6094ZM260.878 50.5352C257.48 55.0352 254.89 58.2344 253.109 60.1328C251.351 62.0312 249.91 62.9805 248.785 62.9805C247.894 62.9805 247.074 62.6172 246.324 61.8906C245.574 61.1406 244.988 60.1445 244.566 58.9023C244.167 57.6367 243.968 56.2891 243.968 54.8594C243.968 53.9219 244.05 53.0781 244.214 52.3281C244.402 51.5781 244.742 50.7578 245.234 49.8672C245.726 48.9531 246.37 47.9688 247.167 46.9141C247.988 45.8594 248.984 44.6641 250.156 43.3281C250.859 42.5078 251.445 41.8164 251.913 41.2539C252.406 40.6914 252.874 40.3164 253.32 40.1289C253.788 39.918 254.538 39.8125 255.57 39.8125C256.32 39.8125 257.035 39.918 257.714 40.1289C258.394 40.3164 258.734 40.5156 258.734 40.7266C258.734 41.1484 258.382 41.9102 257.679 43.0117C256.999 44.1133 255.886 45.4609 254.339 47.0547C252.816 48.625 251.046 50.1719 249.031 51.6953C248.585 53.0781 248.363 54.1328 248.363 54.8594C248.363 55.8672 248.749 56.3711 249.523 56.3711C249.804 56.3711 250.273 56.1367 250.929 55.668C251.585 55.1758 252.687 54.25 254.234 52.8906C255.804 51.5078 257.21 50.2891 258.452 49.2344C259.367 48.4375 260.421 47.2539 261.617 45.6836C262.835 44.0898 263.82 42.8945 264.57 42.0977C266.304 40.2695 267.488 39.0859 268.12 38.5469C268.753 37.9844 269.363 37.7031 269.949 37.7031C270.511 37.7031 270.886 37.8789 271.074 38.2305C271.285 38.582 271.39 39.2969 271.39 40.375C271.39 40.8672 271.343 41.2656 271.249 41.5703C271.156 41.875 270.956 42.2734 270.652 42.7656C270.37 43.2344 269.785 44.1133 268.894 45.4023C268.003 46.6914 266.949 48.2148 265.73 49.9727C265.074 50.9102 264.499 51.9414 264.007 53.0664C263.515 54.168 263.269 55 263.269 55.5625C263.269 56.7812 263.749 57.3906 264.71 57.3906C265.507 57.3906 266.433 57.0625 267.488 56.4062C268.542 55.75 270.16 54.5664 272.339 52.8555V55.2109C269.597 57.7422 267.57 59.582 266.257 60.7305C264.945 61.8789 263.808 62.7461 262.847 63.332C261.886 63.918 260.972 64.2109 260.105 64.2109C258.136 64.2109 257.152 63.0391 257.152 60.6953C257.152 59.8047 257.445 58.6094 258.031 57.1094C258.617 55.5859 259.566 53.3945 260.878 50.5352ZM279.683 34.6797H281.194C282.437 32.4531 283.562 30.8828 284.569 29.9688C285.577 29.0312 286.726 28.5625 288.015 28.5625C289.304 28.5625 289.948 28.8555 289.948 29.4414C289.948 29.7227 289.444 30.4844 288.437 31.7266C287.429 32.9688 286.667 34.0117 286.151 34.8555C286.948 34.9492 287.651 35.0312 288.261 35.1016C288.894 35.1719 289.386 35.2305 289.737 35.2773C288.401 37.7617 286.726 40.3047 284.71 42.9062C284.054 42.8594 283.503 42.8242 283.058 42.8008C282.612 42.7539 282.155 42.7188 281.687 42.6953C281.241 42.6484 280.69 42.6016 280.034 42.5547C278.769 44.5938 277.702 46.4219 276.835 48.0391C275.991 49.6328 275.335 51.0977 274.866 52.4336C274.421 53.7695 274.198 55.0352 274.198 56.2305C274.198 57.8477 274.843 58.6562 276.132 58.6562C277.022 58.6562 278.183 58.1875 279.612 57.25C281.065 56.2891 282.999 54.8242 285.413 52.8555V55.2109C279.085 62.0781 274.409 65.5117 271.386 65.5117C270.331 65.5117 269.476 65.1016 268.819 64.2812C268.187 63.4609 267.87 62.4062 267.87 61.1172C267.87 60.25 268.046 59.2188 268.397 58.0234C268.772 56.8281 269.429 55.0234 270.366 52.6094C270.038 52.8906 269.722 53.1719 269.417 53.4531C269.136 53.7109 268.866 53.957 268.608 54.1914C268.374 54.4023 268.116 54.6367 267.835 54.8945C267.554 55.1289 267.272 55.375 266.991 55.6328V53.207C269.452 51.1445 272.429 47.5234 275.921 42.3438C275.569 42.3203 275.241 42.3086 274.937 42.3086C274.632 42.2852 274.269 42.2734 273.847 42.2734C272.464 42.2734 271.433 42.3672 270.753 42.5547C270.472 42.625 270.202 42.707 269.944 42.8008C269.71 42.8711 269.546 42.9062 269.452 42.9062C269.358 42.9062 269.312 42.8359 269.312 42.6953C269.312 41.9219 269.792 40.7617 270.753 39.2148C271.526 37.9023 272.253 36.9297 272.933 36.2969C273.636 35.6641 274.48 35.2422 275.464 35.0312C276.472 34.7969 277.878 34.6797 279.683 34.6797ZM306.96 52.9258V55.1406C304.921 57.2266 303.151 58.9375 301.651 60.2734C300.175 61.5859 298.874 62.582 297.749 63.2617C296.647 63.9414 295.71 64.2812 294.936 64.2812C293.108 64.2812 292.194 63.2031 292.194 61.0469C292.194 59.3125 292.757 57.3086 293.882 55.0352C295.03 52.7383 296.671 50.043 298.803 46.9492C297.749 47.5352 296.753 48.2148 295.815 48.9883C294.878 49.7383 294.046 50.5352 293.319 51.3789C292.592 52.1992 291.983 52.9023 291.491 53.4883C289.967 55.1992 288.503 56.957 287.096 58.7617C285.69 60.543 284.741 61.7031 284.249 62.2422C283.757 62.7812 283.288 63.0508 282.842 63.0508C281.014 63.0508 280.1 60.8008 280.1 56.3008C280.1 54.8242 280.323 53.1953 280.768 51.4141C281.214 49.6328 282.409 47.2773 284.354 44.3477C288.456 38.207 291.96 33.1914 294.866 29.3008C297.796 25.3867 300.221 22.4336 302.143 20.4414C304.065 18.4258 305.354 17.4414 306.01 17.4883C306.831 17.5586 307.487 17.7227 307.979 17.9805C308.495 18.2383 308.753 18.5313 308.753 18.8594C308.753 19.4453 308.342 20.418 307.522 21.7773C306.725 23.1133 305.342 25.2109 303.374 28.0703C301.241 31.0938 299.729 33.2266 298.839 34.4688C297.948 35.6875 296.612 37.4336 294.831 39.707C293.073 41.957 291.456 43.9727 289.979 45.7539C288.526 47.5117 286.862 49.4219 284.987 51.4844V55.7031C288.128 52.2109 290.846 49.3516 293.143 47.125C295.44 44.8984 297.385 43.2227 298.979 42.0977C300.573 40.9492 301.745 40.375 302.495 40.375C303.198 40.375 303.854 40.7969 304.464 41.6406C305.073 42.4609 305.378 43.1406 305.378 43.6797C305.378 43.9141 305.26 44.207 305.026 44.5586C303.339 46.5742 301.991 48.25 300.983 49.5859C299.999 50.8984 299.237 52.082 298.698 53.1367C298.159 54.168 297.889 55.0586 297.889 55.8086C297.889 56.9102 298.417 57.4609 299.471 57.4609C300.596 57.4609 303.092 55.9492 306.96 52.9258ZM321.014 33.0977C321.014 33.2617 321.166 33.3438 321.471 33.3438C321.682 33.3438 322.631 33.2031 324.318 32.9219C326.029 32.6406 327.576 32.4883 328.959 32.4648C327.412 32.8867 326.076 33.3203 324.951 33.7656C323.85 34.1875 322.701 34.668 321.506 35.207C320.334 35.7227 319.49 36.0742 318.975 36.2617C318.459 36.4258 318.014 36.5078 317.639 36.5078C316.443 36.5078 315.846 35.7344 315.846 34.1875C315.846 30.2031 316.854 27.4023 318.869 25.7852C319.69 25.1289 321.002 24.3555 322.807 23.4648C324.635 22.5508 326.686 21.6953 328.959 20.8984C331.256 20.0781 333.775 19.375 336.518 18.7891C339.26 18.2031 341.967 17.9102 344.639 17.9102C347.381 17.9102 349.9 18.3086 352.197 19.1055C354.494 19.9023 356.416 21.0273 357.963 22.4805C359.51 23.9102 360.693 25.668 361.514 27.7539C362.357 29.8398 362.779 32.1836 362.779 34.7852C362.779 38.7461 361.631 42.5898 359.334 46.3164C357.061 50.043 354.014 53.3359 350.193 56.1953C346.397 59.0312 342.107 61.2812 337.326 62.9453C332.545 64.6094 327.834 65.4414 323.193 65.4414C322.326 65.4414 321.635 65.3477 321.119 65.1602C320.627 64.9727 320.275 64.5977 320.065 64.0352C319.854 63.4961 319.748 62.6875 319.748 61.6094C319.748 60.2734 319.854 59.1836 320.065 58.3398C320.275 57.4961 320.627 56.5234 321.119 55.4219C324.494 47.9453 330.365 38.5352 338.732 27.1914C337.045 27.3789 335.193 27.7422 333.178 28.2812C331.162 28.7969 329.252 29.3711 327.447 30.0039C325.643 30.6367 324.119 31.2461 322.877 31.832C321.635 32.418 321.014 32.8398 321.014 33.0977ZM339.752 26.9805C339.752 27.0273 339.799 27.2969 339.893 27.7891C339.986 28.2578 340.033 28.668 340.033 29.0195C340.033 29.5586 339.752 30.3203 339.19 31.3047C338.65 32.2656 337.572 33.9883 335.955 36.4727C334.338 38.957 332.955 41.1367 331.807 43.0117C330.658 44.8867 329.299 47.3008 327.729 50.2539C327.236 51.1914 326.897 51.8242 326.709 52.1523C326.522 52.4805 326.217 53.0195 325.795 53.7695C325.397 54.5195 325.104 55.1641 324.916 55.7031C324.729 56.2422 324.635 56.6523 324.635 56.9336C324.635 57.543 324.963 57.9766 325.619 58.2344C326.299 58.4688 327.26 58.5859 328.502 58.5859C331.69 58.5859 335.065 58.0117 338.627 56.8633C342.19 55.6914 345.529 54.0742 348.647 52.0117C351.787 49.9492 354.295 47.6172 356.17 45.0156C358.045 42.4141 358.982 39.6953 358.982 36.8594C358.982 33.625 357.799 31.1406 355.432 29.4062C353.065 27.6484 349.619 26.7695 345.096 26.7695C343.197 26.7695 341.416 26.8398 339.752 26.9805ZM363.83 46.6328C367.392 43.3984 370.849 40.9961 374.201 39.4258C377.553 37.8555 380.142 37.0703 381.97 37.0703C382.463 37.0703 382.92 37.2812 383.342 37.7031C383.763 38.1016 384.092 38.5703 384.326 39.1094C384.584 39.6484 384.713 40.0469 384.713 40.3047C384.713 40.7266 384.549 41.043 384.22 41.2539C383.892 41.4414 383.318 41.6758 382.498 41.957C382.662 42.332 382.873 42.8125 383.131 43.3984C383.388 43.9844 383.588 44.4648 383.728 44.8398C383.869 45.1914 383.939 45.5078 383.939 45.7891C383.939 46.3516 383.365 47.4062 382.217 48.9531C381.092 50.4766 380.295 51.6016 379.826 52.3281C379.381 53.0547 379.158 53.9453 379.158 55C379.158 56.7344 379.955 57.6016 381.549 57.6016C383.189 57.6016 385.756 56.0664 389.248 52.9961V55.1406C383.318 61.7266 379.076 65.0195 376.521 65.0195C375.607 65.0195 374.951 64.7148 374.553 64.1055C374.178 63.5195 373.99 62.6406 373.99 61.4688C373.99 59.6172 374.658 56.9336 375.994 53.418C372.572 57.2148 370.029 59.9219 368.365 61.5391C366.701 63.1328 365.33 63.9297 364.252 63.9297C363.736 63.9297 363.092 63.4844 362.318 62.5938C361.545 61.7031 360.853 60.5547 360.244 59.1484C359.658 57.7188 359.365 56.2422 359.365 54.7188C359.365 53.6172 359.47 52.7031 359.681 51.9766C359.892 51.2266 360.303 50.4648 360.912 49.6914C361.521 48.918 362.494 47.8984 363.83 46.6328ZM380.67 42.7656C374.576 45.5547 370.228 47.9219 367.627 49.8672C365.049 51.8125 363.76 53.8164 363.76 55.8789C363.76 56.6289 363.888 57.25 364.146 57.7422C364.404 58.2109 364.756 58.4453 365.201 58.4453C365.459 58.4453 365.916 58.2812 366.572 57.9531C369.033 56.5 371.283 54.6133 373.322 52.293C375.361 49.9492 377.81 46.7734 380.67 42.7656ZM410.794 52.9258V55.2812C408.169 58.3516 405.966 60.6836 404.185 62.2773C402.404 63.8477 400.915 64.6328 399.72 64.6328C398.572 64.6328 397.529 64.293 396.591 63.6133C395.677 62.9336 394.845 61.9961 394.095 60.8008C393.369 59.6055 392.501 57.9414 391.494 55.8086C390.298 57.2852 389.22 58.668 388.259 59.957C387.298 61.2227 386.63 62.0664 386.255 62.4883C385.88 62.9102 385.54 63.1211 385.236 63.1211C384.603 63.1211 384.146 62.7227 383.865 61.9258C383.583 61.1055 383.443 59.9219 383.443 58.375C383.443 56.2656 383.689 54.2383 384.181 52.293C384.697 50.3242 385.423 48.4141 386.361 46.5625C387.322 44.7109 388.54 42.7188 390.017 40.5859C391.517 38.4297 393.193 36.1797 395.044 33.8359C397.599 30.6016 399.802 27.9648 401.654 25.9258C403.505 23.8633 405.111 22.3164 406.47 21.2852C407.853 20.2305 409.001 19.7031 409.915 19.7031C411.04 19.7031 411.603 20.207 411.603 21.2148C411.603 22.082 409.529 25.2109 405.38 30.6016C401.232 35.9688 395.185 43.3047 387.24 52.6094V55.6328C392.56 49.9375 396.837 45.707 400.072 42.9414C403.33 40.1758 405.849 38.793 407.63 38.793C408.357 38.793 408.919 39.2266 409.318 40.0938C409.716 40.9375 409.915 41.9219 409.915 43.0469C409.915 45.3438 408.931 47.4766 406.962 49.4453C404.994 51.3906 401.97 53.6289 397.892 56.1602C398.595 57.2148 399.216 57.9883 399.755 58.4805C400.294 58.9492 400.974 59.1836 401.794 59.1836C402.521 59.1836 403.306 58.9375 404.15 58.4453C404.994 57.9531 405.849 57.332 406.716 56.582C407.607 55.832 408.966 54.6133 410.794 52.9258ZM396.908 54.7188C397.798 54.1328 398.9 53.2305 400.212 52.0117C401.548 50.7695 402.685 49.4922 403.622 48.1797C404.56 46.8438 405.029 45.7305 405.029 44.8398C405.029 44.4648 404.865 44.2773 404.537 44.2773C403.646 44.2773 402.111 45.1328 399.931 46.8438C397.775 48.5547 395.665 50.7461 393.603 53.418C394.494 53.418 395.595 53.8516 396.908 54.7188ZM428.509 52.8555V55.2109C426.962 56.6172 425.72 57.5547 424.782 58.0234C423.845 58.4922 422.497 58.6797 420.739 58.5859C417.693 62.1953 415.009 64 412.689 64C411.376 64 410.181 63.5664 409.103 62.6992C408.025 61.832 407.157 60.6484 406.501 59.1484C405.868 57.6484 405.552 55.9727 405.552 54.1211C405.552 52.6211 406.044 50.957 407.028 49.1289C408.036 47.3008 409.325 45.6016 410.896 44.0312C412.489 42.4375 414.189 41.1602 415.993 40.1992C417.798 39.2148 419.474 38.7227 421.021 38.7227C422.122 38.7227 422.989 38.8984 423.622 39.25C424.255 39.5781 424.571 40.0469 424.571 40.6562C424.571 41.125 424.302 41.6641 423.763 42.2734C424.653 42.4609 425.263 42.7773 425.591 43.2227C425.919 43.6445 426.083 44.4297 426.083 45.5781C426.083 46.7031 425.814 48.1211 425.275 49.832C424.759 51.543 424.044 53.1484 423.13 54.6484L423.763 55.2812H424.29C424.689 55.2812 425.075 55.1875 425.45 55C425.849 54.7891 426.2 54.5781 426.505 54.3672C426.81 54.1328 427.478 53.6289 428.509 52.8555ZM421.267 43.6094C419.321 44.7812 417.657 45.8477 416.275 46.8086C414.892 47.7461 413.72 48.707 412.759 49.6914C411.798 50.6523 411.153 51.625 410.825 52.6094C410.239 55.2344 409.946 56.6523 409.946 56.8633C409.946 58.4102 411.025 59.1836 413.181 59.1836C414.189 59.1836 415.876 58.3164 418.243 56.582C417.845 55.4805 417.646 54.4258 417.646 53.418C417.646 51.9414 417.95 50.4414 418.56 48.918C419.169 47.3711 420.071 45.6016 421.267 43.6094ZM436.134 34.6797H437.645C438.887 32.4531 440.012 30.8828 441.02 29.9688C442.028 29.0312 443.177 28.5625 444.466 28.5625C445.755 28.5625 446.399 28.8555 446.399 29.4414C446.399 29.7227 445.895 30.4844 444.887 31.7266C443.88 32.9688 443.118 34.0117 442.602 34.8555C443.399 34.9492 444.102 35.0312 444.712 35.1016C445.345 35.1719 445.837 35.2305 446.188 35.2773C444.852 37.7617 443.177 40.3047 441.161 42.9062C440.505 42.8594 439.954 42.8242 439.509 42.8008C439.063 42.7539 438.606 42.7188 438.137 42.6953C437.692 42.6484 437.141 42.6016 436.485 42.5547C435.22 44.5938 434.153 46.4219 433.286 48.0391C432.442 49.6328 431.786 51.0977 431.317 52.4336C430.872 53.7695 430.649 55.0352 430.649 56.2305C430.649 57.8477 431.294 58.6562 432.583 58.6562C433.473 58.6562 434.634 58.1875 436.063 57.25C437.516 56.2891 439.45 54.8242 441.864 52.8555V55.2109C435.536 62.0781 430.86 65.5117 427.837 65.5117C426.782 65.5117 425.927 65.1016 425.27 64.2812C424.637 63.4609 424.321 62.4062 424.321 61.1172C424.321 60.25 424.497 59.2188 424.848 58.0234C425.223 56.8281 425.88 55.0234 426.817 52.6094C426.489 52.8906 426.173 53.1719 425.868 53.4531C425.587 53.7109 425.317 53.957 425.059 54.1914C424.825 54.4023 424.567 54.6367 424.286 54.8945C424.005 55.1289 423.723 55.375 423.442 55.6328V53.207C425.903 51.1445 428.88 47.5234 432.372 42.3438C432.02 42.3203 431.692 42.3086 431.387 42.3086C431.083 42.2852 430.72 42.2734 430.298 42.2734C428.915 42.2734 427.884 42.3672 427.204 42.5547C426.923 42.625 426.653 42.707 426.395 42.8008C426.161 42.8711 425.997 42.9062 425.903 42.9062C425.809 42.9062 425.762 42.8359 425.762 42.6953C425.762 41.9219 426.243 40.7617 427.204 39.2148C427.977 37.9023 428.704 36.9297 429.384 36.2969C430.087 35.6641 430.93 35.2422 431.915 35.0312C432.923 34.7969 434.329 34.6797 436.134 34.6797ZM441.227 46.6328C444.79 43.3984 448.247 40.9961 451.598 39.4258C454.95 37.8555 457.54 37.0703 459.368 37.0703C459.86 37.0703 460.317 37.2812 460.739 37.7031C461.161 38.1016 461.489 38.5703 461.723 39.1094C461.981 39.6484 462.11 40.0469 462.11 40.3047C462.11 40.7266 461.946 41.043 461.618 41.2539C461.29 41.4414 460.715 41.6758 459.895 41.957C460.059 42.332 460.27 42.8125 460.528 43.3984C460.786 43.9844 460.985 44.4648 461.125 44.8398C461.266 45.1914 461.336 45.5078 461.336 45.7891C461.336 46.3516 460.762 47.4062 459.614 48.9531C458.489 50.4766 457.692 51.6016 457.223 52.3281C456.778 53.0547 456.555 53.9453 456.555 55C456.555 56.7344 457.352 57.6016 458.946 57.6016C460.586 57.6016 463.153 56.0664 466.645 52.9961V55.1406C460.715 61.7266 456.473 65.0195 453.918 65.0195C453.004 65.0195 452.348 64.7148 451.95 64.1055C451.575 63.5195 451.387 62.6406 451.387 61.4688C451.387 59.6172 452.055 56.9336 453.391 53.418C449.969 57.2148 447.426 59.9219 445.762 61.5391C444.098 63.1328 442.727 63.9297 441.649 63.9297C441.133 63.9297 440.489 63.4844 439.715 62.5938C438.942 61.7031 438.25 60.5547 437.641 59.1484C437.055 57.7188 436.762 56.2422 436.762 54.7188C436.762 53.6172 436.868 52.7031 437.079 51.9766C437.29 51.2266 437.7 50.4648 438.309 49.6914C438.918 48.918 439.891 47.8984 441.227 46.6328ZM458.067 42.7656C451.973 45.5547 447.625 47.9219 445.024 49.8672C442.446 51.8125 441.157 53.8164 441.157 55.8789C441.157 56.6289 441.286 57.25 441.543 57.7422C441.801 58.2109 442.153 58.4453 442.598 58.4453C442.856 58.4453 443.313 58.2812 443.969 57.9531C446.43 56.5 448.68 54.6133 450.719 52.293C452.758 49.9492 455.208 46.7734 458.067 42.7656Z" fill="#C41929"/>
<path d="M315.294 73.3581C341.203 61.9813 427.354 59.6318 488.577 76.9995C338.093 52.0605 310.327 86.6477 315.294 73.3581Z" fill="#C41929"/>
<path d="M228.406 82.166H232.503V88.49C231.914 88.7053 231.302 88.8753 230.667 89C230.044 89.1133 229.381 89.17 228.678 89.17C227.624 89.17 226.734 88.9207 226.009 88.422C225.284 87.9233 224.734 87.2037 224.36 86.263C223.986 85.3223 223.799 84.2003 223.799 82.897C223.799 81.6277 224.009 80.534 224.428 79.616C224.847 78.6867 225.459 77.967 226.264 77.457C227.069 76.947 228.049 76.692 229.205 76.692C229.806 76.692 230.378 76.7657 230.922 76.913C231.466 77.049 231.953 77.2303 232.384 77.457L231.653 79.412C231.29 79.1967 230.905 79.0323 230.497 78.919C230.1 78.7943 229.687 78.732 229.256 78.732C228.621 78.732 228.083 78.902 227.641 79.242C227.199 79.5707 226.865 80.0523 226.638 80.687C226.411 81.3103 226.298 82.0697 226.298 82.965C226.298 83.7923 226.383 84.5233 226.553 85.158C226.734 85.7813 227.012 86.263 227.386 86.603C227.76 86.943 228.242 87.113 228.831 87.113C229.012 87.113 229.177 87.1073 229.324 87.096C229.483 87.0733 229.63 87.0507 229.766 87.028C229.902 86.994 230.032 86.96 230.157 86.926V84.189H228.406V82.166ZM237.775 76.862C238.739 76.862 239.532 76.9923 240.155 77.253C240.779 77.5137 241.243 77.9103 241.549 78.443C241.867 78.9643 242.025 79.6217 242.025 80.415C242.025 80.9363 241.952 81.401 241.804 81.809C241.657 82.217 241.442 82.574 241.158 82.88C240.875 83.186 240.535 83.4523 240.138 83.679L242.96 89H240.308L238.047 84.274H237.146V89H234.749V76.862H237.775ZM237.707 78.868H237.146V82.353H237.758C238.178 82.353 238.518 82.285 238.778 82.149C239.05 82.013 239.249 81.809 239.373 81.537C239.509 81.265 239.577 80.925 239.577 80.517C239.577 80.1317 239.509 79.82 239.373 79.582C239.249 79.344 239.045 79.1683 238.761 79.055C238.489 78.9303 238.138 78.868 237.707 78.868ZM250.112 89H244.196V76.862H250.112V78.885H246.593V81.69H249.857V83.713H246.593V86.943H250.112V89ZM258.115 89L257.418 86.093H254.188L253.491 89H250.907L254.256 76.845H257.299L260.682 89H258.115ZM256.245 80.925C256.2 80.6757 256.149 80.4207 256.092 80.16C256.036 79.888 255.979 79.6273 255.922 79.378C255.877 79.1173 255.837 78.885 255.803 78.681C255.769 78.885 255.724 79.1173 255.667 79.378C255.622 79.6387 255.571 79.905 255.514 80.177C255.458 80.4377 255.401 80.6813 255.344 80.908L254.63 84.019H256.976L256.245 80.925ZM265.34 89H262.96V78.919H260.393V76.862H267.907V78.919H265.34V89ZM275.23 89H272.85V76.862H278.732V78.885H275.23V82.132H278.494V84.155H275.23V89ZM286.338 89L285.641 86.093H282.411L281.714 89H279.13L282.479 76.845H285.522L288.905 89H286.338ZM284.468 80.925C284.423 80.6757 284.372 80.4207 284.315 80.16C284.258 79.888 284.202 79.6273 284.145 79.378C284.1 79.1173 284.06 78.885 284.026 78.681C283.992 78.885 283.947 79.1173 283.89 79.378C283.845 79.6387 283.794 79.905 283.737 80.177C283.68 80.4377 283.624 80.6813 283.567 80.908L282.853 84.019H285.199L284.468 80.925ZM294.47 78.732C294.085 78.732 293.739 78.8397 293.433 79.055C293.138 79.259 292.889 79.548 292.685 79.922C292.481 80.296 292.328 80.7437 292.226 81.265C292.135 81.775 292.09 82.3417 292.09 82.965C292.09 83.849 292.181 84.6027 292.362 85.226C292.555 85.838 292.832 86.3083 293.195 86.637C293.558 86.9543 294.011 87.113 294.555 87.113C294.963 87.113 295.36 87.0507 295.745 86.926C296.142 86.8013 296.538 86.6483 296.935 86.467V88.558C296.527 88.762 296.108 88.915 295.677 89.017C295.246 89.119 294.77 89.17 294.249 89.17C293.24 89.17 292.385 88.9263 291.682 88.439C290.991 87.9403 290.469 87.2263 290.118 86.297C289.767 85.3677 289.591 84.2513 289.591 82.948C289.591 82.0413 289.693 81.2083 289.897 80.449C290.112 79.6783 290.424 79.0153 290.832 78.46C291.24 77.9047 291.739 77.474 292.328 77.168C292.917 76.8507 293.592 76.692 294.351 76.692C294.872 76.692 295.382 76.76 295.881 76.896C296.38 77.0207 296.861 77.2133 297.326 77.474L296.612 79.446C296.272 79.242 295.926 79.072 295.575 78.936C295.224 78.8 294.855 78.732 294.47 78.732ZM304.93 89H299.014V76.862H304.93V78.885H301.411V81.69H304.675V83.713H301.411V86.943H304.93V89ZM313.189 85.498C313.189 86.2233 313.03 86.8637 312.713 87.419C312.407 87.963 311.965 88.3937 311.387 88.711C310.82 89.017 310.14 89.17 309.347 89.17C308.984 89.17 308.627 89.1473 308.276 89.102C307.936 89.0567 307.607 88.983 307.29 88.881C306.972 88.779 306.655 88.6487 306.338 88.49V86.093C306.825 86.3763 307.324 86.603 307.834 86.773C308.355 86.943 308.854 87.028 309.33 87.028C309.658 87.028 309.93 86.9713 310.146 86.858C310.361 86.7333 310.52 86.5747 310.622 86.382C310.724 86.178 310.775 85.9513 310.775 85.702C310.775 85.43 310.712 85.192 310.588 84.988C310.474 84.7727 310.282 84.5687 310.01 84.376C309.738 84.172 309.375 83.951 308.922 83.713C308.593 83.5203 308.276 83.3163 307.97 83.101C307.675 82.8857 307.414 82.6477 307.188 82.387C306.961 82.115 306.78 81.7977 306.644 81.435C306.508 81.061 306.44 80.6247 306.44 80.126C306.44 79.4233 306.581 78.817 306.865 78.307C307.159 77.7857 307.579 77.3833 308.123 77.1C308.678 76.8167 309.335 76.6807 310.095 76.692C310.627 76.692 311.143 76.76 311.642 76.896C312.152 77.032 312.656 77.2303 313.155 77.491L312.441 79.531C312.01 79.293 311.602 79.1173 311.217 79.004C310.843 78.8793 310.48 78.817 310.129 78.817C309.845 78.817 309.607 78.868 309.415 78.97C309.222 79.072 309.075 79.2137 308.973 79.395C308.871 79.5763 308.82 79.7803 308.82 80.007C308.82 80.2903 308.876 80.534 308.99 80.738C309.114 80.942 309.313 81.1403 309.585 81.333C309.857 81.5143 310.231 81.7353 310.707 81.996C311.251 82.2907 311.704 82.6023 312.067 82.931C312.429 83.2483 312.707 83.6167 312.9 84.036C313.092 84.4553 313.189 84.9427 313.189 85.498ZM314.645 87.793C314.645 87.3283 314.764 86.9827 315.002 86.756C315.251 86.518 315.586 86.399 316.005 86.399C316.413 86.399 316.736 86.5123 316.974 86.739C317.223 86.9657 317.348 87.317 317.348 87.793C317.348 88.2577 317.223 88.609 316.974 88.847C316.725 89.085 316.402 89.204 316.005 89.204C315.597 89.204 315.268 89.085 315.019 88.847C314.77 88.609 314.645 88.2577 314.645 87.793ZM327.086 82.166H331.183V88.49C330.593 88.7053 329.981 88.8753 329.347 89C328.723 89.1133 328.06 89.17 327.358 89.17C326.304 89.17 325.414 88.9207 324.689 88.422C323.963 87.9233 323.414 87.2037 323.04 86.263C322.666 85.3223 322.479 84.2003 322.479 82.897C322.479 81.6277 322.688 80.534 323.108 79.616C323.527 78.6867 324.139 77.967 324.944 77.457C325.748 76.947 326.729 76.692 327.885 76.692C328.485 76.692 329.058 76.7657 329.602 76.913C330.146 77.049 330.633 77.2303 331.064 77.457L330.333 79.412C329.97 79.1967 329.585 79.0323 329.177 78.919C328.78 78.7943 328.366 78.732 327.936 78.732C327.301 78.732 326.763 78.902 326.321 79.242C325.879 79.5707 325.544 80.0523 325.318 80.687C325.091 81.3103 324.978 82.0697 324.978 82.965C324.978 83.7923 325.063 84.5233 325.233 85.158C325.414 85.7813 325.692 86.263 326.066 86.603C326.44 86.943 326.921 87.113 327.511 87.113C327.692 87.113 327.856 87.1073 328.004 87.096C328.162 87.0733 328.31 87.0507 328.446 87.028C328.582 86.994 328.712 86.96 328.837 86.926V84.189H327.086V82.166ZM336.455 76.862C337.418 76.862 338.212 76.9923 338.835 77.253C339.458 77.5137 339.923 77.9103 340.229 78.443C340.546 78.9643 340.705 79.6217 340.705 80.415C340.705 80.9363 340.631 81.401 340.484 81.809C340.337 82.217 340.121 82.574 339.838 82.88C339.555 83.186 339.215 83.4523 338.818 83.679L341.64 89H338.988L336.727 84.274H335.826V89H333.429V76.862H336.455ZM336.387 78.868H335.826V82.353H336.438C336.857 82.353 337.197 82.285 337.458 82.149C337.73 82.013 337.928 81.809 338.053 81.537C338.189 81.265 338.257 80.925 338.257 80.517C338.257 80.1317 338.189 79.82 338.053 79.582C337.928 79.344 337.724 79.1683 337.441 79.055C337.169 78.9303 336.818 78.868 336.387 78.868ZM348.791 89H342.875V76.862H348.791V78.885H345.272V81.69H348.536V83.713H345.272V86.943H348.791V89ZM356.795 89L356.098 86.093H352.868L352.171 89H349.587L352.936 76.845H355.979L359.362 89H356.795ZM354.925 80.925C354.88 80.6757 354.829 80.4207 354.772 80.16C354.715 79.888 354.659 79.6273 354.602 79.378C354.557 79.1173 354.517 78.885 354.483 78.681C354.449 78.885 354.404 79.1173 354.347 79.378C354.302 79.6387 354.251 79.905 354.194 80.177C354.137 80.4377 354.081 80.6813 354.024 80.908L353.31 84.019H355.656L354.925 80.925ZM364.02 89H361.64V78.919H359.073V76.862H366.587V78.919H364.02V89ZM374.845 76.862C376.182 76.862 377.168 77.1907 377.803 77.848C378.437 78.494 378.755 79.4233 378.755 80.636C378.755 81.2253 378.675 81.7693 378.517 82.268C378.369 82.7553 378.131 83.186 377.803 83.56C377.474 83.9227 377.055 84.206 376.545 84.41C376.035 84.6027 375.423 84.699 374.709 84.699H373.927V89H371.53V76.862H374.845ZM374.692 78.885H373.927V82.676H374.471C374.879 82.676 375.219 82.608 375.491 82.472C375.774 82.336 375.989 82.1207 376.137 81.826C376.284 81.5313 376.358 81.146 376.358 80.67C376.358 80.0467 376.222 79.5933 375.95 79.31C375.678 79.0267 375.258 78.885 374.692 78.885ZM380.561 89V76.862H382.958V86.943H386.698V89H380.561ZM394.265 89L393.568 86.093H390.338L389.641 89H387.057L390.406 76.845H393.449L396.832 89H394.265ZM392.395 80.925C392.349 80.6757 392.298 80.4207 392.242 80.16C392.185 79.888 392.128 79.6273 392.072 79.378C392.026 79.1173 391.987 78.885 391.953 78.681C391.919 78.885 391.873 79.1173 391.817 79.378C391.771 79.6387 391.72 79.905 391.664 80.177C391.607 80.4377 391.55 80.6813 391.494 80.908L390.78 84.019H393.126L392.395 80.925ZM402.397 78.732C402.011 78.732 401.666 78.8397 401.36 79.055C401.065 79.259 400.816 79.548 400.612 79.922C400.408 80.296 400.255 80.7437 400.153 81.265C400.062 81.775 400.017 82.3417 400.017 82.965C400.017 83.849 400.107 84.6027 400.289 85.226C400.481 85.838 400.759 86.3083 401.122 86.637C401.484 86.9543 401.938 87.113 402.482 87.113C402.89 87.113 403.286 87.0507 403.672 86.926C404.068 86.8013 404.465 86.6483 404.862 86.467V88.558C404.454 88.762 404.034 88.915 403.604 89.017C403.173 89.119 402.697 89.17 402.176 89.17C401.167 89.17 400.311 88.9263 399.609 88.439C398.917 87.9403 398.396 87.2263 398.045 86.297C397.693 85.3677 397.518 84.2513 397.518 82.948C397.518 82.0413 397.62 81.2083 397.824 80.449C398.039 79.6783 398.351 79.0153 398.759 78.46C399.167 77.9047 399.665 77.474 400.255 77.168C400.844 76.8507 401.518 76.692 402.278 76.692C402.799 76.692 403.309 76.76 403.808 76.896C404.306 77.0207 404.788 77.2133 405.253 77.474L404.539 79.446C404.199 79.242 403.853 79.072 403.502 78.936C403.15 78.8 402.782 78.732 402.397 78.732ZM412.857 89H406.941V76.862H412.857V78.885H409.338V81.69H412.602V83.713H409.338V86.943H412.857V89ZM421.115 85.498C421.115 86.2233 420.957 86.8637 420.639 87.419C420.333 87.963 419.891 88.3937 419.313 88.711C418.747 89.017 418.067 89.17 417.273 89.17C416.911 89.17 416.554 89.1473 416.202 89.102C415.862 89.0567 415.534 88.983 415.216 88.881C414.899 88.779 414.582 88.6487 414.264 88.49V86.093C414.752 86.3763 415.25 86.603 415.76 86.773C416.282 86.943 416.78 87.028 417.256 87.028C417.585 87.028 417.857 86.9713 418.072 86.858C418.288 86.7333 418.446 86.5747 418.548 86.382C418.65 86.178 418.701 85.9513 418.701 85.702C418.701 85.43 418.639 85.192 418.514 84.988C418.401 84.7727 418.208 84.5687 417.936 84.376C417.664 84.172 417.302 83.951 416.848 83.713C416.52 83.5203 416.202 83.3163 415.896 83.101C415.602 82.8857 415.341 82.6477 415.114 82.387C414.888 82.115 414.706 81.7977 414.57 81.435C414.434 81.061 414.366 80.6247 414.366 80.126C414.366 79.4233 414.508 78.817 414.791 78.307C415.086 77.7857 415.505 77.3833 416.049 77.1C416.605 76.8167 417.262 76.6807 418.021 76.692C418.554 76.692 419.07 76.76 419.568 76.896C420.078 77.032 420.583 77.2303 421.081 77.491L420.367 79.531C419.937 79.293 419.529 79.1173 419.143 79.004C418.769 78.8793 418.407 78.817 418.055 78.817C417.772 78.817 417.534 78.868 417.341 78.97C417.149 79.072 417.001 79.2137 416.899 79.395C416.797 79.5763 416.746 79.7803 416.746 80.007C416.746 80.2903 416.803 80.534 416.916 80.738C417.041 80.942 417.239 81.1403 417.511 81.333C417.783 81.5143 418.157 81.7353 418.633 81.996C419.177 82.2907 419.631 82.6023 419.993 82.931C420.356 83.2483 420.634 83.6167 420.826 84.036C421.019 84.4553 421.115 84.9427 421.115 85.498ZM422.572 87.793C422.572 87.3283 422.691 86.9827 422.929 86.756C423.178 86.518 423.513 86.399 423.932 86.399C424.34 86.399 424.663 86.5123 424.901 86.739C425.15 86.9657 425.275 87.317 425.275 87.793C425.275 88.2577 425.15 88.609 424.901 88.847C424.652 89.085 424.329 89.204 423.932 89.204C423.524 89.204 423.195 89.085 422.946 88.847C422.697 88.609 422.572 88.2577 422.572 87.793Z" fill="#22335E"/>
<defs>
<radialGradient id="paint0_radial_1068_348" cx="0" cy="0" r="1" gradientUnits="userSpaceOnUse" gradientTransform="translate(454.5 122.5) rotate(88.3567) scale(122.05 331.05)">
<stop stop-color="white"/>
<stop offset="1" stop-color="#03BBF3"/>
</radialGradient>
<linearGradient id="paint1_linear_1068_348" x1="448" y1="70.5" x2="332" y2="368" gradientUnits="userSpaceOnUse">
<stop stop-color="#DCD0D0"/>
<stop offset="1" stop-color="#FBF0EE"/>
</linearGradient>
</defs>
</svg>
