<svg width="649" height="348" viewBox="0 0 649 348" fill="none" xmlns="http://www.w3.org/2000/svg">
<rect width="649" height="348" rx="41" fill="url(#paint0_linear_1068_330)"/>
<path d="M152.915 56.475C151.985 56.475 151.16 56.055 150.44 55.215C149.75 54.375 149.33 53.055 149.18 51.255C149.15 51.045 149.135 50.835 149.135 50.625C149.135 50.415 149.135 50.205 149.135 49.995C149.135 48.375 149.3 46.62 149.63 44.73C149.96 42.84 150.32 41.01 150.71 39.24C150.77 38.94 150.89 38.355 151.07 37.485C151.28 36.585 151.49 35.52 151.7 34.29C151.91 33.06 152.09 31.77 152.24 30.42C152.39 29.04 152.465 27.75 152.465 26.55C152.465 25.05 152.3 23.79 151.97 22.77C151.64 21.75 151.025 21.24 150.125 21.24C149.165 21.24 148.28 21.645 147.47 22.455C146.66 23.235 145.925 24.27 145.265 25.56C144.635 26.82 144.08 28.2 143.6 29.7C143.15 31.2 142.805 32.685 142.565 34.155C142.325 35.595 142.205 36.87 142.205 37.98C142.205 38.73 142.265 39.375 142.385 39.915C142.505 40.425 142.7 40.755 142.97 40.905C143.18 41.025 143.285 41.175 143.285 41.355C143.285 41.715 143.09 41.895 142.7 41.895C142.49 41.895 142.295 41.805 142.115 41.625C141.725 41.175 141.395 40.425 141.125 39.375C140.855 38.325 140.72 37.11 140.72 35.73C140.72 34.89 140.78 34.02 140.9 33.12C141.02 32.22 141.2 31.305 141.44 30.375C141.77 29.145 142.235 27.9 142.835 26.64C143.435 25.35 144.185 24.165 145.085 23.085C145.985 21.975 147.035 21.09 148.235 20.43C149.465 19.77 150.845 19.44 152.375 19.44C153.455 19.44 154.295 19.725 154.895 20.295C155.495 20.835 155.915 21.57 156.155 22.5C156.425 23.43 156.56 24.465 156.56 25.605C156.56 26.955 156.425 28.365 156.155 29.835C155.915 31.275 155.63 32.61 155.3 33.84C155 35.04 154.76 35.985 154.58 36.675C154.25 37.905 153.905 39.255 153.545 40.725C153.185 42.195 152.885 43.68 152.645 45.18C152.435 46.65 152.33 48.06 152.33 49.41V50.13C152.39 51.45 152.615 52.41 153.005 53.01C153.425 53.58 153.95 53.865 154.58 53.865C155.69 53.865 156.74 53.445 157.73 52.605C158.72 51.735 159.635 50.58 160.475 49.14C161.345 47.7 162.125 46.08 162.815 44.28C163.505 42.48 164.105 40.62 164.615 38.7C164.405 38.19 164.225 37.425 164.075 36.405C163.925 35.355 163.85 34.26 163.85 33.12C163.85 31.83 163.97 30.615 164.21 29.475C164.48 28.335 164.915 27.54 165.515 27.09C165.695 26.97 165.905 26.91 166.145 26.91C166.475 26.91 166.82 27.06 167.18 27.36C167.54 27.66 167.72 28.245 167.72 29.115V29.295C167.72 30.285 167.63 31.395 167.45 32.625C167.27 33.855 167.015 35.175 166.685 36.585C166.775 37.575 166.925 38.775 167.135 40.185C167.345 41.595 167.63 43.05 167.99 44.55C168.38 46.05 168.845 47.46 169.385 48.78C169.955 50.07 170.63 51.12 171.41 51.93C172.22 52.74 173.135 53.145 174.155 53.145C175.385 53.145 176.405 52.77 177.215 52.02C178.025 51.24 178.67 50.25 179.15 49.05C179.66 47.85 180.035 46.59 180.275 45.27C180.545 43.95 180.725 42.72 180.815 41.58C180.905 40.44 180.95 39.555 180.95 38.925C180.95 36.075 180.68 33.51 180.14 31.23C179.63 28.92 178.85 27.105 177.8 25.785C177.26 25.695 176.705 25.515 176.135 25.245C175.565 24.945 175.085 24.63 174.695 24.3C174.335 23.94 174.155 23.64 174.155 23.4C174.155 23.01 174.62 22.815 175.55 22.815C175.67 22.815 175.805 22.815 175.955 22.815C176.105 22.815 176.27 22.83 176.45 22.86C178.31 23.04 179.885 24 181.175 25.74C181.595 25.74 182.03 25.74 182.48 25.74C182.96 25.71 183.38 25.65 183.74 25.56H183.875C184.175 25.56 184.325 25.695 184.325 25.965C184.325 26.175 184.205 26.325 183.965 26.415C183.425 26.595 182.9 26.685 182.39 26.685C182.27 26.685 182.165 26.685 182.075 26.685C181.985 26.685 181.88 26.67 181.76 26.64C182.48 27.9 183.05 29.505 183.47 31.455C183.89 33.375 184.1 35.67 184.1 38.34C184.1 39.39 183.98 40.62 183.74 42.03C183.53 43.41 183.185 44.835 182.705 46.305C182.225 47.745 181.595 49.08 180.815 50.31C180.065 51.54 179.15 52.545 178.07 53.325C177.02 54.075 175.79 54.45 174.38 54.45C172.97 54.45 171.74 54.075 170.69 53.325C169.64 52.575 168.755 51.585 168.035 50.355C167.345 49.095 166.76 47.73 166.28 46.26C165.83 44.76 165.485 43.275 165.245 41.805C164.645 43.665 163.925 45.465 163.085 47.205C162.275 48.945 161.345 50.52 160.295 51.93C159.275 53.31 158.15 54.405 156.92 55.215C155.69 56.055 154.355 56.475 152.915 56.475ZM199.533 54.225C198.723 54.225 198.033 53.97 197.463 53.46C196.923 52.92 196.578 52.23 196.428 51.39C196.368 51.06 196.323 50.7 196.293 50.31C196.263 49.92 196.248 49.515 196.248 49.095C196.248 48.135 196.293 47.145 196.383 46.125C196.503 45.075 196.638 44.085 196.788 43.155C196.938 42.225 197.058 41.46 197.148 40.86C197.238 40.32 197.283 39.765 197.283 39.195C197.283 38.685 197.238 38.235 197.148 37.845C197.058 37.455 196.863 37.26 196.563 37.26C196.413 37.26 196.218 37.35 195.978 37.53C195.738 37.71 195.453 38.01 195.123 38.43C194.553 39.18 193.953 40.29 193.323 41.76C192.723 43.2 192.258 44.805 191.928 46.575C191.898 46.845 191.853 47.28 191.793 47.88C191.733 48.48 191.673 49.125 191.613 49.815C191.553 50.505 191.493 51.12 191.433 51.66C191.373 52.2 191.298 52.545 191.208 52.695C190.908 53.265 190.518 53.655 190.038 53.865C189.588 54.075 189.168 54.18 188.778 54.18C188.838 53.94 188.883 53.505 188.913 52.875C188.943 52.245 188.973 51.495 189.003 50.625C189.063 49.905 189.093 49.2 189.093 48.51C189.093 47.79 189.093 47.07 189.093 46.35C189.093 44.73 189.063 43.11 189.003 41.49C188.943 39.87 188.853 38.265 188.733 36.675C188.703 36.165 188.658 35.475 188.598 34.605C188.568 33.705 188.553 32.73 188.553 31.68C188.553 30.39 188.613 29.055 188.733 27.675C188.853 26.295 189.078 25.005 189.408 23.805C189.738 22.605 190.203 21.645 190.803 20.925C191.433 20.175 192.243 19.8 193.233 19.8C194.373 19.8 195.153 20.25 195.573 21.15C195.993 22.02 196.203 23.085 196.203 24.345C196.203 25.635 196.053 27.015 195.753 28.485C195.483 29.925 195.168 31.23 194.808 32.4C194.478 33.57 194.223 34.41 194.043 34.92C193.653 36.03 193.203 37.155 192.693 38.295C192.213 39.435 191.718 40.515 191.208 41.535L191.343 44.91C191.673 43.53 192.093 42.195 192.603 40.905C193.143 39.585 193.818 38.325 194.628 37.125C195.078 36.435 195.633 35.76 196.293 35.1C196.983 34.41 197.778 34.065 198.678 34.065C199.578 34.065 200.178 34.365 200.478 34.965C200.778 35.565 200.928 36.225 200.928 36.945C200.928 37.695 200.853 38.37 200.703 38.97C200.673 39.21 200.583 39.675 200.433 40.365C200.283 41.055 200.118 41.88 199.938 42.84C199.788 43.8 199.653 44.805 199.533 45.855C199.413 46.875 199.353 47.835 199.353 48.735C199.353 49.545 199.428 50.28 199.578 50.94C199.848 51.99 200.313 52.515 200.973 52.515C201.153 52.515 201.393 52.44 201.693 52.29C202.323 51.9 202.803 51.36 203.133 50.67C203.463 49.95 203.778 49.125 204.078 48.195C204.198 47.865 204.378 47.7 204.618 47.7C204.768 47.7 204.843 47.85 204.843 48.15V48.33C204.843 48.54 204.783 48.825 204.663 49.185C204.573 49.515 204.468 49.845 204.348 50.175C203.958 51.285 203.373 52.245 202.593 53.055C201.843 53.835 200.853 54.225 199.623 54.225H199.533ZM191.163 39.645C191.823 38.175 192.423 36.63 192.963 35.01C193.503 33.36 193.938 31.725 194.268 30.105C194.598 28.485 194.763 27 194.763 25.65V25.2C194.733 24.33 194.628 23.61 194.448 23.04C194.298 22.47 194.043 22.185 193.683 22.185C193.233 22.185 192.828 22.83 192.468 24.12C192.108 25.38 191.823 26.895 191.613 28.665C191.433 30.225 191.313 31.785 191.253 33.345C191.193 34.875 191.163 36.39 191.163 37.89V39.645ZM208.504 31.23C207.934 31.23 207.424 31.02 206.974 30.6C206.554 30.18 206.344 29.67 206.344 29.07C206.344 28.47 206.554 27.96 206.974 27.54C207.424 27.12 207.934 26.91 208.504 26.91C209.104 26.91 209.614 27.12 210.034 27.54C210.454 27.96 210.664 28.47 210.664 29.07C210.664 29.67 210.454 30.18 210.034 30.6C209.614 31.02 209.104 31.23 208.504 31.23ZM209.044 54.45C207.964 54.45 207.079 54.075 206.389 53.325C205.729 52.575 205.219 51.66 204.859 50.58C204.529 49.47 204.289 48.405 204.139 47.385C204.049 46.695 203.989 46.05 203.959 45.45C203.959 44.82 203.959 44.205 203.959 43.605C204.019 41.895 204.169 40.32 204.409 38.88C204.679 37.44 204.949 36.465 205.219 35.955C205.399 35.595 205.684 35.265 206.074 34.965C206.494 34.635 207.049 34.47 207.739 34.47C208.129 34.47 208.519 34.515 208.909 34.605C208.609 35.655 208.249 37.125 207.829 39.015C207.409 40.875 207.199 42.93 207.199 45.18C207.199 46.32 207.274 47.475 207.424 48.645C207.574 49.815 207.859 50.805 208.279 51.615C208.729 52.395 209.344 52.785 210.124 52.785C210.754 52.785 211.309 52.545 211.789 52.065C212.389 51.495 212.839 50.73 213.139 49.77C213.469 48.81 213.754 47.835 213.994 46.845C214.084 46.425 214.234 46.215 214.444 46.215C214.654 46.215 214.759 46.395 214.759 46.755C214.759 46.845 214.744 46.95 214.714 47.07C214.714 47.19 214.699 47.325 214.669 47.475C214.489 48.495 214.174 49.545 213.724 50.625C213.304 51.705 212.719 52.62 211.969 53.37C211.219 54.09 210.244 54.45 209.044 54.45ZM218.444 54.18C217.364 54.18 216.509 53.835 215.879 53.145C215.249 52.455 214.784 51.63 214.484 50.67C214.184 49.68 214.004 48.765 213.944 47.925C213.884 47.115 213.839 46.26 213.809 45.36C213.779 44.43 213.764 43.455 213.764 42.435C213.764 40.575 213.809 38.655 213.899 36.675C214.019 34.695 214.184 32.775 214.394 30.915C214.634 29.025 214.919 27.345 215.249 25.875C215.429 25.125 215.714 24.27 216.104 23.31C216.494 22.35 217.004 21.525 217.634 20.835C218.264 20.115 219.014 19.755 219.884 19.755C221.654 19.755 222.539 21.09 222.539 23.76C222.539 24.81 222.359 26.325 221.999 28.305C221.669 30.255 221.054 32.445 220.154 34.875C219.704 36.135 219.164 37.41 218.534 38.7C217.934 39.96 217.334 41.115 216.734 42.165C216.704 42.405 216.689 42.66 216.689 42.93C216.689 43.17 216.689 43.41 216.689 43.65C216.689 44.67 216.719 45.705 216.779 46.755C216.869 47.805 217.004 48.78 217.184 49.68C217.394 50.55 217.679 51.255 218.039 51.795C218.399 52.335 218.864 52.605 219.434 52.605C220.094 52.605 220.619 52.335 221.009 51.795C221.429 51.225 221.744 50.685 221.954 50.175C222.074 49.905 222.179 49.605 222.269 49.275C222.389 48.945 222.509 48.6 222.629 48.24C222.749 47.91 222.914 47.745 223.124 47.745C223.274 47.745 223.349 47.91 223.349 48.24V48.33C223.349 48.54 223.304 48.81 223.214 49.14C223.154 49.47 223.064 49.8 222.944 50.13C222.584 51.24 222.059 52.2 221.369 53.01C220.679 53.79 219.704 54.18 218.444 54.18ZM216.779 40.23C217.559 38.64 218.279 36.96 218.939 35.19C219.599 33.39 220.124 31.62 220.514 29.88C220.934 28.14 221.144 26.565 221.144 25.155C221.144 24.285 221.069 23.565 220.919 22.995C220.799 22.425 220.559 22.14 220.199 22.14C219.869 22.14 219.554 22.485 219.254 23.175C218.984 23.835 218.729 24.72 218.489 25.83C218.249 26.94 218.024 28.14 217.814 29.43C217.634 30.69 217.469 31.95 217.319 33.21C217.199 34.44 217.094 35.535 217.004 36.495C216.944 37.425 216.899 38.1 216.869 38.52C216.869 38.7 216.854 38.94 216.824 39.24C216.824 39.51 216.809 39.84 216.779 40.23ZM228.938 54.855C227.498 54.855 226.328 54.42 225.428 53.55C224.558 52.65 223.913 51.555 223.493 50.265C223.103 48.945 222.908 47.655 222.908 46.395C222.908 44.955 223.058 43.515 223.358 42.075C223.658 40.605 224.123 39.27 224.753 38.07C225.413 36.87 226.238 35.91 227.228 35.19C228.218 34.44 229.388 34.065 230.738 34.065C231.698 34.065 232.448 34.35 232.988 34.92C233.528 35.49 233.798 36.33 233.798 37.44C233.798 38.94 233.423 40.275 232.673 41.445C231.953 42.585 231.038 43.515 229.928 44.235C228.818 44.955 227.663 45.45 226.463 45.72V45.945C226.463 47.175 226.583 48.33 226.823 49.41C227.093 50.46 227.513 51.315 228.083 51.975C228.683 52.605 229.463 52.92 230.423 52.92C231.593 52.92 232.493 52.44 233.123 51.48C233.753 50.49 234.248 49.245 234.608 47.745C234.638 47.625 234.683 47.52 234.743 47.43C234.833 47.31 234.908 47.25 234.968 47.25C235.238 47.25 235.358 47.445 235.328 47.835C235.238 48.645 235.058 49.41 234.788 50.13C234.518 50.85 234.233 51.465 233.933 51.975C233.363 52.905 232.673 53.61 231.863 54.09C231.083 54.6 230.108 54.855 228.938 54.855ZM226.508 44.685C227.468 44.445 228.308 43.98 229.028 43.29C229.748 42.57 230.303 41.73 230.693 40.77C231.113 39.81 231.323 38.835 231.323 37.845V37.62C231.323 37.08 231.233 36.57 231.053 36.09C230.903 35.61 230.603 35.37 230.153 35.37C229.613 35.37 229.133 35.64 228.713 36.18C228.323 36.69 227.978 37.35 227.678 38.16C227.408 38.97 227.183 39.81 227.003 40.68C226.823 41.55 226.688 42.345 226.598 43.065C226.538 43.785 226.508 44.31 226.508 44.64V44.685ZM249.284 54.63C247.724 54.63 246.449 54.345 245.459 53.775C244.469 53.175 243.719 52.41 243.209 51.48C242.699 50.52 242.339 49.485 242.129 48.375C241.949 47.265 241.859 46.185 241.859 45.135C241.859 44.895 241.859 44.655 241.859 44.415C241.859 44.145 241.874 43.89 241.904 43.65C241.934 43.2 242.024 42.765 242.174 42.345C242.354 41.895 242.639 41.595 243.029 41.445C243.209 41.355 243.419 41.31 243.659 41.31C243.869 41.31 244.109 41.37 244.379 41.49C244.649 41.61 244.934 41.82 245.234 42.12C245.894 42.72 246.794 43.335 247.934 43.965C249.104 44.595 250.394 45.18 251.804 45.72C253.214 46.26 254.609 46.71 255.989 47.07C256.319 46.05 256.604 44.955 256.844 43.785C257.114 42.585 257.354 41.325 257.564 40.005C257.834 38.385 258.029 36.78 258.149 35.19C258.269 33.6 258.329 32.115 258.329 30.735C258.329 29.775 258.299 28.89 258.239 28.08C258.179 27.27 258.104 26.595 258.014 26.055C257.894 25.275 257.654 24.585 257.294 23.985C256.964 23.355 256.484 23.04 255.854 23.04C254.984 23.04 254.279 23.415 253.739 24.165C253.229 24.915 252.854 25.905 252.614 27.135C252.404 28.365 252.299 29.7 252.299 31.14C252.299 32.73 252.419 34.32 252.659 35.91C252.899 37.5 253.214 38.895 253.604 40.095C253.994 41.295 254.414 42.12 254.864 42.57C255.044 42.75 255.134 42.9 255.134 43.02C255.134 43.2 254.984 43.29 254.684 43.29C254.354 43.29 254.084 43.17 253.874 42.93C253.184 42.18 252.569 41.16 252.029 39.87C251.489 38.55 251.054 37.095 250.724 35.505C250.424 33.915 250.274 32.325 250.274 30.735C250.274 29.175 250.454 27.72 250.814 26.37C251.174 25.02 251.744 23.91 252.524 23.04C253.304 22.14 254.324 21.645 255.584 21.555H256.124C257.264 21.555 258.194 21.84 258.914 22.41C259.664 22.95 260.234 23.685 260.624 24.615C261.014 25.545 261.284 26.58 261.434 27.72C261.584 28.86 261.659 30 261.659 31.14C261.659 32.25 261.614 33.3 261.524 34.29C261.434 35.28 261.359 36.12 261.299 36.81C261.089 38.91 260.759 40.875 260.309 42.705C259.859 44.535 259.289 46.17 258.599 47.61C259.019 47.67 259.424 47.73 259.814 47.79C260.204 47.82 260.564 47.835 260.894 47.835C261.404 47.835 261.854 47.79 262.244 47.7C262.784 47.55 263.189 47.385 263.459 47.205C263.759 46.995 263.999 46.785 264.179 46.575C264.359 46.365 264.554 46.26 264.764 46.26C265.064 46.26 265.214 46.395 265.214 46.665V46.755C265.214 47.325 264.674 47.85 263.594 48.33C262.514 48.78 260.909 49.005 258.779 49.005H257.879C256.859 50.745 255.659 52.125 254.279 53.145C252.899 54.135 251.324 54.63 249.554 54.63H249.284ZM249.779 53.505C251.129 53.505 252.254 53.085 253.154 52.245C254.054 51.375 254.804 50.19 255.404 48.69C254.114 48.45 252.764 48.135 251.354 47.745C249.944 47.325 248.609 46.875 247.349 46.395C246.089 45.915 245.024 45.48 244.154 45.09C244.184 46.44 244.349 47.76 244.649 49.05C244.979 50.34 245.534 51.405 246.314 52.245C247.124 53.085 248.279 53.505 249.779 53.505ZM291.505 55.125C290.515 55.125 289.645 54.975 288.895 54.675C288.175 54.405 287.665 53.985 287.365 53.415C287.155 53.535 286.825 53.685 286.375 53.865C285.925 54.045 285.475 54.135 285.025 54.135C284.575 54.135 284.2 54.03 283.9 53.82C283.18 53.31 282.685 52.44 282.415 51.21C282.145 49.98 281.95 48.63 281.83 47.16C281.8 46.68 281.77 46.2 281.74 45.72C281.74 45.21 281.74 44.7 281.74 44.19C281.74 42.45 281.815 40.665 281.965 38.835C282.145 37.005 282.355 35.265 282.595 33.615C282.865 31.965 283.15 30.51 283.45 29.25C283.75 27.96 284.02 26.985 284.26 26.325C284.32 26.235 284.5 26.16 284.8 26.1C285.1 26.01 285.445 25.965 285.835 25.965C286.255 25.965 286.66 26.025 287.05 26.145C287.44 26.235 287.725 26.445 287.905 26.775C287.815 27.195 287.605 28.005 287.275 29.205C286.945 30.375 286.585 31.815 286.195 33.525C285.835 35.205 285.49 37.05 285.16 39.06C284.86 41.04 284.68 43.05 284.62 45.09V46.215C284.62 47.235 284.665 48.285 284.755 49.365C284.875 50.415 285.07 51.315 285.34 52.065C285.64 52.785 286.045 53.16 286.555 53.19H286.645C286.735 53.19 286.825 53.19 286.915 53.19C287.035 53.16 287.155 53.13 287.275 53.1C287.215 52.86 287.185 52.665 287.185 52.515C287.185 51.645 287.635 50.67 288.535 49.59C289.435 48.51 290.68 47.505 292.27 46.575C293.89 45.645 295.72 45.015 297.76 44.685C297.85 44.655 297.925 44.64 297.985 44.64C298.075 44.64 298.135 44.64 298.165 44.64C298.495 44.64 298.66 44.715 298.66 44.865C298.66 45.045 298.435 45.18 297.985 45.27C296.845 45.45 295.75 45.795 294.7 46.305C293.65 46.815 292.705 47.4 291.865 48.06C291.025 48.69 290.35 49.32 289.84 49.95C289.36 50.58 289.12 51.105 289.12 51.525C289.12 51.855 289.285 52.11 289.615 52.29C289.945 52.44 290.38 52.515 290.92 52.515C291.73 52.515 292.675 52.35 293.755 52.02C294.835 51.69 295.885 51.21 296.905 50.58C297.955 49.95 298.81 49.185 299.47 48.285C300.16 47.385 300.505 46.38 300.505 45.27C300.505 44.34 300.22 43.485 299.65 42.705C299.11 41.895 298.195 41.25 296.905 40.77C295.615 40.26 293.89 40.005 291.73 40.005C291.16 40.005 290.575 40.05 289.975 40.14C289.375 40.23 288.79 40.41 288.22 40.68C288.13 40.68 288.04 40.695 287.95 40.725C287.89 40.725 287.83 40.725 287.77 40.725C287.2 40.725 286.795 40.59 286.555 40.32C286.315 40.02 286.195 39.705 286.195 39.375C286.195 39.045 286.285 38.76 286.465 38.52C286.645 38.25 286.84 38.115 287.05 38.115C288.46 38.055 289.81 37.875 291.1 37.575C292.39 37.275 293.665 36.795 294.925 36.135C295.855 35.655 296.83 35.04 297.85 34.29C298.9 33.54 299.785 32.67 300.505 31.68C301.255 30.66 301.63 29.535 301.63 28.305C301.63 27.435 301.345 26.745 300.775 26.235C300.235 25.695 299.5 25.275 298.57 24.975C297.67 24.675 296.68 24.48 295.6 24.39C294.52 24.27 293.455 24.21 292.405 24.21C291.385 24.21 290.425 24.24 289.525 24.3C288.655 24.36 287.965 24.42 287.455 24.48C286.735 24.54 285.715 24.69 284.395 24.93C283.075 25.17 281.65 25.485 280.12 25.875C278.62 26.265 277.18 26.76 275.8 27.36C274.45 27.93 273.325 28.59 272.425 29.34C271.555 30.06 271.12 30.885 271.12 31.815C271.12 32.565 271.42 33.18 272.02 33.66C272.65 34.11 273.445 34.335 274.405 34.335C275.395 34.335 276.505 34.08 277.735 33.57C278.995 33.03 280.27 32.16 281.56 30.96C281.62 30.9 281.665 30.87 281.695 30.87C281.755 30.87 281.785 30.93 281.785 31.05C281.785 31.23 281.725 31.47 281.605 31.77C281.485 32.07 281.275 32.355 280.975 32.625C279.925 33.585 278.755 34.305 277.465 34.785C276.175 35.235 274.93 35.46 273.73 35.46C273.43 35.46 273.13 35.445 272.83 35.415C272.53 35.385 272.245 35.34 271.975 35.28C270.955 35.04 270.16 34.56 269.59 33.84C268.99 33.12 268.69 32.295 268.69 31.365C268.69 30.045 269.125 28.905 269.995 27.945C270.865 26.955 272.005 26.115 273.415 25.425C274.855 24.735 276.415 24.165 278.095 23.715C279.805 23.265 281.485 22.905 283.135 22.635C283.885 22.515 284.77 22.425 285.79 22.365C286.81 22.275 287.89 22.23 289.03 22.23C290.68 22.23 292.36 22.335 294.07 22.545C295.78 22.755 297.355 23.13 298.795 23.67C300.265 24.18 301.435 24.9 302.305 25.83C303.205 26.76 303.655 27.93 303.655 29.34C303.655 30.6 303.31 31.77 302.62 32.85C301.93 33.9 301.03 34.86 299.92 35.73C298.81 36.57 297.64 37.29 296.41 37.89C295.18 38.49 294.025 38.94 292.945 39.24C294.565 39.33 296.11 39.6 297.58 40.05C299.08 40.47 300.295 41.175 301.225 42.165C302.185 43.155 302.665 44.535 302.665 46.305C302.665 47.745 302.305 49.02 301.585 50.13C300.865 51.24 299.935 52.17 298.795 52.92C297.655 53.64 296.44 54.18 295.15 54.54C293.86 54.93 292.645 55.125 291.505 55.125ZM312.884 54.225C311.894 54.225 311.114 53.91 310.544 53.28C309.974 52.62 309.569 51.78 309.329 50.76C309.119 49.71 309.014 48.585 309.014 47.385C309.014 46.095 309.089 44.835 309.239 43.605C309.419 42.345 309.599 41.235 309.779 40.275C309.989 39.315 310.139 38.655 310.229 38.295C309.389 38.235 308.729 38.1 308.249 37.89C307.769 37.68 307.364 37.425 307.034 37.125C306.914 38.565 306.719 40.11 306.449 41.76C306.209 43.41 305.924 45 305.594 46.53C305.264 48.03 304.904 49.32 304.514 50.4C304.394 50.79 304.199 50.985 303.929 50.985C303.719 50.985 303.614 50.85 303.614 50.58C303.614 50.52 303.614 50.445 303.614 50.355C303.644 50.265 303.674 50.175 303.704 50.085C304.184 48.705 304.589 47.205 304.919 45.585C305.249 43.935 305.504 42.345 305.684 40.815C305.864 39.285 305.954 38.01 305.954 36.99V36.495C305.204 36.165 304.649 35.685 304.289 35.055C303.959 34.425 303.794 33.825 303.794 33.255C303.794 32.835 303.869 32.46 304.019 32.13C304.199 31.8 304.454 31.635 304.784 31.635H304.874C305.294 31.635 305.669 31.935 305.999 32.535C306.329 33.105 306.599 33.75 306.809 34.47C307.019 35.16 307.124 35.715 307.124 36.135C307.484 36.405 307.874 36.6 308.294 36.72C308.744 36.84 309.119 36.9 309.419 36.9C309.809 36.9 310.064 36.84 310.184 36.72C310.424 36.48 310.709 36.135 311.039 35.685C311.399 35.235 311.954 35.01 312.704 35.01C313.214 35.01 313.829 35.16 314.549 35.46C314.189 36.21 313.859 37.065 313.559 38.025C313.259 38.955 313.004 39.945 312.794 40.995C312.764 41.235 312.689 41.715 312.569 42.435C312.449 43.155 312.344 43.98 312.254 44.91C312.164 45.84 312.119 46.77 312.119 47.7C312.119 49.02 312.254 50.19 312.524 51.21C312.824 52.2 313.364 52.695 314.144 52.695C314.624 52.695 315.044 52.5 315.404 52.11C315.764 51.72 316.079 51.24 316.349 50.67C316.619 50.07 316.844 49.5 317.024 48.96C317.204 48.39 317.339 47.94 317.429 47.61C317.489 47.34 317.609 47.205 317.789 47.205C317.939 47.205 318.014 47.37 318.014 47.7V47.925C318.014 49.305 317.759 50.475 317.249 51.435C316.769 52.365 316.139 53.07 315.359 53.55C314.579 54 313.754 54.225 312.884 54.225ZM323.509 54.855C322.069 54.855 320.899 54.42 319.999 53.55C319.129 52.65 318.484 51.555 318.064 50.265C317.674 48.945 317.479 47.655 317.479 46.395C317.479 44.955 317.629 43.515 317.929 42.075C318.229 40.605 318.694 39.27 319.324 38.07C319.984 36.87 320.809 35.91 321.799 35.19C322.789 34.44 323.959 34.065 325.309 34.065C326.269 34.065 327.019 34.35 327.559 34.92C328.099 35.49 328.369 36.33 328.369 37.44C328.369 38.94 327.994 40.275 327.244 41.445C326.524 42.585 325.609 43.515 324.499 44.235C323.389 44.955 322.234 45.45 321.034 45.72V45.945C321.034 47.175 321.154 48.33 321.394 49.41C321.664 50.46 322.084 51.315 322.654 51.975C323.254 52.605 324.034 52.92 324.994 52.92C326.164 52.92 327.064 52.44 327.694 51.48C328.324 50.49 328.819 49.245 329.179 47.745C329.209 47.625 329.254 47.52 329.314 47.43C329.404 47.31 329.479 47.25 329.539 47.25C329.809 47.25 329.929 47.445 329.899 47.835C329.809 48.645 329.629 49.41 329.359 50.13C329.089 50.85 328.804 51.465 328.504 51.975C327.934 52.905 327.244 53.61 326.434 54.09C325.654 54.6 324.679 54.855 323.509 54.855ZM321.079 44.685C322.039 44.445 322.879 43.98 323.599 43.29C324.319 42.57 324.874 41.73 325.264 40.77C325.684 39.81 325.894 38.835 325.894 37.845V37.62C325.894 37.08 325.804 36.57 325.624 36.09C325.474 35.61 325.174 35.37 324.724 35.37C324.184 35.37 323.704 35.64 323.284 36.18C322.894 36.69 322.549 37.35 322.249 38.16C321.979 38.97 321.754 39.81 321.574 40.68C321.394 41.55 321.259 42.345 321.169 43.065C321.109 43.785 321.079 44.31 321.079 44.64V44.685ZM342.035 54.225C341.105 54.225 340.355 53.94 339.785 53.37C339.215 52.77 338.765 52.02 338.435 51.12C338.135 50.19 337.925 49.26 337.805 48.33C337.685 47.37 337.625 46.53 337.625 45.81C337.265 47.16 336.8 48.48 336.23 49.77C335.69 51.06 335.09 52.125 334.43 52.965C333.77 53.775 333.05 54.18 332.27 54.18H332.225C331.505 54.18 330.905 53.85 330.425 53.19C329.945 52.5 329.585 51.6 329.345 50.49C329.105 49.38 328.985 48.18 328.985 46.89V46.44C328.985 45.24 329.09 43.92 329.3 42.48C329.51 41.01 329.885 39.615 330.425 38.295C330.965 36.975 331.7 35.895 332.63 35.055C333.59 34.185 334.805 33.75 336.275 33.75C336.845 33.75 337.355 33.885 337.805 34.155C338.285 34.395 338.63 34.755 338.84 35.235C339.05 34.995 339.335 34.8 339.695 34.65C340.055 34.5 340.49 34.425 341 34.425C341.18 34.425 341.375 34.44 341.585 34.47C341.825 34.5 342.065 34.545 342.305 34.605C342.125 35.295 341.915 36.24 341.675 37.44C341.435 38.64 341.225 39.96 341.045 41.4C340.895 42.81 340.82 44.19 340.82 45.54V45.72C340.82 46.29 340.85 46.965 340.91 47.745C340.97 48.525 341.075 49.29 341.225 50.04C341.375 50.79 341.585 51.42 341.855 51.93C342.125 52.44 342.47 52.695 342.89 52.695H342.935C343.175 52.695 343.43 52.575 343.7 52.335C344 52.095 344.315 51.645 344.645 50.985C345.095 50.115 345.515 48.99 345.905 47.61C345.965 47.34 346.085 47.205 346.265 47.205C346.415 47.205 346.49 47.385 346.49 47.745V47.925C346.43 48.705 346.22 49.59 345.86 50.58C345.5 51.57 344.99 52.425 344.33 53.145C343.7 53.865 342.935 54.225 342.035 54.225ZM333.8 50.49C334.28 50.49 334.715 50.145 335.105 49.455C335.525 48.765 335.9 47.925 336.23 46.935C336.56 45.945 336.845 44.985 337.085 44.055C337.445 42.675 337.685 41.28 337.805 39.87C337.925 38.43 338.18 37.02 338.57 35.64C338.21 35.25 337.805 35.055 337.355 35.055C336.695 35.055 336.02 35.385 335.33 36.045C334.64 36.705 334.1 37.455 333.71 38.295C333.23 39.345 332.87 40.575 332.63 41.985C332.42 43.395 332.315 44.745 332.315 46.035C332.315 46.365 332.315 46.695 332.315 47.025C332.345 47.355 332.375 47.67 332.405 47.97C332.465 48.87 332.63 49.515 332.9 49.905C333.2 50.295 333.5 50.49 333.8 50.49ZM350.005 54.315C349.435 54.315 348.88 54.165 348.34 53.865C347.8 53.535 347.335 53.04 346.945 52.38C346.465 51.54 346.165 50.565 346.045 49.455C345.925 48.345 345.865 47.34 345.865 46.44V45.36C345.895 45 345.925 44.325 345.955 43.335C345.985 42.345 346.03 41.19 346.09 39.87C346.15 38.52 346.24 37.155 346.36 35.775H344.965C344.725 35.775 344.605 35.625 344.605 35.325C344.605 35.175 344.665 35.025 344.785 34.875C344.875 34.695 344.995 34.605 345.145 34.605H346.45C346.57 33.195 346.705 31.92 346.855 30.78C347.005 29.64 347.185 28.83 347.395 28.35C347.545 28.02 347.815 27.735 348.205 27.495C348.595 27.225 349.12 27.09 349.78 27.09C349.96 27.09 350.155 27.105 350.365 27.135C350.605 27.165 350.83 27.21 351.04 27.27C350.89 27.78 350.725 28.71 350.545 30.06C350.365 31.38 350.185 32.895 350.005 34.605H353.2C353.44 34.605 353.56 34.77 353.56 35.1C353.56 35.25 353.515 35.4 353.425 35.55C353.335 35.7 353.215 35.775 353.065 35.775H349.915C349.765 37.425 349.63 39.135 349.51 40.905C349.42 42.645 349.36 44.25 349.33 45.72V46.485C349.33 46.995 349.345 47.565 349.375 48.195C349.405 48.795 349.45 49.38 349.51 49.95C349.66 51.03 349.87 51.795 350.14 52.245C350.41 52.695 350.725 52.92 351.085 52.92C351.595 52.92 352.075 52.59 352.525 51.93C352.975 51.24 353.395 50.4 353.785 49.41C354.175 48.39 354.505 47.385 354.775 46.395C355.075 45.405 355.3 44.58 355.45 43.92C355.6 43.23 355.675 42.885 355.675 42.885C355.645 41.835 355.6 40.8 355.54 39.78C355.48 38.73 355.42 37.695 355.36 36.675C355.33 36.165 355.285 35.475 355.225 34.605C355.195 33.705 355.18 32.73 355.18 31.68C355.18 30.39 355.24 29.055 355.36 27.675C355.48 26.295 355.705 25.005 356.035 23.805C356.365 22.605 356.83 21.645 357.43 20.925C358.06 20.175 358.87 19.8 359.86 19.8C361 19.8 361.78 20.25 362.2 21.15C362.62 22.02 362.83 23.085 362.83 24.345C362.83 25.635 362.68 27.015 362.38 28.485C362.11 29.925 361.795 31.23 361.435 32.4C361.105 33.57 360.85 34.41 360.67 34.92C360.28 36.03 359.83 37.155 359.32 38.295C358.84 39.435 358.345 40.515 357.835 41.535L357.97 44.91C358.3 43.53 358.72 42.195 359.23 40.905C359.77 39.585 360.445 38.325 361.255 37.125C361.705 36.435 362.26 35.76 362.92 35.1C363.61 34.41 364.405 34.065 365.305 34.065C366.205 34.065 366.805 34.365 367.105 34.965C367.405 35.565 367.555 36.225 367.555 36.945C367.555 37.695 367.48 38.37 367.33 38.97C367.3 39.21 367.21 39.675 367.06 40.365C366.91 41.055 366.745 41.88 366.565 42.84C366.415 43.8 366.28 44.805 366.16 45.855C366.04 46.875 365.98 47.835 365.98 48.735C365.98 49.545 366.055 50.28 366.205 50.94C366.475 51.99 366.94 52.515 367.6 52.515C367.78 52.515 368.02 52.44 368.32 52.29C368.71 52.05 369.04 51.735 369.31 51.345C369.58 50.955 369.805 50.565 369.985 50.175C370.135 49.905 370.27 49.62 370.39 49.32C370.51 48.99 370.63 48.63 370.75 48.24C370.87 47.91 371.035 47.745 371.245 47.745C371.395 47.745 371.47 47.895 371.47 48.195V48.375C371.41 48.885 371.245 49.485 370.975 50.175C370.555 51.225 369.97 52.17 369.22 53.01C368.47 53.82 367.48 54.225 366.25 54.225H366.16C365.35 54.225 364.675 53.97 364.135 53.46C363.595 52.92 363.25 52.23 363.1 51.39C363.04 51.06 362.995 50.7 362.965 50.31C362.935 49.92 362.92 49.515 362.92 49.095C362.92 48.135 362.965 47.145 363.055 46.125C363.175 45.075 363.31 44.085 363.46 43.155C363.61 42.225 363.73 41.46 363.82 40.86C363.91 40.32 363.955 39.765 363.955 39.195C363.955 38.685 363.895 38.235 363.775 37.845C363.685 37.455 363.49 37.26 363.19 37.26C363.04 37.26 362.845 37.35 362.605 37.53C362.365 37.71 362.08 38.01 361.75 38.43C361.18 39.18 360.58 40.29 359.95 41.76C359.35 43.2 358.885 44.805 358.555 46.575C358.525 46.845 358.48 47.28 358.42 47.88C358.36 48.48 358.3 49.125 358.24 49.815C358.18 50.505 358.12 51.12 358.06 51.66C358 52.2 357.925 52.545 357.835 52.695C357.535 53.265 357.145 53.655 356.665 53.865C356.215 54.075 355.795 54.18 355.405 54.18C355.465 53.94 355.51 53.505 355.54 52.875C355.57 52.245 355.6 51.495 355.63 50.625C355.66 50.025 355.675 49.44 355.675 48.87C355.705 48.3 355.72 47.73 355.72 47.16C355.63 47.43 355.54 47.715 355.45 48.015C355.36 48.285 355.27 48.54 355.18 48.78C354.82 49.62 354.445 50.475 354.055 51.345C353.695 52.185 353.2 52.89 352.57 53.46C351.97 54.03 351.115 54.315 350.005 54.315ZM357.79 39.645C358.45 38.175 359.05 36.63 359.59 35.01C360.13 33.36 360.565 31.725 360.895 30.105C361.225 28.485 361.39 27 361.39 25.65V25.2C361.36 24.33 361.255 23.61 361.075 23.04C360.925 22.47 360.67 22.185 360.31 22.185C359.86 22.185 359.455 22.83 359.095 24.12C358.735 25.38 358.45 26.895 358.24 28.665C358.06 30.225 357.94 31.785 357.88 33.345C357.82 34.875 357.79 36.39 357.79 37.89V39.645ZM376.946 54.855C375.506 54.855 374.336 54.42 373.436 53.55C372.566 52.65 371.921 51.555 371.501 50.265C371.111 48.945 370.916 47.655 370.916 46.395C370.916 44.955 371.066 43.515 371.366 42.075C371.666 40.605 372.131 39.27 372.761 38.07C373.421 36.87 374.246 35.91 375.236 35.19C376.226 34.44 377.396 34.065 378.746 34.065C379.706 34.065 380.456 34.35 380.996 34.92C381.536 35.49 381.806 36.33 381.806 37.44C381.806 38.94 381.431 40.275 380.681 41.445C379.961 42.585 379.046 43.515 377.936 44.235C376.826 44.955 375.671 45.45 374.471 45.72V45.945C374.471 47.175 374.591 48.33 374.831 49.41C375.101 50.46 375.521 51.315 376.091 51.975C376.691 52.605 377.471 52.92 378.431 52.92C379.601 52.92 380.501 52.44 381.131 51.48C381.761 50.49 382.256 49.245 382.616 47.745C382.646 47.625 382.691 47.52 382.751 47.43C382.841 47.31 382.916 47.25 382.976 47.25C383.246 47.25 383.366 47.445 383.336 47.835C383.246 48.645 383.066 49.41 382.796 50.13C382.526 50.85 382.241 51.465 381.941 51.975C381.371 52.905 380.681 53.61 379.871 54.09C379.091 54.6 378.116 54.855 376.946 54.855ZM374.516 44.685C375.476 44.445 376.316 43.98 377.036 43.29C377.756 42.57 378.311 41.73 378.701 40.77C379.121 39.81 379.331 38.835 379.331 37.845V37.62C379.331 37.08 379.241 36.57 379.061 36.09C378.911 35.61 378.611 35.37 378.161 35.37C377.621 35.37 377.141 35.64 376.721 36.18C376.331 36.69 375.986 37.35 375.686 38.16C375.416 38.97 375.191 39.81 375.011 40.68C374.831 41.55 374.696 42.345 374.606 43.065C374.546 43.785 374.516 44.31 374.516 44.64V44.685ZM386.112 59.13C385.842 59.13 385.707 59.01 385.707 58.77C385.707 58.68 385.722 58.605 385.752 58.545C385.992 57.975 386.232 57.33 386.472 56.61C386.712 55.89 386.922 55.23 387.102 54.63C386.682 54.3 386.352 54.09 386.112 54C385.872 53.88 385.632 53.655 385.392 53.325C385.152 52.995 385.032 52.605 385.032 52.155C385.032 51.615 385.212 51.105 385.572 50.625C385.962 50.145 386.577 49.905 387.417 49.905C388.047 49.905 388.497 50.175 388.767 50.715C389.067 51.255 389.217 51.78 389.217 52.29C389.217 52.35 389.202 52.41 389.172 52.47C389.172 52.53 389.172 52.59 389.172 52.65C388.962 54 388.587 55.275 388.047 56.475C387.537 57.705 387.042 58.53 386.562 58.95C386.442 59.07 386.292 59.13 386.112 59.13ZM406.257 54.63C404.697 54.63 403.422 54.345 402.432 53.775C401.442 53.175 400.692 52.41 400.182 51.48C399.672 50.52 399.312 49.485 399.102 48.375C398.922 47.265 398.832 46.185 398.832 45.135C398.832 44.895 398.832 44.655 398.832 44.415C398.832 44.145 398.847 43.89 398.877 43.65C398.907 43.2 398.997 42.765 399.147 42.345C399.327 41.895 399.612 41.595 400.002 41.445C400.182 41.355 400.392 41.31 400.632 41.31C400.842 41.31 401.082 41.37 401.352 41.49C401.622 41.61 401.907 41.82 402.207 42.12C402.867 42.72 403.767 43.335 404.907 43.965C406.077 44.595 407.367 45.18 408.777 45.72C410.187 46.26 411.582 46.71 412.962 47.07C413.292 46.05 413.577 44.955 413.817 43.785C414.087 42.585 414.327 41.325 414.537 40.005C414.807 38.385 415.002 36.78 415.122 35.19C415.242 33.6 415.302 32.115 415.302 30.735C415.302 29.775 415.272 28.89 415.212 28.08C415.152 27.27 415.077 26.595 414.987 26.055C414.867 25.275 414.627 24.585 414.267 23.985C413.937 23.355 413.457 23.04 412.827 23.04C411.957 23.04 411.252 23.415 410.712 24.165C410.202 24.915 409.827 25.905 409.587 27.135C409.377 28.365 409.272 29.7 409.272 31.14C409.272 32.73 409.392 34.32 409.632 35.91C409.872 37.5 410.187 38.895 410.577 40.095C410.967 41.295 411.387 42.12 411.837 42.57C412.017 42.75 412.107 42.9 412.107 43.02C412.107 43.2 411.957 43.29 411.657 43.29C411.327 43.29 411.057 43.17 410.847 42.93C410.157 42.18 409.542 41.16 409.002 39.87C408.462 38.55 408.027 37.095 407.697 35.505C407.397 33.915 407.247 32.325 407.247 30.735C407.247 29.175 407.427 27.72 407.787 26.37C408.147 25.02 408.717 23.91 409.497 23.04C410.277 22.14 411.297 21.645 412.557 21.555H413.097C414.237 21.555 415.167 21.84 415.887 22.41C416.637 22.95 417.207 23.685 417.597 24.615C417.987 25.545 418.257 26.58 418.407 27.72C418.557 28.86 418.632 30 418.632 31.14C418.632 32.25 418.587 33.3 418.497 34.29C418.407 35.28 418.332 36.12 418.272 36.81C418.062 38.91 417.732 40.875 417.282 42.705C416.832 44.535 416.262 46.17 415.572 47.61C415.992 47.67 416.397 47.73 416.787 47.79C417.177 47.82 417.537 47.835 417.867 47.835C418.377 47.835 418.827 47.79 419.217 47.7C419.757 47.55 420.162 47.385 420.432 47.205C420.732 46.995 420.972 46.785 421.152 46.575C421.332 46.365 421.527 46.26 421.737 46.26C422.037 46.26 422.187 46.395 422.187 46.665V46.755C422.187 47.325 421.647 47.85 420.567 48.33C419.487 48.78 417.882 49.005 415.752 49.005H414.852C413.832 50.745 412.632 52.125 411.252 53.145C409.872 54.135 408.297 54.63 406.527 54.63H406.257ZM406.752 53.505C408.102 53.505 409.227 53.085 410.127 52.245C411.027 51.375 411.777 50.19 412.377 48.69C411.087 48.45 409.737 48.135 408.327 47.745C406.917 47.325 405.582 46.875 404.322 46.395C403.062 45.915 401.997 45.48 401.127 45.09C401.157 46.44 401.322 47.76 401.622 49.05C401.952 50.34 402.507 51.405 403.287 52.245C404.097 53.085 405.252 53.505 406.752 53.505ZM434.741 58.635C433.121 58.635 431.756 58.335 430.646 57.735C429.566 57.135 428.756 56.34 428.216 55.35C427.676 54.36 427.406 53.28 427.406 52.11C427.406 50.91 427.691 49.695 428.261 48.465C428.801 47.205 429.626 46.065 430.736 45.045C432.896 43.035 435.311 41.565 437.981 40.635C440.681 39.675 443.561 39.075 446.621 38.835C446.831 37.245 446.951 35.805 446.981 34.515C447.041 33.195 447.071 32.115 447.071 31.275C445.901 32.295 444.506 33.18 442.886 33.93C441.296 34.65 439.661 35.205 437.981 35.595C436.331 35.985 434.786 36.18 433.346 36.18C431.426 36.18 429.986 35.76 429.026 34.92C428.036 34.08 427.541 33.105 427.541 31.995C427.541 31.095 427.871 30.21 428.531 29.34C429.161 28.47 430.121 27.75 431.411 27.18C432.701 26.61 434.306 26.325 436.226 26.325C437.636 26.325 438.896 26.475 440.006 26.775C441.146 27.075 442.001 27.39 442.571 27.72C442.871 27.9 443.021 28.05 443.021 28.17C443.021 28.35 442.841 28.44 442.481 28.44C442.331 28.44 442.211 28.425 442.121 28.395C441.461 28.215 440.636 28.08 439.646 27.99C438.656 27.87 437.846 27.81 437.216 27.81C435.026 27.81 433.391 28.245 432.311 29.115C431.231 29.985 430.691 30.9 430.691 31.86C430.691 32.64 431.051 33.33 431.771 33.93C432.491 34.53 433.556 34.83 434.966 34.83C436.526 34.83 438.071 34.605 439.601 34.155C441.161 33.675 442.586 33.105 443.876 32.445C445.196 31.785 446.261 31.155 447.071 30.555C447.041 30.195 447.011 29.775 446.981 29.295C446.981 28.785 446.981 28.245 446.981 27.675C446.981 26.895 447.041 26.13 447.161 25.38C447.281 24.6 447.506 23.97 447.836 23.49C448.166 22.98 448.661 22.725 449.321 22.725C449.831 22.725 450.206 22.92 450.446 23.31C450.686 23.7 450.806 24.195 450.806 24.795C450.806 25.725 450.551 26.745 450.041 27.855C449.531 28.965 448.871 29.82 448.061 30.42C448.121 30.99 448.226 32.025 448.376 33.525C448.556 35.025 448.661 36.75 448.691 38.7C449.261 38.67 449.831 38.655 450.401 38.655C451.001 38.625 451.586 38.61 452.156 38.61C452.666 38.61 453.191 38.625 453.731 38.655C454.301 38.655 454.856 38.67 455.396 38.7C456.176 38.73 456.971 38.775 457.781 38.835C458.591 38.865 459.371 38.895 460.121 38.925C460.211 37.245 460.331 35.475 460.481 33.615C460.661 31.755 460.856 29.94 461.066 28.17C461.306 26.37 461.561 24.75 461.831 23.31C461.861 23.22 461.951 23.175 462.101 23.175C462.251 23.145 462.326 23.13 462.326 23.13C463.106 23.13 463.781 23.235 464.351 23.445C464.921 23.625 465.206 23.94 465.206 24.39C465.116 24.87 464.951 25.845 464.711 27.315C464.471 28.755 464.216 30.495 463.946 32.535C463.676 34.575 463.451 36.705 463.271 38.925C464.021 38.925 464.576 38.85 464.936 38.7C465.206 38.58 465.431 38.52 465.611 38.52C465.791 38.52 465.881 38.595 465.881 38.745C465.881 38.955 465.746 39.165 465.476 39.375C464.996 39.705 464.231 39.915 463.181 40.005C463.121 40.755 463.046 41.745 462.956 42.975C462.866 44.205 462.821 45.48 462.821 46.8C462.821 48.12 462.896 49.395 463.046 50.625C463.196 51.855 463.451 52.86 463.811 53.64C464.201 54.42 464.741 54.81 465.431 54.81C465.731 54.81 466.046 54.675 466.376 54.405C466.706 54.135 466.901 53.895 466.961 53.685C467.051 53.445 467.156 53.325 467.276 53.325C467.456 53.325 467.546 53.49 467.546 53.82V53.865C467.546 54.585 467.276 55.125 466.736 55.485C466.196 55.875 465.551 56.07 464.801 56.07C463.781 56.07 462.941 55.74 462.281 55.08C461.651 54.45 461.156 53.595 460.796 52.515C460.466 51.405 460.226 50.175 460.076 48.825C459.956 47.475 459.896 46.11 459.896 44.73C459.896 43.08 459.941 41.565 460.031 40.185C459.221 40.185 458.366 40.17 457.466 40.14C456.596 40.11 455.726 40.095 454.856 40.095C453.866 40.095 452.846 40.11 451.796 40.14C450.776 40.14 449.741 40.17 448.691 40.23C448.661 42.06 448.481 43.92 448.151 45.81C447.851 47.67 447.311 49.38 446.531 50.94C445.811 52.38 444.851 53.685 443.651 54.855C442.481 56.025 441.131 56.94 439.601 57.6C438.101 58.29 436.481 58.635 434.741 58.635ZM433.301 57.42C434.921 57.42 436.391 57 437.711 56.16C439.061 55.35 440.261 54.27 441.311 52.92C442.361 51.57 443.261 50.1 444.011 48.51C444.611 47.25 445.106 45.93 445.496 44.55C445.886 43.14 446.186 41.775 446.396 40.455C443.906 40.725 441.491 41.265 439.151 42.075C436.811 42.885 434.756 44.19 432.986 45.99C432.506 46.47 432.011 47.16 431.501 48.06C430.991 48.96 430.556 49.935 430.196 50.985C429.866 52.005 429.701 52.98 429.701 53.91C429.701 54.9 429.971 55.725 430.511 56.385C431.051 57.075 431.981 57.42 433.301 57.42ZM472.628 54.45C471.608 54.45 470.768 54.18 470.108 53.64C469.478 53.1 468.983 52.395 468.623 51.525C468.293 50.655 468.053 49.71 467.903 48.69C467.783 47.64 467.723 46.62 467.723 45.63C467.723 44.88 467.753 44.19 467.813 43.56C467.873 42.9 467.918 42.33 467.948 41.85C468.098 40.59 468.428 39.33 468.938 38.07C469.448 36.78 470.198 35.715 471.188 34.875C472.178 34.005 473.483 33.57 475.103 33.57C476.243 33.57 477.113 33.945 477.713 34.695C478.343 35.415 478.778 36.36 479.018 37.53C479.258 38.67 479.378 39.885 479.378 41.175C479.378 41.535 479.363 41.895 479.333 42.255C479.333 42.615 479.318 42.975 479.288 43.335C480.038 44.175 480.938 44.595 481.988 44.595C482.798 44.595 483.593 44.295 484.373 43.695C484.553 43.545 484.718 43.47 484.868 43.47C484.988 43.47 485.048 43.545 485.048 43.695C485.048 43.965 484.973 44.145 484.823 44.235C484.343 44.685 483.833 45.015 483.293 45.225C482.753 45.435 482.213 45.54 481.673 45.54C480.743 45.54 479.888 45.27 479.108 44.73C479.048 45.3 478.958 45.84 478.838 46.35C478.748 46.83 478.658 47.25 478.568 47.61C478.298 48.54 477.893 49.545 477.353 50.625C476.843 51.675 476.183 52.575 475.373 53.325C474.593 54.075 473.678 54.45 472.628 54.45ZM474.113 51.975C474.743 51.975 475.268 51.675 475.688 51.075C476.138 50.475 476.513 49.785 476.813 49.005C477.113 48.225 477.323 47.565 477.443 47.025C477.533 46.605 477.608 46.125 477.668 45.585C477.728 45.045 477.773 44.4 477.803 43.65C477.383 43.29 477.023 42.645 476.723 41.715C476.453 40.755 476.318 39.84 476.318 38.97C476.318 38.37 476.393 37.845 476.543 37.395C476.693 36.915 476.918 36.6 477.218 36.45C477.038 36 476.798 35.58 476.498 35.19C476.198 34.77 475.778 34.56 475.238 34.56C474.728 34.56 474.263 34.86 473.843 35.46C473.453 36.06 473.108 36.78 472.808 37.62C472.508 38.46 472.268 39.255 472.088 40.005C471.938 40.755 471.848 41.28 471.818 41.58C471.788 41.91 471.743 42.42 471.683 43.11C471.623 43.77 471.593 44.505 471.593 45.315C471.593 46.335 471.653 47.355 471.773 48.375C471.923 49.395 472.178 50.25 472.538 50.94C472.898 51.63 473.423 51.975 474.113 51.975ZM481.674 69.48C480.624 69.48 479.889 68.97 479.469 67.95C479.019 66.93 478.794 65.67 478.794 64.17C478.794 63.54 478.824 62.865 478.884 62.145C478.944 61.455 479.034 60.765 479.154 60.075C479.304 59.115 479.514 58.17 479.784 57.24C480.054 56.31 480.339 55.425 480.639 54.585C481.059 53.385 481.524 52.26 482.034 51.21C482.574 50.13 482.844 48.945 482.844 47.655V47.475C482.844 45.705 482.769 44.055 482.619 42.525C482.499 40.995 482.334 39.675 482.124 38.565C481.944 37.455 481.764 36.645 481.584 36.135C482.184 35.955 482.694 35.745 483.114 35.505C483.534 35.265 483.924 35.13 484.284 35.1H484.509C485.079 35.1 485.439 35.4 485.589 36C485.739 36.57 485.829 37.26 485.859 38.07C485.889 38.61 485.904 39.315 485.904 40.185C485.904 41.055 485.919 42.015 485.949 43.065C486.369 41.565 486.864 40.11 487.434 38.7C488.004 37.29 488.634 36.135 489.324 35.235C490.014 34.305 490.719 33.84 491.439 33.84C492.339 33.84 493.029 34.155 493.509 34.785C494.019 35.415 494.379 36.21 494.589 37.17C494.829 38.1 494.964 39.045 494.994 40.005C495.054 40.935 495.084 41.715 495.084 42.345C495.084 43.905 494.874 45.54 494.454 47.25C494.064 48.96 493.419 50.415 492.519 51.615H492.834C493.914 51.615 494.979 51.12 496.029 50.13C497.109 49.11 498.024 47.58 498.774 45.54C498.894 45.24 499.029 45.09 499.179 45.09C499.389 45.09 499.494 45.255 499.494 45.585C499.494 45.705 499.479 45.795 499.449 45.855C498.639 48.195 497.634 49.89 496.434 50.94C495.264 51.99 494.109 52.515 492.969 52.515C492.789 52.515 492.609 52.5 492.429 52.47C492.249 52.41 492.069 52.365 491.889 52.335C491.409 52.845 490.854 53.25 490.224 53.55C489.594 53.85 488.889 54 488.109 54C487.239 54 486.579 53.82 486.129 53.46V55.44C486.129 56.37 486.129 57.21 486.129 57.96C486.129 58.74 486.114 59.37 486.084 59.85C485.994 61.74 485.829 63.285 485.589 64.485C485.289 65.955 484.839 67.155 484.239 68.085C483.639 69.015 482.829 69.48 481.809 69.48H481.674ZM487.434 52.785C487.914 52.785 488.349 52.635 488.739 52.335C489.429 51.795 489.984 50.925 490.404 49.725C490.854 48.495 491.169 47.28 491.349 46.08C491.439 45.57 491.499 44.955 491.529 44.235C491.589 43.515 491.619 42.78 491.619 42.03C491.619 40.74 491.514 39.585 491.304 38.565C491.094 37.515 490.689 36.99 490.089 36.99C489.729 36.99 489.354 37.305 488.964 37.935C488.604 38.565 488.244 39.39 487.884 40.41C487.524 41.43 487.179 42.525 486.849 43.695C486.549 44.835 486.279 45.93 486.039 46.98C486.069 47.85 486.084 48.72 486.084 49.59C486.084 50.46 486.084 51.33 486.084 52.2C486.474 52.59 486.924 52.785 487.434 52.785ZM481.494 68.04C481.674 68.04 481.854 67.905 482.034 67.635C482.244 67.395 482.424 66.99 482.574 66.42C482.784 65.64 482.919 64.635 482.979 63.405C483.069 62.175 483.114 60.885 483.114 59.535C483.114 58.065 483.084 56.625 483.024 55.215C482.964 53.835 482.904 52.68 482.844 51.75C482.574 52.38 482.274 53.13 481.944 54C481.614 54.87 481.329 55.785 481.089 56.745C480.789 57.825 480.549 58.92 480.369 60.03C480.159 61.17 480.054 62.31 480.054 63.45C480.054 64.41 480.144 65.37 480.324 66.33C480.414 66.75 480.579 67.14 480.819 67.5C481.029 67.86 481.254 68.04 481.494 68.04ZM503.948 54.855C502.508 54.855 501.338 54.42 500.438 53.55C499.568 52.65 498.923 51.555 498.503 50.265C498.113 48.945 497.918 47.655 497.918 46.395C497.918 44.955 498.068 43.515 498.368 42.075C498.668 40.605 499.133 39.27 499.763 38.07C500.423 36.87 501.248 35.91 502.238 35.19C503.228 34.44 504.398 34.065 505.748 34.065C506.708 34.065 507.458 34.35 507.998 34.92C508.538 35.49 508.808 36.33 508.808 37.44C508.808 38.94 508.433 40.275 507.683 41.445C506.963 42.585 506.048 43.515 504.938 44.235C503.828 44.955 502.673 45.45 501.473 45.72V45.945C501.473 47.175 501.593 48.33 501.833 49.41C502.103 50.46 502.523 51.315 503.093 51.975C503.693 52.605 504.473 52.92 505.433 52.92C506.603 52.92 507.503 52.44 508.133 51.48C508.763 50.49 509.258 49.245 509.618 47.745C509.648 47.625 509.693 47.52 509.753 47.43C509.843 47.31 509.918 47.25 509.978 47.25C510.248 47.25 510.368 47.445 510.338 47.835C510.248 48.645 510.068 49.41 509.798 50.13C509.528 50.85 509.243 51.465 508.943 51.975C508.373 52.905 507.683 53.61 506.873 54.09C506.093 54.6 505.118 54.855 503.948 54.855ZM501.518 44.685C502.478 44.445 503.318 43.98 504.038 43.29C504.758 42.57 505.313 41.73 505.703 40.77C506.123 39.81 506.333 38.835 506.333 37.845V37.62C506.333 37.08 506.243 36.57 506.063 36.09C505.913 35.61 505.613 35.37 505.163 35.37C504.623 35.37 504.143 35.64 503.723 36.18C503.333 36.69 502.988 37.35 502.688 38.16C502.418 38.97 502.193 39.81 502.013 40.68C501.833 41.55 501.698 42.345 501.608 43.065C501.548 43.785 501.518 44.31 501.518 44.64V44.685Z" fill="white"/>
<path d="M152.787 328C150.876 328 149.101 327.583 147.462 326.749C145.823 325.915 144.503 324.682 143.502 323.049C142.501 321.382 142 319.332 142 316.9C142 316.692 142 316.483 142 316.275C142.03 316.066 142.046 315.892 142.046 315.754H148.099C148.099 315.788 148.084 315.91 148.054 316.118C148.054 316.292 148.054 316.448 148.054 316.587C148.054 318.29 148.494 319.662 149.374 320.704C150.254 321.746 151.483 322.268 153.06 322.268C154.82 322.268 156.049 321.833 156.747 320.965C157.445 320.062 157.794 319.089 157.794 318.046C157.794 316.831 157.521 315.858 156.975 315.128C156.429 314.399 155.7 313.808 154.79 313.356C153.91 312.87 152.924 312.436 151.832 312.054C150.769 311.671 149.692 311.237 148.6 310.751C147.507 310.264 146.506 309.639 145.596 308.875C144.716 308.076 144.003 307.051 143.457 305.8C142.91 304.549 142.637 302.951 142.637 301.006C142.637 298.747 143.123 296.889 144.094 295.43C145.065 293.936 146.339 292.824 147.917 292.094C149.525 291.365 151.24 291 153.06 291C154.911 291 156.596 291.365 158.113 292.094C159.66 292.824 160.889 293.97 161.8 295.534C162.74 297.062 163.211 299.06 163.211 301.527V302.152H157.248V301.683C157.248 300.154 156.869 298.956 156.11 298.087C155.382 297.184 154.35 296.732 153.015 296.732C151.619 296.732 150.542 297.097 149.783 297.827C149.025 298.522 148.645 299.425 148.645 300.537C148.645 301.579 148.918 302.413 149.465 303.038C150.011 303.663 150.724 304.185 151.604 304.601C152.514 305.018 153.516 305.418 154.608 305.8C155.7 306.147 156.778 306.564 157.84 307.051C158.932 307.537 159.918 308.18 160.798 308.979C161.709 309.743 162.437 310.751 162.983 312.001C163.529 313.217 163.802 314.763 163.802 316.639C163.802 319.384 163.332 321.59 162.391 323.258C161.451 324.891 160.146 326.089 158.477 326.854C156.838 327.618 154.942 328 152.787 328Z" fill="white"/>
<path d="M182.322 328C178.286 328 175.115 326.489 172.809 323.466C170.503 320.444 169.35 315.788 169.35 309.5C169.35 303.177 170.503 298.522 172.809 295.534C175.115 292.511 178.286 291 182.322 291C186.358 291 189.528 292.511 191.835 295.534C194.141 298.522 195.294 303.177 195.294 309.5C195.294 315.788 194.141 320.444 191.835 323.466C189.528 326.489 186.358 328 182.322 328ZM182.322 322.268C184.658 322.268 186.403 321.26 187.556 319.245C188.709 317.195 189.286 314.381 189.286 310.803V308.197C189.286 304.619 188.709 301.822 187.556 299.807C186.403 297.757 184.658 296.732 182.322 296.732C180.016 296.732 178.271 297.757 177.087 299.807C175.934 301.822 175.358 304.619 175.358 308.197V310.803C175.358 314.381 175.934 317.195 177.087 319.245C178.271 321.26 180.016 322.268 182.322 322.268Z" fill="white"/>
<path d="M212.576 328C209.238 328 206.614 327.01 204.702 325.03C202.821 323.015 201.88 320.062 201.88 316.17V291.625H207.706V315.962C207.706 318.012 208.131 319.575 208.98 320.652C209.83 321.729 211.029 322.268 212.576 322.268C214.124 322.268 215.322 321.729 216.172 320.652C217.052 319.575 217.492 318.012 217.492 315.962V291.625H223.318V316.17C223.318 320.062 222.362 323.015 220.451 325.03C218.539 327.01 215.914 328 212.576 328Z" fill="white"/>
<path d="M236.827 327.375V297.566H229.089V291.625H250.391V297.566H242.653V327.375H236.827Z" fill="white"/>
<path d="M256.125 327.375V291.625H261.951V306.113H271.783V291.625H277.609V327.375H271.783V312.054H261.951V327.375H256.125Z" fill="white"/>
<path d="M309.212 328C305.298 328 302.248 326.489 300.063 323.466C297.879 320.444 296.786 315.788 296.786 309.5C296.786 303.177 297.879 298.522 300.063 295.534C302.248 292.511 305.298 291 309.212 291C311.397 291 313.354 291.486 315.084 292.459C316.813 293.432 318.179 294.943 319.18 296.993C320.182 299.043 320.682 301.683 320.682 304.914H314.72C314.72 302.135 314.204 300.085 313.172 298.765C312.171 297.41 310.851 296.732 309.212 296.732C307.058 296.732 305.45 297.757 304.388 299.807C303.325 301.822 302.794 304.619 302.794 308.197V310.803C302.794 314.381 303.341 317.195 304.433 319.245C305.525 321.26 307.179 322.268 309.394 322.268C311.094 322.268 312.444 321.608 313.445 320.287C314.477 318.932 314.993 316.883 314.993 314.138H320.682C320.682 317.265 320.182 319.853 319.18 321.903C318.179 323.953 316.813 325.481 315.084 326.489C313.385 327.496 311.427 328 309.212 328Z" fill="white"/>
<path d="M324.451 327.375L334.51 291.625H341.292L351.351 327.375H345.388L343.477 320.339H331.961L330.095 327.375H324.451ZM333.554 314.399H341.884L338.743 302.465C338.591 301.839 338.44 301.145 338.288 300.38C338.136 299.616 338.015 298.973 337.924 298.452C337.863 297.896 337.833 297.618 337.833 297.618H337.651C337.651 297.618 337.605 297.914 337.514 298.504C337.423 299.06 337.302 299.72 337.15 300.485C337.029 301.249 336.892 301.909 336.74 302.465L333.554 314.399Z" fill="white"/>
<path d="M356.394 327.375V291.625H369.457C372.613 291.625 374.995 292.598 376.603 294.544C378.212 296.454 379.016 298.886 379.016 301.839C379.016 303.993 378.545 305.869 377.605 307.468C376.664 309.066 375.39 310.247 373.781 311.011L379.789 327.375H373.463L368.274 312.47H362.22V327.375H356.394ZM362.22 306.582H368.638C370.064 306.582 371.096 306.165 371.733 305.331C372.401 304.497 372.734 303.333 372.734 301.839C372.734 300.519 372.416 299.477 371.779 298.713C371.172 297.948 370.201 297.566 368.866 297.566H362.22V306.582Z" fill="white"/>
<path d="M397.395 328C393.359 328 390.188 326.489 387.882 323.466C385.576 320.444 384.423 315.788 384.423 309.5C384.423 303.177 385.576 298.522 387.882 295.534C390.188 292.511 393.359 291 397.395 291C401.431 291 404.602 292.511 406.908 295.534C409.214 298.522 410.367 303.177 410.367 309.5C410.367 315.788 409.214 320.444 406.908 323.466C404.602 326.489 401.431 328 397.395 328ZM397.395 322.268C399.732 322.268 401.476 321.26 402.629 319.245C403.783 317.195 404.359 314.381 404.359 310.803V308.197C404.359 304.619 403.783 301.822 402.629 299.807C401.476 297.757 399.732 296.732 397.395 296.732C395.089 296.732 393.344 297.757 392.161 299.807C391.008 301.822 390.431 304.619 390.431 308.197V310.803C390.431 314.381 391.008 317.195 392.161 319.245C393.344 321.26 395.089 322.268 397.395 322.268Z" fill="white"/>
<path d="M416.908 327.375V291.625H422.734V321.121H435.933V327.375H416.908Z" fill="white"/>
<path d="M441.531 327.375V291.625H447.357V327.375H441.531Z" fill="white"/>
<path d="M454.619 327.375V291.625H459.762L469.411 311.324C469.593 311.602 469.791 312.019 470.003 312.575C470.216 313.096 470.398 313.582 470.549 314.034C470.731 314.451 470.822 314.659 470.822 314.659L470.959 314.503C470.959 314.503 470.959 314.294 470.959 313.877C470.959 313.461 470.944 313.009 470.913 312.523C470.913 312.036 470.913 311.706 470.913 311.532V291.625H476.102V327.375H470.913L461.264 307.676C461.143 307.433 460.961 307.051 460.718 306.53C460.505 305.974 460.308 305.47 460.126 305.018C459.944 304.567 459.853 304.341 459.853 304.341L459.671 304.497C459.671 304.497 459.671 304.688 459.671 305.07C459.701 305.418 459.716 305.835 459.716 306.321C459.747 306.773 459.762 307.155 459.762 307.468V327.375H454.619Z" fill="white"/>
<path d="M481.1 327.375L491.159 291.625H497.941L508 327.375H502.037L500.126 320.339H488.61L486.744 327.375H481.1ZM490.203 314.399H498.533L495.392 302.465C495.24 301.839 495.089 301.145 494.937 300.38C494.785 299.616 494.664 298.973 494.573 298.452C494.512 297.896 494.482 297.618 494.482 297.618H494.3C494.3 297.618 494.254 297.914 494.163 298.504C494.072 299.06 493.951 299.72 493.799 300.485C493.678 301.249 493.541 301.909 493.389 302.465L490.203 314.399Z" fill="white"/>
<path d="M320 273.5V186L312.5 177.5L319 179L313.5 173L319 174L314.5 169.5L319 170.5L316.5 167L311.5 169.5L309 174L306.5 172L304 177.5L302 175.5L299 177.5L297.5 176L295.5 177.5L293.5 173L295 167L291.5 168.5V166V164H290V162L286 164V160.5L287 158.5L280.5 162L280 158.5L283 153.5L277.5 155L281.5 150L280 149L283 146.5L281.5 144L278 145.5H275.5L277.5 140.5H274.5L274 138.5L274.5 137L267 138.5L268.5 135L275.5 130L274.5 128.5H270V127.5L274 124.5L272 121.5L279.5 119.5L279 116.5H281.5L288.5 119.5L301 122.5L299.5 118L293.5 119.5V115.5L286 116.5L287.5 113L290.5 112L288 110.5L292.5 108.5L297 109.5L298 107L307 110.5V109.5L304 107L306.5 105.5L301.5 102.5L304 101.5H308.5L305 96.5L312 98L313 93.5L318.5 97L320.5 92L325 95.5L329 93L330.5 97L335 95L335.5 99.5L339 99L337.5 106.5L345.5 97H347V99L351.5 98L351 102L354.5 103.5L352.5 105.5L354 107.5L356 109.5L359.5 108.5H363L366 109.5L369.5 112L366 113.5L367 116H363L363.5 117.5L358.5 120H373L379.5 123L382 127L381 132L378 130L376.5 132.5L371 130V131.5L367 130H365V132.5L369.5 133.5V136L375 137V139L372 140.5L375 142L376.5 143.5L375.5 145L372.5 145.5L374 148L375 150.5V154L372.5 155.5L371 154L369.5 152.5L367.5 154L361.5 148L360.5 147L359.5 149.5L356.5 148L354 145.5L352.5 147L350 144.5H349L349.5 146.5L350.5 149.5L354.5 151.5L356 153.5L360 156L362.5 159L361 159.5L363 162L364.5 165V167.5L364 169L362.5 171L360.5 172.5L359 172L355 167.5L354.5 171L349 166.5V171L345 168L343.5 172.5L341 170L338 167.5H334.5L332.5 169L332 171.5L337 170L332.5 174.5L339 174L332.5 179L339 178.5L332.5 185.5L331.5 189.5C330.84 220.523 331.487 272.852 331.5 273.496C331.5 273.497 331.5 273.499 331.5 273.5C331.5 273.504 331.5 273.503 331.5 273.496C331.459 273.103 324.984 273.5 320 273.5Z" fill="#081F5E" fill-opacity="0.3"/>
<path fill-rule="evenodd" clip-rule="evenodd" d="M252.082 104.013C265.299 104.013 276.013 93.2986 276.013 80.0819C276.013 76.2834 275.128 72.6916 273.553 69.5015C280.323 73.5893 284.849 81.0172 284.849 89.5023C284.849 102.397 274.396 112.85 261.502 112.85C253.016 112.85 245.588 108.323 241.5 101.552C244.691 103.128 248.283 104.013 252.082 104.013Z" fill="#081F5E" fill-opacity="0.3"/>
<defs>
<linearGradient id="paint0_linear_1068_330" x1="324.5" y1="0" x2="324.5" y2="348" gradientUnits="userSpaceOnUse">
<stop offset="0.046875" stop-color="#081F5E"/>
<stop offset="0.265625" stop-color="white" stop-opacity="0.776042"/>
<stop offset="0.786358" stop-color="white" stop-opacity="0.322917"/>
<stop offset="0.786458" stop-color="#081F5E"/>
</linearGradient>
</defs>
</svg>
