<svg width="649" height="348" viewBox="0 0 649 348" fill="none" xmlns="http://www.w3.org/2000/svg">
<rect width="649" height="348" rx="41" fill="#182958"/>
<rect x="10.5" y="11.5" width="628" height="325" rx="28.5" fill="#182958" stroke="white" stroke-width="3"/>
<path d="M188.31 18.8936L195.305 10H497.938L504 13.7447V17.0213L500.736 21.7021L497.938 30.1277L487.679 34.3404L482.084 40.8936L477.887 48.383L475.089 55.4043L469.493 59.1489L462.032 64.766L458.768 71.7872L455.038 76H167.326H161.264L158 71.7872L161.264 64.766L165.461 53.5319L173.854 46.9787L177.585 36.2128L179.916 26.8511L188.31 18.8936Z" stroke="white" stroke-width="3"/>
<path d="M210.395 53.6594H206.68V32.0313H198V29.3406H218.991V32.0313H210.395V53.6594Z" fill="white"/>
<path d="M244.382 53.6594H228.691V29.3406H244.382V32.0313H232.405V39.6267H243.673V42.2834H232.405V50.9687H244.382V53.6594Z" fill="white"/>
<path d="M278.37 53.6594H273.989L259.215 33.4619H259.048C259.076 33.8706 259.104 34.3247 259.132 34.8243C259.187 35.3238 259.229 35.8688 259.257 36.4591C259.285 37.0268 259.313 37.6172 259.34 38.2302C259.368 38.8433 259.382 39.4564 259.382 40.0695V53.6594H255.96V29.3406H260.3L275.032 49.47H275.199C275.171 49.1975 275.143 48.8229 275.115 48.346C275.088 47.8465 275.06 47.3015 275.032 46.7112C275.004 46.0981 274.976 45.4737 274.948 44.8379C274.921 44.2021 274.907 43.6117 274.907 43.0668V29.3406H278.37V53.6594Z" fill="white"/>
<path d="M313.791 53.6594H309.409L294.636 33.4619H294.469C294.497 33.8706 294.524 34.3247 294.552 34.8243C294.608 35.3238 294.65 35.8688 294.677 36.4591C294.705 37.0268 294.733 37.6172 294.761 38.2302C294.789 38.8433 294.803 39.4564 294.803 40.0695V53.6594H291.381V29.3406H295.721L310.452 49.47H310.619C310.591 49.1975 310.564 48.8229 310.536 48.346C310.508 47.8465 310.48 47.3015 310.452 46.7112C310.424 46.0981 310.397 45.4737 310.369 44.8379C310.341 44.2021 310.327 43.6117 310.327 43.0668V29.3406H313.791V53.6594Z" fill="white"/>
<path d="M342.492 53.6594H326.801V29.3406H342.492V32.0313H330.515V39.6267H341.783V42.2834H330.515V50.9687H342.492V53.6594Z" fill="white"/>
<path d="M370.012 47.154C370.012 48.6072 369.595 49.8447 368.76 50.8665C367.954 51.8656 366.799 52.6376 365.297 53.1826C363.822 53.7275 362.055 54 359.997 54C358.967 54 357.966 53.9546 356.992 53.8638C356.046 53.7729 355.169 53.648 354.363 53.4891C353.584 53.3074 352.888 53.0917 352.276 52.842V49.9128C353.25 50.2761 354.432 50.6054 355.823 50.9005C357.242 51.1957 358.689 51.3433 360.163 51.3433C361.527 51.3433 362.653 51.1844 363.544 50.8665C364.462 50.5486 365.144 50.0945 365.589 49.5041C366.062 48.9137 366.298 48.2212 366.298 47.4264C366.298 46.6317 366.089 45.9619 365.672 45.4169C365.283 44.8719 364.615 44.3724 363.669 43.9183C362.723 43.4414 361.429 42.9419 359.788 42.4196C358.619 42.0336 357.59 41.6249 356.7 41.1935C355.809 40.7393 355.058 40.2284 354.446 39.6608C353.834 39.0931 353.375 38.446 353.069 37.7193C352.763 36.9927 352.61 36.1526 352.61 35.1989C352.61 33.9046 352.985 32.8034 353.737 31.8951C354.516 30.9641 355.573 30.2489 356.908 29.7493C358.272 29.2498 359.844 29 361.624 29C363.154 29 364.559 29.1249 365.839 29.3747C367.119 29.6244 368.301 29.9537 369.386 30.3624L368.218 32.985C367.216 32.6217 366.145 32.3152 365.004 32.0654C363.892 31.8156 362.737 31.6907 361.541 31.6907C360.4 31.6907 359.44 31.8383 358.661 32.1335C357.91 32.4287 357.34 32.8488 356.95 33.3937C356.561 33.916 356.366 34.5291 356.366 35.233C356.366 36.0504 356.561 36.7316 356.95 37.2766C357.34 37.8215 357.979 38.3097 358.87 38.7411C359.76 39.1726 360.942 39.6381 362.417 40.1376C364.058 40.6599 365.436 41.2275 366.549 41.8406C367.689 42.431 368.552 43.1462 369.136 43.9864C369.72 44.8265 370.012 45.8824 370.012 47.154Z" fill="white"/>
<path d="M396.997 47.154C396.997 48.6072 396.579 49.8447 395.745 50.8665C394.938 51.8656 393.783 52.6376 392.281 53.1826C390.806 53.7275 389.04 54 386.981 54C385.951 54 384.95 53.9546 383.976 53.8638C383.03 53.7729 382.154 53.648 381.347 53.4891C380.568 53.3074 379.872 53.0917 379.26 52.842V49.9128C380.234 50.2761 381.416 50.6054 382.808 50.9005C384.226 51.1957 385.673 51.3433 387.148 51.3433C388.511 51.3433 389.638 51.1844 390.528 50.8665C391.446 50.5486 392.128 50.0945 392.573 49.5041C393.046 48.9137 393.282 48.2212 393.282 47.4264C393.282 46.6317 393.074 45.9619 392.656 45.4169C392.267 44.8719 391.599 44.3724 390.653 43.9183C389.707 43.4414 388.414 42.9419 386.772 42.4196C385.604 42.0336 384.574 41.6249 383.684 41.1935C382.794 40.7393 382.042 40.2284 381.43 39.6608C380.818 39.0931 380.359 38.446 380.053 37.7193C379.747 36.9927 379.594 36.1526 379.594 35.1989C379.594 33.9046 379.97 32.8034 380.721 31.8951C381.5 30.9641 382.557 30.2489 383.893 29.7493C385.256 29.2498 386.828 29 388.608 29C390.139 29 391.544 29.1249 392.823 29.3747C394.103 29.6244 395.286 29.9537 396.371 30.3624L395.202 32.985C394.201 32.6217 393.129 32.3152 391.989 32.0654C390.876 31.8156 389.721 31.6907 388.525 31.6907C387.384 31.6907 386.424 31.8383 385.645 32.1335C384.894 32.4287 384.324 32.8488 383.934 33.3937C383.545 33.916 383.35 34.5291 383.35 35.233C383.35 36.0504 383.545 36.7316 383.934 37.2766C384.324 37.8215 384.964 38.3097 385.854 38.7411C386.744 39.1726 387.927 39.6381 389.401 40.1376C391.043 40.6599 392.42 41.2275 393.533 41.8406C394.673 42.431 395.536 43.1462 396.12 43.9864C396.704 44.8265 396.997 45.8824 396.997 47.154Z" fill="white"/>
<path d="M423.73 53.6594H408.039V29.3406H423.73V32.0313H411.753V39.6267H423.021V42.2834H411.753V50.9687H423.73V53.6594Z" fill="white"/>
<path d="M451 53.6594H435.309V29.3406H451V32.0313H439.023V39.6267H450.291V42.2834H439.023V50.9687H451V53.6594Z" fill="white"/>
<path d="M28.695 37H26.859V26.443H23.221V24.862H32.333V26.443H28.695V37ZM47.4031 37H45.5671V31.458H39.7701V37H37.9341V24.862H39.7701V29.894H45.5671V24.862H47.4031V37ZM61.2249 37H54.3909V24.862H61.2249V26.426H56.2269V29.894H60.9189V31.441H56.2269V35.419H61.2249V37ZM33.455 41.862L29.171 54H27.267L23 41.862H24.887L27.488 49.478C27.59 49.75 27.6863 50.0447 27.777 50.362C27.8677 50.668 27.9527 50.974 28.032 51.28C28.1113 51.586 28.1737 51.875 28.219 52.147C28.2757 51.875 28.338 51.586 28.406 51.28C28.4853 50.974 28.5703 50.6623 28.661 50.345C28.763 50.0277 28.8593 49.733 28.95 49.461L31.551 41.862H33.455ZM49.358 47.914C49.358 48.8547 49.239 49.7103 49.001 50.481C48.7743 51.2403 48.423 51.8977 47.947 52.453C47.4823 53.0083 46.893 53.4333 46.179 53.728C45.4763 54.0227 44.6546 54.17 43.714 54.17C42.7506 54.17 41.912 54.0227 41.198 53.728C40.4953 53.422 39.906 52.997 39.43 52.453C38.9653 51.8977 38.6196 51.2347 38.393 50.464C38.1663 49.6933 38.053 48.8377 38.053 47.897C38.053 46.6503 38.257 45.5623 38.665 44.633C39.073 43.7037 39.6963 42.9783 40.535 42.457C41.385 41.9357 42.4503 41.675 43.731 41.675C44.9776 41.675 46.0146 41.9357 46.842 42.457C47.6806 42.967 48.3096 43.6923 48.729 44.633C49.1483 45.5623 49.358 46.656 49.358 47.914ZM39.991 47.914C39.991 48.8887 40.1213 49.7273 40.382 50.43C40.6426 51.1213 41.0506 51.6597 41.606 52.045C42.1613 52.419 42.864 52.606 43.714 52.606C44.5753 52.606 45.278 52.419 45.822 52.045C46.366 51.6597 46.7683 51.1213 47.029 50.43C47.2896 49.7273 47.42 48.8887 47.42 47.914C47.42 46.452 47.1253 45.313 46.536 44.497C45.958 43.6697 45.023 43.256 43.731 43.256C42.8696 43.256 42.1613 43.443 41.606 43.817C41.0506 44.191 40.6426 44.7237 40.382 45.415C40.1213 46.1063 39.991 46.9393 39.991 47.914ZM55.7356 54V41.862H57.5716V52.419H62.7566V54H55.7356ZM77.8419 49.716C77.8419 50.5547 77.6662 51.314 77.3149 51.994C76.9749 52.6627 76.4479 53.1953 75.7339 53.592C75.0199 53.9773 74.1189 54.17 73.0309 54.17C71.4895 54.17 70.3165 53.762 69.5119 52.946C68.7185 52.1187 68.3219 51.0307 68.3219 49.682V41.862H70.1579V49.597C70.1579 50.5943 70.4015 51.348 70.8889 51.858C71.3762 52.3567 72.1185 52.606 73.1159 52.606C73.7959 52.606 74.3512 52.4813 74.7819 52.232C75.2125 51.9827 75.5242 51.637 75.7169 51.195C75.9209 50.7417 76.0229 50.2033 76.0229 49.58V41.862H77.8419V49.716ZM94.6766 54H92.4496L86.3126 44.191H86.2446C86.256 44.4177 86.2673 44.6613 86.2786 44.922C86.3013 45.1827 86.3183 45.4603 86.3296 45.755C86.341 46.0383 86.3523 46.333 86.3636 46.639C86.375 46.9337 86.3806 47.234 86.3806 47.54V54H84.7146V41.862H86.9246L93.0446 51.62H93.0956C93.0843 51.45 93.073 51.2403 93.0616 50.991C93.0503 50.7303 93.039 50.4527 93.0276 50.158C93.0276 49.8633 93.022 49.563 93.0106 49.257C92.9993 48.951 92.988 48.662 92.9766 48.39V41.862H94.6766V54ZM105.733 54H103.897V43.443H100.259V41.862H109.371V43.443H105.733V54ZM121.806 54H114.972V41.862H121.806V43.426H116.808V46.894H121.5V48.441H116.808V52.419H121.806V54ZM135.009 54H128.175V41.862H135.009V43.426H130.011V46.894H134.703V48.441H130.011V52.419H135.009V54ZM144.778 41.862C145.82 41.862 146.676 41.9923 147.345 42.253C148.013 42.5137 148.512 42.9047 148.841 43.426C149.169 43.936 149.334 44.582 149.334 45.364C149.334 45.9873 149.215 46.5143 148.977 46.945C148.75 47.3643 148.455 47.71 148.093 47.982C147.73 48.2427 147.35 48.4523 146.954 48.611L150.354 54H148.246L145.322 49.087H143.214V54H141.378V41.862H144.778ZM144.659 43.426H143.214V47.557H144.744C145.367 47.557 145.877 47.4777 146.274 47.319C146.682 47.1603 146.976 46.9223 147.158 46.605C147.35 46.2877 147.447 45.8967 147.447 45.432C147.447 44.9447 147.345 44.5593 147.141 44.276C146.948 43.9813 146.642 43.766 146.223 43.63C145.815 43.494 145.293 43.426 144.659 43.426ZM31.585 67.719C31.585 68.4443 31.4093 69.062 31.058 69.572C30.7067 70.082 30.2023 70.4787 29.545 70.762C28.8877 71.034 28.1057 71.17 27.199 71.17C26.757 71.17 26.332 71.1417 25.924 71.085C25.516 71.0397 25.1363 70.9717 24.785 70.881C24.4337 70.7903 24.122 70.677 23.85 70.541V68.807C24.3033 69.011 24.836 69.198 25.448 69.368C26.06 69.5267 26.6833 69.606 27.318 69.606C27.862 69.606 28.3153 69.5323 28.678 69.385C29.0407 69.2377 29.3127 69.0337 29.494 68.773C29.6753 68.5123 29.766 68.2063 29.766 67.855C29.766 67.481 29.6697 67.1693 29.477 66.92C29.2957 66.6593 29.0067 66.4213 28.61 66.206C28.2247 65.9793 27.7033 65.7413 27.046 65.492C26.5927 65.322 26.179 65.135 25.805 64.931C25.4423 64.7157 25.1193 64.4663 24.836 64.183C24.564 63.8997 24.3543 63.571 24.207 63.197C24.0597 62.823 23.986 62.3867 23.986 61.888C23.986 61.2193 24.1503 60.647 24.479 60.171C24.819 59.695 25.2837 59.3323 25.873 59.083C26.4623 58.8223 27.148 58.692 27.93 58.692C28.5873 58.692 29.1937 58.76 29.749 58.896C30.3157 59.0207 30.854 59.1963 31.364 59.423L30.786 60.936C30.3213 60.7433 29.851 60.5847 29.375 60.46C28.899 60.3353 28.4003 60.273 27.879 60.273C27.4257 60.273 27.046 60.341 26.74 60.477C26.434 60.613 26.2017 60.8 26.043 61.038C25.8957 61.276 25.822 61.5537 25.822 61.871C25.822 62.245 25.907 62.5567 26.077 62.806C26.247 63.0553 26.519 63.2877 26.893 63.503C27.267 63.707 27.76 63.9337 28.372 64.183C29.052 64.4437 29.63 64.727 30.106 65.033C30.5933 65.339 30.9617 65.7073 31.211 66.138C31.4603 66.5573 31.585 67.0843 31.585 67.719ZM41.7817 71H39.9457V60.443H36.3077V58.862H45.4197V60.443H41.7817V71ZM57.3905 71L56.0985 67.498H51.4065L50.1145 71H48.2105L52.8175 58.811H54.7215L59.3115 71H57.3905ZM54.3645 62.483C54.3305 62.3583 54.2681 62.1713 54.1775 61.922C54.0981 61.6613 54.0188 61.4007 53.9395 61.14C53.8601 60.868 53.7978 60.647 53.7525 60.477C53.6958 60.7037 53.6278 60.953 53.5485 61.225C53.4805 61.4857 53.4125 61.7293 53.3445 61.956C53.2765 62.1713 53.2198 62.347 53.1745 62.483L51.9505 65.9H55.5885L54.3645 62.483ZM67.5732 71H65.7372V60.443H62.0992V58.862H71.2112V60.443H67.5732V71ZM83.6463 71H76.8123V58.862H83.6463V60.426H78.6483V63.894H83.3403V65.441H78.6483V69.419H83.6463V71Z" fill="white"/>
<circle cx="324.5" cy="176.5" r="42" stroke="#ED174F" stroke-width="5"/>
<circle cx="325" cy="177" r="37.5" stroke="white" stroke-width="5"/>
<path d="M317.5 149L320.306 157.637H329.388L322.041 162.975L324.847 171.613L317.5 166.275L310.153 171.613L312.959 162.975L305.612 157.637H314.694L317.5 149Z" fill="white"/>
<path d="M317.5 179L320.306 187.637H329.388L322.041 192.975L324.847 201.613L317.5 196.275L310.153 201.613L312.959 192.975L305.612 187.637H314.694L317.5 179Z" fill="white"/>
<path d="M342.5 162L345.306 170.637H354.388L347.041 175.975L349.847 184.613L342.5 179.275L335.153 184.613L337.959 175.975L330.612 170.637H339.694L342.5 162Z" fill="white"/>
</svg>
