<svg width="649" height="348" viewBox="0 0 649 348" fill="none" xmlns="http://www.w3.org/2000/svg">
<rect width="649" height="348" rx="41" fill="#F4F4F4"/>
<path d="M224.47 81H206.11V30.96H192.34V16.74H238.24V30.96H224.47V81ZM282.027 81H245.577V16.74H282.027V30.69H263.937V40.77H280.677V54.72H263.937V66.87H282.027V81ZM348.066 81H326.826L316.296 60.93L305.946 81H284.886L304.956 48.15L286.056 16.74H306.396L316.116 36.63L325.296 16.74H346.626L327.366 49.5L348.066 81ZM390.545 81L388.385 68.94H370.115L367.775 81H347.525L366.335 16.47H391.535L410.615 81H390.545ZM382.355 44.01C382.055 42.57 381.695 40.95 381.275 39.15C380.855 37.35 380.435 35.49 380.015 33.57C379.655 31.59 379.355 29.73 379.115 27.99C378.875 29.73 378.575 31.56 378.215 33.48C377.855 35.4 377.495 37.26 377.135 39.06C376.775 40.86 376.415 42.48 376.055 43.92L373.535 54.72H384.875L382.355 44.01ZM457.25 61.47C457.25 64.95 456.44 68.25 454.82 71.37C453.26 74.49 450.68 77.04 447.08 79.02C443.48 80.94 438.71 81.9 432.77 81.9C429.65 81.9 427.01 81.75 424.85 81.45C422.75 81.21 420.83 80.79 419.09 80.19C417.35 79.59 415.43 78.81 413.33 77.85V62.37C416.81 64.11 420.29 65.46 423.77 66.42C427.25 67.32 430.25 67.77 432.77 67.77C434.09 67.77 435.2 67.56 436.1 67.14C437 66.72 437.66 66.15 438.08 65.43C438.56 64.71 438.8 63.9 438.8 63C438.8 61.86 438.53 60.9 437.99 60.12C437.45 59.34 436.43 58.53 434.93 57.69C433.43 56.85 431.24 55.83 428.36 54.63C425.66 53.49 423.35 52.32 421.43 51.12C419.57 49.92 418.07 48.57 416.93 47.07C415.79 45.57 414.95 43.83 414.41 41.85C413.87 39.81 413.6 37.41 413.6 34.65C413.6 30.51 414.62 27.06 416.66 24.3C418.76 21.48 421.61 19.38 425.21 18C428.81 16.56 432.95 15.84 437.63 15.84C442.07 15.84 445.94 16.32 449.24 17.28C452.6 18.18 455.33 19.23 457.43 20.43L451.94 33.84C449.54 32.58 446.99 31.59 444.29 30.87C441.59 30.09 439.19 29.7 437.09 29.7C435.83 29.7 434.81 29.88 434.03 30.24C433.25 30.6 432.68 31.11 432.32 31.77C431.96 32.37 431.78 33.06 431.78 33.84C431.78 34.86 432.11 35.76 432.77 36.54C433.49 37.32 434.72 38.19 436.46 39.15C438.26 40.05 440.75 41.28 443.93 42.84C446.81 44.16 449.24 45.63 451.22 47.25C453.2 48.87 454.7 50.82 455.72 53.1C456.74 55.32 457.25 58.11 457.25 61.47Z" fill="black"/>
<path d="M157.439 324.701H150.331V308.094H145V303.374H162.77V308.094H157.439V324.701Z" fill="black"/>
<path d="M173.345 305.226C173.345 306.441 173.31 307.466 173.241 308.303C173.171 309.139 173.113 309.776 173.066 310.214H173.38C173.775 309.637 174.205 309.179 174.669 308.84C175.157 308.502 175.691 308.263 176.272 308.123C176.876 307.964 177.526 307.884 178.223 307.884C179.361 307.884 180.418 308.094 181.394 308.512C182.393 308.93 183.182 309.587 183.763 310.483C184.367 311.359 184.669 312.514 184.669 313.948V324.701H177.561V315.681C177.561 314.585 177.422 313.759 177.143 313.201C176.864 312.644 176.423 312.365 175.819 312.365C175.192 312.365 174.692 312.564 174.321 312.962C173.972 313.361 173.717 313.938 173.554 314.695C173.415 315.432 173.345 316.348 173.345 317.443V324.701H166.307V302H173.345V305.226Z" fill="black"/>
<path d="M197.795 307.884C199.607 307.884 201.174 308.163 202.498 308.721C203.822 309.278 204.833 310.115 205.53 311.23C206.25 312.345 206.61 313.749 206.61 315.442V317.981H195.669C195.716 318.837 196.029 319.544 196.61 320.101C197.214 320.659 198.12 320.938 199.328 320.938C200.466 320.938 201.5 320.838 202.429 320.639C203.381 320.44 204.357 320.121 205.356 319.683V323.775C204.496 324.194 203.521 324.502 202.429 324.701C201.36 324.9 199.978 325 198.283 325C196.447 325 194.798 324.711 193.335 324.134C191.872 323.536 190.71 322.61 189.851 321.356C188.991 320.101 188.561 318.498 188.561 316.547C188.561 314.555 188.945 312.923 189.711 311.648C190.501 310.374 191.581 309.428 192.952 308.81C194.345 308.193 195.96 307.884 197.795 307.884ZM198.108 311.768C197.481 311.768 196.959 311.977 196.54 312.395C196.122 312.813 195.878 313.48 195.809 314.396H200.338C200.338 313.898 200.245 313.46 200.059 313.082C199.874 312.684 199.618 312.365 199.293 312.126C198.968 311.887 198.573 311.768 198.108 311.768Z" fill="black"/>
<path d="M220.159 324.701V303.374H227.267V320.042H235.977V324.701H220.159Z" fill="black"/>
<path d="M257.742 316.397C257.742 317.771 257.533 318.996 257.115 320.071C256.697 321.147 256.081 322.053 255.268 322.79C254.479 323.506 253.503 324.054 252.342 324.432C251.203 324.811 249.914 325 248.474 325C247.127 325 245.884 324.811 244.746 324.432C243.608 324.054 242.632 323.506 241.819 322.79C241.006 322.053 240.367 321.147 239.903 320.071C239.462 318.996 239.241 317.771 239.241 316.397C239.241 314.565 239.613 313.022 240.356 311.768C241.099 310.493 242.168 309.527 243.561 308.87C244.978 308.213 246.651 307.884 248.579 307.884C250.344 307.884 251.912 308.213 253.282 308.87C254.676 309.527 255.768 310.493 256.558 311.768C257.347 313.022 257.742 314.565 257.742 316.397ZM246.384 316.397C246.384 317.333 246.453 318.13 246.593 318.787C246.732 319.444 246.964 319.942 247.29 320.281C247.615 320.599 248.033 320.758 248.544 320.758C249.078 320.758 249.485 320.599 249.763 320.281C250.065 319.942 250.274 319.444 250.39 318.787C250.53 318.13 250.6 317.333 250.6 316.397C250.6 315.461 250.53 314.675 250.39 314.038C250.274 313.4 250.054 312.923 249.728 312.604C249.427 312.285 249.02 312.126 248.509 312.126C247.742 312.126 247.197 312.484 246.871 313.201C246.546 313.918 246.384 314.984 246.384 316.397Z" fill="black"/>
<path d="M273.749 307.884C275.607 307.884 277.129 308.362 278.313 309.318C279.521 310.274 280.125 311.817 280.125 313.948V324.701H273.087V315.681C273.087 314.585 272.947 313.759 272.669 313.201C272.39 312.644 271.925 312.365 271.275 312.365C270.276 312.365 269.614 312.803 269.289 313.679C268.964 314.555 268.801 315.82 268.801 317.473V324.701H261.763V308.183H267.024L268 310.364H268.209C268.604 309.846 269.057 309.408 269.568 309.049C270.079 308.671 270.671 308.382 271.345 308.183C272.042 307.984 272.843 307.884 273.749 307.884Z" fill="black"/>
<path d="M293.251 307.884C295.063 307.884 296.63 308.163 297.954 308.721C299.279 309.278 300.289 310.115 300.986 311.23C301.706 312.345 302.066 313.749 302.066 315.442V317.981H291.125C291.172 318.837 291.485 319.544 292.066 320.101C292.67 320.659 293.576 320.938 294.784 320.938C295.922 320.938 296.956 320.838 297.885 320.639C298.837 320.44 299.813 320.121 300.812 319.683V323.775C299.952 324.194 298.977 324.502 297.885 324.701C296.816 324.9 295.434 325 293.739 325C291.904 325 290.254 324.711 288.791 324.134C287.328 323.536 286.166 322.61 285.307 321.356C284.447 320.101 284.018 318.498 284.018 316.547C284.018 314.555 284.401 312.923 285.167 311.648C285.957 310.374 287.037 309.428 288.408 308.81C289.801 308.193 291.416 307.884 293.251 307.884ZM293.564 311.768C292.937 311.768 292.415 311.977 291.996 312.395C291.578 312.813 291.334 313.48 291.265 314.396H295.794C295.794 313.898 295.701 313.46 295.516 313.082C295.33 312.684 295.074 312.365 294.749 312.126C294.424 311.887 294.029 311.768 293.564 311.768Z" fill="black"/>
<path d="M331.712 318.219C331.712 319.374 331.399 320.47 330.771 321.505C330.168 322.541 329.169 323.387 327.775 324.044C326.381 324.681 324.535 325 322.235 325C321.027 325 320.005 324.95 319.169 324.851C318.356 324.771 317.613 324.632 316.939 324.432C316.265 324.233 315.522 323.974 314.709 323.656V318.518C316.056 319.096 317.404 319.544 318.751 319.862C320.098 320.161 321.259 320.31 322.235 320.31C322.746 320.31 323.176 320.241 323.524 320.101C323.873 319.962 324.128 319.773 324.291 319.534C324.477 319.295 324.569 319.026 324.569 318.727C324.569 318.349 324.465 318.03 324.256 317.771C324.047 317.513 323.652 317.244 323.071 316.965C322.491 316.686 321.643 316.348 320.528 315.949C319.482 315.571 318.588 315.183 317.845 314.784C317.125 314.386 316.544 313.938 316.103 313.44C315.661 312.942 315.336 312.365 315.127 311.708C314.918 311.031 314.814 310.234 314.814 309.318C314.814 307.944 315.208 306.799 315.998 305.883C316.811 304.947 317.915 304.25 319.308 303.792C320.702 303.314 322.305 303.075 324.117 303.075C325.835 303.075 327.334 303.235 328.611 303.553C329.912 303.852 330.969 304.2 331.782 304.599L329.656 309.049C328.727 308.631 327.74 308.303 326.695 308.064C325.65 307.805 324.72 307.675 323.907 307.675C323.42 307.675 323.025 307.735 322.723 307.855C322.421 307.974 322.2 308.143 322.061 308.362C321.921 308.561 321.852 308.79 321.852 309.049C321.852 309.388 321.98 309.687 322.235 309.945C322.514 310.204 322.99 310.493 323.664 310.812C324.36 311.11 325.324 311.519 326.555 312.036C327.67 312.474 328.611 312.962 329.378 313.5C330.144 314.038 330.725 314.685 331.12 315.442C331.515 316.178 331.712 317.104 331.712 318.219Z" fill="black"/>
<path d="M344.941 320.49C345.521 320.49 346.032 320.44 346.474 320.34C346.915 320.221 347.391 320.081 347.902 319.922V324.074C347.136 324.333 346.369 324.552 345.603 324.731C344.859 324.91 343.826 325 342.502 325C341.271 325 340.19 324.831 339.261 324.492C338.355 324.154 337.647 323.576 337.136 322.76C336.648 321.923 336.404 320.758 336.404 319.265V312.455H334.279V310.125L337.101 308.332L338.843 304.868H343.477V308.183H347.623V312.455H343.477V318.877C343.477 319.414 343.593 319.823 343.826 320.101C344.081 320.36 344.453 320.49 344.941 320.49Z" fill="black"/>
<path d="M361.257 307.884C363.51 307.884 365.275 308.402 366.553 309.438C367.854 310.473 368.504 311.947 368.504 313.858V324.701H363.661L362.302 322.521H362.163C361.652 323.098 361.129 323.576 360.595 323.955C360.061 324.313 359.445 324.572 358.748 324.731C358.051 324.91 357.204 325 356.205 325C355.16 325 354.219 324.811 353.383 324.432C352.546 324.034 351.884 323.447 351.397 322.67C350.932 321.874 350.7 320.868 350.7 319.653C350.7 317.881 351.373 316.567 352.721 315.71C354.068 314.834 355.984 314.356 358.47 314.277L361.431 314.187V313.948C361.431 313.211 361.257 312.694 360.909 312.395C360.583 312.076 360.13 311.917 359.55 311.917C358.923 311.917 358.156 312.036 357.25 312.275C356.344 312.494 355.438 312.783 354.532 313.142L352.616 309.378C353.731 308.88 354.985 308.512 356.379 308.273C357.796 308.014 359.422 307.884 361.257 307.884ZM360.316 317.383C359.41 317.423 358.76 317.612 358.365 317.951C357.993 318.269 357.808 318.727 357.808 319.325C357.808 319.882 357.947 320.3 358.226 320.579C358.504 320.838 358.864 320.968 359.306 320.968C359.886 320.968 360.398 320.748 360.839 320.31C361.28 319.872 361.501 319.305 361.501 318.608V317.323L360.316 317.383Z" fill="black"/>
<path d="M384.487 307.884C384.881 307.884 385.276 307.904 385.671 307.944C386.089 307.984 386.38 308.024 386.542 308.064L385.88 313.44C385.648 313.4 385.358 313.361 385.009 313.321C384.684 313.281 384.138 313.261 383.372 313.261C383.116 313.261 382.802 313.301 382.431 313.381C382.059 313.44 381.687 313.58 381.316 313.799C380.967 314.018 380.665 314.346 380.41 314.784C380.178 315.223 380.062 315.82 380.062 316.577V324.701H373.023V308.183H378.215L379.33 310.812H379.678C380.003 310.274 380.422 309.786 380.933 309.348C381.444 308.89 382.001 308.532 382.605 308.273C383.232 308.014 383.859 307.884 384.487 307.884Z" fill="black"/>
<path d="M415.021 318.219C415.021 319.374 414.707 320.47 414.08 321.505C413.476 322.541 412.477 323.387 411.084 324.044C409.69 324.681 407.843 325 405.544 325C404.336 325 403.314 324.95 402.478 324.851C401.665 324.771 400.921 324.632 400.248 324.432C399.574 324.233 398.831 323.974 398.018 323.656V318.518C399.365 319.096 400.712 319.544 402.06 319.862C403.407 320.161 404.568 320.31 405.544 320.31C406.055 320.31 406.485 320.241 406.833 320.101C407.181 319.962 407.437 319.773 407.6 319.534C407.785 319.295 407.878 319.026 407.878 318.727C407.878 318.349 407.774 318.03 407.565 317.771C407.356 317.513 406.961 317.244 406.38 316.965C405.799 316.686 404.952 316.348 403.837 315.949C402.791 315.571 401.897 315.183 401.154 314.784C400.434 314.386 399.853 313.938 399.412 313.44C398.97 312.942 398.645 312.365 398.436 311.708C398.227 311.031 398.122 310.234 398.122 309.318C398.122 307.944 398.517 306.799 399.307 305.883C400.12 304.947 401.223 304.25 402.617 303.792C404.011 303.314 405.614 303.075 407.425 303.075C409.144 303.075 410.642 303.235 411.92 303.553C413.221 303.852 414.278 304.2 415.091 304.599L412.965 309.049C412.036 308.631 411.049 308.303 410.004 308.064C408.958 307.805 408.029 307.675 407.216 307.675C406.728 307.675 406.334 307.735 406.032 307.855C405.73 307.974 405.509 308.143 405.37 308.362C405.23 308.561 405.161 308.79 405.161 309.049C405.161 309.388 405.288 309.687 405.544 309.945C405.823 310.204 406.299 310.493 406.972 310.812C407.669 311.11 408.633 311.519 409.864 312.036C410.979 312.474 411.92 312.962 412.687 313.5C413.453 314.038 414.034 314.685 414.429 315.442C414.824 316.178 415.021 317.104 415.021 318.219Z" fill="black"/>
<path d="M428.249 320.49C428.83 320.49 429.341 320.44 429.782 320.34C430.224 320.221 430.7 320.081 431.211 319.922V324.074C430.444 324.333 429.678 324.552 428.911 324.731C428.168 324.91 427.134 325 425.81 325C424.579 325 423.499 324.831 422.57 324.492C421.664 324.154 420.956 323.576 420.445 322.76C419.957 321.923 419.713 320.758 419.713 319.265V312.455H417.588V310.125L420.41 308.332L422.152 304.868H426.786V308.183H430.932V312.455H426.786V318.877C426.786 319.414 426.902 319.823 427.134 320.101C427.39 320.36 427.762 320.49 428.249 320.49Z" fill="black"/>
<path d="M444.566 307.884C446.819 307.884 448.584 308.402 449.862 309.438C451.163 310.473 451.813 311.947 451.813 313.858V324.701H446.97L445.611 322.521H445.472C444.961 323.098 444.438 323.576 443.904 323.955C443.37 324.313 442.754 324.572 442.057 324.731C441.36 324.91 440.512 325 439.514 325C438.468 325 437.528 324.811 436.691 324.432C435.855 324.034 435.193 323.447 434.705 322.67C434.241 321.874 434.009 320.868 434.009 319.653C434.009 317.881 434.682 316.567 436.029 315.71C437.377 314.834 439.293 314.356 441.778 314.277L444.74 314.187V313.948C444.74 313.211 444.566 312.694 444.217 312.395C443.892 312.076 443.439 311.917 442.858 311.917C442.231 311.917 441.465 312.036 440.559 312.275C439.653 312.494 438.747 312.783 437.841 313.142L435.925 309.378C437.04 308.88 438.294 308.512 439.688 308.273C441.105 308.014 442.731 307.884 444.566 307.884ZM443.625 317.383C442.719 317.423 442.069 317.612 441.674 317.951C441.302 318.269 441.116 318.727 441.116 319.325C441.116 319.882 441.256 320.3 441.534 320.579C441.813 320.838 442.173 320.968 442.615 320.968C443.195 320.968 443.706 320.748 444.148 320.31C444.589 319.872 444.81 319.305 444.81 318.608V317.323L443.625 317.383Z" fill="black"/>
<path d="M465.949 320.49C466.529 320.49 467.04 320.44 467.482 320.34C467.923 320.221 468.399 320.081 468.91 319.922V324.074C468.144 324.333 467.377 324.552 466.611 324.731C465.867 324.91 464.834 325 463.51 325C462.279 325 461.199 324.831 460.269 324.492C459.363 324.154 458.655 323.576 458.144 322.76C457.656 321.923 457.412 320.758 457.412 319.265V312.455H455.287V310.125L458.109 308.332L459.851 304.868H464.485V308.183H468.632V312.455H464.485V318.877C464.485 319.414 464.601 319.823 464.834 320.101C465.089 320.36 465.461 320.49 465.949 320.49Z" fill="black"/>
<path d="M481.185 307.884C482.997 307.884 484.565 308.163 485.889 308.721C487.213 309.278 488.223 310.115 488.92 311.23C489.64 312.345 490 313.749 490 315.442V317.981H479.06C479.106 318.837 479.42 319.544 480 320.101C480.604 320.659 481.51 320.938 482.718 320.938C483.856 320.938 484.89 320.838 485.819 320.639C486.771 320.44 487.747 320.121 488.746 319.683V323.775C487.886 324.194 486.911 324.502 485.819 324.701C484.75 324.9 483.368 325 481.673 325C479.838 325 478.188 324.711 476.725 324.134C475.262 323.536 474.1 322.61 473.241 321.356C472.381 320.101 471.952 318.498 471.952 316.547C471.952 314.555 472.335 312.923 473.101 311.648C473.891 310.374 474.971 309.428 476.342 308.81C477.735 308.193 479.35 307.884 481.185 307.884ZM481.498 311.768C480.871 311.768 480.349 311.977 479.931 312.395C479.512 312.813 479.269 313.48 479.199 314.396H483.728C483.728 313.898 483.635 313.46 483.45 313.082C483.264 312.684 483.008 312.365 482.683 312.126C482.358 311.887 481.963 311.768 481.498 311.768Z" fill="black"/>
<path d="M309 174.5V147H325V158.5L327 159.5L333.5 161L338 162H346.5L351.5 161L355.5 162.5L357.5 166L358.5 173.5L360.5 177.5L360 183V187.5L357.5 188.5H355.5L354.5 187.5L355.5 190.5L351.5 194L347 195.5L343.5 197.5L342 200L340 203.5V207.5L342.5 211.5L341 213L335.5 211.5L331.5 209.5L328.5 205L325 198.5L321 193L316.5 189.5H312L309 194H307L300.5 190.5L299 185L296 181.5L290.5 178L289 174.5H309Z" fill="black" fill-opacity="0.15"/>
<path d="M69.5 35L78.3683 62.2938L107.067 62.2938L83.8492 79.1623L92.7175 106.456L69.5 89.5877L46.2825 106.456L55.1508 79.1623L31.9333 62.2938L60.6317 62.2938L69.5 35Z" fill="black"/>
</svg>
