<svg width="649" height="348" viewBox="0 0 649 348" fill="none" xmlns="http://www.w3.org/2000/svg">
<rect width="649" height="348" rx="41" fill="url(#paint0_linear_1068_401)"/>
<path fill-rule="evenodd" clip-rule="evenodd" d="M649 276.034V307C649 329.644 630.644 348 608 348H41C18.3563 348 0 329.644 0 307V267.935H20.2193L39.5931 261.902L96.423 259.317L105.895 254.577L155.406 251.992L177.793 241.22H223.429L232.47 254.577L245.817 251.992L256.58 246.821L271.218 245.098V238.203L276.815 231.74V202.008L288.009 183.049L294.036 180.463L290.161 175.724V161.935L294.036 155.472L290.161 147.715L294.036 142.114L288.009 126.171L294.036 118.415L290.161 109.797L294.036 95.1463V92.561L296.619 85.6667L309.535 67.5691L321.16 59.813L328.909 42.1463L338.811 26.2033L361.199 19.7398L396.933 15L404.682 19.7398H427.07L446.444 26.2033H463.234L468.831 33.9594H473.997L480.025 42.1463L475.289 46.4553L478.733 50.7642V58.0894H471.845V61.1057L473.997 62.3984L506.718 89.5447V99.8862L512.745 105.488V118.415H520.064L526.953 126.171H533.411L538.577 145.13L546.757 155.041L556.229 177.016L573.45 207.179L587.657 235.187L582.922 243.805L587.657 251.561L596.698 269.659H611.336L616.503 274.829L649 276.034ZM366.468 251.944H387L395.857 258H407.935L416.792 249.117L429.675 246.291L435.714 240.639L436.519 231.756L440.948 226.103V192.188L444.169 187.343L445.779 177.249L449 173.211L448.597 167.962L443.364 164.329V157.869L440.948 154.235L442.558 148.582V139.296L436.117 132.432L414.779 110.629L408.338 103.362L403.104 102.554L402.299 94.0751L395.455 88.4225V86H391.026L366.065 112.244V119.512L360.831 130.413H356L341.507 144.545L349.558 151.005L333.455 169.981H325L330.234 177.653L342.714 203.493L347.143 208.338L354.792 237.812L366.468 251.944Z" fill="#D8773D"/>
<path d="M235.58 75.98C228.253 75.98 222.583 74.37 218.57 71.15C214.603 67.93 212.62 62.7033 212.62 55.47V32.02H209.12V20.54H235.02V32.02H232.22V59.04C232.22 60.58 232.547 61.7233 233.2 62.47C233.9 63.17 234.927 63.52 236.28 63.52C237.633 63.52 238.637 63.17 239.29 62.47C239.99 61.7233 240.34 60.58 240.34 59.04V32.02H237.54V20.54H261.55V32.02H258.05V55.47C258.05 62.7033 256.113 67.93 252.24 71.15C248.367 74.37 242.813 75.98 235.58 75.98ZM321.908 37.48H309.868V32.02H305.388V63.52H310.288V75H280.887V63.52H285.787V32.02H281.307V37.48H269.267V20.54H321.908V37.48ZM373.562 63.52H376.362V75H348.922V63.52H353.122L352.002 57.92H342.482L341.362 63.52H345.562V75H321.622V63.52H324.422L336.252 20.54H361.732L373.562 63.52ZM344.022 50.5H350.462L347.592 36.57H346.892L344.022 50.5ZM440.179 32.02H436.679V63.52H440.179V75H413.719V63.52H417.079V51.97H407.279V63.52H410.639V75H384.179V63.52H387.679V32.02H384.179V20.54H410.639V32.02H407.279V42.66H417.079V32.02H413.719V20.54H440.179V32.02Z" fill="#231016"/>
<mask id="path-4-outside-1_1068_401" maskUnits="userSpaceOnUse" x="172" y="305" width="306" height="20" fill="black">
<rect fill="white" x="172" y="305" width="306" height="20"/>
<path d="M174 323V310.054H177.204V321.042H184.664V323H174Z"/>
<path d="M204.711 323H197.201V321.676L199.354 321.096V311.976L197.201 311.378V310.054H204.711V311.378L202.558 311.976V321.096L204.711 321.676V323Z"/>
<path d="M221.963 323H218.808V310.054H228.947V311.994H221.963V315.802H228.471V317.742H221.963V323Z"/>
<path d="M253.332 323H243.168V310.054H253.332V311.994H246.372V315.294H252.881V317.234H246.372V321.042H253.332V323Z"/>
<path d="M295.573 323H285.409V310.054H295.573V311.994H288.614V315.294H295.123V317.234H288.614V321.042H295.573V323Z"/>
<path d="M310.258 323V310.054H313.463V321.042H320.923V323H310.258Z"/>
<path d="M345.075 323H334.912V310.054H345.075V311.994H338.116V315.294H344.625V317.234H338.116V321.042H345.075V323Z"/>
<path d="M373.228 310.054L367.045 323H363.616L357.432 310.054H360.712L364.316 317.978C364.433 318.195 364.55 318.479 364.667 318.83C364.8 319.168 364.926 319.519 365.042 319.881C365.176 320.232 365.276 320.546 365.343 320.824C365.393 320.546 365.476 320.232 365.593 319.881C365.727 319.519 365.86 319.168 365.994 318.83C366.127 318.479 366.244 318.195 366.344 317.978L369.949 310.054H373.228Z"/>
<path d="M396.48 323L394.853 319.573H388.119L386.517 323H383.112L389.671 310H393.326L399.885 323H396.48ZM392.475 314.243C392.408 314.073 392.308 313.844 392.174 313.554C392.041 313.264 391.907 312.967 391.774 312.665C391.657 312.351 391.565 312.091 391.499 311.886C391.415 312.127 391.307 312.405 391.173 312.72C391.056 313.034 390.939 313.33 390.823 313.608C390.722 313.886 390.639 314.098 390.572 314.243L388.995 317.579H394.027L392.475 314.243Z"/>
<path d="M417.773 323H414.569V312.013H409.437V310.054H422.905V312.013H417.773V323Z"/>
<path d="M446.695 323H436.532V310.054H446.695V311.994H439.736V315.294H446.245V317.234H439.736V321.042H446.695V323Z"/>
<path d="M476 316.4C476 317.851 475.616 319.066 474.848 320.045C474.097 321.024 473.004 321.761 471.569 322.257C470.15 322.752 468.431 323 466.412 323H461.38V310.054H466.938C468.79 310.054 470.392 310.296 471.744 310.78C473.096 311.263 474.139 311.976 474.873 312.919C475.624 313.85 476 315.01 476 316.4ZM472.645 316.473C472.645 315.445 472.429 314.599 471.995 313.934C471.561 313.27 470.918 312.78 470.067 312.466C469.216 312.139 468.173 311.976 466.938 311.976H464.585V321.06H466.512C468.582 321.06 470.117 320.679 471.118 319.918C472.136 319.144 472.645 317.996 472.645 316.473Z"/>
</mask>
<path d="M174 323V310.054H177.204V321.042H184.664V323H174Z" fill="#000B54"/>
<path d="M204.711 323H197.201V321.676L199.354 321.096V311.976L197.201 311.378V310.054H204.711V311.378L202.558 311.976V321.096L204.711 321.676V323Z" fill="#000B54"/>
<path d="M221.963 323H218.808V310.054H228.947V311.994H221.963V315.802H228.471V317.742H221.963V323Z" fill="#000B54"/>
<path d="M253.332 323H243.168V310.054H253.332V311.994H246.372V315.294H252.881V317.234H246.372V321.042H253.332V323Z" fill="#000B54"/>
<path d="M295.573 323H285.409V310.054H295.573V311.994H288.614V315.294H295.123V317.234H288.614V321.042H295.573V323Z" fill="#000B54"/>
<path d="M310.258 323V310.054H313.463V321.042H320.923V323H310.258Z" fill="#000B54"/>
<path d="M345.075 323H334.912V310.054H345.075V311.994H338.116V315.294H344.625V317.234H338.116V321.042H345.075V323Z" fill="#000B54"/>
<path d="M373.228 310.054L367.045 323H363.616L357.432 310.054H360.712L364.316 317.978C364.433 318.195 364.55 318.479 364.667 318.83C364.8 319.168 364.926 319.519 365.042 319.881C365.176 320.232 365.276 320.546 365.343 320.824C365.393 320.546 365.476 320.232 365.593 319.881C365.727 319.519 365.86 319.168 365.994 318.83C366.127 318.479 366.244 318.195 366.344 317.978L369.949 310.054H373.228Z" fill="#000B54"/>
<path d="M396.48 323L394.853 319.573H388.119L386.517 323H383.112L389.671 310H393.326L399.885 323H396.48ZM392.475 314.243C392.408 314.073 392.308 313.844 392.174 313.554C392.041 313.264 391.907 312.967 391.774 312.665C391.657 312.351 391.565 312.091 391.499 311.886C391.415 312.127 391.307 312.405 391.173 312.72C391.056 313.034 390.939 313.33 390.823 313.608C390.722 313.886 390.639 314.098 390.572 314.243L388.995 317.579H394.027L392.475 314.243Z" fill="#000B54"/>
<path d="M417.773 323H414.569V312.013H409.437V310.054H422.905V312.013H417.773V323Z" fill="#000B54"/>
<path d="M446.695 323H436.532V310.054H446.695V311.994H439.736V315.294H446.245V317.234H439.736V321.042H446.695V323Z" fill="#000B54"/>
<path d="M476 316.4C476 317.851 475.616 319.066 474.848 320.045C474.097 321.024 473.004 321.761 471.569 322.257C470.15 322.752 468.431 323 466.412 323H461.38V310.054H466.938C468.79 310.054 470.392 310.296 471.744 310.78C473.096 311.263 474.139 311.976 474.873 312.919C475.624 313.85 476 315.01 476 316.4ZM472.645 316.473C472.645 315.445 472.429 314.599 471.995 313.934C471.561 313.27 470.918 312.78 470.067 312.466C469.216 312.139 468.173 311.976 466.938 311.976H464.585V321.06H466.512C468.582 321.06 470.117 320.679 471.118 319.918C472.136 319.144 472.645 317.996 472.645 316.473Z" fill="#000B54"/>
<path d="M174 323V310.054H177.204V321.042H184.664V323H174Z" stroke="white" stroke-width="4" mask="url(#path-4-outside-1_1068_401)"/>
<path d="M204.711 323H197.201V321.676L199.354 321.096V311.976L197.201 311.378V310.054H204.711V311.378L202.558 311.976V321.096L204.711 321.676V323Z" stroke="white" stroke-width="4" mask="url(#path-4-outside-1_1068_401)"/>
<path d="M221.963 323H218.808V310.054H228.947V311.994H221.963V315.802H228.471V317.742H221.963V323Z" stroke="white" stroke-width="4" mask="url(#path-4-outside-1_1068_401)"/>
<path d="M253.332 323H243.168V310.054H253.332V311.994H246.372V315.294H252.881V317.234H246.372V321.042H253.332V323Z" stroke="white" stroke-width="4" mask="url(#path-4-outside-1_1068_401)"/>
<path d="M295.573 323H285.409V310.054H295.573V311.994H288.614V315.294H295.123V317.234H288.614V321.042H295.573V323Z" stroke="white" stroke-width="4" mask="url(#path-4-outside-1_1068_401)"/>
<path d="M310.258 323V310.054H313.463V321.042H320.923V323H310.258Z" stroke="white" stroke-width="4" mask="url(#path-4-outside-1_1068_401)"/>
<path d="M345.075 323H334.912V310.054H345.075V311.994H338.116V315.294H344.625V317.234H338.116V321.042H345.075V323Z" stroke="white" stroke-width="4" mask="url(#path-4-outside-1_1068_401)"/>
<path d="M373.228 310.054L367.045 323H363.616L357.432 310.054H360.712L364.316 317.978C364.433 318.195 364.55 318.479 364.667 318.83C364.8 319.168 364.926 319.519 365.042 319.881C365.176 320.232 365.276 320.546 365.343 320.824C365.393 320.546 365.476 320.232 365.593 319.881C365.727 319.519 365.86 319.168 365.994 318.83C366.127 318.479 366.244 318.195 366.344 317.978L369.949 310.054H373.228Z" stroke="white" stroke-width="4" mask="url(#path-4-outside-1_1068_401)"/>
<path d="M396.48 323L394.853 319.573H388.119L386.517 323H383.112L389.671 310H393.326L399.885 323H396.48ZM392.475 314.243C392.408 314.073 392.308 313.844 392.174 313.554C392.041 313.264 391.907 312.967 391.774 312.665C391.657 312.351 391.565 312.091 391.499 311.886C391.415 312.127 391.307 312.405 391.173 312.72C391.056 313.034 390.939 313.33 390.823 313.608C390.722 313.886 390.639 314.098 390.572 314.243L388.995 317.579H394.027L392.475 314.243Z" stroke="white" stroke-width="4" mask="url(#path-4-outside-1_1068_401)"/>
<path d="M417.773 323H414.569V312.013H409.437V310.054H422.905V312.013H417.773V323Z" stroke="white" stroke-width="4" mask="url(#path-4-outside-1_1068_401)"/>
<path d="M446.695 323H436.532V310.054H446.695V311.994H439.736V315.294H446.245V317.234H439.736V321.042H446.695V323Z" stroke="white" stroke-width="4" mask="url(#path-4-outside-1_1068_401)"/>
<path d="M476 316.4C476 317.851 475.616 319.066 474.848 320.045C474.097 321.024 473.004 321.761 471.569 322.257C470.15 322.752 468.431 323 466.412 323H461.38V310.054H466.938C468.79 310.054 470.392 310.296 471.744 310.78C473.096 311.263 474.139 311.976 474.873 312.919C475.624 313.85 476 315.01 476 316.4ZM472.645 316.473C472.645 315.445 472.429 314.599 471.995 313.934C471.561 313.27 470.918 312.78 470.067 312.466C469.216 312.139 468.173 311.976 466.938 311.976H464.585V321.06H466.512C468.582 321.06 470.117 320.679 471.118 319.918C472.136 319.144 472.645 317.996 472.645 316.473Z" stroke="white" stroke-width="4" mask="url(#path-4-outside-1_1068_401)"/>
<defs>
<linearGradient id="paint0_linear_1068_401" x1="324.5" y1="0" x2="324.5" y2="348" gradientUnits="userSpaceOnUse">
<stop stop-color="#88B9D5"/>
<stop offset="0.213542" stop-color="#88B9D5"/>
<stop offset="0.354167" stop-color="#D8DEDE"/>
<stop offset="0.567708" stop-color="#D8E1DF"/>
<stop offset="0.59375" stop-color="#D6933A"/>
<stop offset="0.723958" stop-color="#D6913F"/>
</linearGradient>
</defs>
</svg>
