<svg width="649" height="348" viewBox="0 0 649 348" fill="none" xmlns="http://www.w3.org/2000/svg">
<rect width="649" height="348" rx="41" fill="#1B7F59"/>
<path d="M208 59.98C208 59.98 207.837 59.35 207.51 58.09C207.23 56.7833 206.81 55.08 206.25 52.98C205.737 50.8333 205.13 48.4533 204.43 45.84C203.777 43.2267 203.1 40.5667 202.4 37.86C201.747 35.1067 201.07 32.4933 200.37 30.02C199.717 27.5 199.133 25.3533 198.62 23.58C198.2 22.04 197.617 20.9433 196.87 20.29C196.17 19.59 195.19 19.1933 193.93 19.1L193.58 18.54L194.07 13.78C194.07 13.78 194.373 13.8033 194.98 13.85C195.633 13.85 196.45 13.85 197.43 13.85C198.41 13.85 199.413 13.8733 200.44 13.92C201.467 13.92 202.4 13.92 203.24 13.92C204.687 13.92 206.133 13.8967 207.58 13.85C209.073 13.8033 210.427 13.7567 211.64 13.71C212.9 13.6633 213.903 13.6167 214.65 13.57C215.397 13.4767 215.77 13.43 215.77 13.43L216.19 14.06L215.84 18.96C214.347 19.1 213.227 19.2633 212.48 19.45C211.78 19.59 211.313 19.8233 211.08 20.15C210.893 20.43 210.8 20.8733 210.8 21.48C210.8 21.9 210.893 22.6933 211.08 23.86C211.313 24.98 211.57 26.38 211.85 28.06C212.177 29.6933 212.527 31.4667 212.9 33.38C213.273 35.2467 213.647 37.09 214.02 38.91C214.44 40.73 214.79 42.3867 215.07 43.88C215.397 45.3267 215.653 46.5167 215.84 47.45C216.027 48.3367 216.12 48.78 216.12 48.78H217.38C217.567 48.2667 217.87 47.31 218.29 45.91C218.757 44.4633 219.27 42.76 219.83 40.8C220.39 38.84 220.95 36.7867 221.51 34.64C222.117 32.4933 222.677 30.4633 223.19 28.55C223.703 26.59 224.123 24.9333 224.45 23.58C224.777 22.2267 224.94 21.3633 224.94 20.99C224.94 20.2433 224.73 19.7533 224.31 19.52C223.89 19.2867 223.097 19.17 221.93 19.17H219.55L219.13 18.61L219.62 13.64C219.62 13.64 220.203 13.6633 221.37 13.71C222.537 13.7567 223.937 13.8033 225.57 13.85C227.203 13.8967 228.743 13.92 230.19 13.92C231.45 13.92 232.71 13.92 233.97 13.92C235.277 13.8733 236.35 13.85 237.19 13.85C238.077 13.8033 238.52 13.78 238.52 13.78L238.03 19.03C237.05 19.2167 236.35 19.5433 235.93 20.01C235.51 20.4767 235.067 21.3867 234.6 22.74L222.77 58.72L208 59.98ZM251.567 59.84C248.16 59.84 245.22 59.1867 242.747 57.88C240.273 56.5733 238.383 54.6833 237.077 52.21C235.817 49.7367 235.187 46.7733 235.187 43.32C235.187 40.7533 235.583 38.3967 236.377 36.25C237.217 34.0567 238.407 32.1667 239.947 30.58C241.487 28.9933 243.283 27.7567 245.337 26.87C247.437 25.9833 249.747 25.54 252.267 25.54C260.573 25.54 264.727 29.81 264.727 38.35C264.727 39.1433 264.657 39.9367 264.517 40.73C264.423 41.5233 264.33 42.1533 264.237 42.62L263.397 43.39H245.967C246.107 46.1433 246.853 48.2667 248.207 49.76C249.56 51.2067 251.427 51.9767 253.807 52.07C256.233 52.1167 259.057 51.4167 262.277 49.97L262.907 50.25L264.167 54.45C263.187 55.1967 261.95 55.99 260.457 56.83C259.01 57.67 257.493 58.3933 255.907 59C254.367 59.56 252.92 59.84 251.567 59.84ZM245.827 38.91L253.737 38.42C254.203 38.3267 254.507 38.21 254.647 38.07C254.787 37.8833 254.857 37.51 254.857 36.95C254.857 35.3167 254.53 34.1033 253.877 33.31C253.27 32.47 252.337 32.05 251.077 32.05C249.49 32.05 248.253 32.61 247.367 33.73C246.48 34.85 245.967 36.5767 245.827 38.91ZM269.118 54.24C270.471 54.1467 271.404 53.7967 271.918 53.19C272.431 52.5833 272.688 51.51 272.688 49.97V36.81C272.688 35.1767 272.478 34.08 272.058 33.52C271.638 32.96 270.798 32.68 269.538 32.68C269.304 32.68 269.024 32.7033 268.698 32.75C268.418 32.75 268.278 32.75 268.278 32.75L267.928 32.26L268.418 27.99C270.751 27.6167 273.014 27.2433 275.208 26.87C277.401 26.4967 279.198 26.1933 280.598 25.96C282.044 25.68 282.768 25.54 282.768 25.54L283.538 26.24C283.538 26.24 283.468 26.5667 283.328 27.22C283.234 27.8267 283.118 28.62 282.978 29.6C282.884 30.5333 282.791 31.49 282.698 32.47L283.188 32.75C284.728 30.5567 286.314 28.9 287.948 27.78C289.628 26.66 291.331 26.1 293.058 26.1C293.711 26.1 294.294 26.1467 294.808 26.24C295.321 26.3333 295.578 26.38 295.578 26.38L295.858 27.01C295.858 27.01 295.788 27.4533 295.648 28.34C295.554 29.18 295.414 30.3 295.228 31.7C295.041 33.1 294.854 34.64 294.668 36.32C294.528 37.9533 294.411 39.5633 294.318 41.15L288.928 41.5C288.928 39.0733 288.788 37.4867 288.508 36.74C288.274 35.9467 287.738 35.55 286.898 35.55C286.291 35.55 285.638 35.7367 284.938 36.11C284.284 36.4833 283.678 37.0433 283.118 37.79C283.118 37.79 283.094 38.21 283.048 39.05C283.001 39.8433 282.931 40.8467 282.838 42.06C282.791 43.2733 282.721 44.51 282.628 45.77C282.581 47.03 282.534 48.15 282.488 49.13C282.441 50.0633 282.418 50.6467 282.418 50.88C282.418 51.9067 282.604 52.63 282.978 53.05C283.351 53.47 283.981 53.68 284.868 53.68C285.568 53.68 286.361 53.6333 287.248 53.54C288.134 53.4467 288.578 53.4 288.578 53.4L288.858 53.89L288.018 59.35C288.018 59.35 287.668 59.3267 286.968 59.28C286.268 59.2333 285.381 59.1867 284.308 59.14C283.281 59.14 282.184 59.1167 281.018 59.07C279.851 59.0233 278.824 59 277.938 59C276.491 59 275.021 59.0233 273.528 59.07C272.081 59.1167 270.868 59.1633 269.888 59.21C268.908 59.3033 268.418 59.35 268.418 59.35L269.118 54.24ZM318.452 54.31C319.432 54.1233 320.132 53.75 320.552 53.19C321.019 52.63 321.276 51.79 321.322 50.67L321.532 39.61C321.532 37.65 321.229 36.25 320.622 35.41C320.016 34.5233 319.012 34.08 317.612 34.08C317.052 34.08 316.469 34.22 315.862 34.5C315.256 34.7333 314.672 35.0133 314.112 35.34C313.599 35.6667 313.156 35.97 312.782 36.25C312.689 37.51 312.596 38.9333 312.502 40.52C312.456 42.06 312.386 43.5767 312.292 45.07C312.246 46.5167 312.199 47.8 312.152 48.92C312.106 49.9933 312.082 50.74 312.082 51.16C312.082 52.2333 312.222 52.9567 312.502 53.33C312.782 53.7033 313.272 53.89 313.972 53.89C314.206 53.89 314.509 53.89 314.882 53.89C315.302 53.8433 315.512 53.82 315.512 53.82L315.722 54.17L314.952 59.28C314.952 59.28 314.486 59.2567 313.552 59.21C312.619 59.1633 311.522 59.1167 310.262 59.07C309.049 59.0233 307.976 59 307.042 59C305.736 59 304.382 59.0233 302.982 59.07C301.582 59.1167 300.392 59.1633 299.412 59.21C298.479 59.2567 298.012 59.28 298.012 59.28L298.712 54.17C300.066 54.0767 300.999 53.7733 301.512 53.26C302.072 52.7 302.352 51.7667 302.352 50.46V36.88C302.352 35.2467 302.119 34.15 301.652 33.59C301.186 33.03 300.276 32.75 298.922 32.75H297.942L297.592 32.33L298.082 27.92C300.462 27.5933 302.749 27.2433 304.942 26.87C307.182 26.4967 309.002 26.1933 310.402 25.96C311.849 25.68 312.572 25.54 312.572 25.54L313.272 26.31C313.272 26.31 313.156 26.8233 312.922 27.85C312.689 28.8767 312.526 29.9967 312.432 31.21L312.712 31.42C313.319 30.86 314.042 30.2533 314.882 29.6C315.722 28.9 316.562 28.2467 317.402 27.64C318.242 27.0333 319.012 26.5433 319.712 26.17C320.412 25.75 320.926 25.54 321.252 25.54C324.099 25.54 326.386 26.0533 328.112 27.08C329.839 28.06 331.006 29.53 331.612 31.49C332.219 30.93 332.942 30.3233 333.782 29.67C334.622 28.97 335.462 28.3167 336.302 27.71C337.189 27.1033 337.982 26.59 338.682 26.17C339.382 25.75 339.919 25.54 340.292 25.54C343.839 25.54 346.546 26.3333 348.412 27.92C350.326 29.5067 351.282 31.7467 351.282 34.64C351.282 35.34 351.212 36.4367 351.072 37.93C350.932 39.3767 350.769 40.9867 350.582 42.76C350.396 44.4867 350.232 46.12 350.092 47.66C349.952 49.1533 349.882 50.2967 349.882 51.09C349.882 52.21 350.046 52.98 350.372 53.4C350.699 53.82 351.236 54.03 351.982 54.03C352.356 54.03 352.776 54.03 353.242 54.03C353.709 53.9833 353.942 53.96 353.942 53.96L354.082 54.24L353.382 59.28C353.382 59.28 353.079 59.2567 352.472 59.21C351.866 59.21 351.119 59.1867 350.232 59.14C349.346 59.0933 348.436 59.0467 347.502 59C346.569 59 345.752 59 345.052 59C344.446 59 343.676 59 342.742 59C341.856 59.0467 340.969 59.0933 340.082 59.14C339.242 59.1867 338.542 59.21 337.982 59.21C337.469 59.2567 337.212 59.28 337.212 59.28L337.702 54.17C338.636 54.03 339.289 53.7267 339.662 53.26C340.082 52.7467 340.316 51.8833 340.362 50.67L340.572 39.61C340.572 37.65 340.269 36.25 339.662 35.41C339.056 34.5233 338.052 34.08 336.652 34.08C336.092 34.08 335.509 34.1967 334.902 34.43C334.342 34.6167 333.806 34.8967 333.292 35.27C332.779 35.5967 332.312 35.8767 331.892 36.11L330.982 51.09C330.982 52.1633 331.122 52.9333 331.402 53.4C331.729 53.82 332.242 54.03 332.942 54.03C333.362 54.03 333.759 54.03 334.132 54.03C334.506 53.9833 334.692 53.96 334.692 53.96L334.832 54.24L333.992 59.28C333.992 59.28 333.712 59.2567 333.152 59.21C332.592 59.21 331.892 59.1867 331.052 59.14C330.212 59.0933 329.349 59.0467 328.462 59C327.576 59 326.782 59 326.082 59C325.429 59 324.636 59.0233 323.702 59.07C322.816 59.1167 321.929 59.1633 321.042 59.21C320.156 59.2567 319.409 59.3033 318.802 59.35C318.242 59.3967 317.962 59.42 317.962 59.42L318.452 54.31ZM372.758 59.84C369.678 59.84 366.971 59.1867 364.638 57.88C362.351 56.5267 360.578 54.6367 359.318 52.21C358.058 49.7367 357.428 46.8667 357.428 43.6C357.428 39.9133 358.128 36.74 359.528 34.08C360.975 31.3733 362.981 29.2733 365.548 27.78C368.161 26.2867 371.195 25.54 374.648 25.54C377.868 25.54 380.621 26.1933 382.908 27.5C385.195 28.76 386.945 30.6033 388.158 33.03C389.371 35.4567 389.978 38.3733 389.978 41.78C389.978 45.42 389.255 48.5933 387.808 51.3C386.408 54.0067 384.425 56.1067 381.858 57.6C379.338 59.0933 376.305 59.84 372.758 59.84ZM373.948 53.61C375.581 53.61 376.795 52.9567 377.588 51.65C378.381 50.2967 378.778 48.1733 378.778 45.28C378.778 42.2933 378.568 39.8667 378.148 38C377.775 36.0867 377.168 34.71 376.328 33.87C375.535 32.9833 374.508 32.54 373.248 32.54C371.615 32.54 370.401 33.1933 369.608 34.5C368.815 35.8067 368.418 37.8833 368.418 40.73C368.418 43.7633 368.605 46.2367 368.978 48.15C369.398 50.0633 370.028 51.4633 370.868 52.35C371.708 53.19 372.735 53.61 373.948 53.61ZM414.224 54.31C415.25 54.1233 415.974 53.75 416.394 53.19C416.86 52.63 417.117 51.79 417.164 50.67L417.304 39.61C417.35 37.65 417.07 36.25 416.464 35.41C415.857 34.5233 414.854 34.08 413.454 34.08C412.894 34.08 412.31 34.1967 411.704 34.43C411.097 34.6633 410.514 34.9433 409.954 35.27C409.44 35.5967 408.997 35.9 408.624 36.18C408.577 37.44 408.507 38.8633 408.414 40.45C408.32 41.99 408.227 43.5067 408.134 45C408.04 46.4933 407.97 47.8 407.924 48.92C407.877 49.9933 407.854 50.74 407.854 51.16C407.854 52.2333 407.994 52.9567 408.274 53.33C408.554 53.7033 409.067 53.89 409.814 53.89C410.047 53.89 410.35 53.89 410.724 53.89C411.144 53.8433 411.354 53.82 411.354 53.82L411.494 54.17L410.724 59.28C410.724 59.28 410.257 59.2567 409.324 59.21C408.39 59.1633 407.317 59.1167 406.104 59.07C404.89 59.0233 403.817 59 402.884 59C401.577 59 400.224 59.0233 398.824 59.07C397.424 59.1167 396.234 59.1633 395.254 59.21C394.32 59.3033 393.854 59.35 393.854 59.35L394.554 54.24C395.907 54.1 396.84 53.7733 397.354 53.26C397.867 52.7 398.124 51.7667 398.124 50.46V36.88C398.124 35.2467 397.89 34.15 397.424 33.59C396.957 33.03 396.07 32.75 394.764 32.75H393.714L393.434 32.33L393.924 27.92C396.304 27.5933 398.59 27.2433 400.784 26.87C402.977 26.4967 404.774 26.1933 406.174 25.96C407.62 25.68 408.344 25.54 408.344 25.54L409.114 26.31C409.114 26.31 408.997 26.8233 408.764 27.85C408.53 28.8767 408.367 29.9967 408.274 31.21L408.624 31.49C409.23 30.93 409.93 30.3 410.724 29.6C411.517 28.9 412.31 28.2467 413.104 27.64C413.897 27.0333 414.644 26.5433 415.344 26.17C416.09 25.75 416.65 25.54 417.024 25.54C420.57 25.54 423.277 26.3333 425.144 27.92C427.057 29.46 428.014 31.7 428.014 34.64C428.014 35.34 427.944 36.4367 427.804 37.93C427.664 39.3767 427.5 40.9867 427.314 42.76C427.174 44.4867 427.034 46.12 426.894 47.66C426.754 49.1533 426.684 50.2967 426.684 51.09C426.684 52.1633 426.824 52.9333 427.104 53.4C427.43 53.82 427.967 54.03 428.714 54.03C429.134 54.03 429.554 54.03 429.974 54.03C430.44 53.9833 430.674 53.96 430.674 53.96L430.814 54.24L430.114 59.28C430.114 59.28 429.81 59.2567 429.204 59.21C428.644 59.21 427.92 59.1867 427.034 59.14C426.147 59.0933 425.237 59.0467 424.304 59C423.37 59 422.577 59 421.924 59C421.27 59 420.477 59.0233 419.544 59.07C418.657 59.1167 417.747 59.1633 416.814 59.21C415.927 59.2567 415.18 59.3033 414.574 59.35C414.014 59.3967 413.734 59.42 413.734 59.42L414.224 54.31ZM446.446 59.84C443.086 59.84 440.566 59.1167 438.886 57.67C437.252 56.2233 436.436 54.0533 436.436 51.16V36.39C436.436 34.85 436.179 33.8233 435.666 33.31C435.199 32.7967 434.219 32.5167 432.726 32.47L431.886 31.91L432.376 27.85C434.056 27.0567 435.689 26.1933 437.276 25.26C438.909 24.3267 440.356 23.4633 441.616 22.67C442.876 21.83 443.879 21.13 444.626 20.57C445.372 20.01 445.746 19.73 445.746 19.73L447.986 20.99C447.986 20.99 447.892 21.5733 447.706 22.74C447.519 23.86 447.309 25.4467 447.076 27.5L454.286 27.29L454.636 27.64L453.866 32.96L446.586 32.75C446.492 34.6167 446.399 36.7167 446.306 39.05C446.259 41.3367 446.236 43.9033 446.236 46.75C446.236 48.5233 446.539 49.83 447.146 50.67C447.799 51.51 448.826 51.93 450.226 51.93C451.112 51.93 451.976 51.79 452.816 51.51C453.656 51.23 454.076 51.09 454.076 51.09L455.056 53.61C455.056 53.61 454.729 53.9367 454.076 54.59C453.422 55.1967 452.606 55.92 451.626 56.76C450.692 57.5533 449.736 58.2767 448.756 58.93C447.822 59.5367 447.052 59.84 446.446 59.84Z" fill="white"/>
<path d="M141.434 314.202C141.434 311.754 141.865 309.612 142.726 307.776C143.587 305.917 144.857 304.478 146.534 303.458C148.234 302.438 150.274 301.928 152.654 301.928C154.014 301.928 155.295 302.098 156.496 302.438C157.697 302.755 158.763 303.197 159.692 303.764L159.658 307.13H159.522C158.638 306.359 157.584 305.759 156.36 305.328C155.159 304.875 153.889 304.648 152.552 304.648C149.9 304.648 147.917 305.509 146.602 307.232C145.31 308.932 144.664 311.255 144.664 314.202C144.664 317.126 145.299 319.438 146.568 321.138C147.86 322.838 149.798 323.688 152.382 323.688C153.447 323.688 154.422 323.552 155.306 323.28C156.19 322.985 156.961 322.577 157.618 322.056V316.99H152.62V314.372H160.61V323.62C159.205 324.549 157.867 325.252 156.598 325.728C155.351 326.181 153.935 326.408 152.348 326.408C150.036 326.408 148.053 325.898 146.398 324.878C144.766 323.858 143.531 322.43 142.692 320.594C141.853 318.758 141.434 316.627 141.434 314.202ZM176.837 307.844V311.142H176.327C175.262 311.142 174.299 311.335 173.437 311.72C172.599 312.105 171.896 312.661 171.329 313.386V326H168.337V312.196L167.589 308.252H170.581L171.193 311.414C172.123 310.054 172.905 309.125 173.539 308.626C174.197 308.105 174.945 307.844 175.783 307.844H176.837ZM196.231 318.112H183.651C183.832 319.857 184.41 321.251 185.385 322.294C186.382 323.314 187.731 323.824 189.431 323.824C190.451 323.824 191.437 323.62 192.389 323.212C193.363 322.781 194.349 322.158 195.347 321.342H195.483V324.334C194.485 325.059 193.499 325.592 192.525 325.932C191.55 326.249 190.507 326.408 189.397 326.408C187.583 326.408 186.008 326.011 184.671 325.218C183.333 324.425 182.302 323.325 181.577 321.92C180.874 320.492 180.523 318.86 180.523 317.024C180.523 315.279 180.84 313.715 181.475 312.332C182.132 310.927 183.061 309.827 184.263 309.034C185.464 308.241 186.869 307.844 188.479 307.844C190.111 307.844 191.505 308.252 192.661 309.068C193.839 309.861 194.723 310.961 195.313 312.366C195.925 313.771 196.231 315.358 196.231 317.126V318.112ZM188.513 310.326C187.107 310.326 185.985 310.836 185.147 311.856C184.308 312.876 183.809 314.191 183.651 315.8H193.137C192.978 314.145 192.513 312.819 191.743 311.822C190.995 310.825 189.918 310.326 188.513 310.326ZM216.617 318.112H204.037C204.219 319.857 204.797 321.251 205.771 322.294C206.769 323.314 208.117 323.824 209.817 323.824C210.837 323.824 211.823 323.62 212.775 323.212C213.75 322.781 214.736 322.158 215.733 321.342H215.869V324.334C214.872 325.059 213.886 325.592 212.911 325.932C211.937 326.249 210.894 326.408 209.783 326.408C207.97 326.408 206.395 326.011 205.057 325.218C203.72 324.425 202.689 323.325 201.963 321.92C201.261 320.492 200.909 318.86 200.909 317.024C200.909 315.279 201.227 313.715 201.861 312.332C202.519 310.927 203.448 309.827 204.649 309.034C205.851 308.241 207.256 307.844 208.865 307.844C210.497 307.844 211.891 308.252 213.047 309.068C214.226 309.861 215.11 310.961 215.699 312.366C216.311 313.771 216.617 315.358 216.617 317.126V318.112ZM208.899 310.326C207.494 310.326 206.372 310.836 205.533 311.856C204.695 312.876 204.196 314.191 204.037 315.8H213.523C213.365 314.145 212.9 312.819 212.129 311.822C211.381 310.825 210.305 310.326 208.899 310.326ZM231.802 307.844C233.479 307.844 234.749 308.365 235.61 309.408C236.471 310.428 236.902 311.856 236.902 313.692V326H233.91V314.1C233.91 312.967 233.672 312.094 233.196 311.482C232.72 310.847 231.995 310.53 231.02 310.53C229.909 310.53 228.969 310.711 228.198 311.074C227.45 311.437 226.611 312.026 225.682 312.842V326H222.69V312.196L221.942 308.252H224.934L225.41 310.734C226.475 309.714 227.461 308.977 228.368 308.524C229.297 308.071 230.442 307.844 231.802 307.844ZM279.263 326H276.271V304.92L268.553 326H265.289L257.435 305.056V326H254.443V302.336H259.679L266.989 321.818L274.129 302.336H279.263V326ZM294.409 326.408C291.825 326.408 289.808 325.569 288.357 323.892C286.907 322.192 286.181 319.937 286.181 317.126C286.181 314.315 286.907 312.071 288.357 310.394C289.808 308.694 291.825 307.844 294.409 307.844C296.993 307.844 299.011 308.694 300.461 310.394C301.912 312.071 302.637 314.315 302.637 317.126C302.637 319.937 301.912 322.192 300.461 323.892C299.011 325.569 296.993 326.408 294.409 326.408ZM294.409 323.824C296.064 323.824 297.311 323.212 298.149 321.988C298.988 320.764 299.407 319.143 299.407 317.126C299.407 315.109 298.988 313.488 298.149 312.264C297.311 311.04 296.064 310.428 294.409 310.428C292.755 310.428 291.508 311.04 290.669 312.264C289.853 313.488 289.445 315.109 289.445 317.126C289.445 319.143 289.853 320.764 290.669 321.988C291.508 323.212 292.755 323.824 294.409 323.824ZM320.883 326L320.407 323.518C319.365 324.493 318.356 325.218 317.381 325.694C316.429 326.17 315.307 326.408 314.015 326.408C312.406 326.408 311.148 325.875 310.241 324.81C309.357 323.745 308.915 322.328 308.915 320.56V308.252H311.907V320.152C311.907 321.24 312.157 322.113 312.655 322.77C313.154 323.405 313.868 323.722 314.797 323.722C315.863 323.722 316.792 323.529 317.585 323.144C318.401 322.759 319.251 322.181 320.135 321.41V308.252H323.127V322.056L323.875 326H320.883ZM339.911 307.844C341.589 307.844 342.858 308.365 343.719 309.408C344.581 310.428 345.011 311.856 345.011 313.692V326H342.019V314.1C342.019 312.967 341.781 312.094 341.305 311.482C340.829 310.847 340.104 310.53 339.129 310.53C338.019 310.53 337.078 310.711 336.307 311.074C335.559 311.437 334.721 312.026 333.791 312.842V326H330.799V312.196L330.051 308.252H333.043L333.519 310.734C334.585 309.714 335.571 308.977 336.477 308.524C337.407 308.071 338.551 307.844 339.911 307.844ZM356.015 308.252H360.911V310.836H356.015V321.002C356.015 321.841 356.197 322.521 356.559 323.042C356.945 323.541 357.5 323.79 358.225 323.79C358.724 323.79 359.166 323.745 359.551 323.654C359.959 323.541 360.413 323.371 360.911 323.144V325.796C360.39 326.045 359.891 326.204 359.415 326.272C358.939 326.363 358.361 326.408 357.681 326.408C356.231 326.408 355.086 325.943 354.247 325.014C353.431 324.085 353.023 322.849 353.023 321.308V310.836H349.623V308.252H353.023V303.492L356.015 301.928V308.252ZM376.837 326L376.361 323.45C375.477 324.425 374.513 325.161 373.471 325.66C372.451 326.159 371.295 326.408 370.003 326.408C368.393 326.408 367.09 325.955 366.093 325.048C365.095 324.119 364.597 322.895 364.597 321.376C364.597 319.404 365.39 317.953 366.977 317.024C368.563 316.095 370.603 315.63 373.097 315.63C374.003 315.63 375.001 315.687 376.089 315.8V314.576C376.089 313.352 375.749 312.377 375.069 311.652C374.411 310.904 373.55 310.53 372.485 310.53C371.215 310.53 370.059 310.7 369.017 311.04C367.997 311.38 366.943 311.913 365.855 312.638V309.748C366.92 309.045 368.008 308.558 369.119 308.286C370.229 307.991 371.499 307.844 372.927 307.844C374.74 307.844 376.213 308.422 377.347 309.578C378.503 310.734 379.081 312.264 379.081 314.168V322.056L379.829 326H376.837ZM370.615 323.892C371.703 323.892 372.677 323.665 373.539 323.212C374.4 322.759 375.25 322.101 376.089 321.24V317.908H372.961C369.538 317.908 367.827 319.007 367.827 321.206C367.827 322.022 368.087 322.679 368.609 323.178C369.13 323.654 369.799 323.892 370.615 323.892ZM386.869 304.24C386.235 304.24 385.713 304.036 385.305 303.628C384.92 303.22 384.727 302.699 384.727 302.064C384.727 301.429 384.92 300.908 385.305 300.5C385.713 300.092 386.235 299.888 386.869 299.888C387.504 299.888 388.014 300.092 388.399 300.5C388.807 300.908 389.011 301.429 389.011 302.064C389.011 302.699 388.807 303.22 388.399 303.628C388.014 304.036 387.504 304.24 386.869 304.24ZM388.365 308.252V326H385.373V308.252H388.365ZM404.525 307.844C406.202 307.844 407.471 308.365 408.333 309.408C409.194 310.428 409.625 311.856 409.625 313.692V326H406.633V314.1C406.633 312.967 406.395 312.094 405.919 311.482C405.443 310.847 404.717 310.53 403.743 310.53C402.632 310.53 401.691 310.711 400.921 311.074C400.173 311.437 399.334 312.026 398.405 312.842V326H395.413V312.196L394.665 308.252H397.657L398.133 310.734C399.198 309.714 400.184 308.977 401.091 308.524C402.02 308.071 403.165 307.844 404.525 307.844ZM434 326.408C432.685 326.408 431.314 326.238 429.886 325.898C428.458 325.558 427.109 325.093 425.84 324.504V321.274C427.336 322.09 428.719 322.691 429.988 323.076C431.28 323.461 432.549 323.654 433.796 323.654C435.36 323.654 436.573 323.303 437.434 322.6C438.295 321.897 438.726 320.934 438.726 319.71C438.726 318.871 438.488 318.169 438.012 317.602C437.536 317.035 436.935 316.582 436.21 316.242C435.485 315.902 434.51 315.528 433.286 315.12C431.813 314.621 430.623 314.145 429.716 313.692C428.832 313.239 428.073 312.593 427.438 311.754C426.803 310.915 426.486 309.827 426.486 308.49C426.486 306.495 427.211 304.909 428.662 303.73C430.113 302.529 432.062 301.928 434.51 301.928C436.89 301.928 439.077 302.438 441.072 303.458V306.586C438.828 305.317 436.641 304.682 434.51 304.682C432.946 304.682 431.722 304.999 430.838 305.634C429.954 306.246 429.512 307.096 429.512 308.184C429.512 308.932 429.739 309.555 430.192 310.054C430.645 310.553 431.201 310.961 431.858 311.278C432.515 311.573 433.445 311.935 434.646 312.366C436.142 312.865 437.366 313.352 438.318 313.828C439.27 314.304 440.075 314.995 440.732 315.902C441.412 316.809 441.752 317.976 441.752 319.404C441.752 320.809 441.435 322.045 440.8 323.11C440.165 324.153 439.259 324.969 438.08 325.558C436.901 326.125 435.541 326.408 434 326.408ZM451.906 308.252H456.802V310.836H451.906V321.002C451.906 321.841 452.087 322.521 452.45 323.042C452.835 323.541 453.391 323.79 454.116 323.79C454.615 323.79 455.057 323.745 455.442 323.654C455.85 323.541 456.303 323.371 456.802 323.144V325.796C456.281 326.045 455.782 326.204 455.306 326.272C454.83 326.363 454.252 326.408 453.572 326.408C452.121 326.408 450.977 325.943 450.138 325.014C449.322 324.085 448.914 322.849 448.914 321.308V310.836H445.514V308.252H448.914V303.492L451.906 301.928V308.252ZM472.727 326L472.251 323.45C471.367 324.425 470.404 325.161 469.361 325.66C468.341 326.159 467.185 326.408 465.893 326.408C464.284 326.408 462.981 325.955 461.983 325.048C460.986 324.119 460.487 322.895 460.487 321.376C460.487 319.404 461.281 317.953 462.867 317.024C464.454 316.095 466.494 315.63 468.987 315.63C469.894 315.63 470.891 315.687 471.979 315.8V314.576C471.979 313.352 471.639 312.377 470.959 311.652C470.302 310.904 469.441 310.53 468.375 310.53C467.106 310.53 465.95 310.7 464.907 311.04C463.887 311.38 462.833 311.913 461.745 312.638V309.748C462.811 309.045 463.899 308.558 465.009 308.286C466.12 307.991 467.389 307.844 468.817 307.844C470.631 307.844 472.104 308.422 473.237 309.578C474.393 310.734 474.971 312.264 474.971 314.168V322.056L475.719 326H472.727ZM466.505 323.892C467.593 323.892 468.568 323.665 469.429 323.212C470.291 322.759 471.141 322.101 471.979 321.24V317.908H468.851C465.429 317.908 463.717 319.007 463.717 321.206C463.717 322.022 463.978 322.679 464.499 323.178C465.021 323.654 465.689 323.892 466.505 323.892ZM485.242 308.252H490.138V310.836H485.242V321.002C485.242 321.841 485.423 322.521 485.786 323.042C486.171 323.541 486.727 323.79 487.452 323.79C487.951 323.79 488.393 323.745 488.778 323.654C489.186 323.541 489.639 323.371 490.138 323.144V325.796C489.617 326.045 489.118 326.204 488.642 326.272C488.166 326.363 487.588 326.408 486.908 326.408C485.457 326.408 484.313 325.943 483.474 325.014C482.658 324.085 482.25 322.849 482.25 321.308V310.836H478.85V308.252H482.25V303.492L485.242 301.928V308.252ZM509.701 318.112H497.121C497.303 319.857 497.881 321.251 498.855 322.294C499.853 323.314 501.201 323.824 502.901 323.824C503.921 323.824 504.907 323.62 505.859 323.212C506.834 322.781 507.82 322.158 508.817 321.342H508.953V324.334C507.956 325.059 506.97 325.592 505.995 325.932C505.021 326.249 503.978 326.408 502.867 326.408C501.054 326.408 499.479 326.011 498.141 325.218C496.804 324.425 495.773 323.325 495.047 321.92C494.345 320.492 493.993 318.86 493.993 317.024C493.993 315.279 494.311 313.715 494.945 312.332C495.603 310.927 496.532 309.827 497.733 309.034C498.935 308.241 500.34 307.844 501.949 307.844C503.581 307.844 504.975 308.252 506.131 309.068C507.31 309.861 508.194 310.961 508.783 312.366C509.395 313.771 509.701 315.358 509.701 317.126V318.112ZM501.983 310.326C500.578 310.326 499.456 310.836 498.617 311.856C497.779 312.876 497.28 314.191 497.121 315.8H506.607C506.449 314.145 505.984 312.819 505.213 311.822C504.465 310.825 503.389 310.326 501.983 310.326Z" fill="white"/>
<path d="M66 65.5V73.5H69.5V64L74 62.5L79.5 64H86L91.5 60V50.5L89.5 38V30.5L87.5 19L82 11.5L74 6H67.5L60.5 8L54 13L47.5 19L44.5 28.5L43 38L44.5 50.5L46 60L49.5 64L58.5 65.5H66Z" fill="white" fill-opacity="0.4"/>
<rect x="9.5" y="83.5" width="630" height="188" fill="#F4F4F4" stroke="#F4F4F4" stroke-width="19"/>
<rect x="23" y="87" width="604" height="174" rx="17" fill="#1AB886"/>
</svg>
