<svg width="649" height="352" viewBox="0 0 649 352" fill="none" xmlns="http://www.w3.org/2000/svg">
<rect y="4" width="649" height="348" rx="41" fill="#F4F4F4"/>
<path d="M174.44 84.72L157.16 37.6L151.88 36.16V32.16H174.6V36.24L168.28 37.68L178.84 70.8L179.4 73.28H179.88L180.44 70.8L191.32 37.68L184.76 36.24V32.16H203.4V36.16L198.12 37.6L181.8 84.72H174.44ZM204.779 84V79.84L211.259 78.48V37.68L204.779 36.32V32.16H227.499V36.32L221.019 37.68V78.48L227.499 79.84V84H204.779ZM233.432 84V79.92L239.912 78.4V37.76L233.432 36.24V32.16H255.992C259.779 32.16 263.032 32.5867 265.752 33.44C268.525 34.2933 270.659 35.76 272.152 37.84C273.699 39.8667 274.472 42.64 274.472 46.16C274.472 48.1333 274.205 49.92 273.672 51.52C273.139 53.0667 272.365 54.4267 271.352 55.6C270.392 56.7733 269.245 57.8133 267.912 58.72C266.632 59.5733 265.192 60.32 263.592 60.96L273.992 78.48L279.672 79.92V84H270.072C268.632 84 267.539 83.7867 266.792 83.36C266.045 82.9333 265.379 82.1867 264.792 81.12L254.792 62.64H249.672V78.4L256.152 79.92V84H233.432ZM249.672 57.12H253.032C255.325 57.12 257.299 56.72 258.952 55.92C260.605 55.12 261.885 53.9467 262.792 52.4C263.699 50.8 264.152 48.9067 264.152 46.72C264.152 44.96 263.912 43.4933 263.432 42.32C263.005 41.1467 262.365 40.24 261.512 39.6C260.659 38.9067 259.645 38.4267 258.472 38.16C257.352 37.84 256.072 37.68 254.632 37.68C253.779 37.68 252.899 37.7067 251.992 37.76C251.085 37.8133 250.312 37.8933 249.672 38V57.12ZM305.999 85.2C298.106 85.2 292.133 83.04 288.079 78.72C284.079 74.3467 282.079 67.8133 282.079 59.12C282.079 54.7467 282.719 50.8267 283.999 47.36C285.333 43.8933 287.199 40.9333 289.599 38.48C291.999 36.0267 294.853 34.16 298.159 32.88C301.519 31.5467 305.226 30.88 309.279 30.88C313.119 30.88 316.293 31.1733 318.799 31.76C321.306 32.3467 323.226 32.88 324.559 33.36V47.04H319.359L317.439 38.4C316.426 37.92 315.173 37.5467 313.679 37.28C312.239 37.0133 310.773 36.88 309.279 36.88C303.573 36.88 299.493 38.56 297.039 41.92C294.586 45.2267 293.359 50.6133 293.359 58.08C293.359 63.2533 293.839 67.3867 294.799 70.48C295.813 73.5733 297.359 75.84 299.439 77.28C301.573 78.6667 304.319 79.36 307.679 79.36C308.906 79.36 309.973 79.3067 310.879 79.2C311.839 79.0933 312.666 78.9333 313.359 78.72C314.106 78.5067 314.826 78.24 315.519 77.92V63.28L309.359 61.76V57.68H328.959V62L325.199 63.12V84H321.759L320.079 81.92H319.199C317.866 82.72 316.159 83.4667 314.079 84.16C312.053 84.8533 309.359 85.2 305.999 85.2ZM333.316 84V79.84L339.796 78.48V37.68L333.316 36.32V32.16H356.036V36.32L349.556 37.68V78.48L356.036 79.84V84H333.316ZM361.969 84V79.92L368.049 78.48V37.6L362.849 36.56V32.16H377.969L399.889 66.64L401.329 69.84H401.729V37.68L395.489 36.32V32.16H414.529V36.32L408.529 37.68V84H399.809L376.529 47.44L375.169 44.56H374.849V78.48L381.009 79.92V84H361.969ZM419.451 84V79.84L425.931 78.48V37.68L419.451 36.32V32.16H442.171V36.32L435.691 37.68V78.48L442.171 79.84V84H419.451ZM444.024 84V79.84L448.984 78.8L465.864 31.68H473.624L491.224 78.64L496.584 79.84V84H474.024V79.84L480.904 78.8L477.624 69.36H459.624L456.424 78.72L463.304 79.84V84H444.024ZM461.624 63.6H475.624L469.624 45.76L468.904 42.48H468.344L467.624 45.76L461.624 63.6Z" fill="#4A77CC"/>
<path d="M419.358 315.603L413.515 305.378C410.733 300.509 416.733 295.388 421.104 298.901L421.4 299.139C422.335 299.89 423.665 299.89 424.6 299.139C429.033 295.577 435.118 300.77 432.297 305.708L426.642 315.603C425.032 318.421 420.968 318.421 419.358 315.603Z" fill="#FF0000" stroke="black" stroke-width="3"/>
<path d="M161.5 296.58L154.21 318H149.26L142 296.58H146.59L150.61 309.33C150.69 309.55 150.8 309.96 150.94 310.56C151.1 311.14 151.26 311.76 151.42 312.42C151.58 313.06 151.69 313.6 151.75 314.04C151.81 313.6 151.91 313.06 152.05 312.42C152.21 311.76 152.37 311.14 152.53 310.56C152.69 309.96 152.8 309.55 152.86 309.33L156.91 296.58H161.5ZM172.222 318H162.472V315.42L165.082 314.22V300.36L162.472 299.16V296.58H172.222V299.16L169.612 300.36V314.22L172.222 315.42V318ZM182.112 296.58C184.052 296.58 185.652 296.82 186.912 297.3C188.172 297.76 189.112 298.47 189.732 299.43C190.352 300.37 190.662 301.56 190.662 303C190.662 303.98 190.472 304.84 190.092 305.58C189.732 306.3 189.242 306.92 188.622 307.44C188.022 307.94 187.372 308.35 186.672 308.67L192.972 318H187.932L182.832 309.78H180.402V318H175.872V296.58H182.112ZM181.782 300.3H180.402V306.09H181.872C182.872 306.09 183.682 305.98 184.302 305.76C184.922 305.54 185.372 305.21 185.652 304.77C185.932 304.31 186.072 303.76 186.072 303.12C186.072 302.44 185.912 301.9 185.592 301.5C185.292 301.08 184.822 300.78 184.182 300.6C183.562 300.4 182.762 300.3 181.782 300.3ZM203.807 305.97H212.297V317.07C211.177 317.45 210.007 317.75 208.787 317.97C207.587 318.19 206.217 318.3 204.677 318.3C202.557 318.3 200.747 317.88 199.247 317.04C197.767 316.2 196.637 314.96 195.857 313.32C195.097 311.68 194.717 309.66 194.717 307.26C194.717 305.02 195.147 303.08 196.007 301.44C196.887 299.8 198.157 298.53 199.817 297.63C201.477 296.73 203.507 296.28 205.907 296.28C207.047 296.28 208.167 296.4 209.267 296.64C210.367 296.88 211.367 297.2 212.267 297.6L210.767 301.23C210.107 300.89 209.357 300.61 208.517 300.39C207.677 300.17 206.797 300.06 205.877 300.06C204.557 300.06 203.407 300.36 202.427 300.96C201.467 301.56 200.717 302.41 200.177 303.51C199.657 304.59 199.397 305.87 199.397 307.35C199.397 308.75 199.587 309.99 199.967 311.07C200.347 312.15 200.947 313 201.767 313.62C202.587 314.22 203.657 314.52 204.977 314.52C205.417 314.52 205.797 314.51 206.117 314.49C206.457 314.45 206.767 314.41 207.047 314.37C207.327 314.31 207.597 314.26 207.857 314.22V309.75H203.807V305.97ZM225.396 318H215.646V315.42L218.256 314.22V300.36L215.646 299.16V296.58H225.396V299.16L222.786 300.36V314.22L225.396 315.42V318ZM248.036 318H242.276L232.946 301.8H232.826C232.846 302.3 232.866 302.81 232.886 303.33C232.906 303.83 232.926 304.34 232.946 304.86C232.986 305.36 233.016 305.87 233.036 306.39C233.056 306.89 233.076 307.4 233.096 307.92V318H229.046V296.58H234.776L244.076 312.63H244.166C244.146 312.13 244.126 311.64 244.106 311.16C244.086 310.66 244.066 310.17 244.046 309.69C244.046 309.19 244.036 308.7 244.016 308.22C243.996 307.72 243.976 307.22 243.956 306.72V296.58H248.036V318ZM261.46 318H251.71V315.42L254.32 314.22V300.36L251.71 299.16V296.58H261.46V299.16L258.85 300.36V314.22L261.46 315.42V318ZM278.22 318L276.66 312.9H268.86L267.3 318H262.41L269.97 296.49H275.52L283.11 318H278.22ZM274.02 304.11C273.92 303.77 273.79 303.34 273.63 302.82C273.47 302.3 273.31 301.77 273.15 301.23C272.99 300.69 272.86 300.22 272.76 299.82C272.66 300.22 272.52 300.72 272.34 301.32C272.18 301.9 272.02 302.46 271.86 303C271.72 303.52 271.61 303.89 271.53 304.11L270 309.09H275.58L274.02 304.11ZM301.626 318H291.876V315.42L294.486 314.22V300.36L291.876 299.16V296.58H301.626V299.16L299.016 300.36V314.22L301.626 315.42V318ZM317.906 312.06C317.906 313.32 317.596 314.42 316.976 315.36C316.356 316.3 315.456 317.03 314.276 317.55C313.116 318.05 311.696 318.3 310.016 318.3C309.276 318.3 308.546 318.25 307.826 318.15C307.126 318.05 306.446 317.91 305.786 317.73C305.146 317.53 304.536 317.29 303.956 317.01V312.78C304.976 313.22 306.026 313.63 307.106 314.01C308.206 314.37 309.296 314.55 310.376 314.55C311.116 314.55 311.706 314.45 312.146 314.25C312.606 314.05 312.936 313.78 313.136 313.44C313.356 313.1 313.466 312.71 313.466 312.27C313.466 311.73 313.276 311.27 312.896 310.89C312.536 310.51 312.046 310.16 311.426 309.84C310.806 309.5 310.096 309.14 309.296 308.76C308.796 308.52 308.256 308.24 307.676 307.92C307.096 307.58 306.536 307.17 305.996 306.69C305.476 306.19 305.046 305.59 304.706 304.89C304.366 304.19 304.196 303.35 304.196 302.37C304.196 301.09 304.486 300 305.066 299.1C305.666 298.18 306.506 297.48 307.586 297C308.686 296.52 309.976 296.28 311.456 296.28C312.576 296.28 313.636 296.41 314.636 296.67C315.656 296.93 316.716 297.3 317.816 297.78L316.346 301.32C315.366 300.92 314.486 300.61 313.706 300.39C312.926 300.17 312.126 300.06 311.306 300.06C310.746 300.06 310.266 300.15 309.866 300.33C309.466 300.51 309.156 300.76 308.936 301.08C308.736 301.4 308.636 301.78 308.636 302.22C308.636 302.72 308.786 303.15 309.086 303.51C309.386 303.85 309.836 304.18 310.436 304.5C311.036 304.82 311.786 305.2 312.686 305.64C313.786 306.16 314.716 306.7 315.476 307.26C316.256 307.82 316.856 308.48 317.276 309.24C317.696 310 317.906 310.94 317.906 312.06ZM334.063 318H329.593V296.58H341.863V300.3H334.063V305.82H341.323V309.54H334.063V318ZM365.497 307.26C365.497 308.92 365.287 310.43 364.867 311.79C364.467 313.13 363.847 314.29 363.007 315.27C362.187 316.25 361.127 317 359.827 317.52C358.547 318.04 357.037 318.3 355.297 318.3C353.557 318.3 352.037 318.04 350.737 317.52C349.457 316.98 348.397 316.23 347.557 315.27C346.737 314.29 346.117 313.12 345.697 311.76C345.297 310.4 345.097 308.89 345.097 307.23C345.097 305.01 345.457 303.08 346.177 301.44C346.917 299.8 348.037 298.53 349.537 297.63C351.057 296.71 352.987 296.25 355.327 296.25C357.647 296.25 359.557 296.71 361.057 297.63C362.557 298.53 363.667 299.81 364.387 301.47C365.127 303.11 365.497 305.04 365.497 307.26ZM349.867 307.26C349.867 308.76 350.057 310.05 350.437 311.13C350.817 312.21 351.407 313.04 352.207 313.62C353.007 314.2 354.037 314.49 355.297 314.49C356.597 314.49 357.637 314.2 358.417 313.62C359.217 313.04 359.797 312.21 360.157 311.13C360.537 310.05 360.727 308.76 360.727 307.26C360.727 305 360.307 303.23 359.467 301.95C358.627 300.67 357.247 300.03 355.327 300.03C354.047 300.03 353.007 300.32 352.207 300.9C351.407 301.48 350.817 302.31 350.437 303.39C350.057 304.47 349.867 305.76 349.867 307.26ZM376.174 296.58C378.114 296.58 379.714 296.82 380.974 297.3C382.234 297.76 383.174 298.47 383.794 299.43C384.414 300.37 384.724 301.56 384.724 303C384.724 303.98 384.534 304.84 384.154 305.58C383.794 306.3 383.304 306.92 382.684 307.44C382.084 307.94 381.434 308.35 380.734 308.67L387.034 318H381.994L376.894 309.78H374.464V318H369.934V296.58H376.174ZM375.844 300.3H374.464V306.09H375.934C376.934 306.09 377.744 305.98 378.364 305.76C378.984 305.54 379.434 305.21 379.714 304.77C379.994 304.31 380.134 303.76 380.134 303.12C380.134 302.44 379.974 301.9 379.654 301.5C379.354 301.08 378.884 300.78 378.244 300.6C377.624 300.4 376.824 300.3 375.844 300.3ZM397.532 318V296.58H402.062V314.25H410.762V318H397.532ZM454.674 296.58L447.384 318H442.434L435.174 296.58H439.764L443.784 309.33C443.864 309.55 443.974 309.96 444.114 310.56C444.274 311.14 444.434 311.76 444.594 312.42C444.754 313.06 444.864 313.6 444.924 314.04C444.984 313.6 445.084 313.06 445.224 312.42C445.384 311.76 445.544 311.14 445.704 310.56C445.864 309.96 445.974 309.55 446.034 309.33L450.084 296.58H454.674ZM469.716 318H457.386V296.58H469.716V300.3H461.916V305.01H469.176V308.73H461.916V314.25H469.716V318ZM480.413 296.58C482.353 296.58 483.953 296.82 485.213 297.3C486.473 297.76 487.413 298.47 488.033 299.43C488.653 300.37 488.963 301.56 488.963 303C488.963 303.98 488.773 304.84 488.393 305.58C488.033 306.3 487.543 306.92 486.923 307.44C486.323 307.94 485.673 308.35 484.973 308.67L491.273 318H486.233L481.133 309.78H478.703V318H474.173V296.58H480.413ZM480.083 300.3H478.703V306.09H480.173C481.173 306.09 481.983 305.98 482.603 305.76C483.223 305.54 483.673 305.21 483.953 304.77C484.233 304.31 484.373 303.76 484.373 303.12C484.373 302.44 484.213 301.9 483.893 301.5C483.593 301.08 483.123 300.78 482.483 300.6C481.863 300.4 481.063 300.3 480.083 300.3ZM506.607 312.06C506.607 313.32 506.297 314.42 505.677 315.36C505.057 316.3 504.157 317.03 502.977 317.55C501.817 318.05 500.397 318.3 498.717 318.3C497.977 318.3 497.247 318.25 496.527 318.15C495.827 318.05 495.147 317.91 494.487 317.73C493.847 317.53 493.237 317.29 492.657 317.01V312.78C493.677 313.22 494.727 313.63 495.807 314.01C496.907 314.37 497.997 314.55 499.077 314.55C499.817 314.55 500.407 314.45 500.847 314.25C501.307 314.05 501.637 313.78 501.837 313.44C502.057 313.1 502.167 312.71 502.167 312.27C502.167 311.73 501.977 311.27 501.597 310.89C501.237 310.51 500.747 310.16 500.127 309.84C499.507 309.5 498.797 309.14 497.997 308.76C497.497 308.52 496.957 308.24 496.377 307.92C495.797 307.58 495.237 307.17 494.697 306.69C494.177 306.19 493.747 305.59 493.407 304.89C493.067 304.19 492.897 303.35 492.897 302.37C492.897 301.09 493.187 300 493.767 299.1C494.367 298.18 495.207 297.48 496.287 297C497.387 296.52 498.677 296.28 500.157 296.28C501.277 296.28 502.337 296.41 503.337 296.67C504.357 296.93 505.417 297.3 506.517 297.78L505.047 301.32C504.067 300.92 503.187 300.61 502.407 300.39C501.627 300.17 500.827 300.06 500.007 300.06C499.447 300.06 498.967 300.15 498.567 300.33C498.167 300.51 497.857 300.76 497.637 301.08C497.437 301.4 497.337 301.78 497.337 302.22C497.337 302.72 497.487 303.15 497.787 303.51C498.087 303.85 498.537 304.18 499.137 304.5C499.737 304.82 500.487 305.2 501.387 305.64C502.487 306.16 503.417 306.7 504.177 307.26C504.957 307.82 505.557 308.48 505.977 309.24C506.397 310 506.607 310.94 506.607 312.06Z" fill="#292929"/>
</svg>
