<svg width="649" height="348" viewBox="0 0 649 348" fill="none" xmlns="http://www.w3.org/2000/svg">
<rect width="649" height="348" rx="41" fill="#023A73"/>
<path d="M188 272.5L168 287.5L174 293.5L182 288.5H196L212 285.5L220.5 293.5H236.5L256 285.5H276.5H290L300.5 295.5L303 288.5H326L342.5 283H366.5L378.5 275H394L400 262.5L404 256.5L423.5 260.5H444L460 243H475L502 238.5L511 231H478.5L460 235L423.5 227L394 224L381 227L360.5 231L338 215L321.5 200.5L313 210.5L307 200.5L286 195H273.5L262 210.5L245.5 205L228.5 210.5L212 200.5L200 215H188V224V237.5V259V272.5Z" fill="#E83811" fill-opacity="0.5"/>
<path d="M372 148L358 155L354 151L359.5 145L366 138.5L375 135L382.5 133L388.5 123L394 113.5L404 110.5L423.5 107L433.5 106L436 99L430.5 94.5L427 89.5L440 87.5L454 97.5L460 106L466.5 99L473.5 102.5L486 107L502 119.5L522.5 127.5L530.5 136V145L527 147L522.5 140L511 135L496 125L486 129L481 130.5L473.5 123L466.5 117.5L468 133L475 145L473.5 155L468 162L457 159L460 147L454 148L447 153L438 148H423.5L414.5 151L404 148L400 155V148L386 136L372 148Z" fill="#E83811" fill-opacity="0.5"/>
<path d="M347.5 140L335 145L321.5 143V150H298L278.5 137.5L272 126.5L255.5 118.5L238.5 117L230.5 126.5H223.5L219 110L208.5 99L189.5 102.5L180 107L169.5 99L159 92.5V84H180L197 78L214.5 74L234.5 79.5L245.5 74L253.5 86.5L267 92.5L269.5 86.5L265 79.5L255.5 70L265 74L286 85.5L295 99L324 106L339 118L346.5 131L347.5 140Z" fill="#E83811" fill-opacity="0.5"/>
<path d="M183.992 31.596L174.972 62H168.064L158.78 31.596H165.028L171.628 56.852L178.052 31.596H183.992ZM194.528 31.596V62H188.72V31.596H194.528ZM212.478 49.812H208.782V62H202.974V31.596H212.038C220.075 31.596 224.094 34.5733 224.094 40.528C224.094 42.552 223.595 44.224 222.598 45.544C221.6 46.864 220.046 47.9347 217.934 48.756L225.898 62H219.21L212.478 49.812ZM208.782 45.632H212.39C214.238 45.632 215.631 45.236 216.57 44.444C217.538 43.6227 218.022 42.3173 218.022 40.528C218.022 38.8853 217.523 37.6973 216.526 36.964C215.558 36.2013 214.018 35.82 211.906 35.82H208.782V45.632ZM242.995 30.936C244.99 30.936 246.75 31.244 248.275 31.86C249.83 32.4467 251.297 33.3267 252.675 34.5L249.551 37.756C248.466 36.9053 247.439 36.2893 246.471 35.908C245.533 35.5267 244.433 35.336 243.171 35.336C240.825 35.336 238.903 36.2747 237.407 38.152C235.911 40.0293 235.163 42.904 235.163 46.776C235.163 50.824 235.75 53.7427 236.923 55.532C238.126 57.3213 239.945 58.216 242.379 58.216C244.227 58.216 245.841 57.82 247.219 57.028V49.108H242.643L242.027 44.796H252.939V59.668C249.654 61.6627 246.163 62.66 242.467 62.66C238.126 62.66 234.797 61.3107 232.479 58.612C230.191 55.9133 229.047 51.968 229.047 46.776C229.047 43.4613 229.663 40.616 230.895 38.24C232.157 35.8347 233.843 34.016 235.955 32.784C238.067 31.552 240.414 30.936 242.995 30.936ZM265.906 31.596V62H260.098V31.596H265.906ZM296.791 62H289.267L278.839 37.404C279.103 39.5747 279.294 41.54 279.411 43.3C279.558 45.06 279.631 47.1573 279.631 49.592V62H274.351V31.596H281.699L292.303 56.236C292.127 55.0627 291.951 53.5227 291.775 51.616C291.599 49.68 291.511 47.7587 291.511 45.852V31.596H296.791V62ZM323.362 31.596V62H317.554V31.596H323.362ZM340.564 30.936C342.705 30.936 344.568 31.244 346.152 31.86C347.736 32.476 349.217 33.4147 350.596 34.676L347.736 37.976C346.65 37.0667 345.55 36.4067 344.436 35.996C343.35 35.5853 342.177 35.38 340.916 35.38C339.508 35.38 338.364 35.7027 337.484 36.348C336.633 36.964 336.208 37.844 336.208 38.988C336.208 39.7507 336.369 40.3813 336.692 40.88C337.044 41.3787 337.66 41.848 338.54 42.288C339.42 42.728 340.725 43.212 342.456 43.74C345.448 44.6787 347.692 45.852 349.188 47.26C350.713 48.6387 351.476 50.6627 351.476 53.332C351.476 55.1507 351.006 56.764 350.068 58.172C349.158 59.58 347.838 60.68 346.108 61.472C344.377 62.264 342.324 62.66 339.948 62.66C337.63 62.66 335.548 62.2933 333.7 61.56C331.881 60.7973 330.312 59.7707 328.992 58.48L331.984 55.136C333.157 56.1333 334.374 56.896 335.636 57.424C336.897 57.9227 338.29 58.172 339.816 58.172C341.488 58.172 342.837 57.776 343.864 56.984C344.89 56.192 345.404 55.0773 345.404 53.64C345.404 52.76 345.228 52.0413 344.876 51.484C344.524 50.8973 343.922 50.384 343.072 49.944C342.221 49.4747 340.989 48.9907 339.376 48.492C336.149 47.4947 333.817 46.292 332.38 44.884C330.942 43.476 330.224 41.628 330.224 39.34C330.224 37.668 330.664 36.2013 331.544 34.94C332.424 33.6787 333.641 32.696 335.196 31.992C336.78 31.288 338.569 30.936 340.564 30.936ZM363.557 31.596V57.248H375.745L375.085 62H357.749V31.596H363.557ZM397.43 62L395.538 54.96H385.462L383.57 62H377.542L387.002 31.596H394.174L403.59 62H397.43ZM386.606 50.56H394.35L390.478 36.04L386.606 50.56ZM430.739 62H423.215L412.787 37.404C413.051 39.5747 413.242 41.54 413.359 43.3C413.506 45.06 413.579 47.1573 413.579 49.592V62H408.299V31.596H415.647L426.251 56.236C426.075 55.0627 425.899 53.5227 425.723 51.616C425.547 49.68 425.459 47.7587 425.459 45.852V31.596H430.739V62ZM446.661 31.596C451.384 31.596 455.153 32.6667 457.969 34.808C460.815 36.9493 462.237 40.8947 462.237 46.644C462.237 52.276 460.844 56.2507 458.057 58.568C455.271 60.856 451.736 62 447.453 62H439.181V31.596H446.661ZM444.989 35.952V57.644H447.849C450.431 57.644 452.455 56.852 453.921 55.268C455.388 53.6547 456.121 50.78 456.121 46.644C456.121 43.7693 455.74 41.5547 454.977 40C454.244 38.416 453.261 37.3453 452.029 36.788C450.827 36.2307 449.375 35.952 447.673 35.952H444.989ZM477.789 30.936C479.93 30.936 481.793 31.244 483.377 31.86C484.961 32.476 486.442 33.4147 487.821 34.676L484.961 37.976C483.875 37.0667 482.775 36.4067 481.661 35.996C480.575 35.5853 479.402 35.38 478.141 35.38C476.733 35.38 475.589 35.7027 474.709 36.348C473.858 36.964 473.433 37.844 473.433 38.988C473.433 39.7507 473.594 40.3813 473.917 40.88C474.269 41.3787 474.885 41.848 475.765 42.288C476.645 42.728 477.95 43.212 479.681 43.74C482.673 44.6787 484.917 45.852 486.413 47.26C487.938 48.6387 488.701 50.6627 488.701 53.332C488.701 55.1507 488.231 56.764 487.293 58.172C486.383 59.58 485.063 60.68 483.333 61.472C481.602 62.264 479.549 62.66 477.173 62.66C474.855 62.66 472.773 62.2933 470.925 61.56C469.106 60.7973 467.537 59.7707 466.217 58.48L469.209 55.136C470.382 56.1333 471.599 56.896 472.861 57.424C474.122 57.9227 475.515 58.172 477.041 58.172C478.713 58.172 480.062 57.776 481.089 56.984C482.115 56.192 482.629 55.0773 482.629 53.64C482.629 52.76 482.453 52.0413 482.101 51.484C481.749 50.8973 481.147 50.384 480.297 49.944C479.446 49.4747 478.214 48.9907 476.601 48.492C473.374 47.4947 471.042 46.292 469.605 44.884C468.167 43.476 467.449 41.628 467.449 39.34C467.449 37.668 467.889 36.2013 468.769 34.94C469.649 33.6787 470.866 32.696 472.421 31.992C474.005 31.288 475.794 30.936 477.789 30.936Z" fill="white"/>
<path d="M168.21 66.472C169.218 66.472 170.1 66.718 170.856 67.21C171.612 67.69 172.2 68.41 172.62 69.37C173.04 70.33 173.25 71.488 173.25 72.844C173.25 74.176 173.04 75.322 172.62 76.282C172.212 77.23 171.63 77.956 170.874 78.46C170.118 78.952 169.23 79.198 168.21 79.198C167.214 79.198 166.338 78.952 165.582 78.46C164.826 77.968 164.238 77.248 163.818 76.3C163.398 75.352 163.188 74.206 163.188 72.862C163.188 71.53 163.398 70.384 163.818 69.424C164.238 68.464 164.826 67.732 165.582 67.228C166.35 66.724 167.226 66.472 168.21 66.472ZM168.21 67.39C167.01 67.39 166.062 67.852 165.366 68.776C164.67 69.688 164.322 71.05 164.322 72.862C164.322 74.65 164.67 76 165.366 76.912C166.074 77.824 167.022 78.28 168.21 78.28C169.446 78.28 170.406 77.83 171.09 76.93C171.774 76.018 172.116 74.656 172.116 72.844C172.116 71.02 171.768 69.658 171.072 68.758C170.388 67.846 169.434 67.39 168.21 67.39ZM184.093 79V66.67H190.249L190.123 67.57H185.173V72.376H189.439V73.276H185.173V79H184.093ZM219.819 66.67L219.693 67.624H216.075V79H215.013V67.624H211.359V66.67H219.819ZM236.633 79V72.97H230.729V79H229.649V66.67H230.729V72.052H236.633V66.67H237.713V79H236.633ZM255.621 66.67L255.495 67.57H250.437V72.16H254.811V73.06H250.437V78.1H255.747V79H249.357V66.67H255.621ZM286.816 75.148C286.816 76.372 286.468 77.356 285.772 78.1C285.076 78.832 284.074 79.198 282.766 79.198C281.446 79.198 280.438 78.832 279.742 78.1C279.058 77.368 278.716 76.384 278.716 75.148V66.67H279.796V75.058C279.796 76.09 280.036 76.882 280.516 77.434C281.008 77.986 281.758 78.262 282.766 78.262C283.774 78.262 284.518 77.986 284.998 77.434C285.478 76.87 285.718 76.078 285.718 75.058V66.67H286.816V75.148ZM306.406 79H304.984L299.17 67.858C299.266 69.358 299.314 70.774 299.314 72.106V79H298.288V66.67H299.674L305.524 77.812C305.428 76.42 305.38 75.202 305.38 74.158V66.67H306.406V79ZM319.129 66.67V79H318.049V66.67H319.129ZM337.511 66.67L337.385 67.624H333.767V79H332.705V67.624H329.051V66.67H337.511ZM353.605 66.67L353.479 67.57H348.421V72.16H352.795V73.06H348.421V78.1H353.731V79H347.341V66.67H353.605ZM366.65 66.67C368.354 66.67 369.734 67.102 370.79 67.966C371.858 68.83 372.392 70.42 372.392 72.736C372.392 75.052 371.852 76.678 370.772 77.614C369.704 78.538 368.396 79 366.848 79H364.202V66.67H366.65ZM365.282 67.57V78.1H366.92C369.812 78.1 371.258 76.312 371.258 72.736C371.258 71.32 371.048 70.234 370.628 69.478C370.208 68.722 369.674 68.218 369.026 67.966C368.39 67.702 367.646 67.57 366.794 67.57H365.282ZM398.711 66.472C399.467 66.472 400.115 66.586 400.655 66.814C401.207 67.03 401.741 67.372 402.257 67.84L401.627 68.524C401.159 68.128 400.703 67.84 400.259 67.66C399.815 67.48 399.311 67.39 398.747 67.39C397.979 67.39 397.361 67.582 396.893 67.966C396.425 68.338 396.191 68.842 396.191 69.478C396.191 69.91 396.275 70.27 396.443 70.558C396.623 70.834 396.917 71.086 397.325 71.314C397.733 71.53 398.315 71.752 399.071 71.98C399.887 72.232 400.547 72.502 401.051 72.79C401.555 73.078 401.945 73.45 402.221 73.906C402.497 74.362 402.635 74.938 402.635 75.634C402.635 76.33 402.467 76.948 402.131 77.488C401.795 78.028 401.315 78.448 400.691 78.748C400.079 79.048 399.365 79.198 398.549 79.198C397.013 79.198 395.699 78.682 394.607 77.65L395.219 76.966C395.723 77.398 396.233 77.728 396.749 77.956C397.265 78.172 397.859 78.28 398.531 78.28C399.419 78.28 400.139 78.046 400.691 77.578C401.255 77.11 401.537 76.474 401.537 75.67C401.537 75.166 401.441 74.752 401.249 74.428C401.069 74.104 400.769 73.828 400.349 73.6C399.941 73.36 399.359 73.12 398.603 72.88C397.343 72.496 396.443 72.052 395.903 71.548C395.363 71.044 395.093 70.36 395.093 69.496C395.093 68.92 395.243 68.404 395.543 67.948C395.855 67.48 396.281 67.12 396.821 66.868C397.373 66.604 398.003 66.472 398.711 66.472ZM419.548 66.67L419.422 67.624H415.804V79H414.742V67.624H411.088V66.67H419.548ZM435.214 79L434.134 75.634H428.95L427.87 79H426.772L430.894 66.67H432.244L436.348 79H435.214ZM429.256 74.716H433.846L431.56 67.552L429.256 74.716ZM452.145 66.67L452.019 67.624H448.401V79H447.339V67.624H443.685V66.67H452.145ZM468.239 66.67L468.113 67.57H463.055V72.16H467.429V73.06H463.055V78.1H468.365V79H461.975V66.67H468.239ZM481.469 66.472C482.225 66.472 482.873 66.586 483.413 66.814C483.965 67.03 484.499 67.372 485.015 67.84L484.385 68.524C483.917 68.128 483.461 67.84 483.017 67.66C482.573 67.48 482.069 67.39 481.505 67.39C480.737 67.39 480.119 67.582 479.651 67.966C479.183 68.338 478.949 68.842 478.949 69.478C478.949 69.91 479.033 70.27 479.201 70.558C479.381 70.834 479.675 71.086 480.083 71.314C480.491 71.53 481.073 71.752 481.829 71.98C482.645 72.232 483.305 72.502 483.809 72.79C484.313 73.078 484.703 73.45 484.979 73.906C485.255 74.362 485.393 74.938 485.393 75.634C485.393 76.33 485.225 76.948 484.889 77.488C484.553 78.028 484.073 78.448 483.449 78.748C482.837 79.048 482.123 79.198 481.307 79.198C479.771 79.198 478.457 78.682 477.365 77.65L477.977 76.966C478.481 77.398 478.991 77.728 479.507 77.956C480.023 78.172 480.617 78.28 481.289 78.28C482.177 78.28 482.897 78.046 483.449 77.578C484.013 77.11 484.295 76.474 484.295 75.67C484.295 75.166 484.199 74.752 484.007 74.428C483.827 74.104 483.527 73.828 483.107 73.6C482.699 73.36 482.117 73.12 481.361 72.88C480.101 72.496 479.201 72.052 478.661 71.548C478.121 71.044 477.851 70.36 477.851 69.496C477.851 68.92 478.001 68.404 478.301 67.948C478.613 67.48 479.039 67.12 479.579 66.868C480.131 66.604 480.761 66.472 481.469 66.472Z" fill="white"/>
<path d="M207.31 304.438V328H201.87V304.438H207.31ZM218.039 303.86C219.626 303.86 221.02 304.121 222.221 304.642C223.445 305.141 224.556 305.889 225.553 306.886L223.071 309.742C221.598 308.473 220.09 307.838 218.549 307.838C217.688 307.838 217.008 308.053 216.509 308.484C216.01 308.915 215.761 309.504 215.761 310.252C215.761 310.751 215.874 311.17 216.101 311.51C216.328 311.85 216.724 312.179 217.291 312.496C217.858 312.813 218.696 313.176 219.807 313.584C221.258 314.128 222.425 314.717 223.309 315.352C224.216 315.964 224.907 316.735 225.383 317.664C225.859 318.593 226.097 319.749 226.097 321.132C226.097 322.583 225.746 323.875 225.043 325.008C224.363 326.119 223.366 326.991 222.051 327.626C220.759 328.261 219.24 328.578 217.495 328.578C214.208 328.578 211.477 327.467 209.301 325.246L211.953 322.288C212.792 323.013 213.63 323.569 214.469 323.954C215.33 324.339 216.237 324.532 217.189 324.532C218.232 324.532 219.036 324.26 219.603 323.716C220.17 323.172 220.453 322.447 220.453 321.54C220.453 320.679 220.192 319.987 219.671 319.466C219.15 318.945 218.164 318.423 216.713 317.902C214.356 317.018 212.678 316.021 211.681 314.91C210.684 313.799 210.185 312.383 210.185 310.66C210.185 309.323 210.525 308.144 211.205 307.124C211.885 306.081 212.814 305.277 213.993 304.71C215.194 304.143 216.543 303.86 218.039 303.86ZM234.072 304.438V323.682H242.266L241.688 328H228.632V304.438H234.072ZM255.792 328L254.738 322.866H248.754L247.7 328H242.192L248.55 304.438H255.078L261.402 328H255.792ZM249.57 318.956H253.922L251.746 308.416L249.57 318.956ZM276.158 304.438C278.334 304.438 280.226 304.744 281.836 305.356C283.468 305.968 284.782 307.135 285.78 308.858C286.777 310.581 287.276 312.995 287.276 316.1C287.276 320.497 286.301 323.58 284.352 325.348C282.402 327.116 279.818 328 276.6 328H269.97V304.438H276.158ZM275.41 308.382V324.056H276.94C277.982 324.056 278.844 323.829 279.524 323.376C280.204 322.923 280.725 322.118 281.088 320.962C281.473 319.783 281.666 318.163 281.666 316.1C281.666 314.037 281.473 312.439 281.088 311.306C280.702 310.173 280.158 309.402 279.456 308.994C278.776 308.586 277.926 308.382 276.906 308.382H275.41ZM303.518 304.438L302.94 308.314H295.63V314.128H302.022V317.936H295.63V324.056H303.45V328H290.19V304.438H303.518ZM311.734 304.438V323.682H319.928L319.35 328H306.294V304.438H311.734ZM342.499 304.438L341.921 308.314H334.611V314.128H341.003V317.936H334.611V324.056H342.431V328H329.171V304.438H342.499ZM361.9 328H355.1L349.32 309.504C349.366 309.776 349.388 310.003 349.388 310.184C349.592 311.816 349.751 313.301 349.864 314.638C349.978 315.953 350.034 317.483 350.034 319.228V328H345.274V304.438H352.006L357.888 322.968C357.39 320.021 357.14 317.086 357.14 314.162V304.438H361.9V328ZM374.536 303.86C375.896 303.86 377.108 304.075 378.174 304.506C379.239 304.937 380.248 305.583 381.2 306.444L378.616 309.47C378.004 308.949 377.392 308.563 376.78 308.314C376.19 308.042 375.556 307.906 374.876 307.906C371.929 307.906 370.456 310.66 370.456 316.168C370.456 321.631 371.94 324.362 374.91 324.362C375.68 324.362 376.36 324.215 376.95 323.92C377.562 323.603 378.242 323.149 378.99 322.56L381.438 325.552C380.599 326.436 379.59 327.161 378.412 327.728C377.256 328.295 375.975 328.578 374.57 328.578C372.598 328.578 370.875 328.113 369.402 327.184C367.951 326.255 366.818 324.861 366.002 323.002C365.186 321.143 364.778 318.865 364.778 316.168C364.778 313.539 365.197 311.306 366.036 309.47C366.874 307.611 368.019 306.217 369.47 305.288C370.943 304.336 372.632 303.86 374.536 303.86ZM394.814 328L393.76 322.866H387.776L386.722 328H381.214L387.572 304.438H394.1L400.424 328H394.814ZM388.592 318.956H392.944L390.768 308.416L388.592 318.956ZM418.545 328H411.745L405.965 309.504C406.01 309.776 406.033 310.003 406.033 310.184C406.237 311.816 406.395 313.301 406.509 314.638C406.622 315.953 406.679 317.483 406.679 319.228V328H401.919V304.438H408.651L414.533 322.968C414.034 320.021 413.785 317.086 413.785 314.162V304.438H418.545V328ZM437.096 304.438L436.518 308.586H431.452V328H426.012V308.586H420.64V304.438H437.096ZM446.585 303.86C449.69 303.86 452.082 304.914 453.759 307.022C455.436 309.107 456.275 312.167 456.275 316.202C456.275 320.191 455.425 323.251 453.725 325.382C452.048 327.513 449.668 328.578 446.585 328.578C443.502 328.578 441.111 327.524 439.411 325.416C437.734 323.308 436.895 320.237 436.895 316.202C436.895 312.235 437.734 309.187 439.411 307.056C441.111 304.925 443.502 303.86 446.585 303.86ZM446.585 307.838C445.202 307.838 444.182 308.484 443.525 309.776C442.89 311.068 442.573 313.21 442.573 316.202C442.573 319.239 442.902 321.404 443.559 322.696C444.216 323.965 445.225 324.6 446.585 324.6C447.968 324.6 448.976 323.965 449.611 322.696C450.268 321.404 450.597 319.239 450.597 316.202C450.597 313.21 450.268 311.068 449.611 309.776C448.976 308.484 447.968 307.838 446.585 307.838Z" fill="#3E3366"/>
</svg>
