<svg width="649" height="348" viewBox="0 0 649 348" fill="none" xmlns="http://www.w3.org/2000/svg">
<rect width="649" height="348" rx="41" fill="#F4F4F4"/>
<path fill-rule="evenodd" clip-rule="evenodd" d="M649 235.577V307C649 329.644 630.644 348 608 348H41C18.3563 348 0 329.644 0 307V229.783L26.5 212.5L70.5 202.5L101 186.5H111L129.5 172.5H158.5L212.5 144L270.5 103L290.5 96L363.5 103H375L404 131L454 160L503 186.5L533.5 190L564.5 202.5L634.5 230L649 235.577Z" fill="#97AFC7" fill-opacity="0.8"/>
<path d="M88.207 35.4512L78.3984 74H69.0908L63.8701 53.75C63.7646 53.3633 63.624 52.7744 63.4482 51.9834C63.2725 51.1924 63.0879 50.3311 62.8945 49.3994C62.7012 48.4502 62.5254 47.5625 62.3672 46.7363C62.2266 45.8926 62.1299 45.2246 62.0771 44.7324C62.0244 45.2246 61.9189 45.8838 61.7607 46.71C61.6201 47.5361 61.4531 48.415 61.2598 49.3467C61.084 50.2783 60.9082 51.1484 60.7324 51.957C60.5566 52.7656 60.416 53.3809 60.3105 53.8027L55.1162 74H45.835L36 35.4512H44.042L48.9727 56.4922C49.1133 57.125 49.2715 57.8809 49.4473 58.7598C49.6406 59.6387 49.8252 60.5615 50.001 61.5283C50.1943 62.4775 50.3613 63.4004 50.502 64.2969C50.6602 65.1758 50.7744 65.9404 50.8447 66.5908C50.9326 65.9229 51.0469 65.1494 51.1875 64.2705C51.3281 63.374 51.4775 62.4688 51.6357 61.5547C51.8115 60.623 51.9873 59.7617 52.1631 58.9707C52.3389 58.1797 52.4971 57.5381 52.6377 57.0459L58.2539 35.4512H65.9795L71.5957 57.0459C71.7188 57.5205 71.8594 58.1621 72.0176 58.9707C72.1934 59.7617 72.3691 60.623 72.5449 61.5547C72.7207 62.4863 72.8789 63.4004 73.0195 64.2969C73.1777 65.1758 73.292 65.9404 73.3623 66.5908C73.4854 65.7119 73.6523 64.6484 73.8633 63.4004C74.0918 62.1348 74.3291 60.8779 74.5752 59.6299C74.8389 58.3818 75.0674 57.3359 75.2607 56.4922L80.165 35.4512H88.207ZM116.117 74L113.322 64.8242H99.2686L96.4737 74H87.667L101.272 35.293H111.266L124.924 74H116.117ZM111.371 57.9688L108.576 49.0039C108.4 48.4062 108.163 47.6416 107.864 46.71C107.583 45.7607 107.293 44.8027 106.994 43.8359C106.713 42.8516 106.484 41.999 106.309 41.2783C106.133 41.999 105.887 42.8955 105.57 43.9678C105.272 45.0225 104.981 46.0244 104.7 46.9736C104.419 47.9229 104.217 48.5996 104.094 49.0039L101.325 57.9688H111.371ZM152.017 63.2949C152.017 65.5801 151.463 67.5664 150.356 69.2539C149.248 70.9414 147.631 72.2422 145.504 73.1562C143.395 74.0703 140.828 74.5273 137.805 74.5273C136.469 74.5273 135.159 74.4395 133.876 74.2637C132.61 74.0879 131.389 73.833 130.211 73.499C129.051 73.1475 127.943 72.7168 126.889 72.207V64.6133C128.717 65.4219 130.615 66.1514 132.584 66.8018C134.553 67.4521 136.504 67.7773 138.438 67.7773C139.774 67.7773 140.846 67.6016 141.654 67.25C142.481 66.8984 143.078 66.415 143.447 65.7998C143.816 65.1846 144.001 64.4814 144.001 63.6904C144.001 62.7236 143.676 61.8975 143.025 61.2119C142.375 60.5264 141.479 59.8848 140.336 59.2871C139.211 58.6895 137.937 58.0479 136.513 57.3623C135.616 56.9404 134.641 56.4307 133.586 55.833C132.531 55.2178 131.529 54.4707 130.58 53.5918C129.631 52.7129 128.849 51.6494 128.233 50.4014C127.636 49.1357 127.337 47.624 127.337 45.8662C127.337 43.5635 127.864 41.5947 128.919 39.96C129.974 38.3252 131.477 37.0771 133.428 36.2158C135.397 35.3369 137.717 34.8975 140.389 34.8975C142.393 34.8975 144.3 35.1348 146.11 35.6094C147.939 36.0664 149.846 36.7344 151.832 37.6133L149.195 43.9678C147.42 43.2471 145.829 42.6934 144.423 42.3066C143.017 41.9023 141.584 41.7002 140.125 41.7002C139.106 41.7002 138.235 41.8672 137.515 42.2012C136.794 42.5176 136.249 42.9746 135.88 43.5723C135.511 44.1523 135.326 44.8291 135.326 45.6025C135.326 46.5166 135.59 47.29 136.117 47.9229C136.662 48.5381 137.471 49.1357 138.543 49.7158C139.633 50.2959 140.986 50.9727 142.604 51.7461C144.572 52.6777 146.251 53.6533 147.64 54.6729C149.046 55.6748 150.127 56.8613 150.883 58.2324C151.639 59.5859 152.017 61.2734 152.017 63.2949ZM190.052 74H181.904V57.3623H166.638V74H158.464V35.4512H166.638V50.5596H181.904V35.4512H190.052V74ZM199.268 74V35.4512H207.442V74H199.268ZM250.803 74H240.414L223.645 44.8379H223.407C223.478 46.0508 223.539 47.2725 223.592 48.5029C223.645 49.7334 223.697 50.9639 223.75 52.1943C223.803 53.4072 223.856 54.6289 223.908 55.8594V74H216.605V35.4512H226.914L243.657 64.3232H243.842C243.807 63.1279 243.763 61.9414 243.71 60.7637C243.657 59.5859 243.605 58.4082 243.552 57.2305C243.517 56.0527 243.482 54.875 243.446 53.6973V35.4512H250.803V74ZM274.626 52.3525H289.919V72.3389C287.898 73.0068 285.797 73.543 283.617 73.9473C281.438 74.334 278.968 74.5273 276.208 74.5273C272.376 74.5273 269.124 73.7715 266.452 72.2598C263.781 70.748 261.75 68.5156 260.362 65.5625C258.973 62.6094 258.279 58.9795 258.279 54.6729C258.279 50.6299 259.052 47.1318 260.599 44.1787C262.163 41.2256 264.44 38.9404 267.428 37.3232C270.434 35.7061 274.099 34.8975 278.423 34.8975C280.462 34.8975 282.475 35.1172 284.461 35.5566C286.447 35.9961 288.249 36.5674 289.866 37.2705L287.151 43.8096C285.973 43.2119 284.628 42.7109 283.116 42.3066C281.605 41.9023 280.023 41.7002 278.37 41.7002C275.997 41.7002 273.932 42.2451 272.174 43.335C270.434 44.4248 269.08 45.9541 268.114 47.9229C267.164 49.874 266.69 52.1768 266.69 54.8311C266.69 57.3447 267.032 59.5771 267.718 61.5283C268.404 63.4619 269.485 64.9824 270.961 66.0898C272.438 67.1797 274.363 67.7246 276.736 67.7246C277.896 67.7246 278.871 67.6719 279.662 67.5664C280.471 67.4434 281.227 67.3203 281.93 67.1973V59.1553H274.626V52.3525ZM313.452 74H305.279V42.2539H294.811V35.4512H323.92V42.2539H313.452V74ZM364.302 54.6729C364.302 57.6436 363.933 60.3506 363.195 62.7939C362.456 65.2197 361.331 67.3115 359.82 69.0693C358.326 70.8271 356.427 72.1807 354.124 73.1299C351.822 74.0615 349.097 74.5273 345.951 74.5273C342.804 74.5273 340.079 74.0615 337.777 73.1299C335.474 72.1807 333.567 70.8271 332.055 69.0693C330.561 67.3115 329.445 65.2109 328.706 62.7676C327.968 60.3242 327.599 57.6084 327.599 54.6201C327.599 50.6299 328.249 47.1582 329.55 44.2051C330.868 41.2344 332.89 38.9316 335.615 37.2969C338.339 35.6621 341.802 34.8447 346.003 34.8447C350.187 34.8447 353.623 35.6621 356.313 37.2969C359.02 38.9316 361.024 41.2344 362.325 44.2051C363.643 47.1758 364.302 50.665 364.302 54.6729ZM336.168 54.6729C336.168 57.3623 336.502 59.6826 337.17 61.6338C337.856 63.5674 338.919 65.0615 340.361 66.1162C341.802 67.1533 343.665 67.6719 345.951 67.6719C348.271 67.6719 350.152 67.1533 351.593 66.1162C353.034 65.0615 354.08 63.5674 354.731 61.6338C355.399 59.6826 355.733 57.3623 355.733 54.6729C355.733 50.6299 354.977 47.4482 353.465 45.1279C351.953 42.8076 349.466 41.6475 346.003 41.6475C343.701 41.6475 341.82 42.1748 340.361 43.2295C338.919 44.2666 337.856 45.7607 337.17 47.7119C336.502 49.6455 336.168 51.9658 336.168 54.6729ZM405.95 74H395.561L378.791 44.8379H378.554C378.624 46.0508 378.686 47.2725 378.739 48.5029C378.791 49.7334 378.844 50.9639 378.897 52.1943C378.95 53.4072 379.002 54.6289 379.055 55.8594V74H371.751V35.4512H382.061L398.804 64.3232H398.989C398.953 63.1279 398.91 61.9414 398.857 60.7637C398.804 59.5859 398.751 58.4082 398.699 57.2305C398.663 56.0527 398.628 54.875 398.593 53.6973V35.4512H405.95V74Z" fill="#960D12"/>
<path d="M199.031 319H185.875V296.156H199.031V300.125H190.719V305.141H198.453V309.109H190.719V315H199.031V319ZM221.414 296.156L213.649 319H208.368L200.618 296.156H205.508L209.805 309.75C209.878 309.979 209.998 310.411 210.164 311.047C210.331 311.672 210.498 312.339 210.664 313.047C210.841 313.745 210.961 314.323 211.024 314.781C211.086 314.323 211.196 313.745 211.352 313.047C211.519 312.349 211.68 311.688 211.836 311.062C212.003 310.427 212.123 309.99 212.196 309.75L216.524 296.156H221.414ZM237.141 319H223.985V296.156H237.141V300.125H228.829V305.141H236.563V309.109H228.829V315H237.141V319ZM248.259 296.156C250.332 296.156 252.04 296.406 253.384 296.906C254.738 297.406 255.743 298.161 256.399 299.172C257.056 300.182 257.384 301.458 257.384 303C257.384 304.042 257.186 304.953 256.79 305.734C256.394 306.516 255.873 307.177 255.228 307.719C254.582 308.26 253.884 308.703 253.134 309.047L259.853 319H254.478L249.024 310.234H246.446V319H241.603V296.156H248.259ZM247.915 300.125H246.446V306.297H248.009C249.613 306.297 250.759 306.031 251.446 305.5C252.144 304.958 252.493 304.167 252.493 303.125C252.493 302.042 252.118 301.271 251.368 300.812C250.629 300.354 249.478 300.125 247.915 300.125ZM271.079 306.172H280.142V318.016C278.944 318.411 277.699 318.729 276.408 318.969C275.116 319.198 273.652 319.312 272.017 319.312C269.746 319.312 267.819 318.865 266.236 317.969C264.652 317.073 263.449 315.75 262.626 314C261.803 312.25 261.392 310.099 261.392 307.547C261.392 305.151 261.85 303.078 262.767 301.328C263.694 299.578 265.043 298.224 266.814 297.266C268.595 296.307 270.767 295.828 273.329 295.828C274.538 295.828 275.73 295.958 276.908 296.219C278.085 296.479 279.152 296.818 280.111 297.234L278.501 301.109C277.803 300.755 277.006 300.458 276.111 300.219C275.215 299.979 274.277 299.859 273.298 299.859C271.892 299.859 270.668 300.182 269.626 300.828C268.595 301.474 267.793 302.38 267.22 303.547C266.658 304.703 266.376 306.068 266.376 307.641C266.376 309.13 266.579 310.453 266.986 311.609C267.392 312.755 268.033 313.656 268.908 314.312C269.783 314.958 270.923 315.281 272.329 315.281C273.017 315.281 273.595 315.25 274.064 315.188C274.543 315.115 274.991 315.042 275.408 314.969V310.203H271.079V306.172ZM291.931 296.156C294.004 296.156 295.713 296.406 297.056 296.906C298.41 297.406 299.416 298.161 300.072 299.172C300.728 300.182 301.056 301.458 301.056 303C301.056 304.042 300.858 304.953 300.463 305.734C300.067 306.516 299.546 307.177 298.9 307.719C298.254 308.26 297.556 308.703 296.806 309.047L303.525 319H298.15L292.697 310.234H290.119V319H285.275V296.156H291.931ZM291.588 300.125H290.119V306.297H291.681C293.285 306.297 294.431 306.031 295.119 305.5C295.817 304.958 296.166 304.167 296.166 303.125C296.166 302.042 295.791 301.271 295.041 300.812C294.301 300.354 293.15 300.125 291.588 300.125ZM319.236 319H306.08V296.156H319.236V300.125H310.924V305.141H318.658V309.109H310.924V315H319.236V319ZM336.854 319H323.697V296.156H336.854V300.125H328.541V305.141H336.276V309.109H328.541V315H336.854V319ZM361.581 319H355.424L345.487 301.719H345.346C345.388 302.438 345.424 303.161 345.456 303.891C345.487 304.62 345.518 305.349 345.549 306.078C345.581 306.797 345.612 307.521 345.643 308.25V319H341.315V296.156H347.424L357.346 313.266H357.456C357.435 312.557 357.409 311.854 357.378 311.156C357.346 310.458 357.315 309.76 357.284 309.062C357.263 308.365 357.242 307.667 357.221 306.969V296.156H361.581V319ZM388.503 312.656C388.503 314.01 388.175 315.188 387.519 316.188C386.863 317.188 385.904 317.958 384.644 318.5C383.394 319.042 381.873 319.312 380.081 319.312C379.29 319.312 378.514 319.26 377.753 319.156C377.003 319.052 376.279 318.901 375.581 318.703C374.894 318.495 374.238 318.24 373.613 317.938V313.438C374.696 313.917 375.821 314.349 376.988 314.734C378.154 315.12 379.31 315.312 380.456 315.312C381.248 315.312 381.883 315.208 382.363 315C382.852 314.792 383.206 314.505 383.425 314.141C383.644 313.776 383.753 313.359 383.753 312.891C383.753 312.318 383.56 311.828 383.175 311.422C382.79 311.016 382.258 310.635 381.581 310.281C380.915 309.927 380.159 309.547 379.316 309.141C378.784 308.891 378.206 308.589 377.581 308.234C376.956 307.87 376.363 307.427 375.8 306.906C375.238 306.385 374.774 305.755 374.409 305.016C374.055 304.266 373.878 303.37 373.878 302.328C373.878 300.964 374.191 299.797 374.816 298.828C375.441 297.859 376.331 297.12 377.488 296.609C378.654 296.089 380.029 295.828 381.613 295.828C382.8 295.828 383.93 295.969 385.003 296.25C386.086 296.521 387.217 296.917 388.394 297.438L386.831 301.203C385.779 300.776 384.836 300.448 384.003 300.219C383.17 299.979 382.321 299.859 381.456 299.859C380.852 299.859 380.336 299.958 379.909 300.156C379.482 300.344 379.159 300.615 378.941 300.969C378.722 301.312 378.613 301.714 378.613 302.172C378.613 302.714 378.769 303.172 379.081 303.547C379.404 303.911 379.883 304.266 380.519 304.609C381.165 304.953 381.967 305.354 382.925 305.812C384.092 306.365 385.086 306.943 385.909 307.547C386.743 308.141 387.383 308.844 387.831 309.656C388.279 310.458 388.503 311.458 388.503 312.656ZM401.136 319H396.292V300.188H390.089V296.156H407.339V300.188H401.136V319ZM424.519 319L422.863 313.562H414.535L412.879 319H407.66L415.723 296.062H421.644L429.738 319H424.519ZM421.707 309.5L420.051 304.188C419.946 303.833 419.806 303.38 419.629 302.828C419.462 302.266 419.29 301.698 419.113 301.125C418.946 300.542 418.811 300.036 418.707 299.609C418.603 300.036 418.457 300.568 418.269 301.203C418.092 301.828 417.92 302.422 417.754 302.984C417.587 303.547 417.467 303.948 417.394 304.188L415.754 309.5H421.707ZM441.121 319H436.277V300.188H430.074V296.156H447.324V300.188H441.121V319ZM463.676 319H450.52V296.156H463.676V300.125H455.364V305.141H463.098V309.109H455.364V315H463.676V319Z" fill="#960D12"/>
<path d="M74.5 214L65 219.5L69.5 224H85.5L89.5 212L95 217.5V230L102.5 237L109 244.5H119.5V237L129 230L136 233L142.5 227L136 226V217.5L139 214H148.5L160 212L170 207L181.5 201L197 193L208.5 194.5L221 191L226 196L236 202.5L246 199.5L258 185.5L266.5 168.5L270 171L273 180L270 193L266.5 202.5L277 207L285.5 212V224V237L303 244.5H312L314.5 237L309 233V225H318.5L335 242H346L352.5 237V227L349.5 217.5L341 215.5L324 194.5L312 177V165L318.5 152.5L324 159L335 172V187.5L341 197.5L357.5 208L371 221.5L383.5 226L391.5 225L399 216.5L397 208L383.5 199.5L372.5 196L359 185.5L349.5 180L357.5 177L359 171L357.5 165L359 159L368 158L376.5 166.5L378 175.5L372.5 182.5L386 193L405.5 204.5L413.5 212L422.5 230L440 242L442 230L438 227L437 220.5L438 215.5L447.5 224L452.5 219L457.5 212L449.5 207L438 204.5V197.5H447.5L461.5 202.5L471 208H484L492.5 219L490 221.5L481 217.5L464 216.5L460.5 228L456 242L451 256.5L467.5 266.5L486.5 262.5L491.5 273.5H515L529.5 264.5L525 255.5L507.5 251.5V242L510 230H520L533 234L551 237L563.5 234L572 230L577 234L566 243.5V251.5L572 258.5L585.5 264.5L599.5 272.5L614.5 267.5L634 258.5V248L614.5 237L577 228L561.5 219L529.5 204.5L516.5 199.5H473.5L464 194.5L449.5 185.5H436H424.5L419 175.5V172L429.5 168.5L422.5 163.5L397 141L373.5 127L357 124L352.5 138.5L349 117.5L328.5 112H294L270 115.5L258 130L251.5 138.5L233.5 144.5V157V168.5L221 182.5L199.5 175.5L180 172L170 185.5L157.5 179L145.5 196L126 199.5H111.5H95H83L74.5 214Z" fill="#F4F4F4"/>
</svg>
