<svg width="649" height="348" viewBox="0 0 649 348" fill="none" xmlns="http://www.w3.org/2000/svg">
<rect width="649" height="348" rx="41" fill="#F4F4F4"/>
<rect x="21" y="12" width="607" height="54" fill="#0C3268"/>
<rect x="21" y="72" width="607" height="7" fill="#F9B643"/>
<rect x="21" y="299" width="607" height="12" fill="#F9B643"/>
<rect x="21" y="290" width="607" height="6" fill="#0A305F"/>
<rect x="21" y="314" width="607" height="6" fill="#0A305F"/>
<rect x="169" y="275" width="312" height="55" fill="#F4F4F4"/>
<path d="M199.328 52.144L190.832 23.584C190.608 22.848 190.368 22.32 190.112 22C189.856 21.648 189.408 21.328 188.768 21.04L188.192 20.8V20.32H200.912V20.8L199.904 21.184C199.168 21.472 198.672 21.824 198.416 22.24C198.16 22.656 198.144 23.232 198.368 23.968L203.6 43.936L209.264 27.184L208.16 23.776C207.936 23.104 207.728 22.592 207.536 22.24C207.344 21.888 207.024 21.6 206.576 21.376L205.52 20.8V20.32H217.568V20.8L216.08 21.376C215.44 21.6 215.072 21.936 214.976 22.384C214.912 22.8 214.992 23.344 215.216 24.016L221.312 44.416L227.072 24.4C227.296 23.632 227.376 22.96 227.312 22.384C227.248 21.808 226.848 21.392 226.112 21.136L225.104 20.8V20.32H231.776V20.8L230.528 21.28C229.888 21.504 229.44 21.856 229.184 22.336C228.928 22.816 228.704 23.408 228.512 24.112L220.544 52.144H217.232L210.032 29.584L202.64 52.144H199.328ZM240.137 28.192C242.217 28.192 243.993 28.624 245.465 29.488C246.937 30.32 248.057 31.472 248.825 32.944C249.625 34.384 250.025 36.032 250.025 37.888C250.025 38.24 250.009 38.608 249.977 38.992C249.945 39.344 249.881 39.664 249.785 39.952H235.481C235.513 43.408 236.121 45.904 237.305 47.44C238.521 48.944 240.313 49.696 242.681 49.696C244.281 49.696 245.577 49.44 246.569 48.928C247.561 48.416 248.489 47.664 249.353 46.672L249.833 47.104C248.841 48.864 247.513 50.24 245.849 51.232C244.217 52.224 242.249 52.72 239.945 52.72C237.673 52.72 235.657 52.24 233.897 51.28C232.137 50.288 230.761 48.88 229.769 47.056C228.777 45.232 228.281 43.056 228.281 40.528C228.281 37.904 228.857 35.68 230.009 33.856C231.161 32 232.633 30.592 234.425 29.632C236.249 28.672 238.153 28.192 240.137 28.192ZM239.993 29.152C239.065 29.152 238.265 29.44 237.593 30.016C236.953 30.56 236.441 31.552 236.057 32.992C235.705 34.4 235.513 36.4 235.481 38.992H243.689C244.009 35.504 243.881 32.992 243.305 31.456C242.729 29.92 241.625 29.152 239.993 29.152ZM260.242 52.72C258.674 52.72 257.266 52.528 256.018 52.144C254.77 51.792 253.618 51.344 252.562 50.8L252.61 45.088H253.09L254.722 47.968C255.426 49.248 256.194 50.208 257.026 50.848C257.89 51.456 258.978 51.76 260.29 51.76C261.826 51.76 263.058 51.424 263.986 50.752C264.946 50.048 265.426 49.12 265.426 47.968C265.426 46.912 265.09 46.048 264.418 45.376C263.746 44.704 262.498 44.096 260.674 43.552L258.658 42.928C256.706 42.352 255.17 41.456 254.05 40.24C252.93 39.024 252.37 37.536 252.37 35.776C252.37 33.664 253.202 31.872 254.866 30.4C256.53 28.928 258.914 28.192 262.018 28.192C263.266 28.192 264.434 28.336 265.522 28.624C266.642 28.88 267.714 29.28 268.738 29.824L268.45 35.008H267.97L266.29 32.032C265.682 30.976 265.074 30.24 264.466 29.824C263.89 29.376 263.01 29.152 261.826 29.152C260.738 29.152 259.714 29.456 258.754 30.064C257.794 30.672 257.314 31.536 257.314 32.656C257.314 33.744 257.714 34.608 258.514 35.248C259.346 35.888 260.562 36.48 262.162 37.024L264.322 37.648C266.626 38.352 268.274 39.328 269.266 40.576C270.258 41.792 270.754 43.264 270.754 44.992C270.754 47.328 269.826 49.2 267.97 50.608C266.146 52.016 263.57 52.72 260.242 52.72ZM281.484 52.72C279.436 52.72 277.836 52.208 276.684 51.184C275.564 50.16 275.004 48.528 275.004 46.288V29.872H271.692V29.392L272.844 29.2C273.836 28.976 274.684 28.656 275.388 28.24C276.124 27.824 276.844 27.264 277.548 26.56L281.484 22.192H281.964L281.82 28.912H287.196V29.872H281.772V47.152C281.772 48.272 282.012 49.12 282.492 49.696C283.004 50.272 283.644 50.56 284.412 50.56C285.084 50.56 285.676 50.4 286.188 50.08C286.7 49.728 287.212 49.264 287.724 48.688L288.204 49.168C287.564 50.256 286.684 51.12 285.564 51.76C284.444 52.4 283.084 52.72 281.484 52.72ZM310.701 52.144L300.429 23.536C300.205 22.896 299.901 22.4 299.517 22.048C299.165 21.664 298.669 21.376 298.029 21.184L296.877 20.8V20.32H310.701V20.8L309.213 21.232C308.477 21.424 308.061 21.76 307.965 22.24C307.901 22.72 307.981 23.312 308.205 24.016L315.309 45.088L322.461 23.968C322.717 23.232 322.829 22.624 322.797 22.144C322.797 21.664 322.429 21.328 321.693 21.136L320.445 20.8V20.32H327.165V20.8L325.869 21.184C325.261 21.344 324.829 21.632 324.573 22.048C324.317 22.432 324.077 22.944 323.853 23.584L314.253 52.144H310.701ZM331.902 25.696C330.814 25.696 329.886 25.36 329.118 24.688C328.382 23.984 328.014 23.104 328.014 22.048C328.014 20.96 328.382 20.08 329.118 19.408C329.886 18.736 330.814 18.4 331.902 18.4C332.99 18.4 333.902 18.736 334.638 19.408C335.374 20.08 335.742 20.96 335.742 22.048C335.742 23.104 335.374 23.984 334.638 24.688C333.902 25.36 332.99 25.696 331.902 25.696ZM326.238 52V51.52L326.91 51.328C327.55 51.136 327.982 50.848 328.206 50.464C328.462 50.08 328.59 49.568 328.59 48.928V33.904C328.59 33.232 328.462 32.736 328.206 32.416C327.982 32.064 327.55 31.824 326.91 31.696L326.238 31.552V31.072L335.022 28.24L335.502 28.72L335.358 35.536V48.976C335.358 49.616 335.47 50.128 335.694 50.512C335.95 50.896 336.382 51.184 336.99 51.376L337.47 51.52V52H326.238ZM339.116 52V51.52L339.836 51.328C340.476 51.136 340.908 50.848 341.132 50.464C341.388 50.08 341.516 49.584 341.516 48.976V33.952C341.516 33.248 341.388 32.736 341.132 32.416C340.908 32.064 340.476 31.824 339.836 31.696L339.116 31.504V31.024L347.372 28.24L347.852 28.72L348.284 32.848V33.232C348.732 32.336 349.308 31.52 350.012 30.784C350.748 30.016 351.548 29.392 352.412 28.912C353.308 28.432 354.188 28.192 355.052 28.192C356.268 28.192 357.196 28.528 357.836 29.2C358.476 29.872 358.796 30.72 358.796 31.744C358.796 32.832 358.476 33.68 357.836 34.288C357.228 34.864 356.492 35.152 355.628 35.152C354.284 35.152 353.1 34.48 352.076 33.136L351.98 33.04C351.66 32.592 351.292 32.352 350.876 32.32C350.46 32.256 350.076 32.448 349.724 32.896C349.404 33.184 349.132 33.536 348.908 33.952C348.716 34.336 348.524 34.784 348.332 35.296V48.688C348.332 49.968 348.892 50.768 350.012 51.088L351.548 51.52V52H339.116ZM369.537 43.696C367.329 43.696 365.457 43.328 363.921 42.592V44.224C363.921 45.216 364.417 45.808 365.409 46L374.433 47.68C375.937 47.968 377.297 48.352 378.513 48.832C379.729 49.28 380.705 49.936 381.441 50.8C382.177 51.632 382.545 52.784 382.545 54.256C382.545 55.824 382.033 57.264 381.009 58.576C379.985 59.92 378.465 60.992 376.449 61.792C374.465 62.624 371.985 63.04 369.009 63.04C366.449 63.04 364.417 62.768 362.913 62.224C361.409 61.712 360.337 61.04 359.697 60.208C359.089 59.376 358.785 58.496 358.785 57.568C358.785 56.416 359.169 55.248 359.937 54.064C360.737 52.912 361.713 51.984 362.865 51.28C361.873 50.896 361.153 50.4 360.705 49.792C360.257 49.184 360.033 48.528 360.033 47.824C360.033 47.184 360.193 46.592 360.513 46.048C360.865 45.472 361.281 44.896 361.761 44.32L363.345 42.304C361.009 40.96 359.841 38.848 359.841 35.968C359.841 33.664 360.657 31.792 362.289 30.352C363.953 28.912 366.385 28.192 369.585 28.192C371.217 28.192 372.641 28.384 373.857 28.768C375.105 29.152 376.129 29.696 376.929 30.4C377.953 30.24 378.913 29.984 379.809 29.632C380.737 29.248 381.569 28.736 382.305 28.096L382.977 28.576V31.024H377.553C378.705 32.304 379.281 33.952 379.281 35.968C379.281 38.208 378.449 40.064 376.785 41.536C375.153 42.976 372.737 43.696 369.537 43.696ZM369.489 42.736C370.769 42.736 371.697 42.208 372.273 41.152C372.881 40.096 373.185 38.336 373.185 35.872C373.185 33.408 372.881 31.68 372.273 30.688C371.697 29.664 370.801 29.152 369.585 29.152C368.401 29.152 367.505 29.68 366.897 30.736C366.289 31.76 365.985 33.504 365.985 35.968C365.985 38.432 366.257 40.176 366.801 41.2C367.377 42.224 368.273 42.736 369.489 42.736ZM362.337 56.032C362.337 57.92 362.913 59.344 364.065 60.304C365.249 61.264 367.105 61.744 369.633 61.744C372.289 61.744 374.289 61.312 375.633 60.448C376.977 59.584 377.649 58.368 377.649 56.8C377.649 55.904 377.313 55.184 376.641 54.64C376.001 54.096 374.897 53.68 373.329 53.392L364.641 51.76C364.385 51.696 364.129 51.632 363.873 51.568C363.425 52.208 363.057 52.928 362.769 53.728C362.481 54.56 362.337 55.328 362.337 56.032ZM389.853 25.696C388.765 25.696 387.837 25.36 387.069 24.688C386.333 23.984 385.965 23.104 385.965 22.048C385.965 20.96 386.333 20.08 387.069 19.408C387.837 18.736 388.765 18.4 389.853 18.4C390.941 18.4 391.853 18.736 392.589 19.408C393.325 20.08 393.693 20.96 393.693 22.048C393.693 23.104 393.325 23.984 392.589 24.688C391.853 25.36 390.941 25.696 389.853 25.696ZM384.189 52V51.52L384.861 51.328C385.501 51.136 385.933 50.848 386.157 50.464C386.413 50.08 386.541 49.568 386.541 48.928V33.904C386.541 33.232 386.413 32.736 386.157 32.416C385.933 32.064 385.501 31.824 384.861 31.696L384.189 31.552V31.072L392.973 28.24L393.453 28.72L393.309 35.536V48.976C393.309 49.616 393.421 50.128 393.645 50.512C393.901 50.896 394.333 51.184 394.941 51.376L395.421 51.52V52H384.189ZM397.066 52V51.52L397.738 51.328C398.858 51.008 399.418 50.224 399.418 48.976V33.952C399.418 33.248 399.306 32.736 399.082 32.416C398.858 32.064 398.426 31.824 397.786 31.696L397.066 31.504V31.024L405.274 28.24L405.754 28.72L406.138 31.6C407.258 30.608 408.522 29.792 409.93 29.152C411.338 28.512 412.73 28.192 414.106 28.192C416.218 28.192 417.834 28.768 418.954 29.92C420.106 31.072 420.682 32.832 420.682 35.2V49.024C420.682 50.272 421.29 51.056 422.506 51.376L422.938 51.52V52H411.61V51.52L412.234 51.328C413.354 50.976 413.914 50.192 413.914 48.976V33.664C413.914 31.616 412.89 30.592 410.842 30.592C409.434 30.592 407.898 31.296 406.234 32.704V49.024C406.234 50.272 406.794 51.056 407.914 51.376L408.346 51.52V52H397.066ZM430.096 25.696C429.008 25.696 428.08 25.36 427.312 24.688C426.576 23.984 426.208 23.104 426.208 22.048C426.208 20.96 426.576 20.08 427.312 19.408C428.08 18.736 429.008 18.4 430.096 18.4C431.184 18.4 432.096 18.736 432.832 19.408C433.568 20.08 433.936 20.96 433.936 22.048C433.936 23.104 433.568 23.984 432.832 24.688C432.096 25.36 431.184 25.696 430.096 25.696ZM424.432 52V51.52L425.104 51.328C425.744 51.136 426.176 50.848 426.4 50.464C426.656 50.08 426.784 49.568 426.784 48.928V33.904C426.784 33.232 426.656 32.736 426.4 32.416C426.176 32.064 425.744 31.824 425.104 31.696L424.432 31.552V31.072L433.216 28.24L433.696 28.72L433.552 35.536V48.976C433.552 49.616 433.664 50.128 433.888 50.512C434.144 50.896 434.576 51.184 435.184 51.376L435.664 51.52V52H424.432ZM444.317 52.72C442.461 52.72 440.893 52.192 439.613 51.136C438.365 50.08 437.741 48.56 437.741 46.576C437.741 45.072 438.509 43.696 440.045 42.448C441.581 41.168 443.997 40.208 447.293 39.568C447.805 39.472 448.381 39.376 449.021 39.28C449.661 39.152 450.333 39.024 451.037 38.896V35.104C451.037 32.928 450.765 31.408 450.221 30.544C449.709 29.648 448.893 29.2 447.773 29.2C447.005 29.2 446.397 29.456 445.949 29.968C445.501 30.448 445.213 31.296 445.085 32.512L444.989 33.04C444.925 34.416 444.589 35.424 443.981 36.064C443.373 36.704 442.621 37.024 441.725 37.024C440.893 37.024 440.205 36.768 439.661 36.256C439.117 35.744 438.845 35.056 438.845 34.192C438.845 32.88 439.293 31.776 440.189 30.88C441.117 29.984 442.333 29.312 443.837 28.864C445.341 28.416 446.973 28.192 448.733 28.192C451.581 28.192 453.773 28.896 455.309 30.304C456.877 31.68 457.661 33.936 457.661 37.072V47.68C457.661 49.12 458.333 49.84 459.677 49.84H460.733L461.165 50.224C460.557 50.992 459.885 51.584 459.149 52C458.445 52.416 457.437 52.624 456.125 52.624C454.717 52.624 453.597 52.304 452.765 51.664C451.965 50.992 451.437 50.112 451.181 49.024C450.221 50.048 449.229 50.928 448.205 51.664C447.213 52.368 445.917 52.72 444.317 52.72ZM447.245 49.792C447.885 49.792 448.477 49.648 449.021 49.36C449.597 49.04 450.269 48.56 451.037 47.92V39.856C450.717 39.92 450.397 39.984 450.077 40.048C449.757 40.112 449.389 40.176 448.973 40.24C447.501 40.624 446.317 41.28 445.421 42.208C444.557 43.104 444.125 44.32 444.125 45.856C444.125 47.168 444.429 48.16 445.037 48.832C445.645 49.472 446.381 49.792 447.245 49.792Z" fill="#F9B643"/>
<path d="M305 169L296 181V185L301 191L307 195.5H311L317 194.5L320.5 193L325 186L329.5 177L336.5 176L347 164H352L354 162.5L349.5 157L344.5 158.5L335 164L331 159H323.5L320.5 158.5L319 144L316 159L311.5 164L305 169Z" fill="#08315F" fill-opacity="0.2"/>
<path d="M196.44 317.12L189.36 293.32C189.173 292.707 188.973 292.267 188.76 292C188.547 291.707 188.173 291.44 187.64 291.2L187.16 291V290.6H197.76V291L196.92 291.32C196.307 291.56 195.893 291.853 195.68 292.2C195.467 292.547 195.453 293.027 195.64 293.64L200 310.28L204.72 296.32L203.8 293.48C203.613 292.92 203.44 292.493 203.28 292.2C203.12 291.907 202.853 291.667 202.48 291.48L201.6 291V290.6H211.64V291L210.4 291.48C209.867 291.667 209.56 291.947 209.48 292.32C209.427 292.667 209.493 293.12 209.68 293.68L214.76 310.68L219.56 294C219.747 293.36 219.813 292.8 219.76 292.32C219.707 291.84 219.373 291.493 218.76 291.28L217.92 291V290.6H223.48V291L222.44 291.4C221.907 291.587 221.533 291.88 221.32 292.28C221.107 292.68 220.92 293.173 220.76 293.76L214.12 317.12H211.36L205.36 298.32L199.2 317.12H196.44ZM228.186 295.08C227.279 295.08 226.506 294.8 225.866 294.24C225.253 293.653 224.946 292.92 224.946 292.04C224.946 291.133 225.253 290.4 225.866 289.84C226.506 289.28 227.279 289 228.186 289C229.093 289 229.853 289.28 230.466 289.84C231.079 290.4 231.386 291.133 231.386 292.04C231.386 292.92 231.079 293.653 230.466 294.24C229.853 294.8 229.093 295.08 228.186 295.08ZM223.466 317V316.6L224.026 316.44C224.559 316.28 224.919 316.04 225.106 315.72C225.319 315.4 225.426 314.973 225.426 314.44V301.92C225.426 301.36 225.319 300.947 225.106 300.68C224.919 300.387 224.559 300.187 224.026 300.08L223.466 299.96V299.56L230.786 297.2L231.186 297.6L231.066 303.28V314.48C231.066 315.013 231.159 315.44 231.346 315.76C231.559 316.08 231.919 316.32 232.426 316.48L232.826 316.6V317H223.466ZM234.717 317V316.6L235.197 316.44C236.157 316.12 236.637 315.453 236.637 314.44V293.04C236.637 292.507 236.53 292.107 236.317 291.84C236.104 291.547 235.73 291.333 235.197 291.2L234.677 291.08V290.68L241.997 288.96L242.477 289.32L242.317 294.92V308.6C242.317 309.587 242.317 310.573 242.317 311.56C242.344 312.52 242.357 313.48 242.357 314.44C242.357 314.973 242.464 315.413 242.677 315.76C242.89 316.08 243.25 316.32 243.757 316.48L244.277 316.6V317H234.717ZM254.522 317.6C252.949 317.6 251.536 317.253 250.282 316.56C249.029 315.84 248.029 314.747 247.282 313.28C246.562 311.787 246.202 309.88 246.202 307.56C246.202 305.213 246.616 303.28 247.442 301.76C248.269 300.213 249.362 299.067 250.722 298.32C252.082 297.547 253.562 297.16 255.162 297.16C256.096 297.16 256.989 297.253 257.842 297.44C258.696 297.627 259.456 297.907 260.122 298.28V293.08C260.122 292.52 260.029 292.107 259.842 291.84C259.682 291.573 259.322 291.387 258.762 291.28L258.002 291.12V290.72L265.282 288.96L265.722 289.32L265.562 294.92V314.48C265.562 315.013 265.656 315.453 265.842 315.8C266.029 316.12 266.376 316.347 266.882 316.48L267.242 316.6V317L260.402 317.44L260.042 316C259.322 316.48 258.496 316.867 257.562 317.16C256.656 317.453 255.642 317.6 254.522 317.6ZM256.842 316.12C257.962 316.12 258.989 315.787 259.922 315.12V299.24C258.936 298.6 257.922 298.28 256.882 298.28C255.602 298.28 254.509 299.027 253.602 300.52C252.696 301.987 252.242 304.307 252.242 307.48C252.242 310.653 252.669 312.893 253.522 314.2C254.376 315.48 255.482 316.12 256.842 316.12ZM285.385 317.12L278.305 293.32C278.119 292.707 277.919 292.267 277.705 292C277.492 291.707 277.119 291.44 276.585 291.2L276.105 291V290.6H286.705V291L285.865 291.32C285.252 291.56 284.839 291.853 284.625 292.2C284.412 292.547 284.399 293.027 284.585 293.64L288.945 310.28L293.665 296.32L292.745 293.48C292.559 292.92 292.385 292.493 292.225 292.2C292.065 291.907 291.799 291.667 291.425 291.48L290.545 291V290.6H300.585V291L299.345 291.48C298.812 291.667 298.505 291.947 298.425 292.32C298.372 292.667 298.439 293.12 298.625 293.68L303.705 310.68L308.505 294C308.692 293.36 308.759 292.8 308.705 292.32C308.652 291.84 308.319 291.493 307.705 291.28L306.865 291V290.6H312.425V291L311.385 291.4C310.852 291.587 310.479 291.88 310.265 292.28C310.052 292.68 309.865 293.173 309.705 293.76L303.065 317.12H300.305L294.305 298.32L288.145 317.12H285.385ZM319.873 317.6C317.846 317.6 316.086 317.187 314.593 316.36C313.1 315.507 311.94 314.307 311.113 312.76C310.313 311.213 309.913 309.4 309.913 307.32C309.913 305.24 310.34 303.44 311.193 301.92C312.073 300.4 313.26 299.227 314.753 298.4C316.273 297.573 317.98 297.16 319.873 297.16C321.766 297.16 323.46 297.573 324.953 298.4C326.446 299.2 327.62 300.36 328.473 301.88C329.353 303.4 329.793 305.213 329.793 307.32C329.793 309.427 329.38 311.253 328.553 312.8C327.753 314.32 326.606 315.507 325.113 316.36C323.646 317.187 321.9 317.6 319.873 317.6ZM319.873 316.8C320.806 316.8 321.553 316.533 322.113 316C322.673 315.467 323.073 314.52 323.313 313.16C323.58 311.8 323.713 309.88 323.713 307.4C323.713 304.893 323.58 302.96 323.313 301.6C323.073 300.24 322.673 299.293 322.113 298.76C321.553 298.227 320.806 297.96 319.873 297.96C318.94 297.96 318.18 298.227 317.593 298.76C317.033 299.293 316.62 300.24 316.353 301.6C316.113 302.96 315.993 304.893 315.993 307.4C315.993 309.88 316.113 311.8 316.353 313.16C316.62 314.52 317.033 315.467 317.593 316C318.18 316.533 318.94 316.8 319.873 316.8ZM331.55 317V316.6L332.11 316.44C333.043 316.173 333.51 315.52 333.51 314.48V301.96C333.51 301.373 333.417 300.947 333.23 300.68C333.043 300.387 332.683 300.187 332.15 300.08L331.55 299.92V299.52L338.39 297.2L338.79 297.6L339.11 300C340.043 299.173 341.097 298.493 342.27 297.96C343.443 297.427 344.603 297.16 345.75 297.16C347.51 297.16 348.857 297.64 349.79 298.6C350.75 299.56 351.23 301.027 351.23 303V314.52C351.23 315.56 351.737 316.213 352.75 316.48L353.11 316.6V317H343.67V316.6L344.19 316.44C345.123 316.147 345.59 315.493 345.59 314.48V301.72C345.59 300.013 344.737 299.16 343.03 299.16C341.857 299.16 340.577 299.747 339.19 300.92V314.52C339.19 315.56 339.657 316.213 340.59 316.48L340.95 316.6V317H331.55ZM363.155 317.6C361.582 317.6 360.168 317.253 358.915 316.56C357.662 315.84 356.662 314.747 355.915 313.28C355.195 311.787 354.835 309.88 354.835 307.56C354.835 305.213 355.248 303.28 356.075 301.76C356.902 300.213 357.995 299.067 359.355 298.32C360.715 297.547 362.195 297.16 363.795 297.16C364.728 297.16 365.622 297.253 366.475 297.44C367.328 297.627 368.088 297.907 368.755 298.28V293.08C368.755 292.52 368.662 292.107 368.475 291.84C368.315 291.573 367.955 291.387 367.395 291.28L366.635 291.12V290.72L373.915 288.96L374.355 289.32L374.195 294.92V314.48C374.195 315.013 374.288 315.453 374.475 315.8C374.662 316.12 375.008 316.347 375.515 316.48L375.875 316.6V317L369.035 317.44L368.675 316C367.955 316.48 367.128 316.867 366.195 317.16C365.288 317.453 364.275 317.6 363.155 317.6ZM365.475 316.12C366.595 316.12 367.622 315.787 368.555 315.12V299.24C367.568 298.6 366.555 298.28 365.515 298.28C364.235 298.28 363.142 299.027 362.235 300.52C361.328 301.987 360.875 304.307 360.875 307.48C360.875 310.653 361.302 312.893 362.155 314.2C363.008 315.48 364.115 316.12 365.475 316.12ZM387.684 297.16C389.417 297.16 390.897 297.52 392.124 298.24C393.35 298.933 394.284 299.893 394.924 301.12C395.59 302.32 395.924 303.693 395.924 305.24C395.924 305.533 395.91 305.84 395.884 306.16C395.857 306.453 395.804 306.72 395.724 306.96H383.804C383.83 309.84 384.337 311.92 385.324 313.2C386.337 314.453 387.83 315.08 389.804 315.08C391.137 315.08 392.217 314.867 393.044 314.44C393.87 314.013 394.644 313.387 395.364 312.56L395.764 312.92C394.937 314.387 393.83 315.533 392.444 316.36C391.084 317.187 389.444 317.6 387.524 317.6C385.63 317.6 383.95 317.2 382.484 316.4C381.017 315.573 379.87 314.4 379.044 312.88C378.217 311.36 377.804 309.547 377.804 307.44C377.804 305.253 378.284 303.4 379.244 301.88C380.204 300.333 381.43 299.16 382.924 298.36C384.444 297.56 386.03 297.16 387.684 297.16ZM387.564 297.96C386.79 297.96 386.124 298.2 385.564 298.68C385.03 299.133 384.604 299.96 384.284 301.16C383.99 302.333 383.83 304 383.804 306.16H390.644C390.91 303.253 390.804 301.16 390.324 299.88C389.844 298.6 388.924 297.96 387.564 297.96ZM397.917 317V316.6L398.517 316.44C399.051 316.28 399.411 316.04 399.597 315.72C399.811 315.4 399.917 314.987 399.917 314.48V301.96C399.917 301.373 399.811 300.947 399.597 300.68C399.411 300.387 399.051 300.187 398.517 300.08L397.917 299.92V299.52L404.797 297.2L405.197 297.6L405.557 301.04V301.36C405.931 300.613 406.411 299.933 406.997 299.32C407.611 298.68 408.277 298.16 408.997 297.76C409.744 297.36 410.477 297.16 411.197 297.16C412.211 297.16 412.984 297.44 413.517 298C414.051 298.56 414.317 299.267 414.317 300.12C414.317 301.027 414.051 301.733 413.517 302.24C413.011 302.72 412.397 302.96 411.677 302.96C410.557 302.96 409.571 302.4 408.717 301.28L408.637 301.2C408.371 300.827 408.064 300.627 407.717 300.6C407.371 300.547 407.051 300.707 406.757 301.08C406.491 301.32 406.264 301.613 406.077 301.96C405.917 302.28 405.757 302.653 405.597 303.08V314.24C405.597 315.307 406.064 315.973 406.997 316.24L408.277 316.6V317H397.917ZM415.653 317V316.6L416.173 316.48C416.68 316.347 417.08 316.12 417.373 315.8C417.667 315.453 417.813 315.013 417.813 314.48C417.813 313.493 417.813 312.52 417.813 311.56C417.84 310.573 417.853 309.587 417.853 308.6V298.56H415.613V298.12L416.493 297.96C417.027 297.907 417.413 297.72 417.653 297.4C417.893 297.08 418.067 296.64 418.173 296.08C418.44 295.04 418.827 294.133 419.333 293.36C419.867 292.56 420.467 291.827 421.133 291.16C422.147 290.2 423.213 289.533 424.333 289.16C425.48 288.76 426.6 288.56 427.693 288.56C428.76 288.56 429.733 288.787 430.613 289.24C431.493 289.667 431.933 290.387 431.933 291.4C431.933 292.12 431.72 292.693 431.293 293.12C430.867 293.52 430.267 293.72 429.493 293.72C428.853 293.72 428.267 293.547 427.733 293.2C427.2 292.853 426.68 292.24 426.173 291.36L425.613 290.68C425.32 290.307 425.027 290.133 424.733 290.16C424.44 290.16 424.227 290.373 424.093 290.8C423.907 291.733 423.76 292.827 423.653 294.08C423.573 295.333 423.533 296.56 423.533 297.76H428.013V298.56H423.533V314.4C423.533 315.413 424.067 316.067 425.133 316.36L426.133 316.6V317H415.653ZM436.251 317.6C435.211 317.6 434.251 317.4 433.371 317C432.518 316.6 431.838 315.96 431.331 315.08C430.851 314.173 430.624 312.987 430.651 311.52L430.771 301.24C430.771 300.627 430.664 300.187 430.451 299.92C430.238 299.653 429.904 299.467 429.451 299.36L428.971 299.2V298.8L436.131 297.4L436.531 297.8L436.331 303.48V313.12C436.331 313.973 436.571 314.6 437.051 315C437.558 315.4 438.184 315.6 438.931 315.6C439.678 315.6 440.344 315.493 440.931 315.28C441.518 315.067 442.104 314.747 442.691 314.32L442.851 301.28C442.851 300.667 442.758 300.24 442.571 300C442.384 299.733 442.038 299.547 441.531 299.44L441.131 299.32V298.92L448.131 297.4L448.531 297.8L448.411 303.48V314.32C448.411 314.907 448.491 315.36 448.651 315.68C448.811 316 449.158 316.267 449.691 316.48L450.091 316.6V317L443.091 317.4L442.731 315.04C441.851 315.76 440.891 316.373 439.851 316.88C438.838 317.36 437.638 317.6 436.251 317.6ZM451.826 317V316.6L452.306 316.44C453.266 316.12 453.746 315.453 453.746 314.44V293.04C453.746 292.507 453.64 292.107 453.426 291.84C453.213 291.547 452.84 291.333 452.306 291.2L451.786 291.08V290.68L459.106 288.96L459.586 289.32L459.426 294.92V308.6C459.426 309.587 459.426 310.573 459.426 311.56C459.453 312.52 459.466 313.48 459.466 314.44C459.466 314.973 459.573 315.413 459.786 315.76C460 316.08 460.36 316.32 460.866 316.48L461.386 316.6V317H451.826Z" fill="#0A305F"/>
</svg>
