<svg width="649" height="348" viewBox="0 0 649 348" fill="none" xmlns="http://www.w3.org/2000/svg">
<rect width="649" height="348" rx="41" fill="#F4F4F4"/>
<path d="M40.66 64C40.1 64 39.78 63.7 39.7 63.1L35.86 25.6C35.82 25 36.08 24.7 36.64 24.7H45.64C45.96 24.7 46.18 24.78 46.3 24.94C46.42 25.06 46.5 25.28 46.54 25.6L47.44 40.72C47.56 42.8 47.62 44.88 47.62 46.96C47.62 49 47.56 51.06 47.44 53.14H47.62C48.22 51.7 48.84 50.26 49.48 48.82C50.12 47.34 50.78 45.9 51.46 44.5L56.74 33.76L55.54 26.74C55.42 26.14 55.68 25.84 56.32 25.84H65.26C65.54 25.84 65.74 25.92 65.86 26.08C66.02 26.2 66.12 26.42 66.16 26.74L67.96 43.78C68.12 45.34 68.22 46.9 68.26 48.46C68.34 50.02 68.4 51.58 68.44 53.14H68.56C68.96 51.7 69.42 50 69.94 48.04C70.46 46.08 71.02 44.12 71.62 42.16C72.22 40.2 72.78 38.52 73.3 37.12L77.62 25.6C77.7 25.32 77.84 25.1 78.04 24.94C78.28 24.78 78.54 24.7 78.82 24.7H88.42C88.66 24.7 88.8 24.8 88.84 25C88.92 25.16 88.92 25.36 88.84 25.6L73.54 63.1C73.42 63.38 73.26 63.6 73.06 63.76C72.9 63.92 72.7 64 72.46 64H62.26C61.7 64 61.38 63.7 61.3 63.1L60.34 54.16C60.18 52.64 60.02 51.12 59.86 49.6C59.74 48.08 59.62 46.58 59.5 45.1H59.32C58.68 46.62 58.04 48.14 57.4 49.66C56.8 51.14 56.14 52.64 55.42 54.16L51.28 63.1C51 63.7 50.64 64 50.2 64H40.66ZM85.0206 64C84.3806 64 84.1006 63.7 84.1806 63.1L90.1206 25.6C90.2006 25 90.5006 24.7 91.0206 24.7H100.141C100.781 24.7 101.061 25 100.981 25.6L95.0406 63.1C94.9606 63.7 94.6606 64 94.1406 64H85.0206ZM113.173 64.72C109.453 64.72 106.453 64.26 104.173 63.34C101.893 62.42 100.333 61.02 99.4928 59.14C98.6528 57.26 98.5128 54.9 99.0728 52.06C99.1928 51.46 99.4928 51.16 99.9728 51.16H108.913C109.193 51.16 109.413 51.24 109.573 51.4C109.733 51.56 109.793 51.78 109.753 52.06C109.673 52.78 109.773 53.38 110.053 53.86C110.373 54.34 110.853 54.7 111.493 54.94C112.173 55.18 113.053 55.3 114.133 55.3C115.653 55.3 116.753 55.14 117.433 54.82C118.113 54.46 118.453 53.9 118.453 53.14C118.453 52.78 118.353 52.44 118.153 52.12C117.993 51.8 117.713 51.48 117.313 51.16C116.953 50.84 116.433 50.52 115.753 50.2L109.033 46.84C107.353 46 105.973 45.1 104.893 44.14C103.853 43.14 103.073 42 102.553 40.72C102.073 39.44 101.833 37.96 101.833 36.28C101.833 32.52 103.153 29.54 105.793 27.34C108.473 25.1 112.173 23.98 116.893 23.98C120.613 23.98 123.613 24.46 125.893 25.42C128.173 26.34 129.753 27.72 130.633 29.56C131.553 31.4 131.773 33.66 131.293 36.34C131.173 36.94 130.873 37.24 130.393 37.24H121.453C120.813 37.24 120.533 36.94 120.613 36.34C120.733 35.26 120.433 34.46 119.713 33.94C119.033 33.42 117.953 33.16 116.473 33.16C115.353 33.16 114.473 33.36 113.833 33.76C113.233 34.12 112.933 34.64 112.933 35.32C112.933 35.72 113.013 36.08 113.173 36.4C113.333 36.68 113.613 36.96 114.013 37.24C114.413 37.52 114.973 37.86 115.693 38.26L123.193 42.16C124.713 42.96 125.933 43.82 126.853 44.74C127.813 45.66 128.513 46.72 128.953 47.92C129.393 49.08 129.613 50.46 129.613 52.06C129.613 56.26 128.233 59.42 125.473 61.54C122.753 63.66 118.653 64.72 113.173 64.72ZM147.343 64.72C141.463 64.72 137.183 63.24 134.503 60.28C131.823 57.28 130.903 53.12 131.743 47.8L133.063 39.46C133.903 34.18 135.843 30.28 138.883 27.76C141.963 25.24 146.243 23.98 151.723 23.98C155.483 23.98 158.623 24.6 161.143 25.84C163.703 27.08 165.523 28.82 166.603 31.06C167.723 33.3 167.963 35.9 167.323 38.86C167.203 39.46 166.903 39.76 166.423 39.76H157.243C156.643 39.76 156.363 39.46 156.403 38.86C156.603 37.22 156.223 35.96 155.263 35.08C154.343 34.16 152.843 33.7 150.763 33.7C148.723 33.7 147.143 34.24 146.023 35.32C144.903 36.4 144.163 38.06 143.803 40.3L142.663 47.5C142.263 50.06 142.543 51.96 143.503 53.2C144.463 54.4 146.103 55 148.423 55C150.343 55 151.823 54.58 152.863 53.74C153.903 52.86 154.503 51.56 154.663 49.84C154.743 49.24 155.043 48.94 155.563 48.94H164.743C165.423 48.94 165.723 49.24 165.643 49.84C165.443 53.12 164.603 55.86 163.123 58.06C161.683 60.26 159.643 61.92 157.003 63.04C154.363 64.16 151.143 64.72 147.343 64.72ZM183.555 64.72C177.715 64.72 173.435 63.28 170.715 60.4C168.035 57.48 167.135 53.34 168.015 47.98L169.395 39.4C170.235 34.08 172.195 30.18 175.275 27.7C178.355 25.22 182.675 23.98 188.235 23.98C194.075 23.98 198.355 25.42 201.075 28.3C203.795 31.18 204.715 35.3 203.835 40.66L202.455 49.3C201.615 54.62 199.655 58.52 196.575 61C193.495 63.48 189.155 64.72 183.555 64.72ZM184.755 55C186.795 55.04 188.375 54.52 189.495 53.44C190.615 52.36 191.355 50.68 191.715 48.4L192.855 41.2C193.255 38.68 192.975 36.82 192.015 35.62C191.095 34.38 189.455 33.74 187.095 33.7C185.055 33.66 183.475 34.18 182.355 35.26C181.235 36.34 180.495 38.02 180.135 40.3L178.995 47.5C178.595 50.02 178.855 51.9 179.775 53.14C180.735 54.34 182.395 54.96 184.755 55ZM204.151 64C203.511 64 203.231 63.7 203.311 63.1L209.251 25.6C209.331 25 209.631 24.7 210.151 24.7H221.011C221.371 24.7 221.631 24.78 221.791 24.94C221.951 25.06 222.071 25.28 222.151 25.6L225.871 36.1C226.671 38.38 227.391 40.68 228.031 43C228.671 45.28 229.211 47.3 229.651 49.06H229.891C229.931 47.82 229.971 46.58 230.011 45.34C230.091 44.1 230.191 42.86 230.311 41.62C230.431 40.38 230.591 39.14 230.791 37.9L232.771 25.6C232.851 25 233.151 24.7 233.671 24.7H242.431C243.071 24.7 243.351 25 243.271 25.6L237.331 63.1C237.251 63.7 236.931 64 236.371 64H225.451C224.971 64 224.631 63.7 224.431 63.1L221.311 54.28C220.391 51.68 219.571 49.14 218.851 46.66C218.171 44.14 217.611 41.98 217.171 40.18H216.931C216.851 41.42 216.751 42.68 216.631 43.96C216.511 45.2 216.371 46.46 216.211 47.74C216.051 48.98 215.871 50.24 215.671 51.52L213.811 63.1C213.731 63.7 213.431 64 212.911 64H204.151ZM255.448 64.72C251.728 64.72 248.728 64.26 246.448 63.34C244.168 62.42 242.608 61.02 241.768 59.14C240.928 57.26 240.788 54.9 241.348 52.06C241.468 51.46 241.768 51.16 242.248 51.16H251.188C251.468 51.16 251.688 51.24 251.848 51.4C252.008 51.56 252.068 51.78 252.028 52.06C251.948 52.78 252.048 53.38 252.328 53.86C252.648 54.34 253.128 54.7 253.768 54.94C254.448 55.18 255.328 55.3 256.408 55.3C257.928 55.3 259.028 55.14 259.708 54.82C260.388 54.46 260.728 53.9 260.728 53.14C260.728 52.78 260.628 52.44 260.428 52.12C260.268 51.8 259.988 51.48 259.588 51.16C259.228 50.84 258.708 50.52 258.028 50.2L251.308 46.84C249.628 46 248.248 45.1 247.168 44.14C246.128 43.14 245.348 42 244.828 40.72C244.348 39.44 244.108 37.96 244.108 36.28C244.108 32.52 245.428 29.54 248.068 27.34C250.748 25.1 254.448 23.98 259.168 23.98C262.888 23.98 265.888 24.46 268.168 25.42C270.448 26.34 272.028 27.72 272.908 29.56C273.828 31.4 274.048 33.66 273.568 36.34C273.448 36.94 273.148 37.24 272.668 37.24H263.728C263.088 37.24 262.808 36.94 262.888 36.34C263.008 35.26 262.708 34.46 261.988 33.94C261.308 33.42 260.228 33.16 258.748 33.16C257.628 33.16 256.748 33.36 256.108 33.76C255.508 34.12 255.208 34.64 255.208 35.32C255.208 35.72 255.288 36.08 255.448 36.4C255.608 36.68 255.888 36.96 256.288 37.24C256.688 37.52 257.248 37.86 257.968 38.26L265.468 42.16C266.988 42.96 268.208 43.82 269.128 44.74C270.088 45.66 270.788 46.72 271.228 47.92C271.668 49.08 271.888 50.46 271.888 52.06C271.888 56.26 270.508 59.42 267.748 61.54C265.028 63.66 260.928 64.72 255.448 64.72ZM273.531 64C272.891 64 272.611 63.7 272.691 63.1L278.631 25.6C278.711 25 279.011 24.7 279.531 24.7H288.651C289.291 24.7 289.571 25 289.491 25.6L283.551 63.1C283.471 63.7 283.171 64 282.651 64H273.531ZM288.123 64C287.483 64 287.203 63.7 287.283 63.1L293.223 25.6C293.303 25 293.603 24.7 294.123 24.7H304.983C305.343 24.7 305.603 24.78 305.763 24.94C305.923 25.06 306.043 25.28 306.123 25.6L309.843 36.1C310.643 38.38 311.363 40.68 312.003 43C312.643 45.28 313.183 47.3 313.623 49.06H313.863C313.903 47.82 313.943 46.58 313.983 45.34C314.063 44.1 314.163 42.86 314.283 41.62C314.403 40.38 314.563 39.14 314.763 37.9L316.743 25.6C316.823 25 317.123 24.7 317.643 24.7H326.403C327.043 24.7 327.323 25 327.243 25.6L321.303 63.1C321.223 63.7 320.903 64 320.343 64H309.423C308.943 64 308.603 63.7 308.403 63.1L305.283 54.28C304.363 51.68 303.543 49.14 302.823 46.66C302.143 44.14 301.583 41.98 301.143 40.18H300.903C300.823 41.42 300.723 42.68 300.603 43.96C300.483 45.2 300.343 46.46 300.183 47.74C300.023 48.98 299.843 50.24 299.643 51.52L297.783 63.1C297.703 63.7 297.403 64 296.883 64H288.123Z" fill="#D41046"/>
<path d="M158.1 322C157.956 322 157.86 321.952 157.812 321.856C157.764 321.736 157.776 321.604 157.848 321.46L168.648 298.96C168.816 298.6 169.032 298.42 169.296 298.42H176.424C176.736 298.42 176.928 298.6 177 298.96L180.636 321.46C180.684 321.628 180.66 321.76 180.564 321.856C180.468 321.952 180.336 322 180.168 322H174.156C173.844 322 173.664 321.82 173.616 321.46L172.428 309.4C172.332 308.488 172.248 307.588 172.176 306.7C172.128 305.788 172.092 304.888 172.068 304H171.96C171.672 304.912 171.348 305.824 170.988 306.736C170.652 307.648 170.292 308.56 169.908 309.472L164.976 321.46C164.904 321.628 164.808 321.76 164.688 321.856C164.568 321.952 164.424 322 164.256 322H158.1ZM165.408 318.148L167.172 312.964H173.832L174.048 318.148H165.408ZM183.189 322C182.805 322 182.637 321.82 182.685 321.46L184.701 308.716C184.821 307.924 184.929 307.192 185.025 306.52C185.145 305.824 185.205 305.164 185.205 304.54C185.205 304.18 185.385 304 185.745 304H190.245C190.413 304 190.533 304.048 190.605 304.144C190.701 304.216 190.761 304.348 190.785 304.54C190.833 304.828 190.845 305.14 190.821 305.476C190.821 305.812 190.809 306.16 190.785 306.52C191.505 305.824 192.357 305.164 193.341 304.54C194.325 303.892 195.465 303.568 196.761 303.568C198.009 303.568 198.945 303.808 199.569 304.288C200.193 304.744 200.589 305.428 200.757 306.34C201.453 305.692 202.329 305.068 203.385 304.468C204.465 303.868 205.629 303.568 206.877 303.568C208.509 303.568 209.661 304.048 210.333 305.008C211.029 305.944 211.209 307.492 210.873 309.652L209.037 321.46C208.989 321.82 208.809 322 208.497 322H203.169C202.785 322 202.617 321.82 202.665 321.46L204.321 311.056C204.441 310.432 204.393 309.952 204.177 309.616C203.985 309.28 203.613 309.112 203.061 309.112C202.629 309.112 202.221 309.22 201.837 309.436C201.453 309.628 201.117 309.856 200.829 310.12L199.029 321.46C199.005 321.628 198.957 321.76 198.885 321.856C198.813 321.952 198.681 322 198.489 322H193.161C192.777 322 192.609 321.82 192.657 321.46L194.313 311.056C194.433 310.432 194.385 309.952 194.169 309.616C193.977 309.28 193.605 309.112 193.053 309.112C192.669 309.112 192.285 309.208 191.901 309.4C191.541 309.592 191.193 309.808 190.857 310.048L189.057 321.46C189.033 321.628 188.985 321.76 188.913 321.856C188.841 321.952 188.709 322 188.517 322H183.189ZM220.861 322.432C218.029 322.432 215.941 321.7 214.597 320.236C213.277 318.772 212.845 316.72 213.301 314.08L213.877 310.768C214.285 308.344 215.269 306.544 216.829 305.368C218.389 304.168 220.513 303.568 223.201 303.568C225.745 303.568 227.713 303.988 229.105 304.828C230.497 305.668 231.193 306.856 231.193 308.392C231.193 310.36 230.617 311.812 229.465 312.748C228.313 313.684 226.333 314.284 223.525 314.548L219.457 314.944L219.421 315.16C219.277 316.048 219.361 316.708 219.673 317.14C220.009 317.548 220.561 317.752 221.329 317.752C222.001 317.752 222.541 317.656 222.949 317.464C223.357 317.248 223.573 316.948 223.597 316.564C223.645 316.204 223.825 316.024 224.137 316.024H229.177C229.561 316.024 229.729 316.204 229.681 316.564C229.489 317.884 229.033 318.976 228.313 319.84C227.617 320.704 226.645 321.352 225.397 321.784C224.173 322.216 222.661 322.432 220.861 322.432ZM219.997 311.416L222.481 311.164C223.273 311.068 223.837 310.888 224.173 310.624C224.533 310.36 224.713 309.988 224.713 309.508C224.713 309.076 224.569 308.764 224.281 308.572C224.017 308.38 223.561 308.284 222.913 308.284C222.097 308.284 221.449 308.488 220.969 308.896C220.513 309.28 220.225 309.892 220.105 310.732L219.997 311.416ZM232.925 322C232.541 322 232.373 321.82 232.421 321.46L234.437 308.716C234.557 307.924 234.653 307.192 234.725 306.52C234.821 305.824 234.893 305.164 234.941 304.54C234.941 304.18 235.121 304 235.481 304H239.981C240.149 304 240.269 304.048 240.341 304.144C240.437 304.216 240.497 304.348 240.521 304.54C240.569 304.924 240.581 305.344 240.557 305.8C240.533 306.232 240.497 306.688 240.449 307.168L240.665 309.58L238.793 321.46C238.769 321.628 238.721 321.76 238.649 321.856C238.577 321.952 238.445 322 238.253 322H232.925ZM239.873 312.208L240.233 307.096C240.785 306.424 241.325 305.824 241.853 305.296C242.405 304.768 242.993 304.348 243.617 304.036C244.265 303.724 244.985 303.568 245.777 303.568C246.329 303.568 246.713 303.616 246.929 303.712C247.097 303.784 247.193 303.868 247.217 303.964C247.241 304.06 247.241 304.192 247.217 304.36C247.121 305.056 246.989 305.872 246.821 306.808C246.653 307.744 246.473 308.596 246.281 309.364C246.185 309.7 245.993 309.856 245.705 309.832C245.561 309.808 245.393 309.784 245.201 309.76C245.009 309.736 244.769 309.724 244.481 309.724C244.121 309.724 243.665 309.808 243.113 309.976C242.585 310.144 242.033 310.408 241.457 310.768C240.905 311.128 240.377 311.608 239.873 312.208ZM247.211 322C246.827 322 246.659 321.82 246.707 321.46L249.407 304.54C249.479 304.18 249.659 304 249.947 304H255.275C255.443 304 255.575 304.048 255.671 304.144C255.767 304.216 255.791 304.348 255.743 304.54L253.079 321.46C253.055 321.628 252.995 321.76 252.899 321.856C252.827 321.952 252.707 322 252.539 322H247.211ZM253.223 302.2C252.167 302.2 251.351 301.948 250.775 301.444C250.223 300.94 250.007 300.208 250.127 299.248L250.235 298.456C250.355 297.52 250.715 296.8 251.315 296.296C251.915 295.768 252.731 295.504 253.763 295.504C254.819 295.504 255.623 295.756 256.175 296.26C256.751 296.764 256.979 297.496 256.859 298.456L256.751 299.248C256.631 300.184 256.271 300.916 255.671 301.444C255.071 301.948 254.255 302.2 253.223 302.2ZM265.347 322.432C262.347 322.432 260.151 321.712 258.759 320.272C257.367 318.808 256.875 316.828 257.283 314.332L257.823 311.056C258.255 308.488 259.239 306.604 260.775 305.404C262.311 304.18 264.435 303.568 267.147 303.568C269.091 303.568 270.675 303.904 271.899 304.576C273.123 305.224 273.975 306.1 274.455 307.204C274.959 308.308 275.067 309.544 274.779 310.912C274.707 311.272 274.527 311.452 274.239 311.452H269.415C269.031 311.452 268.863 311.272 268.911 310.912C268.983 310.288 268.815 309.82 268.407 309.508C268.023 309.172 267.459 309.004 266.715 309.004C265.899 309.004 265.299 309.22 264.915 309.652C264.531 310.06 264.243 310.792 264.051 311.848L263.691 314.08C263.523 315.112 263.607 315.856 263.943 316.312C264.303 316.768 264.927 316.996 265.815 316.996C266.583 316.996 267.147 316.828 267.507 316.492C267.891 316.132 268.131 315.652 268.227 315.052C268.275 314.692 268.455 314.512 268.767 314.512H273.591C273.999 314.512 274.179 314.692 274.131 315.052C273.915 317.452 273.027 319.288 271.467 320.56C269.907 321.808 267.867 322.432 265.347 322.432ZM280.727 322.432C279.599 322.432 278.699 322.192 278.027 321.712C277.379 321.232 276.947 320.536 276.731 319.624C276.515 318.688 276.515 317.56 276.731 316.24L277.595 310.876C278.003 308.332 278.903 306.484 280.295 305.332C281.687 304.156 283.763 303.568 286.523 303.568C288.275 303.568 289.835 303.676 291.203 303.892C292.595 304.108 294.011 304.264 295.451 304.36L293.363 317.284C293.243 318.076 293.147 318.82 293.075 319.516C293.003 320.188 292.943 320.836 292.895 321.46C292.871 321.82 292.691 322 292.355 322H287.855C287.543 322 287.363 321.82 287.315 321.46C287.291 321.172 287.279 320.86 287.279 320.524C287.279 320.188 287.291 319.852 287.315 319.516C286.331 320.452 285.251 321.172 284.075 321.676C282.923 322.18 281.807 322.432 280.727 322.432ZM284.651 316.888C285.131 316.888 285.575 316.792 285.983 316.6C286.415 316.384 286.847 316.12 287.279 315.808L288.359 308.968C288.095 308.92 287.783 308.872 287.423 308.824C287.087 308.776 286.679 308.752 286.199 308.752C285.503 308.752 284.963 308.968 284.579 309.4C284.219 309.808 283.979 310.444 283.859 311.308L283.319 314.872C283.223 315.544 283.283 316.048 283.499 316.384C283.715 316.72 284.099 316.888 284.651 316.888ZM298.56 311.452C298.224 311.452 298.104 311.26 298.2 310.876L302.016 298.924C302.112 298.588 302.328 298.42 302.664 298.42H309.036C309.228 298.42 309.36 298.48 309.432 298.6C309.528 298.72 309.516 298.888 309.396 299.104L303.924 310.984C303.876 311.128 303.792 311.248 303.672 311.344C303.552 311.416 303.408 311.452 303.24 311.452H298.56ZM315.068 322.432C313.196 322.432 311.696 322.228 310.568 321.82C309.44 321.388 308.648 320.74 308.192 319.876C307.76 319.012 307.652 317.908 307.868 316.564C307.94 316.204 308.12 316.024 308.408 316.024H313.232C313.4 316.024 313.52 316.072 313.592 316.168C313.688 316.264 313.724 316.396 313.7 316.564C313.652 317.116 313.736 317.524 313.952 317.788C314.168 318.028 314.552 318.148 315.104 318.148C315.632 318.148 316.028 318.064 316.292 317.896C316.556 317.704 316.688 317.428 316.688 317.068C316.688 316.804 316.592 316.576 316.4 316.384C316.232 316.168 315.92 315.94 315.464 315.7L311.864 313.72C310.952 313.216 310.244 312.604 309.74 311.884C309.26 311.164 309.02 310.36 309.02 309.472C309.02 307.552 309.656 306.088 310.928 305.08C312.224 304.072 314.144 303.568 316.688 303.568C319.328 303.568 321.248 304.024 322.448 304.936C323.672 305.824 324.188 307.192 323.996 309.04C323.972 309.4 323.792 309.58 323.456 309.58H318.632C318.32 309.58 318.164 309.4 318.164 309.04C318.188 308.632 318.08 308.332 317.84 308.14C317.6 307.948 317.24 307.852 316.76 307.852C316.352 307.852 316.028 307.936 315.788 308.104C315.572 308.248 315.464 308.464 315.464 308.752C315.464 309.04 315.596 309.292 315.86 309.508C316.148 309.7 316.568 309.94 317.12 310.228L320.108 311.812C321.164 312.364 321.932 312.988 322.412 313.684C322.916 314.356 323.168 315.22 323.168 316.276C323.168 318.292 322.484 319.828 321.116 320.884C319.772 321.916 317.756 322.432 315.068 322.432ZM333.112 322C332.728 322 332.56 321.82 332.608 321.46L336.172 298.96C336.22 298.6 336.4 298.42 336.712 298.42H344.668C348.484 298.42 351.292 299.32 353.092 301.12C354.892 302.92 355.492 305.632 354.892 309.256L354.496 311.632C354.112 313.912 353.452 315.82 352.516 317.356C351.604 318.892 350.308 320.056 348.628 320.848C346.948 321.616 344.8 322 342.184 322H333.112ZM339.988 316.24H342.508C344.284 316.24 345.58 315.82 346.396 314.98C347.236 314.116 347.776 312.904 348.016 311.344L348.376 309.04C348.64 307.408 348.388 306.196 347.62 305.404C346.852 304.588 345.616 304.18 343.912 304.18H341.896L339.988 316.24ZM360.665 322.432C359.537 322.432 358.637 322.192 357.965 321.712C357.317 321.232 356.885 320.536 356.669 319.624C356.453 318.688 356.453 317.56 356.669 316.24L357.533 310.876C357.941 308.332 358.841 306.484 360.233 305.332C361.625 304.156 363.701 303.568 366.461 303.568C368.213 303.568 369.773 303.676 371.141 303.892C372.533 304.108 373.949 304.264 375.389 304.36L373.301 317.284C373.181 318.076 373.085 318.82 373.013 319.516C372.941 320.188 372.881 320.836 372.833 321.46C372.809 321.82 372.629 322 372.293 322H367.793C367.481 322 367.301 321.82 367.253 321.46C367.229 321.172 367.217 320.86 367.217 320.524C367.217 320.188 367.229 319.852 367.253 319.516C366.269 320.452 365.189 321.172 364.013 321.676C362.861 322.18 361.745 322.432 360.665 322.432ZM364.589 316.888C365.069 316.888 365.513 316.792 365.921 316.6C366.353 316.384 366.785 316.12 367.217 315.808L368.297 308.968C368.033 308.92 367.721 308.872 367.361 308.824C367.025 308.776 366.617 308.752 366.137 308.752C365.441 308.752 364.901 308.968 364.517 309.4C364.157 309.808 363.917 310.444 363.797 311.308L363.257 314.872C363.161 315.544 363.221 316.048 363.437 316.384C363.653 316.72 364.037 316.888 364.589 316.888ZM376.652 322C376.268 322 376.1 321.82 376.148 321.46L378.848 304.54C378.92 304.18 379.1 304 379.388 304H384.716C384.884 304 385.016 304.048 385.112 304.144C385.208 304.216 385.232 304.348 385.184 304.54L382.52 321.46C382.496 321.628 382.436 321.76 382.34 321.856C382.268 321.952 382.148 322 381.98 322H376.652ZM382.664 302.2C381.608 302.2 380.792 301.948 380.216 301.444C379.664 300.94 379.448 300.208 379.568 299.248L379.676 298.456C379.796 297.52 380.156 296.8 380.756 296.296C381.356 295.768 382.172 295.504 383.204 295.504C384.26 295.504 385.064 295.756 385.616 296.26C386.192 296.764 386.42 297.496 386.3 298.456L386.192 299.248C386.072 300.184 385.712 300.916 385.112 301.444C384.512 301.948 383.696 302.2 382.664 302.2ZM386.508 322C386.124 322 385.956 321.82 386.004 321.46L388.02 308.716C388.14 307.924 388.236 307.192 388.308 306.52C388.404 305.824 388.476 305.164 388.524 304.54C388.524 304.18 388.704 304 389.064 304H393.564C393.732 304 393.852 304.048 393.924 304.144C394.02 304.216 394.08 304.348 394.104 304.54C394.152 304.924 394.164 305.344 394.14 305.8C394.116 306.232 394.08 306.688 394.032 307.168L394.248 309.58L392.376 321.46C392.352 321.628 392.304 321.76 392.232 321.856C392.16 321.952 392.028 322 391.836 322H386.508ZM393.456 312.208L393.816 307.096C394.368 306.424 394.908 305.824 395.436 305.296C395.988 304.768 396.576 304.348 397.2 304.036C397.848 303.724 398.568 303.568 399.36 303.568C399.912 303.568 400.296 303.616 400.512 303.712C400.68 303.784 400.776 303.868 400.8 303.964C400.824 304.06 400.824 304.192 400.8 304.36C400.704 305.056 400.572 305.872 400.404 306.808C400.236 307.744 400.056 308.596 399.864 309.364C399.768 309.7 399.576 309.856 399.288 309.832C399.144 309.808 398.976 309.784 398.784 309.76C398.592 309.736 398.352 309.724 398.064 309.724C397.704 309.724 397.248 309.808 396.696 309.976C396.168 310.144 395.616 310.408 395.04 310.768C394.488 311.128 393.96 311.608 393.456 312.208ZM403.509 328.66C403.341 328.66 403.209 328.612 403.113 328.516C403.041 328.42 403.053 328.288 403.149 328.12L406.245 322L402.753 304.54C402.729 304.348 402.765 304.216 402.861 304.144C402.957 304.048 403.089 304 403.257 304H408.909C409.245 304 409.425 304.18 409.449 304.54L409.917 309.364C409.989 310.156 410.037 310.996 410.061 311.884C410.109 312.748 410.145 313.672 410.169 314.656H410.277C410.613 313.672 410.937 312.76 411.249 311.92C411.561 311.056 411.873 310.228 412.185 309.436L414.201 304.54C414.249 304.396 414.321 304.276 414.417 304.18C414.537 304.06 414.681 304 414.849 304H420.717C420.885 304 421.005 304.06 421.077 304.18C421.173 304.276 421.185 304.396 421.113 304.54L409.305 328.12C409.137 328.48 408.897 328.66 408.585 328.66H403.509ZM421.268 322C421.1 322 420.968 321.952 420.872 321.856C420.776 321.76 420.74 321.628 420.764 321.46L424.508 297.952C424.556 297.592 424.736 297.412 425.048 297.412H430.34C430.508 297.412 430.64 297.46 430.736 297.556C430.832 297.652 430.868 297.784 430.844 297.952L427.136 321.46C427.088 321.82 426.908 322 426.596 322H421.268ZM435.049 322.432C433.921 322.432 433.021 322.192 432.349 321.712C431.701 321.232 431.269 320.536 431.053 319.624C430.837 318.688 430.837 317.56 431.053 316.24L431.917 310.876C432.325 308.332 433.225 306.484 434.617 305.332C436.009 304.156 438.085 303.568 440.845 303.568C442.597 303.568 444.157 303.676 445.525 303.892C446.917 304.108 448.333 304.264 449.773 304.36L447.685 317.284C447.565 318.076 447.469 318.82 447.397 319.516C447.325 320.188 447.265 320.836 447.217 321.46C447.193 321.82 447.013 322 446.677 322H442.177C441.865 322 441.685 321.82 441.637 321.46C441.613 321.172 441.601 320.86 441.601 320.524C441.601 320.188 441.613 319.852 441.637 319.516C440.653 320.452 439.573 321.172 438.397 321.676C437.245 322.18 436.129 322.432 435.049 322.432ZM438.973 316.888C439.453 316.888 439.897 316.792 440.305 316.6C440.737 316.384 441.169 316.12 441.601 315.808L442.681 308.968C442.417 308.92 442.105 308.872 441.745 308.824C441.409 308.776 441.001 308.752 440.521 308.752C439.825 308.752 439.285 308.968 438.901 309.4C438.541 309.808 438.301 310.444 438.181 311.308L437.641 314.872C437.545 315.544 437.605 316.048 437.821 316.384C438.037 316.72 438.421 316.888 438.973 316.888ZM461.584 322C461.2 322 461.032 321.82 461.08 321.46L462.7 311.2C462.82 310.48 462.772 309.952 462.556 309.616C462.34 309.28 461.956 309.112 461.404 309.112C461.044 309.112 460.66 309.184 460.252 309.328C459.844 309.472 459.436 309.676 459.028 309.94C458.644 310.204 458.26 310.528 457.876 310.912L457.948 307.132C459.22 305.908 460.432 305.008 461.584 304.432C462.76 303.856 463.972 303.568 465.22 303.568C466.924 303.568 468.112 304.084 468.784 305.116C469.456 306.148 469.624 307.696 469.288 309.76L467.452 321.46C467.38 321.82 467.2 322 466.912 322H461.584ZM451.036 322C450.652 322 450.484 321.82 450.532 321.46L452.548 308.716C452.668 307.924 452.764 307.192 452.836 306.52C452.932 305.824 453.004 305.164 453.052 304.54C453.052 304.18 453.232 304 453.592 304H458.092C458.26 304 458.38 304.048 458.452 304.144C458.548 304.216 458.608 304.348 458.632 304.54C458.656 304.78 458.668 305.044 458.668 305.332C458.668 305.62 458.656 305.92 458.632 306.232C458.632 306.52 458.608 306.832 458.56 307.168L458.776 309.58L456.904 321.46C456.88 321.628 456.832 321.76 456.76 321.856C456.688 321.952 456.556 322 456.364 322H451.036ZM475.543 322.432C473.839 322.432 472.639 321.904 471.943 320.848C471.271 319.792 471.103 318.22 471.439 316.132L472.339 310.696C472.747 308.2 473.515 306.388 474.643 305.26C475.771 304.132 477.379 303.568 479.467 303.568C480.307 303.568 481.171 303.676 482.059 303.892C482.947 304.108 483.703 304.384 484.327 304.72L483.571 309.544C483.187 309.304 482.743 309.112 482.239 308.968C481.759 308.824 481.291 308.752 480.835 308.752C480.403 308.752 480.031 308.836 479.719 309.004C479.431 309.172 479.191 309.436 478.999 309.796C478.831 310.156 478.699 310.624 478.603 311.2L478.027 314.656C477.883 315.424 477.919 315.988 478.135 316.348C478.351 316.708 478.747 316.888 479.323 316.888C479.683 316.888 480.055 316.816 480.439 316.672C480.847 316.528 481.255 316.324 481.663 316.06C482.095 315.772 482.491 315.448 482.851 315.088L482.779 318.796C482.203 319.324 481.567 319.876 480.871 320.452C480.199 321.004 479.419 321.472 478.531 321.856C477.667 322.24 476.671 322.432 475.543 322.432ZM482.599 322C482.431 322 482.299 321.952 482.203 321.856C482.131 321.76 482.083 321.628 482.059 321.46C482.035 321.076 482.023 320.668 482.023 320.236C482.047 319.78 482.083 319.312 482.131 318.832L481.915 316.42L484.831 297.952C484.855 297.784 484.903 297.652 484.975 297.556C485.071 297.46 485.203 297.412 485.371 297.412H490.699C491.059 297.412 491.215 297.592 491.167 297.952L488.107 317.284C487.987 318.076 487.891 318.82 487.819 319.516C487.747 320.188 487.687 320.836 487.639 321.46C487.615 321.82 487.435 322 487.099 322H482.599Z" fill="#D41046"/>
<path d="M429.925 62.8901L429 72.4945V73H615V68.956L612.224 67.9451L608.522 67.4396L603.896 67.9451L600.657 68.956L597.418 70.4725H592.328L591.403 69.4615L589.552 67.9451L587.701 66.4286L584 65.9231H581.224L578.448 66.4286L575.672 67.4396L574.746 68.956L572.896 69.4615L572.433 68.956L571.045 67.4396L569.657 65.9231L567.343 64.9121L564.567 63.9011H561.328L559.478 64.9121L556.701 65.9231L554.388 67.4396L553.463 66.4286L551.612 64.9121L549.299 63.9011H546.985H544.672L541.896 64.4066L539.119 65.9231H537.731L534.493 64.4066L531.716 63.9011H528.94L523.851 65.9231L521.537 64.4066L518.299 63.3956H514.597L510.896 63.9011L508.119 65.9231L506.269 64.9121L501.642 63.9011L497.94 64.4066L494.239 64.9121L491.463 65.9231L491 63.9011L487.299 59.8571L482.209 57.8352L476.194 57.3297H470.179L466.478 59.8571L463.239 61.8791L459.537 64.9121L456.299 63.3956L452.597 62.3846L449.358 62.8901L447.045 64.9121V62.8901L448.433 59.8571L450.284 57.3297L452.134 56.3187H454.448H457.224L458.612 54.2967L459.537 52.2747L460.925 51.2637L462.313 50.2527H464.627L468.328 51.7692V50.2527L470.179 48.7363L471.567 47.2198L474.806 45.7033L477.582 44.6923L480.821 45.7033L483.597 47.2198L485.91 50.2527L487.761 52.2747L490.075 51.7692H492.851L496.552 52.2747L499.328 54.2967L500.716 52.2747L502.567 50.2527L504.881 49.2418H508.119L523.388 30.033L520.612 29.022L518.299 28.5165H515.522L512.284 30.033L509.97 32.0549L508.119 35.0879L506.731 38.1209H506.269L503.493 36.0989L501.179 35.0879H498.403L495.627 36.6044L493.776 33.0659L489.149 29.022L484.985 27H479.433L474.343 28.5165L470.179 32.0549L466.478 38.1209L465.552 38.6264L460.463 38.1209L455.373 38.6264L451.209 44.6923L450.284 48.7363L442.881 47.2198L437.328 48.7363L431.776 55.3077L429.925 62.8901Z" fill="#039660"/>
<rect x="35" y="11" width="580" height="3" fill="black"/>
<rect x="35" y="335" width="580" height="3" fill="black"/>
<rect x="35" y="76" width="580" height="5" fill="black"/>
<path fill-rule="evenodd" clip-rule="evenodd" d="M394.702 71.5C399.858 65.8191 403 58.2765 403 50C403 32.3269 388.673 18 371 18C353.327 18 339 32.3269 339 50C339 58.2765 342.142 65.8191 347.298 71.5H361L384 36.5L382 71.5H394.702Z" fill="#E95424"/>
<path d="M410.5 39.5H406L413 42L426.5 40.5L430 40L418.5 37.5L420 34.5L421 30.5L420 27L419 25L416 29V32L413.5 34.5V37H412.5L409 32.5L408 28.5L406.5 32.5L407 35.5L410 37.5L410.5 39.5Z" fill="#222359"/>
<path d="M432.5 31.1672L429 29.1672L433.5 28.6672L435.5 28.1672L437.5 28.6672L440.5 30.6672L442 28.6672L444 26.6672L446 26L449 26.1672L454 28.1672L448.5 27.6672L447 28.1672L446 29.1672V30.1672L448 31.1672H451H455.5L456.5 33.1672L452 32.1672L446.5 32.6672L443.5 34.1672L435.5 34.6672L434.5 34.1672L437.5 32.1672L436.5 31.1672H432.5Z" fill="#1C2D63"/>
<path d="M520 54.5V60.5H595V48H575.5L574 46.5V25.5L575.5 22.5L574 21L568.5 19H563L558.5 21L560 24V30.5L548.5 22.5L528.5 35L511 54.5H520Z" fill="#D41046"/>
<path d="M530.5 35L514 53H518.5L525.5 45H528.5L529 59H530.5V45.5H535V59H554V45.5H557V59H559V43.5H529L527.5 42.5L532.5 37L542 32V39.5H553V32H544.5V30L548 27.5L561.5 35L566 36L569 37V41L573.5 43.5V24H564L569 25V35L566 34L548 24L530.5 35Z" fill="#1F2B65"/>
<path d="M574 60V47L577.5 50L597 49.5L599.5 53.5L578.5 54.5L579.5 56.5L587.5 60H574Z" fill="#222D65"/>
<path d="M611 51.5H620V53.5H611V55.5H620V57.5H611V60H609V57.5H604.5V55.5H609V53.5H604.5V51.5H609V49.5H611V51.5Z" fill="#222D67"/>
</svg>
