<svg width="649" height="348" viewBox="0 0 649 348" fill="none" xmlns="http://www.w3.org/2000/svg">
<rect width="649" height="348" rx="41" fill="#9CCAF4"/>
<path d="M163.1 63.3L151.28 27L146.6 24.36V23.4H167.84V24.36L162.8 26.7L169.34 47.88H169.76L180.14 23.1H184.52L194.66 47.88H195.08L201.68 26.7L196.58 24.36V23.4H210.26V24.36L206.24 26.4L194.12 63.3H189.74L179.12 38.4H178.7L167.48 63.3H163.1ZM226.703 63V62.04L232.043 59.52V44.52L219.083 26.88L214.763 24.36V23.4H235.943V24.36L231.323 26.7V26.94L241.583 40.74L250.763 27.06V26.82L245.963 24.36V23.4H260.243V24.36L256.103 26.34L243.443 44.52V59.52L248.783 62.04V63H226.703ZM285.626 63.6C282.586 63.6 279.786 63.1 277.226 62.1C274.666 61.06 272.426 59.64 270.506 57.84C268.586 56 267.086 53.84 266.006 51.36C264.966 48.88 264.446 46.16 264.446 43.2C264.446 40.24 264.966 37.52 266.006 35.04C267.086 32.56 268.586 30.42 270.506 28.62C272.426 26.78 274.666 25.36 277.226 24.36C279.786 23.32 282.586 22.8 285.626 22.8C288.666 22.8 291.466 23.32 294.026 24.36C296.626 25.36 298.886 26.78 300.806 28.62C302.726 30.42 304.206 32.56 305.246 35.04C306.326 37.52 306.866 40.24 306.866 43.2C306.866 46.16 306.326 48.88 305.246 51.36C304.206 53.84 302.726 56 300.806 57.84C298.886 59.64 296.626 61.06 294.026 62.1C291.466 63.1 288.666 63.6 285.626 63.6ZM286.406 60.42C288.086 60.42 289.546 59.78 290.786 58.5C292.066 57.22 293.066 55.44 293.786 53.16C294.506 50.84 294.866 48.1 294.866 44.94C294.866 41.1 294.426 37.76 293.546 34.92C292.666 32.08 291.486 29.88 290.006 28.32C288.526 26.72 286.846 25.92 284.966 25.92C283.326 25.92 281.866 26.56 280.586 27.84C279.306 29.08 278.286 30.86 277.526 33.18C276.806 35.46 276.446 38.18 276.446 41.34C276.446 45.18 276.886 48.54 277.766 51.42C278.686 54.26 279.886 56.48 281.366 58.08C282.886 59.64 284.566 60.42 286.406 60.42ZM314.087 63V62.04L319.427 59.52L320.687 26.82L315.347 24.36V23.4H332.627L343.607 48.78L354.287 23.4H371.147V24.36L365.807 26.04L366.827 59.52L371.627 62.04V63H350.627V62.04L355.667 59.58L355.127 31.92L341.867 63.3H338.027L324.467 31.74L323.687 59.58L329.147 62.04V63H314.087ZM378.5 63V62.04L383.84 59.52V26.88L378.5 24.36V23.4H400.58V24.36L395.24 26.88V59.52L400.58 62.04V63H378.5ZM407.464 63V62.04L412.804 59.52V26.88L407.464 24.36V23.4H420.484L444.064 48.12V26.88L436.684 24.36V23.4H453.484V24.36L448.264 26.88V63.3H443.524L417.004 35.82V59.52L424.384 62.04V63H407.464ZM481.993 63.6C479.113 63.6 476.393 63.1 473.833 62.1C471.273 61.1 469.013 59.7 467.053 57.9C465.133 56.1 463.613 54.02 462.493 51.66C461.373 49.26 460.813 46.66 460.813 43.86C460.813 40.78 461.453 37.96 462.733 35.4C464.013 32.84 465.753 30.62 467.953 28.74C470.153 26.86 472.653 25.4 475.453 24.36C478.253 23.32 481.173 22.8 484.213 22.8C486.373 22.8 488.213 22.92 489.733 23.16C491.253 23.4 492.613 23.74 493.813 24.18C495.013 24.62 496.193 25.12 497.353 25.68L498.253 36.66H497.113L490.153 26.7C488.713 26.02 486.913 25.68 484.753 25.68C482.593 25.68 480.593 26.44 478.753 27.96C476.953 29.44 475.493 31.56 474.373 34.32C473.293 37.04 472.753 40.28 472.753 44.04C472.753 47.36 473.233 50.26 474.193 52.74C475.193 55.18 476.513 57.08 478.153 58.44C479.833 59.76 481.693 60.42 483.733 60.42C484.533 60.42 485.413 60.36 486.373 60.24V48.66L481.033 45.54V44.58H502.513V45.54L497.773 48.66V58.56C496.533 59.6 495.013 60.5 493.213 61.26C491.413 61.98 489.513 62.56 487.513 63C485.553 63.4 483.713 63.6 481.993 63.6ZM493.093 58.38L492.493 58.68C492.693 58.6 492.893 58.5 493.093 58.38Z" fill="#FEC250"/>
<path d="M163.1 63.3L162.149 63.6096L162.374 64.3H163.1V63.3ZM151.28 27L152.231 26.6904L152.11 26.3203L151.771 26.129L151.28 27ZM146.6 24.36H145.6V24.944L146.109 25.231L146.6 24.36ZM146.6 23.4V22.4H145.6V23.4H146.6ZM167.84 23.4H168.84V22.4H167.84V23.4ZM167.84 24.36L168.261 25.267L168.84 24.9982V24.36H167.84ZM162.8 26.7L162.379 25.793L161.587 26.1607L161.845 26.995L162.8 26.7ZM169.34 47.88L168.385 48.175L168.602 48.88H169.34V47.88ZM169.76 47.88V48.88H170.425L170.682 48.2664L169.76 47.88ZM180.14 23.1V22.1H179.475L179.218 22.7136L180.14 23.1ZM184.52 23.1L185.446 22.7213L185.191 22.1H184.52V23.1ZM194.66 47.88L193.734 48.2587L193.989 48.88H194.66V47.88ZM195.08 47.88V48.88H195.816L196.035 48.1775L195.08 47.88ZM201.68 26.7L202.635 26.9975L202.896 26.1579L202.097 25.7911L201.68 26.7ZM196.58 24.36H195.58V25.0014L196.163 25.2689L196.58 24.36ZM196.58 23.4V22.4H195.58V23.4H196.58ZM210.26 23.4H211.26V22.4H210.26V23.4ZM210.26 24.36L210.713 25.2517L211.26 24.9739V24.36H210.26ZM206.24 26.4L205.787 25.5082L205.419 25.6953L205.29 26.0879L206.24 26.4ZM194.12 63.3V64.3H194.844L195.07 63.6121L194.12 63.3ZM189.74 63.3L188.82 63.6923L189.079 64.3H189.74V63.3ZM179.12 38.4L180.04 38.0077L179.781 37.4H179.12V38.4ZM178.7 38.4V37.4H178.054L177.788 37.9892L178.7 38.4ZM167.48 63.3V64.3H168.126L168.392 63.7108L167.48 63.3ZM164.051 62.9904L152.231 26.6904L150.329 27.3096L162.149 63.6096L164.051 62.9904ZM151.771 26.129L147.091 23.489L146.109 25.231L150.789 27.871L151.771 26.129ZM147.6 24.36V23.4H145.6V24.36H147.6ZM146.6 24.4H167.84V22.4H146.6V24.4ZM166.84 23.4V24.36H168.84V23.4H166.84ZM167.419 23.453L162.379 25.793L163.221 27.607L168.261 25.267L167.419 23.453ZM161.845 26.995L168.385 48.175L170.295 47.585L163.755 26.405L161.845 26.995ZM169.34 48.88H169.76V46.88H169.34V48.88ZM170.682 48.2664L181.062 23.4864L179.218 22.7136L168.838 47.4936L170.682 48.2664ZM180.14 24.1H184.52V22.1H180.14V24.1ZM183.594 23.4787L193.734 48.2587L195.586 47.5013L185.446 22.7213L183.594 23.4787ZM194.66 48.88H195.08V46.88H194.66V48.88ZM196.035 48.1775L202.635 26.9975L200.725 26.4025L194.125 47.5825L196.035 48.1775ZM202.097 25.7911L196.997 23.4511L196.163 25.2689L201.263 27.6089L202.097 25.7911ZM197.58 24.36V23.4H195.58V24.36H197.58ZM196.58 24.4H210.26V22.4H196.58V24.4ZM209.26 23.4V24.36H211.26V23.4H209.26ZM209.807 23.4682L205.787 25.5082L206.693 27.2917L210.713 25.2517L209.807 23.4682ZM205.29 26.0879L193.17 62.9879L195.07 63.6121L207.19 26.7121L205.29 26.0879ZM194.12 62.3H189.74V64.3H194.12V62.3ZM190.66 62.9077L180.04 38.0077L178.2 38.7923L188.82 63.6923L190.66 62.9077ZM179.12 37.4H178.7V39.4H179.12V37.4ZM177.788 37.9892L166.568 62.8892L168.392 63.7108L179.612 38.8108L177.788 37.9892ZM167.48 62.3H163.1V64.3H167.48V62.3ZM226.703 63H225.703V64H226.703V63ZM226.703 62.04L226.277 61.1356L225.703 61.4062V62.04H226.703ZM232.043 59.52L232.47 60.4244L233.043 60.1538V59.52H232.043ZM232.043 44.52H233.043V44.1921L232.849 43.9279L232.043 44.52ZM219.083 26.88L219.889 26.2879L219.766 26.1207L219.587 26.0162L219.083 26.88ZM214.763 24.36H213.763V24.9344L214.259 25.2238L214.763 24.36ZM214.763 23.4V22.4H213.763V23.4H214.763ZM235.943 23.4H236.943V22.4H235.943V23.4ZM235.943 24.36L236.395 25.2521L236.943 24.9745V24.36H235.943ZM231.323 26.7L230.871 25.8079L230.323 26.0855V26.7H231.323ZM231.323 26.94H230.323V27.271L230.521 27.5366L231.323 26.94ZM241.583 40.74L240.781 41.3366L241.625 42.4723L242.414 41.2972L241.583 40.74ZM250.763 27.06L251.594 27.6172L251.763 27.3644V27.06H250.763ZM250.763 26.82H251.763V26.2088L251.219 25.9301L250.763 26.82ZM245.963 24.36H244.963V24.9712L245.507 25.2499L245.963 24.36ZM245.963 23.4V22.4H244.963V23.4H245.963ZM260.243 23.4H261.243V22.4H260.243V23.4ZM260.243 24.36L260.675 25.2621L261.243 24.9902V24.36H260.243ZM256.103 26.34L255.672 25.4379L255.434 25.5518L255.283 25.7685L256.103 26.34ZM243.443 44.52L242.623 43.9485L242.443 44.2061V44.52H243.443ZM243.443 59.52H242.443V60.1538L243.017 60.4244L243.443 59.52ZM248.783 62.04H249.783V61.4062L249.21 61.1356L248.783 62.04ZM248.783 63V64H249.783V63H248.783ZM227.703 63V62.04H225.703V63H227.703ZM227.13 62.9444L232.47 60.4244L231.617 58.6156L226.277 61.1356L227.13 62.9444ZM233.043 59.52V44.52H231.043V59.52H233.043ZM232.849 43.9279L219.889 26.2879L218.277 27.4721L231.237 45.1121L232.849 43.9279ZM219.587 26.0162L215.267 23.4962L214.259 25.2238L218.579 27.7438L219.587 26.0162ZM215.763 24.36V23.4H213.763V24.36H215.763ZM214.763 24.4H235.943V22.4H214.763V24.4ZM234.943 23.4V24.36H236.943V23.4H234.943ZM235.491 23.4679L230.871 25.8079L231.775 27.5921L236.395 25.2521L235.491 23.4679ZM230.323 26.7V26.94H232.323V26.7H230.323ZM230.521 27.5366L240.781 41.3366L242.386 40.1434L232.126 26.3434L230.521 27.5366ZM242.414 41.2972L251.594 27.6172L249.933 26.5028L240.753 40.1828L242.414 41.2972ZM251.763 27.06V26.82H249.763V27.06H251.763ZM251.219 25.9301L246.419 23.4701L245.507 25.2499L250.307 27.7099L251.219 25.9301ZM246.963 24.36V23.4H244.963V24.36H246.963ZM245.963 24.4H260.243V22.4H245.963V24.4ZM259.243 23.4V24.36H261.243V23.4H259.243ZM259.812 23.4579L255.672 25.4379L256.535 27.2421L260.675 25.2621L259.812 23.4579ZM255.283 25.7685L242.623 43.9485L244.264 45.0915L256.924 26.9115L255.283 25.7685ZM242.443 44.52V59.52H244.443V44.52H242.443ZM243.017 60.4244L248.357 62.9444L249.21 61.1356L243.87 58.6156L243.017 60.4244ZM247.783 62.04V63H249.783V62.04H247.783ZM248.783 62H226.703V64H248.783V62ZM277.226 62.1L276.85 63.0266L276.862 63.0315L277.226 62.1ZM270.506 57.84L269.814 58.562L269.822 58.5695L270.506 57.84ZM266.006 51.36L265.084 51.7468L265.089 51.7593L266.006 51.36ZM266.006 35.04L265.089 34.6407L265.084 34.6533L266.006 35.04ZM270.506 28.62L271.19 29.3496L271.198 29.342L270.506 28.62ZM277.226 24.36L277.59 25.2915L277.602 25.2865L277.226 24.36ZM294.026 24.36L293.65 25.2865L293.658 25.29L293.667 25.2933L294.026 24.36ZM300.806 28.62L300.114 29.342L300.122 29.3495L300.806 28.62ZM305.246 35.04L304.324 35.4268L304.329 35.4393L305.246 35.04ZM305.246 51.36L304.329 50.9607L304.324 50.9733L305.246 51.36ZM300.806 57.84L301.49 58.5696L301.498 58.562L300.806 57.84ZM294.026 62.1L294.39 63.0315L294.397 63.0285L294.026 62.1ZM290.786 58.5L290.079 57.7929L290.073 57.7985L290.068 57.8042L290.786 58.5ZM293.786 53.16L294.74 53.4611L294.741 53.4564L293.786 53.16ZM290.006 28.32L289.272 28.9991L289.281 29.0083L290.006 28.32ZM280.586 27.84L281.282 28.5582L281.288 28.5527L281.293 28.5471L280.586 27.84ZM277.526 33.18L276.576 32.8687L276.573 32.8789L277.526 33.18ZM277.766 51.42L276.81 51.7122L276.812 51.7202L276.815 51.7282L277.766 51.42ZM281.366 58.08L280.632 58.759L280.641 58.7686L280.65 58.7779L281.366 58.08ZM285.626 62.6C282.697 62.6 280.022 62.1187 277.59 61.1685L276.862 63.0315C279.55 64.0813 282.475 64.6 285.626 64.6V62.6ZM277.602 61.1735C275.15 60.1774 273.016 58.8224 271.19 57.1105L269.822 58.5695C271.836 60.4576 274.182 61.9426 276.85 63.0265L277.602 61.1735ZM271.198 57.118C269.375 55.3712 267.951 53.3215 266.923 50.9607L265.089 51.7593C266.221 54.3585 267.797 56.6288 269.814 58.562L271.198 57.118ZM266.928 50.9733C265.945 48.6275 265.446 46.0406 265.446 43.2H263.446C263.446 46.2794 263.988 49.1325 265.084 51.7467L266.928 50.9733ZM265.446 43.2C265.446 40.3594 265.945 37.7725 266.928 35.4267L265.084 34.6533C263.988 37.2675 263.446 40.1206 263.446 43.2H265.446ZM266.923 35.4393C267.95 33.0805 269.372 31.0538 271.19 29.3495L269.822 27.8905C267.8 29.7862 266.222 32.0395 265.089 34.6407L266.923 35.4393ZM271.198 29.342C273.02 27.5957 275.148 26.2454 277.59 25.2915L276.862 23.4285C274.184 24.4746 271.832 25.9643 269.814 27.898L271.198 29.342ZM277.602 25.2865C280.031 24.2997 282.702 23.8 285.626 23.8V21.8C282.47 21.8 279.541 22.3403 276.85 23.4335L277.602 25.2865ZM285.626 23.8C288.55 23.8 291.221 24.2997 293.65 25.2865L294.402 23.4335C291.711 22.3403 288.782 21.8 285.626 21.8V23.8ZM293.667 25.2933C296.149 26.248 298.295 27.5982 300.114 29.342L301.498 27.898C299.478 25.9618 297.103 24.472 294.385 23.4267L293.667 25.2933ZM300.122 29.3495C301.937 31.0512 303.337 33.0736 304.324 35.4267L306.168 34.6533C305.075 32.0464 303.515 29.7888 301.49 27.8905L300.122 29.3495ZM304.329 35.4393C305.349 37.7819 305.866 40.3643 305.866 43.2H307.866C307.866 40.1157 307.303 37.2581 306.163 34.6407L304.329 35.4393ZM305.866 43.2C305.866 46.0357 305.349 48.6181 304.329 50.9607L306.163 51.7593C307.303 49.1419 307.866 46.2843 307.866 43.2H305.866ZM304.324 50.9733C303.336 53.3284 301.934 55.3739 300.114 57.118L301.498 58.562C303.518 56.6261 305.076 54.3516 306.168 51.7467L304.324 50.9733ZM300.122 57.1105C298.299 58.8199 296.147 60.1748 293.655 61.1715L294.397 63.0285C297.106 61.9452 299.473 60.4601 301.49 58.5695L300.122 57.1105ZM293.662 61.1685C291.23 62.1187 288.555 62.6 285.626 62.6V64.6C288.777 64.6 291.702 64.0813 294.39 63.0315L293.662 61.1685ZM286.406 61.42C288.375 61.42 290.089 60.6571 291.504 59.1958L290.068 57.8042C289.003 58.9029 287.798 59.42 286.406 59.42V61.42ZM291.493 59.2071C292.917 57.783 293.986 55.847 294.74 53.4611L292.833 52.8589C292.146 55.033 291.215 56.657 290.079 57.7929L291.493 59.2071ZM294.741 53.4564C295.498 51.0166 295.866 48.172 295.866 44.94H293.866C293.866 48.028 293.514 50.6634 292.831 52.8636L294.741 53.4564ZM295.866 44.94C295.866 41.0273 295.418 37.5831 294.501 34.624L292.591 35.216C293.434 37.9369 293.866 41.1727 293.866 44.94H295.866ZM294.501 34.624C293.592 31.6903 292.35 29.3374 290.732 27.6317L289.281 29.0083C290.622 30.4226 291.74 32.4697 292.591 35.216L294.501 34.624ZM290.74 27.641C289.104 25.8721 287.17 24.92 284.966 24.92V26.92C286.522 26.92 287.948 27.5679 289.272 28.999L290.74 27.641ZM284.966 24.92C283.032 24.92 281.325 25.6867 279.879 27.1329L281.293 28.5471C282.407 27.4333 283.62 26.92 284.966 26.92V24.92ZM279.89 27.1218C278.459 28.5087 277.369 30.4486 276.576 32.8687L278.476 33.4913C279.204 31.2714 280.154 29.6513 281.282 28.5582L279.89 27.1218ZM276.573 32.8789C275.814 35.2818 275.446 38.1086 275.446 41.34H277.446C277.446 38.2514 277.799 35.6382 278.48 33.4811L276.573 32.8789ZM275.446 41.34C275.446 45.2532 275.894 48.7156 276.81 51.7122L278.722 51.1278C277.878 48.3644 277.446 45.1068 277.446 41.34H275.446ZM276.815 51.7282C277.764 54.658 279.024 57.0209 280.632 58.759L282.1 57.401C280.748 55.9391 279.608 53.862 278.717 51.1118L276.815 51.7282ZM280.65 58.7779C282.321 60.4927 284.247 61.42 286.406 61.42V59.42C284.885 59.42 283.451 58.7873 282.082 57.3821L280.65 58.7779ZM314.087 63H313.087V64H314.087V63ZM314.087 62.04L313.66 61.1356L313.087 61.4062V62.04H314.087ZM319.427 59.52L319.853 60.4244L320.403 60.1652L320.426 59.5585L319.427 59.52ZM320.687 26.82L321.686 26.8585L321.712 26.1912L321.105 25.9117L320.687 26.82ZM315.347 24.36H314.347V25.0003L314.928 25.2683L315.347 24.36ZM315.347 23.4V22.4H314.347V23.4H315.347ZM332.627 23.4L333.545 23.0029L333.284 22.4H332.627V23.4ZM343.607 48.78L342.689 49.1771L343.619 51.328L344.528 49.1679L343.607 48.78ZM354.287 23.4V22.4H353.623L353.365 23.0121L354.287 23.4ZM371.147 23.4H372.147V22.4H371.147V23.4ZM371.147 24.36L371.447 25.3139L372.147 25.0937V24.36H371.147ZM365.807 26.04L365.507 25.0861L364.784 25.3134L364.807 26.0704L365.807 26.04ZM366.827 59.52L365.827 59.5505L365.845 60.134L366.362 60.4054L366.827 59.52ZM371.627 62.04H372.627V61.4356L372.092 61.1546L371.627 62.04ZM371.627 63V64H372.627V63H371.627ZM350.627 63H349.627V64H350.627V63ZM350.627 62.04L350.188 61.1413L349.627 61.4153V62.04H350.627ZM355.667 59.58L356.105 60.4787L356.679 60.1987L356.667 59.5605L355.667 59.58ZM355.127 31.92L356.127 31.9005L354.206 31.5308L355.127 31.92ZM341.867 63.3V64.3H342.53L342.788 63.6892L341.867 63.3ZM338.027 63.3L337.108 63.6948L337.368 64.3H338.027V63.3ZM324.467 31.74L325.385 31.3452L323.467 31.712L324.467 31.74ZM323.687 59.58L322.687 59.552L322.668 60.218L323.276 60.4917L323.687 59.58ZM329.147 62.04H330.147V61.3937L329.557 61.1283L329.147 62.04ZM329.147 63V64H330.147V63H329.147ZM315.087 63V62.04H313.087V63H315.087ZM314.513 62.9444L319.853 60.4244L319 58.6156L313.66 61.1356L314.513 62.9444ZM320.426 59.5585L321.686 26.8585L319.687 26.7815L318.427 59.4815L320.426 59.5585ZM321.105 25.9117L315.765 23.4517L314.928 25.2683L320.268 27.7283L321.105 25.9117ZM316.347 24.36V23.4H314.347V24.36H316.347ZM315.347 24.4H332.627V22.4H315.347V24.4ZM331.709 23.7971L342.689 49.1771L344.525 48.3829L333.545 23.0029L331.709 23.7971ZM344.528 49.1679L355.208 23.7879L353.365 23.0121L342.685 48.3921L344.528 49.1679ZM354.287 24.4H371.147V22.4H354.287V24.4ZM370.147 23.4V24.36H372.147V23.4H370.147ZM370.847 23.4061L365.507 25.0861L366.107 26.9939L371.447 25.3139L370.847 23.4061ZM364.807 26.0704L365.827 59.5505L367.826 59.4895L366.806 26.0095L364.807 26.0704ZM366.362 60.4054L371.162 62.9254L372.092 61.1546L367.292 58.6346L366.362 60.4054ZM370.627 62.04V63H372.627V62.04H370.627ZM371.627 62H350.627V64H371.627V62ZM351.627 63V62.04H349.627V63H351.627ZM351.065 62.9387L356.105 60.4787L355.228 58.6813L350.188 61.1413L351.065 62.9387ZM356.667 59.5605L356.127 31.9005L354.127 31.9395L354.667 59.5995L356.667 59.5605ZM354.206 31.5308L340.946 62.9108L342.788 63.6892L356.048 32.3092L354.206 31.5308ZM341.867 62.3H338.027V64.3H341.867V62.3ZM338.945 62.9052L325.385 31.3452L323.548 32.1348L337.108 63.6948L338.945 62.9052ZM323.467 31.712L322.687 59.552L324.686 59.608L325.466 31.768L323.467 31.712ZM323.276 60.4917L328.736 62.9517L329.557 61.1283L324.097 58.6683L323.276 60.4917ZM328.147 62.04V63H330.147V62.04H328.147ZM329.147 62H314.087V64H329.147V62ZM378.5 63H377.5V64H378.5V63ZM378.5 62.04L378.073 61.1356L377.5 61.4062V62.04H378.5ZM383.84 59.52L384.267 60.4244L384.84 60.1538V59.52H383.84ZM383.84 26.88H384.84V26.2461L384.267 25.9756L383.84 26.88ZM378.5 24.36H377.5V24.9938L378.073 25.2644L378.5 24.36ZM378.5 23.4V22.4H377.5V23.4H378.5ZM400.58 23.4H401.58V22.4H400.58V23.4ZM400.58 24.36L401.007 25.2644L401.58 24.9938V24.36H400.58ZM395.24 26.88L394.813 25.9756L394.24 26.2461V26.88H395.24ZM395.24 59.52H394.24V60.1538L394.813 60.4244L395.24 59.52ZM400.58 62.04H401.58V61.4062L401.007 61.1356L400.58 62.04ZM400.58 63V64H401.58V63H400.58ZM379.5 63V62.04H377.5V63H379.5ZM378.927 62.9444L384.267 60.4244L383.413 58.6156L378.073 61.1356L378.927 62.9444ZM384.84 59.52V26.88H382.84V59.52H384.84ZM384.267 25.9756L378.927 23.4556L378.073 25.2644L383.413 27.7844L384.267 25.9756ZM379.5 24.36V23.4H377.5V24.36H379.5ZM378.5 24.4H400.58V22.4H378.5V24.4ZM399.58 23.4V24.36H401.58V23.4H399.58ZM400.153 23.4556L394.813 25.9756L395.667 27.7844L401.007 25.2644L400.153 23.4556ZM394.24 26.88V59.52H396.24V26.88H394.24ZM394.813 60.4244L400.153 62.9444L401.007 61.1356L395.667 58.6156L394.813 60.4244ZM399.58 62.04V63H401.58V62.04H399.58ZM400.58 62H378.5V64H400.58V62ZM407.464 63H406.464V64H407.464V63ZM407.464 62.04L407.037 61.1356L406.464 61.4062V62.04H407.464ZM412.804 59.52L413.231 60.4244L413.804 60.1538V59.52H412.804ZM412.804 26.88H413.804V26.2461L413.231 25.9756L412.804 26.88ZM407.464 24.36H406.464V24.9938L407.037 25.2644L407.464 24.36ZM407.464 23.4V22.4H406.464V23.4H407.464ZM420.484 23.4L421.208 22.7098L420.912 22.4H420.484V23.4ZM444.064 48.12L443.34 48.8102L445.064 50.6171V48.12H444.064ZM444.064 26.88H445.064V26.1648L444.387 25.9336L444.064 26.88ZM436.684 24.36H435.684V25.0752L436.361 25.3063L436.684 24.36ZM436.684 23.4V22.4H435.684V23.4H436.684ZM453.484 23.4H454.484V22.4H453.484V23.4ZM453.484 24.36L453.919 25.2605L454.484 24.9877V24.36H453.484ZM448.264 26.88L447.829 25.9794L447.264 26.2523V26.88H448.264ZM448.264 63.3V64.3H449.264V63.3H448.264ZM443.524 63.3L442.805 63.9944L443.099 64.3H443.524V63.3ZM417.004 35.82L417.724 35.1256L416.004 33.3438V35.82H417.004ZM417.004 59.52H416.004V60.2352L416.681 60.4663L417.004 59.52ZM424.384 62.04H425.384V61.3248L424.707 61.0937L424.384 62.04ZM424.384 63V64H425.384V63H424.384ZM408.464 63V62.04H406.464V63H408.464ZM407.891 62.9444L413.231 60.4244L412.377 58.6156L407.037 61.1356L407.891 62.9444ZM413.804 59.52V26.88H411.804V59.52H413.804ZM413.231 25.9756L407.891 23.4556L407.037 25.2644L412.377 27.7844L413.231 25.9756ZM408.464 24.36V23.4H406.464V24.36H408.464ZM407.464 24.4H420.484V22.4H407.464V24.4ZM419.76 24.0902L443.34 48.8102L444.788 47.4298L421.208 22.7098L419.76 24.0902ZM445.064 48.12V26.88H443.064V48.12H445.064ZM444.387 25.9336L437.007 23.4136L436.361 25.3063L443.741 27.8263L444.387 25.9336ZM437.684 24.36V23.4H435.684V24.36H437.684ZM436.684 24.4H453.484V22.4H436.684V24.4ZM452.484 23.4V24.36H454.484V23.4H452.484ZM453.049 23.4594L447.829 25.9794L448.699 27.7805L453.919 25.2605L453.049 23.4594ZM447.264 26.88V63.3H449.264V26.88H447.264ZM448.264 62.3H443.524V64.3H448.264V62.3ZM444.244 62.6056L417.724 35.1256L416.284 36.5144L442.805 63.9944L444.244 62.6056ZM416.004 35.82V59.52H418.004V35.82H416.004ZM416.681 60.4663L424.061 62.9863L424.707 61.0937L417.327 58.5737L416.681 60.4663ZM423.384 62.04V63H425.384V62.04H423.384ZM424.384 62H407.464V64H424.384V62ZM473.833 62.1L473.469 63.0315L473.469 63.0315L473.833 62.1ZM467.053 57.9L466.369 58.6296L466.377 58.6365L467.053 57.9ZM462.493 51.66L461.587 52.0829L461.59 52.0887L462.493 51.66ZM462.733 35.4L463.627 35.8472L463.627 35.8472L462.733 35.4ZM467.953 28.74L467.303 27.9798L467.303 27.9798L467.953 28.74ZM475.453 24.36L475.105 23.4226L475.105 23.4226L475.453 24.36ZM489.733 23.16L489.889 22.1722L489.889 22.1722L489.733 23.16ZM493.813 24.18L493.469 25.1189L493.469 25.1189L493.813 24.18ZM497.353 25.68L498.35 25.5983L498.303 25.0282L497.788 24.7794L497.353 25.68ZM498.253 36.66V37.66H499.338L499.25 36.5783L498.253 36.66ZM497.113 36.66L496.293 37.2328L496.592 37.66H497.113V36.66ZM490.153 26.7L490.973 26.1272L490.82 25.9093L490.58 25.7958L490.153 26.7ZM478.753 27.96L479.388 28.7324L479.39 28.731L478.753 27.96ZM474.373 34.32L473.446 33.944L473.444 33.951L474.373 34.32ZM474.193 52.74L473.26 53.101L473.264 53.1101L473.268 53.1192L474.193 52.74ZM478.153 58.44L477.515 59.2098L477.525 59.2182L477.535 59.2263L478.153 58.44ZM486.373 60.24L486.497 61.2323L487.373 61.1228V60.24H486.373ZM486.373 48.66H487.373V48.0861L486.877 47.7966L486.373 48.66ZM481.033 45.54H480.033V46.1139L480.528 46.4034L481.033 45.54ZM481.033 44.58V43.58H480.033V44.58H481.033ZM502.513 44.58H503.513V43.58H502.513V44.58ZM502.513 45.54L503.063 46.3753L503.513 46.079V45.54H502.513ZM497.773 48.66L497.223 47.8247L496.773 48.121V48.66H497.773ZM497.773 58.56L498.416 59.3262L498.773 59.0264V58.56H497.773ZM493.213 61.26L493.584 62.1885L493.593 62.1849L493.602 62.1812L493.213 61.26ZM487.513 63L487.713 63.9798L487.72 63.9783L487.728 63.9766L487.513 63ZM493.093 58.38L493.607 59.2375L492.646 57.4856L493.093 58.38ZM492.493 58.68L492.046 57.7856L492.864 59.6085L492.493 58.68ZM481.993 62.6C479.231 62.6 476.635 62.1211 474.197 61.1685L473.469 63.0315C476.151 64.0789 478.995 64.6 481.993 64.6V62.6ZM474.197 61.1685C471.748 60.2121 469.595 58.8769 467.729 57.1635L466.377 58.6365C468.431 60.5231 470.798 61.9879 473.469 63.0315L474.197 61.1685ZM467.737 57.1705C465.908 55.4554 464.462 53.4773 463.396 51.2313L461.59 52.0887C462.764 54.5627 464.358 56.7446 466.369 58.6295L467.737 57.1705ZM463.399 51.2371C462.344 48.9771 461.813 46.5224 461.813 43.86H459.813C459.813 46.7976 460.401 49.5429 461.587 52.0829L463.399 51.2371ZM461.813 43.86C461.813 40.9232 462.422 38.2579 463.627 35.8472L461.839 34.9528C460.484 37.662 459.813 40.6368 459.813 43.86H461.813ZM463.627 35.8472C464.847 33.4082 466.503 31.2943 468.603 29.5002L467.303 27.9798C465.003 29.9457 463.179 32.2718 461.839 34.9528L463.627 35.8472ZM468.603 29.5002C470.71 27.699 473.108 26.2979 475.801 25.2974L475.105 23.4226C472.198 24.5021 469.595 26.021 467.303 27.9798L468.603 29.5002ZM475.801 25.2974C478.488 24.2996 481.29 23.8 484.213 23.8V21.8C481.056 21.8 478.018 22.3404 475.105 23.4226L475.801 25.2974ZM484.213 23.8C486.34 23.8 488.125 23.9184 489.577 24.1478L489.889 22.1722C488.301 21.9216 486.406 21.8 484.213 21.8V23.8ZM489.577 24.1478C491.045 24.3796 492.341 24.7052 493.469 25.1189L494.157 23.2411C492.885 22.7748 491.461 22.4204 489.889 22.1722L489.577 24.1478ZM493.469 25.1189C494.638 25.5475 495.787 26.0347 496.918 26.5805L497.788 24.7794C496.598 24.2053 495.388 23.6925 494.157 23.2411L493.469 25.1189ZM496.356 25.7617L497.256 36.7417L499.25 36.5783L498.35 25.5983L496.356 25.7617ZM498.253 35.66H497.113V37.66H498.253V35.66ZM497.933 36.0872L490.973 26.1272L489.333 27.2728L496.293 37.2328L497.933 36.0872ZM490.58 25.7958C488.968 25.0344 487.011 24.68 484.753 24.68V26.68C486.815 26.68 488.458 27.0056 489.726 27.6042L490.58 25.7958ZM484.753 24.68C482.336 24.68 480.115 25.5376 478.116 27.189L479.39 28.731C481.071 27.3424 482.85 26.68 484.753 26.68V24.68ZM478.118 27.1876C476.158 28.7988 474.612 31.0715 473.446 33.944L475.3 34.696C476.374 32.0485 477.748 30.0812 479.388 28.7324L478.118 27.1876ZM473.444 33.951C472.306 36.8166 471.753 40.188 471.753 44.04H473.753C473.753 40.372 474.28 37.2634 475.302 34.689L473.444 33.951ZM471.753 44.04C471.753 47.4539 472.246 50.4812 473.26 53.101L475.126 52.379C474.22 50.0388 473.753 47.2661 473.753 44.04H471.753ZM473.268 53.1192C474.315 55.6754 475.722 57.723 477.515 59.2098L478.791 57.6702C477.304 56.437 476.071 54.6846 475.118 52.3608L473.268 53.1192ZM477.535 59.2263C479.382 60.6777 481.458 61.42 483.733 61.42V59.42C481.928 59.42 480.284 58.8423 478.771 57.6537L477.535 59.2263ZM483.733 61.42C484.582 61.42 485.504 61.3564 486.497 61.2323L486.249 59.2477C485.322 59.3636 484.484 59.42 483.733 59.42V61.42ZM487.373 60.24V48.66H485.373V60.24H487.373ZM486.877 47.7966L481.537 44.6766L480.528 46.4034L485.868 49.5234L486.877 47.7966ZM482.033 45.54V44.58H480.033V45.54H482.033ZM481.033 45.58H502.513V43.58H481.033V45.58ZM501.513 44.58V45.54H503.513V44.58H501.513ZM501.963 44.7047L497.223 47.8247L498.323 49.4953L503.063 46.3753L501.963 44.7047ZM496.773 48.66V58.56H498.773V48.66H496.773ZM497.13 57.7938C495.981 58.7581 494.551 59.6098 492.824 60.3388L493.602 62.1812C495.475 61.3902 497.085 60.4419 498.416 59.3262L497.13 57.7938ZM492.842 60.3315C491.095 61.0301 489.248 61.5944 487.298 62.0234L487.728 63.9766C489.778 63.5256 491.731 62.9299 493.584 62.1885L492.842 60.3315ZM487.313 62.0202C485.408 62.4089 483.636 62.6 481.993 62.6V64.6C483.79 64.6 485.697 64.3911 487.713 63.9798L487.313 62.0202ZM492.646 57.4856L492.046 57.7856L492.94 59.5744L493.54 59.2744L492.646 57.4856ZM492.864 59.6085C493.118 59.5071 493.365 59.3827 493.607 59.2375L492.578 57.5225C492.42 57.6173 492.268 57.6929 492.122 57.7515L492.864 59.6085Z" fill="black"/>
<path fill-rule="evenodd" clip-rule="evenodd" d="M0 306V128.013L16.9334 121.696L45.7519 116.442L70.204 109H104.699L125.658 112.502L140.067 121.696L155.35 140.082L164.083 155.842L179.802 176.418V200.496V221.071L201.197 239.02L220.847 247.776L253.595 253.029H291.583L295.076 221.071L303.809 195.68L314.725 176.418L320.838 172.478L326.078 158.031L353.587 160.658H370.616L394.631 167.224L409.04 176.418L411.66 195.68L447.465 200.496L461.438 189.113L472.354 176.418L480.214 169.413L503.356 179.044L514.272 176.418L526.935 163.284L552.697 143.147L572.346 139.644L601.164 143.147L631.729 149.276L649 152.605V292.115L620.377 288.927L574.966 285.862L540.034 288.927L503.356 285.862L521.695 293.742H540.034L563.613 298.558L574.966 301.622L563.613 304.687H509.032L445.719 306H148.363H0Z" fill="#C29E7C" fill-opacity="0.5"/>
</svg>
